<?xml version="1.0" standalone="no"?>
<!DOCTYPE svg PUBLIC "-//W3C//DTD SVG 1.1//EN" "http://www.w3.org/Graphics/SVG/1.1/DTD/svg11.dtd" >
<svg xmlns="http://www.w3.org/2000/svg" xmlns:xlink="http://www.w3.org/1999/xlink" version="1.1">
<metadata>
Created by FontForge 20201107 at Thu Jul  4 08:42:50 2024
 By 
Copyright 2019 CoType Foundry. All Rights Reserved
</metadata>
<defs>
<font id="Ambit-Regular" horiz-adv-x="1003" >
  <font-face 
    font-family="Ambit"
    font-weight="400"
    font-stretch="normal"
    units-per-em="2048"
    panose-1="0 0 5 0 0 0 0 0 0 0"
    ascent="1536"
    descent="-512"
    x-height="983"
    cap-height="1423"
    bbox="-731 -471 2675 1843"
    underline-thickness="122"
    underline-position="-409"
    unicode-range="U+000D-FB03"
  />
<missing-glyph horiz-adv-x="1269" 
d="M123 -223v1698h1024v-1698h-1024zM444 1294q-84 0 -129 -48.5t-45 -135.5t45 -135.5t129 -48.5q65 0 106 37.5t46 99.5h-94q-15 -59 -62 -59q-71 0 -71 106q0 107 71 107q47 0 62 -62h94q-5 63 -45.5 101t-106.5 38zM807 1294q-81 0 -129.5 -51.5t-48.5 -132.5
q0 -82 48.5 -133t129.5 -51q79 0 128.5 51t49.5 133q0 80 -49.5 132t-128.5 52zM887 1110q0 -106 -80 -106t-80 106q0 107 80 107t80 -107zM590 819h-299v-82h100v-282h96v282h103v82zM854 455v135l131 229h-106l-72 -133l-68 133h-112l131 -229v-135h96zM416 94h57
q62 0 99.5 34t37.5 91t-38 92t-99 35h-151v-364h94v112zM692 -18h256v81h-160v64h123v76h-123v61h154v82h-250v-364zM416 268h49q49 0 49 -49q0 -47 -49 -47h-49v96z" />
    <glyph glyph-name="f_f" unicode="ff" horiz-adv-x="1239" 
d="M889 1157q0 -72 45 -174h297v-147h-291v-836h-170v836h-418v-836h-170v836h-157v147h149q-41 103 -41 186q0 129 86 204t215 75q137 0 205 -74l-84 -119q-50 50 -125 50q-57 0 -93 -38.5t-36 -109.5q0 -72 45 -174h416q-41 103 -41 186q0 130 87 204.5t220 74.5
q235 0 293 -217l-158 -39q-27 113 -145 113q-57 0 -93 -38.5t-36 -109.5z" />
    <glyph glyph-name="fi" unicode="fi" horiz-adv-x="1087" 
d="M352 0h-170v836h-157v147h149q-41 103 -41 186q0 129 86 204t215 75q137 0 205 -74l-84 -119q-50 50 -125 50q-57 0 -93 -38.5t-36 -109.5q0 -72 45 -174h283v-147h-277v-836zM936 1217q-34 -32 -83 -32t-83 32t-34 79.5t34 79.5t83 32t83 -32t34 -79.5t-34 -79.5zM938 0
h-170v983h170v-983z" />
    <glyph glyph-name="fl" unicode="fl" horiz-adv-x="1089" 
d="M352 0h-170v836h-157v147h149q-41 103 -41 186q0 129 86 204t215 75q137 0 205 -74l-84 -119q-50 50 -125 50q-57 0 -93 -38.5t-36 -109.5q0 -72 45 -174h283v-147h-277v-836zM940 0h-170v1423h170v-1423z" />
    <glyph glyph-name="f_f_i" unicode="ffi" horiz-adv-x="1675" 
d="M1018 1305q-57 0 -93 -38.5t-36 -109.5q0 -72 45 -174h283v-147h-277v-836h-170v836h-418v-836h-170v836h-157v147h149q-41 103 -41 186q0 129 86 204t215 75q137 0 205 -74l-84 -119q-50 50 -125 50q-57 0 -93 -38.5t-36 -109.5q0 -72 45 -174h416q-41 103 -41 186
q0 129 86 204t215 75q137 0 205 -74l-84 -119q-50 50 -125 50zM1524 1376q34 -32 34 -79.5t-34 -79.5t-83 -32t-83 32t-34 79.5t34 79.5t83 32t83 -32zM1526 0h-170v983h170v-983z" />
    <glyph glyph-name="f_f_l" unicode="ffl" horiz-adv-x="1677" 
d="M1018 1305q-57 0 -93 -38.5t-36 -109.5q0 -72 45 -174h283v-147h-277v-836h-170v836h-418v-836h-170v836h-157v147h149q-41 103 -41 186q0 129 86 204t215 75q137 0 205 -74l-84 -119q-50 50 -125 50q-57 0 -93 -38.5t-36 -109.5q0 -72 45 -174h416q-41 103 -41 186
q0 129 86 204t215 75q137 0 205 -74l-84 -119q-50 50 -125 50zM1358 0v1423h170v-1423h-170z" />
    <glyph glyph-name=".notdef" horiz-adv-x="1269" 
d="M123 -223v1698h1024v-1698h-1024zM444 1294q-84 0 -129 -48.5t-45 -135.5t45 -135.5t129 -48.5q65 0 106 37.5t46 99.5h-94q-15 -59 -62 -59q-71 0 -71 106q0 107 71 107q47 0 62 -62h94q-5 63 -45.5 101t-106.5 38zM807 1294q-81 0 -129.5 -51.5t-48.5 -132.5
q0 -82 48.5 -133t129.5 -51q79 0 128.5 51t49.5 133q0 80 -49.5 132t-128.5 52zM887 1110q0 -106 -80 -106t-80 106q0 107 80 107t80 -107zM590 819h-299v-82h100v-282h96v282h103v82zM854 455v135l131 229h-106l-72 -133l-68 133h-112l131 -229v-135h96zM416 94h57
q62 0 99.5 34t37.5 91t-38 92t-99 35h-151v-364h94v112zM692 -18h256v81h-160v64h123v76h-123v61h154v82h-250v-364zM416 268h49q49 0 49 -49q0 -47 -49 -47h-49v96z" />
    <glyph glyph-name="uni0000" horiz-adv-x="1228" 
 />
    <glyph glyph-name="uni0000" horiz-adv-x="1228" 
 />
    <glyph glyph-name="nonmarkingreturn" horiz-adv-x="681" 
 />
    <glyph glyph-name="CR" unicode="&#xd;" horiz-adv-x="1228" 
 />
    <glyph glyph-name="space" unicode=" " horiz-adv-x="471" 
 />
    <glyph glyph-name="exclam" unicode="!" horiz-adv-x="530" 
d="M350 377h-149l-19 1046h187zM264 -20q-50 0 -85.5 35.5t-35.5 86.5t35.5 86t85.5 35q51 0 87 -35t36 -86t-36 -86.5t-87 -35.5z" />
    <glyph glyph-name="quotedbl" unicode="&#x22;" horiz-adv-x="776" 
d="M299 938h-137l-19 485h174zM614 938h-137l-18 485h174z" />
    <glyph glyph-name="numbersign" unicode="#" horiz-adv-x="1429" 
d="M1368 1051l-18 -133h-291l-58 -412h302l-19 -133h-301l-53 -373h-146l54 373h-340l-54 -373h-145l53 373h-291l19 133h291l57 412h-301l18 133h301l54 372h145l-53 -372h340l53 372h145l-53 -372h291zM516 506h340l57 412h-340z" />
    <glyph glyph-name="dollar" unicode="$" horiz-adv-x="1310" 
d="M1200 389q0 -179 -125 -288t-334 -128v-196h-155v198q-225 20 -353.5 135.5t-128.5 290.5q0 87 31 185l164 -51q-16 -53 -16 -125q0 -116 80 -189t223 -92v518l-21 4q-220 48 -316.5 146.5t-96.5 257.5q0 169 122 276t312 119v197h155v-201q203 -26 317.5 -148
t131.5 -327l-176 -25q-41 293 -273 342v-502l64 -12q206 -43 300.5 -138.5t94.5 -246.5zM330 1061q0 -172 256 -240v475q-120 -11 -188 -72t-68 -163zM741 614v-485q134 14 208.5 79t74.5 169q0 174 -268 233z" />
    <glyph glyph-name="percent" unicode="%" horiz-adv-x="1912" 
d="M694 762q-99 -111 -260 -111t-260 111q-98 107 -98 287t98.5 289.5t259.5 109.5t260 -109.5t99 -289.5q0 -179 -99 -287zM602 0h-160l869 1423h159zM289 858q57 -72 145 -72t148 72q55 70 55 191q0 119 -55 192q-60 72 -148 72t-145 -72q-58 -73 -58 -192q0 -121 58 -191
zM1739 86q-99 -111 -260 -111t-260 111q-99 108 -99 287q0 180 99 289.5t260 109.5t259.5 -109.5t98.5 -289.5t-98 -287zM1333 182q56 -71 146 -71q88 0 147 71q55 70 55 191q0 119 -55 192q-60 72 -147 72q-89 0 -146 -72t-57 -192q0 -122 57 -191z" />
    <glyph glyph-name="ampersand" unicode="&#x26;" horiz-adv-x="1499" 
d="M1425 166l31 -150q-54 -28 -110 -28q-86 0 -154 32t-166 121q-200 -170 -438 -170q-226 0 -363 107q-137 104 -137 282q0 255 305 408q-157 174 -157 332q0 157 108 254.5t289 97.5q165 0 263.5 -87.5t98.5 -234.5q0 -236 -327 -399q1 -3 5.5 -7t10 -9t6.5 -6l344 -340
q118 157 176 426l160 -29q-62 -308 -225 -504q130 -112 213 -112q38 0 67 16zM629 1309q-99 0 -159 -56t-60 -149q0 -65 31 -119.5t120 -146.5q135 68 198.5 132t63.5 152q0 84 -54 135.5t-140 51.5zM272 381q0 -120 89 -191t233 -71q171 0 324 129l-328 325l-96 91
q-116 -62 -169 -129t-53 -154z" />
    <glyph glyph-name="quotesingle" unicode="'" horiz-adv-x="460" 
d="M299 938h-137l-19 485h174z" />
    <glyph glyph-name="parenleft" unicode="(" horiz-adv-x="710" 
d="M657 -176l-77 -119q-215 159 -320.5 374t-105.5 521t105.5 521t320.5 374l77 -119q-350 -273 -350 -776t350 -776z" />
    <glyph glyph-name="parenright" unicode=")" horiz-adv-x="710" 
d="M133 -295l-78 119q351 274 351 776t-351 776l78 119q215 -159 320.5 -374t105.5 -521t-105.5 -521t-320.5 -374z" />
    <glyph glyph-name="asterisk" unicode="*" horiz-adv-x="915" 
d="M457 956l-152 -213l-125 91l156 204l-234 74l48 143l233 -77v245h152v-243l233 75l45 -143l-231 -74l153 -204l-123 -91z" />
    <glyph glyph-name="plus" unicode="+" 
d="M580 676h344v-148h-344v-360h-156v360h-344v148h344v360h156v-360z" />
    <glyph glyph-name="comma" unicode="," horiz-adv-x="452" 
d="M225 215q56 0 93.5 -44.5t37.5 -115.5q0 -180 -151 -325l-88 67q93 93 96 189q-45 5 -78 36.5t-33 73.5q0 49 36 84t87 35z" />
    <glyph glyph-name="hyphen" unicode="-" horiz-adv-x="770" 
d="M647 504h-524v160h524v-160z" />
    <glyph glyph-name="period" unicode="." horiz-adv-x="448" 
d="M223 -20q-50 0 -85.5 35.5t-35.5 86.5t35.5 86t85.5 35q51 0 87 -35t36 -86t-36 -86.5t-87 -35.5z" />
    <glyph glyph-name="slash" unicode="/" horiz-adv-x="854" 
d="M184 -205h-143l608 1700h144z" />
    <glyph glyph-name="zero" unicode="0" horiz-adv-x="1402" 
d="M702 -29q-276 0 -432 199q-157 201 -157 541q0 341 157 542q156 199 432 199q277 0 433 -199q155 -198 155 -542q0 -343 -155 -541q-156 -199 -433 -199zM702 123q194 0 302 164q106 160 106 424q0 268 -106 428q-106 161 -302 161q-195 0 -301 -161q-108 -163 -108 -428
q0 -266 106 -426q107 -162 303 -162z" />
    <glyph glyph-name="one" unicode="1" horiz-adv-x="706" 
d="M520 0h-172v1098q-107 -90 -336 -90v163q169 0 250.5 59.5t81.5 192.5h176v-1423z" />
    <glyph glyph-name="two" unicode="2" horiz-adv-x="1208" 
d="M1126 0h-1034v94q0 264 324 443l258 143q129 72 186.5 152.5t57.5 189.5q0 129 -85 203.5t-223 74.5q-144 0 -231 -81q-90 -84 -90 -201q0 -90 35 -162l-162 -61q-51 92 -51 223q0 181 141 307q142 127 366 127q217 0 349 -117q131 -116 131 -309q0 -150 -80 -262.5
t-262 -214.5l-258 -143q-218 -120 -224 -250h852v-156z" />
    <glyph glyph-name="three" unicode="3" horiz-adv-x="1243" 
d="M639 -29q-238 0 -381 125q-145 127 -145 342q0 75 26 152l170 -47q-16 -56 -16 -105q0 -146 95.5 -230.5t252.5 -84.5q147 0 233.5 71.5t86.5 198.5q0 121 -85 189.5t-233 68.5h-96v152h100q130 0 204.5 64.5t74.5 179.5q0 120 -78.5 186.5t-216.5 66.5
q-145 0 -229 -89.5t-103 -252.5l-170 21q26 225 158.5 349t343.5 124q222 0 348.5 -105t126.5 -288q0 -119 -75.5 -209t-190.5 -115q138 -20 219.5 -112t81.5 -230q0 -192 -137 -305q-138 -117 -365 -117z" />
    <glyph glyph-name="four" unicode="4" horiz-adv-x="1198" 
d="M915 0h-170v350h-694v146q207 193 341.5 433.5t170.5 493.5h174q-91 -558 -469 -921h477v352h170v-352h224v-152h-224v-350z" />
    <glyph glyph-name="five" unicode="5" horiz-adv-x="1222" 
d="M614 -29q-226 0 -368 127q-145 127 -154 320l170 28q3 -131 105 -225q101 -98 247 -98q142 0 234 92.5t92 235.5q0 142 -91 231.5t-237 89.5q-185 0 -303 -151l-145 47q58 371 67 755h822v-155h-670q-12 -253 -39 -449q102 105 285 105q221 0 356 -129q135 -132 135 -344
q0 -213 -141 -345q-141 -135 -365 -135z" />
    <glyph glyph-name="six" unicode="6" horiz-adv-x="1286" 
d="M672 -29q-263 0 -410 191q-149 189 -149 522q0 350 153 559t414 209q229 0 357 -109.5t145 -318.5l-174 -23q-11 143 -94 221t-228 78q-186 0 -295 -161q-111 -163 -102 -455q54 119 157.5 179.5t237.5 60.5q218 0 363 -133q141 -132 141 -342q0 -206 -146 -343
q-147 -135 -370 -135zM426 217q94 -94 244 -94q148 0 243 92t95 234q0 141 -95 233q-96 90 -243 90q-149 0 -244 -92q-96 -93 -96 -231q0 -139 96 -232z" />
    <glyph glyph-name="seven" unicode="7" horiz-adv-x="1040" 
d="M500 0h-174q9 666 465 1268h-781v155h971v-163q-240 -314 -358.5 -617.5t-122.5 -642.5z" />
    <glyph glyph-name="eight" unicode="8" horiz-adv-x="1273" 
d="M1020 84q-140 -113 -383 -113t-383 113q-141 114 -141 313q0 118 68 215t188 146q-209 102 -209 303q0 178 131 285q130 106 346 106q213 0 346 -109q131 -107 131 -282q0 -204 -209 -303q118 -47 187 -145t69 -216q0 -199 -141 -313zM422 887q83 -68 215 -68
q134 0 217 68q82 67 82 174t-82 174q-83 68 -217 68q-132 0 -215 -68q-84 -69 -84 -174t84 -174zM387 195q95 -74 250 -74t250 74q94 73 94 200q0 123 -95 200t-249 77t-249 -77t-95 -200q0 -127 94 -200z" />
    <glyph glyph-name="nine" unicode="9" horiz-adv-x="1286" 
d="M602 -29q-226 0 -358 115t-142 324l174 18q30 -305 320 -305q185 0 299 166q111 163 102 454q-107 -235 -389 -235q-219 0 -364 133q-146 134 -146 338t148 340q145 133 368 133q262 0 412 -188q148 -192 148 -521q0 -353 -156 -561q-156 -211 -416 -211zM375 752
q96 -93 241 -93q148 0 244 93q96 90 96 229q0 136 -96 229q-96 90 -244 90q-145 0 -241 -90q-96 -93 -96 -231q0 -137 96 -227z" />
    <glyph glyph-name="colon" unicode=":" horiz-adv-x="489" 
d="M244 760q-50 0 -85.5 36t-35.5 87t35.5 86t85.5 35q51 0 87 -35t36 -86t-36 -87t-87 -36zM244 -20q-50 0 -85.5 35.5t-35.5 86.5t35.5 86t85.5 35q51 0 87 -35t36 -86t-36 -86.5t-87 -35.5z" />
    <glyph glyph-name="semicolon" unicode=";" horiz-adv-x="493" 
d="M244 760q-50 0 -85.5 36t-35.5 87t35.5 86t85.5 35q51 0 87 -35t36 -86t-36 -87t-87 -36zM246 215q56 0 93.5 -44.5t37.5 -115.5q0 -179 -152 -325l-88 67q93 93 96 189q-45 5 -77.5 36.5t-32.5 73.5q0 49 36 84t87 35z" />
    <glyph glyph-name="less" unicode="&#x3c;" 
d="M885 365v-162l-768 323v160l768 324v-162l-592 -242z" />
    <glyph glyph-name="equal" unicode="=" 
d="M885 731h-766v148h766v-148zM885 328h-766v147h766v-147z" />
    <glyph glyph-name="greater" unicode="&#x3e;" 
d="M885 526l-768 -323v162l592 241l-592 242v162l768 -324v-160z" />
    <glyph glyph-name="question" unicode="?" horiz-adv-x="1124" 
d="M610 377h-176q0 102 41.5 178t138.5 156q132 107 177 176q47 71 47 162q0 115 -76.5 182t-206.5 67q-124 0 -207 -77q-82 -76 -82 -191q0 -78 33 -145l-168 -60q-49 88 -49 205q0 177 137 299q138 123 344 123q214 0 336.5 -106t122.5 -291q0 -130 -64 -224
q-65 -95 -221 -221q-74 -60 -100 -107.5t-27 -125.5zM510 -20q-50 0 -85.5 35.5t-35.5 86.5t35.5 86t85.5 35q51 0 87 -35t36 -86t-36 -86.5t-87 -35.5z" />
    <glyph glyph-name="at" unicode="@" horiz-adv-x="1908" 
d="M928 -399q-353 0 -590 225q-236 224 -236 586q0 367 246 604q242 233 608 233q379 0 621 -217q240 -218 240 -559q0 -248 -98.5 -375t-258.5 -127q-93 0 -158 49t-79 127q-107 -174 -314 -174q-175 0 -288 131q-115 130 -115 318q0 186 115 319q114 129 288 129
q196 0 297 -149v125h152v-602q0 -66 30 -100.5t82 -34.5q98 0 150.5 92t52.5 268q0 287 -200 469q-201 180 -519 180q-313 0 -510 -194q-198 -195 -198 -512q0 -307 190 -494q189 -186 494 -186q198 0 368 114l62 -120q-186 -125 -432 -125zM737 201q76 -88 195 -88
q120 0 196 88q76 85 76 221q0 135 -76 223q-77 86 -196 86q-118 0 -195 -86q-78 -90 -78 -223q0 -134 78 -221z" />
    <glyph glyph-name="A" unicode="A" horiz-adv-x="1376" 
d="M1354 0h-183l-155 406h-656l-155 -406h-182l550 1423h230zM686 1260l-268 -703h538z" />
    <glyph glyph-name="B" unicode="B" horiz-adv-x="1374" 
d="M766 0h-590v1423h533q233 0 355 -94t122 -274q0 -114 -64 -197t-168 -106q149 -36 228.5 -125t79.5 -224q0 -196 -128 -299.5t-368 -103.5zM350 1272v-461h363q141 0 216 60.5t75 175.5q0 225 -291 225h-363zM350 659v-507h406q156 0 239.5 64.5t83.5 186.5
q0 123 -85 189.5t-244 66.5h-400z" />
    <glyph glyph-name="C" unicode="C" horiz-adv-x="1515" 
d="M791 -29q-300 0 -494 209q-195 210 -195 531q0 322 195 532q194 209 494 209q250 0 410.5 -139t217.5 -400l-168 -51q-55 224 -167.5 330t-292.5 106q-224 0 -365 -163q-141 -167 -141 -424t141 -420q141 -166 365 -166q364 0 466 387l175 -39q-132 -502 -641 -502z" />
    <glyph glyph-name="D" unicode="D" horiz-adv-x="1519" 
d="M690 0h-514v1423h514q200 0 360.5 -80t262.5 -241q104 -165 104 -391q0 -334 -211 -521q-211 -190 -516 -190zM350 1270v-1116h307q94 0 177 18.5t157.5 61t127.5 106t84.5 159t31.5 214.5q0 287 -164 422q-163 135 -414 135h-307z" />
    <glyph glyph-name="E" unicode="E" horiz-adv-x="1239" 
d="M1147 0h-971v1423h969v-153h-795v-471h641v-154h-641v-491h797v-154z" />
    <glyph glyph-name="F" unicode="F" horiz-adv-x="1173" 
d="M350 0h-174v1423h946v-153h-772v-504h633v-154h-633v-612z" />
    <glyph glyph-name="G" unicode="G" horiz-adv-x="1650" 
d="M795 -29q-304 0 -498 209q-195 210 -195 531q0 323 197 532q194 209 498 209q250 0 409.5 -118t216.5 -341l-168 -53q-94 358 -458 358q-225 0 -369 -163q-143 -165 -143 -424q0 -267 147 -426q148 -160 375 -160q204 0 354 135q149 134 158 371h-496v153h662v-784h-166
v258q-77 -138 -215.5 -212.5t-308.5 -74.5z" />
    <glyph glyph-name="H" unicode="H" horiz-adv-x="1519" 
d="M350 0h-174v1423h174v-616h819v616h174v-1423h-174v653h-819v-653z" />
    <glyph glyph-name="I" unicode="I" horiz-adv-x="526" 
d="M350 0h-174v1423h174v-1423z" />
    <glyph glyph-name="J" unicode="J" horiz-adv-x="1202" 
d="M918 104q-130 -133 -355 -133q-226 0 -348 125q-123 123 -123 318q0 68 19 149l172 -31q-11 -71 -11 -110q0 -138 76.5 -217.5t214.5 -79.5q309 0 309 379v919h175v-946q0 -241 -129 -373z" />
    <glyph glyph-name="K" unicode="K" horiz-adv-x="1370" 
d="M1303 156q21 0 36 6v-162q-36 -4 -43 -4q-172 0 -282 98q-103 85 -305 383l-142 209l-217 -217v-469h-174v1423h174v-735l719 735h223l-600 -612l176 -256q155 -229 248 -315q87 -84 187 -84z" />
    <glyph glyph-name="L" unicode="L" horiz-adv-x="1148" 
d="M1128 0h-952v1423h174v-1269h778v-154z" />
    <glyph glyph-name="M" unicode="M" horiz-adv-x="1810" 
d="M350 0h-174v1423h250l483 -952l473 952h252v-1423h-174v1214l-471 -940h-170l-469 940v-1214z" />
    <glyph glyph-name="N" unicode="N" horiz-adv-x="1484" 
d="M342 0h-166v1423h189l778 -1153v1153h166v-1423h-189l-778 1153v-1153z" />
    <glyph glyph-name="O" unicode="O" horiz-adv-x="1626" 
d="M813 -29q-310 0 -510 209q-201 210 -201 531q0 319 201 532q200 209 510 209q307 0 510 -209q201 -213 201 -532q0 -321 -201 -531q-203 -209 -510 -209zM813 125q232 0 379 166q147 167 147 420t-147 422q-146 165 -379 165q-231 0 -377 -165q-149 -168 -149 -422
q0 -255 149 -420q147 -166 377 -166z" />
    <glyph glyph-name="P" unicode="P" horiz-adv-x="1284" 
d="M350 0h-174v1423h541q229 0 364.5 -114t135.5 -310q0 -198 -134 -311t-366 -113h-367v-575zM350 1270v-541h367q152 0 233.5 70.5t81.5 199.5q0 131 -81.5 201t-233.5 70h-367z" />
    <glyph glyph-name="Q" unicode="Q" horiz-adv-x="1626" 
d="M1389 25l159 -39q-65 -271 -295 -271q-119 0 -199 61.5t-163 198.5q-70 -4 -78 -4q-310 0 -510 209q-201 210 -201 531q0 319 201 532q200 209 510 209q307 0 510 -209q201 -213 201 -532q0 -250 -127 -439q-130 -189 -344 -262q49 -75 93 -107t105 -32q56 0 88 36.5
t50 117.5zM436 1133q-149 -168 -149 -422q0 -255 149 -420q147 -166 377 -166q232 0 379 166q147 167 147 420t-147 422q-146 165 -379 165q-231 0 -377 -165z" />
    <glyph glyph-name="R" unicode="R" horiz-adv-x="1366" 
d="M1294 156q24 0 39 6v-162q-36 -4 -45 -4q-179 0 -297 100q-122 104 -264 373l-84 154h-293v-623h-174v1423h586q222 0 345.5 -106t123.5 -295q0 -172 -105 -279.5t-288 -117.5l43 -80q123 -222 215 -303q95 -86 198 -86zM762 1270h-412v-494h412q289 0 289 246
q0 248 -289 248z" />
    <glyph glyph-name="S" unicode="S" horiz-adv-x="1310" 
d="M664 -29q-261 0 -410.5 117.5t-149.5 312.5q0 87 31 185l160 -51q-16 -53 -16 -125q0 -133 106.5 -209t286.5 -76q164 0 259 67.5t95 184.5q0 178 -268 237l-191 41q-221 48 -318 145.5t-97 254.5q0 181 137 288q139 109 340 109q255 0 396.5 -124t158.5 -357l-174 -25
q-46 352 -383 352q-138 0 -219.5 -63t-81.5 -174q0 -180 292 -244l187 -39q206 -43 300.5 -139.5t94.5 -249.5q0 -196 -153 -307t-383 -111z" />
    <glyph glyph-name="T" unicode="T" horiz-adv-x="1239" 
d="M709 0h-174v1270h-492v153h1155v-153h-489v-1270z" />
    <glyph glyph-name="U" unicode="U" horiz-adv-x="1447" 
d="M723 -29q-272 0 -419.5 147.5t-147.5 422.5v882h174v-884q0 -202 100.5 -308t292.5 -106t293.5 106.5t101.5 307.5v884h174v-882q0 -276 -146.5 -423t-422.5 -147z" />
    <glyph glyph-name="V" unicode="V" horiz-adv-x="1298" 
d="M764 0h-227l-533 1423h184l463 -1241l461 1241h182z" />
    <glyph glyph-name="W" unicode="W" horiz-adv-x="1925" 
d="M629 0h-213l-391 1423h178l329 -1216l340 1216h181l354 -1216l313 1216h181l-392 -1423h-215l-331 1161z" />
    <glyph glyph-name="X" unicode="X" horiz-adv-x="1271" 
d="M221 0h-198l503 731l-477 692h211l383 -559l381 559h199l-478 -692l504 -731h-213l-405 598z" />
    <glyph glyph-name="Y" unicode="Y" horiz-adv-x="1282" 
d="M723 0h-174v600l-545 823h209l426 -663l432 663h207l-555 -823v-600z" />
    <glyph glyph-name="Z" unicode="Z" horiz-adv-x="1218" 
d="M1157 0h-1096v139l859 1131h-840v153h1057v-139l-861 -1130h881v-154z" />
    <glyph glyph-name="bracketleft" unicode="[" horiz-adv-x="692" 
d="M627 1495v-137h-277v-1516h277v-137h-426v1790h426z" />
    <glyph glyph-name="backslash" unicode="\" horiz-adv-x="856" 
d="M815 -205h-145l-609 1700h146z" />
    <glyph glyph-name="bracketright" unicode="]" horiz-adv-x="692" 
d="M66 1495h426v-1790h-426v131h274v1528h-274v131z" />
    <glyph glyph-name="asciicircum" unicode="^" horiz-adv-x="1024" 
d="M281 840h-166l319 583h160l317 -583h-168l-231 426z" />
    <glyph glyph-name="underscore" unicode="_" horiz-adv-x="960" 
d="M940 -188h-920v145h920v-145z" />
    <glyph glyph-name="grave" unicode="`" horiz-adv-x="819" 
d="M512 1110h-156l-250 293h209z" />
    <glyph glyph-name="a" unicode="a" horiz-adv-x="1071" 
d="M463 -25q-167 0 -272 85.5t-105 226.5q0 132 109 221q110 90 268 90q171 0 297 -117v129q0 117 -61.5 183.5t-170.5 66.5q-227 0 -282 -233l-154 43q38 158 154.5 248t283.5 90q182 0 291 -104t109 -288v-616h-170v127q-112 -152 -297 -152zM479 117q167 0 281 164v36
q-117 138 -281 138q-96 0 -154.5 -47t-58.5 -121q0 -76 58.5 -123t154.5 -47z" />
    <glyph glyph-name="b" unicode="b" horiz-adv-x="1212" 
d="M680 -25q-234 0 -361 183v-158h-169v1423h169v-596q126 181 361 181q194 0 326 -150q131 -149 131 -366q0 -216 -131 -365q-134 -152 -326 -152zM643 123q147 0 231 99t84 270t-84 269.5t-231 98.5q-139 0 -229 -106q-95 -109 -95 -262q0 -154 95 -263q90 -106 229 -106z
" />
    <glyph glyph-name="c" unicode="c" horiz-adv-x="1077" 
d="M565 -25q-217 0 -354 140q-135 138 -135 377q0 222 137 368q136 148 344 148q180 0 302 -105.5t157 -300.5l-156 -53q-65 311 -303 311q-141 0 -222 -98t-81 -270q0 -171 82.5 -270t228.5 -99q107 0 180 57t132 178l131 -88q-147 -295 -443 -295z" />
    <glyph glyph-name="d" unicode="d" horiz-adv-x="1212" 
d="M532 -25q-191 0 -325 152q-131 149 -131 365q0 217 131 366q132 150 325 150q235 0 361 -181v596h170v-1423h-170v158q-127 -183 -361 -183zM569 123q139 0 232 106q92 109 92 263q0 153 -92 262q-93 106 -232 106q-147 0 -231 -98.5t-84 -269.5t84 -270t231 -99z" />
    <glyph glyph-name="e" unicode="e" horiz-adv-x="1116" 
d="M895 340l131 -82q-145 -283 -448 -283q-216 0 -359 146q-143 143 -143 371q0 229 137 372q138 144 348 144t332.5 -136t122.5 -364q0 -47 -2 -55h-760q8 -154 93 -242t231 -88q209 0 317 217zM559 862q-123 0 -203.5 -72.5t-97.5 -199.5h582q-21 272 -281 272z" />
    <glyph glyph-name="f" unicode="f" horiz-adv-x="651" 
d="M352 0h-170v836h-157v147h149q-41 103 -41 186q0 130 87 204.5t220 74.5q235 0 293 -217l-158 -39q-27 113 -145 113q-57 0 -93 -38.5t-36 -109.5q0 -72 45 -174h297v-147h-291v-836z" />
    <glyph glyph-name="g" unicode="g" horiz-adv-x="1134" 
d="M920 1006q-51 0 -91 -88q111 -89 111 -250q0 -162 -111 -250q-113 -90 -280 -90q-103 0 -187 34q-92 -27 -92 -100q0 -39 28.5 -64.5t72.5 -25.5h364q371 0 371 -276q0 -152 -148 -252q-147 -99 -366 -99q-253 0 -389.5 79.5t-136.5 217.5q0 129 143 211q-98 64 -98 183
q0 129 139 200q-90 87 -90 232q0 157 108 248.5t281 91.5q93 0 164 -27q88 168 225 168q82 0 136 -55t54 -156v-33l-137 -24q-6 125 -71 125zM549 465q97 0 159 54.5t62 148.5q0 92 -62.5 147t-158.5 55q-99 0 -159 -53.5t-60 -148.5t60 -149t159 -54zM721 4h-309
q-78 0 -127 -38.5t-49 -98.5q0 -174 356 -174q150 0 247 52.5t97 137.5q0 63 -51.5 92t-163.5 29z" />
    <glyph glyph-name="h" unicode="h" horiz-adv-x="1155" 
d="M319 0h-169v1423h169v-563q109 148 318 148q179 0 278 -106.5t99 -293.5v-608h-170v590q0 270 -246 270q-124 0 -201.5 -71.5t-77.5 -196.5v-592z" />
    <glyph glyph-name="i" unicode="i" horiz-adv-x="468" 
d="M317 1217q-34 -32 -82.5 -32t-82.5 32t-34 79.5t34 79.5t82.5 32t82.5 -32t34 -79.5t-34 -79.5zM319 0h-169v983h169v-983z" />
    <glyph glyph-name="j" unicode="j" horiz-adv-x="468" 
d="M317 1217q-34 -32 -82.5 -32t-82.5 32t-34 79.5t34 79.5t82.5 32t82.5 -32t34 -79.5t-34 -79.5zM61 -455q-147 0 -231 90l80 134q64 -76 139 -76q101 0 101 133v1157h169v-1151q0 -147 -68.5 -217t-189.5 -70z" />
    <glyph glyph-name="k" unicode="k" horiz-adv-x="1071" 
d="M1014 143q11 0 39 4v-149q-31 -8 -82 -8q-126 0 -207 69q-84 69 -193 230l-118 178l-134 -127v-340h-169v1423h169v-888l482 448h223l-440 -401l121 -185q100 -153 157 -204q53 -50 152 -50z" />
    <glyph glyph-name="l" unicode="l" horiz-adv-x="468" 
d="M319 0h-169v1423h169v-1423z" />
    <glyph glyph-name="m" unicode="m" horiz-adv-x="1806" 
d="M1300 1008q172 0 268.5 -106.5t96.5 -293.5v-608h-170v592q0 130 -60 199t-173 69q-121 0 -196 -71.5t-75 -196.5v-592h-170v592q0 268 -231 268q-121 0 -196 -71.5t-75 -194.5v-594h-169v983h169v-123q109 148 310 148q233 0 313 -177q118 177 358 177z" />
    <glyph glyph-name="n" unicode="n" horiz-adv-x="1155" 
d="M319 0h-169v983h169v-123q109 148 318 148q179 0 278 -106.5t99 -293.5v-608h-170v590q0 270 -246 270q-124 0 -201.5 -71.5t-77.5 -196.5v-592z" />
    <glyph glyph-name="o" unicode="o" horiz-adv-x="1159" 
d="M938 123q-145 -148 -358 -148q-214 0 -359 148q-145 145 -145 369q0 225 145 370q146 146 359 146q212 0 358 -146q145 -145 145 -370q0 -224 -145 -369zM344 223q87 -100 236 -100q148 0 235 100q90 104 90 269q0 164 -90 268q-87 100 -235 100q-149 0 -236 -100
q-90 -104 -90 -268q0 -165 90 -269z" />
    <glyph glyph-name="p" unicode="p" horiz-adv-x="1212" 
d="M319 -430h-169v1413h169v-158q127 183 361 183q194 0 326 -150q131 -149 131 -366q0 -218 -131 -367q-132 -150 -326 -150q-235 0 -361 181v-586zM643 123q147 0 231 99t84 270t-84 269.5t-231 98.5q-139 0 -229 -106q-95 -109 -95 -262q0 -154 95 -263q90 -106 229 -106
z" />
    <glyph glyph-name="q" unicode="q" horiz-adv-x="1212" 
d="M1063 -430h-170v588q-127 -183 -361 -183q-194 0 -325 152q-131 149 -131 365q0 217 131 366q129 150 325 150q235 0 361 -181v156h170v-1413zM569 129q138 0 232 104q92 106 92 259q0 154 -92 260q-94 104 -232 104q-146 0 -230.5 -98t-84.5 -266q0 -165 86 -264
t229 -99z" />
    <glyph glyph-name="r" unicode="r" horiz-adv-x="897" 
d="M319 0h-169v983h169v-166q83 182 279 182q114 0 190 -76.5t76 -199.5q0 -65 -22 -139l-160 16q8 52 8 80q0 168 -141 168q-98 0 -164 -103t-66 -262v-483z" />
    <glyph glyph-name="s" unicode="s" 
d="M522 -25q-185 0 -315 91q-126 88 -129 258l158 28q21 -235 290 -235q99 0 157 40.5t58 116.5q0 61 -37.5 91t-134.5 47l-114 18q-82 16 -138.5 36.5t-101.5 54t-66.5 84t-21.5 120.5q0 129 104.5 206t282.5 77q169 0 271 -76.5t126 -208.5l-153 -41q-18 84 -81 134
t-169 50q-103 0 -159 -36.5t-56 -102.5q0 -65 41 -96.5t147 -48.5l117 -21q161 -28 240.5 -92t79.5 -193q0 -139 -110 -220t-286 -81z" />
    <glyph glyph-name="t" unicode="t" horiz-adv-x="806" 
d="M459 -25q-279 0 -279 318v543h-162v147h162l35 293h135v-293h398v-147h-398v-547q0 -160 115 -160q108 0 190 186l140 -65q-52 -126 -141.5 -200.5t-194.5 -74.5z" />
    <glyph glyph-name="u" unicode="u" horiz-adv-x="1138" 
d="M510 -25q-176 0 -272.5 106t-96.5 296v606h170v-596q0 -129 60.5 -196.5t177.5 -67.5q119 0 194.5 70.5t75.5 191.5v598h170v-983h-170v125q-108 -150 -309 -150z" />
    <glyph glyph-name="v" unicode="v" 
d="M600 0h-197l-395 983h182l316 -815l307 815h182z" />
    <glyph glyph-name="w" unicode="w" horiz-adv-x="1478" 
d="M530 0h-198l-303 983h178l229 -809l219 809h170l219 -809l228 809h178l-301 -983h-199l-211 743z" />
    <glyph glyph-name="x" unicode="x" 
d="M209 0h-197l385 510l-356 473h203l258 -352l264 352h197l-357 -473l385 -510h-203l-286 389z" />
    <glyph glyph-name="y" unicode="y" 
d="M238 -455q-158 0 -226 105l105 119q52 -76 129 -76q56 0 92.5 45.5t79.5 159.5l39 102h-76l-373 983h182l316 -844l307 844h182l-442 -1167q-56 -146 -131 -208.5t-184 -62.5z" />
    <glyph glyph-name="z" unicode="z" horiz-adv-x="919" 
d="M874 0h-825v137l588 699h-565v147h782v-137l-592 -699h612v-147z" />
    <glyph glyph-name="braceleft" unicode="{" horiz-adv-x="808" 
d="M725 -158v-137q-226 8 -325 72t-99 205q0 76 41 194q41 115 41 180q0 181 -277 181h-14v125h14q277 0 277 180q0 63 -41 184q-41 118 -41 193q0 141 99 204.5t325 71.5v-137q-159 -6 -215.5 -38t-56.5 -122q0 -45 41 -166t41 -209q0 -190 -195 -225q195 -35 195 -221
q0 -89 -41 -207q-41 -121 -41 -166q0 -91 57 -123.5t215 -38.5z" />
    <glyph glyph-name="bar" unicode="|" horiz-adv-x="567" 
d="M350 -205h-133v1700h133v-1700z" />
    <glyph glyph-name="braceright" unicode="}" horiz-adv-x="808" 
d="M84 -295v137q159 6 215.5 38t56.5 122q0 45 -41 166t-41 209q0 190 195 225q-195 35 -195 221q0 88 41 209q41 118 41 164q0 91 -57 123.5t-215 38.5v137q226 -8 325 -71.5t99 -204.5q0 -75 -41 -193t-41 -182q0 -180 276 -180h15v-125h-15q-276 0 -276 -181
q0 -64 41 -182q41 -121 41 -194q0 -141 -99 -205t-325 -72z" />
    <glyph glyph-name="asciitilde" unicode="~" 
d="M672 459q-53 -1 -106 20.5t-87.5 48.5t-71 48.5t-59.5 19.5q-95 0 -110 -131l-140 24q21 254 234 254q51 0 103.5 -21.5t87 -47t71 -47t61.5 -21.5q98 0 113 131l139 -24q-27 -254 -235 -254z" />
    <glyph glyph-name="uni00A0" unicode="&#xa0;" horiz-adv-x="471" 
 />
    <glyph glyph-name="exclamdown" unicode="&#xa1;" horiz-adv-x="530" 
d="M266 1008q50 0 85.5 -36t35.5 -87t-35.5 -86t-85.5 -35q-51 0 -87 35t-36 86t36 87t87 36zM180 610h150l18 -1046h-186z" />
    <glyph glyph-name="cent" unicode="&#xa2;" horiz-adv-x="1126" 
d="M655 854v-725q83 13 142.5 69t111.5 160l131 -88q-134 -263 -385 -290v-189h-143v189q-191 25 -303.5 162t-112.5 350q0 203 117 344q114 141 299 168v188h143v-188q153 -19 256.5 -119.5t132.5 -268.5l-155 -53q-56 257 -234 291zM274 492q0 -146 62.5 -240.5
t175.5 -120.5v723q-115 -25 -176.5 -118.5t-61.5 -243.5z" />
    <glyph glyph-name="sterling" unicode="&#xa3;" horiz-adv-x="1318" 
d="M1100 408l168 -9q0 -202 -89.5 -315t-254.5 -113q-62 0 -131.5 27.5t-114.5 62.5q-42 28 -107 84q-85 -174 -288 -174q-127 0 -202 65.5t-75 176.5q0 105 76 169t203 64q73 0 149 -24q-9 76 -74 233h-241v144h188q-49 137 -49 243q0 186 127 298t338 112q225 0 360 -135
q135 -138 138 -367l-174 -10q-11 165 -99 262.5t-229 97.5q-136 0 -209.5 -70t-73.5 -198q0 -75 58 -233h358v-144h-303q65 -186 65 -288q0 -33 -2 -43q16 -12 85 -64t85 -63q87 -60 156 -60q76 0 115.5 63.5t46.5 207.5zM295 117q97 0 131 143q-68 41 -129 41
q-67 6 -95.5 -43t-1 -98t94.5 -43z" />
    <glyph glyph-name="currency" unicode="&#xa4;" horiz-adv-x="909" 
d="M262 375l-82 -82l-104 106l78 78q-56 89 -56 195q0 110 58 192l-80 80l104 105l82 -82q83 53 197 53q107 0 190 -51l80 80l105 -105l-78 -78q57 -83 57 -196q0 -107 -55 -195l76 -76l-103 -106l-80 80q-85 -54 -193 -53.5t-196 55.5zM459 432q99 0 167 69t68 169
t-67.5 168.5t-167.5 68.5q-103 0 -171.5 -67.5t-68.5 -169.5q0 -103 68.5 -170.5t171.5 -67.5z" />
    <glyph glyph-name="yen" unicode="&#xa5;" horiz-adv-x="1302" 
d="M1081 1423h207l-512 -751h299v-144h-342v-184h342v-143h-342v-201h-174v201h-350v143h350v184h-350v144h307l-502 751h209l426 -663z" />
    <glyph glyph-name="brokenbar" unicode="&#xa6;" horiz-adv-x="567" 
d="M350 799h-133v696h133v-696zM350 -205h-133v697h133v-697z" />
    <glyph glyph-name="section" unicode="&#xa7;" horiz-adv-x="1157" 
d="M1049 645q0 -94 -63.5 -167.5t-172.5 -112.5q133 -80 133 -234q0 -134 -106.5 -213.5t-288.5 -79.5q-368 0 -432 301l164 39q29 -103 92.5 -150.5t175.5 -47.5q102 0 160.5 40t58.5 109q0 63 -41.5 103.5t-134.5 66.5l-168 49q-138 39 -219 94q-98 67 -98 203
q0 94 64 168t173 113q-135 80 -135 233q0 134 106.5 213.5t288.5 79.5q368 0 432 -301l-164 -39q-29 104 -92.5 151.5t-175.5 47.5q-102 0 -160.5 -40.5t-58.5 -109.5q0 -62 41.5 -103t134.5 -67l168 -49q84 -26 128 -44.5t91 -49.5q99 -67 99 -203zM674 424q90 21 146.5 72
t56.5 122q0 131 -172 183l-170 49q-35 9 -52 16q-90 -21 -146 -72t-56 -122q0 -131 172 -183l170 -49q33 -8 51 -16z" />
    <glyph glyph-name="dieresis" unicode="&#xa8;" horiz-adv-x="819" 
d="M293 1178q-32 -31 -79.5 -31t-78.5 31q-32 31 -32 77.5t32 77.5q31 31 78.5 31t79.5 -31q31 -31 31 -77.5t-31 -77.5zM688 1178q-32 -31 -79.5 -31t-78.5 31q-32 31 -32 77.5t32 77.5q31 31 78.5 31t79.5 -31q31 -31 31 -77.5t-31 -77.5z" />
    <glyph glyph-name="copyright" unicode="&#xa9;" horiz-adv-x="1671" 
d="M1362 182q-205 -211 -524 -211t-527 211q-209 209 -209 531q0 321 209 530q206 209 525 209q317 0 526 -209q207 -210 207 -530q0 -321 -207 -531zM395 258q174 -180 441 -180q266 0 440 180t174 455q0 274 -174 454q-176 179 -440 179q-265 0 -441 -179
q-174 -180 -174 -454q0 -275 174 -455zM842 287q-183 0 -297 114q-115 115 -115 310q0 182 117 305q115 121 289 121q146 0 245.5 -83t128.5 -239l-131 -43q-49 236 -243 236q-116 0 -183 -80t-67 -217t67.5 -216t188.5 -79q91 0 151 47t111 149l110 -77
q-125 -248 -372 -248z" />
    <glyph glyph-name="ordfeminine" unicode="&#xaa;" horiz-adv-x="847" 
d="M358 715q-124 0 -198 60.5t-74 162.5q0 95 78 159t198 64q119 0 209 -84v90q0 79 -44.5 123.5t-123.5 44.5t-123 -35.5t-63 -113.5l-127 31q29 111 113.5 173t208.5 62q136 0 215.5 -73t79.5 -205v-441h-136v90q-79 -108 -213 -108zM375 825q110 0 196 115v21
q-84 90 -196 90q-67 0 -107.5 -31.5t-40.5 -81.5q0 -51 40.5 -82t107.5 -31z" />
    <glyph glyph-name="guillemotleft" unicode="&#xab;" horiz-adv-x="1081" 
d="M518 399v-168l-430 271v157l430 271v-168l-289 -182zM973 399v-168l-430 271v157l430 271v-168l-289 -182z" />
    <glyph glyph-name="logicalnot" unicode="&#xac;" 
d="M854 354h-156v279h-589v147h745v-426z" />
    <glyph glyph-name="uni00AD" unicode="&#xad;" horiz-adv-x="770" 
d="M647 504h-524v160h524v-160z" />
    <glyph glyph-name="registered" unicode="&#xae;" horiz-adv-x="989" 
d="M498 682q-169 0 -283 111q-113 110 -113 276q0 164 113 274q115 109 283 109q167 0 278 -111t111 -274t-111 -274t-278 -111zM498 752q133 0 223 90t90 225t-90 225t-223 90q-138 0 -228 -90t-90 -225t90 -225t228 -90zM418 868h-74v422h172q72 0 113 -33t41 -90
q0 -108 -111 -123l16 -22q35 -49 60 -65.5t59 -16.5v-72q-59 0 -92.5 22t-85.5 93l-37 51h-61v-166zM418 1227v-127h90q84 0 84 63q0 64 -84 64h-90z" />
    <glyph glyph-name="overscore" unicode="&#xaf;" horiz-adv-x="819" 
d="M707 1186h-594v147h594v-147z" />
    <glyph glyph-name="degree" unicode="&#xb0;" horiz-adv-x="780" 
d="M389 905q-123 0 -205 78.5t-82 196.5q0 117 82 194.5t205 77.5q124 0 206.5 -77.5t82.5 -194.5q0 -118 -82 -196.5t-207 -78.5zM274 1063q46 -47 115.5 -47t116.5 47t47 116.5t-47 116.5t-116.5 47t-115.5 -47t-46 -116.5t46 -116.5z" />
    <glyph glyph-name="plusminus" unicode="&#xb1;" 
d="M580 1065v-324h344v-147h-344v-324h-156v324h-344v147h344v324h156zM924 0h-844v147h844v-147z" />
    <glyph glyph-name="uni00B2" unicode="&#xb2;" horiz-adv-x="784" 
d="M723 569h-662v45q0 93 57 169t183 147l119 67q143 79 143 189q0 62 -45.5 98.5t-124.5 36.5q-77 0 -124.5 -41.5t-47.5 -105.5q0 -46 19 -89l-134 -34q-26 51 -26 123q0 116 85.5 192t233.5 76q140 0 225 -68t85 -180q0 -177 -211 -291l-121 -65q-117 -63 -139 -138h485
v-131z" />
    <glyph glyph-name="uni00B3" unicode="&#xb3;" horiz-adv-x="786" 
d="M397 555q-157 0 -246.5 74.5t-89.5 195.5q0 41 17 101l133 -33q-10 -38 -10 -66q0 -68 52 -110.5t142 -42.5q85 0 135 38.5t50 104.5q0 57 -48.5 91t-128.5 34h-49v119h45q74 0 119 35t45 96q0 60 -44.5 95.5t-117.5 35.5q-172 0 -196 -176l-137 20q18 127 107.5 201
t236.5 74q132 0 213.5 -64t81.5 -172q0 -78 -47 -132t-121 -66q186 -34 186 -199q0 -117 -88 -185.5t-240 -68.5z" />
    <glyph glyph-name="acute" unicode="&#xb4;" horiz-adv-x="819" 
d="M465 1110h-152l199 293h205z" />
    <glyph glyph-name="uni00B5" unicode="&#xb5;" horiz-adv-x="1146" 
d="M319 -430h-169v1413h169v-596q0 -129 60.5 -196.5t177.5 -67.5q119 0 194.5 70.5t75.5 191.5v598h170v-983h-170v125q-111 -150 -297 -150q-143 0 -221 78z" />
    <glyph glyph-name="paragraph" unicode="&#xb6;" horiz-adv-x="1679" 
d="M1130 0h-280q-301 0 -516 178q-108 88 -170 228t-62 309q0 168 62 307t170 227q214 174 516 174h280v-1423zM1499 0h-190v1423h190v-1423z" />
    <glyph glyph-name="middot" unicode="&#xb7;" horiz-adv-x="489" 
d="M244 469q-50 0 -85.5 36t-35.5 87t35.5 86t85.5 35q51 0 87 -35t36 -86t-36 -87t-87 -36z" />
    <glyph glyph-name="cedilla" unicode="&#xb8;" horiz-adv-x="819" 
d="M397 -326h-157l90 338h168z" />
    <glyph glyph-name="uni00B9" unicode="&#xb9;" horiz-adv-x="544" 
d="M381 569h-143v639q-57 -51 -207 -51v129q231 -3 231 137h119v-854z" />
    <glyph glyph-name="ordmasculine" unicode="&#xba;" horiz-adv-x="884" 
d="M707 819q-104 -104 -265 -104t-262 104q-104 101 -104 264t104 267q102 102 262 102t265 -102q102 -105 102 -267t-102 -264zM281 903q60 -69 161 -69q102 0 162 69q62 68 62 180t-62 183q-61 67 -162 67q-100 0 -161 -67q-62 -71 -62 -183t62 -180z" />
    <glyph glyph-name="guillemotright" unicode="&#xbb;" horiz-adv-x="1081" 
d="M539 502l-430 -271v168l288 181l-288 180v170l430 -271v-157zM993 502l-430 -271v168l289 181l-289 180v170l430 -271v-157z" />
    <glyph glyph-name="onequarter" unicode="&#xbc;" horiz-adv-x="1736" 
d="M381 569h-143v639q-57 -51 -207 -51v129q231 -3 231 137h119v-854zM428 0h-149l976 1423h150zM1599 -4h-137v199h-428v145q260 275 295 510h152q-45 -286 -310 -526h291v184h137v-184h115v-129h-115v-199z" />
    <glyph glyph-name="onehalf" unicode="&#xbd;" horiz-adv-x="1898" 
d="M381 569h-143v639q-57 -51 -207 -51v129q231 -3 231 137h119v-854zM428 0h-149l976 1423h150zM1837 -4h-661v45q0 93 56.5 168.5t182.5 146.5l119 68q143 79 143 188q0 62 -45.5 99t-124.5 37q-77 0 -124.5 -42t-47.5 -106q0 -45 19 -88l-133 -35q-27 53 -27 123
q0 116 85.5 192t233.5 76q140 0 225 -67.5t85 -179.5q0 -177 -211 -291l-121 -66q-117 -63 -139 -137h485v-131z" />
    <glyph glyph-name="threequarters" unicode="&#xbe;" horiz-adv-x="1978" 
d="M397 555q-157 0 -246.5 74.5t-89.5 195.5q0 41 17 101l133 -33q-10 -38 -10 -66q0 -68 52 -110.5t142 -42.5q85 0 135 38.5t50 104.5q0 57 -48.5 91t-128.5 34h-49v119h45q74 0 119 35t45 96q0 60 -44.5 95.5t-117.5 35.5q-172 0 -196 -176l-137 20q18 127 107.5 201
t236.5 74q132 0 213.5 -64t81.5 -172q0 -78 -47 -132t-121 -66q186 -34 186 -199q0 -117 -88 -185.5t-240 -68.5zM670 0h-150l977 1423h150zM1841 -4h-137v199h-428v145q260 275 295 510h151q-46 -287 -309 -526h291v184h137v-184h115v-129h-115v-199z" />
    <glyph glyph-name="questiondown" unicode="&#xbf;" horiz-adv-x="1124" 
d="M614 1008q50 0 85.5 -36t35.5 -87t-35.5 -86t-85.5 -35q-51 0 -86.5 35t-35.5 86t35.5 87t86.5 36zM514 610h176q0 -102 -41.5 -178t-138.5 -156q-129 -105 -176 -176t-47 -161q0 -115 76.5 -182.5t205.5 -67.5q123 0 207 78q82 76 82 190q0 78 -33 145l168 60
q49 -88 49 -205q0 -177 -137 -299q-138 -123 -344 -123q-214 0 -336.5 106t-122.5 291q0 132 64 226q62 90 221 219q74 60 100 107.5t27 125.5z" />
    <glyph glyph-name="Agrave" unicode="&#xc0;" horiz-adv-x="1376" 
d="M592 1843l196 -293h-155l-250 293h209zM1354 0h-183l-155 406h-656l-155 -406h-182l550 1423h230zM686 1260l-268 -703h538z" />
    <glyph glyph-name="Aacute" unicode="&#xc1;" horiz-adv-x="1376" 
d="M788 1843h205l-252 -293h-151zM1354 0h-183l-155 406h-656l-155 -406h-182l550 1423h230zM686 1260l-268 -703h538z" />
    <glyph glyph-name="Acircumflex" unicode="&#xc2;" horiz-adv-x="1376" 
d="M821 1550l-139 166l-139 -166h-164l223 293h168l221 -293h-170zM1354 0h-183l-155 406h-656l-155 -406h-182l550 1423h230zM686 1260l-268 -703h538z" />
    <glyph glyph-name="Atilde" unicode="&#xc3;" horiz-adv-x="1376" 
d="M567 1677q-63 0 -69 -102h-133q1 115 51.5 178.5t138.5 63.5q72 0 143 -50q66 -51 97 -51q61 0 67 101h133q-1 -114 -52 -177t-138 -63q-78 0 -141 51q-67 49 -97 49zM1354 0h-183l-155 406h-656l-155 -406h-182l550 1423h230zM686 1260l-268 -703h538z" />
    <glyph glyph-name="Adieresis" unicode="&#xc4;" horiz-adv-x="1376" 
d="M569 1618q-32 -31 -79 -31t-78 31q-32 31 -32 78t32 78q31 31 78 31t79 -31q31 -31 31 -78t-31 -78zM965 1618q-32 -31 -79.5 -31t-78.5 31q-32 31 -32 78t32 78q31 31 78.5 31t79.5 -31q31 -31 31 -78t-31 -78zM1354 0h-183l-155 406h-656l-155 -406h-182l550 1423h230z
M686 1260l-268 -703h538z" />
    <glyph glyph-name="Aring" unicode="&#xc5;" horiz-adv-x="1376" 
d="M1354 0h-183l-155 406h-656l-155 -406h-182l538 1389q-80 59 -80 157q0 85 58 140t149 55q88 0 147.5 -55.5t59.5 -139.5q0 -96 -80 -155zM752 1608q-25 25 -63.5 25t-63.5 -25q-26 -25 -26 -61.5t26 -61.5q25 -26 63.5 -26t63.5 26q25 25 25 61.5t-25 61.5zM686 1260
l-268 -703h538z" />
    <glyph glyph-name="AE" unicode="&#xc6;" horiz-adv-x="2013" 
d="M1124 645v-491h797v-154h-971v434h-555l-209 -434h-180l684 1423h1229v-153h-795v-471h641v-154h-641zM793 1257l-324 -669h481v669h-157z" />
    <glyph glyph-name="Ccedilla" unicode="&#xc7;" horiz-adv-x="1515" 
d="M1257 512l175 -39q-123 -463 -564 -498l-90 -301h-157l79 303q-263 30 -430 236q-168 201 -168 498q0 322 195 532q194 209 494 209q250 0 410.5 -139t217.5 -400l-168 -51q-55 224 -167.5 330t-292.5 106q-224 0 -365 -163q-141 -167 -141 -424t141 -420
q141 -166 365 -166q364 0 466 387z" />
    <glyph glyph-name="Egrave" unicode="&#xc8;" horiz-adv-x="1239" 
d="M762 1550h-156l-250 293h209zM1147 0h-971v1423h969v-153h-795v-471h641v-154h-641v-491h797v-154z" />
    <glyph glyph-name="Eacute" unicode="&#xc9;" horiz-adv-x="1239" 
d="M715 1550h-152l199 293h205zM1147 0h-971v1423h969v-153h-795v-471h641v-154h-641v-491h797v-154z" />
    <glyph glyph-name="Ecircumflex" unicode="&#xca;" horiz-adv-x="1239" 
d="M516 1550h-164l223 293h168l222 -293h-170l-140 166zM1147 0h-971v1423h969v-153h-795v-471h641v-154h-641v-491h797v-154z" />
    <glyph glyph-name="Edieresis" unicode="&#xcb;" horiz-adv-x="1239" 
d="M543 1618q-32 -31 -79.5 -31t-78.5 31q-32 31 -32 78t32 78q31 31 78.5 31t79.5 -31q31 -31 31 -78t-31 -78zM938 1618q-32 -31 -79.5 -31t-78.5 31q-32 31 -32 78t32 78q31 31 78.5 31t79.5 -31q31 -31 31 -78t-31 -78zM1147 0h-971v1423h969v-153h-795v-471h641v-154
h-641v-491h797v-154z" />
    <glyph glyph-name="Igrave" unicode="&#xcc;" horiz-adv-x="526" 
d="M367 1550h-156l-250 293h209zM350 0h-174v1423h174v-1423z" />
    <glyph glyph-name="Iacute" unicode="&#xcd;" horiz-adv-x="526" 
d="M319 1550h-151l199 293h204zM350 0h-174v1423h174v-1423z" />
    <glyph glyph-name="Icircumflex" unicode="&#xce;" horiz-adv-x="526" 
d="M121 1550h-164l223 293h168l221 -293h-170l-139 166zM350 0h-174v1423h174v-1423z" />
    <glyph glyph-name="Idieresis" unicode="&#xcf;" horiz-adv-x="526" 
d="M147 1618q-32 -31 -79.5 -31t-79.5 31q-31 31 -31 78t31 78q32 31 79.5 31t79.5 -31q31 -31 31 -78t-31 -78zM543 1618q-32 -31 -79.5 -31t-78.5 31q-32 31 -32 78t32 78q31 31 78.5 31t79.5 -31q31 -31 31 -78t-31 -78zM350 0h-174v1423h174v-1423z" />
    <glyph glyph-name="Eth" unicode="&#xd0;" horiz-adv-x="1519" 
d="M176 1423h514q200 0 360.5 -80t262.5 -241q104 -165 104 -391q0 -334 -211 -521q-211 -190 -516 -190h-514v657h-129v144h129v622zM350 154h307q94 0 177 18.5t157.5 61t127.5 106t84.5 159t31.5 214.5q0 287 -164 422q-163 135 -414 135h-307v-469h404v-144h-404v-503z
" />
    <glyph glyph-name="Ntilde" unicode="&#xd1;" horiz-adv-x="1484" 
d="M557 1575h-133q1 115 51.5 178.5t138.5 63.5q73 0 144 -50q66 -51 96 -51q62 0 68 101h133q-1 -114 -52.5 -177t-138.5 -63q-78 0 -141 51q-67 49 -96 49q-64 0 -70 -102zM342 0h-166v1423h189l778 -1153v1153h166v-1423h-189l-778 1153v-1153z" />
    <glyph glyph-name="Ograve" unicode="&#xd2;" horiz-adv-x="1626" 
d="M915 1550h-155l-250 293h209zM813 -29q-310 0 -510 209q-201 210 -201 531q0 319 201 532q200 209 510 209q307 0 510 -209q201 -213 201 -532q0 -321 -201 -531q-203 -209 -510 -209zM813 125q232 0 379 166q147 167 147 420t-147 422q-146 165 -379 165
q-231 0 -377 -165q-149 -168 -149 -422q0 -255 149 -420q147 -166 377 -166z" />
    <glyph glyph-name="Oacute" unicode="&#xd3;" horiz-adv-x="1626" 
d="M868 1550h-151l198 293h205zM813 -29q-310 0 -510 209q-201 210 -201 531q0 319 201 532q200 209 510 209q307 0 510 -209q201 -213 201 -532q0 -321 -201 -531q-203 -209 -510 -209zM813 125q232 0 379 166q147 167 147 420t-147 422q-146 165 -379 165
q-231 0 -377 -165q-149 -168 -149 -422q0 -255 149 -420q147 -166 377 -166z" />
    <glyph glyph-name="Ocircumflex" unicode="&#xd4;" horiz-adv-x="1626" 
d="M670 1550h-164l223 293h168l221 -293h-170l-139 166zM813 -29q-310 0 -510 209q-201 210 -201 531q0 319 201 532q200 209 510 209q307 0 510 -209q201 -213 201 -532q0 -321 -201 -531q-203 -209 -510 -209zM813 125q232 0 379 166q147 167 147 420t-147 422
q-146 165 -379 165q-231 0 -377 -165q-149 -168 -149 -422q0 -255 149 -420q147 -166 377 -166z" />
    <glyph glyph-name="Otilde" unicode="&#xd5;" horiz-adv-x="1626" 
d="M625 1575h-133q1 115 51.5 178.5t138.5 63.5q72 0 143 -50q66 -51 97 -51q61 0 67 101h133q-1 -114 -52 -177t-138 -63q-78 0 -141 51q-67 49 -97 49q-63 0 -69 -102zM813 -29q-310 0 -510 209q-201 210 -201 531q0 319 201 532q200 209 510 209q307 0 510 -209
q201 -213 201 -532q0 -321 -201 -531q-203 -209 -510 -209zM813 125q232 0 379 166q147 167 147 420t-147 422q-146 165 -379 165q-231 0 -377 -165q-149 -168 -149 -422q0 -255 149 -420q147 -166 377 -166z" />
    <glyph glyph-name="Odieresis" unicode="&#xd6;" horiz-adv-x="1626" 
d="M696 1618q-32 -31 -79 -31t-78 31q-32 31 -32 78t32 78q31 31 78 31t79 -31q31 -31 31 -78t-31 -78zM1092 1618q-32 -31 -79.5 -31t-78.5 31q-32 31 -32 78t32 78q31 31 78.5 31t79.5 -31q31 -31 31 -78t-31 -78zM813 -29q-310 0 -510 209q-201 210 -201 531
q0 319 201 532q200 209 510 209q307 0 510 -209q201 -213 201 -532q0 -321 -201 -531q-203 -209 -510 -209zM813 125q232 0 379 166q147 167 147 420t-147 422q-146 165 -379 165q-231 0 -377 -165q-149 -168 -149 -422q0 -255 149 -420q147 -166 377 -166z" />
    <glyph glyph-name="multiply" unicode="&#xd7;" 
d="M776 979l105 -105l-275 -272l275 -272l-103 -107l-276 275l-275 -275l-104 107l274 272l-274 272l104 105l275 -272z" />
    <glyph glyph-name="Oslash" unicode="&#xd8;" horiz-adv-x="1626" 
d="M1343 1423h181l-178 -204q178 -205 178 -508q0 -321 -201 -531q-203 -209 -510 -209q-249 0 -432 142l-98 -113h-181l179 205q-179 206 -179 506q0 319 201 532q200 209 510 209q251 0 432 -141zM287 711q0 -215 110 -373l740 848q-136 112 -324 112q-231 0 -377 -165
q-149 -168 -149 -422zM1339 711q0 216 -110 374l-740 -847q137 -113 324 -113q232 0 379 166q147 167 147 420z" />
    <glyph glyph-name="Ugrave" unicode="&#xd9;" horiz-adv-x="1447" 
d="M827 1550h-155l-250 293h209zM723 -29q-272 0 -419.5 147.5t-147.5 422.5v882h174v-884q0 -202 100.5 -308t292.5 -106t293.5 106.5t101.5 307.5v884h174v-882q0 -276 -146.5 -423t-422.5 -147z" />
    <glyph glyph-name="Uacute" unicode="&#xda;" horiz-adv-x="1447" 
d="M780 1550h-151l198 293h205zM723 -29q-272 0 -419.5 147.5t-147.5 422.5v882h174v-884q0 -202 100.5 -308t292.5 -106t293.5 106.5t101.5 307.5v884h174v-882q0 -276 -146.5 -423t-422.5 -147z" />
    <glyph glyph-name="Ucircumflex" unicode="&#xdb;" horiz-adv-x="1447" 
d="M582 1550h-164l223 293h168l221 -293h-170l-139 166zM723 -29q-272 0 -419.5 147.5t-147.5 422.5v882h174v-884q0 -202 100.5 -308t292.5 -106t293.5 106.5t101.5 307.5v884h174v-882q0 -276 -146.5 -423t-422.5 -147z" />
    <glyph glyph-name="Udieresis" unicode="&#xdc;" horiz-adv-x="1447" 
d="M608 1618q-32 -31 -79 -31t-78 31q-32 31 -32 78t32 78q31 31 78 31t79 -31q31 -31 31 -78t-31 -78zM1004 1618q-32 -31 -79.5 -31t-78.5 31q-32 31 -32 78t32 78q31 31 78.5 31t79.5 -31q31 -31 31 -78t-31 -78zM723 -29q-272 0 -419.5 147.5t-147.5 422.5v882h174v-884
q0 -202 100.5 -308t292.5 -106t293.5 106.5t101.5 307.5v884h174v-882q0 -276 -146.5 -423t-422.5 -147z" />
    <glyph glyph-name="Yacute" unicode="&#xdd;" horiz-adv-x="1282" 
d="M692 1550h-151l198 293h205zM723 0h-174v600l-545 823h209l426 -663l432 663h207l-555 -823v-600z" />
    <glyph glyph-name="Thorn" unicode="&#xde;" horiz-adv-x="1300" 
d="M350 0h-174v1423h174v-278h367q229 0 364.5 -114t135.5 -310q0 -198 -134 -311t-366 -113h-367v-297zM350 991v-540h367q152 0 233.5 70.5t81.5 199.5q0 131 -81.5 200.5t-233.5 69.5h-367z" />
    <glyph glyph-name="germandbls" unicode="&#xdf;" horiz-adv-x="1290" 
d="M854 -25q-139 0 -247 49.5t-158 141.5l137 102q71 -151 272 -151q90 0 143.5 40.5t53.5 116.5q0 56 -32 89t-105 57l-72 22q-39 10 -70 23q-4 1 -59 22l-17.5 7t-15 6.5t-12 5.5t-11 6t-9 5.5t-9.5 7t-9 7t-10.5 8.5t-11.5 9q-37 30 -50.5 68t-20.5 110q0 45 22.5 87.5
t56 73.5t73 64t73 60t56 61t22.5 68q0 159 -238 159q-133 0 -207.5 -78.5t-74.5 -228.5v-993h-174v1012q0 208 131 321q130 115 335 115q183 0 294.5 -75.5t111.5 -213.5q0 -61 -32.5 -116t-79 -94.5t-92.5 -74t-78.5 -70t-32.5 -67.5q0 -34 11.5 -54t37.5 -34q7 -4 18.5 -9
t27.5 -10t25 -9q34 -17 62 -21l72 -22q136 -41 203 -109.5t67 -192.5q0 -139 -104.5 -220t-272.5 -81z" />
    <glyph glyph-name="agrave" unicode="&#xe0;" horiz-adv-x="1071" 
d="M631 1110h-156l-250 293h209zM463 -25q-167 0 -272 85.5t-105 226.5q0 132 109 221q110 90 268 90q171 0 297 -117v129q0 117 -61.5 183.5t-170.5 66.5q-227 0 -282 -233l-154 43q38 158 154.5 248t283.5 90q182 0 291 -104t109 -288v-616h-170v127q-112 -152 -297 -152z
M479 117q167 0 281 164v36q-117 138 -281 138q-96 0 -154.5 -47t-58.5 -121q0 -76 58.5 -123t154.5 -47z" />
    <glyph glyph-name="aacute" unicode="&#xe1;" horiz-adv-x="1071" 
d="M584 1110h-152l199 293h205zM463 -25q-167 0 -272 85.5t-105 226.5q0 132 109 221q110 90 268 90q171 0 297 -117v129q0 117 -61.5 183.5t-170.5 66.5q-227 0 -282 -233l-154 43q38 158 154.5 248t283.5 90q182 0 291 -104t109 -288v-616h-170v127q-112 -152 -297 -152z
M479 117q167 0 281 164v36q-117 138 -281 138q-96 0 -154.5 -47t-58.5 -121q0 -76 58.5 -123t154.5 -47z" />
    <glyph glyph-name="acircumflex" unicode="&#xe2;" horiz-adv-x="1071" 
d="M385 1110h-164l223 293h168l222 -293h-170l-140 166zM463 -25q-167 0 -272 85.5t-105 226.5q0 132 109 221q110 90 268 90q171 0 297 -117v129q0 117 -61.5 183.5t-170.5 66.5q-227 0 -282 -233l-154 43q38 158 154.5 248t283.5 90q182 0 291 -104t109 -288v-616h-170
v127q-112 -152 -297 -152zM479 117q167 0 281 164v36q-117 138 -281 138q-96 0 -154.5 -47t-58.5 -121q0 -76 58.5 -123t154.5 -47z" />
    <glyph glyph-name="atilde" unicode="&#xe3;" horiz-adv-x="1071" 
d="M340 1135h-133q1 115 51.5 178t138.5 63q74 0 144 -49q66 -51 96 -51q62 0 68 100h133q-1 -114 -52.5 -176.5t-138.5 -62.5q-78 0 -141 51q-67 49 -96 49q-64 0 -70 -102zM463 -25q-167 0 -272 85.5t-105 226.5q0 132 109 221q110 90 268 90q171 0 297 -117v129
q0 117 -61.5 183.5t-170.5 66.5q-227 0 -282 -233l-154 43q38 158 154.5 248t283.5 90q182 0 291 -104t109 -288v-616h-170v127q-112 -152 -297 -152zM479 117q167 0 281 164v36q-117 138 -281 138q-96 0 -154.5 -47t-58.5 -121q0 -76 58.5 -123t154.5 -47z" />
    <glyph glyph-name="adieresis" unicode="&#xe4;" horiz-adv-x="1071" 
d="M412 1178q-32 -31 -79.5 -31t-78.5 31q-32 31 -32 77.5t32 77.5q31 31 78.5 31t79.5 -31q31 -31 31 -77.5t-31 -77.5zM807 1178q-32 -31 -79.5 -31t-78.5 31q-32 31 -32 77.5t32 77.5q31 31 78.5 31t79.5 -31q31 -31 31 -77.5t-31 -77.5zM463 -25q-167 0 -272 85.5
t-105 226.5q0 132 109 221q110 90 268 90q171 0 297 -117v129q0 117 -61.5 183.5t-170.5 66.5q-227 0 -282 -233l-154 43q38 158 154.5 248t283.5 90q182 0 291 -104t109 -288v-616h-170v127q-112 -152 -297 -152zM479 117q167 0 281 164v36q-117 138 -281 138
q-96 0 -154.5 -47t-58.5 -121q0 -76 58.5 -123t154.5 -47z" />
    <glyph glyph-name="aring" unicode="&#xe5;" horiz-adv-x="1071" 
d="M680 987q119 -39 184.5 -134.5t65.5 -236.5v-616h-170v127q-112 -152 -297 -152q-167 0 -272 85.5t-105 226.5q0 132 109 221q110 90 268 90q171 0 297 -117v129q0 117 -61.5 183.5t-170.5 66.5q-227 0 -282 -233l-154 43q29 121 103.5 202t185.5 113q-57 57 -57 139
q0 85 58 140t148 55q88 0 147.5 -55.5t59.5 -139.5q0 -86 -57 -137zM594 1186q-25 25 -63.5 25t-63.5 -25q-26 -25 -26 -61.5t26 -61.5q25 -26 63.5 -26t63.5 26q25 25 25 61.5t-25 61.5zM760 281v36q-117 138 -281 138q-96 0 -154.5 -47t-58.5 -121q0 -76 58.5 -123
t154.5 -47q167 0 281 164z" />
    <glyph glyph-name="ae" unicode="&#xe6;" horiz-adv-x="1794" 
d="M1573 346l131 -88q-145 -283 -449 -283q-276 0 -407 224q-169 -224 -389 -224q-165 0 -269 86t-104 226q0 132 109 221q110 90 268 90q171 0 297 -117v129q0 117 -61.5 183.5t-170.5 66.5q-227 0 -282 -233l-154 43q38 158 154.5 248t283.5 90q249 0 340 -187
q126 187 369 187q210 0 332.5 -136t122.5 -364q0 -45 -2 -55h-760q8 -155 93 -242.5t230 -87.5q211 0 318 223zM1237 862q-121 0 -198.5 -71t-100.5 -201h580q-21 272 -281 272zM473 117q165 0 287 198q-122 140 -281 140q-96 0 -154.5 -47t-58.5 -121q0 -76 56 -123
t151 -47z" />
    <glyph glyph-name="ccedilla" unicode="&#xe7;" horiz-adv-x="1077" 
d="M565 123q107 0 180 57t132 178l131 -88q-128 -260 -373 -290l-90 -306h-158l82 310q-182 31 -287.5 165t-105.5 343q0 222 137 368q136 148 344 148q180 0 302 -105.5t157 -300.5l-156 -53q-65 311 -303 311q-141 0 -222 -98t-81 -270q0 -171 82.5 -270t228.5 -99z" />
    <glyph glyph-name="egrave" unicode="&#xe8;" horiz-adv-x="1116" 
d="M465 1403l197 -293h-156l-250 293h209zM895 340l131 -82q-145 -283 -448 -283q-216 0 -359 146q-143 143 -143 371q0 229 137 372q138 144 348 144t332.5 -136t122.5 -364q0 -47 -2 -55h-760q8 -154 93 -242t231 -88q209 0 317 217zM559 862q-123 0 -203.5 -72.5
t-97.5 -199.5h582q-21 272 -281 272z" />
    <glyph glyph-name="eacute" unicode="&#xe9;" horiz-adv-x="1116" 
d="M662 1403h204l-252 -293h-151zM895 340l131 -82q-145 -283 -448 -283q-216 0 -359 146q-143 143 -143 371q0 229 137 372q138 144 348 144t332.5 -136t122.5 -364q0 -47 -2 -55h-760q8 -154 93 -242t231 -88q209 0 317 217zM559 862q-123 0 -203.5 -72.5t-97.5 -199.5
h582q-21 272 -281 272z" />
    <glyph glyph-name="ecircumflex" unicode="&#xea;" horiz-adv-x="1116" 
d="M694 1110l-139 166l-139 -166h-164l223 293h168l221 -293h-170zM895 340l131 -82q-145 -283 -448 -283q-216 0 -359 146q-143 143 -143 371q0 229 137 372q138 144 348 144t332.5 -136t122.5 -364q0 -47 -2 -55h-760q8 -154 93 -242t231 -88q209 0 317 217zM559 862
q-123 0 -203.5 -72.5t-97.5 -199.5h582q-21 272 -281 272z" />
    <glyph glyph-name="edieresis" unicode="&#xeb;" horiz-adv-x="1116" 
d="M442 1178q-32 -31 -79 -31t-78 31q-32 31 -32 77.5t32 77.5q31 31 78 31t79 -31q31 -31 31 -77.5t-31 -77.5zM838 1178q-32 -31 -79.5 -31t-78.5 31q-32 31 -32 77.5t32 77.5q31 31 78.5 31t79.5 -31q31 -31 31 -77.5t-31 -77.5zM895 340l131 -82q-145 -283 -448 -283
q-216 0 -359 146q-143 143 -143 371q0 229 137 372q138 144 348 144t332.5 -136t122.5 -364q0 -47 -2 -55h-760q8 -154 93 -242t231 -88q209 0 317 217zM559 862q-123 0 -203.5 -72.5t-97.5 -199.5h582q-21 272 -281 272z" />
    <glyph glyph-name="igrave" unicode="&#xec;" horiz-adv-x="468" 
d="M336 1110h-156l-250 293h209zM319 0h-169v983h169v-983z" />
    <glyph glyph-name="iacute" unicode="&#xed;" horiz-adv-x="468" 
d="M289 1110h-152l199 293h205zM319 0h-169v983h169v-983z" />
    <glyph glyph-name="icircumflex" unicode="&#xee;" horiz-adv-x="468" 
d="M90 1110h-164l224 293h167l222 -293h-170l-140 166zM319 0h-169v983h169v-983z" />
    <glyph glyph-name="idieresis" unicode="&#xef;" horiz-adv-x="468" 
d="M117 1178q-32 -31 -80 -31t-80 31q-31 31 -31 77.5t31 77.5q32 31 80 31t80 -31q31 -31 31 -77.5t-31 -77.5zM512 1178q-32 -31 -79.5 -31t-78.5 31q-32 31 -32 77.5t32 77.5q31 31 78.5 31t79.5 -31q31 -31 31 -77.5t-31 -77.5zM319 0h-169v983h169v-983z" />
    <glyph glyph-name="eth" unicode="&#xf0;" horiz-adv-x="1163" 
d="M932 1440l-176 -164q154 -116 237.5 -290t83.5 -384q0 -288 -135 -457q-135 -170 -364 -170q-223 0 -363 140q-139 139 -139 356q0 213 127 352q126 138 323 138q269 0 371 -185q-46 254 -252 398l-127 -117h-172l193 178q-129 63 -293 90l76 127q177 -26 331 -111
l107 99h172zM578 123q145 0 230 102.5t85 270.5q0 143 -86 230t-232 87q-147 0 -233 -93.5t-86 -248.5q0 -156 87.5 -252t234.5 -96z" />
    <glyph glyph-name="ntilde" unicode="&#xf1;" horiz-adv-x="1155" 
d="M399 1135h-133q1 115 52 178t139 63q73 0 143 -49q66 -51 96 -51q62 0 68 100h133q-1 -114 -52 -176.5t-138 -62.5q-79 0 -142 51q-67 49 -96 49q-64 0 -70 -102zM319 0h-169v983h169v-123q109 148 318 148q179 0 278 -106.5t99 -293.5v-608h-170v590q0 270 -246 270
q-124 0 -201.5 -71.5t-77.5 -196.5v-592z" />
    <glyph glyph-name="ograve" unicode="&#xf2;" horiz-adv-x="1159" 
d="M682 1110h-156l-250 293h209zM938 123q-145 -148 -358 -148q-214 0 -359 148q-145 145 -145 369q0 225 145 370q146 146 359 146q212 0 358 -146q145 -145 145 -370q0 -224 -145 -369zM344 223q87 -100 236 -100q148 0 235 100q90 104 90 269q0 164 -90 268
q-87 100 -235 100q-149 0 -236 -100q-90 -104 -90 -268q0 -165 90 -269z" />
    <glyph glyph-name="oacute" unicode="&#xf3;" horiz-adv-x="1159" 
d="M635 1110h-152l199 293h205zM938 123q-145 -148 -358 -148q-214 0 -359 148q-145 145 -145 369q0 225 145 370q146 146 359 146q212 0 358 -146q145 -145 145 -370q0 -224 -145 -369zM344 223q87 -100 236 -100q148 0 235 100q90 104 90 269q0 164 -90 268
q-87 100 -235 100q-149 0 -236 -100q-90 -104 -90 -268q0 -165 90 -269z" />
    <glyph glyph-name="ocircumflex" unicode="&#xf4;" horiz-adv-x="1159" 
d="M436 1110h-164l224 293h168l221 -293h-170l-140 166zM938 123q-145 -148 -358 -148q-214 0 -359 148q-145 145 -145 369q0 225 145 370q146 146 359 146q212 0 358 -146q145 -145 145 -370q0 -224 -145 -369zM344 223q87 -100 236 -100q148 0 235 100q90 104 90 269
q0 164 -90 268q-87 100 -235 100q-149 0 -236 -100q-90 -104 -90 -268q0 -165 90 -269z" />
    <glyph glyph-name="otilde" unicode="&#xf5;" horiz-adv-x="1159" 
d="M391 1135h-133q1 115 52 178t139 63q73 0 143 -49q66 -51 96 -51q62 0 68 100h133q-1 -114 -52.5 -176.5t-138.5 -62.5q-78 0 -141 51q-67 49 -96 49q-64 0 -70 -102zM938 123q-145 -148 -358 -148q-214 0 -359 148q-145 145 -145 369q0 225 145 370q146 146 359 146
q212 0 358 -146q145 -145 145 -370q0 -224 -145 -369zM344 223q87 -100 236 -100q148 0 235 100q90 104 90 269q0 164 -90 268q-87 100 -235 100q-149 0 -236 -100q-90 -104 -90 -268q0 -165 90 -269z" />
    <glyph glyph-name="odieresis" unicode="&#xf6;" horiz-adv-x="1159" 
d="M463 1178q-32 -31 -79.5 -31t-78.5 31q-32 31 -32 77.5t32 77.5q31 31 78.5 31t79.5 -31q31 -31 31 -77.5t-31 -77.5zM858 1178q-32 -31 -79.5 -31t-78.5 31q-32 31 -32 77.5t32 77.5q31 31 78.5 31t79.5 -31q31 -31 31 -77.5t-31 -77.5zM938 123q-145 -148 -358 -148
q-214 0 -359 148q-145 145 -145 369q0 225 145 370q146 146 359 146q212 0 358 -146q145 -145 145 -370q0 -224 -145 -369zM344 223q87 -100 236 -100q148 0 235 100q90 104 90 269q0 164 -90 268q-87 100 -235 100q-149 0 -236 -100q-90 -104 -90 -268q0 -165 90 -269z" />
    <glyph glyph-name="divide" unicode="&#xf7;" 
d="M571 870q-28 -28 -68.5 -28t-68.5 28t-28 69t28 69t68.5 28t68.5 -28t28 -69t-28 -69zM924 528h-844v148h844v-148zM571 197q-28 -28 -68.5 -28t-68.5 28t-28 68.5t28 68.5t68.5 28t68.5 -28t28 -68.5t-28 -68.5z" />
    <glyph glyph-name="oslash" unicode="&#xf8;" horiz-adv-x="1171" 
d="M924 983h159l-122 -141q122 -140 122 -350q0 -227 -141 -371q-146 -146 -362 -146q-164 0 -291 86l-53 -61h-160l123 143q-123 138 -123 349q0 229 143 372q141 144 361 144q163 0 290 -86zM254 492q0 -135 53 -224l463 537q-82 55 -190 55q-152 0 -239 -98.5t-87 -269.5
zM905 492q0 134 -53 223l-463 -537q76 -55 191 -55q152 0 238.5 99t86.5 270z" />
    <glyph glyph-name="ugrave" unicode="&#xf9;" horiz-adv-x="1138" 
d="M670 1110h-156l-250 293h209zM510 -25q-176 0 -272.5 106t-96.5 296v606h170v-596q0 -129 60.5 -196.5t177.5 -67.5q119 0 194.5 70.5t75.5 191.5v598h170v-983h-170v125q-108 -150 -309 -150z" />
    <glyph glyph-name="uacute" unicode="&#xfa;" horiz-adv-x="1138" 
d="M623 1110h-152l199 293h204zM510 -25q-176 0 -272.5 106t-96.5 296v606h170v-596q0 -129 60.5 -196.5t177.5 -67.5q119 0 194.5 70.5t75.5 191.5v598h170v-983h-170v125q-108 -150 -309 -150z" />
    <glyph glyph-name="ucircumflex" unicode="&#xfb;" horiz-adv-x="1138" 
d="M424 1110h-164l223 293h168l221 -293h-170l-139 166zM510 -25q-176 0 -272.5 106t-96.5 296v606h170v-596q0 -129 60.5 -196.5t177.5 -67.5q119 0 194.5 70.5t75.5 191.5v598h170v-983h-170v125q-108 -150 -309 -150z" />
    <glyph glyph-name="udieresis" unicode="&#xfc;" horiz-adv-x="1138" 
d="M451 1178q-32 -31 -79.5 -31t-78.5 31q-32 31 -32 77.5t32 77.5q31 31 78.5 31t79.5 -31q31 -31 31 -77.5t-31 -77.5zM846 1178q-32 -31 -79.5 -31t-78.5 31q-32 31 -32 77.5t32 77.5q31 31 78.5 31t79.5 -31q31 -31 31 -77.5t-31 -77.5zM510 -25q-176 0 -272.5 106
t-96.5 296v606h170v-596q0 -129 60.5 -196.5t177.5 -67.5q119 0 194.5 70.5t75.5 191.5v598h170v-983h-170v125q-108 -150 -309 -150z" />
    <glyph glyph-name="yacute" unicode="&#xfd;" 
d="M557 1110h-151l198 293h205zM238 -455q-158 0 -226 105l105 119q52 -76 129 -76q56 0 92.5 45.5t79.5 159.5l39 102h-76l-373 983h182l316 -844l307 844h182l-442 -1167q-56 -146 -131 -208.5t-184 -62.5z" />
    <glyph glyph-name="thorn" unicode="&#xfe;" horiz-adv-x="1212" 
d="M319 -430h-169v1853h169v-598q127 183 361 183q194 0 326 -150q131 -149 131 -366q0 -218 -131 -367q-132 -150 -326 -150q-235 0 -361 181v-586zM643 123q147 0 231 99t84 270t-84 269.5t-231 98.5q-139 0 -229 -106q-95 -109 -95 -262q0 -154 95 -263q90 -106 229 -106
z" />
    <glyph glyph-name="ydieresis" unicode="&#xff;" 
d="M385 1178q-32 -31 -79.5 -31t-78.5 31q-32 31 -32 77.5t32 77.5q31 31 78.5 31t79.5 -31q31 -31 31 -77.5t-31 -77.5zM780 1178q-32 -31 -79 -31t-78 31q-32 31 -32 77.5t32 77.5q31 31 78 31t79 -31q31 -31 31 -77.5t-31 -77.5zM238 -455q-158 0 -226 105l105 119
q52 -76 129 -76q56 0 92.5 45.5t79.5 159.5l39 102h-76l-373 983h182l316 -844l307 844h182l-442 -1167q-56 -146 -131 -208.5t-184 -62.5z" />
    <glyph glyph-name="Amacron" unicode="&#x100;" horiz-adv-x="1376" 
d="M389 1774h594v-148h-594v148zM1354 0h-183l-155 406h-656l-155 -406h-182l550 1423h230zM686 1260l-268 -703h538z" />
    <glyph glyph-name="amacron" unicode="&#x101;" horiz-adv-x="1071" 
d="M825 1186h-594v147h594v-147zM463 -25q-167 0 -272 85.5t-105 226.5q0 132 109 221q110 90 268 90q171 0 297 -117v129q0 117 -61.5 183.5t-170.5 66.5q-227 0 -282 -233l-154 43q38 158 154.5 248t283.5 90q182 0 291 -104t109 -288v-616h-170v127q-112 -152 -297 -152z
M479 117q167 0 281 164v36q-117 138 -281 138q-96 0 -154.5 -47t-58.5 -121q0 -76 58.5 -123t154.5 -47z" />
    <glyph glyph-name="Abreve" unicode="&#x102;" horiz-adv-x="1376" 
d="M686 1546q-131 0 -205.5 75t-74.5 208h135q0 -67 38.5 -105t106.5 -38q66 0 105.5 38.5t39.5 104.5h136q0 -134 -74 -208.5t-207 -74.5zM1354 0h-183l-155 406h-656l-155 -406h-182l550 1423h230zM686 1260l-268 -703h538z" />
    <glyph glyph-name="abreve" unicode="&#x103;" horiz-adv-x="1071" 
d="M528 1106q-131 0 -205.5 75t-74.5 208h135q0 -67 38.5 -105.5t106.5 -38.5q66 0 106 39t40 105h135q0 -134 -74 -208.5t-207 -74.5zM463 -25q-167 0 -272 85.5t-105 226.5q0 132 109 221q110 90 268 90q171 0 297 -117v129q0 117 -61.5 183.5t-170.5 66.5
q-227 0 -282 -233l-154 43q38 158 154.5 248t283.5 90q182 0 291 -104t109 -288v-616h-170v127q-112 -152 -297 -152zM479 117q167 0 281 164v36q-117 138 -281 138q-96 0 -154.5 -47t-58.5 -121q0 -76 58.5 -123t154.5 -47z" />
    <glyph glyph-name="Aogonek" unicode="&#x104;" horiz-adv-x="1376" 
d="M1327 -250l51 -125q-65 -47 -166 -47q-95 0 -154 44.5t-59 127.5q0 138 172 252l-155 404h-656l-155 -406h-182l550 1423h230l551 -1423q-98 -70 -140.5 -117.5t-42.5 -89.5q0 -72 78 -72q38 0 78 29zM686 1260l-268 -703h538z" />
    <glyph glyph-name="aogonek" unicode="&#x105;" horiz-adv-x="1071" 
d="M903 -250l51 -125q-65 -47 -166 -47q-95 0 -154 44.5t-59 127.5q0 140 185 260v117q-112 -152 -297 -152q-167 0 -272 85.5t-105 226.5q0 132 109 221q110 90 268 90q171 0 297 -117v129q0 117 -61.5 183.5t-170.5 66.5q-227 0 -282 -233l-154 43q38 158 154.5 248
t283.5 90q182 0 291 -104t109 -288v-616q-98 -70 -140 -117.5t-42 -89.5q0 -72 77 -72q41 0 78 29zM479 117q167 0 281 164v36q-117 138 -281 138q-96 0 -154.5 -47t-58.5 -121q0 -76 58.5 -123t154.5 -47z" />
    <glyph glyph-name="Cacute" unicode="&#x106;" horiz-adv-x="1515" 
d="M846 1550h-152l199 293h205zM791 -29q-300 0 -494 209q-195 210 -195 531q0 322 195 532q194 209 494 209q250 0 410.5 -139t217.5 -400l-168 -51q-55 224 -167.5 330t-292.5 106q-224 0 -365 -163q-141 -167 -141 -424t141 -420q141 -166 365 -166q364 0 466 387
l175 -39q-132 -502 -641 -502z" />
    <glyph glyph-name="cacute" unicode="&#x107;" horiz-adv-x="1077" 
d="M604 1110h-151l198 293h205zM565 -25q-217 0 -354 140q-135 138 -135 377q0 222 137 368q136 148 344 148q180 0 302 -105.5t157 -300.5l-156 -53q-65 311 -303 311q-141 0 -222 -98t-81 -270q0 -171 82.5 -270t228.5 -99q107 0 180 57t132 178l131 -88
q-147 -295 -443 -295z" />
    <glyph glyph-name="Ccircumflex" unicode="&#x108;" horiz-adv-x="1515" 
d="M647 1550h-164l224 293h167l222 -293h-170l-140 166zM791 -29q-300 0 -494 209q-195 210 -195 531q0 322 195 532q194 209 494 209q250 0 410.5 -139t217.5 -400l-168 -51q-55 224 -167.5 330t-292.5 106q-224 0 -365 -163q-141 -167 -141 -424t141 -420
q141 -166 365 -166q364 0 466 387l175 -39q-132 -502 -641 -502z" />
    <glyph glyph-name="ccircumflex" unicode="&#x109;" horiz-adv-x="1077" 
d="M406 1110h-164l223 293h168l221 -293h-170l-139 166zM565 -25q-217 0 -354 140q-135 138 -135 377q0 222 137 368q136 148 344 148q180 0 302 -105.5t157 -300.5l-156 -53q-65 311 -303 311q-141 0 -222 -98t-81 -270q0 -171 82.5 -270t228.5 -99q107 0 180 57t132 178
l131 -88q-147 -295 -443 -295z" />
    <glyph glyph-name="Cdotaccent" unicode="&#x10a;" horiz-adv-x="1515" 
d="M870 1620q-32 -31 -79 -31t-78 31q-32 31 -32 76t32 76q31 31 78 31t79 -31q31 -31 31 -76t-31 -76zM791 -29q-300 0 -494 209q-195 210 -195 531q0 322 195 532q194 209 494 209q250 0 410.5 -139t217.5 -400l-168 -51q-55 224 -167.5 330t-292.5 106q-224 0 -365 -163
q-141 -167 -141 -424t141 -420q141 -166 365 -166q364 0 466 387l175 -39q-132 -502 -641 -502z" />
    <glyph glyph-name="cdotaccent" unicode="&#x10b;" horiz-adv-x="1077" 
d="M629 1180q-32 -31 -79.5 -31t-78.5 31q-32 31 -32 75.5t32 75.5q31 31 78.5 31t79.5 -31q31 -31 31 -75.5t-31 -75.5zM565 -25q-217 0 -354 140q-135 138 -135 377q0 222 137 368q136 148 344 148q180 0 302 -105.5t157 -300.5l-156 -53q-65 311 -303 311
q-141 0 -222 -98t-81 -270q0 -171 82.5 -270t228.5 -99q107 0 180 57t132 178l131 -88q-147 -295 -443 -295z" />
    <glyph glyph-name="Ccaron" unicode="&#x10c;" horiz-adv-x="1515" 
d="M934 1843h164l-224 -293h-167l-222 293h170l140 -166zM791 -29q-300 0 -494 209q-195 210 -195 531q0 322 195 532q194 209 494 209q250 0 410.5 -139t217.5 -400l-168 -51q-55 224 -167.5 330t-292.5 106q-224 0 -365 -163q-141 -167 -141 -424t141 -420
q141 -166 365 -166q364 0 466 387l175 -39q-132 -502 -641 -502z" />
    <glyph glyph-name="ccaron" unicode="&#x10d;" horiz-adv-x="1077" 
d="M692 1403h164l-223 -293h-168l-221 293h170l139 -166zM565 -25q-217 0 -354 140q-135 138 -135 377q0 222 137 368q136 148 344 148q180 0 302 -105.5t157 -300.5l-156 -53q-65 311 -303 311q-141 0 -222 -98t-81 -270q0 -171 82.5 -270t228.5 -99q107 0 180 57t132 178
l131 -88q-147 -295 -443 -295z" />
    <glyph glyph-name="Dcaron" unicode="&#x10e;" horiz-adv-x="1519" 
d="M764 1843h164l-223 -293h-168l-222 293h170l140 -166zM690 0h-514v1423h514q200 0 360.5 -80t262.5 -241q104 -165 104 -391q0 -334 -211 -521q-211 -190 -516 -190zM350 1270v-1116h307q94 0 177 18.5t157.5 61t127.5 106t84.5 159t31.5 214.5q0 287 -164 422
q-163 135 -414 135h-307z" />
    <glyph glyph-name="dcaron" unicode="&#x10f;" horiz-adv-x="1355" 
d="M1294 1069h-135l49 356h172zM532 -25q-191 0 -325 152q-131 149 -131 365q0 217 131 366q132 150 325 150q235 0 361 -181v596h170v-1423h-170v158q-127 -183 -361 -183zM569 123q139 0 232 106q92 109 92 263q0 153 -92 262q-93 106 -232 106q-147 0 -231 -98.5
t-84 -269.5t84 -270t231 -99z" />
    <glyph glyph-name="Dcroat" unicode="&#x110;" horiz-adv-x="1519" 
d="M176 1423h514q200 0 360.5 -80t262.5 -241q104 -165 104 -391q0 -334 -211 -521q-211 -190 -516 -190h-514v657h-129v144h129v622zM350 154h307q94 0 177 18.5t157.5 61t127.5 106t84.5 159t31.5 214.5q0 287 -164 422q-163 135 -414 135h-307v-469h404v-144h-404v-503z
" />
    <glyph glyph-name="dslash" unicode="&#x111;" horiz-adv-x="1212" 
d="M1063 1264h149v-127h-149v-1137h-170v158q-127 -183 -361 -183q-191 0 -325 152q-131 149 -131 365q0 217 131 366q132 150 325 150q235 0 361 -181v310h-307v127h307v159h170v-159zM569 123q139 0 232 106q92 109 92 263q0 153 -92 262q-93 106 -232 106
q-147 0 -231 -98.5t-84 -269.5t84 -270t231 -99z" />
    <glyph glyph-name="Emacron" unicode="&#x112;" horiz-adv-x="1239" 
d="M956 1626h-594v148h594v-148zM1147 0h-971v1423h969v-153h-795v-471h641v-154h-641v-491h797v-154z" />
    <glyph glyph-name="emacron" unicode="&#x113;" horiz-adv-x="1116" 
d="M262 1333h594v-147h-594v147zM895 340l131 -82q-145 -283 -448 -283q-216 0 -359 146q-143 143 -143 371q0 229 137 372q138 144 348 144t332.5 -136t122.5 -364q0 -47 -2 -55h-760q8 -154 93 -242t231 -88q209 0 317 217zM559 862q-123 0 -203.5 -72.5t-97.5 -199.5h582
q-21 272 -281 272z" />
    <glyph glyph-name="Ebreve" unicode="&#x114;" horiz-adv-x="1239" 
d="M659 1546q-131 0 -205.5 75t-74.5 208h135q0 -67 38.5 -105t106.5 -38q66 0 106 38.5t40 104.5h135q0 -134 -74 -208.5t-207 -74.5zM1147 0h-971v1423h969v-153h-795v-471h641v-154h-641v-491h797v-154z" />
    <glyph glyph-name="ebreve" unicode="&#x115;" horiz-adv-x="1116" 
d="M559 1106q-131 0 -205.5 75t-74.5 208h135q0 -67 38.5 -105.5t106.5 -38.5q66 0 106 39t40 105h135q0 -134 -74 -208.5t-207 -74.5zM895 340l131 -82q-145 -283 -448 -283q-216 0 -359 146q-143 143 -143 371q0 229 137 372q138 144 348 144t332.5 -136t122.5 -364
q0 -47 -2 -55h-760q8 -154 93 -242t231 -88q209 0 317 217zM559 862q-123 0 -203.5 -72.5t-97.5 -199.5h582q-21 272 -281 272z" />
    <glyph glyph-name="Edotaccent" unicode="&#x116;" horiz-adv-x="1239" 
d="M739 1620q-32 -31 -79 -31t-78 31q-32 31 -32 76t32 76q31 31 78 31t79 -31q31 -31 31 -76t-31 -76zM1147 0h-971v1423h969v-153h-795v-471h641v-154h-641v-491h797v-154z" />
    <glyph glyph-name="edotaccent" unicode="&#x117;" horiz-adv-x="1116" 
d="M639 1180q-32 -31 -79.5 -31t-78.5 31q-32 31 -32 75.5t32 75.5q31 31 78.5 31t79.5 -31q31 -31 31 -75.5t-31 -75.5zM895 340l131 -82q-145 -283 -448 -283q-216 0 -359 146q-143 143 -143 371q0 229 137 372q138 144 348 144t332.5 -136t122.5 -364q0 -47 -2 -55h-760
q8 -154 93 -242t231 -88q209 0 317 217zM559 862q-123 0 -203.5 -72.5t-97.5 -199.5h582q-21 272 -281 272z" />
    <glyph glyph-name="Eogonek" unicode="&#x118;" horiz-adv-x="1239" 
d="M1120 -250l51 -125q-65 -47 -165 -47q-95 0 -154 44.5t-59 127.5q0 134 168 250h-785v1423h969v-153h-795v-471h641v-154h-641v-491h797v-154q-98 -70 -140 -117.5t-42 -89.5q0 -72 77 -72q41 0 78 29z" />
    <glyph glyph-name="eogonek" unicode="&#x119;" horiz-adv-x="1116" 
d="M844 49q-103 -73 -117 -84q-35 -28 -72 -76q-37 -49 -37 -96q0 -72 78 -72q38 0 78 29l51 -125q-65 -47 -166 -47q-95 0 -154 44.5t-59 127.5q0 119 136 225h-4q-216 0 -359 146q-143 143 -143 371q0 229 137 372q138 144 348 144t332.5 -136t122.5 -364q0 -47 -2 -55
h-760q8 -154 93 -242t231 -88q209 0 317 217l131 -82q-72 -141 -182 -209zM559 862q-123 0 -203.5 -72.5t-97.5 -199.5h582q-21 272 -281 272z" />
    <glyph glyph-name="Ecaron" unicode="&#x11a;" horiz-adv-x="1239" 
d="M803 1843h164l-224 -293h-168l-221 293h170l140 -166zM1147 0h-971v1423h969v-153h-795v-471h641v-154h-641v-491h797v-154z" />
    <glyph glyph-name="ecaron" unicode="&#x11b;" horiz-adv-x="1116" 
d="M866 1403l-223 -293h-168l-221 293h170l139 -166l139 166h164zM895 340l131 -82q-145 -283 -448 -283q-216 0 -359 146q-143 143 -143 371q0 229 137 372q138 144 348 144t332.5 -136t122.5 -364q0 -47 -2 -55h-760q8 -154 93 -242t231 -88q209 0 317 217zM559 862
q-123 0 -203.5 -72.5t-97.5 -199.5h582q-21 272 -281 272z" />
    <glyph glyph-name="Gcircumflex" unicode="&#x11c;" horiz-adv-x="1650" 
d="M647 1550h-164l224 293h167l222 -293h-170l-140 166zM795 -29q-304 0 -498 209q-195 210 -195 531q0 323 197 532q194 209 498 209q250 0 409.5 -118t216.5 -341l-168 -53q-94 358 -458 358q-225 0 -369 -163q-143 -165 -143 -424q0 -267 147 -426q148 -160 375 -160
q204 0 354 135q149 134 158 371h-496v153h662v-784h-166v258q-77 -138 -215.5 -212.5t-308.5 -74.5z" />
    <glyph glyph-name="gcircumflex" unicode="&#x11d;" horiz-adv-x="1134" 
d="M920 1006q-51 0 -91 -88q111 -89 111 -250q0 -162 -111 -250q-113 -90 -280 -90q-103 0 -187 34q-92 -27 -92 -100q0 -39 28.5 -64.5t72.5 -25.5h364q371 0 371 -276q0 -152 -148 -252q-147 -99 -366 -99q-253 0 -389.5 79.5t-136.5 217.5q0 129 143 211q-98 64 -98 183
q0 129 139 200q-90 87 -90 232q0 157 108 248.5t281 91.5q93 0 164 -27q43 85 102 129h-131l-139 166l-139 -166h-164l223 293h168l209 -277q44 23 96 23q82 0 136 -55t54 -156v-33l-137 -24q-6 125 -71 125zM549 465q97 0 159 54.5t62 148.5q0 92 -62.5 147t-158.5 55
q-99 0 -159 -53.5t-60 -148.5t60 -149t159 -54zM721 4h-309q-78 0 -127 -38.5t-49 -98.5q0 -174 356 -174q150 0 247 52.5t97 137.5q0 63 -51.5 92t-163.5 29z" />
    <glyph glyph-name="Gbreve" unicode="&#x11e;" horiz-adv-x="1650" 
d="M791 1546q-131 0 -206 75t-75 208h135q0 -67 39 -105t107 -38q66 0 105.5 38.5t39.5 104.5h135q0 -134 -73.5 -208.5t-206.5 -74.5zM795 -29q-304 0 -498 209q-195 210 -195 531q0 323 197 532q194 209 498 209q250 0 409.5 -118t216.5 -341l-168 -53q-94 358 -458 358
q-225 0 -369 -163q-143 -165 -143 -424q0 -267 147 -426q148 -160 375 -160q204 0 354 135q149 134 158 371h-496v153h662v-784h-166v258q-77 -138 -215.5 -212.5t-308.5 -74.5z" />
    <glyph glyph-name="gbreve" unicode="&#x11f;" horiz-adv-x="1134" 
d="M549 1106q-131 0 -206 75t-75 208h135q0 -67 39 -105.5t107 -38.5q66 0 105.5 39t39.5 105h135q0 -134 -73.5 -208.5t-206.5 -74.5zM920 1006q-51 0 -91 -88q111 -89 111 -250q0 -162 -111 -250q-113 -90 -280 -90q-103 0 -187 34q-92 -27 -92 -100q0 -39 28.5 -64.5
t72.5 -25.5h364q371 0 371 -276q0 -152 -148 -252q-147 -99 -366 -99q-253 0 -389.5 79.5t-136.5 217.5q0 129 143 211q-98 64 -98 183q0 129 139 200q-90 87 -90 232q0 157 108 248.5t281 91.5q93 0 164 -27q88 168 225 168q82 0 136 -55t54 -156v-33l-137 -24
q-6 125 -71 125zM549 465q97 0 159 54.5t62 148.5q0 92 -62.5 147t-158.5 55q-99 0 -159 -53.5t-60 -148.5t60 -149t159 -54zM721 4h-309q-78 0 -127 -38.5t-49 -98.5q0 -174 356 -174q150 0 247 52.5t97 137.5q0 63 -51.5 92t-163.5 29z" />
    <glyph glyph-name="Gdotaccent" unicode="&#x120;" horiz-adv-x="1650" 
d="M870 1620q-32 -31 -79 -31t-78 31q-32 31 -32 76t32 76q31 31 78 31t79 -31q31 -31 31 -76t-31 -76zM795 -29q-304 0 -498 209q-195 210 -195 531q0 323 197 532q194 209 498 209q250 0 409.5 -118t216.5 -341l-168 -53q-94 358 -458 358q-225 0 -369 -163
q-143 -165 -143 -424q0 -267 147 -426q148 -160 375 -160q204 0 354 135q149 134 158 371h-496v153h662v-784h-166v258q-77 -138 -215.5 -212.5t-308.5 -74.5z" />
    <glyph glyph-name="gdotaccent" unicode="&#x121;" horiz-adv-x="1134" 
d="M629 1180q-32 -31 -79.5 -31t-78.5 31q-32 31 -32 75.5t32 75.5q31 31 78.5 31t79.5 -31q31 -31 31 -75.5t-31 -75.5zM920 1006q-51 0 -91 -88q111 -89 111 -250q0 -162 -111 -250q-113 -90 -280 -90q-103 0 -187 34q-92 -27 -92 -100q0 -39 28.5 -64.5t72.5 -25.5h364
q371 0 371 -276q0 -152 -148 -252q-147 -99 -366 -99q-253 0 -389.5 79.5t-136.5 217.5q0 129 143 211q-98 64 -98 183q0 129 139 200q-90 87 -90 232q0 157 108 248.5t281 91.5q93 0 164 -27q88 168 225 168q82 0 136 -55t54 -156v-33l-137 -24q-6 125 -71 125zM549 465
q97 0 159 54.5t62 148.5q0 92 -62.5 147t-158.5 55q-99 0 -159 -53.5t-60 -148.5t60 -149t159 -54zM721 4h-309q-78 0 -127 -38.5t-49 -98.5q0 -174 356 -174q150 0 247 52.5t97 137.5q0 63 -51.5 92t-163.5 29z" />
    <glyph glyph-name="uni0122" unicode="&#x122;" horiz-adv-x="1650" 
d="M795 -29q-304 0 -498 209q-195 210 -195 531q0 323 197 532q194 209 498 209q250 0 409.5 -118t216.5 -341l-168 -53q-94 358 -458 358q-225 0 -369 -163q-143 -165 -143 -424q0 -267 147 -426q148 -160 375 -160q204 0 354 135q149 134 158 371h-496v153h662v-784h-166
v258q-77 -138 -215.5 -212.5t-308.5 -74.5zM782 -471h-147l82 338h166z" />
    <glyph glyph-name="uni0123" unicode="&#x123;" horiz-adv-x="1134" 
d="M553 1448h147l-82 -338h-165zM920 1006q-51 0 -91 -88q111 -89 111 -250q0 -162 -111 -250q-113 -90 -280 -90q-103 0 -187 34q-92 -27 -92 -100q0 -39 28.5 -64.5t72.5 -25.5h364q371 0 371 -276q0 -152 -148 -252q-147 -99 -366 -99q-253 0 -389.5 79.5t-136.5 217.5
q0 129 143 211q-98 64 -98 183q0 129 139 200q-90 87 -90 232q0 157 108 248.5t281 91.5q93 0 164 -27q88 168 225 168q82 0 136 -55t54 -156v-33l-137 -24q-6 125 -71 125zM549 465q97 0 159 54.5t62 148.5q0 92 -62.5 147t-158.5 55q-99 0 -159 -53.5t-60 -148.5t60 -149
t159 -54zM721 4h-309q-78 0 -127 -38.5t-49 -98.5q0 -174 356 -174q150 0 247 52.5t97 137.5q0 63 -51.5 92t-163.5 29z" />
    <glyph glyph-name="Hcircumflex" unicode="&#x124;" horiz-adv-x="1519" 
d="M616 1550h-163l223 293h168l221 -293h-170l-139 166zM350 0h-174v1423h174v-616h819v616h174v-1423h-174v653h-819v-653z" />
    <glyph glyph-name="hcircumflex" unicode="&#x125;" horiz-adv-x="1155" 
d="M92 1511h-164l224 293h167l222 -293h-170l-140 166zM319 0h-169v1423h169v-563q109 148 318 148q179 0 278 -106.5t99 -293.5v-608h-170v590q0 270 -246 270q-124 0 -201.5 -71.5t-77.5 -196.5v-592z" />
    <glyph glyph-name="Hbar" unicode="&#x126;" horiz-adv-x="1519" 
d="M1343 1182h138v-144h-138v-1038h-174v633h-819v-633h-174v1038h-137v144h137v241h174v-241h819v241h174v-241zM350 786h819v252h-819v-252z" />
    <glyph glyph-name="hbar" unicode="&#x127;" horiz-adv-x="1155" 
d="M637 1008q179 0 278 -106.5t99 -293.5v-608h-170v590q0 270 -246 270q-124 0 -201.5 -71.5t-77.5 -196.5v-592h-169v1137h-150v127h150v159h169v-159h308v-127h-308v-277q109 148 318 148z" />
    <glyph glyph-name="Itilde" unicode="&#x128;" horiz-adv-x="526" 
d="M76 1575h-133q1 115 51.5 178.5t138.5 63.5q72 0 143 -50q66 -51 97 -51q61 0 67 101h133q-1 -114 -52 -177t-138 -63q-78 0 -141 51q-67 49 -97 49q-63 0 -69 -102zM350 0h-174v1423h174v-1423z" />
    <glyph glyph-name="itilde" unicode="&#x129;" horiz-adv-x="468" 
d="M45 1135h-133q1 115 51.5 178t138.5 63q74 0 144 -49q66 -51 96 -51q62 0 68 100h133q-1 -114 -52.5 -176.5t-138.5 -62.5q-78 0 -141 51q-67 49 -96 49q-64 0 -70 -102zM319 0h-169v983h169v-983z" />
    <glyph glyph-name="Imacron" unicode="&#x12a;" horiz-adv-x="526" 
d="M561 1626h-594v148h594v-148zM350 0h-174v1423h174v-1423z" />
    <glyph glyph-name="imacron" unicode="&#x12b;" horiz-adv-x="468" 
d="M530 1186h-593v147h593v-147zM319 0h-169v983h169v-983z" />
    <glyph glyph-name="Ibreve" unicode="&#x12c;" horiz-adv-x="526" 
d="M264 1546q-131 0 -205.5 75t-74.5 208h135q0 -67 38.5 -105t106.5 -38q66 0 106 38.5t40 104.5h135q0 -134 -74 -208.5t-207 -74.5zM350 0h-174v1423h174v-1423z" />
    <glyph glyph-name="ibreve" unicode="&#x12d;" horiz-adv-x="468" 
d="M233 1106q-131 0 -205.5 75t-74.5 208h135q0 -67 38.5 -105.5t106.5 -38.5q66 0 106 39t40 105h135q0 -134 -74 -208.5t-207 -74.5zM319 0h-169v983h169v-983z" />
    <glyph glyph-name="Iogonek" unicode="&#x12e;" horiz-adv-x="526" 
d="M358 -250l52 -125q-65 -47 -166 -47q-95 0 -154 44.5t-59 127.5q0 128 145 252v1421h174v-1423q-81 -75 -114 -120.5t-33 -86.5q0 -72 78 -72q40 0 77 29z" />
    <glyph glyph-name="iogonek" unicode="&#x12f;" horiz-adv-x="468" 
d="M317 1217q-34 -32 -82.5 -32t-82.5 32t-34 79.5t34 79.5t82.5 32t82.5 -32t34 -79.5t-34 -79.5zM328 -250l51 -125q-65 -47 -166 -47q-95 0 -154 44.5t-59 127.5q0 131 150 254v979h169v-983q-81 -75 -114 -120.5t-33 -86.5q0 -72 78 -72q38 0 78 29z" />
    <glyph glyph-name="Idot" unicode="&#x130;" horiz-adv-x="526" 
d="M344 1620q-32 -31 -79.5 -31t-78.5 31q-32 31 -32 76t32 76q31 31 78.5 31t79.5 -31q31 -31 31 -76t-31 -76zM350 0h-174v1423h174v-1423z" />
    <glyph glyph-name="dotlessi" unicode="&#x131;" horiz-adv-x="468" 
d="M319 0h-169v983h169v-983z" />
    <glyph glyph-name="IJ" unicode="&#x132;" horiz-adv-x="1427" 
d="M330 666h-174v757h174v-757zM717 -29q-274 0 -412 135q-137 134 -137 338q0 38 4 66h172q-2 -14 -2 -57q0 -144 102.5 -236t272.5 -92q189 0 285 108t96 312v878h174v-884q0 -271 -145.5 -419.5t-409.5 -148.5z" />
    <glyph glyph-name="ij" unicode="&#x133;" horiz-adv-x="937" 
d="M317 1217q-34 -32 -82.5 -32t-82.5 32t-34 79.5t34 79.5t82.5 32t82.5 -32t34 -79.5t-34 -79.5zM786 1217q-34 -32 -82.5 -32t-82.5 32t-34 79.5t34 79.5t82.5 32t82.5 -32t34 -79.5t-34 -79.5zM319 0h-169v983h169v-983zM530 -455q-147 0 -231 90l80 134q64 -76 139 -76
q100 0 100 133v1157h170v-1151q0 -147 -68.5 -217t-189.5 -70z" />
    <glyph glyph-name="Jcircumflex" unicode="&#x134;" horiz-adv-x="1202" 
d="M817 1550h-164l224 293h167l222 -293h-170l-140 166zM918 104q-130 -133 -355 -133q-226 0 -348 125q-123 123 -123 318q0 68 19 149l172 -31q-11 -71 -11 -110q0 -138 76.5 -217.5t214.5 -79.5q309 0 309 379v919h175v-946q0 -241 -129 -373z" />
    <glyph glyph-name="jcircumflex" unicode="&#x135;" horiz-adv-x="468" 
d="M90 1110h-164l224 293h167l222 -293h-170l-140 166zM61 -455q-147 0 -231 90l80 134q64 -76 139 -76q101 0 101 133v1157h169v-1151q0 -147 -68.5 -217t-189.5 -70z" />
    <glyph glyph-name="uni0136" unicode="&#x136;" horiz-adv-x="1370" 
d="M1303 156q21 0 36 6v-162q-36 -4 -43 -4q-172 0 -282 98q-103 85 -305 383l-142 209l-217 -217v-469h-174v1423h174v-735l719 735h223l-600 -612l176 -256q155 -229 248 -315q87 -84 187 -84zM715 -471h-148l82 338h166z" />
    <glyph glyph-name="uni0137" unicode="&#x137;" horiz-adv-x="1071" 
d="M1014 143q11 0 39 4v-149q-31 -8 -82 -8q-126 0 -207 69q-84 69 -193 230l-118 178l-134 -127v-340h-169v1423h169v-888l482 448h223l-440 -401l121 -185q100 -153 157 -204q53 -50 152 -50zM492 -471h-148l82 338h166z" />
    <glyph glyph-name="kgreenlandic" unicode="&#x138;" horiz-adv-x="1071" 
d="M1014 143q11 0 39 4v-149q-31 -8 -82 -8q-118 0 -205 68t-195 231l-122 184l-130 -117v-356h-169v983h169v-440l478 440h223l-438 -397l123 -189q102 -154 155 -202q55 -52 154 -52z" />
    <glyph glyph-name="Lacute" unicode="&#x139;" horiz-adv-x="1148" 
d="M319 1550h-151l199 293h204zM1128 0h-952v1423h174v-1269h778v-154z" />
    <glyph glyph-name="lacute" unicode="&#x13a;" horiz-adv-x="468" 
d="M291 1511h-152l199 293h205zM319 0h-169v1423h169v-1423z" />
    <glyph glyph-name="uni013B" unicode="&#x13b;" horiz-adv-x="1148" 
d="M1128 0h-952v1423h174v-1269h778v-154zM633 -471h-148l82 338h166z" />
    <glyph glyph-name="uni013C" unicode="&#x13c;" horiz-adv-x="468" 
d="M319 0h-169v1423h169v-1423zM219 -471h-147l82 338h165z" />
    <glyph glyph-name="Lcaron" unicode="&#x13d;" horiz-adv-x="1148" 
d="M1128 0h-952v1423h174v-1269h778v-154zM631 1067h-135l49 356h172z" />
    <glyph glyph-name="lcaron" unicode="&#x13e;" horiz-adv-x="612" 
d="M319 0h-169v1423h169v-1423zM551 1067h-135l49 356h172z" />
    <glyph glyph-name="Ldot" unicode="&#x13f;" horiz-adv-x="1148" 
d="M1128 0h-952v1423h174v-1269h778v-154zM836 606q-50 0 -85.5 36t-35.5 87t35.5 86t85.5 35q51 0 86.5 -35t35.5 -86t-35.5 -87t-86.5 -36z" />
    <glyph glyph-name="ldot" unicode="&#x140;" horiz-adv-x="593" 
d="M319 0h-169v1423h169v-1423zM530 604q-50 0 -85 36t-35 87t35 86t85 35q51 0 87 -35t36 -86t-36 -87t-87 -36z" />
    <glyph glyph-name="Lslash" unicode="&#x141;" horiz-adv-x="1148" 
d="M350 735v-581h778v-154h-952v666l-129 -50v150l129 49v608h174v-538l377 145v-149z" />
    <glyph glyph-name="lslash" unicode="&#x142;" horiz-adv-x="468" 
d="M319 829l177 72v-137l-177 -72v-692h-169v625l-177 -72v137l177 72v661h169v-594z" />
    <glyph glyph-name="Nacute" unicode="&#x143;" horiz-adv-x="1484" 
d="M801 1550h-152l199 293h205zM342 0h-166v1423h189l778 -1153v1153h166v-1423h-189l-778 1153v-1153z" />
    <glyph glyph-name="nacute" unicode="&#x144;" horiz-adv-x="1155" 
d="M643 1110h-151l198 293h205zM319 0h-169v983h169v-123q109 148 318 148q179 0 278 -106.5t99 -293.5v-608h-170v590q0 270 -246 270q-124 0 -201.5 -71.5t-77.5 -196.5v-592z" />
    <glyph glyph-name="uni0145" unicode="&#x145;" horiz-adv-x="1484" 
d="M342 0h-166v1423h189l778 -1153v1153h166v-1423h-189l-778 1153v-1153zM709 -471h-148l82 338h166z" />
    <glyph glyph-name="uni0146" unicode="&#x146;" horiz-adv-x="1155" 
d="M319 0h-169v983h169v-123q109 148 318 148q179 0 278 -106.5t99 -293.5v-608h-170v590q0 270 -246 270q-124 0 -201.5 -71.5t-77.5 -196.5v-592zM555 -471h-147l81 338h166z" />
    <glyph glyph-name="Ncaron" unicode="&#x147;" horiz-adv-x="1484" 
d="M889 1843h164l-224 -293h-167l-222 293h170l140 -166zM342 0h-166v1423h189l778 -1153v1153h166v-1423h-189l-778 1153v-1153z" />
    <glyph glyph-name="ncaron" unicode="&#x148;" horiz-adv-x="1155" 
d="M731 1403h164l-223 -293h-168l-221 293h170l139 -166zM319 0h-169v983h169v-123q109 148 318 148q179 0 278 -106.5t99 -293.5v-608h-170v590q0 270 -246 270q-124 0 -201.5 -71.5t-77.5 -196.5v-592z" />
    <glyph glyph-name="napostrophe" unicode="&#x149;" horiz-adv-x="1607" 
d="M225 1444q56 0 93.5 -44.5t37.5 -115.5q0 -181 -151 -326l-88 68q93 93 96 188q-45 5 -78 37t-33 74q0 49 36 84t87 35zM1090 1008q179 0 277.5 -106.5t98.5 -293.5v-608h-170v590q0 270 -245 270q-124 0 -201.5 -71.5t-77.5 -196.5v-592h-170v983h170v-123
q109 148 318 148z" />
    <glyph glyph-name="Eng" unicode="&#x14a;" horiz-adv-x="1501" 
d="M1047 -455q-158 0 -252 101l79 141q77 -86 160 -86q121 0 121 145v160l-805 1147v-1153h-174v1423h197l778 -1110v1110h174v-1581q0 -152 -74.5 -224.5t-203.5 -72.5z" />
    <glyph glyph-name="eng" unicode="&#x14b;" horiz-adv-x="1155" 
d="M750 -459q-154 0 -238 90l80 133q63 -75 145 -75q107 0 107 133v768q0 270 -246 270q-124 0 -201.5 -71.5t-77.5 -196.5v-592h-169v983h169v-123q109 148 318 148q179 0 278 -106.5t99 -293.5v-780q0 -147 -70 -217t-194 -70z" />
    <glyph glyph-name="Omacron" unicode="&#x14c;" horiz-adv-x="1626" 
d="M1110 1626h-594v148h594v-148zM813 -29q-310 0 -510 209q-201 210 -201 531q0 319 201 532q200 209 510 209q307 0 510 -209q201 -213 201 -532q0 -321 -201 -531q-203 -209 -510 -209zM813 125q232 0 379 166q147 167 147 420t-147 422q-146 165 -379 165
q-231 0 -377 -165q-149 -168 -149 -422q0 -255 149 -420q147 -166 377 -166z" />
    <glyph glyph-name="omacron" unicode="&#x14d;" horiz-adv-x="1159" 
d="M877 1186h-594v147h594v-147zM938 123q-145 -148 -358 -148q-214 0 -359 148q-145 145 -145 369q0 225 145 370q146 146 359 146q212 0 358 -146q145 -145 145 -370q0 -224 -145 -369zM344 223q87 -100 236 -100q148 0 235 100q90 104 90 269q0 164 -90 268
q-87 100 -235 100q-149 0 -236 -100q-90 -104 -90 -268q0 -165 90 -269z" />
    <glyph glyph-name="Obreve" unicode="&#x14e;" horiz-adv-x="1626" 
d="M813 1546q-131 0 -206 75t-75 208h136q0 -67 38.5 -105t106.5 -38q66 0 105.5 38.5t39.5 104.5h136q0 -134 -74 -208.5t-207 -74.5zM813 -29q-310 0 -510 209q-201 210 -201 531q0 319 201 532q200 209 510 209q307 0 510 -209q201 -213 201 -532q0 -321 -201 -531
q-203 -209 -510 -209zM813 125q232 0 379 166q147 167 147 420t-147 422q-146 165 -379 165q-231 0 -377 -165q-149 -168 -149 -422q0 -255 149 -420q147 -166 377 -166z" />
    <glyph glyph-name="obreve" unicode="&#x14f;" horiz-adv-x="1159" 
d="M580 1106q-131 0 -206 75t-75 208h135q0 -67 39 -105.5t107 -38.5q66 0 105.5 39t39.5 105h135q0 -134 -73.5 -208.5t-206.5 -74.5zM938 123q-145 -148 -358 -148q-214 0 -359 148q-145 145 -145 369q0 225 145 370q146 146 359 146q212 0 358 -146q145 -145 145 -370
q0 -224 -145 -369zM344 223q87 -100 236 -100q148 0 235 100q90 104 90 269q0 164 -90 268q-87 100 -235 100q-149 0 -236 -100q-90 -104 -90 -268q0 -165 90 -269z" />
    <glyph glyph-name="Ohungarumlaut" unicode="&#x150;" horiz-adv-x="1626" 
d="M715 1550h-142l175 293h192zM1042 1550h-141l174 293h193zM813 -29q-310 0 -510 209q-201 210 -201 531q0 319 201 532q200 209 510 209q307 0 510 -209q201 -213 201 -532q0 -321 -201 -531q-203 -209 -510 -209zM813 125q232 0 379 166q147 167 147 420t-147 422
q-146 165 -379 165q-231 0 -377 -165q-149 -168 -149 -422q0 -255 149 -420q147 -166 377 -166z" />
    <glyph glyph-name="ohungarumlaut" unicode="&#x151;" horiz-adv-x="1159" 
d="M481 1110h-141l174 293h193zM809 1110h-141l174 293h192zM938 123q-145 -148 -358 -148q-214 0 -359 148q-145 145 -145 369q0 225 145 370q146 146 359 146q212 0 358 -146q145 -145 145 -370q0 -224 -145 -369zM344 223q87 -100 236 -100q148 0 235 100q90 104 90 269
q0 164 -90 268q-87 100 -235 100q-149 0 -236 -100q-90 -104 -90 -268q0 -165 90 -269z" />
    <glyph glyph-name="OE" unicode="&#x152;" horiz-adv-x="2226" 
d="M1337 645v-491h797v-154h-971v68q-168 -97 -356 -97q-306 0 -506 209q-199 208 -199 531q0 324 199 532q200 209 506 209q191 0 356 -98v69h969v-153h-795v-471h641v-154h-641zM807 125q210 0 356 131v907q-144 135 -356 135q-230 0 -373 -165q-147 -169 -147 -422
t147 -420q144 -166 373 -166z" />
    <glyph glyph-name="oe" unicode="&#x153;" horiz-adv-x="1933" 
d="M1712 346l131 -88q-145 -283 -448 -283q-133 0 -242 59.5t-172 164.5q-64 -105 -168.5 -164.5t-232.5 -59.5q-218 0 -361 146q-143 143 -143 368q0 230 143 373q143 146 361 146q130 0 237 -58.5t170 -161.5q134 220 391 220q210 0 332.5 -136t122.5 -364q0 -47 -2 -55
h-760q8 -154 93 -242t231 -88q210 0 317 223zM1376 862q-123 0 -203.5 -72.5t-97.5 -199.5h582q-21 272 -281 272zM342 221q85 -98 238 -98q151 0 239 98q86 100 86 268t-86 271q-87 100 -239 100q-153 0 -238 -98q-88 -101 -88 -273q0 -170 88 -268z" />
    <glyph glyph-name="Racute" unicode="&#x154;" horiz-adv-x="1366" 
d="M739 1843h205l-252 -293h-151zM1294 156q24 0 39 6v-162q-36 -4 -45 -4q-179 0 -297 100q-122 104 -264 373l-84 154h-293v-623h-174v1423h586q222 0 345.5 -106t123.5 -295q0 -172 -105 -279.5t-288 -117.5l43 -80q123 -222 215 -303q95 -86 198 -86zM762 1270h-412
v-494h412q289 0 289 246q0 248 -289 248z" />
    <glyph glyph-name="racute" unicode="&#x155;" horiz-adv-x="897" 
d="M553 1110h-152l199 293h205zM319 0h-169v983h169v-166q83 182 279 182q114 0 190 -76.5t76 -199.5q0 -65 -22 -139l-160 16q8 52 8 80q0 168 -141 168q-98 0 -164 -103t-66 -262v-483z" />
    <glyph glyph-name="uni0156" unicode="&#x156;" horiz-adv-x="1366" 
d="M1294 156q24 0 39 6v-162q-36 -4 -45 -4q-179 0 -297 100q-122 104 -264 373l-84 154h-293v-623h-174v1423h586q222 0 345.5 -106t123.5 -295q0 -172 -105 -279.5t-288 -117.5l43 -80q123 -222 215 -303q95 -86 198 -86zM762 1270h-412v-494h412q289 0 289 246
q0 248 -289 248zM727 -471h-147l82 338h165z" />
    <glyph glyph-name="uni0157" unicode="&#x157;" horiz-adv-x="897" 
d="M319 0h-169v983h169v-166q83 182 279 182q114 0 190 -76.5t76 -199.5q0 -65 -22 -139l-160 16q8 52 8 80q0 168 -141 168q-98 0 -164 -103t-66 -262v-483zM217 -471h-147l82 338h165z" />
    <glyph glyph-name="Rcaron" unicode="&#x158;" horiz-adv-x="1366" 
d="M944 1843l-223 -293h-168l-221 293h170l139 -166l139 166h164zM1294 156q24 0 39 6v-162q-36 -4 -45 -4q-179 0 -297 100q-122 104 -264 373l-84 154h-293v-623h-174v1423h586q222 0 345.5 -106t123.5 -295q0 -172 -105 -279.5t-288 -117.5l43 -80q123 -222 215 -303
q95 -86 198 -86zM762 1270h-412v-494h412q289 0 289 246q0 248 -289 248z" />
    <glyph glyph-name="rcaron" unicode="&#x159;" horiz-adv-x="897" 
d="M641 1403h164l-223 -293h-168l-221 293h169l140 -166zM319 0h-169v983h169v-166q83 182 279 182q114 0 190 -76.5t76 -199.5q0 -65 -22 -139l-160 16q8 52 8 80q0 168 -141 168q-98 0 -164 -103t-66 -262v-483z" />
    <glyph glyph-name="Sacute" unicode="&#x15a;" horiz-adv-x="1310" 
d="M700 1550h-151l199 293h204zM664 -29q-261 0 -410.5 117.5t-149.5 312.5q0 87 31 185l160 -51q-16 -53 -16 -125q0 -133 106.5 -209t286.5 -76q164 0 259 67.5t95 184.5q0 178 -268 237l-191 41q-221 48 -318 145.5t-97 254.5q0 181 137 288q139 109 340 109
q255 0 396.5 -124t158.5 -357l-174 -25q-46 352 -383 352q-138 0 -219.5 -63t-81.5 -174q0 -180 292 -244l187 -39q206 -43 300.5 -139.5t94.5 -249.5q0 -196 -153 -307t-383 -111z" />
    <glyph glyph-name="sacute" unicode="&#x15b;" 
d="M569 1110h-151l198 293h205zM522 -25q-185 0 -315 91q-126 88 -129 258l158 28q21 -235 290 -235q99 0 157 40.5t58 116.5q0 61 -37.5 91t-134.5 47l-114 18q-82 16 -138.5 36.5t-101.5 54t-66.5 84t-21.5 120.5q0 129 104.5 206t282.5 77q169 0 271 -76.5t126 -208.5
l-153 -41q-18 84 -81 134t-169 50q-103 0 -159 -36.5t-56 -102.5q0 -65 41 -96.5t147 -48.5l117 -21q161 -28 240.5 -92t79.5 -193q0 -139 -110 -220t-286 -81z" />
    <glyph glyph-name="Scircumflex" unicode="&#x15c;" horiz-adv-x="1310" 
d="M502 1550h-164l223 293h168l221 -293h-170l-139 166zM664 -29q-261 0 -410.5 117.5t-149.5 312.5q0 87 31 185l160 -51q-16 -53 -16 -125q0 -133 106.5 -209t286.5 -76q164 0 259 67.5t95 184.5q0 178 -268 237l-191 41q-221 48 -318 145.5t-97 254.5q0 181 137 288
q139 109 340 109q255 0 396.5 -124t158.5 -357l-174 -25q-46 352 -383 352q-138 0 -219.5 -63t-81.5 -174q0 -180 292 -244l187 -39q206 -43 300.5 -139.5t94.5 -249.5q0 -196 -153 -307t-383 -111z" />
    <glyph glyph-name="scircumflex" unicode="&#x15d;" 
d="M371 1110h-164l223 293h168l221 -293h-170l-139 166zM522 -25q-185 0 -315 91q-126 88 -129 258l158 28q21 -235 290 -235q99 0 157 40.5t58 116.5q0 61 -37.5 91t-134.5 47l-114 18q-82 16 -138.5 36.5t-101.5 54t-66.5 84t-21.5 120.5q0 129 104.5 206t282.5 77
q169 0 271 -76.5t126 -208.5l-153 -41q-18 84 -81 134t-169 50q-103 0 -159 -36.5t-56 -102.5q0 -65 41 -96.5t147 -48.5l117 -21q161 -28 240.5 -92t79.5 -193q0 -139 -110 -220t-286 -81z" />
    <glyph glyph-name="Scedilla" unicode="&#x15e;" horiz-adv-x="1310" 
d="M1200 389q0 -175 -123.5 -284t-326.5 -130l-91 -301h-157l80 301q-225 19 -351.5 133t-126.5 293q0 87 31 185l160 -51q-16 -53 -16 -125q0 -133 106.5 -209t286.5 -76q164 0 259 67.5t95 184.5q0 178 -268 237l-191 41q-221 48 -318 145.5t-97 254.5q0 181 137 288
q139 109 340 109q255 0 396.5 -124t158.5 -357l-174 -25q-46 352 -383 352q-138 0 -219.5 -63t-81.5 -174q0 -180 292 -244l187 -39q206 -43 300.5 -139.5t94.5 -249.5z" />
    <glyph glyph-name="scedilla" unicode="&#x15f;" 
d="M918 276q0 -121 -83.5 -198t-226.5 -96l-90 -308h-158l82 306q-165 19 -264 107.5t-100 236.5l158 28q21 -235 290 -235q99 0 157 40.5t58 116.5q0 61 -37.5 91t-134.5 47l-114 18q-82 16 -138.5 36.5t-101.5 54t-66.5 84t-21.5 120.5q0 129 104.5 206t282.5 77
q169 0 271 -76.5t126 -208.5l-153 -41q-18 84 -81 134t-169 50q-103 0 -159 -36.5t-56 -102.5q0 -65 41 -96.5t147 -48.5l117 -21q161 -28 240.5 -92t79.5 -193z" />
    <glyph glyph-name="Scaron" unicode="&#x160;" horiz-adv-x="1310" 
d="M788 1843h164l-223 -293h-168l-221 293h170l139 -166zM664 -29q-261 0 -410.5 117.5t-149.5 312.5q0 87 31 185l160 -51q-16 -53 -16 -125q0 -133 106.5 -209t286.5 -76q164 0 259 67.5t95 184.5q0 178 -268 237l-191 41q-221 48 -318 145.5t-97 254.5q0 181 137 288
q139 109 340 109q255 0 396.5 -124t158.5 -357l-174 -25q-46 352 -383 352q-138 0 -219.5 -63t-81.5 -174q0 -180 292 -244l187 -39q206 -43 300.5 -139.5t94.5 -249.5q0 -196 -153 -307t-383 -111z" />
    <glyph glyph-name="scaron" unicode="&#x161;" 
d="M657 1403h164l-223 -293h-168l-221 293h170l139 -166zM522 -25q-185 0 -315 91q-126 88 -129 258l158 28q21 -235 290 -235q99 0 157 40.5t58 116.5q0 61 -37.5 91t-134.5 47l-114 18q-82 16 -138.5 36.5t-101.5 54t-66.5 84t-21.5 120.5q0 129 104.5 206t282.5 77
q169 0 271 -76.5t126 -208.5l-153 -41q-18 84 -81 134t-169 50q-103 0 -159 -36.5t-56 -102.5q0 -65 41 -96.5t147 -48.5l117 -21q161 -28 240.5 -92t79.5 -193q0 -139 -110 -220t-286 -81z" />
    <glyph glyph-name="uni0162" unicode="&#x162;" horiz-adv-x="1239" 
d="M709 0h-174v1270h-492v153h1155v-153h-489v-1270zM604 -471h-147l82 338h166z" />
    <glyph glyph-name="uni0163" unicode="&#x163;" horiz-adv-x="806" 
d="M459 -25q-279 0 -279 318v543h-162v147h162l35 293h135v-293h398v-147h-398v-547q0 -160 115 -160q108 0 190 186l140 -65q-52 -126 -141.5 -200.5t-194.5 -74.5zM428 -471h-147l81 338h166z" />
    <glyph glyph-name="Tcaron" unicode="&#x164;" horiz-adv-x="1239" 
d="M764 1843h164l-223 -293h-168l-222 293h170l140 -166zM709 0h-174v1270h-492v153h1155v-153h-489v-1270z" />
    <glyph glyph-name="tcaron" unicode="&#x165;" horiz-adv-x="806" 
d="M639 1108h-135l49 356h172zM459 -25q-279 0 -279 318v543h-162v147h162l35 293h135v-293h398v-147h-398v-547q0 -160 115 -160q108 0 190 186l140 -65q-52 -126 -141.5 -200.5t-194.5 -74.5z" />
    <glyph glyph-name="Tbar" unicode="&#x166;" horiz-adv-x="1239" 
d="M1198 1423v-153h-489v-469h264v-144h-264v-657h-174v657h-269v144h269v469h-492v153h1155z" />
    <glyph glyph-name="tbar" unicode="&#x167;" horiz-adv-x="806" 
d="M655 315l140 -65q-52 -126 -141.5 -200.5t-194.5 -74.5q-279 0 -279 318v211h-162v127h162v205h-162v147h162l35 293h135v-293h398v-147h-398v-205h336v-127h-336v-215q0 -160 115 -160q108 0 190 186z" />
    <glyph glyph-name="Utilde" unicode="&#x168;" horiz-adv-x="1447" 
d="M537 1575h-134q1 115 52 178.5t139 63.5q72 0 143 -50q66 -51 97 -51q61 0 67 101h133q-1 -114 -52 -177t-138 -63q-79 0 -142 51q-67 49 -96 49q-63 0 -69 -102zM723 -29q-272 0 -419.5 147.5t-147.5 422.5v882h174v-884q0 -202 100.5 -308t292.5 -106t293.5 106.5
t101.5 307.5v884h174v-882q0 -276 -146.5 -423t-422.5 -147z" />
    <glyph glyph-name="utilde" unicode="&#x169;" horiz-adv-x="1138" 
d="M379 1135h-133q1 115 51.5 178t138.5 63q74 0 144 -49q66 -51 96 -51q61 0 67 100h134q-1 -114 -52.5 -176.5t-138.5 -62.5q-78 0 -141 51q-67 49 -96 49q-64 0 -70 -102zM510 -25q-176 0 -272.5 106t-96.5 296v606h170v-596q0 -129 60.5 -196.5t177.5 -67.5
q119 0 194.5 70.5t75.5 191.5v598h170v-983h-170v125q-108 -150 -309 -150z" />
    <glyph glyph-name="Umacron" unicode="&#x16a;" horiz-adv-x="1447" 
d="M1022 1626h-594v148h594v-148zM723 -29q-272 0 -419.5 147.5t-147.5 422.5v882h174v-884q0 -202 100.5 -308t292.5 -106t293.5 106.5t101.5 307.5v884h174v-882q0 -276 -146.5 -423t-422.5 -147z" />
    <glyph glyph-name="umacron" unicode="&#x16b;" horiz-adv-x="1138" 
d="M864 1186h-594v147h594v-147zM510 -25q-176 0 -272.5 106t-96.5 296v606h170v-596q0 -129 60.5 -196.5t177.5 -67.5q119 0 194.5 70.5t75.5 191.5v598h170v-983h-170v125q-108 -150 -309 -150z" />
    <glyph glyph-name="Ubreve" unicode="&#x16c;" horiz-adv-x="1447" 
d="M725 1546q-131 0 -206 75t-75 208h136q0 -67 38.5 -105t106.5 -38q66 0 105.5 38.5t39.5 104.5h136q0 -134 -74 -208.5t-207 -74.5zM723 -29q-272 0 -419.5 147.5t-147.5 422.5v882h174v-884q0 -202 100.5 -308t292.5 -106t293.5 106.5t101.5 307.5v884h174v-882
q0 -276 -146.5 -423t-422.5 -147z" />
    <glyph glyph-name="ubreve" unicode="&#x16d;" horiz-adv-x="1138" 
d="M567 1106q-131 0 -205.5 75t-74.5 208h135q0 -67 38.5 -105.5t106.5 -38.5q66 0 106 39t40 105h135q0 -134 -74 -208.5t-207 -74.5zM510 -25q-176 0 -272.5 106t-96.5 296v606h170v-596q0 -129 60.5 -196.5t177.5 -67.5q119 0 194.5 70.5t75.5 191.5v598h170v-983h-170
v125q-108 -150 -309 -150z" />
    <glyph glyph-name="Uring" unicode="&#x16e;" horiz-adv-x="1447" 
d="M727 1391q-90 0 -148.5 55.5t-58.5 140.5t58 140t149 55q88 0 147.5 -55.5t59.5 -139.5t-59.5 -140t-147.5 -56zM664 1526q25 -26 63.5 -26t63.5 26q25 25 25 61.5t-25 61.5t-63.5 25t-63.5 -25q-26 -25 -26 -61.5t26 -61.5zM723 -29q-272 0 -419.5 147.5t-147.5 422.5
v882h174v-884q0 -202 100.5 -308t292.5 -106t293.5 106.5t101.5 307.5v884h174v-882q0 -276 -146.5 -423t-422.5 -147z" />
    <glyph glyph-name="uring" unicode="&#x16f;" horiz-adv-x="1138" 
d="M569 1012q-90 0 -148.5 55.5t-58.5 140.5t58 140t149 55q88 0 147.5 -55.5t59.5 -139.5t-59.5 -140t-147.5 -56zM506 1147q25 -26 63.5 -26t63.5 26q25 25 25 61.5t-25 61.5t-63.5 25t-63.5 -25q-26 -25 -26 -61.5t26 -61.5zM510 -25q-176 0 -272.5 106t-96.5 296v606
h170v-596q0 -129 60.5 -196.5t177.5 -67.5q119 0 194.5 70.5t75.5 191.5v598h170v-983h-170v125q-108 -150 -309 -150z" />
    <glyph glyph-name="Uhungarumlaut" unicode="&#x170;" horiz-adv-x="1447" 
d="M627 1550h-142l174 293h193zM954 1550h-141l174 293h193zM723 -29q-272 0 -419.5 147.5t-147.5 422.5v882h174v-884q0 -202 100.5 -308t292.5 -106t293.5 106.5t101.5 307.5v884h174v-882q0 -276 -146.5 -423t-422.5 -147z" />
    <glyph glyph-name="uhungarumlaut" unicode="&#x171;" horiz-adv-x="1138" 
d="M469 1110h-141l174 293h192zM797 1110h-142l174 293h193zM510 -25q-176 0 -272.5 106t-96.5 296v606h170v-596q0 -129 60.5 -196.5t177.5 -67.5q119 0 194.5 70.5t75.5 191.5v598h170v-983h-170v125q-108 -150 -309 -150z" />
    <glyph glyph-name="Uogonek" unicode="&#x172;" horiz-adv-x="1447" 
d="M1118 539v884h174v-882q0 -349 -227 -486q-158 -111 -193 -157q-43 -52 -43 -105q0 -72 78 -72q41 0 78 29l51 -125q-65 -47 -166 -47q-95 0 -154 44.5t-59 127.5q0 116 134 223q-14 -2 -68 -2q-272 0 -419.5 147.5t-147.5 422.5v882h174v-884q0 -202 100.5 -308
t292.5 -106t293.5 106.5t101.5 307.5z" />
    <glyph glyph-name="uogonek" unicode="&#x173;" horiz-adv-x="1138" 
d="M963 -250l51 -125q-65 -47 -166 -47q-95 0 -154 44.5t-59 127.5q0 140 184 260v115q-108 -150 -309 -150q-176 0 -272.5 106t-96.5 296v606h170v-596q0 -129 60.5 -196.5t177.5 -67.5q119 0 194.5 70.5t75.5 191.5v598h170v-983q-98 -70 -140 -117.5t-42 -89.5
q0 -72 78 -72q38 0 78 29z" />
    <glyph glyph-name="Wcircumflex" unicode="&#x174;" horiz-adv-x="1925" 
d="M815 1550h-164l223 293h168l222 -293h-170l-140 166zM629 0h-213l-391 1423h178l329 -1216l340 1216h181l354 -1216l313 1216h181l-392 -1423h-215l-331 1161z" />
    <glyph glyph-name="wcircumflex" unicode="&#x175;" horiz-adv-x="1478" 
d="M608 1110h-164l224 293h168l221 -293h-170l-139 166zM530 0h-198l-303 983h178l229 -809l219 809h170l219 -809l228 809h178l-301 -983h-199l-211 743z" />
    <glyph glyph-name="Ycircumflex" unicode="&#x176;" horiz-adv-x="1282" 
d="M494 1550h-164l223 293h168l221 -293h-170l-139 166zM723 0h-174v600l-545 823h209l426 -663l432 663h207l-555 -823v-600z" />
    <glyph glyph-name="ycircumflex" unicode="&#x177;" 
d="M358 1110h-163l223 293h168l221 -293h-170l-139 166zM238 -455q-158 0 -226 105l105 119q52 -76 129 -76q56 0 92.5 45.5t79.5 159.5l39 102h-76l-373 983h182l316 -844l307 844h182l-442 -1167q-56 -146 -131 -208.5t-184 -62.5z" />
    <glyph glyph-name="Ydieresis" unicode="&#x178;" horiz-adv-x="1282" 
d="M520 1618q-32 -31 -79.5 -31t-78.5 31q-32 31 -32 78t32 78q31 31 78.5 31t79.5 -31q31 -31 31 -78t-31 -78zM915 1618q-32 -31 -79 -31t-78 31q-32 31 -32 78t32 78q31 31 78 31t79 -31q31 -31 31 -78t-31 -78zM723 0h-174v600l-545 823h209l426 -663l432 663h207
l-555 -823v-600z" />
    <glyph glyph-name="Zacute" unicode="&#x179;" horiz-adv-x="1218" 
d="M657 1550h-151l199 293h204zM1157 0h-1096v139l859 1131h-840v153h1057v-139l-861 -1130h881v-154z" />
    <glyph glyph-name="zacute" unicode="&#x17a;" horiz-adv-x="919" 
d="M516 1110h-151l198 293h205zM874 0h-825v137l588 699h-565v147h782v-137l-592 -699h612v-147z" />
    <glyph glyph-name="Zdotaccent" unicode="&#x17b;" horiz-adv-x="1218" 
d="M682 1620q-32 -31 -79.5 -31t-78.5 31q-32 31 -32 76t32 76q31 31 78.5 31t79.5 -31q31 -31 31 -76t-31 -76zM1157 0h-1096v139l859 1131h-840v153h1057v-139l-861 -1130h881v-154z" />
    <glyph glyph-name="zdotaccent" unicode="&#x17c;" horiz-adv-x="919" 
d="M541 1180q-32 -31 -79.5 -31t-78.5 31q-32 31 -32 75.5t32 75.5q31 31 78.5 31t79.5 -31q31 -31 31 -75.5t-31 -75.5zM874 0h-825v137l588 699h-565v147h782v-137l-592 -699h612v-147z" />
    <glyph glyph-name="Zcaron" unicode="&#x17d;" horiz-adv-x="1218" 
d="M745 1843h164l-223 -293h-168l-221 293h170l139 -166zM1157 0h-1096v139l859 1131h-840v153h1057v-139l-861 -1130h881v-154z" />
    <glyph glyph-name="zcaron" unicode="&#x17e;" horiz-adv-x="919" 
d="M604 1403h164l-223 -293h-168l-221 293h170l139 -166zM874 0h-825v137l588 699h-565v147h782v-137l-592 -699h612v-147z" />
    <glyph glyph-name="florin" unicode="&#x192;" horiz-adv-x="1017" 
d="M807 1300q-132 0 -156 -167l-41 -297h308l-25 -144h-303l-55 -397q-47 -320 -334 -320q-105 0 -160 37l18 170q64 -55 150 -55q132 0 156 168l55 397h-264l24 144h260l41 297q46 319 334 319q105 0 160 -37l-19 -170q-64 55 -149 55z" />
    <glyph glyph-name="uni0218" unicode="&#x218;" horiz-adv-x="1310" 
d="M664 -29q-261 0 -410.5 117.5t-149.5 312.5q0 87 31 185l160 -51q-16 -53 -16 -125q0 -133 106.5 -209t286.5 -76q164 0 259 67.5t95 184.5q0 178 -268 237l-191 41q-221 48 -318 145.5t-97 254.5q0 181 137 288q139 109 340 109q255 0 396.5 -124t158.5 -357l-174 -25
q-46 352 -383 352q-138 0 -219.5 -63t-81.5 -174q0 -180 292 -244l187 -39q206 -43 300.5 -139.5t94.5 -249.5q0 -196 -153 -307t-383 -111zM655 -471h-147l82 338h166z" />
    <glyph glyph-name="uni0219" unicode="&#x219;" 
d="M522 -25q-185 0 -315 91q-126 88 -129 258l158 28q21 -235 290 -235q99 0 157 40.5t58 116.5q0 61 -37.5 91t-134.5 47l-114 18q-82 16 -138.5 36.5t-101.5 54t-66.5 84t-21.5 120.5q0 129 104.5 206t282.5 77q169 0 271 -76.5t126 -208.5l-153 -41q-18 84 -81 134
t-169 50q-103 0 -159 -36.5t-56 -102.5q0 -65 41 -96.5t147 -48.5l117 -21q161 -28 240.5 -92t79.5 -193q0 -139 -110 -220t-286 -81zM514 -471h-147l82 338h165z" />
    <glyph glyph-name="uni021A" unicode="&#x21a;" horiz-adv-x="1239" 
d="M709 0h-174v1270h-492v153h1155v-153h-489v-1270zM604 -471h-147l82 338h166z" />
    <glyph glyph-name="uni021B" unicode="&#x21b;" horiz-adv-x="806" 
d="M459 -25q-279 0 -279 318v543h-162v147h162l35 293h135v-293h398v-147h-398v-547q0 -160 115 -160q108 0 190 186l140 -65q-52 -126 -141.5 -200.5t-194.5 -74.5zM428 -471h-147l81 338h166z" />
    <glyph glyph-name="uni0237" unicode="&#x237;" horiz-adv-x="468" 
d="M61 -455q-147 0 -231 90l80 134q64 -76 139 -76q101 0 101 133v1157h169v-1151q0 -147 -68.5 -217t-189.5 -70z" />
    <glyph glyph-name="circumflex" unicode="&#x2c6;" horiz-adv-x="819" 
d="M266 1110h-164l224 293h168l221 -293h-170l-139 166z" />
    <glyph glyph-name="caron" unicode="&#x2c7;" horiz-adv-x="819" 
d="M553 1403h164l-223 -293h-168l-222 293h170l140 -166z" />
    <glyph glyph-name="breve" unicode="&#x2d8;" horiz-adv-x="819" 
d="M410 1106q-131 0 -206 75t-75 208h135q0 -67 39 -105.5t107 -38.5q66 0 105.5 39t39.5 105h135q0 -134 -73.5 -208.5t-206.5 -74.5z" />
    <glyph glyph-name="dotaccent" unicode="&#x2d9;" horiz-adv-x="819" 
d="M489 1180q-32 -31 -79 -31t-78 31q-32 31 -32 75.5t32 75.5q31 31 78 31t79 -31q31 -31 31 -75.5t-31 -75.5z" />
    <glyph glyph-name="ring" unicode="&#x2da;" horiz-adv-x="819" 
d="M412 1012q-90 0 -148.5 55.5t-58.5 140.5t58 140t149 55q88 0 147 -55.5t59 -139.5t-59 -140t-147 -56zM348 1147q25 -26 63.5 -26t63.5 26q25 25 25 61.5t-25 61.5t-63.5 25t-63.5 -25q-26 -25 -26 -61.5t26 -61.5z" />
    <glyph glyph-name="ogonek" unicode="&#x2db;" horiz-adv-x="819" 
d="M446 -422q-95 0 -154 44.5t-59 127.5q0 158 230 289l125 -39q-98 -70 -140 -117.5t-42 -89.5q0 -72 77 -72q38 0 78 29l51 -125q-65 -47 -166 -47z" />
    <glyph glyph-name="tilde" unicode="&#x2dc;" horiz-adv-x="819" 
d="M221 1135h-133q1 115 52 178t139 63q73 0 143 -49q66 -51 96 -51q62 0 68 100h133q-1 -114 -52.5 -176.5t-138.5 -62.5q-78 0 -141 51q-67 49 -96 49q-64 0 -70 -102z" />
    <glyph glyph-name="hungarumlaut" unicode="&#x2dd;" horiz-adv-x="819" 
d="M311 1110h-141l174 293h193zM639 1110h-141l174 293h192z" />
    <glyph glyph-name="gravecomb" unicode="&#x300;" horiz-adv-x="0" 
d="M-307 1110h-156l-250 293h209z" />
    <glyph glyph-name="acutecomb" unicode="&#x301;" horiz-adv-x="0" 
d="M-354 1110h-152l199 293h205z" />
    <glyph glyph-name="uni0302" unicode="&#x302;" horiz-adv-x="0" 
d="M-553 1110h-164l223 293h168l222 -293h-170l-140 166z" />
    <glyph glyph-name="tildecomb" unicode="&#x303;" horiz-adv-x="0" 
d="M-598 1135h-133q1 115 51.5 178t138.5 63q75 0 142 -49q68 -51 98 -51q62 0 68 100h133q-1 -114 -52.5 -176.5t-138.5 -62.5q-77 0 -143 51q-64 49 -94 49q-64 0 -70 -102z" />
    <glyph glyph-name="uni0304" unicode="&#x304;" horiz-adv-x="0" 
d="M-113 1186h-594v147h594v-147z" />
    <glyph glyph-name="uni0306" unicode="&#x306;" horiz-adv-x="0" 
d="M-410 1106q-131 0 -205.5 75t-74.5 208h135q0 -67 38.5 -105.5t106.5 -38.5q66 0 106 39t40 105h135q0 -134 -74 -208.5t-207 -74.5z" />
    <glyph glyph-name="uni0307" unicode="&#x307;" horiz-adv-x="0" 
d="M-332 1180q-31 -31 -78 -31t-79 31q-31 31 -31 75.5t31 75.5q32 31 79 31t78 -31q32 -31 32 -75.5t-32 -75.5z" />
    <glyph glyph-name="uni0308" unicode="&#x308;" horiz-adv-x="0" 
d="M-528 1178q-31 -31 -78.5 -31t-79.5 31q-31 31 -31 77.5t31 77.5q32 31 79.5 31t78.5 -31q32 -31 32 -77.5t-32 -77.5zM-133 1178q-31 -31 -78.5 -31t-79.5 31q-31 31 -31 77.5t31 77.5q32 31 79.5 31t78.5 -31q32 -31 32 -77.5t-32 -77.5z" />
    <glyph glyph-name="uni030A" unicode="&#x30a;" horiz-adv-x="0" 
d="M-408 1012q-90 0 -148 55.5t-58 140.5t58 140t148 55q88 0 147.5 -55.5t59.5 -139.5t-59.5 -140t-147.5 -56zM-473 1147q26 -26 65 -26t64 26q25 25 25 61.5t-25 61.5t-64 25t-65 -25q-25 -25 -25 -61.5t25 -61.5z" />
    <glyph glyph-name="uni030B" unicode="&#x30b;" horiz-adv-x="0" 
d="M-508 1110h-141l174 293h192zM-180 1110h-142l175 293h192z" />
    <glyph glyph-name="uni030C" unicode="&#x30c;" horiz-adv-x="0" 
d="M-266 1403h164l-224 -293h-168l-221 293h170l139 -166z" />
    <glyph glyph-name="uni0312" unicode="&#x312;" horiz-adv-x="0" 
d="M-406 1448h148l-82 -338h-166z" />
    <glyph glyph-name="uni0326" unicode="&#x326;" horiz-adv-x="0" 
d="M-426 -471h-147l81 338h166z" />
    <glyph glyph-name="uni0327" unicode="&#x327;" horiz-adv-x="0" 
d="M-422 -326h-158l91 338h167z" />
    <glyph glyph-name="uni0328" unicode="&#x328;" horiz-adv-x="0" 
d="M-373 -422q-95 0 -154 44.5t-59 127.5q0 158 230 289l125 -39q-98 -70 -140.5 -117.5t-42.5 -89.5q0 -72 78 -72q38 0 78 29l51 -125q-65 -47 -166 -47z" />
    <glyph glyph-name="uni0394" unicode="&#x394;" horiz-adv-x="1456" 
d="M1384 0h-1316v139l567 1284h182l567 -1284v-139zM725 1239l-457 -1079h914z" />
    <glyph glyph-name="uni03A9" unicode="&#x3a9;" horiz-adv-x="1638" 
d="M678 0h-549v156h375v100q-168 95 -266.5 241t-98.5 328q0 271 193 449t487 178q295 0 488 -178q192 -177 192 -449q0 -176 -98 -318t-266 -245v-106h374v-156h-548v303q354 217 354 522q0 209 -139 342q-137 131 -357 131q-219 0 -356 -131q-139 -133 -139 -342
q0 -301 354 -522v-303z" />
    <glyph glyph-name="uni03BC" unicode="&#x3bc;" horiz-adv-x="1146" 
d="M319 -430h-169v1413h169v-596q0 -129 60.5 -196.5t177.5 -67.5q119 0 194.5 70.5t75.5 191.5v598h170v-983h-170v125q-111 -150 -297 -150q-143 0 -221 78z" />
    <glyph glyph-name="pi" unicode="&#x3c0;" horiz-adv-x="1236" 
d="M1206 983v-147h-229v-598q0 -95 76 -95q49 0 86 43l45 -141q-59 -59 -166 -59q-103 0 -157 62.5t-54 180.5v607h-426v-836h-170v836h-197v147h1192z" />
    <glyph glyph-name="Wgrave" unicode="&#x1e80;" horiz-adv-x="1925" 
d="M1061 1550h-156l-250 293h209zM629 0h-213l-391 1423h178l329 -1216l340 1216h181l354 -1216l313 1216h181l-392 -1423h-215l-331 1161z" />
    <glyph glyph-name="wgrave" unicode="&#x1e81;" horiz-adv-x="1478" 
d="M854 1110h-156l-249 293h208zM530 0h-198l-303 983h178l229 -809l219 809h170l219 -809l228 809h178l-301 -983h-199l-211 743z" />
    <glyph glyph-name="Wacute" unicode="&#x1e82;" horiz-adv-x="1925" 
d="M1014 1550h-152l199 293h205zM629 0h-213l-391 1423h178l329 -1216l340 1216h181l354 -1216l313 1216h181l-392 -1423h-215l-331 1161z" />
    <glyph glyph-name="wacute" unicode="&#x1e83;" horiz-adv-x="1478" 
d="M807 1110h-152l199 293h205zM530 0h-198l-303 983h178l229 -809l219 809h170l219 -809l228 809h178l-301 -983h-199l-211 743z" />
    <glyph glyph-name="Wdieresis" unicode="&#x1e84;" horiz-adv-x="1925" 
d="M842 1618q-32 -31 -79.5 -31t-78.5 31q-32 31 -32 78t32 78q31 31 78.5 31t79.5 -31q31 -31 31 -78t-31 -78zM1237 1618q-32 -31 -79.5 -31t-78.5 31q-32 31 -32 78t32 78q31 31 78.5 31t79.5 -31q31 -31 31 -78t-31 -78zM629 0h-213l-391 1423h178l329 -1216l340 1216
h181l354 -1216l313 1216h181l-392 -1423h-215l-331 1161z" />
    <glyph glyph-name="wdieresis" unicode="&#x1e85;" horiz-adv-x="1478" 
d="M635 1178q-32 -31 -79.5 -31t-78.5 31q-32 31 -32 77.5t32 77.5q31 31 78.5 31t79.5 -31q31 -31 31 -77.5t-31 -77.5zM1030 1178q-32 -31 -79.5 -31t-78.5 31q-32 31 -32 77.5t32 77.5q31 31 78.5 31t79.5 -31q31 -31 31 -77.5t-31 -77.5zM530 0h-198l-303 983h178
l229 -809l219 809h170l219 -809l228 809h178l-301 -983h-199l-211 743z" />
    <glyph glyph-name="uni1E9E" unicode="&#x1e9e;" horiz-adv-x="1568" 
d="M991 -29q-336 0 -481 232l129 112q47 -91 140 -140.5t216 -49.5q135 0 213 67t78 183q0 128 -142.5 208t-387.5 87l-37 116l465 484h-834v-1270h-174v1423h1194v-180l-424 -438q246 -29 385 -145.5t139 -280.5q0 -192 -131 -300t-348 -108z" />
    <glyph glyph-name="Ygrave" unicode="&#x1ef2;" horiz-adv-x="1282" 
d="M739 1550h-155l-250 293h209zM723 0h-174v600l-545 823h209l426 -663l432 663h207l-555 -823v-600z" />
    <glyph glyph-name="ygrave" unicode="&#x1ef3;" 
d="M604 1110h-155l-250 293h209zM238 -455q-158 0 -226 105l105 119q52 -76 129 -76q56 0 92.5 45.5t79.5 159.5l39 102h-76l-373 983h182l316 -844l307 844h182l-442 -1167q-56 -146 -131 -208.5t-184 -62.5z" />
    <glyph glyph-name="endash" unicode="&#x2013;" horiz-adv-x="1220" 
d="M1087 549h-954v145h954v-145z" />
    <glyph glyph-name="emdash" unicode="&#x2014;" horiz-adv-x="2048" 
d="M1976 549h-1904v145h1904v-145z" />
    <glyph glyph-name="quoteleft" unicode="&#x2018;" horiz-adv-x="452" 
d="M240 1188q45 -5 77.5 -37t32.5 -74q0 -49 -36 -84t-87 -35q-56 0 -93.5 44.5t-37.5 115.5q0 180 152 326l88 -68q-93 -93 -96 -188z" />
    <glyph glyph-name="quoteright" unicode="&#x2019;" horiz-adv-x="452" 
d="M225 1444q56 0 93.5 -44.5t37.5 -115.5q0 -181 -151 -326l-88 68q93 93 96 188q-45 5 -78 37t-33 74q0 49 36 84t87 35z" />
    <glyph glyph-name="quotesinglbase" unicode="&#x201a;" horiz-adv-x="452" 
d="M225 215q56 0 93.5 -44.5t37.5 -115.5q0 -180 -151 -325l-88 67q93 93 96 189q-45 5 -78 36.5t-33 73.5q0 49 36 84t87 35z" />
    <glyph glyph-name="quotedblleft" unicode="&#x201c;" horiz-adv-x="788" 
d="M240 1188q45 -5 77.5 -37t32.5 -74q0 -49 -36 -84t-87 -35q-56 0 -93.5 44.5t-37.5 115.5q0 180 152 326l88 -68q-93 -93 -96 -188zM575 1188q45 -5 78 -37t33 -74q0 -49 -36 -84t-87 -35q-56 0 -93.5 44.5t-37.5 115.5q0 180 152 326l88 -68q-94 -94 -97 -188z" />
    <glyph glyph-name="quotedblright" unicode="&#x201d;" horiz-adv-x="788" 
d="M225 1444q56 0 93.5 -44.5t37.5 -115.5q0 -181 -151 -326l-88 68q93 93 96 188q-45 5 -78 37t-33 74q0 49 36 84t87 35zM561 1444q56 0 93.5 -44.5t37.5 -115.5q0 -181 -151 -326l-88 68q93 93 96 188q-45 5 -78 37t-33 74q0 49 36 84t87 35z" />
    <glyph glyph-name="quotedblbase" unicode="&#x201e;" horiz-adv-x="796" 
d="M225 215q56 0 93.5 -44.5t37.5 -115.5q0 -180 -151 -325l-88 67q93 93 96 189q-45 5 -78 36.5t-33 73.5q0 49 36 84t87 35zM569 215q56 0 93.5 -44.5t37.5 -115.5q0 -180 -151 -325l-88 67q93 93 96 189q-45 5 -78 36.5t-33 73.5q0 49 36 84t87 35z" />
    <glyph glyph-name="dagger" unicode="&#x2020;" horiz-adv-x="907" 
d="M530 1112h306v-145h-306v-455h-153v455h-305v145h305v311h153v-311z" />
    <glyph glyph-name="daggerdbl" unicode="&#x2021;" horiz-adv-x="907" 
d="M836 1141v-146h-306v-223h306v-145h-306v-283h-153v283h-305v145h305v223h-305v146h305v282h153v-282h306z" />
    <glyph glyph-name="bullet" unicode="&#x2022;" horiz-adv-x="708" 
d="M352 457q-86 0 -147.5 62.5t-61.5 150.5q0 86 61.5 147.5t147.5 61.5q90 0 151.5 -60.5t61.5 -148.5q0 -91 -61 -152t-152 -61z" />
    <glyph glyph-name="ellipsis" unicode="&#x2026;" horiz-adv-x="1298" 
d="M223 -20q-50 0 -85.5 35.5t-35.5 86.5t35.5 86t85.5 35q51 0 87 -35t36 -86t-36 -86.5t-87 -35.5zM647 -20q-50 0 -85.5 35.5t-35.5 86.5t35.5 86t85.5 35q51 0 87 -35t36 -86t-36 -86.5t-87 -35.5zM1073 -20q-50 0 -85.5 35.5t-35.5 86.5t35.5 86t85.5 35q51 0 87 -35
t36 -86t-36 -86.5t-87 -35.5z" />
    <glyph glyph-name="perthousand" unicode="&#x2030;" horiz-adv-x="2750" 
d="M694 762q-99 -111 -260 -111t-260 111q-98 107 -98 287t98.5 289.5t259.5 109.5t260 -109.5t99 -289.5q0 -179 -99 -287zM602 0h-160l869 1423h159zM289 858q57 -72 145 -72t148 72q55 70 55 191q0 119 -55 192q-60 72 -148 72t-145 -72q-58 -73 -58 -192q0 -121 58 -191
zM1739 86q-99 -111 -260 -111t-260 111q-99 108 -99 287q0 180 99 289.5t260 109.5t259.5 -109.5t98.5 -289.5t-98 -287zM2576 86q-99 -111 -260 -111t-260 111q-98 107 -98 287t98.5 289.5t259.5 109.5t260 -109.5t99 -289.5q0 -179 -99 -287zM1333 182q56 -71 146 -71
q88 0 147 71q55 70 55 191q0 119 -55 192q-60 72 -147 72q-89 0 -146 -72t-57 -192q0 -122 57 -191zM2171 182q56 -71 145 -71t148 71q55 70 55 191q0 119 -55 192q-60 72 -148 72t-145 -72t-57 -192q0 -122 57 -191z" />
    <glyph glyph-name="guilsinglleft" unicode="&#x2039;" horiz-adv-x="626" 
d="M518 399v-168l-430 271v157l430 271v-168l-289 -182z" />
    <glyph glyph-name="guilsinglright" unicode="&#x203a;" horiz-adv-x="626" 
d="M539 502l-430 -271v168l288 181l-288 180v170l430 -271v-157z" />
    <glyph glyph-name="fraction" unicode="&#x2044;" horiz-adv-x="593" 
d="M-117 0h-149l977 1423h149z" />
    <glyph glyph-name="uni2074" unicode="&#x2074;" horiz-adv-x="745" 
d="M608 569h-137v199h-428v145q260 275 295 510h151q-46 -287 -309 -526h291v184h137v-184h115v-129h-115v-199z" />
    <glyph glyph-name="Euro" unicode="&#x20ac;" horiz-adv-x="1497" 
d="M1221 457l172 -35q-61 -222 -216 -336.5t-391 -114.5q-220 0 -375.5 128.5t-215.5 357.5h-193v143h168q-6 52 -6 111q0 57 2 73h-164v144h184q56 243 220 385q165 139 385 139q233 0 382 -124.5t205 -360.5l-164 -43q-49 195 -152 284.5t-271 89.5q-152 0 -264 -98.5
t-156 -271.5h497v-144h-520q-2 -16 -2 -73q0 -59 6 -111h516v-143h-485q50 -156 158 -244t250 -88q173 0 278.5 79t151.5 253z" />
    <glyph glyph-name="trademark" unicode="&#x2122;" horiz-adv-x="1271" 
d="M309 903h-94v434h-172v86h438v-86h-172v-434zM635 903h-92v520h123l176 -299l176 299h119v-520h-93v393l-174 -288h-63l-172 288v-393z" />
    <glyph glyph-name="uni2126" unicode="&#x2126;" horiz-adv-x="1638" 
d="M678 0h-549v156h375v100q-168 95 -266.5 241t-98.5 328q0 271 193 449t487 178q295 0 488 -178q192 -177 192 -449q0 -176 -98 -318t-266 -245v-106h374v-156h-548v303q354 217 354 522q0 209 -139 342q-137 131 -357 131q-219 0 -356 -131q-139 -133 -139 -342
q0 -301 354 -522v-303z" />
    <glyph glyph-name="arrowleft" unicode="&#x2190;" horiz-adv-x="1476" 
d="M1225 651q105 -51 133 -133q26 -77 26 -282l-186 -13q0 158 -27 240q-34 104 -137 104h-520q63 -52 90.5 -133t28.5 -235l-170 -15q-26 160 -109 246q-86 86 -256 166v113q172 81 256 165q83 86 109 246l170 -14q-1 -155 -28.5 -236t-90.5 -133h520q110 0 140 107
q24 86 24 237l186 -14q0 -206 -26 -283q-28 -82 -133 -133z" />
    <glyph glyph-name="arrowup" unicode="&#x2191;" horiz-adv-x="1474" 
d="M1204 1030l-14 -170q-155 1 -236 28.5t-133 90.5v-582q0 -107 107 -137q97 -27 237 -27l-14 -186q-203 0 -283 27q-82 28 -133 133q-51 -105 -133 -133q-80 -27 -283 -27l-12 186q158 0 240 27q104 34 104 137v582q-52 -63 -133 -90.5t-235 -28.5l-15 170q162 27 246 111
q85 82 166 254h113q82 -174 165 -254q84 -84 246 -111z" />
    <glyph glyph-name="arrowright" unicode="&#x2192;" horiz-adv-x="1476" 
d="M844 1106l170 14q27 -163 110 -246q80 -83 254 -165v-113q-172 -81 -254 -166q-83 -83 -110 -246l-170 15q1 154 28.5 235t90.5 133h-521q-108 0 -137 -106q-26 -94 -26 -238l-187 15q0 202 27 282q28 82 133 133q-105 51 -133 133q-27 80 -27 283l187 12q0 -158 26 -237
q35 -107 137 -107h521q-63 52 -90.5 133t-28.5 236z" />
    <glyph glyph-name="arrowdown" unicode="&#x2193;" horiz-adv-x="1474" 
d="M1190 559l14 -170q-162 -27 -246 -108q-84 -84 -165 -256h-113q-80 170 -166 256q-84 81 -246 108l15 170q154 -1 235 -28.5t133 -90.5v582q0 110 -106 139q-90 25 -238 25l15 186q205 0 282 -26q81 -28 133 -134q52 106 133 134q77 26 283 26l12 -186q-155 0 -237 -27
q-107 -35 -107 -137v-582q52 63 133 90.5t236 28.5z" />
    <glyph glyph-name="arrowboth" unicode="&#x2194;" horiz-adv-x="1761" 
d="M1128 1094l170 14q27 -152 111 -236q83 -83 254 -165v-113q-173 -82 -254 -164q-84 -84 -111 -237l-170 14q1 146 28.5 226t90.5 132h-733q63 -52 90.5 -132t28.5 -226l-170 -14q-27 153 -111 237q-82 82 -254 164v113q171 82 254 165q84 84 111 236l170 -14
q-1 -147 -28.5 -227t-90.5 -132h733q-63 52 -90.5 132t-28.5 227z" />
    <glyph glyph-name="arrowupdn" unicode="&#x2195;" horiz-adv-x="1454" 
d="M811 1106v-821q52 63 131.5 90t226.5 28l15 -170q-153 -27 -236 -110q-86 -86 -166 -256h-112q-82 174 -164 256q-83 83 -238 110l15 170q147 -1 226.5 -28t131.5 -90v821q-52 -63 -132 -90.5t-226 -28.5l-15 170q154 27 238 111q81 82 164 254h112q81 -169 166 -254
q84 -84 236 -111l-15 -170q-146 1 -226 28.5t-132 90.5z" />
    <glyph glyph-name="uni2196" unicode="&#x2196;" horiz-adv-x="1472" 
d="M1313 739l121 -143q-140 -140 -217 -178q-75 -40 -189 -2q37 -113 0 -189q-42 -79 -182 -219l-139 123q52 52 86 93.5t59.5 87.5t24.5 88t-29 77l-426 426q6 -81 -31.5 -157t-144.5 -189l-131 111q90 131 95.5 262.5t-63.5 286.5l80 79q155 -68 287 -62.5t262 95.5
l111 -129q-111 -107 -187 -145.5t-157 -32.5l426 -426q29 -23 63 -26.5t65.5 7t70.5 37t71.5 55.5t73.5 70z" />
    <glyph glyph-name="uni2197" unicode="&#x2197;" horiz-adv-x="1474" 
d="M1247 1296l80 -79q-68 -155 -62.5 -287t95.5 -262l-129 -111q-107 111 -145.5 187t-32.5 157l-426 -426q-23 -29 -26.5 -63t7 -65.5t37 -70.5t55.5 -71.5t70 -73.5l-143 -121q-141 141 -178 217q-40 76 -3 189q-114 -37 -188 2q-77 38 -219 180l123 139q52 -52 93.5 -86
t87.5 -59.5t88 -24.5t77 29l426 426q-81 -6 -157 31.5t-189 144.5l110 131q132 -90 263 -95.5t286 62.5z" />
    <glyph glyph-name="uni2198" unicode="&#x2198;" horiz-adv-x="1472" 
d="M1227 774l131 -110q-90 -132 -95.5 -263t62.5 -286l-80 -80q-155 68 -287 62.5t-262 -95.5l-110 129q111 107 187 145.5t157 32.5l-426 426q-29 23 -63 26.5t-65.5 -7t-70.5 -37t-71.5 -55.5t-73.5 -70l-121 143q138 138 217 180q75 37 188 0q-38 114 2 189
q37 75 181 219l139 -123q-52 -52 -86 -93.5t-59.5 -87.5t-24.5 -88t29 -77l426 -426q-6 81 31.5 157t144.5 189z" />
    <glyph glyph-name="uni2199" unicode="&#x2199;" horiz-adv-x="1474" 
d="M1028 918q113 37 189 0q77 -40 219 -183l-123 -139q-52 52 -93.5 86t-87.5 59.5t-88 24.5t-77 -29l-426 -426q81 6 157 -31.5t189 -144.5l-111 -131q-132 90 -263 95.5t-286 -62.5l-80 80q69 155 63.5 287t-95.5 262l129 110q107 -111 145.5 -187t32.5 -157l426 426
q23 29 26.5 63t-7 65.5t-37 70.5t-55.5 71.5t-70 73.5l143 121q138 -138 180 -217q37 -75 0 -188z" />
    <glyph glyph-name="partialdiff" unicode="&#x2202;" horiz-adv-x="1159" 
d="M571 -25q-222 0 -362 140q-139 139 -139 356q0 213 127 352q126 138 323 138q269 0 371 -185q-38 221 -213 359.5t-477 189.5l75 127q361 -56 578 -283q217 -230 217 -567q0 -288 -135 -457q-135 -170 -365 -170zM571 123q145 0 230.5 103t85.5 270q0 143 -86 230
t-232 87q-147 0 -233 -93.5t-86 -248.5q0 -156 87 -252t234 -96z" />
    <glyph glyph-name="uni2206" unicode="&#x2206;" horiz-adv-x="1456" 
d="M1384 0h-1316v139l567 1284h182l567 -1284v-139zM725 1239l-457 -1079h914z" />
    <glyph glyph-name="product" unicode="&#x220f;" horiz-adv-x="1615" 
d="M66 1423h1484v-153h-217v-1454h-174v1454h-702v-1454h-174v1454h-217v153z" />
    <glyph glyph-name="summation" unicode="&#x2211;" horiz-adv-x="1271" 
d="M1235 -184h-1157v137l512 698l-539 635v137h1139v-153h-903l479 -559v-105l-467 -637h936v-153z" />
    <glyph glyph-name="minus" unicode="&#x2212;" 
d="M924 528h-844v148h844v-148z" />
    <glyph glyph-name="radical" unicode="&#x221a;" horiz-adv-x="1402" 
d="M784 -172h-163l-357 864h-162v144h277l326 -801l477 1390h153z" />
    <glyph glyph-name="infinity" unicode="&#x221e;" horiz-adv-x="1484" 
d="M1104 936q137 0 227 -96q88 -94 88 -238t-90 -240t-227 -96q-94 0 -177.5 52.5t-183.5 168.5q-94 -116 -177 -168.5t-185 -52.5q-138 0 -225 96q-88 94 -88 236t92 242q90 96 225 96q92 0 176.5 -53.5t183.5 -169.5q93 118 176 170.5t185 52.5zM1094 416q74 0 120 51
t46 133q0 80 -48.5 134t-121.5 54q-111 0 -254 -186q149 -186 258 -186zM395 414q111 0 254 186q-85 101 -142.5 143.5t-115.5 42.5q-74 0 -121 -51.5t-47 -132.5q0 -82 48.5 -135t123.5 -53z" />
    <glyph glyph-name="integral" unicode="&#x222b;" horiz-adv-x="851" 
d="M221 -205q-119 0 -201 49l62 144q48 -34 98 -42t88 7.5t61 52.5t19 86v1071q0 134 80.5 209.5t218.5 75.5q119 0 201 -49l-62 -144q-48 34 -98 42t-88 -7.5t-61 -52.5t-19 -86v-1071q0 -134 -80.5 -209.5t-218.5 -75.5z" />
    <glyph glyph-name="approxequal" unicode="&#x2248;" 
d="M655 657q-78 0 -176 64q-98 61 -133 61q-91 0 -106 -112l-136 12q11 116 70.5 178t161.5 62q78 0 178 -62q92 -63 131 -63q98 0 107 112l135 -12q-21 -240 -232 -240zM655 287q-79 0 -176 63q-100 62 -133 62q-91 0 -106 -113l-136 12q11 116 70.5 178t161.5 62
q78 0 178 -62q92 -63 131 -63q98 0 107 113l135 -13q-21 -239 -232 -239z" />
    <glyph glyph-name="notequal" unicode="&#x2260;" 
d="M885 879v-148h-252l-137 -256h389v-147h-467l-96 -183h-127l98 183h-174v147h252l139 256h-391v148h469l98 182h121l-96 -182h174z" />
    <glyph glyph-name="lessequal" unicode="&#x2264;" 
d="M889 391v-164l-768 308v159l768 307v-161l-584 -226zM889 0h-770v147h770v-147z" />
    <glyph glyph-name="greaterequal" unicode="&#x2265;" 
d="M889 535l-770 -308v164l583 223l-583 226v161l770 -307v-159zM889 0h-770v147h770v-147z" />
    <glyph glyph-name="filledbox" unicode="&#x25a0;" horiz-adv-x="1794" 
d="M176 0v1430h1442v-1430h-1442z" />
    <glyph glyph-name="uni25A1" unicode="&#x25a1;" horiz-adv-x="1759" 
d="M176 0v1423h1407v-1423h-1407zM1413 1270h-1067v-1114h1067v1114z" />
    <glyph glyph-name="uni25AF" unicode="&#x25af;" horiz-adv-x="1306" 
d="M176 0v1423h954v-1423h-954zM961 1270h-615v-1116h615v1116z" />
    <glyph glyph-name="triagup" unicode="&#x25b2;" horiz-adv-x="1718" 
d="M23 0l839 1456l834 -1456h-1673z" />
    <glyph glyph-name="uni25B3" unicode="&#x25b3;" horiz-adv-x="1718" 
d="M1696 0h-1673l839 1456zM860 1147l-559 -991h1116z" />
    <glyph glyph-name="uni25B6" unicode="&#x25b6;" horiz-adv-x="1085" 
d="M150 -12v1048l913 -524z" />
    <glyph glyph-name="uni25B7" unicode="&#x25b7;" horiz-adv-x="1097" 
d="M150 -10v1065l925 -533zM305 788v-534l463 268z" />
    <glyph glyph-name="uni25C0" unicode="&#x25c0;" horiz-adv-x="1085" 
d="M23 512l913 524v-1048z" />
    <glyph glyph-name="uni25C1" unicode="&#x25c1;" horiz-adv-x="1097" 
d="M23 522l925 533v-1065zM330 522l463 -268v534z" />
    <glyph glyph-name="lozenge" unicode="&#x25ca;" horiz-adv-x="1189" 
d="M653 0h-110l-443 616l437 625h108l445 -618zM274 621l326 -457l315 457l-321 454z" />
    <glyph glyph-name="circle" unicode="&#x25cb;" horiz-adv-x="1691" 
d="M846 -29q-324 0 -533 209q-211 208 -211 531q0 324 211 532q209 209 533 209q325 0 534 -209t209 -532q0 -325 -209 -531q-209 -209 -534 -209zM846 127q252 0 411 164q158 166 158 420q0 259 -160 424q-159 163 -409 163q-252 0 -408 -163q-159 -163 -159 -424
q0 -259 159 -422q155 -162 408 -162z" />
    <glyph glyph-name="uni25CF" unicode="&#x25cf;" horiz-adv-x="1691" 
d="M846 1452q322 0 534 -209q209 -209 209 -532q0 -322 -209 -531q-212 -209 -534 -209q-326 0 -535 209q-209 206 -209 531q0 323 209 532t535 209z" />
    <glyph glyph-name="uni25FD" unicode="&#x25fd;" horiz-adv-x="1355" 
d="M150 0v1051h1056v-1051h-1056zM1036 897h-717v-743h717v743z" />
    <glyph glyph-name="uni25FE" unicode="&#x25fe;" horiz-adv-x="1355" 
d="M150 0v1051h1056v-1051h-1056z" />
    <glyph glyph-name="Q.ss03" horiz-adv-x="1626" 
d="M813 -29q-310 0 -510 209q-201 210 -201 531q0 319 201 532q200 209 510 209q307 0 510 -209q201 -213 201 -532q0 -261 -140 -457q46 -53 101 -72.5t149 -19.5v-162q-227 0 -358 137q-193 -166 -463 -166zM813 125q216 0 361 145q-67 101 -132 136q-60 32 -178 32v162
q143 0 238 -45.5t170 -144.5q67 134 67 301q0 253 -147 422q-146 165 -379 165q-231 0 -377 -165q-149 -168 -149 -422q0 -255 149 -420q147 -166 377 -166z" />
    <glyph glyph-name="i.loclTRK" horiz-adv-x="468" 
d="M317 1217q-34 -32 -82.5 -32t-82.5 32t-34 79.5t34 79.5t82.5 32t82.5 -32t34 -79.5t-34 -79.5zM319 0h-169v983h169v-983z" />
    <glyph glyph-name="f.short" horiz-adv-x="591" 
d="M352 0h-170v836h-157v147h149q-41 103 -41 186q0 129 86 204t215 75q137 0 205 -74l-84 -119q-50 50 -125 50q-57 0 -93 -38.5t-36 -109.5q0 -72 45 -174h283v-147h-277v-836z" />
    <glyph glyph-name="a.ss01" horiz-adv-x="1212" 
d="M532 -25q-191 0 -325 152q-131 149 -131 365q0 217 131 366q132 150 325 150q235 0 361 -181v158h170v-985h-170v158q-127 -183 -361 -183zM569 123q139 0 232 106q92 109 92 263q0 153 -92 262q-93 106 -232 106q-147 0 -231 -98.5t-84 -269.5t84 -270t231 -99z" />
    <glyph glyph-name="aacute.ss01" horiz-adv-x="1212" 
d="M625 1110h-152l199 293h205zM532 -25q-191 0 -325 152q-131 149 -131 365q0 217 131 366q132 150 325 150q235 0 361 -181v158h170v-985h-170v158q-127 -183 -361 -183zM569 123q139 0 232 106q92 109 92 263q0 153 -92 262q-93 106 -232 106q-147 0 -231 -98.5
t-84 -269.5t84 -270t231 -99z" />
    <glyph glyph-name="abreve.ss01" horiz-adv-x="1212" 
d="M569 1106q-131 0 -205.5 75t-74.5 208h135q0 -67 38.5 -105.5t106.5 -38.5q66 0 106 39t40 105h135q0 -134 -74 -208.5t-207 -74.5zM532 -25q-191 0 -325 152q-131 149 -131 365q0 217 131 366q132 150 325 150q235 0 361 -181v158h170v-985h-170v158
q-127 -183 -361 -183zM569 123q139 0 232 106q92 109 92 263q0 153 -92 262q-93 106 -232 106q-147 0 -231 -98.5t-84 -269.5t84 -270t231 -99z" />
    <glyph glyph-name="acircumflex.ss01" horiz-adv-x="1212" 
d="M426 1110h-164l223 293h168l221 -293h-169l-140 166zM532 -25q-191 0 -325 152q-131 149 -131 365q0 217 131 366q132 150 325 150q235 0 361 -181v158h170v-985h-170v158q-127 -183 -361 -183zM569 123q139 0 232 106q92 109 92 263q0 153 -92 262q-93 106 -232 106
q-147 0 -231 -98.5t-84 -269.5t84 -270t231 -99z" />
    <glyph glyph-name="adieresis.ss01" horiz-adv-x="1212" 
d="M453 1178q-32 -31 -79.5 -31t-78.5 31q-32 31 -32 77.5t32 77.5q31 31 78.5 31t79.5 -31q31 -31 31 -77.5t-31 -77.5zM848 1178q-32 -31 -79.5 -31t-78.5 31q-32 31 -32 77.5t32 77.5q31 31 78.5 31t79.5 -31q31 -31 31 -77.5t-31 -77.5zM532 -25q-191 0 -325 152
q-131 149 -131 365q0 217 131 366q132 150 325 150q235 0 361 -181v158h170v-985h-170v158q-127 -183 -361 -183zM569 123q139 0 232 106q92 109 92 263q0 153 -92 262q-93 106 -232 106q-147 0 -231 -98.5t-84 -269.5t84 -270t231 -99z" />
    <glyph glyph-name="agrave.ss01" horiz-adv-x="1212" 
d="M672 1110h-156l-250 293h209zM532 -25q-191 0 -325 152q-131 149 -131 365q0 217 131 366q132 150 325 150q235 0 361 -181v158h170v-985h-170v158q-127 -183 -361 -183zM569 123q139 0 232 106q92 109 92 263q0 153 -92 262q-93 106 -232 106q-147 0 -231 -98.5
t-84 -269.5t84 -270t231 -99z" />
    <glyph glyph-name="amacron.ss01" horiz-adv-x="1212" 
d="M866 1186h-594v147h594v-147zM532 -25q-191 0 -325 152q-131 149 -131 365q0 217 131 366q132 150 325 150q235 0 361 -181v158h170v-985h-170v158q-127 -183 -361 -183zM569 123q139 0 232 106q92 109 92 263q0 153 -92 262q-93 106 -232 106q-147 0 -231 -98.5
t-84 -269.5t84 -270t231 -99z" />
    <glyph glyph-name="aogonek.ss01" horiz-adv-x="1212" 
d="M1036 -250l51 -125q-65 -47 -165 -47q-95 0 -154 44.5t-59 127.5q0 140 184 260v148q-127 -183 -361 -183q-191 0 -325 152q-131 149 -131 365q0 217 131 366q132 150 325 150q235 0 361 -181v158h170v-985q-98 -70 -140 -117.5t-42 -89.5q0 -72 77 -72q38 0 78 29z
M569 123q139 0 232 106q92 109 92 263q0 153 -92 262q-93 106 -232 106q-147 0 -231 -98.5t-84 -269.5t84 -270t231 -99z" />
    <glyph glyph-name="aring.ss01" horiz-adv-x="1212" 
d="M893 827v158h170v-985h-170v158q-127 -183 -361 -183q-191 0 -325 152q-131 149 -131 365q0 182 94 319q95 139 246 180q-51 54 -51 133q0 85 58 140t148 55q88 0 147.5 -55.5t59.5 -139.5q0 -92 -69 -149q111 -43 184 -148zM635 1186q-25 25 -63.5 25t-63.5 -25
q-26 -25 -26 -61.5t26 -61.5q25 -26 63.5 -26t63.5 26q25 25 25 61.5t-25 61.5zM569 123q139 0 232 106q92 109 92 263q0 153 -92 262q-93 106 -232 106q-147 0 -231 -98.5t-84 -269.5t84 -270t231 -99z" />
    <glyph glyph-name="atilde.ss01" horiz-adv-x="1212" 
d="M381 1135h-133q1 115 51.5 178t138.5 63q74 0 144 -49q66 -51 96 -51q61 0 67 100h134q-1 -114 -52.5 -176.5t-138.5 -62.5q-78 0 -141 51q-67 49 -96 49q-64 0 -70 -102zM532 -25q-191 0 -325 152q-131 149 -131 365q0 217 131 366q132 150 325 150q235 0 361 -181v158
h170v-985h-170v158q-127 -183 -361 -183zM569 123q139 0 232 106q92 109 92 263q0 153 -92 262q-93 106 -232 106q-147 0 -231 -98.5t-84 -269.5t84 -270t231 -99z" />
    <glyph glyph-name="g.ss01" horiz-adv-x="1212" 
d="M545 -455q-186 0 -313.5 88t-153.5 240l164 47q19 -108 99 -167.5t204 -59.5q348 0 348 317v160q-126 -184 -361 -184q-194 0 -325 149t-131 363q0 213 131 362q133 148 325 148q235 0 361 -181v158h170v-967q0 -228 -134 -350.5t-384 -122.5zM569 133q137 0 232 105
q92 106 92 260t-92 260q-95 102 -232 102q-148 0 -231.5 -96t-83.5 -266t83.5 -267.5t231.5 -97.5z" />
    <glyph glyph-name="gbreve.ss01" horiz-adv-x="1212" 
d="M569 1106q-131 0 -205.5 75t-74.5 208h135q0 -67 38.5 -105.5t106.5 -38.5q66 0 106 39t40 105h135q0 -134 -74 -208.5t-207 -74.5zM545 -455q-186 0 -313.5 88t-153.5 240l164 47q19 -108 99 -167.5t204 -59.5q348 0 348 317v160q-126 -184 -361 -184q-194 0 -325 149
t-131 363q0 213 131 362q133 148 325 148q235 0 361 -181v158h170v-967q0 -228 -134 -350.5t-384 -122.5zM569 133q137 0 232 105q92 106 92 260t-92 260q-95 102 -232 102q-148 0 -231.5 -96t-83.5 -266t83.5 -267.5t231.5 -97.5z" />
    <glyph glyph-name="gcircumflex.ss01" horiz-adv-x="1212" 
d="M426 1110h-164l223 293h168l221 -293h-169l-140 166zM545 -455q-186 0 -313.5 88t-153.5 240l164 47q19 -108 99 -167.5t204 -59.5q348 0 348 317v160q-126 -184 -361 -184q-194 0 -325 149t-131 363q0 213 131 362q133 148 325 148q235 0 361 -181v158h170v-967
q0 -228 -134 -350.5t-384 -122.5zM569 133q137 0 232 105q92 106 92 260t-92 260q-95 102 -232 102q-148 0 -231.5 -96t-83.5 -266t83.5 -267.5t231.5 -97.5z" />
    <glyph glyph-name="uni0123.ss01" horiz-adv-x="1212" 
d="M573 1448h148l-82 -338h-166zM545 -455q-186 0 -313.5 88t-153.5 240l164 47q19 -108 99 -167.5t204 -59.5q348 0 348 317v160q-126 -184 -361 -184q-194 0 -325 149t-131 363q0 213 131 362q133 148 325 148q235 0 361 -181v158h170v-967q0 -228 -134 -350.5
t-384 -122.5zM569 133q137 0 232 105q92 106 92 260t-92 260q-95 102 -232 102q-148 0 -231.5 -96t-83.5 -266t83.5 -267.5t231.5 -97.5z" />
    <glyph glyph-name="gdotaccent.ss01" horiz-adv-x="1212" 
d="M649 1180q-32 -31 -79 -31t-78 31q-32 31 -32 75.5t32 75.5q31 31 78 31t79 -31q31 -31 31 -75.5t-31 -75.5zM545 -455q-186 0 -313.5 88t-153.5 240l164 47q19 -108 99 -167.5t204 -59.5q348 0 348 317v160q-126 -184 -361 -184q-194 0 -325 149t-131 363q0 213 131 362
q133 148 325 148q235 0 361 -181v158h170v-967q0 -228 -134 -350.5t-384 -122.5zM569 133q137 0 232 105q92 106 92 260t-92 260q-95 102 -232 102q-148 0 -231.5 -96t-83.5 -266t83.5 -267.5t231.5 -97.5z" />
    <glyph glyph-name="y.ss01" horiz-adv-x="1138" 
d="M539 -455q-171 0 -288 87.5t-149 240.5l162 47q23 -109 95 -169t180 -60q280 0 280 319v115q-108 -150 -309 -150q-176 0 -272.5 106t-96.5 296v606h170v-596q0 -129 60.5 -196.5t177.5 -67.5q119 0 194.5 70.5t75.5 191.5v598h170v-983q0 -220 -117 -337.5t-333 -117.5z
" />
    <glyph glyph-name="yacute.ss01" horiz-adv-x="1138" 
d="M623 1110h-152l199 293h204zM539 -455q-171 0 -288 87.5t-149 240.5l162 47q23 -109 95 -169t180 -60q280 0 280 319v115q-108 -150 -309 -150q-176 0 -272.5 106t-96.5 296v606h170v-596q0 -129 60.5 -196.5t177.5 -67.5q119 0 194.5 70.5t75.5 191.5v598h170v-983
q0 -220 -117 -337.5t-333 -117.5z" />
    <glyph glyph-name="ycircumflex.ss01" horiz-adv-x="1138" 
d="M424 1110h-164l223 293h168l221 -293h-170l-139 166zM539 -455q-171 0 -288 87.5t-149 240.5l162 47q23 -109 95 -169t180 -60q280 0 280 319v115q-108 -150 -309 -150q-176 0 -272.5 106t-96.5 296v606h170v-596q0 -129 60.5 -196.5t177.5 -67.5q119 0 194.5 70.5
t75.5 191.5v598h170v-983q0 -220 -117 -337.5t-333 -117.5z" />
    <glyph glyph-name="ydieresis.ss01" horiz-adv-x="1138" 
d="M451 1178q-32 -31 -79.5 -31t-78.5 31q-32 31 -32 77.5t32 77.5q31 31 78.5 31t79.5 -31q31 -31 31 -77.5t-31 -77.5zM846 1178q-32 -31 -79.5 -31t-78.5 31q-32 31 -32 77.5t32 77.5q31 31 78.5 31t79.5 -31q31 -31 31 -77.5t-31 -77.5zM539 -455q-171 0 -288 87.5
t-149 240.5l162 47q23 -109 95 -169t180 -60q280 0 280 319v115q-108 -150 -309 -150q-176 0 -272.5 106t-96.5 296v606h170v-596q0 -129 60.5 -196.5t177.5 -67.5q119 0 194.5 70.5t75.5 191.5v598h170v-983q0 -220 -117 -337.5t-333 -117.5z" />
    <glyph glyph-name="ygrave.ss01" horiz-adv-x="1138" 
d="M670 1110h-156l-250 293h209zM539 -455q-171 0 -288 87.5t-149 240.5l162 47q23 -109 95 -169t180 -60q280 0 280 319v115q-108 -150 -309 -150q-176 0 -272.5 106t-96.5 296v606h170v-596q0 -129 60.5 -196.5t177.5 -67.5q119 0 194.5 70.5t75.5 191.5v598h170v-983
q0 -220 -117 -337.5t-333 -117.5z" />
    <glyph glyph-name="f.ss02" horiz-adv-x="641" 
d="M352 0h-170v836h-157v147h149v180q0 135 75.5 210t207.5 75q159 0 260 -107l-107 -120q-64 79 -147 79q-117 0 -117 -135v-182h285v-147h-279v-836z" />
    <glyph glyph-name="r.ss02" horiz-adv-x="741" 
d="M319 0h-169v983h169v-166q77 182 293 182q56 0 109 -16v-172q-74 23 -137 23q-121 0 -193 -79.5t-72 -230.5v-524z" />
    <glyph glyph-name="racute.ss02" horiz-adv-x="741" 
d="M498 1110h-152l199 293h205zM319 0h-169v983h169v-166q77 182 293 182q56 0 109 -16v-172q-74 23 -137 23q-121 0 -193 -79.5t-72 -230.5v-524z" />
    <glyph glyph-name="rcaron.ss02" horiz-adv-x="741" 
d="M586 1403h164l-224 -293h-168l-221 293h170l139 -166zM319 0h-169v983h169v-166q77 182 293 182q56 0 109 -16v-172q-74 23 -137 23q-121 0 -193 -79.5t-72 -230.5v-524z" />
    <glyph glyph-name="uni0157.ss02" horiz-adv-x="741" 
d="M319 0h-169v983h169v-166q77 182 293 182q56 0 109 -16v-172q-74 23 -137 23q-121 0 -193 -79.5t-72 -230.5v-524zM217 -471h-147l82 338h165z" />
    <glyph glyph-name="f.short.ss02" horiz-adv-x="622" 
d="M352 0h-170v836h-157v147h149v180q0 134 80.5 209.5t218.5 75.5q119 0 201 -49l-62 -144q-48 34 -98 42t-88 -7.5t-61 -52.5t-19 -86v-168h295v-147h-289v-836z" />
    <glyph glyph-name="f_f.ss02" horiz-adv-x="1230" 
d="M936 1165v-182h285v-147h-279v-836h-170v836h-420v-836h-170v836h-157v147h149v180q0 134 80.5 209.5t218.5 75.5q119 0 201 -49l-62 -144q-48 34 -98 42t-88 -7.5t-61 -52.5t-19 -86v-168h418v180q0 135 75.5 210t207.5 75q159 0 260 -107l-107 -120q-64 79 -147 79
q-117 0 -117 -135z" />
    <glyph glyph-name="f_f_i.ss02" horiz-adv-x="1681" 
d="M1264 1399l-62 -144q-48 34 -98 42t-88 -7.5t-61 -52.5t-19 -86v-168h295v-147h-289v-836h-170v836h-420v-836h-170v836h-157v147h149v180q0 134 80.5 209.5t218.5 75.5q119 0 201 -49l-62 -144q-48 34 -98 42t-88 -7.5t-61 -52.5t-19 -86v-168h418v180q0 134 80.5 209.5
t218.5 75.5q119 0 201 -49zM1530 1376q34 -32 34 -79.5t-34 -79.5t-83 -32t-83 32t-34 79.5t34 79.5t83 32t83 -32zM1532 0h-170v983h170v-983z" />
    <glyph glyph-name="f_f_l.ss02" horiz-adv-x="1681" 
d="M1264 1399l-62 -144q-48 34 -98 42t-88 -7.5t-61 -52.5t-19 -86v-168h295v-147h-289v-836h-170v836h-420v-836h-170v836h-157v147h149v180q0 134 80.5 209.5t218.5 75.5q119 0 201 -49l-62 -144q-48 34 -98 42t-88 -7.5t-61 -52.5t-19 -86v-168h418v180q0 134 80.5 209.5
t218.5 75.5q119 0 201 -49zM1362 0v1423h170v-1423h-170z" />
    <glyph glyph-name="fi.ss02" horiz-adv-x="1091" 
d="M352 0h-170v836h-157v147h149v180q0 134 80.5 209.5t218.5 75.5q119 0 201 -49l-62 -144q-48 34 -98 42t-88 -7.5t-61 -52.5t-19 -86v-168h295v-147h-289v-836zM940 1217q-34 -32 -83 -32t-83 32t-34 79.5t34 79.5t83 32t83 -32t34 -79.5t-34 -79.5zM942 0h-170v983h170
v-983z" />
    <glyph glyph-name="fl.ss02" horiz-adv-x="1091" 
d="M352 0h-170v836h-157v147h149v180q0 134 80.5 209.5t218.5 75.5q119 0 201 -49l-62 -144q-48 34 -98 42t-88 -7.5t-61 -52.5t-19 -86v-168h295v-147h-289v-836zM942 0h-170v1423h170v-1423z" />
    <glyph glyph-name="zero.osf" horiz-adv-x="1232" 
d="M995 131q-150 -156 -379 -156q-228 0 -378 156q-152 155 -152 410q0 253 152 411q151 154 378 154q228 0 379 -154q152 -158 152 -411q0 -255 -152 -410zM362 236q94 -113 254 -113q156 0 256 115q97 117 97 303q0 188 -97 305q-97 112 -256 112q-161 0 -254 -112
q-98 -113 -98 -305t98 -305z" />
    <glyph glyph-name="one.osf" horiz-adv-x="671" 
d="M502 0h-170v809q-94 -82 -295 -82v164q141 -12 216 37t75 153h174v-1081z" />
    <glyph glyph-name="two.osf" horiz-adv-x="1064" 
d="M995 0h-936v70q0 126 85 219t288 176l96 39q77 31 123 55t81.5 54t50 65.5t14.5 83.5q0 91 -65 143.5t-183 52.5q-278 0 -318 -313l-168 21q17 206 146 323t348 117q193 0 305.5 -94t112.5 -246q0 -149 -88 -231q-93 -86 -293 -162l-96 -37q-120 -46 -173 -87t-67 -93
h737v-156z" />
    <glyph glyph-name="three.osf" horiz-adv-x="1140" 
d="M571 -367q-227 0 -366 127q-142 127 -142 340q0 72 27 142l168 -37q-16 -56 -16 -105q0 -142 91.5 -230.5t239.5 -88.5q143 0 228.5 73t85.5 199q0 117 -83 186.5t-222 69.5h-97v148h101q123 0 195.5 66.5t72.5 181.5q0 121 -75.5 187t-209.5 66q-286 0 -321 -342
l-168 21q26 227 153.5 348t335.5 121q216 0 339.5 -103.5t123.5 -285.5q0 -121 -76 -209q-78 -93 -188 -117q135 -20 216 -111.5t81 -226.5q0 -191 -135 -305q-139 -115 -359 -115z" />
    <glyph glyph-name="four.osf" horiz-adv-x="1128" 
d="M897 -342h-170v342h-694v141q415 428 491 940h174q-89 -548 -460 -934h489v353h170v-353h211v-147h-211v-342z" />
    <glyph glyph-name="five.osf" horiz-adv-x="1163" 
d="M588 -367q-230 0 -367 125q-140 128 -149 320l168 28q3 -131 104 -225q101 -96 244 -96q141 0 231 91.5t90 234.5q0 141 -90.5 231t-232.5 90q-183 0 -301 -151l-144 47q59 382 68 753h803v-155h-654q-12 -251 -39 -447q102 105 283 105q218 0 352 -131
q133 -133 133 -344q0 -212 -139 -345q-137 -131 -360 -131z" />
    <glyph glyph-name="six.osf" horiz-adv-x="1202" 
d="M641 1448q221 0 347.5 -113t133.5 -321l-170 -19q-27 305 -305 305q-179 0 -287 -163q-109 -168 -100 -457q53 116 151 175.5t224 59.5q210 0 350 -131q141 -132 141 -340q0 -203 -141 -335q-143 -134 -356 -134q-253 0 -398 189t-145 516q0 350 152 561q151 207 403 207
zM627 768q-143 0 -235.5 -92t-92.5 -234t91 -230.5t237 -88.5q141 0 231 89.5t90 231.5t-90 233t-231 91z" />
    <glyph glyph-name="seven.osf" horiz-adv-x="1069" 
d="M494 -342h-170q9 670 460 1268h-753v155h946v-153q-239 -315 -359 -623t-124 -647z" />
    <glyph glyph-name="eight.osf" horiz-adv-x="1163" 
d="M582 -25q-234 0 -370 112.5t-136 311.5q0 118 70 214t194 145q-219 103 -219 301q0 173 127 282q125 107 334 107q208 0 333 -107q127 -109 127 -282q0 -202 -206 -301q117 -47 184 -144t67 -215q0 -200 -135 -312t-370 -112zM377 887q77 -68 205 -68q126 0 206 68
q78 66 78 172q0 105 -78 174q-79 67 -206 67q-129 0 -205 -67q-80 -68 -80 -174q0 -107 80 -172zM344 197q89 -74 238 -74q148 0 237 74q90 75 90 200q0 123 -90.5 199t-236.5 76t-237 -76t-91 -199q0 -125 90 -200z" />
    <glyph glyph-name="nine.osf" horiz-adv-x="1202" 
d="M561 -367q-221 0 -347.5 113.5t-133.5 321.5l170 18q27 -305 305 -305q181 0 289 164q107 165 98 456q-53 -116 -151 -175.5t-224 -59.5q-208 0 -350 133q-141 132 -141 338t141 338q140 131 356 131q257 0 400 -186t143 -519q0 -354 -149 -561q-151 -207 -406 -207z
M575 313q143 0 235.5 92t92.5 234t-91 230.5t-237 88.5q-141 0 -231 -89.5t-90 -231.5t90 -233t231 -91z" />
    <glyph glyph-name="zero.tf" horiz-adv-x="1310" 
d="M655 -29q-265 0 -415 203q-152 202 -152 537q0 333 152 538q150 203 415 203q263 0 416 -203q152 -205 152 -538q0 -335 -152 -537q-153 -203 -416 -203zM655 123q183 0 285 158.5t102 429.5q0 272 -102 430.5t-285 158.5q-184 0 -285.5 -158.5t-101.5 -430.5t101.5 -430
t285.5 -158z" />
    <glyph glyph-name="one.tf" horiz-adv-x="1310" 
d="M786 1423v-1271h396v-152h-955v152h387v942q-59 -64 -151.5 -88.5t-245.5 -24.5v164q199 0 296 67t97 211h176z" />
    <glyph glyph-name="two.tf" horiz-adv-x="1310" 
d="M1196 0h-1034v94q0 264 323 443l258 143q129 72 186.5 152.5t57.5 189.5q0 129 -84.5 203.5t-222.5 74.5q-144 0 -231 -81q-91 -85 -91 -201q0 -90 35 -162l-162 -61q-51 92 -51 223q0 180 142 307t366 127q216 0 348 -117q131 -116 131 -309q0 -150 -80 -262.5
t-262 -214.5l-258 -143q-217 -120 -223 -250h852v-156z" />
    <glyph glyph-name="three.tf" horiz-adv-x="1310" 
d="M659 -29q-237 0 -380 125q-146 128 -146 342q0 72 27 152l170 -47q-17 -59 -17 -105q0 -146 96 -230.5t253 -84.5q147 0 233 71.5t86 198.5q0 121 -84.5 189.5t-232.5 68.5h-97v152h101q130 0 204 64.5t74 179.5q0 120 -78.5 186.5t-216.5 66.5q-145 0 -229 -89.5
t-103 -252.5l-169 21q26 225 158 349t343 124q222 0 348.5 -105t126.5 -288q0 -119 -75.5 -209t-190.5 -115q138 -20 219.5 -112t81.5 -230q0 -192 -137 -305q-138 -117 -365 -117z" />
    <glyph glyph-name="four.tf" horiz-adv-x="1310" 
d="M967 0h-170v350h-695v146q207 193 341.5 433.5t170.5 493.5h174q-91 -558 -469 -921h478v352h170v-352h223v-152h-223v-350z" />
    <glyph glyph-name="five.tf" horiz-adv-x="1310" 
d="M641 -29q-227 0 -369 127q-144 126 -153 320l170 28q3 -131 104 -225q101 -98 248 -98q142 0 234 92.5t92 235.5q0 142 -91 231.5t-237 89.5q-185 0 -303 -151l-146 47q59 379 68 755h821v-155h-669q-12 -253 -39 -449q102 105 284 105q222 0 357 -129q135 -132 135 -344
q0 -213 -141 -345q-141 -135 -365 -135z" />
    <glyph glyph-name="six.tf" horiz-adv-x="1310" 
d="M682 -29q-263 0 -410 191q-149 189 -149 522q0 350 153 559t414 209q229 0 357 -109.5t145 -318.5l-174 -23q-11 143 -94 221t-228 78q-186 0 -295 -161q-111 -163 -102 -455q54 119 157.5 179.5t237.5 60.5q218 0 363 -133q141 -132 141 -342q0 -207 -145 -343
q-147 -135 -371 -135zM436 217q94 -94 244 -94q149 0 244 92q94 91 94 234q0 142 -94 233q-96 90 -244 90q-149 0 -244 -92q-96 -93 -96 -231q0 -139 96 -232z" />
    <glyph glyph-name="seven.tf" horiz-adv-x="1310" 
d="M594 0h-174q9 666 465 1268h-781v155h971v-163q-240 -314 -358.5 -617.5t-122.5 -642.5z" />
    <glyph glyph-name="eight.tf" horiz-adv-x="1310" 
d="M1038 84q-140 -113 -383 -113t-383 113q-141 114 -141 313q0 118 68 215t188 146q-209 102 -209 303q0 178 131 285q130 106 346 106q213 0 346 -109q132 -108 132 -282q0 -204 -209 -303q118 -47 187 -145t69 -216q0 -198 -142 -313zM440 887q83 -68 215 -68
q134 0 217 68q82 67 82 174t-82 174q-83 68 -217 68q-132 0 -215 -68q-84 -69 -84 -174t84 -174zM406 195q95 -74 249 -74q155 0 250 74q94 73 94 200q0 123 -95 200t-249 77t-249 -77t-95 -200q0 -126 95 -200z" />
    <glyph glyph-name="nine.tf" horiz-adv-x="1310" 
d="M616 -29q-226 0 -357.5 115t-141.5 324l174 18q30 -305 319 -305q185 0 299 166q112 165 103 454q-107 -235 -389 -235q-220 0 -365 133t-145 338t147 340q145 133 369 133q261 0 411 -188q148 -192 148 -521q0 -353 -156 -561q-156 -211 -416 -211zM389 752
q96 -93 242 -93q147 0 243 93q97 91 97 229q0 135 -97 229q-96 90 -243 90q-146 0 -242 -90q-96 -93 -96 -231q0 -137 96 -227z" />
    <glyph glyph-name="zero.tosf" horiz-adv-x="1228" 
d="M989 131q-150 -156 -375 -156q-224 0 -374 156q-150 153 -150 410q0 255 150 411q151 154 374 154q224 0 375 -154q150 -156 150 -411q0 -257 -150 -410zM365 236q94 -113 249 -113q157 0 252 115t95 303q0 190 -95 305q-93 112 -252 112q-156 0 -249 -112
q-97 -117 -97 -305t97 -305z" />
    <glyph glyph-name="one.tosf" horiz-adv-x="1228" 
d="M743 1081v-929h306v-152h-818v152h342v657q-104 -84 -337 -84v164q149 -12 241 39.5t92 152.5h174z" />
    <glyph glyph-name="two.tosf" horiz-adv-x="1228" 
d="M1075 0h-936v70q0 126 85 219t288 176l96 39q77 31 123 55t81.5 54t50 65.5t14.5 83.5q0 91 -65 143.5t-183 52.5q-278 0 -318 -313l-168 21q17 206 146 323t348 117q193 0 305.5 -94t112.5 -246q0 -149 -88 -231q-93 -86 -293 -162l-96 -37q-120 -46 -173 -87t-67 -93
h737v-156z" />
    <glyph glyph-name="three.tosf" horiz-adv-x="1228" 
d="M606 -367q-227 0 -366 127q-142 127 -142 340q0 72 27 142l168 -37q-17 -60 -17 -105q0 -142 92 -230.5t240 -88.5q142 0 228 73t86 199q0 117 -83 186.5t-223 69.5h-96v148h101q123 0 195.5 66.5t72.5 181.5q0 121 -75.5 187t-209.5 66q-286 0 -321 -342l-168 21
q26 227 153.5 348t335.5 121q216 0 339.5 -103.5t123.5 -285.5q0 -121 -76 -209q-78 -93 -188 -117q135 -20 216 -111.5t81 -226.5q0 -191 -135 -305q-139 -115 -359 -115z" />
    <glyph glyph-name="four.tosf" horiz-adv-x="1228" 
d="M956 -342h-170v342h-694v141q416 429 492 940h174q-88 -546 -461 -934h489v353h170v-353h211v-147h-211v-342z" />
    <glyph glyph-name="five.tosf" horiz-adv-x="1228" 
d="M639 -367q-230 0 -367 125q-140 128 -149 320l168 28q3 -131 104 -225q101 -96 244 -96q141 0 231.5 91.5t90.5 234.5q0 141 -91 231t-233 90q-183 0 -301 -151l-143 47q58 375 67 753h803v-155h-653q-12 -251 -39 -447q102 105 282 105q219 0 353 -131
q133 -133 133 -344t-140 -345q-137 -131 -360 -131z" />
    <glyph glyph-name="six.tosf" horiz-adv-x="1228" 
d="M668 1448q221 0 347.5 -113t133.5 -321l-170 -19q-27 305 -305 305q-179 0 -287 -163q-109 -168 -100 -457q53 116 151 175.5t224 59.5q210 0 350 -131q141 -132 141 -340q0 -203 -141 -335q-143 -134 -357 -134q-252 0 -397 189t-145 516q0 351 151 561q151 207 404 207
zM653 768q-143 0 -235 -92t-92 -234q0 -143 90.5 -231t236.5 -88q141 0 231.5 89.5t90.5 231.5t-90.5 233t-231.5 91z" />
    <glyph glyph-name="seven.tosf" horiz-adv-x="1228" 
d="M561 -342h-170q9 669 461 1268h-754v155h946v-153q-239 -315 -359 -623t-124 -647z" />
    <glyph glyph-name="eight.tosf" horiz-adv-x="1228" 
d="M614 -25q-234 0 -369.5 112.5t-135.5 311.5q0 118 70 214t194 145q-219 103 -219 301q0 173 127 282q125 107 333 107q209 0 334 -107q127 -109 127 -282q0 -201 -207 -301q117 -47 184.5 -144t67.5 -215q0 -200 -135.5 -312t-370.5 -112zM410 887q77 -68 204 -68t207 68
q78 66 78 172q0 105 -78 174q-79 67 -207 67t-204 -67q-80 -68 -80 -174q0 -107 80 -172zM377 197q89 -74 237 -74q149 0 238 74q90 75 90 200q0 123 -91 199t-237 76t-236.5 -76t-90.5 -199q0 -125 90 -200z" />
    <glyph glyph-name="nine.tosf" horiz-adv-x="1228" 
d="M582 -367q-221 0 -348 113.5t-134 321.5l170 18q27 -305 305 -305q181 0 289 164q108 166 99 456q-53 -116 -151 -175.5t-224 -59.5q-208 0 -350 133t-142 338t142 338q140 131 356 131q256 0 399 -186q144 -188 144 -519q0 -352 -150 -561q-151 -207 -405 -207zM596 313
q143 0 235.5 92t92.5 234t-91 230.5t-237 88.5q-141 0 -231.5 -89.5t-90.5 -231.5t90.5 -233t231.5 -91z" />
    <glyph glyph-name="exclamdown.case" horiz-adv-x="530" 
d="M266 1444q50 0 85.5 -36t35.5 -87t-35.5 -86t-85.5 -35q-51 0 -87 35t-36 86t36 87t87 36zM180 1047h150l18 -1047h-186z" />
    <glyph glyph-name="questiondown.case" horiz-adv-x="1124" 
d="M594 1444q50 0 85.5 -36t35.5 -87t-35.5 -86t-85.5 -35q-51 0 -87 35t-36 86t36 87t87 36zM494 1047h176q0 -102 -41.5 -178t-139.5 -156q-129 -105 -176 -176t-47 -162q0 -115 77 -182.5t206 -67.5q123 0 207 78q82 76 82 190q0 79 -33 146l168 59q49 -88 49 -205
q0 -177 -137 -299q-138 -123 -344 -123q-214 0 -336.5 106.5t-122.5 291.5q0 133 63 225q60 88 222 219q73 60 99 108t28 126z" />
    <glyph glyph-name="periodcentered.case" horiz-adv-x="489" 
d="M244 604q-50 0 -85.5 36t-35.5 87t35.5 86t85.5 35q51 0 87 -35t36 -86t-36 -87t-87 -36z" />
    <glyph glyph-name="slash.case" horiz-adv-x="833" 
d="M184 -137h-143l608 1700h144z" />
    <glyph glyph-name="backslash.case" horiz-adv-x="835" 
d="M795 -137h-146l-608 1700h145z" />
    <glyph glyph-name="parenleft.case" horiz-adv-x="710" 
d="M657 -66l-77 -118q-215 159 -320.5 374t-105.5 521t105.5 521t320.5 374l77 -119q-350 -273 -350 -776q0 -504 350 -777z" />
    <glyph glyph-name="parenright.case" horiz-adv-x="710" 
d="M133 -184l-78 118q351 274 351 777q0 502 -351 776l78 119q215 -159 320.5 -374t105.5 -521t-105.5 -521t-320.5 -374z" />
    <glyph glyph-name="braceleft.case" horiz-adv-x="808" 
d="M725 -47v-137q-226 8 -325 71.5t-99 204.5q0 77 41 195q41 115 41 180q0 180 -277 180h-14v125h14q277 0 277 180q0 64 -41 185q-41 118 -41 192q0 141 99 205t325 72v-138q-159 -6 -215.5 -37.5t-56.5 -121.5q0 -45 41 -166t41 -209q0 -190 -195 -225q195 -35 195 -222
q0 -88 -41 -206q-41 -121 -41 -166q0 -91 57 -123.5t215 -38.5z" />
    <glyph glyph-name="braceright.case" horiz-adv-x="808" 
d="M84 -184v137q159 6 215.5 38t56.5 122q0 45 -41 166t-41 208q0 191 195 226q-195 35 -195 221q0 88 41 209q41 118 41 164q0 91 -57 123t-215 38v138q226 -8 325 -72t99 -205q0 -74 -41 -192t-41 -183q0 -180 276 -180h15v-125h-15q-276 0 -276 -180q0 -64 41 -182
q41 -121 41 -195q0 -141 -99 -204.5t-325 -71.5z" />
    <glyph glyph-name="bracketleft.case" horiz-adv-x="692" 
d="M627 1606v-138h-277v-1515h277v-137h-426v1790h426z" />
    <glyph glyph-name="bracketright.case" horiz-adv-x="692" 
d="M66 1606h426v-1790h-426v131h274v1528h-274v131z" />
    <glyph glyph-name="hyphen.case" horiz-adv-x="770" 
d="M647 649h-524v160h524v-160z" />
    <glyph glyph-name="endash.case" horiz-adv-x="1220" 
d="M1087 653h-954v146h954v-146z" />
    <glyph glyph-name="emdash.case" horiz-adv-x="2048" 
d="M1976 651h-1904v146h1904v-146z" />
    <glyph glyph-name="guillemotleft.case" horiz-adv-x="1081" 
d="M518 545v-168l-430 270v158l430 270v-168l-289 -182zM973 545v-168l-430 270v158l430 270v-168l-289 -182z" />
    <glyph glyph-name="guillemotright.case" horiz-adv-x="1081" 
d="M539 647l-430 -270v168l288 180l-288 180v170l430 -270v-158zM993 647l-430 -270v168l289 180l-289 180v170l430 -270v-158z" />
    <glyph glyph-name="guilsinglleft.case" horiz-adv-x="606" 
d="M518 545v-168l-430 270v158l430 270v-168l-289 -182z" />
    <glyph glyph-name="guilsinglright.case" horiz-adv-x="626" 
d="M539 649l-430 -270v168l288 180l-288 180v170l430 -270v-158z" />
    <glyph glyph-name="at.case" horiz-adv-x="1908" 
d="M928 -133q-353 0 -590 225q-236 224 -236 586q0 367 246 604q243 234 608 234q377 0 621 -218q240 -218 240 -559q0 -248 -98.5 -374.5t-258.5 -126.5q-93 0 -158 49t-79 127q-107 -174 -314 -174q-175 0 -288 131q-115 130 -115 317t115 320q114 129 288 129
q195 0 297 -150v125h152v-602q0 -66 30 -100.5t82 -34.5q98 0 150.5 92t52.5 268q0 287 -200 469q-201 180 -519 180q-313 0 -510 -194q-198 -195 -198 -512q0 -307 190 -494q189 -186 494 -186q197 0 368 115l62 -121q-186 -125 -432 -125zM737 467q76 -88 195 -88
q120 0 196 88q76 85 76 221q0 135 -76 223q-77 86 -196 86q-118 0 -195 -86q-78 -90 -78 -223q0 -134 78 -221z" />
    <glyph glyph-name="bar.case" horiz-adv-x="567" 
d="M350 -137h-133v1700h133v-1700z" />
    <glyph glyph-name="brokenbar.case" horiz-adv-x="567" 
d="M350 866h-133v697h133v-697zM350 -137h-133v696h133v-696z" />
    <glyph glyph-name="uni030C.alt" horiz-adv-x="0" 
d="M-281 1067h-135l49 356h172z" />
    </font>
</defs>
</svg>
