<?xml version="1.0" standalone="no"?>
<!DOCTYPE svg PUBLIC "-//W3C//DTD SVG 1.1//EN" "http://www.w3.org/Graphics/SVG/1.1/DTD/svg11.dtd" >
<svg xmlns="http://www.w3.org/2000/svg" xmlns:xlink="http://www.w3.org/1999/xlink" version="1.1">
<metadata>
Created by FontForge 20201107 at Thu Jul  4 08:30:11 2024
 By 
Copyright (c) 2016 by Grilli Type. All rights reserved.
</metadata>
<defs>
<font id="GTAmericaTrial-CnRg" horiz-adv-x="466" >
  <font-face 
    font-family="GT America Trial Cn Rg"
    font-weight="400"
    font-stretch="condensed"
    units-per-em="2048"
    panose-1="0 0 0 0 0 0 0 0 0 0"
    ascent="1608"
    descent="-440"
    x-height="1024"
    cap-height="1454"
    bbox="-20 -424 2140 1505"
    underline-thickness="102"
    underline-position="-255"
    unicode-range="U+0020-1EF3"
  />
<missing-glyph horiz-adv-x="1126" 
d="M864 700v324h-61v-324h61zM102 0v1434h922v-1434h-922zM145 860q0 -72 37.5 -119t100.5 -47q65 0 88 41l8 -35h47v179h-137v-58h82v-4q0 -25 -18.5 -46t-55.5 -21q-41 0 -62.5 28t-21.5 80q0 51 21.5 82t60.5 31q49 0 63 -47l62 24q-29 80 -123 80q-72 0 -112 -47
t-40 -121zM182 569h90v-260h62v260h90v60h-242v-60zM406 309h61v101q0 71 57 71q13 0 21 -2v58q-6 2 -21 2q-42 0 -61 -43v36h-57v-223zM463 700h59v103q0 31 15 51t47 20q14 0 20 -2v56q-12 4 -22 4q-38 0 -64 -43v37h-55v-226zM557 571h66v62h-66v-62zM559 309h62v223h-62
v-223zM616 965h66v59h-66v-59zM618 700h62v226h-62v-226zM637 373q0 -32 22 -51t56 -19q51 0 71 39q0 -23 2 -33h60q-6 30 -6 43v82q0 55 -20.5 80t-73.5 25q-50 0 -76.5 -20t-28.5 -56h59q3 31 43 31q22 0 29.5 -11t7.5 -34q-62 -5 -102 -17q-43 -17 -43 -59zM698 375
q0 27 47 33l37 4v-6q0 -27 -13.5 -42.5t-35.5 -15.5q-16 0 -25.5 8t-9.5 19zM711 700h59v324h-59v-324zM874 309h60v324h-60v-324zM897 965h66v59h-66v-59zM899 700h62v226h-62v-226z" />
    <glyph glyph-name=".notdef" horiz-adv-x="1126" 
d="M864 700v324h-61v-324h61zM102 0v1434h922v-1434h-922zM145 860q0 -72 37.5 -119t100.5 -47q65 0 88 41l8 -35h47v179h-137v-58h82v-4q0 -25 -18.5 -46t-55.5 -21q-41 0 -62.5 28t-21.5 80q0 51 21.5 82t60.5 31q49 0 63 -47l62 24q-29 80 -123 80q-72 0 -112 -47
t-40 -121zM182 569h90v-260h62v260h90v60h-242v-60zM406 309h61v101q0 71 57 71q13 0 21 -2v58q-6 2 -21 2q-42 0 -61 -43v36h-57v-223zM463 700h59v103q0 31 15 51t47 20q14 0 20 -2v56q-12 4 -22 4q-38 0 -64 -43v37h-55v-226zM557 571h66v62h-66v-62zM559 309h62v223h-62
v-223zM616 965h66v59h-66v-59zM618 700h62v226h-62v-226zM637 373q0 -32 22 -51t56 -19q51 0 71 39q0 -23 2 -33h60q-6 30 -6 43v82q0 55 -20.5 80t-73.5 25q-50 0 -76.5 -20t-28.5 -56h59q3 31 43 31q22 0 29.5 -11t7.5 -34q-62 -5 -102 -17q-43 -17 -43 -59zM698 375
q0 27 47 33l37 4v-6q0 -27 -13.5 -42.5t-35.5 -15.5q-16 0 -25.5 8t-9.5 19zM711 700h59v324h-59v-324zM874 309h60v324h-60v-324zM897 965h66v59h-66v-59zM899 700h62v226h-62v-226z" />
    <glyph glyph-name=".null" horiz-adv-x="0" 
 />
    <glyph glyph-name=".null" horiz-adv-x="0" 
 />
    <glyph glyph-name="nonmarkingreturn" horiz-adv-x="682" 
 />
    <glyph glyph-name="space" unicode=" " horiz-adv-x="448" 
 />
    <glyph glyph-name="space" unicode="&#xa0;" horiz-adv-x="448" 
 />
    <glyph glyph-name="comma" unicode="," horiz-adv-x="458" 
d="M123 -197q67 32 87.5 71.5t20.5 117.5v8h-114v238h221v-224q0 -123 -36.5 -188t-133.5 -109z" />
    <glyph glyph-name="hyphen" unicode="-" horiz-adv-x="679" 
d="M84 649h512v-160h-512v160z" />
    <glyph glyph-name="period" unicode="." horiz-adv-x="460" 
d="M340 238v-238h-219v238h219z" />
    <glyph glyph-name="zero" unicode="0" horiz-adv-x="1120" 
d="M561 -31q-115 0 -198.5 38.5t-144.5 124.5t-91.5 231t-30.5 350t30.5 349.5t91.5 230t144.5 123.5t198.5 38t198.5 -38t144.5 -123.5t91.5 -230t30.5 -349.5t-30.5 -350t-91.5 -231t-144.5 -124.5t-198.5 -38.5zM276 713q0 -225 33.5 -358.5t94 -186.5t157.5 -53
t157.5 53t94 186.5t33.5 358.5t-33.5 358t-94 185.5t-157.5 52.5t-157.5 -52.5t-94 -185.5t-33.5 -358z" />
    <glyph glyph-name="one" unicode="1" horiz-adv-x="704" 
d="M326 1130q-31 -38 -93 -58.5t-120 -20.5h-56v157h35q94 0 166 55.5t94 159.5h144v-1423h-170v1130z" />
    <glyph glyph-name="two" unicode="2" horiz-adv-x="966" 
d="M61 145q270 274 371 388q41 45 76 88q178 222 178 440q0 119 -54.5 181.5t-156.5 62.5q-103 0 -160 -62t-57 -176q0 -69 14 -135l-184 22q-12 56 -12 117q0 180 108 281.5t299 101.5q189 0 290 -98.5t101 -286.5q0 -254 -215 -512q-120 -151 -376 -401h608v-156h-830v145
z" />
    <glyph glyph-name="three" unicode="3" horiz-adv-x="993" 
d="M494 -31q-203 0 -314 114t-114 333l180 20q1 -157 66 -238t182 -81q233 0 233 264q0 139 -64.5 212t-187.5 73h-72v147h66q112 0 170.5 69t58.5 197q0 113 -54.5 170.5t-154.5 57.5q-120 0 -175.5 -77.5t-57.5 -244.5l-176 27q2 209 108 325.5t306 116.5q185 0 286 -92
t101 -270q0 -131 -63 -223.5t-171 -120.5q127 -22 194.5 -117t67.5 -248q0 -199 -109 -306.5t-306 -107.5z" />
    <glyph glyph-name="four" unicode="4" horiz-adv-x="1009" 
d="M954 348h-194v-348h-166v348h-557v123l522 952h201v-938h194v-137zM199 485h395v529q0 147 4 223h-4q-30 -94 -86 -203l-207 -387q-67 -119 -102 -162z" />
    <glyph glyph-name="five" unicode="5" horiz-adv-x="991" 
d="M494 -31q-178 0 -287 105t-123 284l182 21q12 -121 72 -191.5t160 -70.5q116 0 176.5 89t60.5 259t-58 259t-171 89q-93 0 -154 -57t-80 -156l-168 18l60 805h692v-153h-551l-39 -484q87 172 293 172q172 0 265.5 -125.5t93.5 -357.5q0 -237 -112 -371.5t-312 -134.5z
" />
    <glyph glyph-name="six" unicode="6" horiz-adv-x="1009" 
d="M526 -31q-151 0 -246.5 73.5t-144.5 237t-49 427.5q0 392 112 569.5t334 177.5q173 0 272 -89.5t118 -268.5l-183 -31q-12 125 -63 185.5t-146 60.5q-262 0 -268 -543q43 87 121 134.5t184 47.5q175 0 273 -127t98 -354q0 -234 -110 -367t-302 -133zM264 557
q9 -232 75.5 -337t186.5 -105q109 0 169.5 90t60.5 262q0 161 -62 250.5t-172 89.5q-99 0 -163.5 -65t-94.5 -185z" />
    <glyph glyph-name="seven" unicode="7" horiz-adv-x="862" 
d="M238 59q6 623 411 1205h-608v159h793v-129q-203 -259 -305.5 -561.5t-104.5 -619.5v-113h-186v59z" />
    <glyph glyph-name="eight" unicode="8" horiz-adv-x="1028" 
d="M518 -31q-210 0 -327 106.5t-117 295.5q0 281 264 364q-118 52 -175 133t-57 217q0 173 110.5 271t295.5 98q188 0 295.5 -95.5t107.5 -271.5q0 -126 -56 -205t-175 -120q138 -55 204 -143t66 -240q0 -199 -115.5 -304.5t-320.5 -105.5zM252 375q0 -126 70 -196t196 -70
q258 0 258 264q0 120 -54 184t-171 105l-72 24q-122 -42 -174.5 -112t-52.5 -199zM283 1090q0 -112 50 -168.5t159 -94.5l53 -18q112 42 154 100t42 178q0 118 -60 177t-171 59q-108 0 -167.5 -58.5t-59.5 -174.5z" />
    <glyph glyph-name="nine" unicode="9" horiz-adv-x="1003" 
d="M485 -31q-174 0 -275.5 93t-123.5 272l180 35q25 -256 223 -256q70 0 117.5 27.5t82 94.5t50 182.5t15.5 289.5q-42 -88 -121 -134.5t-180 -46.5q-177 0 -279 120t-102 341q0 215 109.5 341t303.5 126q87 0 152.5 -20.5t120 -71t89 -132.5t53 -207t18.5 -294
q0 -174 -18.5 -304t-52.5 -217t-88.5 -140.5t-120.5 -76t-153 -22.5zM252 991q0 -153 63 -237t174 -84q99 0 169 72.5t92 201.5q-12 202 -73 284.5t-192 82.5q-111 0 -172 -83.5t-61 -236.5z" />
    <glyph glyph-name="A" unicode="A" horiz-adv-x="1112" 
d="M31 0l426 1454h198l426 -1454h-182l-117 422h-452l-117 -422h-182zM371 569h370l-151 541q-11 50 -31 166h-6q-20 -116 -31 -166z" />
    <glyph glyph-name="B" unicode="B" horiz-adv-x="1103" 
d="M166 0v1454h397q92 0 165.5 -21t121.5 -56.5t80 -85t45.5 -103.5t13.5 -115q0 -119 -58.5 -203.5t-172.5 -109.5q123 -25 190.5 -116.5t67.5 -237.5q0 -86 -23.5 -157t-73 -128t-135 -89t-200.5 -32h-418zM344 141h225q258 0 258 269q0 270 -252 270h-231v-539zM344 813
h211q73 0 123.5 20t76 57.5t36 79t10.5 95.5q0 250 -252 250h-205v-502z" />
    <glyph glyph-name="C" unicode="C" horiz-adv-x="1148" 
d="M600 -35q-273 0 -392.5 185t-119.5 579q0 390 125 575t389 185q439 0 457 -492l-182 -18q-15 356 -279 356q-177 0 -249.5 -143t-72.5 -461q0 -323 73.5 -465.5t252.5 -142.5q126 0 197.5 89t83.5 261l176 -29q-19 -235 -135.5 -357t-323.5 -122z" />
    <glyph glyph-name="D" unicode="D" horiz-adv-x="1200" 
d="M166 0v1454h375q281 0 426 -181.5t145 -537.5q0 -363 -148.5 -549t-428.5 -186h-369zM344 143h186q192 0 292 149.5t100 442.5q0 576 -390 576h-188v-1168z" />
    <glyph glyph-name="E" unicode="E" horiz-adv-x="1005" 
d="M346 154h569v-154h-747v1454h733v-154h-555v-477h520v-151h-520v-518z" />
    <glyph glyph-name="F" unicode="F" horiz-adv-x="964" 
d="M346 0h-178v1454h733v-154h-555v-477h520v-151h-520v-672z" />
    <glyph glyph-name="G" unicode="G" horiz-adv-x="1187" 
d="M555 -35q-230 0 -348.5 194.5t-118.5 567.5q0 387 130 574.5t390 187.5q96 0 173 -25t128 -67.5t86.5 -103t53 -126.5t22.5 -143l-188 -29q-6 78 -22 136.5t-46.5 108t-84 75.5t-128.5 26q-165 0 -245.5 -146.5t-80.5 -467.5q0 -610 330 -610q74 0 129.5 25.5t88.5 65
t53 98t27 115t7 124.5v71h-321v150h495v-766h-135l-14 250q-39 -134 -136.5 -209.5t-244.5 -75.5z" />
    <glyph glyph-name="H" unicode="H" horiz-adv-x="1249" 
d="M1081 1454v-1454h-178v672h-557v-672h-178v1454h178v-635h557v635h178z" />
    <glyph glyph-name="I" unicode="I" horiz-adv-x="512" 
d="M346 0h-178v1454h178v-1454z" />
    <glyph glyph-name="J" unicode="J" horiz-adv-x="675" 
d="M526 330q0 -97 -27 -167.5t-76 -110.5t-110.5 -58.5t-138.5 -18.5q-101 0 -145 15v166q65 -11 139 -11q182 0 182 197v1112h176v-1124z" />
    <glyph glyph-name="K" unicode="K" horiz-adv-x="1128" 
d="M168 0v1454h178v-739l508 739h211l-418 -571l447 -883h-205l-365 741l-178 -258v-483h-178z" />
    <glyph glyph-name="L" unicode="L" horiz-adv-x="909" 
d="M168 0v1454h178v-1296h526v-158h-704z" />
    <glyph glyph-name="M" unicode="M" horiz-adv-x="1515" 
d="M168 0v1454h264l289 -1087q29 -109 35 -174h6q4 65 33 174l288 1087h267v-1454h-164v1020q0 204 6 274h-10q-6 -56 -39 -215l-293 -1079h-184l-293 1079q-8 41 -17 91t-14.5 83t-7.5 41h-8q6 -105 6 -274v-1020h-164z" />
    <glyph glyph-name="N" unicode="N" horiz-adv-x="1286" 
d="M166 0v1454h211l510 -1012q37 -74 71 -213h5q-11 118 -11 275v950h168v-1454h-196l-518 1036q-36 68 -76 213h-4q10 -130 10 -243v-1006h-170z" />
    <glyph glyph-name="O" unicode="O" horiz-adv-x="1224" 
d="M612 -35q-524 0 -524 762t524 762q525 0 525 -762t-525 -762zM279 727q0 -314 84 -461t249 -147t249.5 147t84.5 461t-84.5 461t-249.5 147t-249 -147t-84 -461z" />
    <glyph glyph-name="P" unicode="P" horiz-adv-x="1032" 
d="M344 0h-178v1454h401q203 0 316.5 -110.5t113.5 -303.5q0 -208 -113 -323t-313 -115h-227v-602zM344 745h211q120 0 185 75.5t65 219.5q0 132 -66 202.5t-186 70.5h-209v-568z" />
    <glyph glyph-name="Q" unicode="Q" horiz-adv-x="1216" 
d="M612 -35q-524 0 -524 762t524 762q525 0 525 -762q0 -608 -336 -731q41 -45 87.5 -59.5t104.5 -14.5q47 0 97 12v-159q-71 -11 -121 -11q-111 0 -193 53t-125 150q-12 -2 -39 -2zM279 727q0 -314 84 -461t249 -147t249.5 147t84.5 461t-84.5 461t-249.5 147t-249 -147
t-84 -461z" />
    <glyph glyph-name="R" unicode="R" horiz-adv-x="1112" 
d="M166 0v1454h414q426 0 426 -416q0 -145 -64 -248t-192 -141l297 -649h-201l-281 618h-221v-618h-178zM344 758h223q246 0 246 280q0 136 -58.5 204.5t-189.5 68.5h-221v-553z" />
    <glyph glyph-name="S" unicode="S" horiz-adv-x="1042" 
d="M549 -35q-235 0 -357 122t-131 372l189 30q9 -196 80.5 -285t222.5 -89q102 0 162.5 66.5t60.5 183.5q0 114 -47.5 175.5t-153.5 96.5l-178 57q-142 45 -219.5 153t-77.5 255q0 180 113.5 283.5t304.5 103.5q203 0 314.5 -107.5t121.5 -345.5l-184 -35q-11 177 -71 259.5
t-183 82.5q-106 0 -166.5 -62t-60.5 -167q0 -190 188 -254l180 -61q310 -104 310 -428q0 -187 -110.5 -296.5t-307.5 -109.5z" />
    <glyph glyph-name="T" unicode="T" horiz-adv-x="968" 
d="M23 1298v156h925v-156h-375v-1298h-176v1298h-374z" />
    <glyph glyph-name="U" unicode="U" horiz-adv-x="1210" 
d="M150 1454h178v-1028q0 -142 72.5 -222.5t205.5 -80.5q132 0 204.5 80.5t72.5 222.5v1028h178v-1040q0 -204 -119.5 -326.5t-335.5 -122.5q-217 0 -336.5 122.5t-119.5 326.5v1040z" />
    <glyph glyph-name="V" unicode="V" horiz-adv-x="1052" 
d="M422 0l-399 1454h186l272 -1079q25 -84 41 -187h8q11 73 41 187l271 1079h188l-399 -1454h-209z" />
    <glyph glyph-name="W" unicode="W" horiz-adv-x="1554" 
d="M313 0l-262 1454h180l185 -1116q11 -86 14 -166h8q1 16 21 166l217 1116h201l219 -1116l20 -166h6q5 75 17 166l184 1116h180l-262 -1454h-235l-207 1083q-14 95 -17 174h-10q-3 -70 -18 -174l-205 -1083h-236z" />
    <glyph glyph-name="X" unicode="X" horiz-adv-x="1077" 
d="M25 0l401 772l-367 682h205l234 -459q23 -45 41 -106h4q13 46 41 104l235 461h195l-363 -688l404 -766h-209l-256 535q-36 68 -51 118h-4q-9 -35 -52 -118l-258 -535h-200z" />
    <glyph glyph-name="Y" unicode="Y" horiz-adv-x="1013" 
d="M418 0v602l-402 852h197l256 -577q26 -61 35 -107h4q7 36 37 107l256 577h196l-401 -852v-602h-178z" />
    <glyph glyph-name="Z" unicode="Z" horiz-adv-x="960" 
d="M57 160l656 1138h-631v156h821v-160l-655 -1138h676v-156h-867v160z" />
    <glyph glyph-name="a" unicode="a" horiz-adv-x="929" 
d="M362 -25q-136 0 -211 79t-75 212q0 156 114 242q82 63 269 96l174 31v63q0 114 -40.5 165.5t-129.5 51.5q-101 0 -144.5 -56t-46.5 -161h-172q1 98 32 169t83.5 109t113.5 55.5t134 17.5q182 0 260 -77.5t78 -266.5v-402q0 -186 24 -303h-166q-14 103 -14 182
q-27 -95 -102 -151t-181 -56zM254 283q-3 -172 162 -172q99 0 159 71t60 193v139l-180 -35q-99 -19 -149.5 -66t-51.5 -130z" />
    <glyph glyph-name="b" unicode="b" horiz-adv-x="1026" 
d="M575 -25q-95 0 -166 58.5t-100 159.5l-18 -193h-141v1485h167v-660q34 110 106 167t177 57q164 0 252 -138t88 -399t-94 -399t-271 -138zM315 422q0 -141 60.5 -224t163.5 -83q215 0 215 397t-215 397q-103 0 -163.5 -83t-60.5 -224v-180z" />
    <glyph glyph-name="c" unicode="c" horiz-adv-x="907" 
d="M477 -25q-393 0 -393 537t393 537q161 0 252.5 -95t97.5 -280l-172 -21q-9 256 -182 256q-106 0 -159.5 -91.5t-53.5 -305.5q0 -212 55 -302.5t164 -90.5q84 0 130.5 64.5t49.5 195.5l172 -27q-7 -181 -102.5 -279t-251.5 -98z" />
    <glyph glyph-name="d" unicode="d" horiz-adv-x="1021" 
d="M434 -25q-167 0 -257.5 140t-90.5 401q0 255 93 394t263 139q99 0 166.5 -53t96.5 -154v643h167v-1485h-157v201q-37 -109 -110 -167.5t-171 -58.5zM268 516q0 -212 54 -306.5t176 -94.5q99 0 155 83t56 230v168q0 147 -56 230t-155 83q-121 0 -175.5 -93t-54.5 -300z
" />
    <glyph glyph-name="e" unicode="e" horiz-adv-x="931" 
d="M481 -25q-70 0 -128.5 17.5t-109 57.5t-85.5 101t-54.5 152.5t-19.5 208.5q0 116 20 208t55.5 153t85.5 101t107.5 57.5t124.5 17.5q176 0 272.5 -115.5t96.5 -329.5v-131h-594q5 -180 60 -265t173 -85q176 0 209 190l150 -45q-26 -143 -121 -218t-242 -75zM252 600h424
q0 164 -50 241t-149 77q-49 0 -86 -14t-69 -48.5t-50 -98.5t-20 -157z" />
    <glyph glyph-name="f" unicode="f" horiz-adv-x="612" 
d="M573 1024v-133h-213v-891h-165v891h-156v133h156v184q0 133 72 211t196 78q63 0 110 -12v-142q-51 7 -81 7q-69 0 -100.5 -37.5t-31.5 -120.5v-168h213z" />
    <glyph glyph-name="g" unicode="g" horiz-adv-x="884" 
d="M461 -424q-200 0 -303 73t-103 199q0 75 43.5 131t124.5 80q-125 49 -125 172q0 64 38 109.5t104 69.5q-131 90 -131 288q0 161 90 256t256 95q98 0 170 -35q24 82 81 129t142 47q23 0 47 -6v-140q-34 9 -66 9q-98 0 -141 -78q111 -91 111 -275q0 -164 -88.5 -257
t-255.5 -93q-85 0 -158 29q-59 -27 -59 -88q0 -90 135 -101l229 -20q134 -12 212.5 -85.5t78.5 -193.5q0 -151 -110 -233t-322 -82zM211 -115q0 -93 68.5 -141.5t191.5 -48.5q258 0 258 176q0 71 -42 107t-128 42l-227 17q-13 0 -29 4q-92 -47 -92 -156zM272 698
q0 -115 49 -176t134 -61t132.5 61t47.5 178q0 115 -47.5 174.5t-132.5 59.5q-86 0 -134.5 -60.5t-48.5 -175.5z" />
    <glyph glyph-name="h" unicode="h" horiz-adv-x="989" 
d="M150 0v1485h167v-645q32 102 103 155.5t174 53.5q268 0 268 -349v-700h-166v688q0 219 -170 219q-209 0 -209 -342v-565h-167z" />
    <glyph glyph-name="i" unicode="i" 
d="M150 0v1024h167v-1024h-167zM139 1206v224h187v-224h-187z" />
    <glyph glyph-name="j" unicode="j" horiz-adv-x="462" 
d="M84 -414q-54 0 -104 11v147q41 -4 77 -4q47 0 68.5 28t21.5 101v1155h166v-1161q0 -131 -51.5 -204t-177.5 -73zM137 1206v224h187v-224h-187z" />
    <glyph glyph-name="k" unicode="k" horiz-adv-x="933" 
d="M150 0v1485h167v-957l375 496h201l-313 -385l327 -639h-194l-252 500l-144 -176v-324h-167z" />
    <glyph glyph-name="l" unicode="l" 
d="M317 1485v-1485h-167v1485h167z" />
    <glyph glyph-name="m" unicode="m" horiz-adv-x="1429" 
d="M150 1024h157v-176q65 201 248 201q185 0 238 -195q77 195 258 195q122 0 187 -81t65 -233v-735h-168v702q0 205 -150 205q-176 0 -176 -272v-635h-166v707q0 200 -149 200q-85 0 -131 -71.5t-46 -206.5v-629h-167v1024z" />
    <glyph glyph-name="n" unicode="n" horiz-adv-x="989" 
d="M150 0v1024h157v-190q79 215 285 215q270 0 270 -349v-700h-166v686q0 112 -42 166.5t-128 54.5q-102 0 -155.5 -86.5t-53.5 -255.5v-565h-167z" />
    <glyph glyph-name="o" unicode="o" horiz-adv-x="970" 
d="M485 -25q-191 0 -296 133.5t-105 403.5t105 403.5t296 133.5t296.5 -133.5t105.5 -403.5t-105.5 -403.5t-296.5 -133.5zM262 512q0 -403 223 -403q224 0 224 403t-224 403q-223 0 -223 -403z" />
    <glyph glyph-name="p" unicode="p" horiz-adv-x="1030" 
d="M150 -399v1423h161v-199q32 106 107.5 165t179.5 59q167 0 256.5 -138.5t89.5 -398.5q0 -253 -94.5 -395t-263.5 -142q-101 0 -168 55t-99 156l-2 -585h-167zM322 422q0 -141 60 -224t163 -83q213 0 213 397t-213 397q-103 0 -163 -83t-60 -224v-180z" />
    <glyph glyph-name="q" unicode="q" horiz-adv-x="1011" 
d="M694 193q-31 -105 -96 -161.5t-160 -56.5q-165 0 -258.5 139t-93.5 402q0 265 98 399t262 134q191 0 259 -207l20 182h137v-1423h-168v592zM268 516q0 -207 50.5 -304t162.5 -97q105 0 161 83.5t56 229.5v168q0 146 -56 229.5t-161 83.5q-113 0 -163 -96t-50 -297z" />
    <glyph glyph-name="r" unicode="r" horiz-adv-x="632" 
d="M305 791q31 113 97.5 185.5t168.5 72.5q19 0 29 -2v-175h-22q-120 0 -189 -92q-33 -38 -49.5 -95.5t-19.5 -100t-3 -113.5v-471h-167v1024h155v-233z" />
    <glyph glyph-name="s" unicode="s" horiz-adv-x="882" 
d="M446 -23q-168 0 -269 82t-114 238l166 27q11 -97 69.5 -154t150.5 -57q88 0 139 41.5t51 113.5q0 71 -33 107.5t-114 58.5l-150 39q-115 30 -178.5 102.5t-63.5 180.5q0 134 96.5 213.5t245.5 79.5q161 0 255 -72.5t100 -216.5l-162 -27q-17 185 -193 185
q-83 0 -130.5 -40.5t-47.5 -113.5q0 -61 36.5 -95t117.5 -57l145 -39q128 -35 184 -104.5t56 -187.5q0 -129 -98 -216.5t-259 -87.5z" />
    <glyph glyph-name="t" unicode="t" horiz-adv-x="618" 
d="M27 891v133h155v258l166 64v-322h215v-133h-215v-598q0 -80 30 -116t99 -36q33 0 90 11v-154q-66 -16 -135 -16q-134 0 -192 73t-58 213v623h-155z" />
    <glyph glyph-name="u" unicode="u" horiz-adv-x="980" 
d="M408 -25q-152 0 -216.5 93.5t-64.5 261.5v694h168v-686q0 -217 162 -217q96 0 151.5 85t55.5 232v586h165v-1024h-155v180q-28 -93 -99 -149t-167 -56z" />
    <glyph glyph-name="v" unicode="v" horiz-adv-x="821" 
d="M322 0l-304 1024h177l180 -690q21 -82 33 -156h6q19 93 35 156l178 690h176l-303 -1024h-178z" />
    <glyph glyph-name="w" unicode="w" horiz-adv-x="1282" 
d="M285 0l-240 1024h170l145 -756q9 -46 15 -102h4q4 22 11.5 60.5t8.5 41.5l154 756h178l154 -756q16 -82 18 -102h4q3 32 17 102l145 756h170l-240 -1024h-180l-160 756q-9 48 -16 108h-4q-10 -84 -16 -108l-158 -756h-180z" />
    <glyph glyph-name="x" unicode="x" horiz-adv-x="841" 
d="M20 0l306 532l-279 492h186l146 -293q38 -68 45 -96h2q2 8 43 96l135 293h191l-273 -504l299 -520h-188l-168 317q-37 65 -43 97h-2q-12 -40 -45 -97l-166 -317h-189z" />
    <glyph glyph-name="y" unicode="y" horiz-adv-x="847" 
d="M154 -410q-25 0 -76 7v153q20 -2 59 -2q77 0 123 43t74 135l22 80l-338 1018h183l207 -711q20 -72 26 -131h4q6 39 29 129l186 713h176l-333 -1114q-55 -175 -138 -247.5t-204 -72.5z" />
    <glyph glyph-name="z" unicode="z" horiz-adv-x="774" 
d="M57 129l455 754h-436v141h624v-127l-450 -754h475v-143h-668v129z" />
    <glyph glyph-name="ordfeminine" unicode="&#xaa;" horiz-adv-x="929" 
d="M362 -25q-136 0 -211 79t-75 212q0 156 114 242q82 63 269 96l174 31v63q0 114 -40.5 165.5t-129.5 51.5q-101 0 -144.5 -56t-46.5 -161h-172q1 98 32 169t83.5 109t113.5 55.5t134 17.5q182 0 260 -77.5t78 -266.5v-402q0 -186 24 -303h-166q-14 103 -14 182
q-27 -95 -102 -151t-181 -56zM254 283q-3 -172 162 -172q99 0 159 71t60 193v139l-180 -35q-99 -19 -149.5 -66t-51.5 -130z" />
    <glyph glyph-name="ordmasculine" unicode="&#xba;" horiz-adv-x="970" 
d="M485 -25q-191 0 -296 133.5t-105 403.5t105 403.5t296 133.5t296.5 -133.5t105.5 -403.5t-105.5 -403.5t-296.5 -133.5zM262 512q0 -403 223 -403q224 0 224 403t-224 403q-223 0 -223 -403z" />
    <glyph glyph-name="Agrave" unicode="&#xc0;" horiz-adv-x="1112" 
d="M31 0l426 1454h198l426 -1454h-182l-117 422h-452l-117 -422h-182zM371 569h370l-151 541q-11 50 -31 166h-6q-20 -116 -31 -166z" />
    <glyph glyph-name="Aacute" unicode="&#xc1;" horiz-adv-x="1112" 
d="M31 0l426 1454h198l426 -1454h-182l-117 422h-452l-117 -422h-182zM371 569h370l-151 541q-11 50 -31 166h-6q-20 -116 -31 -166z" />
    <glyph glyph-name="Acircumflex" unicode="&#xc2;" horiz-adv-x="1112" 
d="M31 0l426 1454h198l426 -1454h-182l-117 422h-452l-117 -422h-182zM371 569h370l-151 541q-11 50 -31 166h-6q-20 -116 -31 -166z" />
    <glyph glyph-name="Atilde" unicode="&#xc3;" horiz-adv-x="1112" 
d="M31 0l426 1454h198l426 -1454h-182l-117 422h-452l-117 -422h-182zM371 569h370l-151 541q-11 50 -31 166h-6q-20 -116 -31 -166z" />
    <glyph glyph-name="Adieresis" unicode="&#xc4;" horiz-adv-x="1112" 
d="M31 0l426 1454h198l426 -1454h-182l-117 422h-452l-117 -422h-182zM371 569h370l-151 541q-11 50 -31 166h-6q-20 -116 -31 -166z" />
    <glyph glyph-name="Aring" unicode="&#xc5;" horiz-adv-x="1112" 
d="M31 0l426 1454h198l426 -1454h-182l-117 422h-452l-117 -422h-182zM371 569h370l-151 541q-11 50 -31 166h-6q-20 -116 -31 -166z" />
    <glyph glyph-name="AE" unicode="&#xc6;" horiz-adv-x="2115" 
d="M31 0l426 1454h198l426 -1454h-182l-117 422h-452l-117 -422h-182zM371 569h370l-151 541q-11 50 -31 166h-6q-20 -116 -31 -166zM1280 0v1454h733v-154h-555v-477h520v-151h-520v-518h570v-154h-748z" />
    <glyph glyph-name="Ccedilla" unicode="&#xc7;" horiz-adv-x="1148" 
d="M600 -35q-273 0 -392.5 185t-119.5 579q0 390 125 575t389 185q439 0 457 -492l-182 -18q-15 356 -279 356q-177 0 -249.5 -143t-72.5 -461q0 -323 73.5 -465.5t252.5 -142.5q126 0 197.5 89t83.5 261l176 -29q-19 -235 -135.5 -357t-323.5 -122z" />
    <glyph glyph-name="Egrave" unicode="&#xc8;" horiz-adv-x="1005" 
d="M346 154h569v-154h-747v1454h733v-154h-555v-477h520v-151h-520v-518z" />
    <glyph glyph-name="Eacute" unicode="&#xc9;" horiz-adv-x="1005" 
d="M346 154h569v-154h-747v1454h733v-154h-555v-477h520v-151h-520v-518z" />
    <glyph glyph-name="Ecircumflex" unicode="&#xca;" horiz-adv-x="1005" 
d="M346 154h569v-154h-747v1454h733v-154h-555v-477h520v-151h-520v-518z" />
    <glyph glyph-name="Edieresis" unicode="&#xcb;" horiz-adv-x="1005" 
d="M346 154h569v-154h-747v1454h733v-154h-555v-477h520v-151h-520v-518z" />
    <glyph glyph-name="Igrave" unicode="&#xcc;" horiz-adv-x="512" 
d="M346 0h-178v1454h178v-1454z" />
    <glyph glyph-name="Iacute" unicode="&#xcd;" horiz-adv-x="512" 
d="M346 0h-178v1454h178v-1454z" />
    <glyph glyph-name="Icircumflex" unicode="&#xce;" horiz-adv-x="512" 
d="M346 0h-178v1454h178v-1454z" />
    <glyph glyph-name="Idieresis" unicode="&#xcf;" horiz-adv-x="512" 
d="M346 0h-178v1454h178v-1454z" />
    <glyph glyph-name="Eth" unicode="&#xd0;" horiz-adv-x="1200" 
d="M166 0v1454h375q281 0 426 -181.5t145 -537.5q0 -363 -148.5 -549t-428.5 -186h-369zM344 143h186q192 0 292 149.5t100 442.5q0 576 -390 576h-188v-1168z" />
    <glyph glyph-name="Ntilde" unicode="&#xd1;" horiz-adv-x="1286" 
d="M166 0v1454h211l510 -1012q37 -74 71 -213h5q-11 118 -11 275v950h168v-1454h-196l-518 1036q-36 68 -76 213h-4q10 -130 10 -243v-1006h-170z" />
    <glyph glyph-name="Ograve" unicode="&#xd2;" horiz-adv-x="1224" 
d="M612 -35q-524 0 -524 762t524 762q525 0 525 -762t-525 -762zM279 727q0 -314 84 -461t249 -147t249.5 147t84.5 461t-84.5 461t-249.5 147t-249 -147t-84 -461z" />
    <glyph glyph-name="Oacute" unicode="&#xd3;" horiz-adv-x="1224" 
d="M612 -35q-524 0 -524 762t524 762q525 0 525 -762t-525 -762zM279 727q0 -314 84 -461t249 -147t249.5 147t84.5 461t-84.5 461t-249.5 147t-249 -147t-84 -461z" />
    <glyph glyph-name="Ocircumflex" unicode="&#xd4;" horiz-adv-x="1224" 
d="M612 -35q-524 0 -524 762t524 762q525 0 525 -762t-525 -762zM279 727q0 -314 84 -461t249 -147t249.5 147t84.5 461t-84.5 461t-249.5 147t-249 -147t-84 -461z" />
    <glyph glyph-name="Otilde" unicode="&#xd5;" horiz-adv-x="1224" 
d="M612 -35q-524 0 -524 762t524 762q525 0 525 -762t-525 -762zM279 727q0 -314 84 -461t249 -147t249.5 147t84.5 461t-84.5 461t-249.5 147t-249 -147t-84 -461z" />
    <glyph glyph-name="Odieresis" unicode="&#xd6;" horiz-adv-x="1224" 
d="M612 -35q-524 0 -524 762t524 762q525 0 525 -762t-525 -762zM279 727q0 -314 84 -461t249 -147t249.5 147t84.5 461t-84.5 461t-249.5 147t-249 -147t-84 -461z" />
    <glyph glyph-name="Oslash" unicode="&#xd8;" horiz-adv-x="1224" 
d="M612 -35q-524 0 -524 762t524 762q525 0 525 -762t-525 -762zM279 727q0 -314 84 -461t249 -147t249.5 147t84.5 461t-84.5 461t-249.5 147t-249 -147t-84 -461z" />
    <glyph glyph-name="Ugrave" unicode="&#xd9;" horiz-adv-x="1210" 
d="M150 1454h178v-1028q0 -142 72.5 -222.5t205.5 -80.5q132 0 204.5 80.5t72.5 222.5v1028h178v-1040q0 -204 -119.5 -326.5t-335.5 -122.5q-217 0 -336.5 122.5t-119.5 326.5v1040z" />
    <glyph glyph-name="Uacute" unicode="&#xda;" horiz-adv-x="1210" 
d="M150 1454h178v-1028q0 -142 72.5 -222.5t205.5 -80.5q132 0 204.5 80.5t72.5 222.5v1028h178v-1040q0 -204 -119.5 -326.5t-335.5 -122.5q-217 0 -336.5 122.5t-119.5 326.5v1040z" />
    <glyph glyph-name="Ucircumflex" unicode="&#xdb;" horiz-adv-x="1210" 
d="M150 1454h178v-1028q0 -142 72.5 -222.5t205.5 -80.5q132 0 204.5 80.5t72.5 222.5v1028h178v-1040q0 -204 -119.5 -326.5t-335.5 -122.5q-217 0 -336.5 122.5t-119.5 326.5v1040z" />
    <glyph glyph-name="Udieresis" unicode="&#xdc;" horiz-adv-x="1210" 
d="M150 1454h178v-1028q0 -142 72.5 -222.5t205.5 -80.5q132 0 204.5 80.5t72.5 222.5v1028h178v-1040q0 -204 -119.5 -326.5t-335.5 -122.5q-217 0 -336.5 122.5t-119.5 326.5v1040z" />
    <glyph glyph-name="Yacute" unicode="&#xdd;" horiz-adv-x="1013" 
d="M418 0v602l-402 852h197l256 -577q26 -61 35 -107h4q7 36 37 107l256 577h196l-401 -852v-602h-178z" />
    <glyph glyph-name="Thorn" unicode="&#xde;" horiz-adv-x="1032" 
d="M344 0h-178v1454h401q203 0 316.5 -110.5t113.5 -303.5q0 -208 -113 -323t-313 -115h-227v-602zM344 745h211q120 0 185 75.5t65 219.5q0 132 -66 202.5t-186 70.5h-209v-568z" />
    <glyph glyph-name="agrave" unicode="&#xe0;" horiz-adv-x="929" 
d="M362 -25q-136 0 -211 79t-75 212q0 156 114 242q82 63 269 96l174 31v63q0 114 -40.5 165.5t-129.5 51.5q-101 0 -144.5 -56t-46.5 -161h-172q1 98 32 169t83.5 109t113.5 55.5t134 17.5q182 0 260 -77.5t78 -266.5v-402q0 -186 24 -303h-166q-14 103 -14 182
q-27 -95 -102 -151t-181 -56zM254 283q-3 -172 162 -172q99 0 159 71t60 193v139l-180 -35q-99 -19 -149.5 -66t-51.5 -130z" />
    <glyph glyph-name="aacute" unicode="&#xe1;" horiz-adv-x="929" 
d="M362 -25q-136 0 -211 79t-75 212q0 156 114 242q82 63 269 96l174 31v63q0 114 -40.5 165.5t-129.5 51.5q-101 0 -144.5 -56t-46.5 -161h-172q1 98 32 169t83.5 109t113.5 55.5t134 17.5q182 0 260 -77.5t78 -266.5v-402q0 -186 24 -303h-166q-14 103 -14 182
q-27 -95 -102 -151t-181 -56zM254 283q-3 -172 162 -172q99 0 159 71t60 193v139l-180 -35q-99 -19 -149.5 -66t-51.5 -130z" />
    <glyph glyph-name="acircumflex" unicode="&#xe2;" horiz-adv-x="929" 
d="M362 -25q-136 0 -211 79t-75 212q0 156 114 242q82 63 269 96l174 31v63q0 114 -40.5 165.5t-129.5 51.5q-101 0 -144.5 -56t-46.5 -161h-172q1 98 32 169t83.5 109t113.5 55.5t134 17.5q182 0 260 -77.5t78 -266.5v-402q0 -186 24 -303h-166q-14 103 -14 182
q-27 -95 -102 -151t-181 -56zM254 283q-3 -172 162 -172q99 0 159 71t60 193v139l-180 -35q-99 -19 -149.5 -66t-51.5 -130z" />
    <glyph glyph-name="atilde" unicode="&#xe3;" horiz-adv-x="929" 
d="M362 -25q-136 0 -211 79t-75 212q0 156 114 242q82 63 269 96l174 31v63q0 114 -40.5 165.5t-129.5 51.5q-101 0 -144.5 -56t-46.5 -161h-172q1 98 32 169t83.5 109t113.5 55.5t134 17.5q182 0 260 -77.5t78 -266.5v-402q0 -186 24 -303h-166q-14 103 -14 182
q-27 -95 -102 -151t-181 -56zM254 283q-3 -172 162 -172q99 0 159 71t60 193v139l-180 -35q-99 -19 -149.5 -66t-51.5 -130z" />
    <glyph glyph-name="adieresis" unicode="&#xe4;" horiz-adv-x="929" 
d="M362 -25q-136 0 -211 79t-75 212q0 156 114 242q82 63 269 96l174 31v63q0 114 -40.5 165.5t-129.5 51.5q-101 0 -144.5 -56t-46.5 -161h-172q1 98 32 169t83.5 109t113.5 55.5t134 17.5q182 0 260 -77.5t78 -266.5v-402q0 -186 24 -303h-166q-14 103 -14 182
q-27 -95 -102 -151t-181 -56zM254 283q-3 -172 162 -172q99 0 159 71t60 193v139l-180 -35q-99 -19 -149.5 -66t-51.5 -130z" />
    <glyph glyph-name="aring" unicode="&#xe5;" horiz-adv-x="929" 
d="M362 -25q-136 0 -211 79t-75 212q0 156 114 242q82 63 269 96l174 31v63q0 114 -40.5 165.5t-129.5 51.5q-101 0 -144.5 -56t-46.5 -161h-172q1 98 32 169t83.5 109t113.5 55.5t134 17.5q182 0 260 -77.5t78 -266.5v-402q0 -186 24 -303h-166q-14 103 -14 182
q-27 -95 -102 -151t-181 -56zM254 283q-3 -172 162 -172q99 0 159 71t60 193v139l-180 -35q-99 -19 -149.5 -66t-51.5 -130z" />
    <glyph glyph-name="ae" unicode="&#xe6;" horiz-adv-x="1855" 
d="M362 -25q-136 0 -211 79t-75 212q0 156 114 242q82 63 269 96l174 31v63q0 114 -40.5 165.5t-129.5 51.5q-101 0 -144.5 -56t-46.5 -161h-172q1 98 32 169t83.5 109t113.5 55.5t134 17.5q182 0 260 -77.5t78 -266.5v-402q0 -186 24 -303h-166q-14 103 -14 182
q-27 -95 -102 -151t-181 -56zM254 283q-3 -172 162 -172q99 0 159 71t60 193v139l-180 -35q-99 -19 -149.5 -66t-51.5 -130zM1008 512q0 116 20 208t55.5 153t85.5 101t107.5 57.5t124.5 17.5q176 0 272 -115.5t96 -329.5v-131h-593q5 -180 60 -265t173 -85q176 0 209 190
l149 -45q-26 -143 -120.5 -218t-241.5 -75q-70 0 -128.5 17.5t-109 57.5t-85.5 101t-54.5 152.5t-19.5 208.5zM1176 600h423q0 164 -49.5 241t-148.5 77q-49 0 -86 -14t-69 -48.5t-50 -98.5t-20 -157z" />
    <glyph glyph-name="ccedilla" unicode="&#xe7;" horiz-adv-x="907" 
d="M477 -25q-393 0 -393 537t393 537q161 0 252.5 -95t97.5 -280l-172 -21q-9 256 -182 256q-106 0 -159.5 -91.5t-53.5 -305.5q0 -212 55 -302.5t164 -90.5q84 0 130.5 64.5t49.5 195.5l172 -27q-7 -181 -102.5 -279t-251.5 -98z" />
    <glyph glyph-name="egrave" unicode="&#xe8;" horiz-adv-x="931" 
d="M481 -25q-70 0 -128.5 17.5t-109 57.5t-85.5 101t-54.5 152.5t-19.5 208.5q0 116 20 208t55.5 153t85.5 101t107.5 57.5t124.5 17.5q176 0 272.5 -115.5t96.5 -329.5v-131h-594q5 -180 60 -265t173 -85q176 0 209 190l150 -45q-26 -143 -121 -218t-242 -75zM252 600h424
q0 164 -50 241t-149 77q-49 0 -86 -14t-69 -48.5t-50 -98.5t-20 -157z" />
    <glyph glyph-name="eacute" unicode="&#xe9;" horiz-adv-x="931" 
d="M481 -25q-70 0 -128.5 17.5t-109 57.5t-85.5 101t-54.5 152.5t-19.5 208.5q0 116 20 208t55.5 153t85.5 101t107.5 57.5t124.5 17.5q176 0 272.5 -115.5t96.5 -329.5v-131h-594q5 -180 60 -265t173 -85q176 0 209 190l150 -45q-26 -143 -121 -218t-242 -75zM252 600h424
q0 164 -50 241t-149 77q-49 0 -86 -14t-69 -48.5t-50 -98.5t-20 -157z" />
    <glyph glyph-name="ecircumflex" unicode="&#xea;" horiz-adv-x="931" 
d="M481 -25q-70 0 -128.5 17.5t-109 57.5t-85.5 101t-54.5 152.5t-19.5 208.5q0 116 20 208t55.5 153t85.5 101t107.5 57.5t124.5 17.5q176 0 272.5 -115.5t96.5 -329.5v-131h-594q5 -180 60 -265t173 -85q176 0 209 190l150 -45q-26 -143 -121 -218t-242 -75zM252 600h424
q0 164 -50 241t-149 77q-49 0 -86 -14t-69 -48.5t-50 -98.5t-20 -157z" />
    <glyph glyph-name="edieresis" unicode="&#xeb;" horiz-adv-x="931" 
d="M481 -25q-70 0 -128.5 17.5t-109 57.5t-85.5 101t-54.5 152.5t-19.5 208.5q0 116 20 208t55.5 153t85.5 101t107.5 57.5t124.5 17.5q176 0 272.5 -115.5t96.5 -329.5v-131h-594q5 -180 60 -265t173 -85q176 0 209 190l150 -45q-26 -143 -121 -218t-242 -75zM252 600h424
q0 164 -50 241t-149 77q-49 0 -86 -14t-69 -48.5t-50 -98.5t-20 -157z" />
    <glyph glyph-name="igrave" unicode="&#xec;" 
d="M150 0v1024h167v-1024h-167zM139 1206v224h187v-224h-187z" />
    <glyph glyph-name="iacute" unicode="&#xed;" 
d="M150 0v1024h167v-1024h-167zM139 1206v224h187v-224h-187z" />
    <glyph glyph-name="icircumflex" unicode="&#xee;" 
d="M150 0v1024h167v-1024h-167zM139 1206v224h187v-224h-187z" />
    <glyph glyph-name="idieresis" unicode="&#xef;" 
d="M150 0v1024h167v-1024h-167zM139 1206v224h187v-224h-187z" />
    <glyph glyph-name="ntilde" unicode="&#xf1;" horiz-adv-x="989" 
d="M150 0v1024h157v-190q79 215 285 215q270 0 270 -349v-700h-166v686q0 112 -42 166.5t-128 54.5q-102 0 -155.5 -86.5t-53.5 -255.5v-565h-167z" />
    <glyph glyph-name="ograve" unicode="&#xf2;" horiz-adv-x="970" 
d="M485 -25q-191 0 -296 133.5t-105 403.5t105 403.5t296 133.5t296.5 -133.5t105.5 -403.5t-105.5 -403.5t-296.5 -133.5zM262 512q0 -403 223 -403q224 0 224 403t-224 403q-223 0 -223 -403z" />
    <glyph glyph-name="oacute" unicode="&#xf3;" horiz-adv-x="970" 
d="M485 -25q-191 0 -296 133.5t-105 403.5t105 403.5t296 133.5t296.5 -133.5t105.5 -403.5t-105.5 -403.5t-296.5 -133.5zM262 512q0 -403 223 -403q224 0 224 403t-224 403q-223 0 -223 -403z" />
    <glyph glyph-name="ocircumflex" unicode="&#xf4;" horiz-adv-x="970" 
d="M485 -25q-191 0 -296 133.5t-105 403.5t105 403.5t296 133.5t296.5 -133.5t105.5 -403.5t-105.5 -403.5t-296.5 -133.5zM262 512q0 -403 223 -403q224 0 224 403t-224 403q-223 0 -223 -403z" />
    <glyph glyph-name="otilde" unicode="&#xf5;" horiz-adv-x="970" 
d="M485 -25q-191 0 -296 133.5t-105 403.5t105 403.5t296 133.5t296.5 -133.5t105.5 -403.5t-105.5 -403.5t-296.5 -133.5zM262 512q0 -403 223 -403q224 0 224 403t-224 403q-223 0 -223 -403z" />
    <glyph glyph-name="odieresis" unicode="&#xf6;" horiz-adv-x="970" 
d="M485 -25q-191 0 -296 133.5t-105 403.5t105 403.5t296 133.5t296.5 -133.5t105.5 -403.5t-105.5 -403.5t-296.5 -133.5zM262 512q0 -403 223 -403q224 0 224 403t-224 403q-223 0 -223 -403z" />
    <glyph glyph-name="oslash" unicode="&#xf8;" horiz-adv-x="970" 
d="M485 -25q-191 0 -296 133.5t-105 403.5t105 403.5t296 133.5t296.5 -133.5t105.5 -403.5t-105.5 -403.5t-296.5 -133.5zM262 512q0 -403 223 -403q224 0 224 403t-224 403q-223 0 -223 -403z" />
    <glyph glyph-name="ugrave" unicode="&#xf9;" horiz-adv-x="980" 
d="M408 -25q-152 0 -216.5 93.5t-64.5 261.5v694h168v-686q0 -217 162 -217q96 0 151.5 85t55.5 232v586h165v-1024h-155v180q-28 -93 -99 -149t-167 -56z" />
    <glyph glyph-name="uacute" unicode="&#xfa;" horiz-adv-x="980" 
d="M408 -25q-152 0 -216.5 93.5t-64.5 261.5v694h168v-686q0 -217 162 -217q96 0 151.5 85t55.5 232v586h165v-1024h-155v180q-28 -93 -99 -149t-167 -56z" />
    <glyph glyph-name="ucircumflex" unicode="&#xfb;" horiz-adv-x="980" 
d="M408 -25q-152 0 -216.5 93.5t-64.5 261.5v694h168v-686q0 -217 162 -217q96 0 151.5 85t55.5 232v586h165v-1024h-155v180q-28 -93 -99 -149t-167 -56z" />
    <glyph glyph-name="udieresis" unicode="&#xfc;" horiz-adv-x="980" 
d="M408 -25q-152 0 -216.5 93.5t-64.5 261.5v694h168v-686q0 -217 162 -217q96 0 151.5 85t55.5 232v586h165v-1024h-155v180q-28 -93 -99 -149t-167 -56z" />
    <glyph glyph-name="yacute" unicode="&#xfd;" horiz-adv-x="847" 
d="M154 -410q-25 0 -76 7v153q20 -2 59 -2q77 0 123 43t74 135l22 80l-338 1018h183l207 -711q20 -72 26 -131h4q6 39 29 129l186 713h176l-333 -1114q-55 -175 -138 -247.5t-204 -72.5z" />
    <glyph glyph-name="thorn" unicode="&#xfe;" horiz-adv-x="1030" 
d="M150 -399v1423h161v-199q32 106 107.5 165t179.5 59q167 0 256.5 -138.5t89.5 -398.5q0 -253 -94.5 -395t-263.5 -142q-101 0 -168 55t-99 156l-2 -585h-167zM322 422q0 -141 60 -224t163 -83q213 0 213 397t-213 397q-103 0 -163 -83t-60 -224v-180z" />
    <glyph glyph-name="ydieresis" unicode="&#xff;" horiz-adv-x="847" 
d="M154 -410q-25 0 -76 7v153q20 -2 59 -2q77 0 123 43t74 135l22 80l-338 1018h183l207 -711q20 -72 26 -131h4q6 39 29 129l186 713h176l-333 -1114q-55 -175 -138 -247.5t-204 -72.5z" />
    <glyph glyph-name="Amacron" unicode="&#x100;" horiz-adv-x="1112" 
d="M31 0l426 1454h198l426 -1454h-182l-117 422h-452l-117 -422h-182zM371 569h370l-151 541q-11 50 -31 166h-6q-20 -116 -31 -166z" />
    <glyph glyph-name="amacron" unicode="&#x101;" horiz-adv-x="929" 
d="M362 -25q-136 0 -211 79t-75 212q0 156 114 242q82 63 269 96l174 31v63q0 114 -40.5 165.5t-129.5 51.5q-101 0 -144.5 -56t-46.5 -161h-172q1 98 32 169t83.5 109t113.5 55.5t134 17.5q182 0 260 -77.5t78 -266.5v-402q0 -186 24 -303h-166q-14 103 -14 182
q-27 -95 -102 -151t-181 -56zM254 283q-3 -172 162 -172q99 0 159 71t60 193v139l-180 -35q-99 -19 -149.5 -66t-51.5 -130z" />
    <glyph glyph-name="Abreve" unicode="&#x102;" horiz-adv-x="1112" 
d="M31 0l426 1454h198l426 -1454h-182l-117 422h-452l-117 -422h-182zM371 569h370l-151 541q-11 50 -31 166h-6q-20 -116 -31 -166z" />
    <glyph glyph-name="abreve" unicode="&#x103;" horiz-adv-x="929" 
d="M362 -25q-136 0 -211 79t-75 212q0 156 114 242q82 63 269 96l174 31v63q0 114 -40.5 165.5t-129.5 51.5q-101 0 -144.5 -56t-46.5 -161h-172q1 98 32 169t83.5 109t113.5 55.5t134 17.5q182 0 260 -77.5t78 -266.5v-402q0 -186 24 -303h-166q-14 103 -14 182
q-27 -95 -102 -151t-181 -56zM254 283q-3 -172 162 -172q99 0 159 71t60 193v139l-180 -35q-99 -19 -149.5 -66t-51.5 -130z" />
    <glyph glyph-name="Aogonek" unicode="&#x104;" horiz-adv-x="1112" 
d="M31 0l426 1454h198l426 -1454h-182l-117 422h-452l-117 -422h-182zM371 569h370l-151 541q-11 50 -31 166h-6q-20 -116 -31 -166z" />
    <glyph glyph-name="aogonek" unicode="&#x105;" horiz-adv-x="929" 
d="M362 -25q-136 0 -211 79t-75 212q0 156 114 242q82 63 269 96l174 31v63q0 114 -40.5 165.5t-129.5 51.5q-101 0 -144.5 -56t-46.5 -161h-172q1 98 32 169t83.5 109t113.5 55.5t134 17.5q182 0 260 -77.5t78 -266.5v-402q0 -186 24 -303h-166q-14 103 -14 182
q-27 -95 -102 -151t-181 -56zM254 283q-3 -172 162 -172q99 0 159 71t60 193v139l-180 -35q-99 -19 -149.5 -66t-51.5 -130z" />
    <glyph glyph-name="Cacute" unicode="&#x106;" horiz-adv-x="1148" 
d="M600 -35q-273 0 -392.5 185t-119.5 579q0 390 125 575t389 185q439 0 457 -492l-182 -18q-15 356 -279 356q-177 0 -249.5 -143t-72.5 -461q0 -323 73.5 -465.5t252.5 -142.5q126 0 197.5 89t83.5 261l176 -29q-19 -235 -135.5 -357t-323.5 -122z" />
    <glyph glyph-name="cacute" unicode="&#x107;" horiz-adv-x="907" 
d="M477 -25q-393 0 -393 537t393 537q161 0 252.5 -95t97.5 -280l-172 -21q-9 256 -182 256q-106 0 -159.5 -91.5t-53.5 -305.5q0 -212 55 -302.5t164 -90.5q84 0 130.5 64.5t49.5 195.5l172 -27q-7 -181 -102.5 -279t-251.5 -98z" />
    <glyph glyph-name="Ccircumflex" unicode="&#x108;" horiz-adv-x="1148" 
d="M600 -35q-273 0 -392.5 185t-119.5 579q0 390 125 575t389 185q439 0 457 -492l-182 -18q-15 356 -279 356q-177 0 -249.5 -143t-72.5 -461q0 -323 73.5 -465.5t252.5 -142.5q126 0 197.5 89t83.5 261l176 -29q-19 -235 -135.5 -357t-323.5 -122z" />
    <glyph glyph-name="ccircumflex" unicode="&#x109;" horiz-adv-x="907" 
d="M477 -25q-393 0 -393 537t393 537q161 0 252.5 -95t97.5 -280l-172 -21q-9 256 -182 256q-106 0 -159.5 -91.5t-53.5 -305.5q0 -212 55 -302.5t164 -90.5q84 0 130.5 64.5t49.5 195.5l172 -27q-7 -181 -102.5 -279t-251.5 -98z" />
    <glyph glyph-name="Cdotaccent" unicode="&#x10a;" horiz-adv-x="1148" 
d="M600 -35q-273 0 -392.5 185t-119.5 579q0 390 125 575t389 185q439 0 457 -492l-182 -18q-15 356 -279 356q-177 0 -249.5 -143t-72.5 -461q0 -323 73.5 -465.5t252.5 -142.5q126 0 197.5 89t83.5 261l176 -29q-19 -235 -135.5 -357t-323.5 -122z" />
    <glyph glyph-name="cdotaccent" unicode="&#x10b;" horiz-adv-x="907" 
d="M477 -25q-393 0 -393 537t393 537q161 0 252.5 -95t97.5 -280l-172 -21q-9 256 -182 256q-106 0 -159.5 -91.5t-53.5 -305.5q0 -212 55 -302.5t164 -90.5q84 0 130.5 64.5t49.5 195.5l172 -27q-7 -181 -102.5 -279t-251.5 -98z" />
    <glyph glyph-name="Ccaron" unicode="&#x10c;" horiz-adv-x="1148" 
d="M600 -35q-273 0 -392.5 185t-119.5 579q0 390 125 575t389 185q439 0 457 -492l-182 -18q-15 356 -279 356q-177 0 -249.5 -143t-72.5 -461q0 -323 73.5 -465.5t252.5 -142.5q126 0 197.5 89t83.5 261l176 -29q-19 -235 -135.5 -357t-323.5 -122z" />
    <glyph glyph-name="ccaron" unicode="&#x10d;" horiz-adv-x="907" 
d="M477 -25q-393 0 -393 537t393 537q161 0 252.5 -95t97.5 -280l-172 -21q-9 256 -182 256q-106 0 -159.5 -91.5t-53.5 -305.5q0 -212 55 -302.5t164 -90.5q84 0 130.5 64.5t49.5 195.5l172 -27q-7 -181 -102.5 -279t-251.5 -98z" />
    <glyph glyph-name="Dcaron" unicode="&#x10e;" horiz-adv-x="1200" 
d="M166 0v1454h375q281 0 426 -181.5t145 -537.5q0 -363 -148.5 -549t-428.5 -186h-369zM344 143h186q192 0 292 149.5t100 442.5q0 576 -390 576h-188v-1168z" />
    <glyph glyph-name="dcaron" unicode="&#x10f;" horiz-adv-x="1021" 
d="M434 -25q-167 0 -257.5 140t-90.5 401q0 255 93 394t263 139q99 0 166.5 -53t96.5 -154v643h167v-1485h-157v201q-37 -109 -110 -167.5t-171 -58.5zM268 516q0 -212 54 -306.5t176 -94.5q99 0 155 83t56 230v168q0 147 -56 230t-155 83q-121 0 -175.5 -93t-54.5 -300z
" />
    <glyph glyph-name="Dcroat" unicode="&#x110;" horiz-adv-x="1200" 
d="M166 0v1454h375q281 0 426 -181.5t145 -537.5q0 -363 -148.5 -549t-428.5 -186h-369zM344 143h186q192 0 292 149.5t100 442.5q0 576 -390 576h-188v-1168z" />
    <glyph glyph-name="dcroat" unicode="&#x111;" horiz-adv-x="1021" 
d="M434 -25q-167 0 -257.5 140t-90.5 401q0 255 93 394t263 139q99 0 166.5 -53t96.5 -154v643h167v-1485h-157v201q-37 -109 -110 -167.5t-171 -58.5zM268 516q0 -212 54 -306.5t176 -94.5q99 0 155 83t56 230v168q0 147 -56 230t-155 83q-121 0 -175.5 -93t-54.5 -300z
" />
    <glyph glyph-name="Emacron" unicode="&#x112;" horiz-adv-x="1005" 
d="M346 154h569v-154h-747v1454h733v-154h-555v-477h520v-151h-520v-518z" />
    <glyph glyph-name="emacron" unicode="&#x113;" horiz-adv-x="931" 
d="M481 -25q-70 0 -128.5 17.5t-109 57.5t-85.5 101t-54.5 152.5t-19.5 208.5q0 116 20 208t55.5 153t85.5 101t107.5 57.5t124.5 17.5q176 0 272.5 -115.5t96.5 -329.5v-131h-594q5 -180 60 -265t173 -85q176 0 209 190l150 -45q-26 -143 -121 -218t-242 -75zM252 600h424
q0 164 -50 241t-149 77q-49 0 -86 -14t-69 -48.5t-50 -98.5t-20 -157z" />
    <glyph glyph-name="Ebreve" unicode="&#x114;" horiz-adv-x="1005" 
d="M346 154h569v-154h-747v1454h733v-154h-555v-477h520v-151h-520v-518z" />
    <glyph glyph-name="ebreve" unicode="&#x115;" horiz-adv-x="931" 
d="M481 -25q-70 0 -128.5 17.5t-109 57.5t-85.5 101t-54.5 152.5t-19.5 208.5q0 116 20 208t55.5 153t85.5 101t107.5 57.5t124.5 17.5q176 0 272.5 -115.5t96.5 -329.5v-131h-594q5 -180 60 -265t173 -85q176 0 209 190l150 -45q-26 -143 -121 -218t-242 -75zM252 600h424
q0 164 -50 241t-149 77q-49 0 -86 -14t-69 -48.5t-50 -98.5t-20 -157z" />
    <glyph glyph-name="Edotaccent" unicode="&#x116;" horiz-adv-x="1005" 
d="M346 154h569v-154h-747v1454h733v-154h-555v-477h520v-151h-520v-518z" />
    <glyph glyph-name="edotaccent" unicode="&#x117;" horiz-adv-x="931" 
d="M481 -25q-70 0 -128.5 17.5t-109 57.5t-85.5 101t-54.5 152.5t-19.5 208.5q0 116 20 208t55.5 153t85.5 101t107.5 57.5t124.5 17.5q176 0 272.5 -115.5t96.5 -329.5v-131h-594q5 -180 60 -265t173 -85q176 0 209 190l150 -45q-26 -143 -121 -218t-242 -75zM252 600h424
q0 164 -50 241t-149 77q-49 0 -86 -14t-69 -48.5t-50 -98.5t-20 -157z" />
    <glyph glyph-name="Eogonek" unicode="&#x118;" horiz-adv-x="1005" 
d="M346 154h569v-154h-747v1454h733v-154h-555v-477h520v-151h-520v-518z" />
    <glyph glyph-name="eogonek" unicode="&#x119;" horiz-adv-x="931" 
d="M481 -25q-70 0 -128.5 17.5t-109 57.5t-85.5 101t-54.5 152.5t-19.5 208.5q0 116 20 208t55.5 153t85.5 101t107.5 57.5t124.5 17.5q176 0 272.5 -115.5t96.5 -329.5v-131h-594q5 -180 60 -265t173 -85q176 0 209 190l150 -45q-26 -143 -121 -218t-242 -75zM252 600h424
q0 164 -50 241t-149 77q-49 0 -86 -14t-69 -48.5t-50 -98.5t-20 -157z" />
    <glyph glyph-name="Ecaron" unicode="&#x11a;" horiz-adv-x="1005" 
d="M346 154h569v-154h-747v1454h733v-154h-555v-477h520v-151h-520v-518z" />
    <glyph glyph-name="ecaron" unicode="&#x11b;" horiz-adv-x="931" 
d="M481 -25q-70 0 -128.5 17.5t-109 57.5t-85.5 101t-54.5 152.5t-19.5 208.5q0 116 20 208t55.5 153t85.5 101t107.5 57.5t124.5 17.5q176 0 272.5 -115.5t96.5 -329.5v-131h-594q5 -180 60 -265t173 -85q176 0 209 190l150 -45q-26 -143 -121 -218t-242 -75zM252 600h424
q0 164 -50 241t-149 77q-49 0 -86 -14t-69 -48.5t-50 -98.5t-20 -157z" />
    <glyph glyph-name="Gcircumflex" unicode="&#x11c;" horiz-adv-x="1187" 
d="M555 -35q-230 0 -348.5 194.5t-118.5 567.5q0 387 130 574.5t390 187.5q96 0 173 -25t128 -67.5t86.5 -103t53 -126.5t22.5 -143l-188 -29q-6 78 -22 136.5t-46.5 108t-84 75.5t-128.5 26q-165 0 -245.5 -146.5t-80.5 -467.5q0 -610 330 -610q74 0 129.5 25.5t88.5 65
t53 98t27 115t7 124.5v71h-321v150h495v-766h-135l-14 250q-39 -134 -136.5 -209.5t-244.5 -75.5z" />
    <glyph glyph-name="gcircumflex" unicode="&#x11d;" horiz-adv-x="884" 
d="M461 -424q-200 0 -303 73t-103 199q0 75 43.5 131t124.5 80q-125 49 -125 172q0 64 38 109.5t104 69.5q-131 90 -131 288q0 161 90 256t256 95q98 0 170 -35q24 82 81 129t142 47q23 0 47 -6v-140q-34 9 -66 9q-98 0 -141 -78q111 -91 111 -275q0 -164 -88.5 -257
t-255.5 -93q-85 0 -158 29q-59 -27 -59 -88q0 -90 135 -101l229 -20q134 -12 212.5 -85.5t78.5 -193.5q0 -151 -110 -233t-322 -82zM211 -115q0 -93 68.5 -141.5t191.5 -48.5q258 0 258 176q0 71 -42 107t-128 42l-227 17q-13 0 -29 4q-92 -47 -92 -156zM272 698
q0 -115 49 -176t134 -61t132.5 61t47.5 178q0 115 -47.5 174.5t-132.5 59.5q-86 0 -134.5 -60.5t-48.5 -175.5z" />
    <glyph glyph-name="Gbreve" unicode="&#x11e;" horiz-adv-x="1187" 
d="M555 -35q-230 0 -348.5 194.5t-118.5 567.5q0 387 130 574.5t390 187.5q96 0 173 -25t128 -67.5t86.5 -103t53 -126.5t22.5 -143l-188 -29q-6 78 -22 136.5t-46.5 108t-84 75.5t-128.5 26q-165 0 -245.5 -146.5t-80.5 -467.5q0 -610 330 -610q74 0 129.5 25.5t88.5 65
t53 98t27 115t7 124.5v71h-321v150h495v-766h-135l-14 250q-39 -134 -136.5 -209.5t-244.5 -75.5z" />
    <glyph glyph-name="gbreve" unicode="&#x11f;" horiz-adv-x="884" 
d="M461 -424q-200 0 -303 73t-103 199q0 75 43.5 131t124.5 80q-125 49 -125 172q0 64 38 109.5t104 69.5q-131 90 -131 288q0 161 90 256t256 95q98 0 170 -35q24 82 81 129t142 47q23 0 47 -6v-140q-34 9 -66 9q-98 0 -141 -78q111 -91 111 -275q0 -164 -88.5 -257
t-255.5 -93q-85 0 -158 29q-59 -27 -59 -88q0 -90 135 -101l229 -20q134 -12 212.5 -85.5t78.5 -193.5q0 -151 -110 -233t-322 -82zM211 -115q0 -93 68.5 -141.5t191.5 -48.5q258 0 258 176q0 71 -42 107t-128 42l-227 17q-13 0 -29 4q-92 -47 -92 -156zM272 698
q0 -115 49 -176t134 -61t132.5 61t47.5 178q0 115 -47.5 174.5t-132.5 59.5q-86 0 -134.5 -60.5t-48.5 -175.5z" />
    <glyph glyph-name="Gdotaccent" unicode="&#x120;" horiz-adv-x="1187" 
d="M555 -35q-230 0 -348.5 194.5t-118.5 567.5q0 387 130 574.5t390 187.5q96 0 173 -25t128 -67.5t86.5 -103t53 -126.5t22.5 -143l-188 -29q-6 78 -22 136.5t-46.5 108t-84 75.5t-128.5 26q-165 0 -245.5 -146.5t-80.5 -467.5q0 -610 330 -610q74 0 129.5 25.5t88.5 65
t53 98t27 115t7 124.5v71h-321v150h495v-766h-135l-14 250q-39 -134 -136.5 -209.5t-244.5 -75.5z" />
    <glyph glyph-name="gdotaccent" unicode="&#x121;" horiz-adv-x="884" 
d="M461 -424q-200 0 -303 73t-103 199q0 75 43.5 131t124.5 80q-125 49 -125 172q0 64 38 109.5t104 69.5q-131 90 -131 288q0 161 90 256t256 95q98 0 170 -35q24 82 81 129t142 47q23 0 47 -6v-140q-34 9 -66 9q-98 0 -141 -78q111 -91 111 -275q0 -164 -88.5 -257
t-255.5 -93q-85 0 -158 29q-59 -27 -59 -88q0 -90 135 -101l229 -20q134 -12 212.5 -85.5t78.5 -193.5q0 -151 -110 -233t-322 -82zM211 -115q0 -93 68.5 -141.5t191.5 -48.5q258 0 258 176q0 71 -42 107t-128 42l-227 17q-13 0 -29 4q-92 -47 -92 -156zM272 698
q0 -115 49 -176t134 -61t132.5 61t47.5 178q0 115 -47.5 174.5t-132.5 59.5q-86 0 -134.5 -60.5t-48.5 -175.5z" />
    <glyph glyph-name="uni0122" unicode="&#x122;" horiz-adv-x="1187" 
d="M555 -35q-230 0 -348.5 194.5t-118.5 567.5q0 387 130 574.5t390 187.5q96 0 173 -25t128 -67.5t86.5 -103t53 -126.5t22.5 -143l-188 -29q-6 78 -22 136.5t-46.5 108t-84 75.5t-128.5 26q-165 0 -245.5 -146.5t-80.5 -467.5q0 -610 330 -610q74 0 129.5 25.5t88.5 65
t53 98t27 115t7 124.5v71h-321v150h495v-766h-135l-14 250q-39 -134 -136.5 -209.5t-244.5 -75.5z" />
    <glyph glyph-name="uni0123" unicode="&#x123;" horiz-adv-x="884" 
d="M461 -424q-200 0 -303 73t-103 199q0 75 43.5 131t124.5 80q-125 49 -125 172q0 64 38 109.5t104 69.5q-131 90 -131 288q0 161 90 256t256 95q98 0 170 -35q24 82 81 129t142 47q23 0 47 -6v-140q-34 9 -66 9q-98 0 -141 -78q111 -91 111 -275q0 -164 -88.5 -257
t-255.5 -93q-85 0 -158 29q-59 -27 -59 -88q0 -90 135 -101l229 -20q134 -12 212.5 -85.5t78.5 -193.5q0 -151 -110 -233t-322 -82zM211 -115q0 -93 68.5 -141.5t191.5 -48.5q258 0 258 176q0 71 -42 107t-128 42l-227 17q-13 0 -29 4q-92 -47 -92 -156zM272 698
q0 -115 49 -176t134 -61t132.5 61t47.5 178q0 115 -47.5 174.5t-132.5 59.5q-86 0 -134.5 -60.5t-48.5 -175.5z" />
    <glyph glyph-name="Hcircumflex" unicode="&#x124;" horiz-adv-x="1249" 
d="M1081 1454v-1454h-178v672h-557v-672h-178v1454h178v-635h557v635h178z" />
    <glyph glyph-name="hcircumflex" unicode="&#x125;" horiz-adv-x="989" 
d="M150 0v1485h167v-645q32 102 103 155.5t174 53.5q268 0 268 -349v-700h-166v688q0 219 -170 219q-209 0 -209 -342v-565h-167z" />
    <glyph glyph-name="Hbar" unicode="&#x126;" horiz-adv-x="1249" 
d="M1081 1454v-1454h-178v672h-557v-672h-178v1454h178v-635h557v635h178z" />
    <glyph glyph-name="hbar" unicode="&#x127;" horiz-adv-x="989" 
d="M150 0v1485h167v-645q32 102 103 155.5t174 53.5q268 0 268 -349v-700h-166v688q0 219 -170 219q-209 0 -209 -342v-565h-167z" />
    <glyph glyph-name="Itilde" unicode="&#x128;" horiz-adv-x="512" 
d="M346 0h-178v1454h178v-1454z" />
    <glyph glyph-name="itilde" unicode="&#x129;" 
d="M150 0v1024h167v-1024h-167zM139 1206v224h187v-224h-187z" />
    <glyph glyph-name="Imacron" unicode="&#x12a;" horiz-adv-x="512" 
d="M346 0h-178v1454h178v-1454z" />
    <glyph glyph-name="imacron" unicode="&#x12b;" 
d="M150 0v1024h167v-1024h-167zM139 1206v224h187v-224h-187z" />
    <glyph glyph-name="Ibreve" unicode="&#x12c;" horiz-adv-x="512" 
d="M346 0h-178v1454h178v-1454z" />
    <glyph glyph-name="ibreve" unicode="&#x12d;" 
d="M150 0v1024h167v-1024h-167zM139 1206v224h187v-224h-187z" />
    <glyph glyph-name="Iogonek" unicode="&#x12e;" horiz-adv-x="512" 
d="M346 0h-178v1454h178v-1454z" />
    <glyph glyph-name="iogonek" unicode="&#x12f;" 
d="M150 0v1024h167v-1024h-167zM139 1206v224h187v-224h-187z" />
    <glyph glyph-name="Idotaccent" unicode="&#x130;" horiz-adv-x="512" 
d="M346 0h-178v1454h178v-1454z" />
    <glyph glyph-name="dotlessi" unicode="&#x131;" 
d="M150 0v1024h167v-1024h-167zM139 1206v224h187v-224h-187z" />
    <glyph glyph-name="IJ" unicode="&#x132;" horiz-adv-x="1189" 
d="M346 0h-178v1454h178v-1454zM541 -10v166q65 -11 139 -11q182 0 182 197v1112h176v-1124q0 -97 -27 -167.5t-76 -110.5t-110.5 -58.5t-138.5 -18.5q-101 0 -145 15z" />
    <glyph glyph-name="ij" unicode="&#x133;" horiz-adv-x="929" 
d="M150 0v1024h167v-1024h-167zM139 1206v224h187v-224h-187zM446 -403v147q41 -4 78 -4q47 0 68.5 28t21.5 101v1155h166v-1161q0 -131 -51.5 -204t-177.5 -73q-55 0 -105 11zM604 1206v224h187v-224h-187z" />
    <glyph glyph-name="Jcircumflex" unicode="&#x134;" horiz-adv-x="675" 
d="M526 330q0 -97 -27 -167.5t-76 -110.5t-110.5 -58.5t-138.5 -18.5q-101 0 -145 15v166q65 -11 139 -11q182 0 182 197v1112h176v-1124z" />
    <glyph glyph-name="jcircumflex" unicode="&#x135;" horiz-adv-x="462" 
d="M84 -414q-54 0 -104 11v147q41 -4 77 -4q47 0 68.5 28t21.5 101v1155h166v-1161q0 -131 -51.5 -204t-177.5 -73zM137 1206v224h187v-224h-187z" />
    <glyph glyph-name="uni0136" unicode="&#x136;" horiz-adv-x="1128" 
d="M168 0v1454h178v-739l508 739h211l-418 -571l447 -883h-205l-365 741l-178 -258v-483h-178z" />
    <glyph glyph-name="uni0137" unicode="&#x137;" horiz-adv-x="933" 
d="M150 0v1485h167v-957l375 496h201l-313 -385l327 -639h-194l-252 500l-144 -176v-324h-167z" />
    <glyph glyph-name="kgreenlandic" unicode="&#x138;" horiz-adv-x="933" 
d="M150 0v1485h167v-957l375 496h201l-313 -385l327 -639h-194l-252 500l-144 -176v-324h-167z" />
    <glyph glyph-name="Lacute" unicode="&#x139;" horiz-adv-x="909" 
d="M168 0v1454h178v-1296h526v-158h-704z" />
    <glyph glyph-name="lacute" unicode="&#x13a;" 
d="M317 1485v-1485h-167v1485h167z" />
    <glyph glyph-name="uni013B" unicode="&#x13b;" horiz-adv-x="909" 
d="M168 0v1454h178v-1296h526v-158h-704z" />
    <glyph glyph-name="uni013C" unicode="&#x13c;" 
d="M317 1485v-1485h-167v1485h167z" />
    <glyph glyph-name="Lcaron" unicode="&#x13d;" horiz-adv-x="909" 
d="M168 0v1454h178v-1296h526v-158h-704z" />
    <glyph glyph-name="lcaron" unicode="&#x13e;" 
d="M317 1485v-1485h-167v1485h167z" />
    <glyph glyph-name="Ldot" unicode="&#x13f;" horiz-adv-x="909" 
d="M168 0v1454h178v-1296h526v-158h-704z" />
    <glyph glyph-name="ldot" unicode="&#x140;" 
d="M317 1485v-1485h-167v1485h167z" />
    <glyph glyph-name="Lslash" unicode="&#x141;" horiz-adv-x="909" 
d="M168 0v1454h178v-1296h526v-158h-704z" />
    <glyph glyph-name="lslash" unicode="&#x142;" 
d="M317 1485v-1485h-167v1485h167z" />
    <glyph glyph-name="Nacute" unicode="&#x143;" horiz-adv-x="1286" 
d="M166 0v1454h211l510 -1012q37 -74 71 -213h5q-11 118 -11 275v950h168v-1454h-196l-518 1036q-36 68 -76 213h-4q10 -130 10 -243v-1006h-170z" />
    <glyph glyph-name="nacute" unicode="&#x144;" horiz-adv-x="989" 
d="M150 0v1024h157v-190q79 215 285 215q270 0 270 -349v-700h-166v686q0 112 -42 166.5t-128 54.5q-102 0 -155.5 -86.5t-53.5 -255.5v-565h-167z" />
    <glyph glyph-name="uni0145" unicode="&#x145;" horiz-adv-x="1286" 
d="M166 0v1454h211l510 -1012q37 -74 71 -213h5q-11 118 -11 275v950h168v-1454h-196l-518 1036q-36 68 -76 213h-4q10 -130 10 -243v-1006h-170z" />
    <glyph glyph-name="uni0146" unicode="&#x146;" horiz-adv-x="989" 
d="M150 0v1024h157v-190q79 215 285 215q270 0 270 -349v-700h-166v686q0 112 -42 166.5t-128 54.5q-102 0 -155.5 -86.5t-53.5 -255.5v-565h-167z" />
    <glyph glyph-name="Ncaron" unicode="&#x147;" horiz-adv-x="1286" 
d="M166 0v1454h211l510 -1012q37 -74 71 -213h5q-11 118 -11 275v950h168v-1454h-196l-518 1036q-36 68 -76 213h-4q10 -130 10 -243v-1006h-170z" />
    <glyph glyph-name="ncaron" unicode="&#x148;" horiz-adv-x="989" 
d="M150 0v1024h157v-190q79 215 285 215q270 0 270 -349v-700h-166v686q0 112 -42 166.5t-128 54.5q-102 0 -155.5 -86.5t-53.5 -255.5v-565h-167z" />
    <glyph glyph-name="napostrophe" unicode="&#x149;" horiz-adv-x="989" 
d="M150 0v1024h157v-190q79 215 285 215q270 0 270 -349v-700h-166v686q0 112 -42 166.5t-128 54.5q-102 0 -155.5 -86.5t-53.5 -255.5v-565h-167z" />
    <glyph glyph-name="Eng" unicode="&#x14a;" horiz-adv-x="1286" 
d="M166 0v1454h211l510 -1012q37 -74 71 -213h5q-11 118 -11 275v950h168v-1454h-196l-518 1036q-36 68 -76 213h-4q10 -130 10 -243v-1006h-170z" />
    <glyph glyph-name="eng" unicode="&#x14b;" horiz-adv-x="989" 
d="M150 0v1024h157v-190q79 215 285 215q270 0 270 -349v-700h-166v686q0 112 -42 166.5t-128 54.5q-102 0 -155.5 -86.5t-53.5 -255.5v-565h-167z" />
    <glyph glyph-name="Omacron" unicode="&#x14c;" horiz-adv-x="1224" 
d="M612 -35q-524 0 -524 762t524 762q525 0 525 -762t-525 -762zM279 727q0 -314 84 -461t249 -147t249.5 147t84.5 461t-84.5 461t-249.5 147t-249 -147t-84 -461z" />
    <glyph glyph-name="omacron" unicode="&#x14d;" horiz-adv-x="970" 
d="M485 -25q-191 0 -296 133.5t-105 403.5t105 403.5t296 133.5t296.5 -133.5t105.5 -403.5t-105.5 -403.5t-296.5 -133.5zM262 512q0 -403 223 -403q224 0 224 403t-224 403q-223 0 -223 -403z" />
    <glyph glyph-name="Obreve" unicode="&#x14e;" horiz-adv-x="1224" 
d="M612 -35q-524 0 -524 762t524 762q525 0 525 -762t-525 -762zM279 727q0 -314 84 -461t249 -147t249.5 147t84.5 461t-84.5 461t-249.5 147t-249 -147t-84 -461z" />
    <glyph glyph-name="obreve" unicode="&#x14f;" horiz-adv-x="970" 
d="M485 -25q-191 0 -296 133.5t-105 403.5t105 403.5t296 133.5t296.5 -133.5t105.5 -403.5t-105.5 -403.5t-296.5 -133.5zM262 512q0 -403 223 -403q224 0 224 403t-224 403q-223 0 -223 -403z" />
    <glyph glyph-name="Ohungarumlaut" unicode="&#x150;" horiz-adv-x="1224" 
d="M612 -35q-524 0 -524 762t524 762q525 0 525 -762t-525 -762zM279 727q0 -314 84 -461t249 -147t249.5 147t84.5 461t-84.5 461t-249.5 147t-249 -147t-84 -461z" />
    <glyph glyph-name="ohungarumlaut" unicode="&#x151;" horiz-adv-x="970" 
d="M485 -25q-191 0 -296 133.5t-105 403.5t105 403.5t296 133.5t296.5 -133.5t105.5 -403.5t-105.5 -403.5t-296.5 -133.5zM262 512q0 -403 223 -403q224 0 224 403t-224 403q-223 0 -223 -403z" />
    <glyph glyph-name="OE" unicode="&#x152;" horiz-adv-x="2228" 
d="M612 -35q-524 0 -524 762t524 762q525 0 525 -762t-525 -762zM279 727q0 -314 84 -461t249 -147t249.5 147t84.5 461t-84.5 461t-249.5 147t-249 -147t-84 -461zM1393 0v1454h733v-154h-555v-477h520v-151h-520v-518h569v-154h-747z" />
    <glyph glyph-name="oe" unicode="&#x153;" horiz-adv-x="1902" 
d="M485 -25q-191 0 -296 133.5t-105 403.5t105 403.5t296 133.5t296.5 -133.5t105.5 -403.5t-105.5 -403.5t-296.5 -133.5zM262 512q0 -403 223 -403q224 0 224 403t-224 403q-223 0 -223 -403zM1055 512q0 116 20 208t55.5 153t85.5 101t107.5 57.5t124.5 17.5
q176 0 272.5 -115.5t96.5 -329.5v-131h-594q5 -180 60 -265t173 -85q176 0 209 190l150 -45q-26 -143 -121 -218t-242 -75q-70 0 -128.5 17.5t-109 57.5t-85.5 101t-54.5 152.5t-19.5 208.5zM1223 600h424q0 164 -50 241t-149 77q-49 0 -86 -14t-69 -48.5t-50 -98.5
t-20 -157z" />
    <glyph glyph-name="Racute" unicode="&#x154;" horiz-adv-x="1112" 
d="M166 0v1454h414q426 0 426 -416q0 -145 -64 -248t-192 -141l297 -649h-201l-281 618h-221v-618h-178zM344 758h223q246 0 246 280q0 136 -58.5 204.5t-189.5 68.5h-221v-553z" />
    <glyph glyph-name="racute" unicode="&#x155;" horiz-adv-x="632" 
d="M305 791q31 113 97.5 185.5t168.5 72.5q19 0 29 -2v-175h-22q-120 0 -189 -92q-33 -38 -49.5 -95.5t-19.5 -100t-3 -113.5v-471h-167v1024h155v-233z" />
    <glyph glyph-name="uni0156" unicode="&#x156;" horiz-adv-x="1112" 
d="M166 0v1454h414q426 0 426 -416q0 -145 -64 -248t-192 -141l297 -649h-201l-281 618h-221v-618h-178zM344 758h223q246 0 246 280q0 136 -58.5 204.5t-189.5 68.5h-221v-553z" />
    <glyph glyph-name="uni0157" unicode="&#x157;" horiz-adv-x="632" 
d="M305 791q31 113 97.5 185.5t168.5 72.5q19 0 29 -2v-175h-22q-120 0 -189 -92q-33 -38 -49.5 -95.5t-19.5 -100t-3 -113.5v-471h-167v1024h155v-233z" />
    <glyph glyph-name="Rcaron" unicode="&#x158;" horiz-adv-x="1112" 
d="M166 0v1454h414q426 0 426 -416q0 -145 -64 -248t-192 -141l297 -649h-201l-281 618h-221v-618h-178zM344 758h223q246 0 246 280q0 136 -58.5 204.5t-189.5 68.5h-221v-553z" />
    <glyph glyph-name="rcaron" unicode="&#x159;" horiz-adv-x="632" 
d="M305 791q31 113 97.5 185.5t168.5 72.5q19 0 29 -2v-175h-22q-120 0 -189 -92q-33 -38 -49.5 -95.5t-19.5 -100t-3 -113.5v-471h-167v1024h155v-233z" />
    <glyph glyph-name="Sacute" unicode="&#x15a;" horiz-adv-x="1042" 
d="M549 -35q-235 0 -357 122t-131 372l189 30q9 -196 80.5 -285t222.5 -89q102 0 162.5 66.5t60.5 183.5q0 114 -47.5 175.5t-153.5 96.5l-178 57q-142 45 -219.5 153t-77.5 255q0 180 113.5 283.5t304.5 103.5q203 0 314.5 -107.5t121.5 -345.5l-184 -35q-11 177 -71 259.5
t-183 82.5q-106 0 -166.5 -62t-60.5 -167q0 -190 188 -254l180 -61q310 -104 310 -428q0 -187 -110.5 -296.5t-307.5 -109.5z" />
    <glyph glyph-name="sacute" unicode="&#x15b;" horiz-adv-x="882" 
d="M446 -23q-168 0 -269 82t-114 238l166 27q11 -97 69.5 -154t150.5 -57q88 0 139 41.5t51 113.5q0 71 -33 107.5t-114 58.5l-150 39q-115 30 -178.5 102.5t-63.5 180.5q0 134 96.5 213.5t245.5 79.5q161 0 255 -72.5t100 -216.5l-162 -27q-17 185 -193 185
q-83 0 -130.5 -40.5t-47.5 -113.5q0 -61 36.5 -95t117.5 -57l145 -39q128 -35 184 -104.5t56 -187.5q0 -129 -98 -216.5t-259 -87.5z" />
    <glyph glyph-name="Scircumflex" unicode="&#x15c;" horiz-adv-x="1042" 
d="M549 -35q-235 0 -357 122t-131 372l189 30q9 -196 80.5 -285t222.5 -89q102 0 162.5 66.5t60.5 183.5q0 114 -47.5 175.5t-153.5 96.5l-178 57q-142 45 -219.5 153t-77.5 255q0 180 113.5 283.5t304.5 103.5q203 0 314.5 -107.5t121.5 -345.5l-184 -35q-11 177 -71 259.5
t-183 82.5q-106 0 -166.5 -62t-60.5 -167q0 -190 188 -254l180 -61q310 -104 310 -428q0 -187 -110.5 -296.5t-307.5 -109.5z" />
    <glyph glyph-name="scircumflex" unicode="&#x15d;" horiz-adv-x="882" 
d="M446 -23q-168 0 -269 82t-114 238l166 27q11 -97 69.5 -154t150.5 -57q88 0 139 41.5t51 113.5q0 71 -33 107.5t-114 58.5l-150 39q-115 30 -178.5 102.5t-63.5 180.5q0 134 96.5 213.5t245.5 79.5q161 0 255 -72.5t100 -216.5l-162 -27q-17 185 -193 185
q-83 0 -130.5 -40.5t-47.5 -113.5q0 -61 36.5 -95t117.5 -57l145 -39q128 -35 184 -104.5t56 -187.5q0 -129 -98 -216.5t-259 -87.5z" />
    <glyph glyph-name="Scedilla" unicode="&#x15e;" horiz-adv-x="1042" 
d="M549 -35q-235 0 -357 122t-131 372l189 30q9 -196 80.5 -285t222.5 -89q102 0 162.5 66.5t60.5 183.5q0 114 -47.5 175.5t-153.5 96.5l-178 57q-142 45 -219.5 153t-77.5 255q0 180 113.5 283.5t304.5 103.5q203 0 314.5 -107.5t121.5 -345.5l-184 -35q-11 177 -71 259.5
t-183 82.5q-106 0 -166.5 -62t-60.5 -167q0 -190 188 -254l180 -61q310 -104 310 -428q0 -187 -110.5 -296.5t-307.5 -109.5z" />
    <glyph glyph-name="scedilla" unicode="&#x15f;" horiz-adv-x="882" 
d="M446 -23q-168 0 -269 82t-114 238l166 27q11 -97 69.5 -154t150.5 -57q88 0 139 41.5t51 113.5q0 71 -33 107.5t-114 58.5l-150 39q-115 30 -178.5 102.5t-63.5 180.5q0 134 96.5 213.5t245.5 79.5q161 0 255 -72.5t100 -216.5l-162 -27q-17 185 -193 185
q-83 0 -130.5 -40.5t-47.5 -113.5q0 -61 36.5 -95t117.5 -57l145 -39q128 -35 184 -104.5t56 -187.5q0 -129 -98 -216.5t-259 -87.5z" />
    <glyph glyph-name="Scaron" unicode="&#x160;" horiz-adv-x="1042" 
d="M549 -35q-235 0 -357 122t-131 372l189 30q9 -196 80.5 -285t222.5 -89q102 0 162.5 66.5t60.5 183.5q0 114 -47.5 175.5t-153.5 96.5l-178 57q-142 45 -219.5 153t-77.5 255q0 180 113.5 283.5t304.5 103.5q203 0 314.5 -107.5t121.5 -345.5l-184 -35q-11 177 -71 259.5
t-183 82.5q-106 0 -166.5 -62t-60.5 -167q0 -190 188 -254l180 -61q310 -104 310 -428q0 -187 -110.5 -296.5t-307.5 -109.5z" />
    <glyph glyph-name="scaron" unicode="&#x161;" horiz-adv-x="882" 
d="M446 -23q-168 0 -269 82t-114 238l166 27q11 -97 69.5 -154t150.5 -57q88 0 139 41.5t51 113.5q0 71 -33 107.5t-114 58.5l-150 39q-115 30 -178.5 102.5t-63.5 180.5q0 134 96.5 213.5t245.5 79.5q161 0 255 -72.5t100 -216.5l-162 -27q-17 185 -193 185
q-83 0 -130.5 -40.5t-47.5 -113.5q0 -61 36.5 -95t117.5 -57l145 -39q128 -35 184 -104.5t56 -187.5q0 -129 -98 -216.5t-259 -87.5z" />
    <glyph glyph-name="uni0162" unicode="&#x162;" horiz-adv-x="968" 
d="M23 1298v156h925v-156h-375v-1298h-176v1298h-374z" />
    <glyph glyph-name="uni0163" unicode="&#x163;" horiz-adv-x="618" 
d="M27 891v133h155v258l166 64v-322h215v-133h-215v-598q0 -80 30 -116t99 -36q33 0 90 11v-154q-66 -16 -135 -16q-134 0 -192 73t-58 213v623h-155z" />
    <glyph glyph-name="Tcaron" unicode="&#x164;" horiz-adv-x="968" 
d="M23 1298v156h925v-156h-375v-1298h-176v1298h-374z" />
    <glyph glyph-name="tcaron" unicode="&#x165;" horiz-adv-x="618" 
d="M27 891v133h155v258l166 64v-322h215v-133h-215v-598q0 -80 30 -116t99 -36q33 0 90 11v-154q-66 -16 -135 -16q-134 0 -192 73t-58 213v623h-155z" />
    <glyph glyph-name="Tbar" unicode="&#x166;" horiz-adv-x="968" 
d="M23 1298v156h925v-156h-375v-1298h-176v1298h-374z" />
    <glyph glyph-name="tbar" unicode="&#x167;" horiz-adv-x="618" 
d="M27 891v133h155v258l166 64v-322h215v-133h-215v-598q0 -80 30 -116t99 -36q33 0 90 11v-154q-66 -16 -135 -16q-134 0 -192 73t-58 213v623h-155z" />
    <glyph glyph-name="Utilde" unicode="&#x168;" horiz-adv-x="1210" 
d="M150 1454h178v-1028q0 -142 72.5 -222.5t205.5 -80.5q132 0 204.5 80.5t72.5 222.5v1028h178v-1040q0 -204 -119.5 -326.5t-335.5 -122.5q-217 0 -336.5 122.5t-119.5 326.5v1040z" />
    <glyph glyph-name="utilde" unicode="&#x169;" horiz-adv-x="980" 
d="M408 -25q-152 0 -216.5 93.5t-64.5 261.5v694h168v-686q0 -217 162 -217q96 0 151.5 85t55.5 232v586h165v-1024h-155v180q-28 -93 -99 -149t-167 -56z" />
    <glyph glyph-name="Umacron" unicode="&#x16a;" horiz-adv-x="1210" 
d="M150 1454h178v-1028q0 -142 72.5 -222.5t205.5 -80.5q132 0 204.5 80.5t72.5 222.5v1028h178v-1040q0 -204 -119.5 -326.5t-335.5 -122.5q-217 0 -336.5 122.5t-119.5 326.5v1040z" />
    <glyph glyph-name="umacron" unicode="&#x16b;" horiz-adv-x="980" 
d="M408 -25q-152 0 -216.5 93.5t-64.5 261.5v694h168v-686q0 -217 162 -217q96 0 151.5 85t55.5 232v586h165v-1024h-155v180q-28 -93 -99 -149t-167 -56z" />
    <glyph glyph-name="Ubreve" unicode="&#x16c;" horiz-adv-x="1210" 
d="M150 1454h178v-1028q0 -142 72.5 -222.5t205.5 -80.5q132 0 204.5 80.5t72.5 222.5v1028h178v-1040q0 -204 -119.5 -326.5t-335.5 -122.5q-217 0 -336.5 122.5t-119.5 326.5v1040z" />
    <glyph glyph-name="ubreve" unicode="&#x16d;" horiz-adv-x="980" 
d="M408 -25q-152 0 -216.5 93.5t-64.5 261.5v694h168v-686q0 -217 162 -217q96 0 151.5 85t55.5 232v586h165v-1024h-155v180q-28 -93 -99 -149t-167 -56z" />
    <glyph glyph-name="Uring" unicode="&#x16e;" horiz-adv-x="1210" 
d="M150 1454h178v-1028q0 -142 72.5 -222.5t205.5 -80.5q132 0 204.5 80.5t72.5 222.5v1028h178v-1040q0 -204 -119.5 -326.5t-335.5 -122.5q-217 0 -336.5 122.5t-119.5 326.5v1040z" />
    <glyph glyph-name="uring" unicode="&#x16f;" horiz-adv-x="980" 
d="M408 -25q-152 0 -216.5 93.5t-64.5 261.5v694h168v-686q0 -217 162 -217q96 0 151.5 85t55.5 232v586h165v-1024h-155v180q-28 -93 -99 -149t-167 -56z" />
    <glyph glyph-name="Uhungarumlaut" unicode="&#x170;" horiz-adv-x="1210" 
d="M150 1454h178v-1028q0 -142 72.5 -222.5t205.5 -80.5q132 0 204.5 80.5t72.5 222.5v1028h178v-1040q0 -204 -119.5 -326.5t-335.5 -122.5q-217 0 -336.5 122.5t-119.5 326.5v1040z" />
    <glyph glyph-name="uhungarumlaut" unicode="&#x171;" horiz-adv-x="980" 
d="M408 -25q-152 0 -216.5 93.5t-64.5 261.5v694h168v-686q0 -217 162 -217q96 0 151.5 85t55.5 232v586h165v-1024h-155v180q-28 -93 -99 -149t-167 -56z" />
    <glyph glyph-name="Uogonek" unicode="&#x172;" horiz-adv-x="1210" 
d="M150 1454h178v-1028q0 -142 72.5 -222.5t205.5 -80.5q132 0 204.5 80.5t72.5 222.5v1028h178v-1040q0 -204 -119.5 -326.5t-335.5 -122.5q-217 0 -336.5 122.5t-119.5 326.5v1040z" />
    <glyph glyph-name="uogonek" unicode="&#x173;" horiz-adv-x="980" 
d="M408 -25q-152 0 -216.5 93.5t-64.5 261.5v694h168v-686q0 -217 162 -217q96 0 151.5 85t55.5 232v586h165v-1024h-155v180q-28 -93 -99 -149t-167 -56z" />
    <glyph glyph-name="Wcircumflex" unicode="&#x174;" horiz-adv-x="1554" 
d="M313 0l-262 1454h180l185 -1116q11 -86 14 -166h8q1 16 21 166l217 1116h201l219 -1116l20 -166h6q5 75 17 166l184 1116h180l-262 -1454h-235l-207 1083q-14 95 -17 174h-10q-3 -70 -18 -174l-205 -1083h-236z" />
    <glyph glyph-name="wcircumflex" unicode="&#x175;" horiz-adv-x="1282" 
d="M285 0l-240 1024h170l145 -756q9 -46 15 -102h4q4 22 11.5 60.5t8.5 41.5l154 756h178l154 -756q16 -82 18 -102h4q3 32 17 102l145 756h170l-240 -1024h-180l-160 756q-9 48 -16 108h-4q-10 -84 -16 -108l-158 -756h-180z" />
    <glyph glyph-name="Ycircumflex" unicode="&#x176;" horiz-adv-x="1013" 
d="M418 0v602l-402 852h197l256 -577q26 -61 35 -107h4q7 36 37 107l256 577h196l-401 -852v-602h-178z" />
    <glyph glyph-name="ycircumflex" unicode="&#x177;" horiz-adv-x="847" 
d="M154 -410q-25 0 -76 7v153q20 -2 59 -2q77 0 123 43t74 135l22 80l-338 1018h183l207 -711q20 -72 26 -131h4q6 39 29 129l186 713h176l-333 -1114q-55 -175 -138 -247.5t-204 -72.5z" />
    <glyph glyph-name="Ydieresis" unicode="&#x178;" horiz-adv-x="1013" 
d="M418 0v602l-402 852h197l256 -577q26 -61 35 -107h4q7 36 37 107l256 577h196l-401 -852v-602h-178z" />
    <glyph glyph-name="Zacute" unicode="&#x179;" horiz-adv-x="960" 
d="M57 160l656 1138h-631v156h821v-160l-655 -1138h676v-156h-867v160z" />
    <glyph glyph-name="zacute" unicode="&#x17a;" horiz-adv-x="774" 
d="M57 129l455 754h-436v141h624v-127l-450 -754h475v-143h-668v129z" />
    <glyph glyph-name="Zdotaccent" unicode="&#x17b;" horiz-adv-x="960" 
d="M57 160l656 1138h-631v156h821v-160l-655 -1138h676v-156h-867v160z" />
    <glyph glyph-name="zdotaccent" unicode="&#x17c;" horiz-adv-x="774" 
d="M57 129l455 754h-436v141h624v-127l-450 -754h475v-143h-668v129z" />
    <glyph glyph-name="Zcaron" unicode="&#x17d;" horiz-adv-x="960" 
d="M57 160l656 1138h-631v156h821v-160l-655 -1138h676v-156h-867v160z" />
    <glyph glyph-name="zcaron" unicode="&#x17e;" horiz-adv-x="774" 
d="M57 129l455 754h-436v141h624v-127l-450 -754h475v-143h-668v129z" />
    <glyph glyph-name="AEacute" unicode="&#x1fc;" horiz-adv-x="2115" 
d="M31 0l426 1454h198l426 -1454h-182l-117 422h-452l-117 -422h-182zM371 569h370l-151 541q-11 50 -31 166h-6q-20 -116 -31 -166zM1280 0v1454h733v-154h-555v-477h520v-151h-520v-518h570v-154h-748z" />
    <glyph glyph-name="aeacute" unicode="&#x1fd;" horiz-adv-x="1855" 
d="M362 -25q-136 0 -211 79t-75 212q0 156 114 242q82 63 269 96l174 31v63q0 114 -40.5 165.5t-129.5 51.5q-101 0 -144.5 -56t-46.5 -161h-172q1 98 32 169t83.5 109t113.5 55.5t134 17.5q182 0 260 -77.5t78 -266.5v-402q0 -186 24 -303h-166q-14 103 -14 182
q-27 -95 -102 -151t-181 -56zM254 283q-3 -172 162 -172q99 0 159 71t60 193v139l-180 -35q-99 -19 -149.5 -66t-51.5 -130zM1008 512q0 116 20 208t55.5 153t85.5 101t107.5 57.5t124.5 17.5q176 0 272 -115.5t96 -329.5v-131h-593q5 -180 60 -265t173 -85q176 0 209 190
l149 -45q-26 -143 -120.5 -218t-241.5 -75q-70 0 -128.5 17.5t-109 57.5t-85.5 101t-54.5 152.5t-19.5 208.5zM1176 600h423q0 164 -49.5 241t-148.5 77q-49 0 -86 -14t-69 -48.5t-50 -98.5t-20 -157z" />
    <glyph glyph-name="Oslashacute" unicode="&#x1fe;" horiz-adv-x="1224" 
d="M612 -35q-524 0 -524 762t524 762q525 0 525 -762t-525 -762zM279 727q0 -314 84 -461t249 -147t249.5 147t84.5 461t-84.5 461t-249.5 147t-249 -147t-84 -461z" />
    <glyph glyph-name="oslashacute" unicode="&#x1ff;" horiz-adv-x="970" 
d="M485 -25q-191 0 -296 133.5t-105 403.5t105 403.5t296 133.5t296.5 -133.5t105.5 -403.5t-105.5 -403.5t-296.5 -133.5zM262 512q0 -403 223 -403q224 0 224 403t-224 403q-223 0 -223 -403z" />
    <glyph glyph-name="uni0218" unicode="&#x218;" horiz-adv-x="1042" 
d="M549 -35q-235 0 -357 122t-131 372l189 30q9 -196 80.5 -285t222.5 -89q102 0 162.5 66.5t60.5 183.5q0 114 -47.5 175.5t-153.5 96.5l-178 57q-142 45 -219.5 153t-77.5 255q0 180 113.5 283.5t304.5 103.5q203 0 314.5 -107.5t121.5 -345.5l-184 -35q-11 177 -71 259.5
t-183 82.5q-106 0 -166.5 -62t-60.5 -167q0 -190 188 -254l180 -61q310 -104 310 -428q0 -187 -110.5 -296.5t-307.5 -109.5z" />
    <glyph glyph-name="uni0219" unicode="&#x219;" horiz-adv-x="882" 
d="M446 -23q-168 0 -269 82t-114 238l166 27q11 -97 69.5 -154t150.5 -57q88 0 139 41.5t51 113.5q0 71 -33 107.5t-114 58.5l-150 39q-115 30 -178.5 102.5t-63.5 180.5q0 134 96.5 213.5t245.5 79.5q161 0 255 -72.5t100 -216.5l-162 -27q-17 185 -193 185
q-83 0 -130.5 -40.5t-47.5 -113.5q0 -61 36.5 -95t117.5 -57l145 -39q128 -35 184 -104.5t56 -187.5q0 -129 -98 -216.5t-259 -87.5z" />
    <glyph glyph-name="uni021A" unicode="&#x21a;" horiz-adv-x="968" 
d="M23 1298v156h925v-156h-375v-1298h-176v1298h-374z" />
    <glyph glyph-name="uni021B" unicode="&#x21b;" horiz-adv-x="618" 
d="M27 891v133h155v258l166 64v-322h215v-133h-215v-598q0 -80 30 -116t99 -36q33 0 90 11v-154q-66 -16 -135 -16q-134 0 -192 73t-58 213v623h-155z" />
    <glyph glyph-name="uni0237" unicode="&#x237;" horiz-adv-x="462" 
d="M84 -414q-54 0 -104 11v147q41 -4 77 -4q47 0 68.5 28t21.5 101v1155h166v-1161q0 -131 -51.5 -204t-177.5 -73zM137 1206v224h187v-224h-187z" />
    <glyph glyph-name="uni0401" unicode="&#x401;" horiz-adv-x="1005" 
d="M346 154h569v-154h-747v1454h733v-154h-555v-477h520v-151h-520v-518z" />
    <glyph glyph-name="uni0404" unicode="&#x404;" horiz-adv-x="1155" 
d="M600 -35q-264 0 -388 194t-124 593q0 369 132.5 553t391.5 184q216 0 334.5 -126t118.5 -376l-186 -29q0 381 -281 381q-152 0 -233.5 -121.5t-90.5 -402.5h486v-153h-486q9 -285 86.5 -414t237.5 -129q136 0 211.5 94.5t75.5 296.5l180 -39q0 -246 -123.5 -376
t-341.5 -130z" />
    <glyph glyph-name="uni0405" unicode="&#x405;" horiz-adv-x="1042" 
d="M549 -35q-235 0 -357 122t-131 372l189 30q9 -196 80.5 -285t222.5 -89q102 0 162.5 66.5t60.5 183.5q0 114 -47.5 175.5t-153.5 96.5l-178 57q-142 45 -219.5 153t-77.5 255q0 180 113.5 283.5t304.5 103.5q203 0 314.5 -107.5t121.5 -345.5l-184 -35q-11 177 -71 259.5
t-183 82.5q-106 0 -166.5 -62t-60.5 -167q0 -190 188 -254l180 -61q310 -104 310 -428q0 -187 -110.5 -296.5t-307.5 -109.5z" />
    <glyph glyph-name="uni0406" unicode="&#x406;" horiz-adv-x="512" 
d="M346 0h-178v1454h178v-1454z" />
    <glyph glyph-name="uni0408" unicode="&#x408;" horiz-adv-x="675" 
d="M526 330q0 -97 -27 -167.5t-76 -110.5t-110.5 -58.5t-138.5 -18.5q-101 0 -145 15v166q65 -11 139 -11q182 0 182 197v1112h176v-1124z" />
    <glyph glyph-name="uni040F" unicode="&#x40f;" horiz-adv-x="1245" 
d="M1077 0h-370v-307h-168v307h-371v1454h178v-1300h553v1300h178v-1454z" />
    <glyph glyph-name="uni0410" unicode="&#x410;" horiz-adv-x="1112" 
d="M31 0l426 1454h198l426 -1454h-182l-117 422h-452l-117 -422h-182zM371 569h370l-151 541q-11 50 -31 166h-6q-20 -116 -31 -166z" />
    <glyph glyph-name="uni0411" unicode="&#x411;" horiz-adv-x="1093" 
d="M588 145q123 0 177 70.5t54 218.5q0 147 -55.5 217t-185.5 70h-232v-576h242zM168 0v1454h756v-156h-578v-432h248q412 0 412 -430q0 -219 -105 -327.5t-307 -108.5h-426z" />
    <glyph glyph-name="uni0412" unicode="&#x412;" horiz-adv-x="1103" 
d="M166 0v1454h397q92 0 165.5 -21t121.5 -56.5t80 -85t45.5 -103.5t13.5 -115q0 -119 -58.5 -203.5t-172.5 -109.5q123 -25 190.5 -116.5t67.5 -237.5q0 -86 -23.5 -157t-73 -128t-135 -89t-200.5 -32h-418zM344 141h225q258 0 258 269q0 270 -252 270h-231v-539zM344 813
h211q73 0 123.5 20t76 57.5t36 79t10.5 95.5q0 250 -252 250h-205v-502z" />
    <glyph glyph-name="uni0413" unicode="&#x413;" horiz-adv-x="878" 
d="M858 1454v-156h-512v-1298h-178v1454h690z" />
    <glyph glyph-name="uni0414" unicode="&#x414;" horiz-adv-x="1271" 
d="M1079 1454v-1298h152v-453h-168v297h-881v-297h-166v453h134q120 234 153 600q24 230 27 698h749zM328 156h573v1144h-409q-7 -341 -27 -561q-29 -344 -137 -583z" />
    <glyph glyph-name="uni0415" unicode="&#x415;" horiz-adv-x="1005" 
d="M346 154h569v-154h-747v1454h733v-154h-555v-477h520v-151h-520v-518z" />
    <glyph glyph-name="uni0416" unicode="&#x416;" horiz-adv-x="1720" 
d="M770 0v688h-195l-348 -688h-202l403 782l-379 672h193l327 -618h201v618h180v-618h201l328 618h192l-379 -672l404 -782h-203l-348 688h-195v-688h-180z" />
    <glyph glyph-name="uni0417" unicode="&#x417;" horiz-adv-x="1081" 
d="M543 -33q-215 0 -334 110.5t-119 301.5v24l178 27v-33q0 -133 70.5 -206.5t206.5 -73.5q276 0 276 282q0 149 -69 216t-213 67h-146v147h139q259 0 259 265q0 247 -246 247q-129 0 -199 -67t-70 -203v-47l-176 33v45q0 191 121 289t326 98q200 0 308 -94t108 -283
q0 -138 -53 -226.5t-152 -121.5q113 -24 174 -121t61 -242q0 -215 -115.5 -324.5t-334.5 -109.5z" />
    <glyph glyph-name="uni0418" unicode="&#x418;" horiz-adv-x="1271" 
d="M1104 0h-162v1020q0 192 2 278h-8q-11 -50 -82 -266l-438 -1032h-248v1454h162v-1024q0 -188 -2 -274h8q16 85 70 217l448 1081h250v-1454z" />
    <glyph glyph-name="uni0419" unicode="&#x419;" horiz-adv-x="1271" 
d="M1104 0h-162v1020q0 192 2 278h-8q-11 -50 -82 -266l-438 -1032h-248v1454h162v-1024q0 -188 -2 -274h8q16 85 70 217l448 1081h250v-1454z" />
    <glyph glyph-name="uni041A" unicode="&#x41a;" horiz-adv-x="1128" 
d="M168 0v1454h178v-618h201l327 618h195l-381 -672l406 -782h-205l-346 688h-197v-688h-178z" />
    <glyph glyph-name="uni041B" unicode="&#x41b;" horiz-adv-x="1206" 
d="M20 -10v166q27 -6 52 -6q79 0 113.5 53.5t45.5 185.5q41 528 50 1065h759v-1454h-178v1300h-418q-21 -525 -51 -927q-17 -214 -83.5 -302.5t-211.5 -88.5q-47 0 -78 8z" />
    <glyph glyph-name="uni041C" unicode="&#x41c;" horiz-adv-x="1515" 
d="M168 0v1454h264l289 -1087q29 -109 35 -174h6q4 65 33 174l288 1087h267v-1454h-164v1020q0 204 6 274h-10q-6 -56 -39 -215l-293 -1079h-184l-293 1079q-8 41 -17 91t-14.5 83t-7.5 41h-8q6 -105 6 -274v-1020h-164z" />
    <glyph glyph-name="uni041D" unicode="&#x41d;" horiz-adv-x="1249" 
d="M1081 1454v-1454h-178v672h-557v-672h-178v1454h178v-635h557v635h178z" />
    <glyph glyph-name="uni041E" unicode="&#x41e;" horiz-adv-x="1224" 
d="M612 -35q-524 0 -524 762t524 762q525 0 525 -762t-525 -762zM279 727q0 -314 84 -461t249 -147t249.5 147t84.5 461t-84.5 461t-249.5 147t-249 -147t-84 -461z" />
    <glyph glyph-name="uni041F" unicode="&#x41f;" horiz-adv-x="1245" 
d="M1077 1454v-1454h-178v1300h-553v-1300h-178v1454h909z" />
    <glyph glyph-name="uni0420" unicode="&#x420;" horiz-adv-x="1032" 
d="M344 0h-178v1454h401q203 0 316.5 -110.5t113.5 -303.5q0 -208 -113 -323t-313 -115h-227v-602zM344 745h211q120 0 185 75.5t65 219.5q0 132 -66 202.5t-186 70.5h-209v-568z" />
    <glyph glyph-name="uni0421" unicode="&#x421;" horiz-adv-x="1148" 
d="M600 -35q-273 0 -392.5 185t-119.5 579q0 390 125 575t389 185q439 0 457 -492l-182 -18q-15 356 -279 356q-177 0 -249.5 -143t-72.5 -461q0 -323 73.5 -465.5t252.5 -142.5q126 0 197.5 89t83.5 261l176 -29q-19 -235 -135.5 -357t-323.5 -122z" />
    <glyph glyph-name="uni0422" unicode="&#x422;" horiz-adv-x="968" 
d="M23 1298v156h925v-156h-375v-1298h-176v1298h-374z" />
    <glyph glyph-name="uni0423" unicode="&#x423;" horiz-adv-x="1042" 
d="M465 283l-442 1171h182l295 -823q41 -125 47 -162h4q8 48 41 162l254 823h174l-377 -1122q-62 -191 -141 -274t-215 -83q-54 0 -111 13v155q47 -6 86 -6q79 0 122.5 26t70.5 93z" />
    <glyph glyph-name="uni0424" unicode="&#x424;" horiz-adv-x="1382" 
d="M778 1505v-112q516 -18 516 -656q0 -339 -127.5 -499t-388.5 -168v-115h-174v115q-260 8 -388 168t-128 499q0 638 516 656v112h174zM262 735q0 -263 77 -387.5t269 -130.5v1028q-80 -4 -139 -27t-98.5 -64t-64 -103.5t-34.5 -138.5t-10 -177zM774 217q192 7 269 131
t77 387q0 251 -78 376t-268 134v-1028z" />
    <glyph glyph-name="uni0425" unicode="&#x425;" horiz-adv-x="1077" 
d="M25 0l401 772l-367 682h205l234 -459q23 -45 41 -106h4q13 46 41 104l235 461h195l-363 -688l404 -766h-209l-256 535q-36 68 -51 118h-4q-9 -35 -52 -118l-258 -535h-200z" />
    <glyph glyph-name="uni0426" unicode="&#x426;" horiz-adv-x="1271" 
d="M1063 -297v297h-895v1454h178v-1300h553v1300h178v-1300h154v-451h-168z" />
    <glyph glyph-name="uni0427" unicode="&#x427;" horiz-adv-x="1140" 
d="M973 1454v-1454h-178v633q-142 -49 -277 -49q-206 0 -313 105.5t-107 336.5v428h178v-410q0 -160 62.5 -230.5t196.5 -70.5q132 0 260 45v666h178z" />
    <glyph glyph-name="uni0428" unicode="&#x428;" horiz-adv-x="1720" 
d="M1374 1454h180v-1454h-1386v1454h178v-1298h424v1298h180v-1298h424v1298z" />
    <glyph glyph-name="uni0429" unicode="&#x429;" horiz-adv-x="1746" 
d="M1374 1454h180v-1300h152v-463h-168v309h-1370v1454h178v-1298h424v1298h180v-1298h424v1298z" />
    <glyph glyph-name="uni042A" unicode="&#x42a;" horiz-adv-x="1302" 
d="M23 1454h548v-577h238q202 0 307 -111.5t105 -325.5q0 -215 -106 -327.5t-306 -112.5h-418v1298h-368v156zM571 147h232q124 0 177.5 71t53.5 222q0 149 -55.5 219t-185.5 70h-222v-582z" />
    <glyph glyph-name="uni042B" unicode="&#x42b;" horiz-adv-x="1519" 
d="M578 147q124 0 177.5 71t53.5 222q0 149 -56 219t-186 70h-221v-582h232zM166 0v1454h180v-577h238q202 0 306.5 -111.5t104.5 -325.5q0 -215 -105.5 -327.5t-305.5 -112.5h-418zM1176 0v1454h178v-1454h-178z" />
    <glyph glyph-name="uni042C" unicode="&#x42c;" horiz-adv-x="1077" 
d="M578 147q124 0 177.5 71t53.5 222q0 149 -56 219t-186 70h-221v-582h232zM166 0v1454h180v-577h238q202 0 306.5 -111.5t104.5 -325.5q0 -215 -105.5 -327.5t-305.5 -112.5h-418z" />
    <glyph glyph-name="uni042D" unicode="&#x42d;" horiz-adv-x="1159" 
d="M573 -35q-233 0 -358 127.5t-125 362.5l186 30q0 -368 297 -368q157 0 232 127.5t82 417.5h-490v153h488q-7 285 -79 404.5t-226 119.5q-148 0 -223.5 -90.5t-75.5 -283.5l-187 30q0 243 125 368.5t354 125.5q261 0 379.5 -176.5t118.5 -567.5q0 -408 -118.5 -594
t-379.5 -186z" />
    <glyph glyph-name="uni042E" unicode="&#x42e;" horiz-adv-x="1695" 
d="M1090 -35q-237 0 -370 172.5t-145 515.5h-229v-653h-178v1454h178v-651h229q12 346 144.5 516t370.5 170q252 0 385 -187.5t133 -572.5t-133 -574.5t-385 -189.5zM762 723q0 -307 82 -455.5t246 -148.5q166 0 247.5 146.5t81.5 457.5q0 318 -81 465t-248 147
q-165 0 -246.5 -147t-81.5 -465z" />
    <glyph glyph-name="uni042F" unicode="&#x42f;" horiz-adv-x="1112" 
d="M946 0h-178v612h-221l-285 -612h-196l290 633q-128 36 -187.5 136t-59.5 265q0 420 413 420h424v-1454zM295 1028q0 -132 56.5 -200t185.5 -68h231v547h-229q-129 0 -186.5 -70t-57.5 -209z" />
    <glyph glyph-name="uni0430" unicode="&#x430;" horiz-adv-x="929" 
d="M362 -25q-136 0 -211 79t-75 212q0 156 114 242q82 63 269 96l174 31v63q0 114 -40.5 165.5t-129.5 51.5q-101 0 -144.5 -56t-46.5 -161h-172q1 98 32 169t83.5 109t113.5 55.5t134 17.5q182 0 260 -77.5t78 -266.5v-402q0 -186 24 -303h-166q-14 103 -14 182
q-27 -95 -102 -151t-181 -56zM254 283q-3 -172 162 -172q99 0 159 71t60 193v139l-180 -35q-99 -19 -149.5 -66t-51.5 -130z" />
    <glyph glyph-name="uni0431" unicode="&#x431;" horiz-adv-x="948" 
d="M541 1036q156 0 239.5 -136t83.5 -368q0 -261 -96.5 -409t-286.5 -148q-218 0 -307.5 163.5t-89.5 512.5q0 108 5 191.5t18 164t37 139.5t59 107.5t86.5 78t118.5 42.5l139 27q60 11 83.5 31.5t26.5 68.5h160q3 -107 -34.5 -159t-149.5 -74l-146 -29
q-140 -28 -197 -107.5t-57 -250.5v-129q27 134 103.5 209t204.5 75zM260 510q0 -393 215 -393q105 0 161 103.5t56 291.5q0 385 -219 385q-75 0 -124 -54t-69 -138t-20 -195z" />
    <glyph glyph-name="uni0432" unicode="&#x432;" horiz-adv-x="929" 
d="M150 0v1024h356q156 0 238.5 -69.5t82.5 -194.5q0 -195 -172 -232q94 -12 148.5 -76t54.5 -167q0 -138 -83.5 -211.5t-248.5 -73.5h-376zM315 123h203q86 0 128 41t42 129q0 168 -174 168h-199v-338zM315 584h172q88 0 129 37t41 131q0 147 -159 147h-183v-315z" />
    <glyph glyph-name="uni0433" unicode="&#x433;" horiz-adv-x="722" 
d="M690 874h-375v-874h-165v1024h540v-150z" />
    <glyph glyph-name="uni0434" unicode="&#x434;" horiz-adv-x="1009" 
d="M174 -272h-158v422h117q64 130 94 350q19 156 19 524h598v-874h131v-422h-158v272h-643v-272zM289 150h391v727h-289q-6 -227 -18 -388q-21 -201 -84 -339z" />
    <glyph glyph-name="uni0435" unicode="&#x435;" horiz-adv-x="931" 
d="M481 -25q-70 0 -128.5 17.5t-109 57.5t-85.5 101t-54.5 152.5t-19.5 208.5q0 116 20 208t55.5 153t85.5 101t107.5 57.5t124.5 17.5q176 0 272.5 -115.5t96.5 -329.5v-131h-594q5 -180 60 -265t173 -85q176 0 209 190l150 -45q-26 -143 -121 -218t-242 -75zM252 600h424
q0 164 -50 241t-149 77q-49 0 -86 -14t-69 -48.5t-50 -98.5t-20 -157z" />
    <glyph glyph-name="uni0436" unicode="&#x436;" horiz-adv-x="1343" 
d="M596 0v453h-133l-248 -453h-195l306 543l-289 481h182l242 -440h135v440h152v-440h135l241 440h183l-289 -481l305 -543h-195l-247 453h-133v-453h-152z" />
    <glyph glyph-name="uni0437" unicode="&#x437;" horiz-adv-x="858" 
d="M436 -25q-163 0 -255.5 78t-104.5 213v31l166 18v-26q19 -180 198 -180q84 0 133.5 42t49.5 134t-44.5 132t-138.5 40h-121v133h115q87 0 126.5 38t39.5 122q0 83 -45.5 123t-124.5 40q-166 0 -188 -184v-31l-166 19v26q15 150 108.5 228t253.5 78q154 0 240 -70t86 -207
q0 -192 -164 -242q94 -25 140 -85t46 -164q0 -143 -92 -224.5t-258 -81.5z" />
    <glyph glyph-name="uni0438" unicode="&#x438;" horiz-adv-x="1019" 
d="M150 0v1024h149v-682v-203h8q24 116 49 174l293 711h219v-1024h-149v707v178h-8q-17 -97 -47 -174l-293 -711h-221z" />
    <glyph glyph-name="uni0439" unicode="&#x439;" horiz-adv-x="1019" 
d="M150 0v1024h149v-682v-203h8q24 116 49 174l293 711h219v-1024h-149v707v178h-8q-17 -97 -47 -174l-293 -711h-221z" />
    <glyph glyph-name="uni043A" unicode="&#x43a;" horiz-adv-x="911" 
d="M150 0v1024h167v-440h127l242 440h182l-288 -481l305 -543h-195l-248 453h-125v-453h-167z" />
    <glyph glyph-name="uni043B" unicode="&#x43b;" horiz-adv-x="983" 
d="M31 -8v145q8 -2 32 -2q67 0 96 61t38 212q17 324 22 616h615v-1026h-166v876h-301l-19 -458q-8 -165 -39.5 -260t-83 -132.5t-133.5 -37.5q-34 0 -61 6z" />
    <glyph glyph-name="uni043C" unicode="&#x43c;" horiz-adv-x="1290" 
d="M942 750l-223 -750h-160l-209 750q-20 55 -37 135h-8v-156v-729h-155v1024h262l198 -715q15 -52 29 -137h6q9 55 31 137l209 715h256v-1024h-154v731v154h-8q-12 -54 -37 -135z" />
    <glyph glyph-name="uni043D" unicode="&#x43d;" horiz-adv-x="995" 
d="M315 1024v-436h365v436h166v-1024h-166v457h-365v-457h-165v1024h165z" />
    <glyph glyph-name="uni043E" unicode="&#x43e;" horiz-adv-x="970" 
d="M485 -25q-191 0 -296 133.5t-105 403.5t105 403.5t296 133.5t296.5 -133.5t105.5 -403.5t-105.5 -403.5t-296.5 -133.5zM262 512q0 -403 223 -403q224 0 224 403t-224 403q-223 0 -223 -403z" />
    <glyph glyph-name="uni043F" unicode="&#x43f;" horiz-adv-x="989" 
d="M150 0v1024h688v-1024h-166v874h-357v-874h-165z" />
    <glyph glyph-name="uni0440" unicode="&#x440;" horiz-adv-x="1030" 
d="M150 -399v1423h161v-199q32 106 107.5 165t179.5 59q167 0 256.5 -138.5t89.5 -398.5q0 -253 -94.5 -395t-263.5 -142q-101 0 -168 55t-99 156l-2 -585h-167zM322 422q0 -141 60 -224t163 -83q213 0 213 397t-213 397q-103 0 -163 -83t-60 -224v-180z" />
    <glyph glyph-name="uni0441" unicode="&#x441;" horiz-adv-x="907" 
d="M477 -25q-393 0 -393 537t393 537q161 0 252.5 -95t97.5 -280l-172 -21q-9 256 -182 256q-106 0 -159.5 -91.5t-53.5 -305.5q0 -212 55 -302.5t164 -90.5q84 0 130.5 64.5t49.5 195.5l172 -27q-7 -181 -102.5 -279t-251.5 -98z" />
    <glyph glyph-name="uni0442" unicode="&#x442;" horiz-adv-x="784" 
d="M33 874v150h717v-150h-275v-874h-164v874h-278z" />
    <glyph glyph-name="uni0443" unicode="&#x443;" horiz-adv-x="847" 
d="M154 -410q-25 0 -76 7v153q20 -2 59 -2q77 0 123 43t74 135l22 80l-338 1018h183l207 -711q20 -72 26 -131h4q6 39 29 129l186 713h176l-333 -1114q-55 -175 -138 -247.5t-204 -72.5z" />
    <glyph glyph-name="uni0444" unicode="&#x444;" horiz-adv-x="1404" 
d="M621 1485h163v-604q69 168 236 168q82 0 141.5 -41t93.5 -117t50 -171t16 -214q0 -531 -295 -531q-170 0 -242 162v-538h-163v538q-72 -162 -242 -162q-295 0 -295 531q0 119 16 214t50 171t93.5 117t141.5 41q167 0 236 -168v604zM258 506q0 -211 42.5 -302t133.5 -91
q187 0 187 282v226q0 132 -46.5 211t-136.5 79q-96 0 -138 -93t-42 -312zM784 395q0 -132 45.5 -207t141.5 -75q91 0 133.5 91t42.5 302q0 219 -42 312t-138 93q-89 0 -136 -79.5t-47 -210.5v-226z" />
    <glyph glyph-name="uni0445" unicode="&#x445;" horiz-adv-x="841" 
d="M20 0l306 532l-279 492h186l146 -293q38 -68 45 -96h2q2 8 43 96l135 293h191l-273 -504l299 -520h-188l-168 317q-37 65 -43 97h-2q-12 -40 -45 -97l-166 -317h-189z" />
    <glyph glyph-name="uni0446" unicode="&#x446;" horiz-adv-x="997" 
d="M150 0v1024h165v-874h351v874h165v-874h130v-422h-158v272h-653z" />
    <glyph glyph-name="uni0447" unicode="&#x447;" horiz-adv-x="942" 
d="M258 713q0 -112 42.5 -158.5t156.5 -46.5q90 0 168 35v481h166v-1024h-166v410q-93 -37 -213 -37q-168 0 -244 77t-76 246v328h166v-311z" />
    <glyph glyph-name="uni0448" unicode="&#x448;" horiz-adv-x="1427" 
d="M1112 1024h164v-1024h-1126v1024h165v-874h316v874h166v-874h315v874z" />
    <glyph glyph-name="uni0449" unicode="&#x449;" horiz-adv-x="1439" 
d="M1112 1024h164v-874h129v-422h-158v272h-1097v1024h165v-874h316v874h166v-874h315v874z" />
    <glyph glyph-name="uni044A" unicode="&#x44a;" horiz-adv-x="1015" 
d="M33 874v150h409v-348h170q165 0 249.5 -81.5t84.5 -254.5q0 -340 -334 -340h-336v874h-243zM442 133h146q100 0 145 49.5t45 159.5q0 106 -44.5 153.5t-145.5 47.5h-146v-410z" />
    <glyph glyph-name="uni044B" unicode="&#x44b;" horiz-adv-x="880" 
d="M819 340q0 -340 -334 -340h-335v1024h165v-348h170q165 0 249.5 -81.5t84.5 -254.5zM315 133h146q100 0 145 49.5t45 159.5q0 106 -44.5 153.5t-145.5 47.5h-146v-410z" />
    <glyph glyph-name="uni044C" unicode="&#x44c;" horiz-adv-x="880" 
d="M819 340q0 -340 -334 -340h-335v1024h165v-348h170q165 0 249.5 -81.5t84.5 -254.5zM315 133h146q100 0 145 49.5t45 159.5q0 106 -44.5 153.5t-145.5 47.5h-146v-410z" />
    <glyph glyph-name="uni044D" unicode="&#x44d;" horiz-adv-x="882" 
d="M424 -25q-154 0 -246 88t-98 244l160 17q13 -116 57 -164.5t125 -48.5q104 0 153.5 85.5t55.5 258.5h-322v137h320q-8 165 -54.5 244t-144.5 79q-87 0 -130 -48t-58 -165l-166 19q14 155 104 241.5t240 86.5q194 0 286.5 -133.5t92.5 -380.5v-31q0 -529 -375 -529z" />
    <glyph glyph-name="uni044E" unicode="&#x44e;" horiz-adv-x="1335" 
d="M862 -25q-173 0 -273.5 123.5t-109.5 358.5h-162v-457h-167v1024h167v-434h162q15 224 115 341.5t268 117.5q185 0 287 -137t102 -398q0 -264 -102 -401.5t-287 -137.5zM139 1206v224h187v-224h-187zM647 508q0 -387 215 -387q107 0 162 94.5t55 300.5q0 387 -217 387
q-106 0 -160.5 -95t-54.5 -300z" />
    <glyph glyph-name="uni044F" unicode="&#x44f;" horiz-adv-x="931" 
d="M94 709q0 158 88 236.5t244 78.5h356v-1024h-166v393h-155l-195 -393h-184l213 410q-201 56 -201 299zM262 707q0 -93 45 -137t139 -44h170v365h-178q-89 0 -132.5 -43.5t-43.5 -140.5z" />
    <glyph glyph-name="uni0451" unicode="&#x451;" horiz-adv-x="931" 
d="M481 -25q-70 0 -128.5 17.5t-109 57.5t-85.5 101t-54.5 152.5t-19.5 208.5q0 116 20 208t55.5 153t85.5 101t107.5 57.5t124.5 17.5q176 0 272.5 -115.5t96.5 -329.5v-131h-594q5 -180 60 -265t173 -85q176 0 209 190l150 -45q-26 -143 -121 -218t-242 -75zM252 600h424
q0 164 -50 241t-149 77q-49 0 -86 -14t-69 -48.5t-50 -98.5t-20 -157z" />
    <glyph glyph-name="uni0454" unicode="&#x454;" horiz-adv-x="882" 
d="M573 592v-137h-321q6 -173 55.5 -258.5t153.5 -85.5q81 0 125 48.5t57 164.5l160 -17q-6 -156 -98 -244t-246 -88q-375 0 -375 529v31q0 247 92.5 380.5t286.5 133.5q150 0 240 -86.5t104 -241.5l-166 -19q-15 117 -58 165t-130 48q-98 0 -144.5 -79t-54.5 -244h319z" />
    <glyph glyph-name="uni0455" unicode="&#x455;" horiz-adv-x="882" 
d="M446 -23q-168 0 -269 82t-114 238l166 27q11 -97 69.5 -154t150.5 -57q88 0 139 41.5t51 113.5q0 71 -33 107.5t-114 58.5l-150 39q-115 30 -178.5 102.5t-63.5 180.5q0 134 96.5 213.5t245.5 79.5q161 0 255 -72.5t100 -216.5l-162 -27q-17 185 -193 185
q-83 0 -130.5 -40.5t-47.5 -113.5q0 -61 36.5 -95t117.5 -57l145 -39q128 -35 184 -104.5t56 -187.5q0 -129 -98 -216.5t-259 -87.5z" />
    <glyph glyph-name="uni0458" unicode="&#x458;" horiz-adv-x="462" 
d="M84 -414q-54 0 -104 11v147q41 -4 77 -4q47 0 68.5 28t21.5 101v1155h166v-1161q0 -131 -51.5 -204t-177.5 -73zM137 1206v224h187v-224h-187z" />
    <glyph glyph-name="Wgrave" unicode="&#x1e80;" horiz-adv-x="1554" 
d="M313 0l-262 1454h180l185 -1116q11 -86 14 -166h8q1 16 21 166l217 1116h201l219 -1116l20 -166h6q5 75 17 166l184 1116h180l-262 -1454h-235l-207 1083q-14 95 -17 174h-10q-3 -70 -18 -174l-205 -1083h-236z" />
    <glyph glyph-name="wgrave" unicode="&#x1e81;" horiz-adv-x="1282" 
d="M285 0l-240 1024h170l145 -756q9 -46 15 -102h4q4 22 11.5 60.5t8.5 41.5l154 756h178l154 -756q16 -82 18 -102h4q3 32 17 102l145 756h170l-240 -1024h-180l-160 756q-9 48 -16 108h-4q-10 -84 -16 -108l-158 -756h-180z" />
    <glyph glyph-name="Wacute" unicode="&#x1e82;" horiz-adv-x="1554" 
d="M313 0l-262 1454h180l185 -1116q11 -86 14 -166h8q1 16 21 166l217 1116h201l219 -1116l20 -166h6q5 75 17 166l184 1116h180l-262 -1454h-235l-207 1083q-14 95 -17 174h-10q-3 -70 -18 -174l-205 -1083h-236z" />
    <glyph glyph-name="wacute" unicode="&#x1e83;" horiz-adv-x="1282" 
d="M285 0l-240 1024h170l145 -756q9 -46 15 -102h4q4 22 11.5 60.5t8.5 41.5l154 756h178l154 -756q16 -82 18 -102h4q3 32 17 102l145 756h170l-240 -1024h-180l-160 756q-9 48 -16 108h-4q-10 -84 -16 -108l-158 -756h-180z" />
    <glyph glyph-name="Wdieresis" unicode="&#x1e84;" horiz-adv-x="1554" 
d="M313 0l-262 1454h180l185 -1116q11 -86 14 -166h8q1 16 21 166l217 1116h201l219 -1116l20 -166h6q5 75 17 166l184 1116h180l-262 -1454h-235l-207 1083q-14 95 -17 174h-10q-3 -70 -18 -174l-205 -1083h-236z" />
    <glyph glyph-name="wdieresis" unicode="&#x1e85;" horiz-adv-x="1282" 
d="M285 0l-240 1024h170l145 -756q9 -46 15 -102h4q4 22 11.5 60.5t8.5 41.5l154 756h178l154 -756q16 -82 18 -102h4q3 32 17 102l145 756h170l-240 -1024h-180l-160 756q-9 48 -16 108h-4q-10 -84 -16 -108l-158 -756h-180z" />
    <glyph glyph-name="Ygrave" unicode="&#x1ef2;" horiz-adv-x="1013" 
d="M418 0v602l-402 852h197l256 -577q26 -61 35 -107h4q7 36 37 107l256 577h196l-401 -852v-602h-178z" />
    <glyph glyph-name="ygrave" unicode="&#x1ef3;" horiz-adv-x="847" 
d="M154 -410q-25 0 -76 7v153q20 -2 59 -2q77 0 123 43t74 135l22 80l-338 1018h183l207 -711q20 -72 26 -131h4q6 39 29 129l186 713h176l-333 -1114q-55 -175 -138 -247.5t-204 -72.5z" />
    </font>
</defs>
</svg>
