<?xml version="1.0" standalone="no"?>
<!DOCTYPE svg PUBLIC "-//W3C//DTD SVG 1.1//EN" "http://www.w3.org/Graphics/SVG/1.1/DTD/svg11.dtd" >
<svg xmlns="http://www.w3.org/2000/svg" xmlns:xlink="http://www.w3.org/1999/xlink" version="1.1">
<metadata>
Created by FontForge 20201107 at Thu Jul  4 08:30:11 2024
 By 
Copyright (c) 2016 by Grilli Type. All rights reserved.
</metadata>
<defs>
<font id="GTAmericaTrial-CnTh" horiz-adv-x="931" >
  <font-face 
    font-family="GT America Trial Cn Th"
    font-weight="275"
    font-stretch="condensed"
    units-per-em="2048"
    panose-1="0 0 0 0 0 0 0 0 0 0"
    ascent="1608"
    descent="-440"
    x-height="1024"
    cap-height="1454"
    bbox="-37 -424 2095 1505"
    underline-thickness="102"
    underline-position="-255"
    unicode-range="U+0020-1EF3"
  />
<missing-glyph horiz-adv-x="1126" 
d="M864 700v324h-61v-324h61zM102 0v1434h922v-1434h-922zM145 860q0 -72 37.5 -119t100.5 -47q65 0 88 41l8 -35h47v179h-137v-58h82v-4q0 -25 -18.5 -46t-55.5 -21q-41 0 -62.5 28t-21.5 80q0 51 21.5 82t60.5 31q49 0 63 -47l62 24q-29 80 -123 80q-72 0 -112 -47
t-40 -121zM182 569h90v-260h62v260h90v60h-242v-60zM406 309h61v101q0 71 57 71q13 0 21 -2v58q-6 2 -21 2q-42 0 -61 -43v36h-57v-223zM463 700h59v103q0 31 15 51t47 20q14 0 20 -2v56q-12 4 -22 4q-38 0 -64 -43v37h-55v-226zM557 571h66v62h-66v-62zM559 309h62v223h-62
v-223zM616 965h66v59h-66v-59zM618 700h62v226h-62v-226zM637 373q0 -32 22 -51t56 -19q51 0 71 39q0 -23 2 -33h60q-6 30 -6 43v82q0 55 -20.5 80t-73.5 25q-50 0 -76.5 -20t-28.5 -56h59q3 31 43 31q22 0 29.5 -11t7.5 -34q-62 -5 -102 -17q-43 -17 -43 -59zM698 375
q0 27 47 33l37 4v-6q0 -27 -13.5 -42.5t-35.5 -15.5q-16 0 -25.5 8t-9.5 19zM711 700h59v324h-59v-324zM874 309h60v324h-60v-324zM897 965h66v59h-66v-59zM899 700h62v226h-62v-226z" />
    <glyph glyph-name=".notdef" horiz-adv-x="1126" 
d="M864 700v324h-61v-324h61zM102 0v1434h922v-1434h-922zM145 860q0 -72 37.5 -119t100.5 -47q65 0 88 41l8 -35h47v179h-137v-58h82v-4q0 -25 -18.5 -46t-55.5 -21q-41 0 -62.5 28t-21.5 80q0 51 21.5 82t60.5 31q49 0 63 -47l62 24q-29 80 -123 80q-72 0 -112 -47
t-40 -121zM182 569h90v-260h62v260h90v60h-242v-60zM406 309h61v101q0 71 57 71q13 0 21 -2v58q-6 2 -21 2q-42 0 -61 -43v36h-57v-223zM463 700h59v103q0 31 15 51t47 20q14 0 20 -2v56q-12 4 -22 4q-38 0 -64 -43v37h-55v-226zM557 571h66v62h-66v-62zM559 309h62v223h-62
v-223zM616 965h66v59h-66v-59zM618 700h62v226h-62v-226zM637 373q0 -32 22 -51t56 -19q51 0 71 39q0 -23 2 -33h60q-6 30 -6 43v82q0 55 -20.5 80t-73.5 25q-50 0 -76.5 -20t-28.5 -56h59q3 31 43 31q22 0 29.5 -11t7.5 -34q-62 -5 -102 -17q-43 -17 -43 -59zM698 375
q0 27 47 33l37 4v-6q0 -27 -13.5 -42.5t-35.5 -15.5q-16 0 -25.5 8t-9.5 19zM711 700h59v324h-59v-324zM874 309h60v324h-60v-324zM897 965h66v59h-66v-59zM899 700h62v226h-62v-226z" />
    <glyph glyph-name=".null" horiz-adv-x="0" 
 />
    <glyph glyph-name=".null" horiz-adv-x="0" 
 />
    <glyph glyph-name="nonmarkingreturn" horiz-adv-x="682" 
 />
    <glyph glyph-name="space" unicode=" " horiz-adv-x="464" 
 />
    <glyph glyph-name="space" unicode="&#xa0;" horiz-adv-x="464" 
 />
    <glyph glyph-name="comma" unicode="," horiz-adv-x="385" 
d="M109 -195q50 33 65.5 72t15.5 109v14h-59v203h125v-203q0 -98 -26 -153t-91 -93z" />
    <glyph glyph-name="hyphen" unicode="-" horiz-adv-x="688" 
d="M92 616h504v-94h-504v94z" />
    <glyph glyph-name="period" unicode="." horiz-adv-x="382" 
d="M254 203v-203h-125v203h125z" />
    <glyph glyph-name="zero" unicode="0" horiz-adv-x="1071" 
d="M537 -31q-105 0 -181 38t-132.5 123.5t-84.5 231t-28 351.5t28 351t84.5 230t132.5 122.5t181 37.5t182 -37.5t133.5 -122.5t84.5 -229.5t28 -351.5t-28 -352t-84.5 -230.5t-133.5 -123.5t-182 -38zM215 713q0 -186 21 -314.5t63.5 -203t100 -106.5t137.5 -32
q81 0 138 32t99.5 106.5t63 202t20.5 313.5t-20.5 314.5t-63 202.5t-99.5 106t-138 32q-80 0 -137.5 -31.5t-100 -105.5t-63.5 -202t-21 -314z" />
    <glyph glyph-name="one" unicode="1" horiz-adv-x="669" 
d="M340 1225q-31 -58 -99 -92.5t-139 -34.5h-41v92h27q96 0 170.5 63t97.5 170h84v-1423h-100v1225z" />
    <glyph glyph-name="two" unicode="2" horiz-adv-x="937" 
d="M76 88q276 290 370 398q57 66 103 126q174 228 174 455q0 144 -66 221.5t-186 77.5q-128 0 -198 -73t-70 -208q0 -73 12 -129l-109 13q-8 74 -8 121q0 172 99 268t276 96q172 0 265 -98t93 -281q0 -246 -192 -495q-31 -42 -69 -87.5t-88.5 -101.5t-84.5 -92t-101.5 -107
t-94.5 -100h655v-92h-780v88z" />
    <glyph glyph-name="three" unicode="3" horiz-adv-x="968" 
d="M481 -31q-185 0 -287 112.5t-106 326.5l102 10q1 -177 78.5 -269t212.5 -92q138 0 209.5 77t71.5 245q0 160 -73.5 238.5t-209.5 78.5h-82v90h74q124 0 193 75t69 226q0 279 -256 279q-274 0 -274 -352l-103 12q0 208 98.5 318t280.5 110q173 0 266 -88.5t93 -271.5
q0 -144 -63 -233t-173 -113q128 -19 197 -112t69 -255q0 -209 -100.5 -310.5t-286.5 -101.5z" />
    <glyph glyph-name="four" unicode="4" horiz-adv-x="968" 
d="M899 371h-197v-371h-98v371h-571v75l553 977h116v-970h197v-82zM129 453h475v698q0 105 4 160h-4q-23 -77 -61 -146l-340 -590q-51 -90 -74 -122z" />
    <glyph glyph-name="five" unicode="5" horiz-adv-x="964" 
d="M483 -31q-167 0 -267.5 100t-113.5 287l103 11q12 -150 85.5 -230t194.5 -80q137 0 211 103.5t74 306.5q0 397 -272 397q-108 0 -183 -69.5t-94 -184.5l-100 13l55 800h645v-90h-561l-41 -581q87 198 309 198q168 0 258.5 -122t90.5 -357q0 -242 -104 -372t-290 -130z
" />
    <glyph glyph-name="six" unicode="6" horiz-adv-x="987" 
d="M516 -31q-103 0 -177 36t-129.5 120t-82.5 229t-27 355q0 202 26.5 346t80.5 231.5t129.5 127.5t179.5 40q333 0 365 -367l-107 -14q-12 152 -75 223.5t-185 71.5q-157 0 -233 -152t-76 -493v-12q38 114 126 175.5t208 61.5q169 0 265.5 -123.5t96.5 -357.5
q0 -236 -101.5 -367t-283.5 -131zM207 555q13 -265 88.5 -382.5t222.5 -117.5q131 0 204 105.5t73 306.5q0 196 -74 295.5t-205 99.5q-120 0 -200.5 -81t-108.5 -226z" />
    <glyph glyph-name="seven" unicode="7" horiz-adv-x="858" 
d="M283 43q0 352 106 668.5t322 619.5h-654v92h760v-80q-425 -566 -428 -1267v-76h-106v43z" />
    <glyph glyph-name="eight" unicode="8" horiz-adv-x="987" 
d="M496 -31q-195 0 -299.5 100t-104.5 289q0 158 70.5 250t210.5 135q-62 21 -105 47.5t-78 67.5t-52 101.5t-17 142.5q0 175 99.5 263.5t271.5 88.5q174 0 271 -87.5t97 -264.5q0 -146 -61 -225.5t-193 -118.5q71 -23 120 -51t90 -73t61 -112.5t20 -159.5
q0 -199 -104.5 -296t-296.5 -97zM197 360q0 -153 77.5 -230t221.5 -77t220.5 72.5t76.5 232.5q0 80 -17 137.5t-52.5 95t-77.5 60t-105 41.5l-70 21q-141 -43 -207.5 -124t-66.5 -229zM225 1104q0 -72 15.5 -123t48.5 -85t71.5 -54t96.5 -39l53 -17q141 44 195.5 109
t54.5 207q0 272 -268 272q-267 0 -267 -270z" />
    <glyph glyph-name="nine" unicode="9" horiz-adv-x="983" 
d="M477 -31q-163 0 -255.5 89.5t-112.5 279.5l102 18q24 -301 266 -301q107 0 173.5 61t102 210.5t35.5 400.5v35v10q-36 -117 -125 -179.5t-208 -62.5q-172 0 -270.5 117.5t-98.5 343.5q0 220 102 341.5t285 121.5q101 0 173 -32t127.5 -111t82.5 -222t27 -354
q0 -213 -25.5 -361.5t-78 -237.5t-126 -128t-176.5 -39zM193 993q0 -189 74.5 -284t207.5 -95q124 0 209 90t98 248q-20 224 -93.5 320t-217.5 96q-132 0 -205 -95.5t-73 -279.5z" />
    <glyph glyph-name="A" unicode="A" horiz-adv-x="1071" 
d="M47 0l430 1454h115l430 -1454h-107l-122 430h-514l-123 -430h-109zM305 520h461l-176 610q-30 96 -51 209h-7q-17 -89 -51 -209z" />
    <glyph glyph-name="B" unicode="B" horiz-adv-x="1081" 
d="M184 0v1454h367q110 0 190 -30.5t123.5 -84.5t63.5 -117t20 -139q0 -131 -60 -217.5t-181 -107.5q131 -20 199.5 -113t68.5 -246q0 -88 -21.5 -158.5t-68 -125.5t-126.5 -85t-190 -30h-385zM289 86h270q87 0 148 23.5t94.5 67.5t48 98.5t14.5 125.5q0 149 -71.5 229.5
t-231.5 80.5h-272v-625zM289 793h268q283 0 283 286q0 291 -295 291h-256v-577z" />
    <glyph glyph-name="C" unicode="C" horiz-adv-x="1126" 
d="M584 -35q-248 0 -363 187t-115 575q0 389 120 575.5t362 186.5q407 0 430 -504l-109 -10q-10 219 -91.5 320.5t-233.5 101.5q-187 0 -278 -161.5t-91 -506.5q0 -346 90.5 -509t282.5 -163q294 0 323 420l107 -14q-38 -498 -434 -498z" />
    <glyph glyph-name="D" unicode="D" horiz-adv-x="1167" 
d="M184 0v1454h332q267 0 406 -181.5t139 -541.5q0 -358 -143 -544.5t-402 -186.5h-332zM289 86h227q208 0 321 166.5t113 478.5q0 637 -436 637h-225v-1282z" />
    <glyph glyph-name="E" unicode="E" horiz-adv-x="980" 
d="M289 90h600v-90h-705v1454h690v-90h-585v-571h551v-91h-551v-612z" />
    <glyph glyph-name="F" unicode="F" horiz-adv-x="942" 
d="M289 0h-105v1454h690v-90h-585v-571h551v-91h-551v-702z" />
    <glyph glyph-name="G" unicode="G" horiz-adv-x="1148" 
d="M551 -35q-445 0 -445 762q0 393 119.5 577.5t358.5 184.5q89 0 159 -24.5t117 -66t79 -101.5t47.5 -127.5t19.5 -147.5l-109 -12q-6 90 -24.5 157t-54 122t-96 83.5t-144.5 28.5q-181 0 -272 -160.5t-91 -513.5q0 -339 89 -505.5t274 -166.5q79 0 141 32.5t99.5 83
t61.5 119.5t33 135.5t9 137.5v94h-363v91h465v-748h-82l-8 281q-40 -150 -138 -233t-245 -83z" />
    <glyph glyph-name="H" unicode="H" horiz-adv-x="1228" 
d="M1044 1454v-1454h-104v702h-651v-702h-105v1454h105v-663h651v663h104z" />
    <glyph glyph-name="I" unicode="I" horiz-adv-x="473" 
d="M289 0h-105v1454h105v-1454z" />
    <glyph glyph-name="J" unicode="J" horiz-adv-x="641" 
d="M475 305q0 -175 -84.5 -252.5t-226.5 -77.5q-86 0 -133 17v98q69 -16 131 -16q97 0 152 54.5t55 186.5v1139h106v-1149z" />
    <glyph glyph-name="K" unicode="K" horiz-adv-x="1093" 
d="M184 0v1454h105v-819l598 819h125l-424 -565l454 -889h-118l-410 805l-225 -309v-496h-105z" />
    <glyph glyph-name="L" unicode="L" horiz-adv-x="884" 
d="M184 0v1454h105v-1362h551v-92h-656z" />
    <glyph glyph-name="M" unicode="M" horiz-adv-x="1464" 
d="M184 0v1454h156l362 -1204q23 -84 27 -131h6q3 37 29 131l360 1204h158v-1454h-100v1149q0 117 6 199h-6q-10 -52 -37 -166l-359 -1182h-108l-359 1182l-12.5 62.5t-12.5 63t-9 40.5h-6q4 -110 4 -199v-1149h-99z" />
    <glyph glyph-name="N" unicode="N" horiz-adv-x="1245" 
d="M184 0v1454h123l588 -1132q35 -70 72 -181h2q-8 107 -8 234v1079h100v-1454h-115l-596 1147q-10 19 -20.5 43.5t-17 42t-17.5 49t-16 45.5h-3q9 -157 9 -221v-1106h-101z" />
    <glyph glyph-name="O" unicode="O" horiz-adv-x="1206" 
d="M604 -35q-498 0 -498 762t498 762t498 -762t-498 -762zM217 727q0 -670 387 -670t387 670t-387 670t-387 -670z" />
    <glyph glyph-name="P" unicode="P" horiz-adv-x="997" 
d="M289 0h-105v1454h371q190 0 293.5 -103.5t103.5 -291.5q0 -197 -103.5 -307.5t-287.5 -110.5h-272v-641zM289 727h268q134 0 209.5 88t75.5 244q0 151 -75.5 230t-215.5 79h-262v-641z" />
    <glyph glyph-name="Q" unicode="Q" horiz-adv-x="1200" 
d="M604 -35q-498 0 -498 762t498 762t498 -762q0 -631 -342 -739q44 -64 95.5 -90.5t121.5 -26.5q48 0 96 10v-96q-83 -10 -108 -10q-102 0 -176.5 52t-112.5 142q-46 -4 -72 -4zM217 727q0 -670 387 -670t387 670t-387 670t-387 -670z" />
    <glyph glyph-name="R" unicode="R" horiz-adv-x="1083" 
d="M184 0v1454h373q213 0 307 -104t94 -295q0 -148 -67.5 -252t-202.5 -135l311 -668h-118l-303 651h-289v-651h-105zM289 735h274q139 0 210 83t71 237q0 158 -69 235.5t-222 77.5h-264v-633z" />
    <glyph glyph-name="S" unicode="S" horiz-adv-x="1024" 
d="M535 -35q-221 0 -333 122.5t-124 373.5l108 14q11 -216 95.5 -318t257.5 -102q134 0 209 77.5t75 211.5q0 137 -54.5 209t-184.5 119l-189 67q-135 49 -204.5 147.5t-69.5 233.5q0 171 102.5 270t280.5 99q194 0 299 -106.5t112 -350.5l-104 -18q-9 208 -84.5 297.5
t-222.5 89.5q-129 0 -201 -74t-72 -201q0 -107 53 -179.5t169 -115.5l182 -67q155 -56 227 -154t72 -260q0 -183 -107.5 -284t-291.5 -101z" />
    <glyph glyph-name="T" unicode="T" horiz-adv-x="940" 
d="M25 1362v92h888v-92h-391v-1362h-102v1362h-395z" />
    <glyph glyph-name="U" unicode="U" horiz-adv-x="1173" 
d="M166 1454h104v-1051q0 -163 84 -254.5t234 -91.5q149 0 232 91.5t83 254.5v1051h105v-1057q0 -200 -110.5 -316t-309.5 -116q-201 0 -311.5 115.5t-110.5 316.5v1057z" />
    <glyph glyph-name="V" unicode="V" horiz-adv-x="1013" 
d="M446 0l-415 1454h110l312 -1124q33 -101 51 -209h6q15 92 51 209l311 1124h111l-416 -1454h-121z" />
    <glyph glyph-name="W" unicode="W" horiz-adv-x="1519" 
d="M346 0l-289 1454h105l235 -1190q10 -72 17 -153h4q8 83 20 153l262 1190h119l264 -1190q18 -127 19 -153h6q2 56 16 153l234 1190h106l-288 -1454h-138l-260 1202q-10 54 -14 131h-6q-9 -88 -17 -131l-260 -1202h-135z" />
    <glyph glyph-name="X" unicode="X" horiz-adv-x="1019" 
d="M33 0l411 766l-374 688h118l275 -510q29 -51 47 -106h4q13 40 47 106l275 510h114l-372 -692l409 -762h-121l-297 571q-40 69 -57 121h-4q-23 -60 -59 -121l-297 -571h-119z" />
    <glyph glyph-name="Y" unicode="Y" horiz-adv-x="966" 
d="M430 0v614l-410 840h117l295 -620q38 -81 49 -119h4q10 32 50 119l294 620h117l-409 -840v-614h-107z" />
    <glyph glyph-name="Z" unicode="Z" 
d="M59 92l695 1270h-662v92h776v-92l-696 -1270h717v-92h-830v92z" />
    <glyph glyph-name="a" unicode="a" horiz-adv-x="899" 
d="M365 -25q-126 0 -200.5 76t-74.5 205q0 131 86 211q80 77 258 106l221 39v90q0 140 -48.5 202.5t-160.5 62.5q-114 0 -170 -64t-59 -203h-102q3 178 93 263.5t238 85.5q163 0 235.5 -77.5t72.5 -258.5v-383q0 -209 22 -330h-98q-14 110 -14 213q-31 -113 -107.5 -175.5
t-191.5 -62.5zM195 264q0 -99 52 -153t146 -54q119 0 191.5 91.5t72.5 240.5v150l-225 -41q-121 -22 -179 -78t-58 -156z" />
    <glyph glyph-name="b" unicode="b" horiz-adv-x="991" 
d="M547 -25q-104 0 -182 67t-107 181l-12 -223h-82v1485h98v-692q32 123 110 189.5t189 66.5q334 0 334 -531q0 -271 -92 -407t-256 -136zM262 430q0 -169 72 -270t192 -101q130 0 196 110t66 349q0 236 -62.5 341.5t-190.5 105.5q-123 0 -198 -102.5t-75 -268.5v-164z" />
    <glyph glyph-name="c" unicode="c" horiz-adv-x="882" 
d="M467 -25q-178 0 -274.5 135t-96.5 402q0 271 94.5 404t274.5 133q145 0 230.5 -95t92.5 -274l-102 -8q-7 145 -66 219t-159 74q-262 0 -262 -453q0 -230 69.5 -340.5t198.5 -110.5q99 0 157.5 76t65.5 223l101 -12q-10 -180 -96.5 -276.5t-227.5 -96.5z" />
    <glyph glyph-name="d" unicode="d" horiz-adv-x="991" 
d="M438 -25q-166 0 -253 135t-87 404t91 402t260 133q105 0 177 -63t101 -183v682h100v-1485h-94v229q-33 -118 -111 -186t-184 -68zM203 514q0 -240 64.5 -347.5t199.5 -107.5q123 0 193.5 103t70.5 270v160q0 165 -67.5 269t-188.5 104q-137 0 -204.5 -108t-67.5 -343z
" />
    <glyph glyph-name="e" unicode="e" horiz-adv-x="897" 
d="M461 -25q-365 0 -365 537q0 147 25.5 252.5t74 167t112 89.5t145.5 28q342 0 342 -463v-80h-600q2 -162 35 -262.5t90 -141.5t143 -41q100 0 164.5 67.5t74.5 197.5l91 -23q-15 -157 -104 -242.5t-228 -85.5zM195 582h501q0 206 -61 296.5t-182 90.5t-189 -89.5
t-69 -297.5z" />
    <glyph glyph-name="f" unicode="f" horiz-adv-x="579" 
d="M539 1024v-80h-228v-944h-96v944h-166v80h166v215q0 122 61.5 190t174.5 68q46 0 88 -10v-84q-50 8 -74 8q-79 0 -116.5 -44t-37.5 -136v-207h228z" />
    <glyph glyph-name="g" unicode="g" horiz-adv-x="866" 
d="M449 -424q-182 0 -280.5 73.5t-98.5 196.5q0 85 45.5 147t126.5 87q-61 23 -93 66.5t-32 99.5q0 118 129 166q-123 90 -123 290q0 162 83 254.5t230 92.5q94 0 164 -39q19 76 73.5 120t131.5 44q20 0 35 -5v-86q-28 4 -43 4q-119 0 -158 -106q109 -89 109 -279
q0 -162 -82.5 -255t-229.5 -93q-80 0 -151 33q-36 -12 -59 -42t-23 -69q0 -51 36.5 -83t108.5 -39l225 -17q128 -12 196.5 -81.5t68.5 -182.5q0 -139 -100.5 -218t-288.5 -79zM164 -135q0 -101 77 -157t214 -56q143 0 213.5 55.5t70.5 159.5q0 168 -192 182l-223 14
q-7 0 -27 5q-64 -26 -98.5 -78.5t-34.5 -124.5zM219 702q0 -131 58.5 -203.5t158.5 -72.5t157.5 72t57.5 204q0 131 -57.5 202t-157.5 71q-101 0 -159 -71.5t-58 -201.5z" />
    <glyph glyph-name="h" unicode="h" horiz-adv-x="974" 
d="M166 0v1485h96v-682q29 119 105.5 182.5t189.5 63.5q274 0 274 -347v-702h-98v696q0 269 -211 269q-122 0 -191 -100.5t-69 -280.5v-584h-96z" />
    <glyph glyph-name="i" unicode="i" horiz-adv-x="428" 
d="M166 0v1024h96v-1024h-96zM160 1198v232h106v-232h-106z" />
    <glyph glyph-name="j" unicode="j" horiz-adv-x="419" 
d="M53 -414q-56 0 -90 11v86q54 -7 74 -7q59 0 90 34t31 114v1200h96v-1204q0 -115 -51 -174.5t-150 -59.5zM152 1198v232h106v-232h-106z" />
    <glyph glyph-name="k" unicode="k" horiz-adv-x="897" 
d="M166 0v1485h96v-1020l445 559h118l-311 -381l332 -643h-113l-289 563l-182 -219v-344h-96z" />
    <glyph glyph-name="l" unicode="l" horiz-adv-x="428" 
d="M262 1485v-1485h-96v1485h96z" />
    <glyph glyph-name="m" unicode="m" horiz-adv-x="1419" 
d="M166 1024h92v-209q25 112 92.5 173t167.5 61q96 0 157 -56t83 -162q31 106 98.5 162t165.5 56q125 0 190.5 -82t65.5 -238v-729h-98v711q0 125 -48 189.5t-141 64.5q-103 0 -162 -82t-59 -226v-657h-98v717q0 121 -47 184.5t-136 63.5q-106 0 -166.5 -90t-60.5 -248v-627
h-96v1024z" />
    <glyph glyph-name="n" unicode="n" horiz-adv-x="972" 
d="M166 0v1024h92v-225q32 123 107 186.5t188 63.5q278 0 278 -351v-698h-98v692q0 273 -213 273q-122 0 -190 -100t-68 -281v-584h-96z" />
    <glyph glyph-name="o" unicode="o" 
d="M467 -25q-177 0 -274 130.5t-97 406.5t97 406.5t274 130.5q369 0 369 -537t-369 -537zM201 512q0 -243 69.5 -349t196.5 -106q266 0 266 455t-266 455q-127 0 -196.5 -106t-69.5 -349z" />
    <glyph glyph-name="p" unicode="p" horiz-adv-x="993" 
d="M164 -399v1423h96v-231q31 121 110.5 188.5t190.5 67.5q336 0 336 -531q0 -268 -92.5 -405.5t-253.5 -137.5q-107 0 -182.5 64.5t-104.5 177.5v-616h-100zM264 430q0 -169 72.5 -270t193.5 -101q128 0 193 110t65 349q0 237 -62 342t-189 105q-123 0 -198 -102.5
t-75 -268.5v-164z" />
    <glyph glyph-name="q" unicode="q" horiz-adv-x="987" 
d="M725 227q-30 -117 -105 -184.5t-180 -67.5q-166 0 -254 134t-88 405t93 403t260 132q104 0 176 -62t102 -182l12 219h82v-1423h-98v626zM203 514q0 -237 64 -346t194 -109q126 0 196 103t70 270v160q0 165 -67.5 269t-190.5 104q-134 0 -200 -109t-66 -342z" />
    <glyph glyph-name="r" unicode="r" horiz-adv-x="595" 
d="M258 766q26 127 96.5 205t173.5 78q17 0 29 -2v-101q-10 2 -27 2q-104 0 -174 -86q-94 -111 -94 -321v-541h-96v1024h92v-258z" />
    <glyph glyph-name="s" unicode="s" horiz-adv-x="829" 
d="M426 -25q-160 0 -250 81.5t-94 256.5l98 13q4 -135 69.5 -202t176.5 -67q102 0 158.5 52.5t56.5 146.5q0 83 -39.5 131.5t-132.5 77.5l-139 43q-221 69 -221 272q0 126 82.5 197.5t220.5 71.5q312 0 317 -314l-96 -14q-9 139 -63.5 193.5t-159.5 54.5q-96 0 -149.5 -48
t-53.5 -135q0 -78 39.5 -123t130.5 -75l141 -43q116 -36 168.5 -104.5t52.5 -176.5q0 -131 -83.5 -210t-229.5 -79z" />
    <glyph glyph-name="t" unicode="t" horiz-adv-x="581" 
d="M41 944v80h156v262l96 39v-301h225v-80h-225v-706q0 -164 145 -164q37 0 82 10v-88q-43 -14 -106 -14q-108 0 -162.5 61.5t-54.5 179.5v721h-156z" />
    <glyph glyph-name="u" unicode="u" horiz-adv-x="968" 
d="M422 -25q-279 0 -279 347v702h99v-696q0 -140 55.5 -203.5t148.5 -63.5q121 0 190 99.5t69 259.5v604h98v-1024h-94v211q-29 -108 -103.5 -172t-183.5 -64z" />
    <glyph glyph-name="v" unicode="v" horiz-adv-x="784" 
d="M340 0l-313 1024h104l223 -768q28 -95 35 -145h6q11 54 37 145l223 768h103l-312 -1024h-106z" />
    <glyph glyph-name="w" unicode="w" horiz-adv-x="1220" 
d="M295 0l-244 1024h99l176 -801q19 -105 20 -114h4q5 37 23 114l186 801h103l186 -801q15 -65 22 -114h4q4 46 21 114l176 801h98l-241 -1024h-107l-190 815l-19 107h-4q-12 -74 -20 -107l-189 -815h-104z" />
    <glyph glyph-name="x" unicode="x" horiz-adv-x="796" 
d="M39 0l303 537l-279 487h111l168 -315q39 -69 57 -109h4q11 27 58 111l160 313h112l-274 -494l299 -530h-111l-192 358q-53 98 -56 105h-2q-16 -37 -57 -107l-190 -356h-111z" />
    <glyph glyph-name="y" unicode="y" horiz-adv-x="792" 
d="M131 -410q-21 0 -65 7v90q20 -4 55 -4q84 0 132.5 53.5t80.5 159.5l26 100l-333 1028h106l234 -770q38 -134 41 -152h2q10 42 39 144l215 778h102l-334 -1133q-49 -161 -119.5 -231t-181.5 -70z" />
    <glyph glyph-name="z" unicode="z" horiz-adv-x="755" 
d="M70 78l495 862h-473v84h584v-76l-494 -864h514v-84h-626v78z" />
    <glyph glyph-name="ordfeminine" unicode="&#xaa;" horiz-adv-x="899" 
d="M365 -25q-126 0 -200.5 76t-74.5 205q0 131 86 211q80 77 258 106l221 39v90q0 140 -48.5 202.5t-160.5 62.5q-114 0 -170 -64t-59 -203h-102q3 178 93 263.5t238 85.5q163 0 235.5 -77.5t72.5 -258.5v-383q0 -209 22 -330h-98q-14 110 -14 213q-31 -113 -107.5 -175.5
t-191.5 -62.5zM195 264q0 -99 52 -153t146 -54q119 0 191.5 91.5t72.5 240.5v150l-225 -41q-121 -22 -179 -78t-58 -156z" />
    <glyph glyph-name="ordmasculine" unicode="&#xba;" 
d="M467 -25q-177 0 -274 130.5t-97 406.5t97 406.5t274 130.5q369 0 369 -537t-369 -537zM201 512q0 -243 69.5 -349t196.5 -106q266 0 266 455t-266 455q-127 0 -196.5 -106t-69.5 -349z" />
    <glyph glyph-name="Agrave" unicode="&#xc0;" horiz-adv-x="1071" 
d="M47 0l430 1454h115l430 -1454h-107l-122 430h-514l-123 -430h-109zM305 520h461l-176 610q-30 96 -51 209h-7q-17 -89 -51 -209z" />
    <glyph glyph-name="Aacute" unicode="&#xc1;" horiz-adv-x="1071" 
d="M47 0l430 1454h115l430 -1454h-107l-122 430h-514l-123 -430h-109zM305 520h461l-176 610q-30 96 -51 209h-7q-17 -89 -51 -209z" />
    <glyph glyph-name="Acircumflex" unicode="&#xc2;" horiz-adv-x="1071" 
d="M47 0l430 1454h115l430 -1454h-107l-122 430h-514l-123 -430h-109zM305 520h461l-176 610q-30 96 -51 209h-7q-17 -89 -51 -209z" />
    <glyph glyph-name="Atilde" unicode="&#xc3;" horiz-adv-x="1071" 
d="M47 0l430 1454h115l430 -1454h-107l-122 430h-514l-123 -430h-109zM305 520h461l-176 610q-30 96 -51 209h-7q-17 -89 -51 -209z" />
    <glyph glyph-name="Adieresis" unicode="&#xc4;" horiz-adv-x="1071" 
d="M47 0l430 1454h115l430 -1454h-107l-122 430h-514l-123 -430h-109zM305 520h461l-176 610q-30 96 -51 209h-7q-17 -89 -51 -209z" />
    <glyph glyph-name="Aring" unicode="&#xc5;" horiz-adv-x="1071" 
d="M47 0l430 1454h115l430 -1454h-107l-122 430h-514l-123 -430h-109zM305 520h461l-176 610q-30 96 -51 209h-7q-17 -89 -51 -209z" />
    <glyph glyph-name="AE" unicode="&#xc6;" horiz-adv-x="2052" 
d="M47 0l430 1454h115l430 -1454h-107l-122 430h-514l-123 -430h-109zM305 520h461l-176 610q-30 96 -51 209h-7q-17 -89 -51 -209zM1255 0v1454h691v-90h-586v-571h551v-91h-551v-612h600v-90h-705z" />
    <glyph glyph-name="Ccedilla" unicode="&#xc7;" horiz-adv-x="1126" 
d="M584 -35q-248 0 -363 187t-115 575q0 389 120 575.5t362 186.5q407 0 430 -504l-109 -10q-10 219 -91.5 320.5t-233.5 101.5q-187 0 -278 -161.5t-91 -506.5q0 -346 90.5 -509t282.5 -163q294 0 323 420l107 -14q-38 -498 -434 -498z" />
    <glyph glyph-name="Egrave" unicode="&#xc8;" horiz-adv-x="980" 
d="M289 90h600v-90h-705v1454h690v-90h-585v-571h551v-91h-551v-612z" />
    <glyph glyph-name="Eacute" unicode="&#xc9;" horiz-adv-x="980" 
d="M289 90h600v-90h-705v1454h690v-90h-585v-571h551v-91h-551v-612z" />
    <glyph glyph-name="Ecircumflex" unicode="&#xca;" horiz-adv-x="980" 
d="M289 90h600v-90h-705v1454h690v-90h-585v-571h551v-91h-551v-612z" />
    <glyph glyph-name="Edieresis" unicode="&#xcb;" horiz-adv-x="980" 
d="M289 90h600v-90h-705v1454h690v-90h-585v-571h551v-91h-551v-612z" />
    <glyph glyph-name="Igrave" unicode="&#xcc;" horiz-adv-x="473" 
d="M289 0h-105v1454h105v-1454z" />
    <glyph glyph-name="Iacute" unicode="&#xcd;" horiz-adv-x="473" 
d="M289 0h-105v1454h105v-1454z" />
    <glyph glyph-name="Icircumflex" unicode="&#xce;" horiz-adv-x="473" 
d="M289 0h-105v1454h105v-1454z" />
    <glyph glyph-name="Idieresis" unicode="&#xcf;" horiz-adv-x="473" 
d="M289 0h-105v1454h105v-1454z" />
    <glyph glyph-name="Eth" unicode="&#xd0;" horiz-adv-x="1167" 
d="M184 0v1454h332q267 0 406 -181.5t139 -541.5q0 -358 -143 -544.5t-402 -186.5h-332zM289 86h227q208 0 321 166.5t113 478.5q0 637 -436 637h-225v-1282z" />
    <glyph glyph-name="Ntilde" unicode="&#xd1;" horiz-adv-x="1245" 
d="M184 0v1454h123l588 -1132q35 -70 72 -181h2q-8 107 -8 234v1079h100v-1454h-115l-596 1147q-10 19 -20.5 43.5t-17 42t-17.5 49t-16 45.5h-3q9 -157 9 -221v-1106h-101z" />
    <glyph glyph-name="Ograve" unicode="&#xd2;" horiz-adv-x="1206" 
d="M604 -35q-498 0 -498 762t498 762t498 -762t-498 -762zM217 727q0 -670 387 -670t387 670t-387 670t-387 -670z" />
    <glyph glyph-name="Oacute" unicode="&#xd3;" horiz-adv-x="1206" 
d="M604 -35q-498 0 -498 762t498 762t498 -762t-498 -762zM217 727q0 -670 387 -670t387 670t-387 670t-387 -670z" />
    <glyph glyph-name="Ocircumflex" unicode="&#xd4;" horiz-adv-x="1206" 
d="M604 -35q-498 0 -498 762t498 762t498 -762t-498 -762zM217 727q0 -670 387 -670t387 670t-387 670t-387 -670z" />
    <glyph glyph-name="Otilde" unicode="&#xd5;" horiz-adv-x="1206" 
d="M604 -35q-498 0 -498 762t498 762t498 -762t-498 -762zM217 727q0 -670 387 -670t387 670t-387 670t-387 -670z" />
    <glyph glyph-name="Odieresis" unicode="&#xd6;" horiz-adv-x="1206" 
d="M604 -35q-498 0 -498 762t498 762t498 -762t-498 -762zM217 727q0 -670 387 -670t387 670t-387 670t-387 -670z" />
    <glyph glyph-name="Oslash" unicode="&#xd8;" horiz-adv-x="1206" 
d="M604 -35q-498 0 -498 762t498 762t498 -762t-498 -762zM217 727q0 -670 387 -670t387 670t-387 670t-387 -670z" />
    <glyph glyph-name="Ugrave" unicode="&#xd9;" horiz-adv-x="1173" 
d="M166 1454h104v-1051q0 -163 84 -254.5t234 -91.5q149 0 232 91.5t83 254.5v1051h105v-1057q0 -200 -110.5 -316t-309.5 -116q-201 0 -311.5 115.5t-110.5 316.5v1057z" />
    <glyph glyph-name="Uacute" unicode="&#xda;" horiz-adv-x="1173" 
d="M166 1454h104v-1051q0 -163 84 -254.5t234 -91.5q149 0 232 91.5t83 254.5v1051h105v-1057q0 -200 -110.5 -316t-309.5 -116q-201 0 -311.5 115.5t-110.5 316.5v1057z" />
    <glyph glyph-name="Ucircumflex" unicode="&#xdb;" horiz-adv-x="1173" 
d="M166 1454h104v-1051q0 -163 84 -254.5t234 -91.5q149 0 232 91.5t83 254.5v1051h105v-1057q0 -200 -110.5 -316t-309.5 -116q-201 0 -311.5 115.5t-110.5 316.5v1057z" />
    <glyph glyph-name="Udieresis" unicode="&#xdc;" horiz-adv-x="1173" 
d="M166 1454h104v-1051q0 -163 84 -254.5t234 -91.5q149 0 232 91.5t83 254.5v1051h105v-1057q0 -200 -110.5 -316t-309.5 -116q-201 0 -311.5 115.5t-110.5 316.5v1057z" />
    <glyph glyph-name="Yacute" unicode="&#xdd;" horiz-adv-x="966" 
d="M430 0v614l-410 840h117l295 -620q38 -81 49 -119h4q10 32 50 119l294 620h117l-409 -840v-614h-107z" />
    <glyph glyph-name="Thorn" unicode="&#xde;" horiz-adv-x="997" 
d="M289 0h-105v1454h371q190 0 293.5 -103.5t103.5 -291.5q0 -197 -103.5 -307.5t-287.5 -110.5h-272v-641zM289 727h268q134 0 209.5 88t75.5 244q0 151 -75.5 230t-215.5 79h-262v-641z" />
    <glyph glyph-name="agrave" unicode="&#xe0;" horiz-adv-x="899" 
d="M365 -25q-126 0 -200.5 76t-74.5 205q0 131 86 211q80 77 258 106l221 39v90q0 140 -48.5 202.5t-160.5 62.5q-114 0 -170 -64t-59 -203h-102q3 178 93 263.5t238 85.5q163 0 235.5 -77.5t72.5 -258.5v-383q0 -209 22 -330h-98q-14 110 -14 213q-31 -113 -107.5 -175.5
t-191.5 -62.5zM195 264q0 -99 52 -153t146 -54q119 0 191.5 91.5t72.5 240.5v150l-225 -41q-121 -22 -179 -78t-58 -156z" />
    <glyph glyph-name="aacute" unicode="&#xe1;" horiz-adv-x="899" 
d="M365 -25q-126 0 -200.5 76t-74.5 205q0 131 86 211q80 77 258 106l221 39v90q0 140 -48.5 202.5t-160.5 62.5q-114 0 -170 -64t-59 -203h-102q3 178 93 263.5t238 85.5q163 0 235.5 -77.5t72.5 -258.5v-383q0 -209 22 -330h-98q-14 110 -14 213q-31 -113 -107.5 -175.5
t-191.5 -62.5zM195 264q0 -99 52 -153t146 -54q119 0 191.5 91.5t72.5 240.5v150l-225 -41q-121 -22 -179 -78t-58 -156z" />
    <glyph glyph-name="acircumflex" unicode="&#xe2;" horiz-adv-x="899" 
d="M365 -25q-126 0 -200.5 76t-74.5 205q0 131 86 211q80 77 258 106l221 39v90q0 140 -48.5 202.5t-160.5 62.5q-114 0 -170 -64t-59 -203h-102q3 178 93 263.5t238 85.5q163 0 235.5 -77.5t72.5 -258.5v-383q0 -209 22 -330h-98q-14 110 -14 213q-31 -113 -107.5 -175.5
t-191.5 -62.5zM195 264q0 -99 52 -153t146 -54q119 0 191.5 91.5t72.5 240.5v150l-225 -41q-121 -22 -179 -78t-58 -156z" />
    <glyph glyph-name="atilde" unicode="&#xe3;" horiz-adv-x="899" 
d="M365 -25q-126 0 -200.5 76t-74.5 205q0 131 86 211q80 77 258 106l221 39v90q0 140 -48.5 202.5t-160.5 62.5q-114 0 -170 -64t-59 -203h-102q3 178 93 263.5t238 85.5q163 0 235.5 -77.5t72.5 -258.5v-383q0 -209 22 -330h-98q-14 110 -14 213q-31 -113 -107.5 -175.5
t-191.5 -62.5zM195 264q0 -99 52 -153t146 -54q119 0 191.5 91.5t72.5 240.5v150l-225 -41q-121 -22 -179 -78t-58 -156z" />
    <glyph glyph-name="adieresis" unicode="&#xe4;" horiz-adv-x="899" 
d="M365 -25q-126 0 -200.5 76t-74.5 205q0 131 86 211q80 77 258 106l221 39v90q0 140 -48.5 202.5t-160.5 62.5q-114 0 -170 -64t-59 -203h-102q3 178 93 263.5t238 85.5q163 0 235.5 -77.5t72.5 -258.5v-383q0 -209 22 -330h-98q-14 110 -14 213q-31 -113 -107.5 -175.5
t-191.5 -62.5zM195 264q0 -99 52 -153t146 -54q119 0 191.5 91.5t72.5 240.5v150l-225 -41q-121 -22 -179 -78t-58 -156z" />
    <glyph glyph-name="aring" unicode="&#xe5;" horiz-adv-x="899" 
d="M365 -25q-126 0 -200.5 76t-74.5 205q0 131 86 211q80 77 258 106l221 39v90q0 140 -48.5 202.5t-160.5 62.5q-114 0 -170 -64t-59 -203h-102q3 178 93 263.5t238 85.5q163 0 235.5 -77.5t72.5 -258.5v-383q0 -209 22 -330h-98q-14 110 -14 213q-31 -113 -107.5 -175.5
t-191.5 -62.5zM195 264q0 -99 52 -153t146 -54q119 0 191.5 91.5t72.5 240.5v150l-225 -41q-121 -22 -179 -78t-58 -156z" />
    <glyph glyph-name="ae" unicode="&#xe6;" horiz-adv-x="1792" 
d="M365 -25q-126 0 -200.5 76t-74.5 205q0 131 86 211q80 77 258 106l221 39v90q0 140 -48.5 202.5t-160.5 62.5q-114 0 -170 -64t-59 -203h-102q3 178 93 263.5t238 85.5q163 0 235.5 -77.5t72.5 -258.5v-383q0 -209 22 -330h-98q-14 110 -14 213q-31 -113 -107.5 -175.5
t-191.5 -62.5zM195 264q0 -99 52 -153t146 -54q119 0 191.5 91.5t72.5 240.5v150l-225 -41q-121 -22 -179 -78t-58 -156zM993 512q0 147 25.5 252.5t74 167t112 89.5t145.5 28q342 0 342 -463v-80h-600q2 -162 35 -262.5t90 -141.5t143 -41q100 0 164.5 67.5t74.5 197.5
l91 -23q-15 -157 -104 -242.5t-228 -85.5q-365 0 -365 537zM1092 582h501q0 206 -61 296.5t-182 90.5t-189 -89.5t-69 -297.5z" />
    <glyph glyph-name="ccedilla" unicode="&#xe7;" horiz-adv-x="882" 
d="M467 -25q-178 0 -274.5 135t-96.5 402q0 271 94.5 404t274.5 133q145 0 230.5 -95t92.5 -274l-102 -8q-7 145 -66 219t-159 74q-262 0 -262 -453q0 -230 69.5 -340.5t198.5 -110.5q99 0 157.5 76t65.5 223l101 -12q-10 -180 -96.5 -276.5t-227.5 -96.5z" />
    <glyph glyph-name="egrave" unicode="&#xe8;" horiz-adv-x="897" 
d="M461 -25q-365 0 -365 537q0 147 25.5 252.5t74 167t112 89.5t145.5 28q342 0 342 -463v-80h-600q2 -162 35 -262.5t90 -141.5t143 -41q100 0 164.5 67.5t74.5 197.5l91 -23q-15 -157 -104 -242.5t-228 -85.5zM195 582h501q0 206 -61 296.5t-182 90.5t-189 -89.5
t-69 -297.5z" />
    <glyph glyph-name="eacute" unicode="&#xe9;" horiz-adv-x="897" 
d="M461 -25q-365 0 -365 537q0 147 25.5 252.5t74 167t112 89.5t145.5 28q342 0 342 -463v-80h-600q2 -162 35 -262.5t90 -141.5t143 -41q100 0 164.5 67.5t74.5 197.5l91 -23q-15 -157 -104 -242.5t-228 -85.5zM195 582h501q0 206 -61 296.5t-182 90.5t-189 -89.5
t-69 -297.5z" />
    <glyph glyph-name="ecircumflex" unicode="&#xea;" horiz-adv-x="897" 
d="M461 -25q-365 0 -365 537q0 147 25.5 252.5t74 167t112 89.5t145.5 28q342 0 342 -463v-80h-600q2 -162 35 -262.5t90 -141.5t143 -41q100 0 164.5 67.5t74.5 197.5l91 -23q-15 -157 -104 -242.5t-228 -85.5zM195 582h501q0 206 -61 296.5t-182 90.5t-189 -89.5
t-69 -297.5z" />
    <glyph glyph-name="edieresis" unicode="&#xeb;" horiz-adv-x="897" 
d="M461 -25q-365 0 -365 537q0 147 25.5 252.5t74 167t112 89.5t145.5 28q342 0 342 -463v-80h-600q2 -162 35 -262.5t90 -141.5t143 -41q100 0 164.5 67.5t74.5 197.5l91 -23q-15 -157 -104 -242.5t-228 -85.5zM195 582h501q0 206 -61 296.5t-182 90.5t-189 -89.5
t-69 -297.5z" />
    <glyph glyph-name="igrave" unicode="&#xec;" horiz-adv-x="428" 
d="M166 0v1024h96v-1024h-96zM160 1198v232h106v-232h-106z" />
    <glyph glyph-name="iacute" unicode="&#xed;" horiz-adv-x="428" 
d="M166 0v1024h96v-1024h-96zM160 1198v232h106v-232h-106z" />
    <glyph glyph-name="icircumflex" unicode="&#xee;" horiz-adv-x="428" 
d="M166 0v1024h96v-1024h-96zM160 1198v232h106v-232h-106z" />
    <glyph glyph-name="idieresis" unicode="&#xef;" horiz-adv-x="428" 
d="M166 0v1024h96v-1024h-96zM160 1198v232h106v-232h-106z" />
    <glyph glyph-name="ntilde" unicode="&#xf1;" horiz-adv-x="972" 
d="M166 0v1024h92v-225q32 123 107 186.5t188 63.5q278 0 278 -351v-698h-98v692q0 273 -213 273q-122 0 -190 -100t-68 -281v-584h-96z" />
    <glyph glyph-name="ograve" unicode="&#xf2;" 
d="M467 -25q-177 0 -274 130.5t-97 406.5t97 406.5t274 130.5q369 0 369 -537t-369 -537zM201 512q0 -243 69.5 -349t196.5 -106q266 0 266 455t-266 455q-127 0 -196.5 -106t-69.5 -349z" />
    <glyph glyph-name="oacute" unicode="&#xf3;" 
d="M467 -25q-177 0 -274 130.5t-97 406.5t97 406.5t274 130.5q369 0 369 -537t-369 -537zM201 512q0 -243 69.5 -349t196.5 -106q266 0 266 455t-266 455q-127 0 -196.5 -106t-69.5 -349z" />
    <glyph glyph-name="ocircumflex" unicode="&#xf4;" 
d="M467 -25q-177 0 -274 130.5t-97 406.5t97 406.5t274 130.5q369 0 369 -537t-369 -537zM201 512q0 -243 69.5 -349t196.5 -106q266 0 266 455t-266 455q-127 0 -196.5 -106t-69.5 -349z" />
    <glyph glyph-name="otilde" unicode="&#xf5;" 
d="M467 -25q-177 0 -274 130.5t-97 406.5t97 406.5t274 130.5q369 0 369 -537t-369 -537zM201 512q0 -243 69.5 -349t196.5 -106q266 0 266 455t-266 455q-127 0 -196.5 -106t-69.5 -349z" />
    <glyph glyph-name="odieresis" unicode="&#xf6;" 
d="M467 -25q-177 0 -274 130.5t-97 406.5t97 406.5t274 130.5q369 0 369 -537t-369 -537zM201 512q0 -243 69.5 -349t196.5 -106q266 0 266 455t-266 455q-127 0 -196.5 -106t-69.5 -349z" />
    <glyph glyph-name="oslash" unicode="&#xf8;" 
d="M467 -25q-177 0 -274 130.5t-97 406.5t97 406.5t274 130.5q369 0 369 -537t-369 -537zM201 512q0 -243 69.5 -349t196.5 -106q266 0 266 455t-266 455q-127 0 -196.5 -106t-69.5 -349z" />
    <glyph glyph-name="ugrave" unicode="&#xf9;" horiz-adv-x="968" 
d="M422 -25q-279 0 -279 347v702h99v-696q0 -140 55.5 -203.5t148.5 -63.5q121 0 190 99.5t69 259.5v604h98v-1024h-94v211q-29 -108 -103.5 -172t-183.5 -64z" />
    <glyph glyph-name="uacute" unicode="&#xfa;" horiz-adv-x="968" 
d="M422 -25q-279 0 -279 347v702h99v-696q0 -140 55.5 -203.5t148.5 -63.5q121 0 190 99.5t69 259.5v604h98v-1024h-94v211q-29 -108 -103.5 -172t-183.5 -64z" />
    <glyph glyph-name="ucircumflex" unicode="&#xfb;" horiz-adv-x="968" 
d="M422 -25q-279 0 -279 347v702h99v-696q0 -140 55.5 -203.5t148.5 -63.5q121 0 190 99.5t69 259.5v604h98v-1024h-94v211q-29 -108 -103.5 -172t-183.5 -64z" />
    <glyph glyph-name="udieresis" unicode="&#xfc;" horiz-adv-x="968" 
d="M422 -25q-279 0 -279 347v702h99v-696q0 -140 55.5 -203.5t148.5 -63.5q121 0 190 99.5t69 259.5v604h98v-1024h-94v211q-29 -108 -103.5 -172t-183.5 -64z" />
    <glyph glyph-name="yacute" unicode="&#xfd;" horiz-adv-x="792" 
d="M131 -410q-21 0 -65 7v90q20 -4 55 -4q84 0 132.5 53.5t80.5 159.5l26 100l-333 1028h106l234 -770q38 -134 41 -152h2q10 42 39 144l215 778h102l-334 -1133q-49 -161 -119.5 -231t-181.5 -70z" />
    <glyph glyph-name="thorn" unicode="&#xfe;" horiz-adv-x="993" 
d="M164 -399v1423h96v-231q31 121 110.5 188.5t190.5 67.5q336 0 336 -531q0 -268 -92.5 -405.5t-253.5 -137.5q-107 0 -182.5 64.5t-104.5 177.5v-616h-100zM264 430q0 -169 72.5 -270t193.5 -101q128 0 193 110t65 349q0 237 -62 342t-189 105q-123 0 -198 -102.5
t-75 -268.5v-164z" />
    <glyph glyph-name="ydieresis" unicode="&#xff;" horiz-adv-x="792" 
d="M131 -410q-21 0 -65 7v90q20 -4 55 -4q84 0 132.5 53.5t80.5 159.5l26 100l-333 1028h106l234 -770q38 -134 41 -152h2q10 42 39 144l215 778h102l-334 -1133q-49 -161 -119.5 -231t-181.5 -70z" />
    <glyph glyph-name="Amacron" unicode="&#x100;" horiz-adv-x="1071" 
d="M47 0l430 1454h115l430 -1454h-107l-122 430h-514l-123 -430h-109zM305 520h461l-176 610q-30 96 -51 209h-7q-17 -89 -51 -209z" />
    <glyph glyph-name="amacron" unicode="&#x101;" horiz-adv-x="899" 
d="M365 -25q-126 0 -200.5 76t-74.5 205q0 131 86 211q80 77 258 106l221 39v90q0 140 -48.5 202.5t-160.5 62.5q-114 0 -170 -64t-59 -203h-102q3 178 93 263.5t238 85.5q163 0 235.5 -77.5t72.5 -258.5v-383q0 -209 22 -330h-98q-14 110 -14 213q-31 -113 -107.5 -175.5
t-191.5 -62.5zM195 264q0 -99 52 -153t146 -54q119 0 191.5 91.5t72.5 240.5v150l-225 -41q-121 -22 -179 -78t-58 -156z" />
    <glyph glyph-name="Abreve" unicode="&#x102;" horiz-adv-x="1071" 
d="M47 0l430 1454h115l430 -1454h-107l-122 430h-514l-123 -430h-109zM305 520h461l-176 610q-30 96 -51 209h-7q-17 -89 -51 -209z" />
    <glyph glyph-name="abreve" unicode="&#x103;" horiz-adv-x="899" 
d="M365 -25q-126 0 -200.5 76t-74.5 205q0 131 86 211q80 77 258 106l221 39v90q0 140 -48.5 202.5t-160.5 62.5q-114 0 -170 -64t-59 -203h-102q3 178 93 263.5t238 85.5q163 0 235.5 -77.5t72.5 -258.5v-383q0 -209 22 -330h-98q-14 110 -14 213q-31 -113 -107.5 -175.5
t-191.5 -62.5zM195 264q0 -99 52 -153t146 -54q119 0 191.5 91.5t72.5 240.5v150l-225 -41q-121 -22 -179 -78t-58 -156z" />
    <glyph glyph-name="Aogonek" unicode="&#x104;" horiz-adv-x="1071" 
d="M47 0l430 1454h115l430 -1454h-107l-122 430h-514l-123 -430h-109zM305 520h461l-176 610q-30 96 -51 209h-7q-17 -89 -51 -209z" />
    <glyph glyph-name="aogonek" unicode="&#x105;" horiz-adv-x="899" 
d="M365 -25q-126 0 -200.5 76t-74.5 205q0 131 86 211q80 77 258 106l221 39v90q0 140 -48.5 202.5t-160.5 62.5q-114 0 -170 -64t-59 -203h-102q3 178 93 263.5t238 85.5q163 0 235.5 -77.5t72.5 -258.5v-383q0 -209 22 -330h-98q-14 110 -14 213q-31 -113 -107.5 -175.5
t-191.5 -62.5zM195 264q0 -99 52 -153t146 -54q119 0 191.5 91.5t72.5 240.5v150l-225 -41q-121 -22 -179 -78t-58 -156z" />
    <glyph glyph-name="Cacute" unicode="&#x106;" horiz-adv-x="1126" 
d="M584 -35q-248 0 -363 187t-115 575q0 389 120 575.5t362 186.5q407 0 430 -504l-109 -10q-10 219 -91.5 320.5t-233.5 101.5q-187 0 -278 -161.5t-91 -506.5q0 -346 90.5 -509t282.5 -163q294 0 323 420l107 -14q-38 -498 -434 -498z" />
    <glyph glyph-name="cacute" unicode="&#x107;" horiz-adv-x="882" 
d="M467 -25q-178 0 -274.5 135t-96.5 402q0 271 94.5 404t274.5 133q145 0 230.5 -95t92.5 -274l-102 -8q-7 145 -66 219t-159 74q-262 0 -262 -453q0 -230 69.5 -340.5t198.5 -110.5q99 0 157.5 76t65.5 223l101 -12q-10 -180 -96.5 -276.5t-227.5 -96.5z" />
    <glyph glyph-name="Ccircumflex" unicode="&#x108;" horiz-adv-x="1126" 
d="M584 -35q-248 0 -363 187t-115 575q0 389 120 575.5t362 186.5q407 0 430 -504l-109 -10q-10 219 -91.5 320.5t-233.5 101.5q-187 0 -278 -161.5t-91 -506.5q0 -346 90.5 -509t282.5 -163q294 0 323 420l107 -14q-38 -498 -434 -498z" />
    <glyph glyph-name="ccircumflex" unicode="&#x109;" horiz-adv-x="882" 
d="M467 -25q-178 0 -274.5 135t-96.5 402q0 271 94.5 404t274.5 133q145 0 230.5 -95t92.5 -274l-102 -8q-7 145 -66 219t-159 74q-262 0 -262 -453q0 -230 69.5 -340.5t198.5 -110.5q99 0 157.5 76t65.5 223l101 -12q-10 -180 -96.5 -276.5t-227.5 -96.5z" />
    <glyph glyph-name="Cdotaccent" unicode="&#x10a;" horiz-adv-x="1126" 
d="M584 -35q-248 0 -363 187t-115 575q0 389 120 575.5t362 186.5q407 0 430 -504l-109 -10q-10 219 -91.5 320.5t-233.5 101.5q-187 0 -278 -161.5t-91 -506.5q0 -346 90.5 -509t282.5 -163q294 0 323 420l107 -14q-38 -498 -434 -498z" />
    <glyph glyph-name="cdotaccent" unicode="&#x10b;" horiz-adv-x="882" 
d="M467 -25q-178 0 -274.5 135t-96.5 402q0 271 94.5 404t274.5 133q145 0 230.5 -95t92.5 -274l-102 -8q-7 145 -66 219t-159 74q-262 0 -262 -453q0 -230 69.5 -340.5t198.5 -110.5q99 0 157.5 76t65.5 223l101 -12q-10 -180 -96.5 -276.5t-227.5 -96.5z" />
    <glyph glyph-name="Ccaron" unicode="&#x10c;" horiz-adv-x="1126" 
d="M584 -35q-248 0 -363 187t-115 575q0 389 120 575.5t362 186.5q407 0 430 -504l-109 -10q-10 219 -91.5 320.5t-233.5 101.5q-187 0 -278 -161.5t-91 -506.5q0 -346 90.5 -509t282.5 -163q294 0 323 420l107 -14q-38 -498 -434 -498z" />
    <glyph glyph-name="ccaron" unicode="&#x10d;" horiz-adv-x="882" 
d="M467 -25q-178 0 -274.5 135t-96.5 402q0 271 94.5 404t274.5 133q145 0 230.5 -95t92.5 -274l-102 -8q-7 145 -66 219t-159 74q-262 0 -262 -453q0 -230 69.5 -340.5t198.5 -110.5q99 0 157.5 76t65.5 223l101 -12q-10 -180 -96.5 -276.5t-227.5 -96.5z" />
    <glyph glyph-name="Dcaron" unicode="&#x10e;" horiz-adv-x="1167" 
d="M184 0v1454h332q267 0 406 -181.5t139 -541.5q0 -358 -143 -544.5t-402 -186.5h-332zM289 86h227q208 0 321 166.5t113 478.5q0 637 -436 637h-225v-1282z" />
    <glyph glyph-name="dcaron" unicode="&#x10f;" horiz-adv-x="991" 
d="M438 -25q-166 0 -253 135t-87 404t91 402t260 133q105 0 177 -63t101 -183v682h100v-1485h-94v229q-33 -118 -111 -186t-184 -68zM203 514q0 -240 64.5 -347.5t199.5 -107.5q123 0 193.5 103t70.5 270v160q0 165 -67.5 269t-188.5 104q-137 0 -204.5 -108t-67.5 -343z
" />
    <glyph glyph-name="Dcroat" unicode="&#x110;" horiz-adv-x="1167" 
d="M184 0v1454h332q267 0 406 -181.5t139 -541.5q0 -358 -143 -544.5t-402 -186.5h-332zM289 86h227q208 0 321 166.5t113 478.5q0 637 -436 637h-225v-1282z" />
    <glyph glyph-name="dcroat" unicode="&#x111;" horiz-adv-x="991" 
d="M438 -25q-166 0 -253 135t-87 404t91 402t260 133q105 0 177 -63t101 -183v682h100v-1485h-94v229q-33 -118 -111 -186t-184 -68zM203 514q0 -240 64.5 -347.5t199.5 -107.5q123 0 193.5 103t70.5 270v160q0 165 -67.5 269t-188.5 104q-137 0 -204.5 -108t-67.5 -343z
" />
    <glyph glyph-name="Emacron" unicode="&#x112;" horiz-adv-x="980" 
d="M289 90h600v-90h-705v1454h690v-90h-585v-571h551v-91h-551v-612z" />
    <glyph glyph-name="emacron" unicode="&#x113;" horiz-adv-x="897" 
d="M461 -25q-365 0 -365 537q0 147 25.5 252.5t74 167t112 89.5t145.5 28q342 0 342 -463v-80h-600q2 -162 35 -262.5t90 -141.5t143 -41q100 0 164.5 67.5t74.5 197.5l91 -23q-15 -157 -104 -242.5t-228 -85.5zM195 582h501q0 206 -61 296.5t-182 90.5t-189 -89.5
t-69 -297.5z" />
    <glyph glyph-name="Ebreve" unicode="&#x114;" horiz-adv-x="980" 
d="M289 90h600v-90h-705v1454h690v-90h-585v-571h551v-91h-551v-612z" />
    <glyph glyph-name="ebreve" unicode="&#x115;" horiz-adv-x="897" 
d="M461 -25q-365 0 -365 537q0 147 25.5 252.5t74 167t112 89.5t145.5 28q342 0 342 -463v-80h-600q2 -162 35 -262.5t90 -141.5t143 -41q100 0 164.5 67.5t74.5 197.5l91 -23q-15 -157 -104 -242.5t-228 -85.5zM195 582h501q0 206 -61 296.5t-182 90.5t-189 -89.5
t-69 -297.5z" />
    <glyph glyph-name="Edotaccent" unicode="&#x116;" horiz-adv-x="980" 
d="M289 90h600v-90h-705v1454h690v-90h-585v-571h551v-91h-551v-612z" />
    <glyph glyph-name="edotaccent" unicode="&#x117;" horiz-adv-x="897" 
d="M461 -25q-365 0 -365 537q0 147 25.5 252.5t74 167t112 89.5t145.5 28q342 0 342 -463v-80h-600q2 -162 35 -262.5t90 -141.5t143 -41q100 0 164.5 67.5t74.5 197.5l91 -23q-15 -157 -104 -242.5t-228 -85.5zM195 582h501q0 206 -61 296.5t-182 90.5t-189 -89.5
t-69 -297.5z" />
    <glyph glyph-name="Eogonek" unicode="&#x118;" horiz-adv-x="980" 
d="M289 90h600v-90h-705v1454h690v-90h-585v-571h551v-91h-551v-612z" />
    <glyph glyph-name="eogonek" unicode="&#x119;" horiz-adv-x="897" 
d="M461 -25q-365 0 -365 537q0 147 25.5 252.5t74 167t112 89.5t145.5 28q342 0 342 -463v-80h-600q2 -162 35 -262.5t90 -141.5t143 -41q100 0 164.5 67.5t74.5 197.5l91 -23q-15 -157 -104 -242.5t-228 -85.5zM195 582h501q0 206 -61 296.5t-182 90.5t-189 -89.5
t-69 -297.5z" />
    <glyph glyph-name="Ecaron" unicode="&#x11a;" horiz-adv-x="980" 
d="M289 90h600v-90h-705v1454h690v-90h-585v-571h551v-91h-551v-612z" />
    <glyph glyph-name="ecaron" unicode="&#x11b;" horiz-adv-x="897" 
d="M461 -25q-365 0 -365 537q0 147 25.5 252.5t74 167t112 89.5t145.5 28q342 0 342 -463v-80h-600q2 -162 35 -262.5t90 -141.5t143 -41q100 0 164.5 67.5t74.5 197.5l91 -23q-15 -157 -104 -242.5t-228 -85.5zM195 582h501q0 206 -61 296.5t-182 90.5t-189 -89.5
t-69 -297.5z" />
    <glyph glyph-name="Gcircumflex" unicode="&#x11c;" horiz-adv-x="1148" 
d="M551 -35q-445 0 -445 762q0 393 119.5 577.5t358.5 184.5q89 0 159 -24.5t117 -66t79 -101.5t47.5 -127.5t19.5 -147.5l-109 -12q-6 90 -24.5 157t-54 122t-96 83.5t-144.5 28.5q-181 0 -272 -160.5t-91 -513.5q0 -339 89 -505.5t274 -166.5q79 0 141 32.5t99.5 83
t61.5 119.5t33 135.5t9 137.5v94h-363v91h465v-748h-82l-8 281q-40 -150 -138 -233t-245 -83z" />
    <glyph glyph-name="gcircumflex" unicode="&#x11d;" horiz-adv-x="866" 
d="M449 -424q-182 0 -280.5 73.5t-98.5 196.5q0 85 45.5 147t126.5 87q-61 23 -93 66.5t-32 99.5q0 118 129 166q-123 90 -123 290q0 162 83 254.5t230 92.5q94 0 164 -39q19 76 73.5 120t131.5 44q20 0 35 -5v-86q-28 4 -43 4q-119 0 -158 -106q109 -89 109 -279
q0 -162 -82.5 -255t-229.5 -93q-80 0 -151 33q-36 -12 -59 -42t-23 -69q0 -51 36.5 -83t108.5 -39l225 -17q128 -12 196.5 -81.5t68.5 -182.5q0 -139 -100.5 -218t-288.5 -79zM164 -135q0 -101 77 -157t214 -56q143 0 213.5 55.5t70.5 159.5q0 168 -192 182l-223 14
q-7 0 -27 5q-64 -26 -98.5 -78.5t-34.5 -124.5zM219 702q0 -131 58.5 -203.5t158.5 -72.5t157.5 72t57.5 204q0 131 -57.5 202t-157.5 71q-101 0 -159 -71.5t-58 -201.5z" />
    <glyph glyph-name="Gbreve" unicode="&#x11e;" horiz-adv-x="1148" 
d="M551 -35q-445 0 -445 762q0 393 119.5 577.5t358.5 184.5q89 0 159 -24.5t117 -66t79 -101.5t47.5 -127.5t19.5 -147.5l-109 -12q-6 90 -24.5 157t-54 122t-96 83.5t-144.5 28.5q-181 0 -272 -160.5t-91 -513.5q0 -339 89 -505.5t274 -166.5q79 0 141 32.5t99.5 83
t61.5 119.5t33 135.5t9 137.5v94h-363v91h465v-748h-82l-8 281q-40 -150 -138 -233t-245 -83z" />
    <glyph glyph-name="gbreve" unicode="&#x11f;" horiz-adv-x="866" 
d="M449 -424q-182 0 -280.5 73.5t-98.5 196.5q0 85 45.5 147t126.5 87q-61 23 -93 66.5t-32 99.5q0 118 129 166q-123 90 -123 290q0 162 83 254.5t230 92.5q94 0 164 -39q19 76 73.5 120t131.5 44q20 0 35 -5v-86q-28 4 -43 4q-119 0 -158 -106q109 -89 109 -279
q0 -162 -82.5 -255t-229.5 -93q-80 0 -151 33q-36 -12 -59 -42t-23 -69q0 -51 36.5 -83t108.5 -39l225 -17q128 -12 196.5 -81.5t68.5 -182.5q0 -139 -100.5 -218t-288.5 -79zM164 -135q0 -101 77 -157t214 -56q143 0 213.5 55.5t70.5 159.5q0 168 -192 182l-223 14
q-7 0 -27 5q-64 -26 -98.5 -78.5t-34.5 -124.5zM219 702q0 -131 58.5 -203.5t158.5 -72.5t157.5 72t57.5 204q0 131 -57.5 202t-157.5 71q-101 0 -159 -71.5t-58 -201.5z" />
    <glyph glyph-name="Gdotaccent" unicode="&#x120;" horiz-adv-x="1148" 
d="M551 -35q-445 0 -445 762q0 393 119.5 577.5t358.5 184.5q89 0 159 -24.5t117 -66t79 -101.5t47.5 -127.5t19.5 -147.5l-109 -12q-6 90 -24.5 157t-54 122t-96 83.5t-144.5 28.5q-181 0 -272 -160.5t-91 -513.5q0 -339 89 -505.5t274 -166.5q79 0 141 32.5t99.5 83
t61.5 119.5t33 135.5t9 137.5v94h-363v91h465v-748h-82l-8 281q-40 -150 -138 -233t-245 -83z" />
    <glyph glyph-name="gdotaccent" unicode="&#x121;" horiz-adv-x="866" 
d="M449 -424q-182 0 -280.5 73.5t-98.5 196.5q0 85 45.5 147t126.5 87q-61 23 -93 66.5t-32 99.5q0 118 129 166q-123 90 -123 290q0 162 83 254.5t230 92.5q94 0 164 -39q19 76 73.5 120t131.5 44q20 0 35 -5v-86q-28 4 -43 4q-119 0 -158 -106q109 -89 109 -279
q0 -162 -82.5 -255t-229.5 -93q-80 0 -151 33q-36 -12 -59 -42t-23 -69q0 -51 36.5 -83t108.5 -39l225 -17q128 -12 196.5 -81.5t68.5 -182.5q0 -139 -100.5 -218t-288.5 -79zM164 -135q0 -101 77 -157t214 -56q143 0 213.5 55.5t70.5 159.5q0 168 -192 182l-223 14
q-7 0 -27 5q-64 -26 -98.5 -78.5t-34.5 -124.5zM219 702q0 -131 58.5 -203.5t158.5 -72.5t157.5 72t57.5 204q0 131 -57.5 202t-157.5 71q-101 0 -159 -71.5t-58 -201.5z" />
    <glyph glyph-name="uni0122" unicode="&#x122;" horiz-adv-x="1148" 
d="M551 -35q-445 0 -445 762q0 393 119.5 577.5t358.5 184.5q89 0 159 -24.5t117 -66t79 -101.5t47.5 -127.5t19.5 -147.5l-109 -12q-6 90 -24.5 157t-54 122t-96 83.5t-144.5 28.5q-181 0 -272 -160.5t-91 -513.5q0 -339 89 -505.5t274 -166.5q79 0 141 32.5t99.5 83
t61.5 119.5t33 135.5t9 137.5v94h-363v91h465v-748h-82l-8 281q-40 -150 -138 -233t-245 -83z" />
    <glyph glyph-name="uni0123" unicode="&#x123;" horiz-adv-x="866" 
d="M449 -424q-182 0 -280.5 73.5t-98.5 196.5q0 85 45.5 147t126.5 87q-61 23 -93 66.5t-32 99.5q0 118 129 166q-123 90 -123 290q0 162 83 254.5t230 92.5q94 0 164 -39q19 76 73.5 120t131.5 44q20 0 35 -5v-86q-28 4 -43 4q-119 0 -158 -106q109 -89 109 -279
q0 -162 -82.5 -255t-229.5 -93q-80 0 -151 33q-36 -12 -59 -42t-23 -69q0 -51 36.5 -83t108.5 -39l225 -17q128 -12 196.5 -81.5t68.5 -182.5q0 -139 -100.5 -218t-288.5 -79zM164 -135q0 -101 77 -157t214 -56q143 0 213.5 55.5t70.5 159.5q0 168 -192 182l-223 14
q-7 0 -27 5q-64 -26 -98.5 -78.5t-34.5 -124.5zM219 702q0 -131 58.5 -203.5t158.5 -72.5t157.5 72t57.5 204q0 131 -57.5 202t-157.5 71q-101 0 -159 -71.5t-58 -201.5z" />
    <glyph glyph-name="Hcircumflex" unicode="&#x124;" horiz-adv-x="1228" 
d="M1044 1454v-1454h-104v702h-651v-702h-105v1454h105v-663h651v663h104z" />
    <glyph glyph-name="hcircumflex" unicode="&#x125;" horiz-adv-x="974" 
d="M166 0v1485h96v-682q29 119 105.5 182.5t189.5 63.5q274 0 274 -347v-702h-98v696q0 269 -211 269q-122 0 -191 -100.5t-69 -280.5v-584h-96z" />
    <glyph glyph-name="Hbar" unicode="&#x126;" horiz-adv-x="1228" 
d="M1044 1454v-1454h-104v702h-651v-702h-105v1454h105v-663h651v663h104z" />
    <glyph glyph-name="hbar" unicode="&#x127;" horiz-adv-x="974" 
d="M166 0v1485h96v-682q29 119 105.5 182.5t189.5 63.5q274 0 274 -347v-702h-98v696q0 269 -211 269q-122 0 -191 -100.5t-69 -280.5v-584h-96z" />
    <glyph glyph-name="Itilde" unicode="&#x128;" horiz-adv-x="473" 
d="M289 0h-105v1454h105v-1454z" />
    <glyph glyph-name="itilde" unicode="&#x129;" horiz-adv-x="428" 
d="M166 0v1024h96v-1024h-96zM160 1198v232h106v-232h-106z" />
    <glyph glyph-name="Imacron" unicode="&#x12a;" horiz-adv-x="473" 
d="M289 0h-105v1454h105v-1454z" />
    <glyph glyph-name="imacron" unicode="&#x12b;" horiz-adv-x="428" 
d="M166 0v1024h96v-1024h-96zM160 1198v232h106v-232h-106z" />
    <glyph glyph-name="Ibreve" unicode="&#x12c;" horiz-adv-x="473" 
d="M289 0h-105v1454h105v-1454z" />
    <glyph glyph-name="ibreve" unicode="&#x12d;" horiz-adv-x="428" 
d="M166 0v1024h96v-1024h-96zM160 1198v232h106v-232h-106z" />
    <glyph glyph-name="Iogonek" unicode="&#x12e;" horiz-adv-x="473" 
d="M289 0h-105v1454h105v-1454z" />
    <glyph glyph-name="iogonek" unicode="&#x12f;" horiz-adv-x="428" 
d="M166 0v1024h96v-1024h-96zM160 1198v232h106v-232h-106z" />
    <glyph glyph-name="Idotaccent" unicode="&#x130;" horiz-adv-x="473" 
d="M289 0h-105v1454h105v-1454z" />
    <glyph glyph-name="dotlessi" unicode="&#x131;" horiz-adv-x="428" 
d="M166 0v1024h96v-1024h-96zM160 1198v232h106v-232h-106z" />
    <glyph glyph-name="IJ" unicode="&#x132;" horiz-adv-x="1112" 
d="M289 0h-105v1454h105v-1454zM504 -8v98q69 -16 131 -16q97 0 152 54.5t55 186.5v1139h106v-1149q0 -175 -84.5 -252.5t-226.5 -77.5q-86 0 -133 17z" />
    <glyph glyph-name="ij" unicode="&#x133;" horiz-adv-x="847" 
d="M166 0v1024h96v-1024h-96zM160 1198v232h106v-232h-106zM391 -403v86q54 -7 74 -7q59 0 90 34t31 114v1200h96v-1204q0 -115 -51 -174.5t-150 -59.5q-56 0 -90 11zM580 1198v232h106v-232h-106z" />
    <glyph glyph-name="Jcircumflex" unicode="&#x134;" horiz-adv-x="641" 
d="M475 305q0 -175 -84.5 -252.5t-226.5 -77.5q-86 0 -133 17v98q69 -16 131 -16q97 0 152 54.5t55 186.5v1139h106v-1149z" />
    <glyph glyph-name="jcircumflex" unicode="&#x135;" horiz-adv-x="419" 
d="M53 -414q-56 0 -90 11v86q54 -7 74 -7q59 0 90 34t31 114v1200h96v-1204q0 -115 -51 -174.5t-150 -59.5zM152 1198v232h106v-232h-106z" />
    <glyph glyph-name="uni0136" unicode="&#x136;" horiz-adv-x="1093" 
d="M184 0v1454h105v-819l598 819h125l-424 -565l454 -889h-118l-410 805l-225 -309v-496h-105z" />
    <glyph glyph-name="uni0137" unicode="&#x137;" horiz-adv-x="897" 
d="M166 0v1485h96v-1020l445 559h118l-311 -381l332 -643h-113l-289 563l-182 -219v-344h-96z" />
    <glyph glyph-name="kgreenlandic" unicode="&#x138;" horiz-adv-x="897" 
d="M166 0v1485h96v-1020l445 559h118l-311 -381l332 -643h-113l-289 563l-182 -219v-344h-96z" />
    <glyph glyph-name="Lacute" unicode="&#x139;" horiz-adv-x="884" 
d="M184 0v1454h105v-1362h551v-92h-656z" />
    <glyph glyph-name="lacute" unicode="&#x13a;" horiz-adv-x="428" 
d="M262 1485v-1485h-96v1485h96z" />
    <glyph glyph-name="uni013B" unicode="&#x13b;" horiz-adv-x="884" 
d="M184 0v1454h105v-1362h551v-92h-656z" />
    <glyph glyph-name="uni013C" unicode="&#x13c;" horiz-adv-x="428" 
d="M262 1485v-1485h-96v1485h96z" />
    <glyph glyph-name="Lcaron" unicode="&#x13d;" horiz-adv-x="884" 
d="M184 0v1454h105v-1362h551v-92h-656z" />
    <glyph glyph-name="lcaron" unicode="&#x13e;" horiz-adv-x="428" 
d="M262 1485v-1485h-96v1485h96z" />
    <glyph glyph-name="Ldot" unicode="&#x13f;" horiz-adv-x="884" 
d="M184 0v1454h105v-1362h551v-92h-656z" />
    <glyph glyph-name="ldot" unicode="&#x140;" horiz-adv-x="428" 
d="M262 1485v-1485h-96v1485h96z" />
    <glyph glyph-name="Lslash" unicode="&#x141;" horiz-adv-x="884" 
d="M184 0v1454h105v-1362h551v-92h-656z" />
    <glyph glyph-name="lslash" unicode="&#x142;" horiz-adv-x="428" 
d="M262 1485v-1485h-96v1485h96z" />
    <glyph glyph-name="Nacute" unicode="&#x143;" horiz-adv-x="1245" 
d="M184 0v1454h123l588 -1132q35 -70 72 -181h2q-8 107 -8 234v1079h100v-1454h-115l-596 1147q-10 19 -20.5 43.5t-17 42t-17.5 49t-16 45.5h-3q9 -157 9 -221v-1106h-101z" />
    <glyph glyph-name="nacute" unicode="&#x144;" horiz-adv-x="972" 
d="M166 0v1024h92v-225q32 123 107 186.5t188 63.5q278 0 278 -351v-698h-98v692q0 273 -213 273q-122 0 -190 -100t-68 -281v-584h-96z" />
    <glyph glyph-name="uni0145" unicode="&#x145;" horiz-adv-x="1245" 
d="M184 0v1454h123l588 -1132q35 -70 72 -181h2q-8 107 -8 234v1079h100v-1454h-115l-596 1147q-10 19 -20.5 43.5t-17 42t-17.5 49t-16 45.5h-3q9 -157 9 -221v-1106h-101z" />
    <glyph glyph-name="uni0146" unicode="&#x146;" horiz-adv-x="972" 
d="M166 0v1024h92v-225q32 123 107 186.5t188 63.5q278 0 278 -351v-698h-98v692q0 273 -213 273q-122 0 -190 -100t-68 -281v-584h-96z" />
    <glyph glyph-name="Ncaron" unicode="&#x147;" horiz-adv-x="1245" 
d="M184 0v1454h123l588 -1132q35 -70 72 -181h2q-8 107 -8 234v1079h100v-1454h-115l-596 1147q-10 19 -20.5 43.5t-17 42t-17.5 49t-16 45.5h-3q9 -157 9 -221v-1106h-101z" />
    <glyph glyph-name="ncaron" unicode="&#x148;" horiz-adv-x="972" 
d="M166 0v1024h92v-225q32 123 107 186.5t188 63.5q278 0 278 -351v-698h-98v692q0 273 -213 273q-122 0 -190 -100t-68 -281v-584h-96z" />
    <glyph glyph-name="napostrophe" unicode="&#x149;" horiz-adv-x="972" 
d="M166 0v1024h92v-225q32 123 107 186.5t188 63.5q278 0 278 -351v-698h-98v692q0 273 -213 273q-122 0 -190 -100t-68 -281v-584h-96z" />
    <glyph glyph-name="Eng" unicode="&#x14a;" horiz-adv-x="1245" 
d="M184 0v1454h123l588 -1132q35 -70 72 -181h2q-8 107 -8 234v1079h100v-1454h-115l-596 1147q-10 19 -20.5 43.5t-17 42t-17.5 49t-16 45.5h-3q9 -157 9 -221v-1106h-101z" />
    <glyph glyph-name="eng" unicode="&#x14b;" horiz-adv-x="972" 
d="M166 0v1024h92v-225q32 123 107 186.5t188 63.5q278 0 278 -351v-698h-98v692q0 273 -213 273q-122 0 -190 -100t-68 -281v-584h-96z" />
    <glyph glyph-name="Omacron" unicode="&#x14c;" horiz-adv-x="1206" 
d="M604 -35q-498 0 -498 762t498 762t498 -762t-498 -762zM217 727q0 -670 387 -670t387 670t-387 670t-387 -670z" />
    <glyph glyph-name="omacron" unicode="&#x14d;" 
d="M467 -25q-177 0 -274 130.5t-97 406.5t97 406.5t274 130.5q369 0 369 -537t-369 -537zM201 512q0 -243 69.5 -349t196.5 -106q266 0 266 455t-266 455q-127 0 -196.5 -106t-69.5 -349z" />
    <glyph glyph-name="Obreve" unicode="&#x14e;" horiz-adv-x="1206" 
d="M604 -35q-498 0 -498 762t498 762t498 -762t-498 -762zM217 727q0 -670 387 -670t387 670t-387 670t-387 -670z" />
    <glyph glyph-name="obreve" unicode="&#x14f;" 
d="M467 -25q-177 0 -274 130.5t-97 406.5t97 406.5t274 130.5q369 0 369 -537t-369 -537zM201 512q0 -243 69.5 -349t196.5 -106q266 0 266 455t-266 455q-127 0 -196.5 -106t-69.5 -349z" />
    <glyph glyph-name="Ohungarumlaut" unicode="&#x150;" horiz-adv-x="1206" 
d="M604 -35q-498 0 -498 762t498 762t498 -762t-498 -762zM217 727q0 -670 387 -670t387 670t-387 670t-387 -670z" />
    <glyph glyph-name="ohungarumlaut" unicode="&#x151;" 
d="M467 -25q-177 0 -274 130.5t-97 406.5t97 406.5t274 130.5q369 0 369 -537t-369 -537zM201 512q0 -243 69.5 -349t196.5 -106q266 0 266 455t-266 455q-127 0 -196.5 -106t-69.5 -349z" />
    <glyph glyph-name="OE" unicode="&#x152;" horiz-adv-x="2189" 
d="M604 -35q-498 0 -498 762t498 762t498 -762t-498 -762zM217 727q0 -670 387 -670t387 670t-387 670t-387 -670zM1391 0v1454h690v-90h-586v-571h551v-91h-551v-612h600v-90h-704z" />
    <glyph glyph-name="oe" unicode="&#x153;" horiz-adv-x="1828" 
d="M467 -25q-177 0 -274 130.5t-97 406.5t97 406.5t274 130.5q369 0 369 -537t-369 -537zM201 512q0 -243 69.5 -349t196.5 -106q266 0 266 455t-266 455q-127 0 -196.5 -106t-69.5 -349zM1028 512q0 147 25.5 252.5t74 167t111.5 89.5t145 28q342 0 342 -463v-80h-600
q3 -240 70.5 -342.5t198.5 -102.5q100 0 164.5 67.5t74.5 197.5l90 -23q-15 -157 -103.5 -242.5t-227.5 -85.5q-365 0 -365 537zM1126 582h502q0 206 -61.5 296.5t-182.5 90.5t-189 -89.5t-69 -297.5z" />
    <glyph glyph-name="Racute" unicode="&#x154;" horiz-adv-x="1083" 
d="M184 0v1454h373q213 0 307 -104t94 -295q0 -148 -67.5 -252t-202.5 -135l311 -668h-118l-303 651h-289v-651h-105zM289 735h274q139 0 210 83t71 237q0 158 -69 235.5t-222 77.5h-264v-633z" />
    <glyph glyph-name="racute" unicode="&#x155;" horiz-adv-x="595" 
d="M258 766q26 127 96.5 205t173.5 78q17 0 29 -2v-101q-10 2 -27 2q-104 0 -174 -86q-94 -111 -94 -321v-541h-96v1024h92v-258z" />
    <glyph glyph-name="uni0156" unicode="&#x156;" horiz-adv-x="1083" 
d="M184 0v1454h373q213 0 307 -104t94 -295q0 -148 -67.5 -252t-202.5 -135l311 -668h-118l-303 651h-289v-651h-105zM289 735h274q139 0 210 83t71 237q0 158 -69 235.5t-222 77.5h-264v-633z" />
    <glyph glyph-name="uni0157" unicode="&#x157;" horiz-adv-x="595" 
d="M258 766q26 127 96.5 205t173.5 78q17 0 29 -2v-101q-10 2 -27 2q-104 0 -174 -86q-94 -111 -94 -321v-541h-96v1024h92v-258z" />
    <glyph glyph-name="Rcaron" unicode="&#x158;" horiz-adv-x="1083" 
d="M184 0v1454h373q213 0 307 -104t94 -295q0 -148 -67.5 -252t-202.5 -135l311 -668h-118l-303 651h-289v-651h-105zM289 735h274q139 0 210 83t71 237q0 158 -69 235.5t-222 77.5h-264v-633z" />
    <glyph glyph-name="rcaron" unicode="&#x159;" horiz-adv-x="595" 
d="M258 766q26 127 96.5 205t173.5 78q17 0 29 -2v-101q-10 2 -27 2q-104 0 -174 -86q-94 -111 -94 -321v-541h-96v1024h92v-258z" />
    <glyph glyph-name="Sacute" unicode="&#x15a;" horiz-adv-x="1024" 
d="M535 -35q-221 0 -333 122.5t-124 373.5l108 14q11 -216 95.5 -318t257.5 -102q134 0 209 77.5t75 211.5q0 137 -54.5 209t-184.5 119l-189 67q-135 49 -204.5 147.5t-69.5 233.5q0 171 102.5 270t280.5 99q194 0 299 -106.5t112 -350.5l-104 -18q-9 208 -84.5 297.5
t-222.5 89.5q-129 0 -201 -74t-72 -201q0 -107 53 -179.5t169 -115.5l182 -67q155 -56 227 -154t72 -260q0 -183 -107.5 -284t-291.5 -101z" />
    <glyph glyph-name="sacute" unicode="&#x15b;" horiz-adv-x="829" 
d="M426 -25q-160 0 -250 81.5t-94 256.5l98 13q4 -135 69.5 -202t176.5 -67q102 0 158.5 52.5t56.5 146.5q0 83 -39.5 131.5t-132.5 77.5l-139 43q-221 69 -221 272q0 126 82.5 197.5t220.5 71.5q312 0 317 -314l-96 -14q-9 139 -63.5 193.5t-159.5 54.5q-96 0 -149.5 -48
t-53.5 -135q0 -78 39.5 -123t130.5 -75l141 -43q116 -36 168.5 -104.5t52.5 -176.5q0 -131 -83.5 -210t-229.5 -79z" />
    <glyph glyph-name="Scircumflex" unicode="&#x15c;" horiz-adv-x="1024" 
d="M535 -35q-221 0 -333 122.5t-124 373.5l108 14q11 -216 95.5 -318t257.5 -102q134 0 209 77.5t75 211.5q0 137 -54.5 209t-184.5 119l-189 67q-135 49 -204.5 147.5t-69.5 233.5q0 171 102.5 270t280.5 99q194 0 299 -106.5t112 -350.5l-104 -18q-9 208 -84.5 297.5
t-222.5 89.5q-129 0 -201 -74t-72 -201q0 -107 53 -179.5t169 -115.5l182 -67q155 -56 227 -154t72 -260q0 -183 -107.5 -284t-291.5 -101z" />
    <glyph glyph-name="scircumflex" unicode="&#x15d;" horiz-adv-x="829" 
d="M426 -25q-160 0 -250 81.5t-94 256.5l98 13q4 -135 69.5 -202t176.5 -67q102 0 158.5 52.5t56.5 146.5q0 83 -39.5 131.5t-132.5 77.5l-139 43q-221 69 -221 272q0 126 82.5 197.5t220.5 71.5q312 0 317 -314l-96 -14q-9 139 -63.5 193.5t-159.5 54.5q-96 0 -149.5 -48
t-53.5 -135q0 -78 39.5 -123t130.5 -75l141 -43q116 -36 168.5 -104.5t52.5 -176.5q0 -131 -83.5 -210t-229.5 -79z" />
    <glyph glyph-name="Scedilla" unicode="&#x15e;" horiz-adv-x="1024" 
d="M535 -35q-221 0 -333 122.5t-124 373.5l108 14q11 -216 95.5 -318t257.5 -102q134 0 209 77.5t75 211.5q0 137 -54.5 209t-184.5 119l-189 67q-135 49 -204.5 147.5t-69.5 233.5q0 171 102.5 270t280.5 99q194 0 299 -106.5t112 -350.5l-104 -18q-9 208 -84.5 297.5
t-222.5 89.5q-129 0 -201 -74t-72 -201q0 -107 53 -179.5t169 -115.5l182 -67q155 -56 227 -154t72 -260q0 -183 -107.5 -284t-291.5 -101z" />
    <glyph glyph-name="scedilla" unicode="&#x15f;" horiz-adv-x="829" 
d="M426 -25q-160 0 -250 81.5t-94 256.5l98 13q4 -135 69.5 -202t176.5 -67q102 0 158.5 52.5t56.5 146.5q0 83 -39.5 131.5t-132.5 77.5l-139 43q-221 69 -221 272q0 126 82.5 197.5t220.5 71.5q312 0 317 -314l-96 -14q-9 139 -63.5 193.5t-159.5 54.5q-96 0 -149.5 -48
t-53.5 -135q0 -78 39.5 -123t130.5 -75l141 -43q116 -36 168.5 -104.5t52.5 -176.5q0 -131 -83.5 -210t-229.5 -79z" />
    <glyph glyph-name="Scaron" unicode="&#x160;" horiz-adv-x="1024" 
d="M535 -35q-221 0 -333 122.5t-124 373.5l108 14q11 -216 95.5 -318t257.5 -102q134 0 209 77.5t75 211.5q0 137 -54.5 209t-184.5 119l-189 67q-135 49 -204.5 147.5t-69.5 233.5q0 171 102.5 270t280.5 99q194 0 299 -106.5t112 -350.5l-104 -18q-9 208 -84.5 297.5
t-222.5 89.5q-129 0 -201 -74t-72 -201q0 -107 53 -179.5t169 -115.5l182 -67q155 -56 227 -154t72 -260q0 -183 -107.5 -284t-291.5 -101z" />
    <glyph glyph-name="scaron" unicode="&#x161;" horiz-adv-x="829" 
d="M426 -25q-160 0 -250 81.5t-94 256.5l98 13q4 -135 69.5 -202t176.5 -67q102 0 158.5 52.5t56.5 146.5q0 83 -39.5 131.5t-132.5 77.5l-139 43q-221 69 -221 272q0 126 82.5 197.5t220.5 71.5q312 0 317 -314l-96 -14q-9 139 -63.5 193.5t-159.5 54.5q-96 0 -149.5 -48
t-53.5 -135q0 -78 39.5 -123t130.5 -75l141 -43q116 -36 168.5 -104.5t52.5 -176.5q0 -131 -83.5 -210t-229.5 -79z" />
    <glyph glyph-name="uni0162" unicode="&#x162;" horiz-adv-x="940" 
d="M25 1362v92h888v-92h-391v-1362h-102v1362h-395z" />
    <glyph glyph-name="uni0163" unicode="&#x163;" horiz-adv-x="581" 
d="M41 944v80h156v262l96 39v-301h225v-80h-225v-706q0 -164 145 -164q37 0 82 10v-88q-43 -14 -106 -14q-108 0 -162.5 61.5t-54.5 179.5v721h-156z" />
    <glyph glyph-name="Tcaron" unicode="&#x164;" horiz-adv-x="940" 
d="M25 1362v92h888v-92h-391v-1362h-102v1362h-395z" />
    <glyph glyph-name="tcaron" unicode="&#x165;" horiz-adv-x="581" 
d="M41 944v80h156v262l96 39v-301h225v-80h-225v-706q0 -164 145 -164q37 0 82 10v-88q-43 -14 -106 -14q-108 0 -162.5 61.5t-54.5 179.5v721h-156z" />
    <glyph glyph-name="Tbar" unicode="&#x166;" horiz-adv-x="940" 
d="M25 1362v92h888v-92h-391v-1362h-102v1362h-395z" />
    <glyph glyph-name="tbar" unicode="&#x167;" horiz-adv-x="581" 
d="M41 944v80h156v262l96 39v-301h225v-80h-225v-706q0 -164 145 -164q37 0 82 10v-88q-43 -14 -106 -14q-108 0 -162.5 61.5t-54.5 179.5v721h-156z" />
    <glyph glyph-name="Utilde" unicode="&#x168;" horiz-adv-x="1173" 
d="M166 1454h104v-1051q0 -163 84 -254.5t234 -91.5q149 0 232 91.5t83 254.5v1051h105v-1057q0 -200 -110.5 -316t-309.5 -116q-201 0 -311.5 115.5t-110.5 316.5v1057z" />
    <glyph glyph-name="utilde" unicode="&#x169;" horiz-adv-x="968" 
d="M422 -25q-279 0 -279 347v702h99v-696q0 -140 55.5 -203.5t148.5 -63.5q121 0 190 99.5t69 259.5v604h98v-1024h-94v211q-29 -108 -103.5 -172t-183.5 -64z" />
    <glyph glyph-name="Umacron" unicode="&#x16a;" horiz-adv-x="1173" 
d="M166 1454h104v-1051q0 -163 84 -254.5t234 -91.5q149 0 232 91.5t83 254.5v1051h105v-1057q0 -200 -110.5 -316t-309.5 -116q-201 0 -311.5 115.5t-110.5 316.5v1057z" />
    <glyph glyph-name="umacron" unicode="&#x16b;" horiz-adv-x="968" 
d="M422 -25q-279 0 -279 347v702h99v-696q0 -140 55.5 -203.5t148.5 -63.5q121 0 190 99.5t69 259.5v604h98v-1024h-94v211q-29 -108 -103.5 -172t-183.5 -64z" />
    <glyph glyph-name="Ubreve" unicode="&#x16c;" horiz-adv-x="1173" 
d="M166 1454h104v-1051q0 -163 84 -254.5t234 -91.5q149 0 232 91.5t83 254.5v1051h105v-1057q0 -200 -110.5 -316t-309.5 -116q-201 0 -311.5 115.5t-110.5 316.5v1057z" />
    <glyph glyph-name="ubreve" unicode="&#x16d;" horiz-adv-x="968" 
d="M422 -25q-279 0 -279 347v702h99v-696q0 -140 55.5 -203.5t148.5 -63.5q121 0 190 99.5t69 259.5v604h98v-1024h-94v211q-29 -108 -103.5 -172t-183.5 -64z" />
    <glyph glyph-name="Uring" unicode="&#x16e;" horiz-adv-x="1173" 
d="M166 1454h104v-1051q0 -163 84 -254.5t234 -91.5q149 0 232 91.5t83 254.5v1051h105v-1057q0 -200 -110.5 -316t-309.5 -116q-201 0 -311.5 115.5t-110.5 316.5v1057z" />
    <glyph glyph-name="uring" unicode="&#x16f;" horiz-adv-x="968" 
d="M422 -25q-279 0 -279 347v702h99v-696q0 -140 55.5 -203.5t148.5 -63.5q121 0 190 99.5t69 259.5v604h98v-1024h-94v211q-29 -108 -103.5 -172t-183.5 -64z" />
    <glyph glyph-name="Uhungarumlaut" unicode="&#x170;" horiz-adv-x="1173" 
d="M166 1454h104v-1051q0 -163 84 -254.5t234 -91.5q149 0 232 91.5t83 254.5v1051h105v-1057q0 -200 -110.5 -316t-309.5 -116q-201 0 -311.5 115.5t-110.5 316.5v1057z" />
    <glyph glyph-name="uhungarumlaut" unicode="&#x171;" horiz-adv-x="968" 
d="M422 -25q-279 0 -279 347v702h99v-696q0 -140 55.5 -203.5t148.5 -63.5q121 0 190 99.5t69 259.5v604h98v-1024h-94v211q-29 -108 -103.5 -172t-183.5 -64z" />
    <glyph glyph-name="Uogonek" unicode="&#x172;" horiz-adv-x="1173" 
d="M166 1454h104v-1051q0 -163 84 -254.5t234 -91.5q149 0 232 91.5t83 254.5v1051h105v-1057q0 -200 -110.5 -316t-309.5 -116q-201 0 -311.5 115.5t-110.5 316.5v1057z" />
    <glyph glyph-name="uogonek" unicode="&#x173;" horiz-adv-x="968" 
d="M422 -25q-279 0 -279 347v702h99v-696q0 -140 55.5 -203.5t148.5 -63.5q121 0 190 99.5t69 259.5v604h98v-1024h-94v211q-29 -108 -103.5 -172t-183.5 -64z" />
    <glyph glyph-name="Wcircumflex" unicode="&#x174;" horiz-adv-x="1519" 
d="M346 0l-289 1454h105l235 -1190q10 -72 17 -153h4q8 83 20 153l262 1190h119l264 -1190q18 -127 19 -153h6q2 56 16 153l234 1190h106l-288 -1454h-138l-260 1202q-10 54 -14 131h-6q-9 -88 -17 -131l-260 -1202h-135z" />
    <glyph glyph-name="wcircumflex" unicode="&#x175;" horiz-adv-x="1220" 
d="M295 0l-244 1024h99l176 -801q19 -105 20 -114h4q5 37 23 114l186 801h103l186 -801q15 -65 22 -114h4q4 46 21 114l176 801h98l-241 -1024h-107l-190 815l-19 107h-4q-12 -74 -20 -107l-189 -815h-104z" />
    <glyph glyph-name="Ycircumflex" unicode="&#x176;" horiz-adv-x="966" 
d="M430 0v614l-410 840h117l295 -620q38 -81 49 -119h4q10 32 50 119l294 620h117l-409 -840v-614h-107z" />
    <glyph glyph-name="ycircumflex" unicode="&#x177;" horiz-adv-x="792" 
d="M131 -410q-21 0 -65 7v90q20 -4 55 -4q84 0 132.5 53.5t80.5 159.5l26 100l-333 1028h106l234 -770q38 -134 41 -152h2q10 42 39 144l215 778h102l-334 -1133q-49 -161 -119.5 -231t-181.5 -70z" />
    <glyph glyph-name="Ydieresis" unicode="&#x178;" horiz-adv-x="966" 
d="M430 0v614l-410 840h117l295 -620q38 -81 49 -119h4q10 32 50 119l294 620h117l-409 -840v-614h-107z" />
    <glyph glyph-name="Zacute" unicode="&#x179;" 
d="M59 92l695 1270h-662v92h776v-92l-696 -1270h717v-92h-830v92z" />
    <glyph glyph-name="zacute" unicode="&#x17a;" horiz-adv-x="755" 
d="M70 78l495 862h-473v84h584v-76l-494 -864h514v-84h-626v78z" />
    <glyph glyph-name="Zdotaccent" unicode="&#x17b;" 
d="M59 92l695 1270h-662v92h776v-92l-696 -1270h717v-92h-830v92z" />
    <glyph glyph-name="zdotaccent" unicode="&#x17c;" horiz-adv-x="755" 
d="M70 78l495 862h-473v84h584v-76l-494 -864h514v-84h-626v78z" />
    <glyph glyph-name="Zcaron" unicode="&#x17d;" 
d="M59 92l695 1270h-662v92h776v-92l-696 -1270h717v-92h-830v92z" />
    <glyph glyph-name="zcaron" unicode="&#x17e;" horiz-adv-x="755" 
d="M70 78l495 862h-473v84h584v-76l-494 -864h514v-84h-626v78z" />
    <glyph glyph-name="AEacute" unicode="&#x1fc;" horiz-adv-x="2052" 
d="M47 0l430 1454h115l430 -1454h-107l-122 430h-514l-123 -430h-109zM305 520h461l-176 610q-30 96 -51 209h-7q-17 -89 -51 -209zM1255 0v1454h691v-90h-586v-571h551v-91h-551v-612h600v-90h-705z" />
    <glyph glyph-name="aeacute" unicode="&#x1fd;" horiz-adv-x="1792" 
d="M365 -25q-126 0 -200.5 76t-74.5 205q0 131 86 211q80 77 258 106l221 39v90q0 140 -48.5 202.5t-160.5 62.5q-114 0 -170 -64t-59 -203h-102q3 178 93 263.5t238 85.5q163 0 235.5 -77.5t72.5 -258.5v-383q0 -209 22 -330h-98q-14 110 -14 213q-31 -113 -107.5 -175.5
t-191.5 -62.5zM195 264q0 -99 52 -153t146 -54q119 0 191.5 91.5t72.5 240.5v150l-225 -41q-121 -22 -179 -78t-58 -156zM993 512q0 147 25.5 252.5t74 167t112 89.5t145.5 28q342 0 342 -463v-80h-600q2 -162 35 -262.5t90 -141.5t143 -41q100 0 164.5 67.5t74.5 197.5
l91 -23q-15 -157 -104 -242.5t-228 -85.5q-365 0 -365 537zM1092 582h501q0 206 -61 296.5t-182 90.5t-189 -89.5t-69 -297.5z" />
    <glyph glyph-name="Oslashacute" unicode="&#x1fe;" horiz-adv-x="1206" 
d="M604 -35q-498 0 -498 762t498 762t498 -762t-498 -762zM217 727q0 -670 387 -670t387 670t-387 670t-387 -670z" />
    <glyph glyph-name="oslashacute" unicode="&#x1ff;" 
d="M467 -25q-177 0 -274 130.5t-97 406.5t97 406.5t274 130.5q369 0 369 -537t-369 -537zM201 512q0 -243 69.5 -349t196.5 -106q266 0 266 455t-266 455q-127 0 -196.5 -106t-69.5 -349z" />
    <glyph glyph-name="uni0218" unicode="&#x218;" horiz-adv-x="1024" 
d="M535 -35q-221 0 -333 122.5t-124 373.5l108 14q11 -216 95.5 -318t257.5 -102q134 0 209 77.5t75 211.5q0 137 -54.5 209t-184.5 119l-189 67q-135 49 -204.5 147.5t-69.5 233.5q0 171 102.5 270t280.5 99q194 0 299 -106.5t112 -350.5l-104 -18q-9 208 -84.5 297.5
t-222.5 89.5q-129 0 -201 -74t-72 -201q0 -107 53 -179.5t169 -115.5l182 -67q155 -56 227 -154t72 -260q0 -183 -107.5 -284t-291.5 -101z" />
    <glyph glyph-name="uni0219" unicode="&#x219;" horiz-adv-x="829" 
d="M426 -25q-160 0 -250 81.5t-94 256.5l98 13q4 -135 69.5 -202t176.5 -67q102 0 158.5 52.5t56.5 146.5q0 83 -39.5 131.5t-132.5 77.5l-139 43q-221 69 -221 272q0 126 82.5 197.5t220.5 71.5q312 0 317 -314l-96 -14q-9 139 -63.5 193.5t-159.5 54.5q-96 0 -149.5 -48
t-53.5 -135q0 -78 39.5 -123t130.5 -75l141 -43q116 -36 168.5 -104.5t52.5 -176.5q0 -131 -83.5 -210t-229.5 -79z" />
    <glyph glyph-name="uni021A" unicode="&#x21a;" horiz-adv-x="940" 
d="M25 1362v92h888v-92h-391v-1362h-102v1362h-395z" />
    <glyph glyph-name="uni021B" unicode="&#x21b;" horiz-adv-x="581" 
d="M41 944v80h156v262l96 39v-301h225v-80h-225v-706q0 -164 145 -164q37 0 82 10v-88q-43 -14 -106 -14q-108 0 -162.5 61.5t-54.5 179.5v721h-156z" />
    <glyph glyph-name="uni0237" unicode="&#x237;" horiz-adv-x="419" 
d="M53 -414q-56 0 -90 11v86q54 -7 74 -7q59 0 90 34t31 114v1200h96v-1204q0 -115 -51 -174.5t-150 -59.5zM152 1198v232h106v-232h-106z" />
    <glyph glyph-name="uni0401" unicode="&#x401;" horiz-adv-x="980" 
d="M289 90h600v-90h-705v1454h690v-90h-585v-571h551v-91h-551v-612z" />
    <glyph glyph-name="uni0404" unicode="&#x404;" horiz-adv-x="1153" 
d="M596 -35q-248 0 -369 192t-121 586q0 376 130 561t372 185q204 0 319 -128.5t115 -381.5l-108 -12q0 218 -88 326t-244 108q-177 0 -278.5 -149t-108.5 -468h535v-90h-535q6 -328 101.5 -483.5t279.5 -155.5q157 0 249.5 108t92.5 329l104 -19q0 -247 -118 -377.5
t-328 -130.5z" />
    <glyph glyph-name="uni0405" unicode="&#x405;" horiz-adv-x="1024" 
d="M535 -35q-221 0 -333 122.5t-124 373.5l108 14q11 -216 95.5 -318t257.5 -102q134 0 209 77.5t75 211.5q0 137 -54.5 209t-184.5 119l-189 67q-135 49 -204.5 147.5t-69.5 233.5q0 171 102.5 270t280.5 99q194 0 299 -106.5t112 -350.5l-104 -18q-9 208 -84.5 297.5
t-222.5 89.5q-129 0 -201 -74t-72 -201q0 -107 53 -179.5t169 -115.5l182 -67q155 -56 227 -154t72 -260q0 -183 -107.5 -284t-291.5 -101z" />
    <glyph glyph-name="uni0406" unicode="&#x406;" horiz-adv-x="473" 
d="M289 0h-105v1454h105v-1454z" />
    <glyph glyph-name="uni0408" unicode="&#x408;" horiz-adv-x="641" 
d="M475 305q0 -175 -84.5 -252.5t-226.5 -77.5q-86 0 -133 17v98q69 -16 131 -16q97 0 152 54.5t55 186.5v1139h106v-1149z" />
    <glyph glyph-name="uni040F" unicode="&#x40f;" horiz-adv-x="1224" 
d="M1040 0h-381v-301h-98v301h-377v1454h105v-1362h647v1362h104v-1454z" />
    <glyph glyph-name="uni0410" unicode="&#x410;" horiz-adv-x="1071" 
d="M47 0l430 1454h115l430 -1454h-107l-122 430h-514l-123 -430h-109zM305 520h461l-176 610q-30 96 -51 209h-7q-17 -89 -51 -209z" />
    <glyph glyph-name="uni0411" unicode="&#x411;" horiz-adv-x="1064" 
d="M547 88q159 0 231 79t72 253t-74 252t-233 78h-254v-662h258zM184 0v1454h682v-92h-577v-526h264q205 0 305 -101.5t100 -312.5q0 -215 -99.5 -318.5t-301.5 -103.5h-373z" />
    <glyph glyph-name="uni0412" unicode="&#x412;" horiz-adv-x="1081" 
d="M184 0v1454h367q110 0 190 -30.5t123.5 -84.5t63.5 -117t20 -139q0 -131 -60 -217.5t-181 -107.5q131 -20 199.5 -113t68.5 -246q0 -88 -21.5 -158.5t-68 -125.5t-126.5 -85t-190 -30h-385zM289 86h270q87 0 148 23.5t94.5 67.5t48 98.5t14.5 125.5q0 149 -71.5 229.5
t-231.5 80.5h-272v-625zM289 793h268q283 0 283 286q0 291 -295 291h-256v-577z" />
    <glyph glyph-name="uni0413" unicode="&#x413;" horiz-adv-x="860" 
d="M836 1454v-92h-547v-1362h-105v1454h652z" />
    <glyph glyph-name="uni0414" unicode="&#x414;" horiz-adv-x="1232" 
d="M1032 1454v-1362h142v-389h-99v297h-960v-297h-99v387h64v2h63q124 245 154 625q26 281 29 737h706zM250 92h676v1268h-502q-9 -376 -29 -649q-33 -380 -145 -619z" />
    <glyph glyph-name="uni0415" unicode="&#x415;" horiz-adv-x="980" 
d="M289 90h600v-90h-705v1454h690v-90h-585v-571h551v-91h-551v-612z" />
    <glyph glyph-name="uni0416" unicode="&#x416;" horiz-adv-x="1603" 
d="M750 0v717h-246l-352 -717h-119l383 778l-365 676h115l336 -647h248v647h104v-647h248l336 647h114l-364 -676l383 -778h-119l-350 717h-248v-717h-104z" />
    <glyph glyph-name="uni0417" unicode="&#x417;" horiz-adv-x="1060" 
d="M535 -31q-203 0 -313.5 103t-110.5 290v39l104 13v-45q0 -150 83 -232t237 -82q159 0 238 80.5t79 251.5q0 165 -80.5 241.5t-241.5 76.5h-120v90h110q150 0 225.5 76t75.5 239q0 149 -74.5 221t-211.5 72q-149 0 -229.5 -76.5t-80.5 -230.5v-56l-102 17v53
q0 187 108.5 283t303.5 96q187 0 287 -92.5t100 -280.5q0 -313 -242 -360q134 -20 203 -115t69 -254q0 -418 -417 -418z" />
    <glyph glyph-name="uni0418" unicode="&#x418;" horiz-adv-x="1249" 
d="M1065 0h-98v1116q0 164 4 236h-6q-24 -76 -74 -203l-569 -1149h-138v1454h99v-1114q0 -154 -4 -234h6q21 77 67 181l572 1167h141v-1454z" />
    <glyph glyph-name="uni0419" unicode="&#x419;" horiz-adv-x="1249" 
d="M1065 0h-98v1116q0 164 4 236h-6q-24 -76 -74 -203l-569 -1149h-138v1454h99v-1114q0 -154 -4 -234h6q21 77 67 181l572 1167h141v-1454z" />
    <glyph glyph-name="uni041A" unicode="&#x41a;" horiz-adv-x="1081" 
d="M184 0v1454h105v-647h248l358 647h115l-387 -678l405 -776h-119l-372 717h-248v-717h-105z" />
    <glyph glyph-name="uni041B" unicode="&#x41b;" horiz-adv-x="1200" 
d="M27 -2v98q30 -6 57 -6q38 0 66.5 16.5t48 46.5t33 80t21 107.5t13.5 138.5q26 384 43 975h709v-1454h-107v1362h-505q-21 -535 -46 -911q-16 -239 -73 -350t-191 -111q-42 0 -69 8z" />
    <glyph glyph-name="uni041C" unicode="&#x41c;" horiz-adv-x="1464" 
d="M184 0v1454h156l362 -1204q23 -84 27 -131h6q3 37 29 131l360 1204h158v-1454h-100v1149q0 117 6 199h-6q-10 -52 -37 -166l-359 -1182h-108l-359 1182l-12.5 62.5t-12.5 63t-9 40.5h-6q4 -110 4 -199v-1149h-99z" />
    <glyph glyph-name="uni041D" unicode="&#x41d;" horiz-adv-x="1228" 
d="M1044 1454v-1454h-104v702h-651v-702h-105v1454h105v-663h651v663h104z" />
    <glyph glyph-name="uni041E" unicode="&#x41e;" horiz-adv-x="1206" 
d="M604 -35q-498 0 -498 762t498 762t498 -762t-498 -762zM217 727q0 -670 387 -670t387 670t-387 670t-387 -670z" />
    <glyph glyph-name="uni041F" unicode="&#x41f;" horiz-adv-x="1224" 
d="M1040 1454v-1454h-104v1362h-647v-1362h-105v1454h856z" />
    <glyph glyph-name="uni0420" unicode="&#x420;" horiz-adv-x="997" 
d="M289 0h-105v1454h371q190 0 293.5 -103.5t103.5 -291.5q0 -197 -103.5 -307.5t-287.5 -110.5h-272v-641zM289 727h268q134 0 209.5 88t75.5 244q0 151 -75.5 230t-215.5 79h-262v-641z" />
    <glyph glyph-name="uni0421" unicode="&#x421;" horiz-adv-x="1126" 
d="M584 -35q-248 0 -363 187t-115 575q0 389 120 575.5t362 186.5q407 0 430 -504l-109 -10q-10 219 -91.5 320.5t-233.5 101.5q-187 0 -278 -161.5t-91 -506.5q0 -346 90.5 -509t282.5 -163q294 0 323 420l107 -14q-38 -498 -434 -498z" />
    <glyph glyph-name="uni0422" unicode="&#x422;" horiz-adv-x="940" 
d="M25 1362v92h888v-92h-391v-1362h-102v1362h-395z" />
    <glyph glyph-name="uni0423" unicode="&#x423;" horiz-adv-x="1013" 
d="M479 303l-448 1151h108l340 -887q42 -122 47 -153h4q8 43 45 153l304 887h104l-403 -1141q-24 -65 -43 -108.5t-47.5 -90t-59.5 -73t-74 -44t-96 -17.5q-45 0 -90 10v94q39 -8 80 -8q82 0 129.5 46.5t89.5 153.5z" />
    <glyph glyph-name="uni0424" unicode="&#x424;" horiz-adv-x="1351" 
d="M727 1505v-125q518 -6 518 -645q0 -327 -129 -485.5t-389 -161.5v-133h-102v133q-264 3 -391.5 160.5t-127.5 486.5q0 325 130.5 483.5t388.5 161.5v125h102zM207 735q0 -291 98.5 -424.5t321.5 -134.5v1116q-220 -3 -320 -137.5t-100 -419.5zM725 176q221 3 319.5 136
t98.5 421q0 285 -100 420.5t-318 138.5v-1116z" />
    <glyph glyph-name="uni0425" unicode="&#x425;" horiz-adv-x="1019" 
d="M33 0l411 766l-374 688h118l275 -510q29 -51 47 -106h4q13 40 47 106l275 510h114l-372 -692l409 -762h-121l-297 571q-40 69 -57 121h-4q-23 -60 -59 -121l-297 -571h-119z" />
    <glyph glyph-name="uni0426" unicode="&#x426;" horiz-adv-x="1241" 
d="M184 0v1454h105v-1362h647v1362h104v-1362h144v-389h-99v297h-901z" />
    <glyph glyph-name="uni0427" unicode="&#x427;" horiz-adv-x="1077" 
d="M893 1454v-1454h-105v655q-150 -55 -296 -55q-201 0 -294.5 104t-93.5 326v424h105v-412q0 -184 67 -266t224 -82q151 0 288 51v709h105z" />
    <glyph glyph-name="uni0428" unicode="&#x428;" horiz-adv-x="1675" 
d="M1386 1454h105v-1454h-1307v1454h105v-1362h495v1362h105v-1362h497v1362z" />
    <glyph glyph-name="uni0429" unicode="&#x429;" horiz-adv-x="1693" 
d="M1386 1454h105v-1362h143v-395h-98v303h-1352v1454h105v-1362h495v1362h105v-1362h497v1362z" />
    <glyph glyph-name="uni042A" unicode="&#x42a;" horiz-adv-x="1243" 
d="M25 1454h464v-612h254q204 0 305 -101.5t101 -308.5q0 -221 -100.5 -326.5t-305.5 -105.5h-358v1360h-360v94zM489 88h248q160 0 231.5 80t71.5 264q0 170 -74 246t-235 76h-242v-666z" />
    <glyph glyph-name="uni042B" unicode="&#x42b;" horiz-adv-x="1419" 
d="M537 88q160 0 231.5 80t71.5 264q0 170 -74.5 246t-235.5 76h-241v-666h248zM184 0v1454h105v-612h254q204 0 304.5 -101.5t100.5 -308.5q0 -221 -100 -326.5t-305 -105.5h-359zM1130 0v1454h105v-1454h-105z" />
    <glyph glyph-name="uni042C" unicode="&#x42c;" horiz-adv-x="1042" 
d="M537 88q160 0 231.5 80t71.5 264q0 170 -74.5 246t-235.5 76h-241v-666h248zM184 0v1454h105v-612h254q204 0 304.5 -101.5t100.5 -308.5q0 -221 -100 -326.5t-305 -105.5h-359z" />
    <glyph glyph-name="uni042D" unicode="&#x42d;" horiz-adv-x="1155" 
d="M578 -35q-227 0 -347 128.5t-120 373.5l108 12q0 -218 95.5 -321t263.5 -103q182 0 271 152t93 491h-543v90h543q-6 325 -96 469t-271 144q-168 0 -261 -107.5t-93 -326.5l-108 14q0 251 120 379.5t338 128.5q244 0 361 -178.5t117 -569.5q0 -404 -114 -590t-357 -186z
" />
    <glyph glyph-name="uni042E" unicode="&#x42e;" horiz-adv-x="1654" 
d="M1059 -35q-231 0 -357 188t-133 547h-280v-700h-105v1454h105v-663h280q9 345 134.5 521.5t355.5 176.5q239 0 365 -189t126 -557q0 -382 -126 -580t-365 -198zM678 739q0 -331 96.5 -507.5t284.5 -176.5q190 0 286.5 174.5t96.5 509.5q0 325 -96.5 492.5t-286.5 167.5
q-189 0 -285 -167.5t-96 -492.5z" />
    <glyph glyph-name="uni042F" unicode="&#x42f;" horiz-adv-x="1081" 
d="M897 0h-104v649h-285h-2l-305 -649h-117l309 659q-266 57 -266 394q0 401 393 401h377v-1454zM236 1051q0 -157 68 -235.5t214 -78.5h275v629h-267q-152 0 -221 -79.5t-69 -235.5z" />
    <glyph glyph-name="uni0430" unicode="&#x430;" horiz-adv-x="899" 
d="M365 -25q-126 0 -200.5 76t-74.5 205q0 131 86 211q80 77 258 106l221 39v90q0 140 -48.5 202.5t-160.5 62.5q-114 0 -170 -64t-59 -203h-102q3 178 93 263.5t238 85.5q163 0 235.5 -77.5t72.5 -258.5v-383q0 -209 22 -330h-98q-14 110 -14 213q-31 -113 -107.5 -175.5
t-191.5 -62.5zM195 264q0 -99 52 -153t146 -54q119 0 191.5 91.5t72.5 240.5v150l-225 -41q-121 -22 -179 -78t-58 -156z" />
    <glyph glyph-name="uni0431" unicode="&#x431;" horiz-adv-x="905" 
d="M494 1036q158 0 236.5 -129t78.5 -377q0 -555 -352 -555q-193 0 -277 161t-84 499v2q0 144 7.5 245.5t27.5 189t55 143.5t89.5 93t132.5 52l135 26q73 14 101.5 37t31.5 78h94q0 -90 -37.5 -132t-142.5 -62l-146 -27q-146 -29 -203 -140.5t-57 -340.5v-68
q28 150 106.5 227.5t203.5 77.5zM203 502q0 -209 61 -326t191 -117q254 0 254 465q0 213 -60 320.5t-190 107.5q-131 0 -193.5 -117.5t-62.5 -332.5z" />
    <glyph glyph-name="uni0432" unicode="&#x432;" horiz-adv-x="911" 
d="M164 0v1024h328q307 0 307 -260q0 -96 -46.5 -158.5t-136.5 -79.5q101 -14 157 -77t56 -168q0 -281 -321 -281h-344zM262 76h242q114 0 170.5 50t56.5 159q0 198 -235 198h-234v-407zM262 559h215q113 0 167 47t54 154q0 99 -52.5 142.5t-160.5 43.5h-223v-387z" />
    <glyph glyph-name="uni0433" unicode="&#x433;" horiz-adv-x="698" 
d="M662 934h-400v-934h-96v1024h496v-90z" />
    <glyph glyph-name="uni0434" unicode="&#x434;" horiz-adv-x="987" 
d="M119 -272h-92v362h114q72 144 99 359q24 185 24 575h547v-934h127v-362h-92v272h-727v-272zM236 90h479v844h-365q0 -304 -22 -490q-23 -202 -92 -354z" />
    <glyph glyph-name="uni0435" unicode="&#x435;" horiz-adv-x="897" 
d="M461 -25q-365 0 -365 537q0 147 25.5 252.5t74 167t112 89.5t145.5 28q342 0 342 -463v-80h-600q2 -162 35 -262.5t90 -141.5t143 -41q100 0 164.5 67.5t74.5 197.5l91 -23q-15 -157 -104 -242.5t-228 -85.5zM195 582h501q0 206 -61 296.5t-182 90.5t-189 -89.5
t-69 -297.5z" />
    <glyph glyph-name="uni0436" unicode="&#x436;" horiz-adv-x="1312" 
d="M610 0v481h-176l-282 -481h-113l319 537l-297 487h107l270 -465h172v465h92v-465h172l271 465h106l-297 -487l320 -537h-113l-282 481h-177v-481h-92z" />
    <glyph glyph-name="uni0437" unicode="&#x437;" horiz-adv-x="831" 
d="M426 -25q-160 0 -243 78.5t-91 214.5v25l98 8v-20q13 -228 238 -228q108 0 166.5 56.5t58.5 171.5q0 109 -52 158.5t-163 49.5h-112v78h106q199 0 199 205q0 101 -55 149t-154 48q-213 0 -227 -226v-22l-99 8v19q10 149 95.5 225t236.5 76q142 0 220.5 -69t78.5 -200
q0 -102 -48 -166.5t-136 -81.5q209 -32 209 -251q0 -146 -84.5 -226t-241.5 -80z" />
    <glyph glyph-name="uni0438" unicode="&#x438;" horiz-adv-x="999" 
d="M166 0v1024h88v-752v-182h4q61 140 72 162l375 772h131v-1024h-91v768v166h-4q-65 -150 -71 -162l-373 -772h-131z" />
    <glyph glyph-name="uni0439" unicode="&#x439;" horiz-adv-x="999" 
d="M166 0v1024h88v-752v-182h4q61 140 72 162l375 772h131v-1024h-91v768v166h-4q-65 -150 -71 -162l-373 -772h-131z" />
    <glyph glyph-name="uni043A" unicode="&#x43a;" horiz-adv-x="884" 
d="M166 0v1024h96v-465h170l270 465h107l-297 -487l319 -537h-112l-285 481h-172v-481h-96z" />
    <glyph glyph-name="uni043B" unicode="&#x43b;" horiz-adv-x="950" 
d="M29 -4v84q10 -2 32 -2q69 0 99 63t39 217q13 234 30 666h557v-1024h-98v934h-373q-5 -101 -13.5 -297.5t-12.5 -278.5q-11 -196 -58 -282t-151 -86q-30 0 -51 6z" />
    <glyph glyph-name="uni043C" unicode="&#x43c;" horiz-adv-x="1253" 
d="M895 655l-229 -655h-88l-222 657q-27 71 -94 273h-6v-234v-696h-90v1024h149l269 -786q25 -71 37 -127h4q9 35 39 127l276 786h150v-1024h-93v709v223h-4q-32 -95 -98 -277z" />
    <glyph glyph-name="uni043D" unicode="&#x43d;" horiz-adv-x="974" 
d="M262 1024v-463h451v463h96v-1024h-96v481h-451v-481h-96v1024h96z" />
    <glyph glyph-name="uni043E" unicode="&#x43e;" 
d="M467 -25q-177 0 -274 130.5t-97 406.5t97 406.5t274 130.5q369 0 369 -537t-369 -537zM201 512q0 -243 69.5 -349t196.5 -106q266 0 266 455t-266 455q-127 0 -196.5 -106t-69.5 -349z" />
    <glyph glyph-name="uni043F" unicode="&#x43f;" horiz-adv-x="970" 
d="M166 0v1024h641v-1024h-98v934h-447v-934h-96z" />
    <glyph glyph-name="uni0440" unicode="&#x440;" horiz-adv-x="993" 
d="M164 -399v1423h96v-231q31 121 110.5 188.5t190.5 67.5q336 0 336 -531q0 -268 -92.5 -405.5t-253.5 -137.5q-107 0 -182.5 64.5t-104.5 177.5v-616h-100zM264 430q0 -169 72.5 -270t193.5 -101q128 0 193 110t65 349q0 237 -62 342t-189 105q-123 0 -198 -102.5
t-75 -268.5v-164z" />
    <glyph glyph-name="uni0441" unicode="&#x441;" horiz-adv-x="882" 
d="M467 -25q-178 0 -274.5 135t-96.5 402q0 271 94.5 404t274.5 133q145 0 230.5 -95t92.5 -274l-102 -8q-7 145 -66 219t-159 74q-262 0 -262 -453q0 -230 69.5 -340.5t198.5 -110.5q99 0 157.5 76t65.5 223l101 -12q-10 -180 -96.5 -276.5t-227.5 -96.5z" />
    <glyph glyph-name="uni0442" unicode="&#x442;" horiz-adv-x="763" 
d="M37 934v90h690v-90h-295v-934h-96v934h-299z" />
    <glyph glyph-name="uni0443" unicode="&#x443;" horiz-adv-x="792" 
d="M131 -410q-21 0 -65 7v90q20 -4 55 -4q84 0 132.5 53.5t80.5 159.5l26 100l-333 1028h106l234 -770q38 -134 41 -152h2q10 42 39 144l215 778h102l-334 -1133q-49 -161 -119.5 -231t-181.5 -70z" />
    <glyph glyph-name="uni0444" unicode="&#x444;" horiz-adv-x="1396" 
d="M649 1485h96v-641q27 99 93.5 152t156.5 53q157 0 231 -143t74 -396q0 -535 -301 -535q-89 0 -155 47.5t-99 139.5v-563h-96v561q-67 -185 -252 -185q-301 0 -301 535q0 123 17 219.5t52.5 169t94.5 111.5t139 39q90 0 156.5 -51t93.5 -146v633zM197 510q0 -453 227 -453
q79 0 131 43.5t73 110.5t21 156v280q0 143 -57.5 231.5t-165.5 88.5q-114 0 -171.5 -108.5t-57.5 -348.5zM745 367q0 -136 56.5 -223t171.5 -87t171 111.5t56 341.5q0 240 -57.5 348.5t-171.5 108.5q-109 0 -167.5 -89t-58.5 -231v-280z" />
    <glyph glyph-name="uni0445" unicode="&#x445;" horiz-adv-x="796" 
d="M39 0l303 537l-279 487h111l168 -315q39 -69 57 -109h4q11 27 58 111l160 313h112l-274 -494l299 -530h-111l-192 358q-53 98 -56 105h-2q-16 -37 -57 -107l-190 -356h-111z" />
    <glyph glyph-name="uni0446" unicode="&#x446;" horiz-adv-x="974" 
d="M166 0v1024h96v-934h440v934h97v-934h129v-362h-92v272h-670z" />
    <glyph glyph-name="uni0447" unicode="&#x447;" horiz-adv-x="886" 
d="M190 719q0 -126 49 -180t177 -54q113 0 209 41v498h96v-1024h-96v446q-106 -45 -232 -45q-156 0 -228.5 72t-72.5 236v317h98v-307z" />
    <glyph glyph-name="uni0448" unicode="&#x448;" horiz-adv-x="1396" 
d="M1135 1024h96v-1024h-1065v1024h96v-934h387v934h99v-934h387v934z" />
    <glyph glyph-name="uni0449" unicode="&#x449;" horiz-adv-x="1406" 
d="M1135 1024h96v-934h127v-362h-92v272h-1100v1024h96v-934h387v934h99v-934h387v934z" />
    <glyph glyph-name="uni044A" unicode="&#x44a;" horiz-adv-x="1001" 
d="M37 934v90h369v-389h200q157 0 237.5 -75t80.5 -238q0 -166 -78.5 -244t-239.5 -78h-299v934h-270zM406 78h192q117 0 172 55.5t55 188.5q0 126 -57 179.5t-172 53.5h-190v-477z" />
    <glyph glyph-name="uni044B" unicode="&#x44b;" horiz-adv-x="851" 
d="M780 322q0 -166 -78 -244t-239 -78h-299v1024h98v-389h201q157 0 237 -75t80 -238zM262 78h193q117 0 172 55.5t55 188.5q0 126 -57 179.5t-172 53.5h-191v-477z" />
    <glyph glyph-name="uni044C" unicode="&#x44c;" horiz-adv-x="851" 
d="M780 322q0 -166 -78 -244t-239 -78h-299v1024h98v-389h201q157 0 237 -75t80 -238zM262 78h193q117 0 172 55.5t55 188.5q0 126 -57 179.5t-172 53.5h-191v-477z" />
    <glyph glyph-name="uni044D" unicode="&#x44d;" horiz-adv-x="870" 
d="M422 -25q-145 0 -232 90t-96 259l94 8q20 -277 234 -277q245 0 254 426h-357v80h357q-15 408 -250 408q-106 0 -165 -65t-71 -206l-96 9q10 165 95.5 253.5t228.5 88.5q176 0 266 -136t90 -393v-12q0 -261 -89 -397t-263 -136z" />
    <glyph glyph-name="uni044E" unicode="&#x44e;" horiz-adv-x="1288" 
d="M827 -25q-165 0 -260.5 127.5t-101.5 378.5h-203v-481h-96v1024h96v-463h203q10 242 105 365t257 123q173 0 269 -135.5t96 -401.5t-96 -401.5t-269 -135.5zM160 1198v232h106v-232h-106zM565 510q0 -229 68.5 -339t193.5 -110q126 0 195.5 110.5t69.5 342.5
q0 229 -69.5 339t-195.5 110q-125 0 -193.5 -110.5t-68.5 -342.5z" />
    <glyph glyph-name="uni044F" unicode="&#x44f;" horiz-adv-x="892" 
d="M98 721q0 153 83 228t239 75h307v-1024h-96v418h-211h-4l-219 -418h-109l231 426q-221 45 -221 295zM197 719q0 -115 56 -169t179 -54h199v448h-203q-124 0 -177.5 -54.5t-53.5 -170.5z" />
    <glyph glyph-name="uni0451" unicode="&#x451;" horiz-adv-x="897" 
d="M461 -25q-365 0 -365 537q0 147 25.5 252.5t74 167t112 89.5t145.5 28q342 0 342 -463v-80h-600q2 -162 35 -262.5t90 -141.5t143 -41q100 0 164.5 67.5t74.5 197.5l91 -23q-15 -157 -104 -242.5t-228 -85.5zM195 582h501q0 206 -61 296.5t-182 90.5t-189 -89.5
t-69 -297.5z" />
    <glyph glyph-name="uni0454" unicode="&#x454;" horiz-adv-x="870" 
d="M551 561v-80h-356q5 -208 68.5 -317t185.5 -109q105 0 164 66.5t71 210.5l94 -8q-10 -169 -97 -259t-232 -90q-174 0 -263.5 136t-89.5 397v12q0 256 91.5 392.5t265.5 136.5q143 0 229 -88.5t96 -253.5l-98 -9q-12 141 -71 206t-163 65q-236 0 -251 -408h356z" />
    <glyph glyph-name="uni0455" unicode="&#x455;" horiz-adv-x="829" 
d="M426 -25q-160 0 -250 81.5t-94 256.5l98 13q4 -135 69.5 -202t176.5 -67q102 0 158.5 52.5t56.5 146.5q0 83 -39.5 131.5t-132.5 77.5l-139 43q-221 69 -221 272q0 126 82.5 197.5t220.5 71.5q312 0 317 -314l-96 -14q-9 139 -63.5 193.5t-159.5 54.5q-96 0 -149.5 -48
t-53.5 -135q0 -78 39.5 -123t130.5 -75l141 -43q116 -36 168.5 -104.5t52.5 -176.5q0 -131 -83.5 -210t-229.5 -79z" />
    <glyph glyph-name="uni0458" unicode="&#x458;" horiz-adv-x="419" 
d="M53 -414q-56 0 -90 11v86q54 -7 74 -7q59 0 90 34t31 114v1200h96v-1204q0 -115 -51 -174.5t-150 -59.5zM152 1198v232h106v-232h-106z" />
    <glyph glyph-name="Wgrave" unicode="&#x1e80;" horiz-adv-x="1519" 
d="M346 0l-289 1454h105l235 -1190q10 -72 17 -153h4q8 83 20 153l262 1190h119l264 -1190q18 -127 19 -153h6q2 56 16 153l234 1190h106l-288 -1454h-138l-260 1202q-10 54 -14 131h-6q-9 -88 -17 -131l-260 -1202h-135z" />
    <glyph glyph-name="wgrave" unicode="&#x1e81;" horiz-adv-x="1220" 
d="M295 0l-244 1024h99l176 -801q19 -105 20 -114h4q5 37 23 114l186 801h103l186 -801q15 -65 22 -114h4q4 46 21 114l176 801h98l-241 -1024h-107l-190 815l-19 107h-4q-12 -74 -20 -107l-189 -815h-104z" />
    <glyph glyph-name="Wacute" unicode="&#x1e82;" horiz-adv-x="1519" 
d="M346 0l-289 1454h105l235 -1190q10 -72 17 -153h4q8 83 20 153l262 1190h119l264 -1190q18 -127 19 -153h6q2 56 16 153l234 1190h106l-288 -1454h-138l-260 1202q-10 54 -14 131h-6q-9 -88 -17 -131l-260 -1202h-135z" />
    <glyph glyph-name="wacute" unicode="&#x1e83;" horiz-adv-x="1220" 
d="M295 0l-244 1024h99l176 -801q19 -105 20 -114h4q5 37 23 114l186 801h103l186 -801q15 -65 22 -114h4q4 46 21 114l176 801h98l-241 -1024h-107l-190 815l-19 107h-4q-12 -74 -20 -107l-189 -815h-104z" />
    <glyph glyph-name="Wdieresis" unicode="&#x1e84;" horiz-adv-x="1519" 
d="M346 0l-289 1454h105l235 -1190q10 -72 17 -153h4q8 83 20 153l262 1190h119l264 -1190q18 -127 19 -153h6q2 56 16 153l234 1190h106l-288 -1454h-138l-260 1202q-10 54 -14 131h-6q-9 -88 -17 -131l-260 -1202h-135z" />
    <glyph glyph-name="wdieresis" unicode="&#x1e85;" horiz-adv-x="1220" 
d="M295 0l-244 1024h99l176 -801q19 -105 20 -114h4q5 37 23 114l186 801h103l186 -801q15 -65 22 -114h4q4 46 21 114l176 801h98l-241 -1024h-107l-190 815l-19 107h-4q-12 -74 -20 -107l-189 -815h-104z" />
    <glyph glyph-name="Ygrave" unicode="&#x1ef2;" horiz-adv-x="966" 
d="M430 0v614l-410 840h117l295 -620q38 -81 49 -119h4q10 32 50 119l294 620h117l-409 -840v-614h-107z" />
    <glyph glyph-name="ygrave" unicode="&#x1ef3;" horiz-adv-x="792" 
d="M131 -410q-21 0 -65 7v90q20 -4 55 -4q84 0 132.5 53.5t80.5 159.5l26 100l-333 1028h106l234 -770q38 -134 41 -152h2q10 42 39 144l215 778h102l-334 -1133q-49 -161 -119.5 -231t-181.5 -70z" />
    </font>
</defs>
</svg>
