<?xml version="1.0" standalone="no"?>
<!DOCTYPE svg PUBLIC "-//W3C//DTD SVG 1.1//EN" "http://www.w3.org/Graphics/SVG/1.1/DTD/svg11.dtd" >
<svg xmlns="http://www.w3.org/2000/svg" xmlns:xlink="http://www.w3.org/1999/xlink" version="1.1">
<metadata>
Created by FontForge 20201107 at Thu Jul  4 08:40:39 2024
 By 
Copyright (c) 2016 by Grilli Type. All rights reserved.
</metadata>
<defs>
<font id="GTAmericaTrial-Rg" horiz-adv-x="1169" >
  <font-face 
    font-family="GT America Trial Rg"
    font-weight="400"
    font-stretch="normal"
    units-per-em="2048"
    panose-1="0 0 0 0 0 0 0 0 0 0"
    ascent="1608"
    descent="-440"
    x-height="1024"
    cap-height="1454"
    bbox="-31 -424 2634 1522"
    underline-thickness="102"
    underline-position="-255"
    unicode-range="U+0020-1EF3"
  />
<missing-glyph horiz-adv-x="1126" 
d="M864 700v324h-61v-324h61zM102 0v1434h922v-1434h-922zM145 860q0 -72 37.5 -119t100.5 -47q65 0 88 41l8 -35h47v179h-137v-58h82v-4q0 -25 -18.5 -46t-55.5 -21q-41 0 -62.5 28t-21.5 80q0 51 21.5 82t60.5 31q49 0 63 -47l62 24q-29 80 -123 80q-72 0 -112 -47
t-40 -121zM182 569h90v-260h62v260h90v60h-242v-60zM406 309h61v101q0 71 57 71q13 0 21 -2v58q-6 2 -21 2q-42 0 -61 -43v36h-57v-223zM463 700h59v103q0 31 15 51t47 20q14 0 20 -2v56q-12 4 -22 4q-38 0 -64 -43v37h-55v-226zM557 571h66v62h-66v-62zM559 309h62v223h-62
v-223zM616 965h66v59h-66v-59zM618 700h62v226h-62v-226zM637 373q0 -32 22 -51t56 -19q51 0 71 39q0 -23 2 -33h60q-6 30 -6 43v82q0 55 -20.5 80t-73.5 25q-50 0 -76.5 -20t-28.5 -56h59q3 31 43 31q22 0 29.5 -11t7.5 -34q-62 -5 -102 -17q-43 -17 -43 -59zM698 375
q0 27 47 33l37 4v-6q0 -27 -13.5 -42.5t-35.5 -15.5q-16 0 -25.5 8t-9.5 19zM711 700h59v324h-59v-324zM874 309h60v324h-60v-324zM897 965h66v59h-66v-59zM899 700h62v226h-62v-226z" />
    <glyph glyph-name=".notdef" horiz-adv-x="1126" 
d="M864 700v324h-61v-324h61zM102 0v1434h922v-1434h-922zM145 860q0 -72 37.5 -119t100.5 -47q65 0 88 41l8 -35h47v179h-137v-58h82v-4q0 -25 -18.5 -46t-55.5 -21q-41 0 -62.5 28t-21.5 80q0 51 21.5 82t60.5 31q49 0 63 -47l62 24q-29 80 -123 80q-72 0 -112 -47
t-40 -121zM182 569h90v-260h62v260h90v60h-242v-60zM406 309h61v101q0 71 57 71q13 0 21 -2v58q-6 2 -21 2q-42 0 -61 -43v36h-57v-223zM463 700h59v103q0 31 15 51t47 20q14 0 20 -2v56q-12 4 -22 4q-38 0 -64 -43v37h-55v-226zM557 571h66v62h-66v-62zM559 309h62v223h-62
v-223zM616 965h66v59h-66v-59zM618 700h62v226h-62v-226zM637 373q0 -32 22 -51t56 -19q51 0 71 39q0 -23 2 -33h60q-6 30 -6 43v82q0 55 -20.5 80t-73.5 25q-50 0 -76.5 -20t-28.5 -56h59q3 31 43 31q22 0 29.5 -11t7.5 -34q-62 -5 -102 -17q-43 -17 -43 -59zM698 375
q0 27 47 33l37 4v-6q0 -27 -13.5 -42.5t-35.5 -15.5q-16 0 -25.5 8t-9.5 19zM711 700h59v324h-59v-324zM874 309h60v324h-60v-324zM897 965h66v59h-66v-59zM899 700h62v226h-62v-226z" />
    <glyph glyph-name=".null" horiz-adv-x="0" 
 />
    <glyph glyph-name=".null" horiz-adv-x="0" 
 />
    <glyph glyph-name="nonmarkingreturn" horiz-adv-x="682" 
 />
    <glyph glyph-name="space" unicode=" " horiz-adv-x="532" 
 />
    <glyph glyph-name="space" unicode="&#xa0;" horiz-adv-x="532" 
 />
    <glyph glyph-name="comma" unicode="," horiz-adv-x="526" 
d="M152 -197q74 33 98 73t24 118v6h-131v242h240v-228q0 -125 -39.5 -191t-144.5 -110z" />
    <glyph glyph-name="hyphen" unicode="-" horiz-adv-x="796" 
d="M102 651h592v-164h-592v164z" />
    <glyph glyph-name="period" unicode="." horiz-adv-x="526" 
d="M383 242v-242h-240v242h240z" />
    <glyph glyph-name="zero" unicode="0" horiz-adv-x="1302" 
d="M651 -31q-266 0 -407.5 197.5t-141.5 544.5q0 348 141.5 545.5t407.5 197.5t407.5 -197.5t141.5 -545.5q0 -347 -141.5 -544.5t-407.5 -197.5zM287 711q0 -277 92 -432.5t272 -155.5t272.5 155.5t92.5 432.5q0 278 -92 433.5t-273 155.5q-180 0 -272 -155.5t-92 -433.5z
" />
    <glyph glyph-name="one" unicode="1" horiz-adv-x="817" 
d="M387 1116q-30 -42 -98.5 -66t-132.5 -24h-74v166h45q106 0 184.5 60.5t104.5 170.5h155v-1423h-184v1116z" />
    <glyph glyph-name="two" unicode="2" horiz-adv-x="1107" 
d="M72 152q248 182 483 407q135 130 188.5 232.5t53.5 230.5q0 130 -68.5 201t-191.5 71q-124 0 -195.5 -69t-71.5 -187q0 -44 17 -131l-185 19q-14 57 -14 114q0 190 122.5 302t336.5 112q208 0 325 -112t117 -318q0 -149 -76.5 -286.5t-242.5 -291.5q-165 -151 -351 -280
h687v-166h-934v152z" />
    <glyph glyph-name="three" unicode="3" horiz-adv-x="1161" 
d="M575 -31q-223 0 -360 119t-143 318l180 22q6 -144 94 -224.5t236 -80.5q144 0 218 70.5t74 205.5q0 129 -80.5 197t-238.5 68h-80v151h72q139 0 208.5 64.5t69.5 181.5q0 114 -70 176.5t-196 62.5q-139 0 -214 -83.5t-75 -241.5l-172 37q0 205 126.5 323.5t344.5 118.5
q208 0 324.5 -99.5t116.5 -273.5q0 -123 -69 -210.5t-189 -116.5q307 -54 307 -351q0 -203 -130 -318.5t-354 -115.5z" />
    <glyph glyph-name="four" unicode="4" horiz-adv-x="1198" 
d="M1126 360h-233v-360h-174v360h-668v125l637 938h205v-919h233v-144zM238 504h481v522q0 143 4 217h-4q-30 -76 -103 -186l-243 -367q-77 -118 -135 -186z" />
    <glyph glyph-name="five" unicode="5" horiz-adv-x="1157" 
d="M571 -31q-188 0 -314.5 102.5t-154.5 276.5l191 23q23 -111 96 -177.5t193 -66.5q141 0 220 89.5t79 246.5q0 164 -75.5 259t-219.5 95q-223 0 -285 -237l-176 18l84 825h786v-159h-647l-53 -484q104 191 336 191q202 0 318 -133.5t116 -364.5q0 -226 -135 -365
t-359 -139z" />
    <glyph glyph-name="six" unicode="6" horiz-adv-x="1165" 
d="M614 -31q-253 0 -382.5 179.5t-129.5 531.5q0 373 138 573.5t393 200.5q178 0 290 -91t144 -261l-184 -41q-25 121 -87 180t-165 59q-336 0 -348 -557q50 99 143.5 153t216.5 54q200 0 320 -132t120 -353q0 -222 -129.5 -359t-339.5 -137zM289 508q15 -177 103.5 -281
t223.5 -104q129 0 206 92.5t77 247.5q0 154 -78.5 244t-212.5 90q-118 0 -200 -75t-119 -214z" />
    <glyph glyph-name="seven" unicode="7" horiz-adv-x="1003" 
d="M266 20q0 612 498 1233h-713v170h922v-143q-249 -277 -376.5 -599.5t-127.5 -645.5v-35h-203v20z" />
    <glyph glyph-name="eight" unicode="8" horiz-adv-x="1183" 
d="M598 -31q-233 0 -374.5 109.5t-141.5 290.5q0 291 289 379q-123 56 -179.5 137t-56.5 202q0 164 127 265.5t332 101.5q207 0 331 -98.5t124 -263.5q0 -123 -63 -206.5t-183 -121.5q158 -58 228.5 -149t70.5 -234q0 -186 -138 -299t-366 -113zM268 395q0 -126 90.5 -202
t239.5 -76q151 0 235.5 70t84.5 194q0 98 -60 161.5t-192 106.5l-136 43q-140 -49 -201 -118.5t-61 -178.5zM319 1087q0 -92 57 -150.5t185 -96.5l72 -23q128 49 179.5 109t51.5 157q0 109 -73 170.5t-203 61.5q-125 0 -197 -61t-72 -167z" />
    <glyph glyph-name="nine" unicode="9" 
d="M561 -31q-194 0 -311.5 96t-151.5 277l185 41q23 -125 89 -192.5t191 -67.5q313 0 320 590q-107 -183 -344 -183q-202 0 -329.5 120t-127.5 337q0 204 130.5 335.5t344.5 131.5q510 0 510 -715q0 -133 -17.5 -247t-56 -211.5t-96.5 -166t-143.5 -107t-192.5 -38.5z
M266 989q0 -140 80.5 -222.5t210.5 -82.5q115 0 206 76t116 192q-6 54 -18.5 101.5t-38 94t-60.5 79.5t-88 53t-119 20q-130 0 -209.5 -85.5t-79.5 -225.5z" />
    <glyph glyph-name="A" unicode="A" horiz-adv-x="1355" 
d="M31 0l551 1454h192l551 -1454h-201l-149 420h-594l-150 -420h-200zM438 584h480l-203 567q-17 48 -35 111h-4q-18 -63 -35 -111z" />
    <glyph glyph-name="B" unicode="B" horiz-adv-x="1347" 
d="M205 0v1454h506q110 0 196.5 -24t139.5 -62.5t87 -90.5t47 -103.5t13 -106.5q0 -108 -62.5 -194.5t-181.5 -120.5q132 -24 208.5 -116.5t76.5 -236.5q0 -59 -14 -113t-49.5 -107.5t-88.5 -92t-137.5 -62.5t-191.5 -24h-549zM399 164h344q82 0 142 21t93 57.5t48.5 80
t15.5 95.5q0 109 -68 175t-210 66h-365v-495zM399 823h312q290 0 290 230q0 47 -13 86t-43 75t-89.5 56t-144.5 20h-312v-467z" />
    <glyph glyph-name="C" unicode="C" horiz-adv-x="1411" 
d="M748 -35q-164 0 -292 60t-206 165.5t-118 242.5t-40 298q0 225 74.5 394.5t225.5 266.5t362 97q256 0 401 -137t174 -373l-199 -21q-22 169 -122 267t-265 98q-210 0 -328 -160.5t-118 -429.5q0 -173 50 -306t153.5 -212.5t247.5 -79.5q154 0 258 95t135 259l188 -32
q-21 -106 -65.5 -193t-114 -155t-172 -106t-229.5 -38z" />
    <glyph glyph-name="D" unicode="D" horiz-adv-x="1464" 
d="M205 0v1454h477q312 0 501 -200t189 -525q0 -158 -49 -292.5t-138.5 -231t-220 -151t-286.5 -54.5h-473zM399 164h275q152 0 265 77t169.5 204t56.5 284q0 250 -129 405.5t-358 155.5h-279v-1126z" />
    <glyph glyph-name="E" unicode="E" horiz-adv-x="1253" 
d="M399 164h721v-164h-915v1454h901v-164h-707v-463h672v-163h-672v-500z" />
    <glyph glyph-name="F" unicode="F" horiz-adv-x="1198" 
d="M399 0h-194v1454h901v-164h-707v-463h672v-163h-672v-664z" />
    <glyph glyph-name="G" unicode="G" horiz-adv-x="1486" 
d="M729 -35q-194 0 -340 99.5t-221.5 271.5t-75.5 391q0 224 77 394.5t230 269t363 98.5q96 0 178 -21t139 -57.5t101 -80.5t71.5 -95.5t43 -96.5t22.5 -89l-193 -27q-8 52 -30 100t-63 96.5t-112 77.5t-163 29q-146 0 -252 -76.5t-159.5 -211t-53.5 -312.5q0 -126 29 -233
t85.5 -188t147 -127t205.5 -46q102 0 179.5 33t120 81t69 112t34.5 114t8 100v25h-426v164h600v-760h-141l-26 233q-48 -121 -167.5 -194.5t-279.5 -73.5z" />
    <glyph glyph-name="H" unicode="H" horiz-adv-x="1531" 
d="M1327 1454v-1454h-194v662h-734v-662h-194v1454h194v-629h734v629h194z" />
    <glyph glyph-name="I" unicode="I" horiz-adv-x="604" 
d="M399 0h-194v1454h194v-1454z" />
    <glyph glyph-name="J" unicode="J" horiz-adv-x="817" 
d="M633 391q0 -95 -23.5 -168.5t-62.5 -119.5t-94.5 -75.5t-114 -41t-127.5 -11.5q-116 0 -170 15v180q57 -10 172 -10q49 0 86 10.5t70.5 36t51 76t17.5 123.5v1048h195v-1063z" />
    <glyph glyph-name="K" unicode="K" horiz-adv-x="1368" 
d="M205 0v1454h194v-721l639 721h244l-534 -582l579 -872h-227l-486 733l-215 -235v-498h-194z" />
    <glyph glyph-name="L" unicode="L" horiz-adv-x="1112" 
d="M205 0v1454h194v-1290h672v-164h-866z" />
    <glyph glyph-name="M" unicode="M" horiz-adv-x="1810" 
d="M205 0v1454h276l385 -1118q29 -83 37 -137h4q8 54 37 137l385 1118h277v-1454h-179v1122q0 86 9 156h-9q-11 -78 -43 -166l-385 -1112h-188l-385 1112q-32 88 -43 166h-8q8 -63 8 -156v-1122h-178z" />
    <glyph glyph-name="N" unicode="N" horiz-adv-x="1523" 
d="M205 0v1454h235l617 -1059q59 -103 90 -186h4q-6 77 -6 192v1053h174v-1454h-236l-616 1059q-65 114 -90 186h-4q6 -77 6 -192v-1053h-174z" />
    <glyph glyph-name="O" unicode="O" horiz-adv-x="1513" 
d="M758 -35q-303 0 -484.5 207t-181.5 555q0 354 181 558t485 204q303 0 483 -204t180 -558q0 -351 -180.5 -556.5t-482.5 -205.5zM297 727q0 -276 122 -437t339 -161t338 159t121 439q0 281 -121 439.5t-338 158.5q-218 0 -339.5 -158.5t-121.5 -439.5z" />
    <glyph glyph-name="P" unicode="P" horiz-adv-x="1275" 
d="M399 0h-194v1454h516q226 0 359.5 -116.5t133.5 -313.5t-133.5 -313.5t-359.5 -116.5h-322v-594zM399 758h301q141 0 225.5 72.5t84.5 193.5t-84.5 193.5t-225.5 72.5h-301v-532z" />
    <glyph glyph-name="Q" unicode="Q" horiz-adv-x="1513" 
d="M758 -35q-303 0 -484.5 207t-181.5 555q0 354 181 558t485 204q303 0 483 -204t180 -558q0 -271 -109 -458t-304 -261q31 -36 64.5 -58.5t68 -32t59 -12.5t57.5 -3q44 0 105 14v-170q-98 -12 -139 -12q-137 0 -236.5 62.5t-150.5 172.5q-50 -4 -78 -4zM297 727
q0 -276 122 -437t339 -161t338 159t121 439q0 281 -121 439.5t-338 158.5q-218 0 -339.5 -158.5t-121.5 -439.5z" />
    <glyph glyph-name="R" unicode="R" horiz-adv-x="1361" 
d="M205 0v1454h538q93 0 168 -16.5t126.5 -47t89 -69.5t58.5 -88t30.5 -99t9.5 -106q0 -65 -17.5 -124.5t-54.5 -114.5t-102.5 -96.5t-153.5 -61.5l373 -631h-219l-357 604h-295v-604h-194zM399 768h322q159 0 229 70.5t70 189.5q0 262 -299 262h-322v-522z" />
    <glyph glyph-name="S" unicode="S" horiz-adv-x="1277" 
d="M666 -35q-267 0 -415.5 128.5t-168.5 338.5l197 29q11 -70 37.5 -128t72.5 -106t118 -75t165 -27q62 0 117.5 13.5t103 42t75 78.5t27.5 116q0 121 -67.5 177t-208.5 85l-211 43q-365 76 -365 401q0 184 137.5 296t368.5 112q227 0 372.5 -104t166.5 -310l-195 -41
q-39 301 -348 301q-135 0 -218 -63t-83 -172q0 -105 57.5 -164t180.5 -86l213 -45q90 -19 158.5 -48t125.5 -76t87 -119.5t30 -168.5q0 -86 -32.5 -162t-96 -136t-167 -95t-234.5 -35z" />
    <glyph glyph-name="T" unicode="T" 
d="M31 1290v164h1108v-164h-457v-1290h-195v1290h-456z" />
    <glyph glyph-name="U" unicode="U" horiz-adv-x="1486" 
d="M184 1454h195v-934q0 -178 95 -280.5t269 -102.5t269.5 103t95.5 280v934h195v-946q0 -248 -147.5 -395.5t-412.5 -147.5t-412 147.5t-147 395.5v946z" />
    <glyph glyph-name="V" unicode="V" horiz-adv-x="1282" 
d="M535 0l-504 1454h205l348 -1069q36 -107 53 -197h8q17 90 53 197l349 1069h204l-503 -1454h-213z" />
    <glyph glyph-name="W" unicode="W" horiz-adv-x="1867" 
d="M397 0l-346 1454h199l252 -1171q9 -43 12 -80h6q2 17 17 80l299 1171h196l299 -1171q15 -63 17 -80h6q3 37 12 80l252 1171h199l-347 -1454h-237l-283 1135q-10 42 -12 67h-8q-2 -25 -12 -67l-283 -1135h-238z" />
    <glyph glyph-name="X" unicode="X" horiz-adv-x="1310" 
d="M31 0l508 768l-461 686h227l305 -477q31 -47 47 -86h5q10 27 47 84l303 479h215l-457 -702l510 -752h-229l-332 516q-8 13 -20.5 32t-17 25.5t-11 17.5t-10.5 19.5t-9 20.5h-4q-18 -42 -67 -115l-330 -516h-219z" />
    <glyph glyph-name="Y" unicode="Y" horiz-adv-x="1224" 
d="M514 0v580l-494 874h218l333 -616q31 -61 39 -84h4q8 23 39 84l334 616h217l-493 -874v-580h-197z" />
    <glyph glyph-name="Z" unicode="Z" horiz-adv-x="1165" 
d="M72 180l817 1110h-791v164h998v-180l-820 -1110h848v-164h-1052v180z" />
    <glyph glyph-name="a" unicode="a" horiz-adv-x="1103" 
d="M438 -25q-157 0 -251.5 82.5t-94.5 218.5q0 77 37.5 140.5t106.5 101.5q113 56 344 84l190 23v16q0 140 -53 202t-172 62q-105 0 -166.5 -53.5t-67.5 -149.5h-186q11 157 124.5 252t293.5 95q211 0 307 -101t96 -325v-277q0 -234 35 -346h-182q-14 94 -17 186
q-35 -98 -126.5 -154.5t-217.5 -56.5zM276 281q0 -75 53.5 -118.5t147.5 -43.5q134 0 214.5 89t80.5 238v52l-278 -41q-114 -17 -166 -59t-52 -117z" />
    <glyph glyph-name="b" unicode="b" horiz-adv-x="1187" 
d="M674 -25q-114 0 -199.5 54.5t-126.5 146.5l-31 -176h-133v1485h174v-639q42 91 126.5 147t199.5 56q186 0 299 -150t113 -387q0 -240 -115.5 -388.5t-306.5 -148.5zM354 481q0 -161 72.5 -256.5t200.5 -95.5q133 0 208.5 103.5t75.5 279.5q0 175 -74 279t-208 104
q-129 0 -202 -96t-73 -264v-54z" />
    <glyph glyph-name="c" unicode="c" horiz-adv-x="1077" 
d="M563 -25q-215 0 -343 145.5t-128 391.5q0 250 126 393.5t345 143.5q180 0 291 -98t131 -275l-178 -21q-13 116 -78 179t-170 63q-132 0 -207.5 -101.5t-75.5 -281.5q0 -184 76 -285.5t213 -101.5q104 0 168 62t84 182l166 -27q-28 -175 -138 -272t-282 -97z" />
    <glyph glyph-name="d" unicode="d" horiz-adv-x="1187" 
d="M508 -25q-186 0 -301 148t-115 389q0 236 122 386.5t314 150.5q204 0 301 -177v613h175v-1485h-164v190q-96 -215 -332 -215zM276 512q0 -180 74 -281.5t205 -101.5q128 0 203.5 97t75.5 261v48q0 167 -75 263.5t-204 96.5q-131 0 -205 -101t-74 -282z" />
    <glyph glyph-name="e" unicode="e" horiz-adv-x="1095" 
d="M559 -25q-221 0 -344 136.5t-123 388.5q0 257 123 403t342 146q209 0 322.5 -118.5t113.5 -346.5v-123h-727q1 -151 84.5 -241.5t220.5 -90.5q98 0 168.5 50.5t104.5 144.5l143 -64q-54 -139 -163.5 -212t-264.5 -73zM266 602h551v23q0 140 -68.5 213t-195.5 73
q-134 0 -209 -81.5t-78 -227.5z" />
    <glyph glyph-name="f" unicode="f" horiz-adv-x="710" 
d="M659 1024v-143h-256v-881h-174v881h-188v143h188v162q0 140 81.5 225.5t217.5 85.5q76 0 131 -14v-150q-62 10 -108 10q-78 0 -113 -44t-35 -138v-137h256z" />
    <glyph glyph-name="g" unicode="g" horiz-adv-x="1095" 
d="M532 -424q-130 0 -223 23t-143 64t-72 88.5t-22 105.5q0 74 43 130.5t123 82.5q-119 54 -119 178q0 74 39 126.5t106 78.5q-100 95 -100 249q0 153 102 250t277 97q109 0 200 -43q25 84 86 135t158 51q37 0 68 -8v-152q-40 8 -74 8q-118 0 -154 -96q95 -95 95 -242
q0 -153 -102 -251.5t-277 -98.5q-109 0 -197 43q-74 -31 -74 -100q0 -47 40.5 -76t129.5 -29h250q172 0 260 -74.5t88 -213.5q0 -152 -125.5 -239t-382.5 -87zM242 -113q0 -168 311 -168q90 0 153.5 13t97 37.5t48 53.5t14.5 66q0 148 -213 148h-217q-32 0 -86 4
q-53 -24 -80.5 -65t-27.5 -89zM328 702q0 -95 59 -156t156 -61t156 60t59 155t-59 155t-156 60t-156 -59t-59 -154z" />
    <glyph glyph-name="h" unicode="h" horiz-adv-x="1185" 
d="M184 0v1485h174v-654q93 218 336 218q166 0 252 -105t86 -307v-637h-174v625q0 135 -56.5 204.5t-166.5 69.5q-132 0 -204.5 -95.5t-72.5 -268.5v-535h-174z" />
    <glyph glyph-name="i" unicode="i" horiz-adv-x="542" 
d="M184 0v1024h174v-1024h-174zM172 1214v220h199v-220h-199z" />
    <glyph glyph-name="j" unicode="j" horiz-adv-x="538" 
d="M94 -414q-75 0 -125 13v149q59 -4 101 -4q60 0 85 36t25 136v1108h174v-1126q0 -312 -260 -312zM168 1214v220h199v-220h-199z" />
    <glyph glyph-name="k" unicode="k" horiz-adv-x="1099" 
d="M184 0v1485h174v-965l459 504h227l-374 -395l399 -629h-215l-309 502l-187 -189v-313h-174z" />
    <glyph glyph-name="l" unicode="l" horiz-adv-x="542" 
d="M358 1485v-1485h-174v1485h174z" />
    <glyph glyph-name="m" unicode="m" horiz-adv-x="1708" 
d="M184 1024h164v-178q86 203 293 203q106 0 181 -52.5t110 -152.5q102 205 311 205q148 0 229.5 -99t81.5 -278v-672h-174v657q0 242 -194 242q-109 0 -169.5 -77t-60.5 -216v-606h-174v666q0 112 -50 172.5t-142 60.5q-107 0 -169.5 -81t-62.5 -220v-598h-174v1024z" />
    <glyph glyph-name="n" unicode="n" horiz-adv-x="1185" 
d="M184 0v1024h164v-203q101 228 342 228q169 0 255.5 -104t86.5 -308v-637h-174v627q0 272 -225 272q-128 0 -201.5 -97t-73.5 -267v-535h-174z" />
    <glyph glyph-name="o" unicode="o" horiz-adv-x="1138" 
d="M569 -25q-218 0 -347.5 144t-129.5 393t129.5 393t347.5 144t348 -144t130 -393t-130 -393t-348 -144zM276 512q0 -188 76.5 -286.5t216.5 -98.5t216.5 98.5t76.5 286.5t-76.5 286.5t-216.5 98.5t-216.5 -98.5t-76.5 -286.5z" />
    <glyph glyph-name="p" unicode="p" horiz-adv-x="1187" 
d="M184 -399v1423h164v-190q49 105 135 160t199 55q186 0 300 -147t114 -390q0 -244 -118 -390.5t-306 -146.5q-113 0 -195.5 53.5t-118.5 133.5v-561h-174zM354 489q0 -166 74.5 -263t202.5 -97q131 0 205.5 101.5t74.5 281.5q0 181 -72.5 282t-201.5 101
q-130 0 -206.5 -95.5t-76.5 -260.5v-50z" />
    <glyph glyph-name="q" unicode="q" horiz-adv-x="1187" 
d="M829 176q-42 -93 -124 -147t-193 -54q-188 0 -304 146.5t-116 390.5q0 242 123 389.5t313 147.5q213 0 310 -187l39 162h127v-1423h-175v575zM276 512q0 -179 73.5 -281t205.5 -102q127 0 203 94.5t76 257.5v58q0 162 -75.5 259t-203.5 97q-130 0 -204.5 -100.5
t-74.5 -282.5z" />
    <glyph glyph-name="r" unicode="r" horiz-adv-x="735" 
d="M346 791q39 115 119.5 186.5t191.5 71.5q25 0 37 -2v-170h-8q-145 0 -225 -80q-35 -35 -57 -78t-31.5 -94.5t-12 -90.5t-2.5 -96v-438h-174v1024h162v-233z" />
    <glyph glyph-name="s" unicode="s" horiz-adv-x="1028" 
d="M532 -25q-183 0 -298.5 82.5t-141.5 233.5l176 31q19 -97 89 -150t182 -53q100 0 156.5 43.5t56.5 111.5q0 65 -37.5 98t-110.5 46l-201 37q-132 25 -202 97.5t-70 188.5q0 135 105.5 221.5t283.5 86.5q172 0 281.5 -74t124.5 -203l-172 -39q-18 80 -79.5 127t-162.5 47
q-99 0 -155 -41t-56 -116q0 -118 158 -146l198 -37q137 -26 202 -95t65 -183q0 -141 -104 -227.5t-288 -86.5z" />
    <glyph glyph-name="t" unicode="t" horiz-adv-x="722" 
d="M31 881v143h190v268l174 74v-342h256v-143h-256v-568q0 -88 36 -128t114 -40q40 0 106 15v-160q-67 -18 -151 -18q-81 0 -136.5 23.5t-86 68.5t-43.5 101t-13 132v574h-190z" />
    <glyph glyph-name="u" unicode="u" 
d="M504 -25q-185 0 -267.5 103t-82.5 293v653h174v-633q0 -129 54 -197.5t155 -68.5q123 0 198.5 95.5t75.5 252.5v551h174v-1024h-164v193q-36 -95 -123.5 -156.5t-193.5 -61.5z" />
    <glyph glyph-name="v" unicode="v" horiz-adv-x="968" 
d="M391 0l-371 1024h189l229 -690q28 -86 43 -156h6q15 70 43 156l230 690h188l-370 -1024h-187z" />
    <glyph glyph-name="w" unicode="w" horiz-adv-x="1499" 
d="M340 0l-289 1024h180l185 -731q13 -61 22 -121h4q4 24 15 70t12 51l186 731h189l186 -731q1 -5 12 -51t15 -70h4q9 60 22 121l185 731h180l-289 -1024h-190l-195 737q-15 63 -22 115h-4q-6 -43 -23 -115l-195 -737h-190z" />
    <glyph glyph-name="x" unicode="x" horiz-adv-x="1013" 
d="M31 0l370 528l-344 496h205l187 -289q50 -78 59 -106h2q14 36 57 106l176 289h213l-338 -508l365 -516h-207l-211 315q-49 73 -57 105h-2q-8 -27 -60 -105l-208 -315h-207z" />
    <glyph glyph-name="y" unicode="y" horiz-adv-x="997" 
d="M188 -410q-44 0 -94 9v153q27 -4 74 -4q91 0 144 44t89 145l27 75l-408 1012h195l262 -713q24 -68 35 -121h4q6 28 35 121l237 713h189l-399 -1090q-68 -187 -162 -265.5t-228 -78.5z" />
    <glyph glyph-name="z" unicode="z" horiz-adv-x="931" 
d="M72 133l559 744h-539v147h748v-129l-553 -745h583v-150h-798v133z" />
    <glyph glyph-name="ordfeminine" unicode="&#xaa;" horiz-adv-x="1103" 
d="M438 -25q-157 0 -251.5 82.5t-94.5 218.5q0 77 37.5 140.5t106.5 101.5q113 56 344 84l190 23v16q0 140 -53 202t-172 62q-105 0 -166.5 -53.5t-67.5 -149.5h-186q11 157 124.5 252t293.5 95q211 0 307 -101t96 -325v-277q0 -234 35 -346h-182q-14 94 -17 186
q-35 -98 -126.5 -154.5t-217.5 -56.5zM276 281q0 -75 53.5 -118.5t147.5 -43.5q134 0 214.5 89t80.5 238v52l-278 -41q-114 -17 -166 -59t-52 -117z" />
    <glyph glyph-name="ordmasculine" unicode="&#xba;" horiz-adv-x="1138" 
d="M569 -25q-218 0 -347.5 144t-129.5 393t129.5 393t347.5 144t348 -144t130 -393t-130 -393t-348 -144zM276 512q0 -188 76.5 -286.5t216.5 -98.5t216.5 98.5t76.5 286.5t-76.5 286.5t-216.5 98.5t-216.5 -98.5t-76.5 -286.5z" />
    <glyph glyph-name="Agrave" unicode="&#xc0;" horiz-adv-x="1355" 
d="M31 0l551 1454h192l551 -1454h-201l-149 420h-594l-150 -420h-200zM438 584h480l-203 567q-17 48 -35 111h-4q-18 -63 -35 -111z" />
    <glyph glyph-name="Aacute" unicode="&#xc1;" horiz-adv-x="1355" 
d="M31 0l551 1454h192l551 -1454h-201l-149 420h-594l-150 -420h-200zM438 584h480l-203 567q-17 48 -35 111h-4q-18 -63 -35 -111z" />
    <glyph glyph-name="Acircumflex" unicode="&#xc2;" horiz-adv-x="1355" 
d="M31 0l551 1454h192l551 -1454h-201l-149 420h-594l-150 -420h-200zM438 584h480l-203 567q-17 48 -35 111h-4q-18 -63 -35 -111z" />
    <glyph glyph-name="Atilde" unicode="&#xc3;" horiz-adv-x="1355" 
d="M31 0l551 1454h192l551 -1454h-201l-149 420h-594l-150 -420h-200zM438 584h480l-203 567q-17 48 -35 111h-4q-18 -63 -35 -111z" />
    <glyph glyph-name="Adieresis" unicode="&#xc4;" horiz-adv-x="1355" 
d="M31 0l551 1454h192l551 -1454h-201l-149 420h-594l-150 -420h-200zM438 584h480l-203 567q-17 48 -35 111h-4q-18 -63 -35 -111z" />
    <glyph glyph-name="Aring" unicode="&#xc5;" horiz-adv-x="1355" 
d="M31 0l551 1454h192l551 -1454h-201l-149 420h-594l-150 -420h-200zM438 584h480l-203 567q-17 48 -35 111h-4q-18 -63 -35 -111z" />
    <glyph glyph-name="AE" unicode="&#xc6;" horiz-adv-x="2609" 
d="M31 0l551 1454h192l551 -1454h-201l-149 420h-594l-150 -420h-200zM438 584h480l-203 567q-17 48 -35 111h-4q-18 -63 -35 -111zM1561 0v1454h901v-164h-707v-463h672v-163h-672v-500h721v-164h-915z" />
    <glyph glyph-name="Ccedilla" unicode="&#xc7;" horiz-adv-x="1411" 
d="M748 -35q-164 0 -292 60t-206 165.5t-118 242.5t-40 298q0 225 74.5 394.5t225.5 266.5t362 97q256 0 401 -137t174 -373l-199 -21q-22 169 -122 267t-265 98q-210 0 -328 -160.5t-118 -429.5q0 -173 50 -306t153.5 -212.5t247.5 -79.5q154 0 258 95t135 259l188 -32
q-21 -106 -65.5 -193t-114 -155t-172 -106t-229.5 -38z" />
    <glyph glyph-name="Egrave" unicode="&#xc8;" horiz-adv-x="1253" 
d="M399 164h721v-164h-915v1454h901v-164h-707v-463h672v-163h-672v-500z" />
    <glyph glyph-name="Eacute" unicode="&#xc9;" horiz-adv-x="1253" 
d="M399 164h721v-164h-915v1454h901v-164h-707v-463h672v-163h-672v-500z" />
    <glyph glyph-name="Ecircumflex" unicode="&#xca;" horiz-adv-x="1253" 
d="M399 164h721v-164h-915v1454h901v-164h-707v-463h672v-163h-672v-500z" />
    <glyph glyph-name="Edieresis" unicode="&#xcb;" horiz-adv-x="1253" 
d="M399 164h721v-164h-915v1454h901v-164h-707v-463h672v-163h-672v-500z" />
    <glyph glyph-name="Igrave" unicode="&#xcc;" horiz-adv-x="604" 
d="M399 0h-194v1454h194v-1454z" />
    <glyph glyph-name="Iacute" unicode="&#xcd;" horiz-adv-x="604" 
d="M399 0h-194v1454h194v-1454z" />
    <glyph glyph-name="Icircumflex" unicode="&#xce;" horiz-adv-x="604" 
d="M399 0h-194v1454h194v-1454z" />
    <glyph glyph-name="Idieresis" unicode="&#xcf;" horiz-adv-x="604" 
d="M399 0h-194v1454h194v-1454z" />
    <glyph glyph-name="Eth" unicode="&#xd0;" horiz-adv-x="1464" 
d="M205 0v1454h477q312 0 501 -200t189 -525q0 -158 -49 -292.5t-138.5 -231t-220 -151t-286.5 -54.5h-473zM399 164h275q152 0 265 77t169.5 204t56.5 284q0 250 -129 405.5t-358 155.5h-279v-1126z" />
    <glyph glyph-name="Ntilde" unicode="&#xd1;" horiz-adv-x="1523" 
d="M205 0v1454h235l617 -1059q59 -103 90 -186h4q-6 77 -6 192v1053h174v-1454h-236l-616 1059q-65 114 -90 186h-4q6 -77 6 -192v-1053h-174z" />
    <glyph glyph-name="Ograve" unicode="&#xd2;" horiz-adv-x="1513" 
d="M758 -35q-303 0 -484.5 207t-181.5 555q0 354 181 558t485 204q303 0 483 -204t180 -558q0 -351 -180.5 -556.5t-482.5 -205.5zM297 727q0 -276 122 -437t339 -161t338 159t121 439q0 281 -121 439.5t-338 158.5q-218 0 -339.5 -158.5t-121.5 -439.5z" />
    <glyph glyph-name="Oacute" unicode="&#xd3;" horiz-adv-x="1513" 
d="M758 -35q-303 0 -484.5 207t-181.5 555q0 354 181 558t485 204q303 0 483 -204t180 -558q0 -351 -180.5 -556.5t-482.5 -205.5zM297 727q0 -276 122 -437t339 -161t338 159t121 439q0 281 -121 439.5t-338 158.5q-218 0 -339.5 -158.5t-121.5 -439.5z" />
    <glyph glyph-name="Ocircumflex" unicode="&#xd4;" horiz-adv-x="1513" 
d="M758 -35q-303 0 -484.5 207t-181.5 555q0 354 181 558t485 204q303 0 483 -204t180 -558q0 -351 -180.5 -556.5t-482.5 -205.5zM297 727q0 -276 122 -437t339 -161t338 159t121 439q0 281 -121 439.5t-338 158.5q-218 0 -339.5 -158.5t-121.5 -439.5z" />
    <glyph glyph-name="Otilde" unicode="&#xd5;" horiz-adv-x="1513" 
d="M758 -35q-303 0 -484.5 207t-181.5 555q0 354 181 558t485 204q303 0 483 -204t180 -558q0 -351 -180.5 -556.5t-482.5 -205.5zM297 727q0 -276 122 -437t339 -161t338 159t121 439q0 281 -121 439.5t-338 158.5q-218 0 -339.5 -158.5t-121.5 -439.5z" />
    <glyph glyph-name="Odieresis" unicode="&#xd6;" horiz-adv-x="1513" 
d="M758 -35q-303 0 -484.5 207t-181.5 555q0 354 181 558t485 204q303 0 483 -204t180 -558q0 -351 -180.5 -556.5t-482.5 -205.5zM297 727q0 -276 122 -437t339 -161t338 159t121 439q0 281 -121 439.5t-338 158.5q-218 0 -339.5 -158.5t-121.5 -439.5z" />
    <glyph glyph-name="Oslash" unicode="&#xd8;" horiz-adv-x="1513" 
d="M758 -35q-303 0 -484.5 207t-181.5 555q0 354 181 558t485 204q303 0 483 -204t180 -558q0 -351 -180.5 -556.5t-482.5 -205.5zM297 727q0 -276 122 -437t339 -161t338 159t121 439q0 281 -121 439.5t-338 158.5q-218 0 -339.5 -158.5t-121.5 -439.5z" />
    <glyph glyph-name="Ugrave" unicode="&#xd9;" horiz-adv-x="1486" 
d="M184 1454h195v-934q0 -178 95 -280.5t269 -102.5t269.5 103t95.5 280v934h195v-946q0 -248 -147.5 -395.5t-412.5 -147.5t-412 147.5t-147 395.5v946z" />
    <glyph glyph-name="Uacute" unicode="&#xda;" horiz-adv-x="1486" 
d="M184 1454h195v-934q0 -178 95 -280.5t269 -102.5t269.5 103t95.5 280v934h195v-946q0 -248 -147.5 -395.5t-412.5 -147.5t-412 147.5t-147 395.5v946z" />
    <glyph glyph-name="Ucircumflex" unicode="&#xdb;" horiz-adv-x="1486" 
d="M184 1454h195v-934q0 -178 95 -280.5t269 -102.5t269.5 103t95.5 280v934h195v-946q0 -248 -147.5 -395.5t-412.5 -147.5t-412 147.5t-147 395.5v946z" />
    <glyph glyph-name="Udieresis" unicode="&#xdc;" horiz-adv-x="1486" 
d="M184 1454h195v-934q0 -178 95 -280.5t269 -102.5t269.5 103t95.5 280v934h195v-946q0 -248 -147.5 -395.5t-412.5 -147.5t-412 147.5t-147 395.5v946z" />
    <glyph glyph-name="Yacute" unicode="&#xdd;" horiz-adv-x="1224" 
d="M514 0v580l-494 874h218l333 -616q31 -61 39 -84h4q8 23 39 84l334 616h217l-493 -874v-580h-197z" />
    <glyph glyph-name="Thorn" unicode="&#xde;" horiz-adv-x="1275" 
d="M399 0h-194v1454h516q226 0 359.5 -116.5t133.5 -313.5t-133.5 -313.5t-359.5 -116.5h-322v-594zM399 758h301q141 0 225.5 72.5t84.5 193.5t-84.5 193.5t-225.5 72.5h-301v-532z" />
    <glyph glyph-name="agrave" unicode="&#xe0;" horiz-adv-x="1103" 
d="M438 -25q-157 0 -251.5 82.5t-94.5 218.5q0 77 37.5 140.5t106.5 101.5q113 56 344 84l190 23v16q0 140 -53 202t-172 62q-105 0 -166.5 -53.5t-67.5 -149.5h-186q11 157 124.5 252t293.5 95q211 0 307 -101t96 -325v-277q0 -234 35 -346h-182q-14 94 -17 186
q-35 -98 -126.5 -154.5t-217.5 -56.5zM276 281q0 -75 53.5 -118.5t147.5 -43.5q134 0 214.5 89t80.5 238v52l-278 -41q-114 -17 -166 -59t-52 -117z" />
    <glyph glyph-name="aacute" unicode="&#xe1;" horiz-adv-x="1103" 
d="M438 -25q-157 0 -251.5 82.5t-94.5 218.5q0 77 37.5 140.5t106.5 101.5q113 56 344 84l190 23v16q0 140 -53 202t-172 62q-105 0 -166.5 -53.5t-67.5 -149.5h-186q11 157 124.5 252t293.5 95q211 0 307 -101t96 -325v-277q0 -234 35 -346h-182q-14 94 -17 186
q-35 -98 -126.5 -154.5t-217.5 -56.5zM276 281q0 -75 53.5 -118.5t147.5 -43.5q134 0 214.5 89t80.5 238v52l-278 -41q-114 -17 -166 -59t-52 -117z" />
    <glyph glyph-name="acircumflex" unicode="&#xe2;" horiz-adv-x="1103" 
d="M438 -25q-157 0 -251.5 82.5t-94.5 218.5q0 77 37.5 140.5t106.5 101.5q113 56 344 84l190 23v16q0 140 -53 202t-172 62q-105 0 -166.5 -53.5t-67.5 -149.5h-186q11 157 124.5 252t293.5 95q211 0 307 -101t96 -325v-277q0 -234 35 -346h-182q-14 94 -17 186
q-35 -98 -126.5 -154.5t-217.5 -56.5zM276 281q0 -75 53.5 -118.5t147.5 -43.5q134 0 214.5 89t80.5 238v52l-278 -41q-114 -17 -166 -59t-52 -117z" />
    <glyph glyph-name="atilde" unicode="&#xe3;" horiz-adv-x="1103" 
d="M438 -25q-157 0 -251.5 82.5t-94.5 218.5q0 77 37.5 140.5t106.5 101.5q113 56 344 84l190 23v16q0 140 -53 202t-172 62q-105 0 -166.5 -53.5t-67.5 -149.5h-186q11 157 124.5 252t293.5 95q211 0 307 -101t96 -325v-277q0 -234 35 -346h-182q-14 94 -17 186
q-35 -98 -126.5 -154.5t-217.5 -56.5zM276 281q0 -75 53.5 -118.5t147.5 -43.5q134 0 214.5 89t80.5 238v52l-278 -41q-114 -17 -166 -59t-52 -117z" />
    <glyph glyph-name="adieresis" unicode="&#xe4;" horiz-adv-x="1103" 
d="M438 -25q-157 0 -251.5 82.5t-94.5 218.5q0 77 37.5 140.5t106.5 101.5q113 56 344 84l190 23v16q0 140 -53 202t-172 62q-105 0 -166.5 -53.5t-67.5 -149.5h-186q11 157 124.5 252t293.5 95q211 0 307 -101t96 -325v-277q0 -234 35 -346h-182q-14 94 -17 186
q-35 -98 -126.5 -154.5t-217.5 -56.5zM276 281q0 -75 53.5 -118.5t147.5 -43.5q134 0 214.5 89t80.5 238v52l-278 -41q-114 -17 -166 -59t-52 -117z" />
    <glyph glyph-name="aring" unicode="&#xe5;" horiz-adv-x="1103" 
d="M438 -25q-157 0 -251.5 82.5t-94.5 218.5q0 77 37.5 140.5t106.5 101.5q113 56 344 84l190 23v16q0 140 -53 202t-172 62q-105 0 -166.5 -53.5t-67.5 -149.5h-186q11 157 124.5 252t293.5 95q211 0 307 -101t96 -325v-277q0 -234 35 -346h-182q-14 94 -17 186
q-35 -98 -126.5 -154.5t-217.5 -56.5zM276 281q0 -75 53.5 -118.5t147.5 -43.5q134 0 214.5 89t80.5 238v52l-278 -41q-114 -17 -166 -59t-52 -117z" />
    <glyph glyph-name="ae" unicode="&#xe6;" horiz-adv-x="2189" 
d="M438 -25q-157 0 -251.5 82.5t-94.5 218.5q0 77 37.5 140.5t106.5 101.5q113 56 344 84l190 23v16q0 140 -53 202t-172 62q-105 0 -166.5 -53.5t-67.5 -149.5h-186q11 157 124.5 252t293.5 95q211 0 307 -101t96 -325v-277q0 -234 35 -346h-182q-14 94 -17 186
q-35 -98 -126.5 -154.5t-217.5 -56.5zM276 281q0 -75 53.5 -118.5t147.5 -43.5q134 0 214.5 89t80.5 238v52l-278 -41q-114 -17 -166 -59t-52 -117zM1186 500q0 257 123 403t342 146q209 0 322.5 -118.5t113.5 -346.5v-123h-727q1 -151 84.5 -241.5t220.5 -90.5
q98 0 168 50.5t104 144.5l144 -64q-54 -139 -163.5 -212t-264.5 -73q-221 0 -344 136.5t-123 388.5zM1360 602h551v23q0 140 -68.5 213t-195.5 73q-134 0 -209 -81.5t-78 -227.5z" />
    <glyph glyph-name="ccedilla" unicode="&#xe7;" horiz-adv-x="1077" 
d="M563 -25q-215 0 -343 145.5t-128 391.5q0 250 126 393.5t345 143.5q180 0 291 -98t131 -275l-178 -21q-13 116 -78 179t-170 63q-132 0 -207.5 -101.5t-75.5 -281.5q0 -184 76 -285.5t213 -101.5q104 0 168 62t84 182l166 -27q-28 -175 -138 -272t-282 -97z" />
    <glyph glyph-name="egrave" unicode="&#xe8;" horiz-adv-x="1095" 
d="M559 -25q-221 0 -344 136.5t-123 388.5q0 257 123 403t342 146q209 0 322.5 -118.5t113.5 -346.5v-123h-727q1 -151 84.5 -241.5t220.5 -90.5q98 0 168.5 50.5t104.5 144.5l143 -64q-54 -139 -163.5 -212t-264.5 -73zM266 602h551v23q0 140 -68.5 213t-195.5 73
q-134 0 -209 -81.5t-78 -227.5z" />
    <glyph glyph-name="eacute" unicode="&#xe9;" horiz-adv-x="1095" 
d="M559 -25q-221 0 -344 136.5t-123 388.5q0 257 123 403t342 146q209 0 322.5 -118.5t113.5 -346.5v-123h-727q1 -151 84.5 -241.5t220.5 -90.5q98 0 168.5 50.5t104.5 144.5l143 -64q-54 -139 -163.5 -212t-264.5 -73zM266 602h551v23q0 140 -68.5 213t-195.5 73
q-134 0 -209 -81.5t-78 -227.5z" />
    <glyph glyph-name="ecircumflex" unicode="&#xea;" horiz-adv-x="1095" 
d="M559 -25q-221 0 -344 136.5t-123 388.5q0 257 123 403t342 146q209 0 322.5 -118.5t113.5 -346.5v-123h-727q1 -151 84.5 -241.5t220.5 -90.5q98 0 168.5 50.5t104.5 144.5l143 -64q-54 -139 -163.5 -212t-264.5 -73zM266 602h551v23q0 140 -68.5 213t-195.5 73
q-134 0 -209 -81.5t-78 -227.5z" />
    <glyph glyph-name="edieresis" unicode="&#xeb;" horiz-adv-x="1095" 
d="M559 -25q-221 0 -344 136.5t-123 388.5q0 257 123 403t342 146q209 0 322.5 -118.5t113.5 -346.5v-123h-727q1 -151 84.5 -241.5t220.5 -90.5q98 0 168.5 50.5t104.5 144.5l143 -64q-54 -139 -163.5 -212t-264.5 -73zM266 602h551v23q0 140 -68.5 213t-195.5 73
q-134 0 -209 -81.5t-78 -227.5z" />
    <glyph glyph-name="igrave" unicode="&#xec;" horiz-adv-x="542" 
d="M184 0v1024h174v-1024h-174zM172 1214v220h199v-220h-199z" />
    <glyph glyph-name="iacute" unicode="&#xed;" horiz-adv-x="542" 
d="M184 0v1024h174v-1024h-174zM172 1214v220h199v-220h-199z" />
    <glyph glyph-name="icircumflex" unicode="&#xee;" horiz-adv-x="542" 
d="M184 0v1024h174v-1024h-174zM172 1214v220h199v-220h-199z" />
    <glyph glyph-name="idieresis" unicode="&#xef;" horiz-adv-x="542" 
d="M184 0v1024h174v-1024h-174zM172 1214v220h199v-220h-199z" />
    <glyph glyph-name="ntilde" unicode="&#xf1;" horiz-adv-x="1185" 
d="M184 0v1024h164v-203q101 228 342 228q169 0 255.5 -104t86.5 -308v-637h-174v627q0 272 -225 272q-128 0 -201.5 -97t-73.5 -267v-535h-174z" />
    <glyph glyph-name="ograve" unicode="&#xf2;" horiz-adv-x="1138" 
d="M569 -25q-218 0 -347.5 144t-129.5 393t129.5 393t347.5 144t348 -144t130 -393t-130 -393t-348 -144zM276 512q0 -188 76.5 -286.5t216.5 -98.5t216.5 98.5t76.5 286.5t-76.5 286.5t-216.5 98.5t-216.5 -98.5t-76.5 -286.5z" />
    <glyph glyph-name="oacute" unicode="&#xf3;" horiz-adv-x="1138" 
d="M569 -25q-218 0 -347.5 144t-129.5 393t129.5 393t347.5 144t348 -144t130 -393t-130 -393t-348 -144zM276 512q0 -188 76.5 -286.5t216.5 -98.5t216.5 98.5t76.5 286.5t-76.5 286.5t-216.5 98.5t-216.5 -98.5t-76.5 -286.5z" />
    <glyph glyph-name="ocircumflex" unicode="&#xf4;" horiz-adv-x="1138" 
d="M569 -25q-218 0 -347.5 144t-129.5 393t129.5 393t347.5 144t348 -144t130 -393t-130 -393t-348 -144zM276 512q0 -188 76.5 -286.5t216.5 -98.5t216.5 98.5t76.5 286.5t-76.5 286.5t-216.5 98.5t-216.5 -98.5t-76.5 -286.5z" />
    <glyph glyph-name="otilde" unicode="&#xf5;" horiz-adv-x="1138" 
d="M569 -25q-218 0 -347.5 144t-129.5 393t129.5 393t347.5 144t348 -144t130 -393t-130 -393t-348 -144zM276 512q0 -188 76.5 -286.5t216.5 -98.5t216.5 98.5t76.5 286.5t-76.5 286.5t-216.5 98.5t-216.5 -98.5t-76.5 -286.5z" />
    <glyph glyph-name="odieresis" unicode="&#xf6;" horiz-adv-x="1138" 
d="M569 -25q-218 0 -347.5 144t-129.5 393t129.5 393t347.5 144t348 -144t130 -393t-130 -393t-348 -144zM276 512q0 -188 76.5 -286.5t216.5 -98.5t216.5 98.5t76.5 286.5t-76.5 286.5t-216.5 98.5t-216.5 -98.5t-76.5 -286.5z" />
    <glyph glyph-name="oslash" unicode="&#xf8;" horiz-adv-x="1138" 
d="M569 -25q-218 0 -347.5 144t-129.5 393t129.5 393t347.5 144t348 -144t130 -393t-130 -393t-348 -144zM276 512q0 -188 76.5 -286.5t216.5 -98.5t216.5 98.5t76.5 286.5t-76.5 286.5t-216.5 98.5t-216.5 -98.5t-76.5 -286.5z" />
    <glyph glyph-name="ugrave" unicode="&#xf9;" 
d="M504 -25q-185 0 -267.5 103t-82.5 293v653h174v-633q0 -129 54 -197.5t155 -68.5q123 0 198.5 95.5t75.5 252.5v551h174v-1024h-164v193q-36 -95 -123.5 -156.5t-193.5 -61.5z" />
    <glyph glyph-name="uacute" unicode="&#xfa;" 
d="M504 -25q-185 0 -267.5 103t-82.5 293v653h174v-633q0 -129 54 -197.5t155 -68.5q123 0 198.5 95.5t75.5 252.5v551h174v-1024h-164v193q-36 -95 -123.5 -156.5t-193.5 -61.5z" />
    <glyph glyph-name="ucircumflex" unicode="&#xfb;" 
d="M504 -25q-185 0 -267.5 103t-82.5 293v653h174v-633q0 -129 54 -197.5t155 -68.5q123 0 198.5 95.5t75.5 252.5v551h174v-1024h-164v193q-36 -95 -123.5 -156.5t-193.5 -61.5z" />
    <glyph glyph-name="udieresis" unicode="&#xfc;" 
d="M504 -25q-185 0 -267.5 103t-82.5 293v653h174v-633q0 -129 54 -197.5t155 -68.5q123 0 198.5 95.5t75.5 252.5v551h174v-1024h-164v193q-36 -95 -123.5 -156.5t-193.5 -61.5z" />
    <glyph glyph-name="yacute" unicode="&#xfd;" horiz-adv-x="997" 
d="M188 -410q-44 0 -94 9v153q27 -4 74 -4q91 0 144 44t89 145l27 75l-408 1012h195l262 -713q24 -68 35 -121h4q6 28 35 121l237 713h189l-399 -1090q-68 -187 -162 -265.5t-228 -78.5z" />
    <glyph glyph-name="thorn" unicode="&#xfe;" horiz-adv-x="1187" 
d="M184 -399v1423h164v-190q49 105 135 160t199 55q186 0 300 -147t114 -390q0 -244 -118 -390.5t-306 -146.5q-113 0 -195.5 53.5t-118.5 133.5v-561h-174zM354 489q0 -166 74.5 -263t202.5 -97q131 0 205.5 101.5t74.5 281.5q0 181 -72.5 282t-201.5 101
q-130 0 -206.5 -95.5t-76.5 -260.5v-50z" />
    <glyph glyph-name="ydieresis" unicode="&#xff;" horiz-adv-x="997" 
d="M188 -410q-44 0 -94 9v153q27 -4 74 -4q91 0 144 44t89 145l27 75l-408 1012h195l262 -713q24 -68 35 -121h4q6 28 35 121l237 713h189l-399 -1090q-68 -187 -162 -265.5t-228 -78.5z" />
    <glyph glyph-name="Amacron" unicode="&#x100;" horiz-adv-x="1355" 
d="M31 0l551 1454h192l551 -1454h-201l-149 420h-594l-150 -420h-200zM438 584h480l-203 567q-17 48 -35 111h-4q-18 -63 -35 -111z" />
    <glyph glyph-name="amacron" unicode="&#x101;" horiz-adv-x="1103" 
d="M438 -25q-157 0 -251.5 82.5t-94.5 218.5q0 77 37.5 140.5t106.5 101.5q113 56 344 84l190 23v16q0 140 -53 202t-172 62q-105 0 -166.5 -53.5t-67.5 -149.5h-186q11 157 124.5 252t293.5 95q211 0 307 -101t96 -325v-277q0 -234 35 -346h-182q-14 94 -17 186
q-35 -98 -126.5 -154.5t-217.5 -56.5zM276 281q0 -75 53.5 -118.5t147.5 -43.5q134 0 214.5 89t80.5 238v52l-278 -41q-114 -17 -166 -59t-52 -117z" />
    <glyph glyph-name="Abreve" unicode="&#x102;" horiz-adv-x="1355" 
d="M31 0l551 1454h192l551 -1454h-201l-149 420h-594l-150 -420h-200zM438 584h480l-203 567q-17 48 -35 111h-4q-18 -63 -35 -111z" />
    <glyph glyph-name="abreve" unicode="&#x103;" horiz-adv-x="1103" 
d="M438 -25q-157 0 -251.5 82.5t-94.5 218.5q0 77 37.5 140.5t106.5 101.5q113 56 344 84l190 23v16q0 140 -53 202t-172 62q-105 0 -166.5 -53.5t-67.5 -149.5h-186q11 157 124.5 252t293.5 95q211 0 307 -101t96 -325v-277q0 -234 35 -346h-182q-14 94 -17 186
q-35 -98 -126.5 -154.5t-217.5 -56.5zM276 281q0 -75 53.5 -118.5t147.5 -43.5q134 0 214.5 89t80.5 238v52l-278 -41q-114 -17 -166 -59t-52 -117z" />
    <glyph glyph-name="Aogonek" unicode="&#x104;" horiz-adv-x="1355" 
d="M31 0l551 1454h192l551 -1454h-201l-149 420h-594l-150 -420h-200zM438 584h480l-203 567q-17 48 -35 111h-4q-18 -63 -35 -111z" />
    <glyph glyph-name="aogonek" unicode="&#x105;" horiz-adv-x="1103" 
d="M438 -25q-157 0 -251.5 82.5t-94.5 218.5q0 77 37.5 140.5t106.5 101.5q113 56 344 84l190 23v16q0 140 -53 202t-172 62q-105 0 -166.5 -53.5t-67.5 -149.5h-186q11 157 124.5 252t293.5 95q211 0 307 -101t96 -325v-277q0 -234 35 -346h-182q-14 94 -17 186
q-35 -98 -126.5 -154.5t-217.5 -56.5zM276 281q0 -75 53.5 -118.5t147.5 -43.5q134 0 214.5 89t80.5 238v52l-278 -41q-114 -17 -166 -59t-52 -117z" />
    <glyph glyph-name="Cacute" unicode="&#x106;" horiz-adv-x="1411" 
d="M748 -35q-164 0 -292 60t-206 165.5t-118 242.5t-40 298q0 225 74.5 394.5t225.5 266.5t362 97q256 0 401 -137t174 -373l-199 -21q-22 169 -122 267t-265 98q-210 0 -328 -160.5t-118 -429.5q0 -173 50 -306t153.5 -212.5t247.5 -79.5q154 0 258 95t135 259l188 -32
q-21 -106 -65.5 -193t-114 -155t-172 -106t-229.5 -38z" />
    <glyph glyph-name="cacute" unicode="&#x107;" horiz-adv-x="1077" 
d="M563 -25q-215 0 -343 145.5t-128 391.5q0 250 126 393.5t345 143.5q180 0 291 -98t131 -275l-178 -21q-13 116 -78 179t-170 63q-132 0 -207.5 -101.5t-75.5 -281.5q0 -184 76 -285.5t213 -101.5q104 0 168 62t84 182l166 -27q-28 -175 -138 -272t-282 -97z" />
    <glyph glyph-name="Ccircumflex" unicode="&#x108;" horiz-adv-x="1411" 
d="M748 -35q-164 0 -292 60t-206 165.5t-118 242.5t-40 298q0 225 74.5 394.5t225.5 266.5t362 97q256 0 401 -137t174 -373l-199 -21q-22 169 -122 267t-265 98q-210 0 -328 -160.5t-118 -429.5q0 -173 50 -306t153.5 -212.5t247.5 -79.5q154 0 258 95t135 259l188 -32
q-21 -106 -65.5 -193t-114 -155t-172 -106t-229.5 -38z" />
    <glyph glyph-name="ccircumflex" unicode="&#x109;" horiz-adv-x="1077" 
d="M563 -25q-215 0 -343 145.5t-128 391.5q0 250 126 393.5t345 143.5q180 0 291 -98t131 -275l-178 -21q-13 116 -78 179t-170 63q-132 0 -207.5 -101.5t-75.5 -281.5q0 -184 76 -285.5t213 -101.5q104 0 168 62t84 182l166 -27q-28 -175 -138 -272t-282 -97z" />
    <glyph glyph-name="Cdotaccent" unicode="&#x10a;" horiz-adv-x="1411" 
d="M748 -35q-164 0 -292 60t-206 165.5t-118 242.5t-40 298q0 225 74.5 394.5t225.5 266.5t362 97q256 0 401 -137t174 -373l-199 -21q-22 169 -122 267t-265 98q-210 0 -328 -160.5t-118 -429.5q0 -173 50 -306t153.5 -212.5t247.5 -79.5q154 0 258 95t135 259l188 -32
q-21 -106 -65.5 -193t-114 -155t-172 -106t-229.5 -38z" />
    <glyph glyph-name="cdotaccent" unicode="&#x10b;" horiz-adv-x="1077" 
d="M563 -25q-215 0 -343 145.5t-128 391.5q0 250 126 393.5t345 143.5q180 0 291 -98t131 -275l-178 -21q-13 116 -78 179t-170 63q-132 0 -207.5 -101.5t-75.5 -281.5q0 -184 76 -285.5t213 -101.5q104 0 168 62t84 182l166 -27q-28 -175 -138 -272t-282 -97z" />
    <glyph glyph-name="Ccaron" unicode="&#x10c;" horiz-adv-x="1411" 
d="M748 -35q-164 0 -292 60t-206 165.5t-118 242.5t-40 298q0 225 74.5 394.5t225.5 266.5t362 97q256 0 401 -137t174 -373l-199 -21q-22 169 -122 267t-265 98q-210 0 -328 -160.5t-118 -429.5q0 -173 50 -306t153.5 -212.5t247.5 -79.5q154 0 258 95t135 259l188 -32
q-21 -106 -65.5 -193t-114 -155t-172 -106t-229.5 -38z" />
    <glyph glyph-name="ccaron" unicode="&#x10d;" horiz-adv-x="1077" 
d="M563 -25q-215 0 -343 145.5t-128 391.5q0 250 126 393.5t345 143.5q180 0 291 -98t131 -275l-178 -21q-13 116 -78 179t-170 63q-132 0 -207.5 -101.5t-75.5 -281.5q0 -184 76 -285.5t213 -101.5q104 0 168 62t84 182l166 -27q-28 -175 -138 -272t-282 -97z" />
    <glyph glyph-name="Dcaron" unicode="&#x10e;" horiz-adv-x="1464" 
d="M205 0v1454h477q312 0 501 -200t189 -525q0 -158 -49 -292.5t-138.5 -231t-220 -151t-286.5 -54.5h-473zM399 164h275q152 0 265 77t169.5 204t56.5 284q0 250 -129 405.5t-358 155.5h-279v-1126z" />
    <glyph glyph-name="dcaron" unicode="&#x10f;" horiz-adv-x="1187" 
d="M508 -25q-186 0 -301 148t-115 389q0 236 122 386.5t314 150.5q204 0 301 -177v613h175v-1485h-164v190q-96 -215 -332 -215zM276 512q0 -180 74 -281.5t205 -101.5q128 0 203.5 97t75.5 261v48q0 167 -75 263.5t-204 96.5q-131 0 -205 -101t-74 -282z" />
    <glyph glyph-name="Dcroat" unicode="&#x110;" horiz-adv-x="1464" 
d="M205 0v1454h477q312 0 501 -200t189 -525q0 -158 -49 -292.5t-138.5 -231t-220 -151t-286.5 -54.5h-473zM399 164h275q152 0 265 77t169.5 204t56.5 284q0 250 -129 405.5t-358 155.5h-279v-1126z" />
    <glyph glyph-name="dcroat" unicode="&#x111;" horiz-adv-x="1187" 
d="M508 -25q-186 0 -301 148t-115 389q0 236 122 386.5t314 150.5q204 0 301 -177v613h175v-1485h-164v190q-96 -215 -332 -215zM276 512q0 -180 74 -281.5t205 -101.5q128 0 203.5 97t75.5 261v48q0 167 -75 263.5t-204 96.5q-131 0 -205 -101t-74 -282z" />
    <glyph glyph-name="Emacron" unicode="&#x112;" horiz-adv-x="1253" 
d="M399 164h721v-164h-915v1454h901v-164h-707v-463h672v-163h-672v-500z" />
    <glyph glyph-name="emacron" unicode="&#x113;" horiz-adv-x="1095" 
d="M559 -25q-221 0 -344 136.5t-123 388.5q0 257 123 403t342 146q209 0 322.5 -118.5t113.5 -346.5v-123h-727q1 -151 84.5 -241.5t220.5 -90.5q98 0 168.5 50.5t104.5 144.5l143 -64q-54 -139 -163.5 -212t-264.5 -73zM266 602h551v23q0 140 -68.5 213t-195.5 73
q-134 0 -209 -81.5t-78 -227.5z" />
    <glyph glyph-name="Ebreve" unicode="&#x114;" horiz-adv-x="1253" 
d="M399 164h721v-164h-915v1454h901v-164h-707v-463h672v-163h-672v-500z" />
    <glyph glyph-name="ebreve" unicode="&#x115;" horiz-adv-x="1095" 
d="M559 -25q-221 0 -344 136.5t-123 388.5q0 257 123 403t342 146q209 0 322.5 -118.5t113.5 -346.5v-123h-727q1 -151 84.5 -241.5t220.5 -90.5q98 0 168.5 50.5t104.5 144.5l143 -64q-54 -139 -163.5 -212t-264.5 -73zM266 602h551v23q0 140 -68.5 213t-195.5 73
q-134 0 -209 -81.5t-78 -227.5z" />
    <glyph glyph-name="Edotaccent" unicode="&#x116;" horiz-adv-x="1253" 
d="M399 164h721v-164h-915v1454h901v-164h-707v-463h672v-163h-672v-500z" />
    <glyph glyph-name="edotaccent" unicode="&#x117;" horiz-adv-x="1095" 
d="M559 -25q-221 0 -344 136.5t-123 388.5q0 257 123 403t342 146q209 0 322.5 -118.5t113.5 -346.5v-123h-727q1 -151 84.5 -241.5t220.5 -90.5q98 0 168.5 50.5t104.5 144.5l143 -64q-54 -139 -163.5 -212t-264.5 -73zM266 602h551v23q0 140 -68.5 213t-195.5 73
q-134 0 -209 -81.5t-78 -227.5z" />
    <glyph glyph-name="Eogonek" unicode="&#x118;" horiz-adv-x="1253" 
d="M399 164h721v-164h-915v1454h901v-164h-707v-463h672v-163h-672v-500z" />
    <glyph glyph-name="eogonek" unicode="&#x119;" horiz-adv-x="1095" 
d="M559 -25q-221 0 -344 136.5t-123 388.5q0 257 123 403t342 146q209 0 322.5 -118.5t113.5 -346.5v-123h-727q1 -151 84.5 -241.5t220.5 -90.5q98 0 168.5 50.5t104.5 144.5l143 -64q-54 -139 -163.5 -212t-264.5 -73zM266 602h551v23q0 140 -68.5 213t-195.5 73
q-134 0 -209 -81.5t-78 -227.5z" />
    <glyph glyph-name="Ecaron" unicode="&#x11a;" horiz-adv-x="1253" 
d="M399 164h721v-164h-915v1454h901v-164h-707v-463h672v-163h-672v-500z" />
    <glyph glyph-name="ecaron" unicode="&#x11b;" horiz-adv-x="1095" 
d="M559 -25q-221 0 -344 136.5t-123 388.5q0 257 123 403t342 146q209 0 322.5 -118.5t113.5 -346.5v-123h-727q1 -151 84.5 -241.5t220.5 -90.5q98 0 168.5 50.5t104.5 144.5l143 -64q-54 -139 -163.5 -212t-264.5 -73zM266 602h551v23q0 140 -68.5 213t-195.5 73
q-134 0 -209 -81.5t-78 -227.5z" />
    <glyph glyph-name="Gcircumflex" unicode="&#x11c;" horiz-adv-x="1486" 
d="M729 -35q-194 0 -340 99.5t-221.5 271.5t-75.5 391q0 224 77 394.5t230 269t363 98.5q96 0 178 -21t139 -57.5t101 -80.5t71.5 -95.5t43 -96.5t22.5 -89l-193 -27q-8 52 -30 100t-63 96.5t-112 77.5t-163 29q-146 0 -252 -76.5t-159.5 -211t-53.5 -312.5q0 -126 29 -233
t85.5 -188t147 -127t205.5 -46q102 0 179.5 33t120 81t69 112t34.5 114t8 100v25h-426v164h600v-760h-141l-26 233q-48 -121 -167.5 -194.5t-279.5 -73.5z" />
    <glyph glyph-name="gcircumflex" unicode="&#x11d;" horiz-adv-x="1095" 
d="M532 -424q-130 0 -223 23t-143 64t-72 88.5t-22 105.5q0 74 43 130.5t123 82.5q-119 54 -119 178q0 74 39 126.5t106 78.5q-100 95 -100 249q0 153 102 250t277 97q109 0 200 -43q25 84 86 135t158 51q37 0 68 -8v-152q-40 8 -74 8q-118 0 -154 -96q95 -95 95 -242
q0 -153 -102 -251.5t-277 -98.5q-109 0 -197 43q-74 -31 -74 -100q0 -47 40.5 -76t129.5 -29h250q172 0 260 -74.5t88 -213.5q0 -152 -125.5 -239t-382.5 -87zM242 -113q0 -168 311 -168q90 0 153.5 13t97 37.5t48 53.5t14.5 66q0 148 -213 148h-217q-32 0 -86 4
q-53 -24 -80.5 -65t-27.5 -89zM328 702q0 -95 59 -156t156 -61t156 60t59 155t-59 155t-156 60t-156 -59t-59 -154z" />
    <glyph glyph-name="Gbreve" unicode="&#x11e;" horiz-adv-x="1486" 
d="M729 -35q-194 0 -340 99.5t-221.5 271.5t-75.5 391q0 224 77 394.5t230 269t363 98.5q96 0 178 -21t139 -57.5t101 -80.5t71.5 -95.5t43 -96.5t22.5 -89l-193 -27q-8 52 -30 100t-63 96.5t-112 77.5t-163 29q-146 0 -252 -76.5t-159.5 -211t-53.5 -312.5q0 -126 29 -233
t85.5 -188t147 -127t205.5 -46q102 0 179.5 33t120 81t69 112t34.5 114t8 100v25h-426v164h600v-760h-141l-26 233q-48 -121 -167.5 -194.5t-279.5 -73.5z" />
    <glyph glyph-name="gbreve" unicode="&#x11f;" horiz-adv-x="1095" 
d="M532 -424q-130 0 -223 23t-143 64t-72 88.5t-22 105.5q0 74 43 130.5t123 82.5q-119 54 -119 178q0 74 39 126.5t106 78.5q-100 95 -100 249q0 153 102 250t277 97q109 0 200 -43q25 84 86 135t158 51q37 0 68 -8v-152q-40 8 -74 8q-118 0 -154 -96q95 -95 95 -242
q0 -153 -102 -251.5t-277 -98.5q-109 0 -197 43q-74 -31 -74 -100q0 -47 40.5 -76t129.5 -29h250q172 0 260 -74.5t88 -213.5q0 -152 -125.5 -239t-382.5 -87zM242 -113q0 -168 311 -168q90 0 153.5 13t97 37.5t48 53.5t14.5 66q0 148 -213 148h-217q-32 0 -86 4
q-53 -24 -80.5 -65t-27.5 -89zM328 702q0 -95 59 -156t156 -61t156 60t59 155t-59 155t-156 60t-156 -59t-59 -154z" />
    <glyph glyph-name="Gdotaccent" unicode="&#x120;" horiz-adv-x="1486" 
d="M729 -35q-194 0 -340 99.5t-221.5 271.5t-75.5 391q0 224 77 394.5t230 269t363 98.5q96 0 178 -21t139 -57.5t101 -80.5t71.5 -95.5t43 -96.5t22.5 -89l-193 -27q-8 52 -30 100t-63 96.5t-112 77.5t-163 29q-146 0 -252 -76.5t-159.5 -211t-53.5 -312.5q0 -126 29 -233
t85.5 -188t147 -127t205.5 -46q102 0 179.5 33t120 81t69 112t34.5 114t8 100v25h-426v164h600v-760h-141l-26 233q-48 -121 -167.5 -194.5t-279.5 -73.5z" />
    <glyph glyph-name="gdotaccent" unicode="&#x121;" horiz-adv-x="1095" 
d="M532 -424q-130 0 -223 23t-143 64t-72 88.5t-22 105.5q0 74 43 130.5t123 82.5q-119 54 -119 178q0 74 39 126.5t106 78.5q-100 95 -100 249q0 153 102 250t277 97q109 0 200 -43q25 84 86 135t158 51q37 0 68 -8v-152q-40 8 -74 8q-118 0 -154 -96q95 -95 95 -242
q0 -153 -102 -251.5t-277 -98.5q-109 0 -197 43q-74 -31 -74 -100q0 -47 40.5 -76t129.5 -29h250q172 0 260 -74.5t88 -213.5q0 -152 -125.5 -239t-382.5 -87zM242 -113q0 -168 311 -168q90 0 153.5 13t97 37.5t48 53.5t14.5 66q0 148 -213 148h-217q-32 0 -86 4
q-53 -24 -80.5 -65t-27.5 -89zM328 702q0 -95 59 -156t156 -61t156 60t59 155t-59 155t-156 60t-156 -59t-59 -154z" />
    <glyph glyph-name="uni0122" unicode="&#x122;" horiz-adv-x="1486" 
d="M729 -35q-194 0 -340 99.5t-221.5 271.5t-75.5 391q0 224 77 394.5t230 269t363 98.5q96 0 178 -21t139 -57.5t101 -80.5t71.5 -95.5t43 -96.5t22.5 -89l-193 -27q-8 52 -30 100t-63 96.5t-112 77.5t-163 29q-146 0 -252 -76.5t-159.5 -211t-53.5 -312.5q0 -126 29 -233
t85.5 -188t147 -127t205.5 -46q102 0 179.5 33t120 81t69 112t34.5 114t8 100v25h-426v164h600v-760h-141l-26 233q-48 -121 -167.5 -194.5t-279.5 -73.5z" />
    <glyph glyph-name="uni0123" unicode="&#x123;" horiz-adv-x="1095" 
d="M532 -424q-130 0 -223 23t-143 64t-72 88.5t-22 105.5q0 74 43 130.5t123 82.5q-119 54 -119 178q0 74 39 126.5t106 78.5q-100 95 -100 249q0 153 102 250t277 97q109 0 200 -43q25 84 86 135t158 51q37 0 68 -8v-152q-40 8 -74 8q-118 0 -154 -96q95 -95 95 -242
q0 -153 -102 -251.5t-277 -98.5q-109 0 -197 43q-74 -31 -74 -100q0 -47 40.5 -76t129.5 -29h250q172 0 260 -74.5t88 -213.5q0 -152 -125.5 -239t-382.5 -87zM242 -113q0 -168 311 -168q90 0 153.5 13t97 37.5t48 53.5t14.5 66q0 148 -213 148h-217q-32 0 -86 4
q-53 -24 -80.5 -65t-27.5 -89zM328 702q0 -95 59 -156t156 -61t156 60t59 155t-59 155t-156 60t-156 -59t-59 -154z" />
    <glyph glyph-name="Hcircumflex" unicode="&#x124;" horiz-adv-x="1531" 
d="M1327 1454v-1454h-194v662h-734v-662h-194v1454h194v-629h734v629h194z" />
    <glyph glyph-name="hcircumflex" unicode="&#x125;" horiz-adv-x="1185" 
d="M184 0v1485h174v-654q93 218 336 218q166 0 252 -105t86 -307v-637h-174v625q0 135 -56.5 204.5t-166.5 69.5q-132 0 -204.5 -95.5t-72.5 -268.5v-535h-174z" />
    <glyph glyph-name="Hbar" unicode="&#x126;" horiz-adv-x="1531" 
d="M1327 1454v-1454h-194v662h-734v-662h-194v1454h194v-629h734v629h194z" />
    <glyph glyph-name="hbar" unicode="&#x127;" horiz-adv-x="1185" 
d="M184 0v1485h174v-654q93 218 336 218q166 0 252 -105t86 -307v-637h-174v625q0 135 -56.5 204.5t-166.5 69.5q-132 0 -204.5 -95.5t-72.5 -268.5v-535h-174z" />
    <glyph glyph-name="Itilde" unicode="&#x128;" horiz-adv-x="604" 
d="M399 0h-194v1454h194v-1454z" />
    <glyph glyph-name="itilde" unicode="&#x129;" horiz-adv-x="542" 
d="M184 0v1024h174v-1024h-174zM172 1214v220h199v-220h-199z" />
    <glyph glyph-name="Imacron" unicode="&#x12a;" horiz-adv-x="604" 
d="M399 0h-194v1454h194v-1454z" />
    <glyph glyph-name="imacron" unicode="&#x12b;" horiz-adv-x="542" 
d="M184 0v1024h174v-1024h-174zM172 1214v220h199v-220h-199z" />
    <glyph glyph-name="Ibreve" unicode="&#x12c;" horiz-adv-x="604" 
d="M399 0h-194v1454h194v-1454z" />
    <glyph glyph-name="ibreve" unicode="&#x12d;" horiz-adv-x="542" 
d="M184 0v1024h174v-1024h-174zM172 1214v220h199v-220h-199z" />
    <glyph glyph-name="Iogonek" unicode="&#x12e;" horiz-adv-x="604" 
d="M399 0h-194v1454h194v-1454z" />
    <glyph glyph-name="iogonek" unicode="&#x12f;" horiz-adv-x="542" 
d="M184 0v1024h174v-1024h-174zM172 1214v220h199v-220h-199z" />
    <glyph glyph-name="Idotaccent" unicode="&#x130;" horiz-adv-x="604" 
d="M399 0h-194v1454h194v-1454z" />
    <glyph glyph-name="dotlessi" unicode="&#x131;" horiz-adv-x="542" 
d="M184 0v1024h174v-1024h-174zM172 1214v220h199v-220h-199z" />
    <glyph glyph-name="IJ" unicode="&#x132;" horiz-adv-x="1421" 
d="M399 0h-194v1454h194v-1454zM645 -10v180q57 -10 172 -10q49 0 86 10.5t70.5 36t51 76t17.5 123.5v1048h195v-1063q0 -95 -23.5 -168.5t-62.5 -119.5t-94.5 -75.5t-114 -41t-127.5 -11.5q-116 0 -170 15z" />
    <glyph glyph-name="ij" unicode="&#x133;" horiz-adv-x="1081" 
d="M184 0v1024h174v-1024h-174zM172 1214v220h199v-220h-199zM512 -401v149q59 -4 100 -4q60 0 85.5 36t25.5 136v1108h174v-1126q0 -312 -260 -312q-75 0 -125 13zM711 1214v220h198v-220h-198z" />
    <glyph glyph-name="Jcircumflex" unicode="&#x134;" horiz-adv-x="817" 
d="M633 391q0 -95 -23.5 -168.5t-62.5 -119.5t-94.5 -75.5t-114 -41t-127.5 -11.5q-116 0 -170 15v180q57 -10 172 -10q49 0 86 10.5t70.5 36t51 76t17.5 123.5v1048h195v-1063z" />
    <glyph glyph-name="jcircumflex" unicode="&#x135;" horiz-adv-x="538" 
d="M94 -414q-75 0 -125 13v149q59 -4 101 -4q60 0 85 36t25 136v1108h174v-1126q0 -312 -260 -312zM168 1214v220h199v-220h-199z" />
    <glyph glyph-name="uni0136" unicode="&#x136;" horiz-adv-x="1368" 
d="M205 0v1454h194v-721l639 721h244l-534 -582l579 -872h-227l-486 733l-215 -235v-498h-194z" />
    <glyph glyph-name="uni0137" unicode="&#x137;" horiz-adv-x="1099" 
d="M184 0v1485h174v-965l459 504h227l-374 -395l399 -629h-215l-309 502l-187 -189v-313h-174z" />
    <glyph glyph-name="kgreenlandic" unicode="&#x138;" horiz-adv-x="1099" 
d="M184 0v1485h174v-965l459 504h227l-374 -395l399 -629h-215l-309 502l-187 -189v-313h-174z" />
    <glyph glyph-name="Lacute" unicode="&#x139;" horiz-adv-x="1112" 
d="M205 0v1454h194v-1290h672v-164h-866z" />
    <glyph glyph-name="lacute" unicode="&#x13a;" horiz-adv-x="542" 
d="M358 1485v-1485h-174v1485h174z" />
    <glyph glyph-name="uni013B" unicode="&#x13b;" horiz-adv-x="1112" 
d="M205 0v1454h194v-1290h672v-164h-866z" />
    <glyph glyph-name="uni013C" unicode="&#x13c;" horiz-adv-x="542" 
d="M358 1485v-1485h-174v1485h174z" />
    <glyph glyph-name="Lcaron" unicode="&#x13d;" horiz-adv-x="1112" 
d="M205 0v1454h194v-1290h672v-164h-866z" />
    <glyph glyph-name="lcaron" unicode="&#x13e;" horiz-adv-x="542" 
d="M358 1485v-1485h-174v1485h174z" />
    <glyph glyph-name="Ldot" unicode="&#x13f;" horiz-adv-x="1112" 
d="M205 0v1454h194v-1290h672v-164h-866z" />
    <glyph glyph-name="ldot" unicode="&#x140;" horiz-adv-x="542" 
d="M358 1485v-1485h-174v1485h174z" />
    <glyph glyph-name="Lslash" unicode="&#x141;" horiz-adv-x="1112" 
d="M205 0v1454h194v-1290h672v-164h-866z" />
    <glyph glyph-name="lslash" unicode="&#x142;" horiz-adv-x="542" 
d="M358 1485v-1485h-174v1485h174z" />
    <glyph glyph-name="Nacute" unicode="&#x143;" horiz-adv-x="1523" 
d="M205 0v1454h235l617 -1059q59 -103 90 -186h4q-6 77 -6 192v1053h174v-1454h-236l-616 1059q-65 114 -90 186h-4q6 -77 6 -192v-1053h-174z" />
    <glyph glyph-name="nacute" unicode="&#x144;" horiz-adv-x="1185" 
d="M184 0v1024h164v-203q101 228 342 228q169 0 255.5 -104t86.5 -308v-637h-174v627q0 272 -225 272q-128 0 -201.5 -97t-73.5 -267v-535h-174z" />
    <glyph glyph-name="uni0145" unicode="&#x145;" horiz-adv-x="1523" 
d="M205 0v1454h235l617 -1059q59 -103 90 -186h4q-6 77 -6 192v1053h174v-1454h-236l-616 1059q-65 114 -90 186h-4q6 -77 6 -192v-1053h-174z" />
    <glyph glyph-name="uni0146" unicode="&#x146;" horiz-adv-x="1185" 
d="M184 0v1024h164v-203q101 228 342 228q169 0 255.5 -104t86.5 -308v-637h-174v627q0 272 -225 272q-128 0 -201.5 -97t-73.5 -267v-535h-174z" />
    <glyph glyph-name="Ncaron" unicode="&#x147;" horiz-adv-x="1523" 
d="M205 0v1454h235l617 -1059q59 -103 90 -186h4q-6 77 -6 192v1053h174v-1454h-236l-616 1059q-65 114 -90 186h-4q6 -77 6 -192v-1053h-174z" />
    <glyph glyph-name="ncaron" unicode="&#x148;" horiz-adv-x="1185" 
d="M184 0v1024h164v-203q101 228 342 228q169 0 255.5 -104t86.5 -308v-637h-174v627q0 272 -225 272q-128 0 -201.5 -97t-73.5 -267v-535h-174z" />
    <glyph glyph-name="napostrophe" unicode="&#x149;" horiz-adv-x="1185" 
d="M184 0v1024h164v-203q101 228 342 228q169 0 255.5 -104t86.5 -308v-637h-174v627q0 272 -225 272q-128 0 -201.5 -97t-73.5 -267v-535h-174z" />
    <glyph glyph-name="Eng" unicode="&#x14a;" horiz-adv-x="1523" 
d="M205 0v1454h235l617 -1059q59 -103 90 -186h4q-6 77 -6 192v1053h174v-1454h-236l-616 1059q-65 114 -90 186h-4q6 -77 6 -192v-1053h-174z" />
    <glyph glyph-name="eng" unicode="&#x14b;" horiz-adv-x="1185" 
d="M184 0v1024h164v-203q101 228 342 228q169 0 255.5 -104t86.5 -308v-637h-174v627q0 272 -225 272q-128 0 -201.5 -97t-73.5 -267v-535h-174z" />
    <glyph glyph-name="Omacron" unicode="&#x14c;" horiz-adv-x="1513" 
d="M758 -35q-303 0 -484.5 207t-181.5 555q0 354 181 558t485 204q303 0 483 -204t180 -558q0 -351 -180.5 -556.5t-482.5 -205.5zM297 727q0 -276 122 -437t339 -161t338 159t121 439q0 281 -121 439.5t-338 158.5q-218 0 -339.5 -158.5t-121.5 -439.5z" />
    <glyph glyph-name="omacron" unicode="&#x14d;" horiz-adv-x="1138" 
d="M569 -25q-218 0 -347.5 144t-129.5 393t129.5 393t347.5 144t348 -144t130 -393t-130 -393t-348 -144zM276 512q0 -188 76.5 -286.5t216.5 -98.5t216.5 98.5t76.5 286.5t-76.5 286.5t-216.5 98.5t-216.5 -98.5t-76.5 -286.5z" />
    <glyph glyph-name="Obreve" unicode="&#x14e;" horiz-adv-x="1513" 
d="M758 -35q-303 0 -484.5 207t-181.5 555q0 354 181 558t485 204q303 0 483 -204t180 -558q0 -351 -180.5 -556.5t-482.5 -205.5zM297 727q0 -276 122 -437t339 -161t338 159t121 439q0 281 -121 439.5t-338 158.5q-218 0 -339.5 -158.5t-121.5 -439.5z" />
    <glyph glyph-name="obreve" unicode="&#x14f;" horiz-adv-x="1138" 
d="M569 -25q-218 0 -347.5 144t-129.5 393t129.5 393t347.5 144t348 -144t130 -393t-130 -393t-348 -144zM276 512q0 -188 76.5 -286.5t216.5 -98.5t216.5 98.5t76.5 286.5t-76.5 286.5t-216.5 98.5t-216.5 -98.5t-76.5 -286.5z" />
    <glyph glyph-name="Ohungarumlaut" unicode="&#x150;" horiz-adv-x="1513" 
d="M758 -35q-303 0 -484.5 207t-181.5 555q0 354 181 558t485 204q303 0 483 -204t180 -558q0 -351 -180.5 -556.5t-482.5 -205.5zM297 727q0 -276 122 -437t339 -161t338 159t121 439q0 281 -121 439.5t-338 158.5q-218 0 -339.5 -158.5t-121.5 -439.5z" />
    <glyph glyph-name="ohungarumlaut" unicode="&#x151;" horiz-adv-x="1138" 
d="M569 -25q-218 0 -347.5 144t-129.5 393t129.5 393t347.5 144t348 -144t130 -393t-130 -393t-348 -144zM276 512q0 -188 76.5 -286.5t216.5 -98.5t216.5 98.5t76.5 286.5t-76.5 286.5t-216.5 98.5t-216.5 -98.5t-76.5 -286.5z" />
    <glyph glyph-name="OE" unicode="&#x152;" horiz-adv-x="2766" 
d="M758 -35q-303 0 -484.5 207t-181.5 555q0 354 181 558t485 204q303 0 483 -204t180 -558q0 -351 -180.5 -556.5t-482.5 -205.5zM297 727q0 -276 122 -437t339 -161t338 159t121 439q0 281 -121 439.5t-338 158.5q-218 0 -339.5 -158.5t-121.5 -439.5zM1718 0v1454h901
v-164h-706v-463h672v-163h-672v-500h721v-164h-916z" />
    <glyph glyph-name="oe" unicode="&#x153;" horiz-adv-x="2234" 
d="M569 -25q-218 0 -347.5 144t-129.5 393t129.5 393t347.5 144t348 -144t130 -393t-130 -393t-348 -144zM276 512q0 -188 76.5 -286.5t216.5 -98.5t216.5 98.5t76.5 286.5t-76.5 286.5t-216.5 98.5t-216.5 -98.5t-76.5 -286.5zM1231 500q0 257 123 403t342 146
q209 0 322.5 -118.5t113.5 -346.5v-123h-727q1 -151 84.5 -241.5t220.5 -90.5q98 0 168 50.5t104 144.5l144 -64q-54 -139 -163.5 -212t-264.5 -73q-221 0 -344 136.5t-123 388.5zM1405 602h551v23q0 140 -68.5 213t-195.5 73q-134 0 -209 -81.5t-78 -227.5z" />
    <glyph glyph-name="Racute" unicode="&#x154;" horiz-adv-x="1361" 
d="M205 0v1454h538q93 0 168 -16.5t126.5 -47t89 -69.5t58.5 -88t30.5 -99t9.5 -106q0 -65 -17.5 -124.5t-54.5 -114.5t-102.5 -96.5t-153.5 -61.5l373 -631h-219l-357 604h-295v-604h-194zM399 768h322q159 0 229 70.5t70 189.5q0 262 -299 262h-322v-522z" />
    <glyph glyph-name="racute" unicode="&#x155;" horiz-adv-x="735" 
d="M346 791q39 115 119.5 186.5t191.5 71.5q25 0 37 -2v-170h-8q-145 0 -225 -80q-35 -35 -57 -78t-31.5 -94.5t-12 -90.5t-2.5 -96v-438h-174v1024h162v-233z" />
    <glyph glyph-name="uni0156" unicode="&#x156;" horiz-adv-x="1361" 
d="M205 0v1454h538q93 0 168 -16.5t126.5 -47t89 -69.5t58.5 -88t30.5 -99t9.5 -106q0 -65 -17.5 -124.5t-54.5 -114.5t-102.5 -96.5t-153.5 -61.5l373 -631h-219l-357 604h-295v-604h-194zM399 768h322q159 0 229 70.5t70 189.5q0 262 -299 262h-322v-522z" />
    <glyph glyph-name="uni0157" unicode="&#x157;" horiz-adv-x="735" 
d="M346 791q39 115 119.5 186.5t191.5 71.5q25 0 37 -2v-170h-8q-145 0 -225 -80q-35 -35 -57 -78t-31.5 -94.5t-12 -90.5t-2.5 -96v-438h-174v1024h162v-233z" />
    <glyph glyph-name="Rcaron" unicode="&#x158;" horiz-adv-x="1361" 
d="M205 0v1454h538q93 0 168 -16.5t126.5 -47t89 -69.5t58.5 -88t30.5 -99t9.5 -106q0 -65 -17.5 -124.5t-54.5 -114.5t-102.5 -96.5t-153.5 -61.5l373 -631h-219l-357 604h-295v-604h-194zM399 768h322q159 0 229 70.5t70 189.5q0 262 -299 262h-322v-522z" />
    <glyph glyph-name="rcaron" unicode="&#x159;" horiz-adv-x="735" 
d="M346 791q39 115 119.5 186.5t191.5 71.5q25 0 37 -2v-170h-8q-145 0 -225 -80q-35 -35 -57 -78t-31.5 -94.5t-12 -90.5t-2.5 -96v-438h-174v1024h162v-233z" />
    <glyph glyph-name="Sacute" unicode="&#x15a;" horiz-adv-x="1277" 
d="M666 -35q-267 0 -415.5 128.5t-168.5 338.5l197 29q11 -70 37.5 -128t72.5 -106t118 -75t165 -27q62 0 117.5 13.5t103 42t75 78.5t27.5 116q0 121 -67.5 177t-208.5 85l-211 43q-365 76 -365 401q0 184 137.5 296t368.5 112q227 0 372.5 -104t166.5 -310l-195 -41
q-39 301 -348 301q-135 0 -218 -63t-83 -172q0 -105 57.5 -164t180.5 -86l213 -45q90 -19 158.5 -48t125.5 -76t87 -119.5t30 -168.5q0 -86 -32.5 -162t-96 -136t-167 -95t-234.5 -35z" />
    <glyph glyph-name="sacute" unicode="&#x15b;" horiz-adv-x="1028" 
d="M532 -25q-183 0 -298.5 82.5t-141.5 233.5l176 31q19 -97 89 -150t182 -53q100 0 156.5 43.5t56.5 111.5q0 65 -37.5 98t-110.5 46l-201 37q-132 25 -202 97.5t-70 188.5q0 135 105.5 221.5t283.5 86.5q172 0 281.5 -74t124.5 -203l-172 -39q-18 80 -79.5 127t-162.5 47
q-99 0 -155 -41t-56 -116q0 -118 158 -146l198 -37q137 -26 202 -95t65 -183q0 -141 -104 -227.5t-288 -86.5z" />
    <glyph glyph-name="Scircumflex" unicode="&#x15c;" horiz-adv-x="1277" 
d="M666 -35q-267 0 -415.5 128.5t-168.5 338.5l197 29q11 -70 37.5 -128t72.5 -106t118 -75t165 -27q62 0 117.5 13.5t103 42t75 78.5t27.5 116q0 121 -67.5 177t-208.5 85l-211 43q-365 76 -365 401q0 184 137.5 296t368.5 112q227 0 372.5 -104t166.5 -310l-195 -41
q-39 301 -348 301q-135 0 -218 -63t-83 -172q0 -105 57.5 -164t180.5 -86l213 -45q90 -19 158.5 -48t125.5 -76t87 -119.5t30 -168.5q0 -86 -32.5 -162t-96 -136t-167 -95t-234.5 -35z" />
    <glyph glyph-name="scircumflex" unicode="&#x15d;" horiz-adv-x="1028" 
d="M532 -25q-183 0 -298.5 82.5t-141.5 233.5l176 31q19 -97 89 -150t182 -53q100 0 156.5 43.5t56.5 111.5q0 65 -37.5 98t-110.5 46l-201 37q-132 25 -202 97.5t-70 188.5q0 135 105.5 221.5t283.5 86.5q172 0 281.5 -74t124.5 -203l-172 -39q-18 80 -79.5 127t-162.5 47
q-99 0 -155 -41t-56 -116q0 -118 158 -146l198 -37q137 -26 202 -95t65 -183q0 -141 -104 -227.5t-288 -86.5z" />
    <glyph glyph-name="Scedilla" unicode="&#x15e;" horiz-adv-x="1277" 
d="M666 -35q-267 0 -415.5 128.5t-168.5 338.5l197 29q11 -70 37.5 -128t72.5 -106t118 -75t165 -27q62 0 117.5 13.5t103 42t75 78.5t27.5 116q0 121 -67.5 177t-208.5 85l-211 43q-365 76 -365 401q0 184 137.5 296t368.5 112q227 0 372.5 -104t166.5 -310l-195 -41
q-39 301 -348 301q-135 0 -218 -63t-83 -172q0 -105 57.5 -164t180.5 -86l213 -45q90 -19 158.5 -48t125.5 -76t87 -119.5t30 -168.5q0 -86 -32.5 -162t-96 -136t-167 -95t-234.5 -35z" />
    <glyph glyph-name="scedilla" unicode="&#x15f;" horiz-adv-x="1028" 
d="M532 -25q-183 0 -298.5 82.5t-141.5 233.5l176 31q19 -97 89 -150t182 -53q100 0 156.5 43.5t56.5 111.5q0 65 -37.5 98t-110.5 46l-201 37q-132 25 -202 97.5t-70 188.5q0 135 105.5 221.5t283.5 86.5q172 0 281.5 -74t124.5 -203l-172 -39q-18 80 -79.5 127t-162.5 47
q-99 0 -155 -41t-56 -116q0 -118 158 -146l198 -37q137 -26 202 -95t65 -183q0 -141 -104 -227.5t-288 -86.5z" />
    <glyph glyph-name="Scaron" unicode="&#x160;" horiz-adv-x="1277" 
d="M666 -35q-267 0 -415.5 128.5t-168.5 338.5l197 29q11 -70 37.5 -128t72.5 -106t118 -75t165 -27q62 0 117.5 13.5t103 42t75 78.5t27.5 116q0 121 -67.5 177t-208.5 85l-211 43q-365 76 -365 401q0 184 137.5 296t368.5 112q227 0 372.5 -104t166.5 -310l-195 -41
q-39 301 -348 301q-135 0 -218 -63t-83 -172q0 -105 57.5 -164t180.5 -86l213 -45q90 -19 158.5 -48t125.5 -76t87 -119.5t30 -168.5q0 -86 -32.5 -162t-96 -136t-167 -95t-234.5 -35z" />
    <glyph glyph-name="scaron" unicode="&#x161;" horiz-adv-x="1028" 
d="M532 -25q-183 0 -298.5 82.5t-141.5 233.5l176 31q19 -97 89 -150t182 -53q100 0 156.5 43.5t56.5 111.5q0 65 -37.5 98t-110.5 46l-201 37q-132 25 -202 97.5t-70 188.5q0 135 105.5 221.5t283.5 86.5q172 0 281.5 -74t124.5 -203l-172 -39q-18 80 -79.5 127t-162.5 47
q-99 0 -155 -41t-56 -116q0 -118 158 -146l198 -37q137 -26 202 -95t65 -183q0 -141 -104 -227.5t-288 -86.5z" />
    <glyph glyph-name="uni0162" unicode="&#x162;" 
d="M31 1290v164h1108v-164h-457v-1290h-195v1290h-456z" />
    <glyph glyph-name="uni0163" unicode="&#x163;" horiz-adv-x="722" 
d="M31 881v143h190v268l174 74v-342h256v-143h-256v-568q0 -88 36 -128t114 -40q40 0 106 15v-160q-67 -18 -151 -18q-81 0 -136.5 23.5t-86 68.5t-43.5 101t-13 132v574h-190z" />
    <glyph glyph-name="Tcaron" unicode="&#x164;" 
d="M31 1290v164h1108v-164h-457v-1290h-195v1290h-456z" />
    <glyph glyph-name="tcaron" unicode="&#x165;" horiz-adv-x="722" 
d="M31 881v143h190v268l174 74v-342h256v-143h-256v-568q0 -88 36 -128t114 -40q40 0 106 15v-160q-67 -18 -151 -18q-81 0 -136.5 23.5t-86 68.5t-43.5 101t-13 132v574h-190z" />
    <glyph glyph-name="Tbar" unicode="&#x166;" 
d="M31 1290v164h1108v-164h-457v-1290h-195v1290h-456z" />
    <glyph glyph-name="tbar" unicode="&#x167;" horiz-adv-x="722" 
d="M31 881v143h190v268l174 74v-342h256v-143h-256v-568q0 -88 36 -128t114 -40q40 0 106 15v-160q-67 -18 -151 -18q-81 0 -136.5 23.5t-86 68.5t-43.5 101t-13 132v574h-190z" />
    <glyph glyph-name="Utilde" unicode="&#x168;" horiz-adv-x="1486" 
d="M184 1454h195v-934q0 -178 95 -280.5t269 -102.5t269.5 103t95.5 280v934h195v-946q0 -248 -147.5 -395.5t-412.5 -147.5t-412 147.5t-147 395.5v946z" />
    <glyph glyph-name="utilde" unicode="&#x169;" 
d="M504 -25q-185 0 -267.5 103t-82.5 293v653h174v-633q0 -129 54 -197.5t155 -68.5q123 0 198.5 95.5t75.5 252.5v551h174v-1024h-164v193q-36 -95 -123.5 -156.5t-193.5 -61.5z" />
    <glyph glyph-name="Umacron" unicode="&#x16a;" horiz-adv-x="1486" 
d="M184 1454h195v-934q0 -178 95 -280.5t269 -102.5t269.5 103t95.5 280v934h195v-946q0 -248 -147.5 -395.5t-412.5 -147.5t-412 147.5t-147 395.5v946z" />
    <glyph glyph-name="umacron" unicode="&#x16b;" 
d="M504 -25q-185 0 -267.5 103t-82.5 293v653h174v-633q0 -129 54 -197.5t155 -68.5q123 0 198.5 95.5t75.5 252.5v551h174v-1024h-164v193q-36 -95 -123.5 -156.5t-193.5 -61.5z" />
    <glyph glyph-name="Ubreve" unicode="&#x16c;" horiz-adv-x="1486" 
d="M184 1454h195v-934q0 -178 95 -280.5t269 -102.5t269.5 103t95.5 280v934h195v-946q0 -248 -147.5 -395.5t-412.5 -147.5t-412 147.5t-147 395.5v946z" />
    <glyph glyph-name="ubreve" unicode="&#x16d;" 
d="M504 -25q-185 0 -267.5 103t-82.5 293v653h174v-633q0 -129 54 -197.5t155 -68.5q123 0 198.5 95.5t75.5 252.5v551h174v-1024h-164v193q-36 -95 -123.5 -156.5t-193.5 -61.5z" />
    <glyph glyph-name="Uring" unicode="&#x16e;" horiz-adv-x="1486" 
d="M184 1454h195v-934q0 -178 95 -280.5t269 -102.5t269.5 103t95.5 280v934h195v-946q0 -248 -147.5 -395.5t-412.5 -147.5t-412 147.5t-147 395.5v946z" />
    <glyph glyph-name="uring" unicode="&#x16f;" 
d="M504 -25q-185 0 -267.5 103t-82.5 293v653h174v-633q0 -129 54 -197.5t155 -68.5q123 0 198.5 95.5t75.5 252.5v551h174v-1024h-164v193q-36 -95 -123.5 -156.5t-193.5 -61.5z" />
    <glyph glyph-name="Uhungarumlaut" unicode="&#x170;" horiz-adv-x="1486" 
d="M184 1454h195v-934q0 -178 95 -280.5t269 -102.5t269.5 103t95.5 280v934h195v-946q0 -248 -147.5 -395.5t-412.5 -147.5t-412 147.5t-147 395.5v946z" />
    <glyph glyph-name="uhungarumlaut" unicode="&#x171;" 
d="M504 -25q-185 0 -267.5 103t-82.5 293v653h174v-633q0 -129 54 -197.5t155 -68.5q123 0 198.5 95.5t75.5 252.5v551h174v-1024h-164v193q-36 -95 -123.5 -156.5t-193.5 -61.5z" />
    <glyph glyph-name="Uogonek" unicode="&#x172;" horiz-adv-x="1486" 
d="M184 1454h195v-934q0 -178 95 -280.5t269 -102.5t269.5 103t95.5 280v934h195v-946q0 -248 -147.5 -395.5t-412.5 -147.5t-412 147.5t-147 395.5v946z" />
    <glyph glyph-name="uogonek" unicode="&#x173;" 
d="M504 -25q-185 0 -267.5 103t-82.5 293v653h174v-633q0 -129 54 -197.5t155 -68.5q123 0 198.5 95.5t75.5 252.5v551h174v-1024h-164v193q-36 -95 -123.5 -156.5t-193.5 -61.5z" />
    <glyph glyph-name="Wcircumflex" unicode="&#x174;" horiz-adv-x="1867" 
d="M397 0l-346 1454h199l252 -1171q9 -43 12 -80h6q2 17 17 80l299 1171h196l299 -1171q15 -63 17 -80h6q3 37 12 80l252 1171h199l-347 -1454h-237l-283 1135q-10 42 -12 67h-8q-2 -25 -12 -67l-283 -1135h-238z" />
    <glyph glyph-name="wcircumflex" unicode="&#x175;" horiz-adv-x="1499" 
d="M340 0l-289 1024h180l185 -731q13 -61 22 -121h4q4 24 15 70t12 51l186 731h189l186 -731q1 -5 12 -51t15 -70h4q9 60 22 121l185 731h180l-289 -1024h-190l-195 737q-15 63 -22 115h-4q-6 -43 -23 -115l-195 -737h-190z" />
    <glyph glyph-name="Ycircumflex" unicode="&#x176;" horiz-adv-x="1224" 
d="M514 0v580l-494 874h218l333 -616q31 -61 39 -84h4q8 23 39 84l334 616h217l-493 -874v-580h-197z" />
    <glyph glyph-name="ycircumflex" unicode="&#x177;" horiz-adv-x="997" 
d="M188 -410q-44 0 -94 9v153q27 -4 74 -4q91 0 144 44t89 145l27 75l-408 1012h195l262 -713q24 -68 35 -121h4q6 28 35 121l237 713h189l-399 -1090q-68 -187 -162 -265.5t-228 -78.5z" />
    <glyph glyph-name="Ydieresis" unicode="&#x178;" horiz-adv-x="1224" 
d="M514 0v580l-494 874h218l333 -616q31 -61 39 -84h4q8 23 39 84l334 616h217l-493 -874v-580h-197z" />
    <glyph glyph-name="Zacute" unicode="&#x179;" horiz-adv-x="1165" 
d="M72 180l817 1110h-791v164h998v-180l-820 -1110h848v-164h-1052v180z" />
    <glyph glyph-name="zacute" unicode="&#x17a;" horiz-adv-x="931" 
d="M72 133l559 744h-539v147h748v-129l-553 -745h583v-150h-798v133z" />
    <glyph glyph-name="Zdotaccent" unicode="&#x17b;" horiz-adv-x="1165" 
d="M72 180l817 1110h-791v164h998v-180l-820 -1110h848v-164h-1052v180z" />
    <glyph glyph-name="zdotaccent" unicode="&#x17c;" horiz-adv-x="931" 
d="M72 133l559 744h-539v147h748v-129l-553 -745h583v-150h-798v133z" />
    <glyph glyph-name="Zcaron" unicode="&#x17d;" horiz-adv-x="1165" 
d="M72 180l817 1110h-791v164h998v-180l-820 -1110h848v-164h-1052v180z" />
    <glyph glyph-name="zcaron" unicode="&#x17e;" horiz-adv-x="931" 
d="M72 133l559 744h-539v147h748v-129l-553 -745h583v-150h-798v133z" />
    <glyph glyph-name="AEacute" unicode="&#x1fc;" horiz-adv-x="2609" 
d="M31 0l551 1454h192l551 -1454h-201l-149 420h-594l-150 -420h-200zM438 584h480l-203 567q-17 48 -35 111h-4q-18 -63 -35 -111zM1561 0v1454h901v-164h-707v-463h672v-163h-672v-500h721v-164h-915z" />
    <glyph glyph-name="aeacute" unicode="&#x1fd;" horiz-adv-x="2189" 
d="M438 -25q-157 0 -251.5 82.5t-94.5 218.5q0 77 37.5 140.5t106.5 101.5q113 56 344 84l190 23v16q0 140 -53 202t-172 62q-105 0 -166.5 -53.5t-67.5 -149.5h-186q11 157 124.5 252t293.5 95q211 0 307 -101t96 -325v-277q0 -234 35 -346h-182q-14 94 -17 186
q-35 -98 -126.5 -154.5t-217.5 -56.5zM276 281q0 -75 53.5 -118.5t147.5 -43.5q134 0 214.5 89t80.5 238v52l-278 -41q-114 -17 -166 -59t-52 -117zM1186 500q0 257 123 403t342 146q209 0 322.5 -118.5t113.5 -346.5v-123h-727q1 -151 84.5 -241.5t220.5 -90.5
q98 0 168 50.5t104 144.5l144 -64q-54 -139 -163.5 -212t-264.5 -73q-221 0 -344 136.5t-123 388.5zM1360 602h551v23q0 140 -68.5 213t-195.5 73q-134 0 -209 -81.5t-78 -227.5z" />
    <glyph glyph-name="Oslashacute" unicode="&#x1fe;" horiz-adv-x="1513" 
d="M758 -35q-303 0 -484.5 207t-181.5 555q0 354 181 558t485 204q303 0 483 -204t180 -558q0 -351 -180.5 -556.5t-482.5 -205.5zM297 727q0 -276 122 -437t339 -161t338 159t121 439q0 281 -121 439.5t-338 158.5q-218 0 -339.5 -158.5t-121.5 -439.5z" />
    <glyph glyph-name="oslashacute" unicode="&#x1ff;" horiz-adv-x="1138" 
d="M569 -25q-218 0 -347.5 144t-129.5 393t129.5 393t347.5 144t348 -144t130 -393t-130 -393t-348 -144zM276 512q0 -188 76.5 -286.5t216.5 -98.5t216.5 98.5t76.5 286.5t-76.5 286.5t-216.5 98.5t-216.5 -98.5t-76.5 -286.5z" />
    <glyph glyph-name="uni0218" unicode="&#x218;" horiz-adv-x="1277" 
d="M666 -35q-267 0 -415.5 128.5t-168.5 338.5l197 29q11 -70 37.5 -128t72.5 -106t118 -75t165 -27q62 0 117.5 13.5t103 42t75 78.5t27.5 116q0 121 -67.5 177t-208.5 85l-211 43q-365 76 -365 401q0 184 137.5 296t368.5 112q227 0 372.5 -104t166.5 -310l-195 -41
q-39 301 -348 301q-135 0 -218 -63t-83 -172q0 -105 57.5 -164t180.5 -86l213 -45q90 -19 158.5 -48t125.5 -76t87 -119.5t30 -168.5q0 -86 -32.5 -162t-96 -136t-167 -95t-234.5 -35z" />
    <glyph glyph-name="uni0219" unicode="&#x219;" horiz-adv-x="1028" 
d="M532 -25q-183 0 -298.5 82.5t-141.5 233.5l176 31q19 -97 89 -150t182 -53q100 0 156.5 43.5t56.5 111.5q0 65 -37.5 98t-110.5 46l-201 37q-132 25 -202 97.5t-70 188.5q0 135 105.5 221.5t283.5 86.5q172 0 281.5 -74t124.5 -203l-172 -39q-18 80 -79.5 127t-162.5 47
q-99 0 -155 -41t-56 -116q0 -118 158 -146l198 -37q137 -26 202 -95t65 -183q0 -141 -104 -227.5t-288 -86.5z" />
    <glyph glyph-name="uni021A" unicode="&#x21a;" 
d="M31 1290v164h1108v-164h-457v-1290h-195v1290h-456z" />
    <glyph glyph-name="uni021B" unicode="&#x21b;" horiz-adv-x="722" 
d="M31 881v143h190v268l174 74v-342h256v-143h-256v-568q0 -88 36 -128t114 -40q40 0 106 15v-160q-67 -18 -151 -18q-81 0 -136.5 23.5t-86 68.5t-43.5 101t-13 132v574h-190z" />
    <glyph glyph-name="uni0237" unicode="&#x237;" horiz-adv-x="538" 
d="M94 -414q-75 0 -125 13v149q59 -4 101 -4q60 0 85 36t25 136v1108h174v-1126q0 -312 -260 -312zM168 1214v220h199v-220h-199z" />
    <glyph glyph-name="uni0401" unicode="&#x401;" horiz-adv-x="1253" 
d="M399 164h721v-164h-915v1454h901v-164h-707v-463h672v-163h-672v-500z" />
    <glyph glyph-name="uni0404" unicode="&#x404;" horiz-adv-x="1411" 
d="M748 -35q-164 0 -292 60t-206 165.5t-118 242.5t-40 298q0 225 74.5 394.5t225.5 266.5t362 97q256 0 401 -137t174 -373l-199 -21q-23 170 -123 273.5t-264 103.5q-203 0 -319 -131.5t-133 -384.5h663v-164h-663q16 -242 131.5 -386t325.5 -144q160 0 260.5 98
t132.5 266l188 -32q-21 -106 -65.5 -193t-114 -155t-172 -106t-229.5 -38z" />
    <glyph glyph-name="uni0405" unicode="&#x405;" horiz-adv-x="1277" 
d="M666 -35q-267 0 -415.5 128.5t-168.5 338.5l197 29q11 -70 37.5 -128t72.5 -106t118 -75t165 -27q62 0 117.5 13.5t103 42t75 78.5t27.5 116q0 121 -67.5 177t-208.5 85l-211 43q-365 76 -365 401q0 184 137.5 296t368.5 112q227 0 372.5 -104t166.5 -310l-195 -41
q-39 301 -348 301q-135 0 -218 -63t-83 -172q0 -105 57.5 -164t180.5 -86l213 -45q90 -19 158.5 -48t125.5 -76t87 -119.5t30 -168.5q0 -86 -32.5 -162t-96 -136t-167 -95t-234.5 -35z" />
    <glyph glyph-name="uni0406" unicode="&#x406;" horiz-adv-x="604" 
d="M399 0h-194v1454h194v-1454z" />
    <glyph glyph-name="uni0408" unicode="&#x408;" horiz-adv-x="817" 
d="M633 391q0 -95 -23.5 -168.5t-62.5 -119.5t-94.5 -75.5t-114 -41t-127.5 -11.5q-116 0 -170 15v180q57 -10 172 -10q49 0 86 10.5t70.5 36t51 76t17.5 123.5v1048h195v-1063z" />
    <glyph glyph-name="uni040F" unicode="&#x40f;" horiz-adv-x="1527" 
d="M1323 0h-467v-328h-184v328h-467v1454h194v-1290h729v1290h195v-1454z" />
    <glyph glyph-name="uni0410" unicode="&#x410;" horiz-adv-x="1355" 
d="M31 0l551 1454h192l551 -1454h-201l-149 420h-594l-150 -420h-200zM438 584h480l-203 567q-17 48 -35 111h-4q-18 -63 -35 -111z" />
    <glyph glyph-name="uni0411" unicode="&#x411;" horiz-adv-x="1331" 
d="M727 158q151 0 220 74t69 196q0 119 -69.5 192.5t-219.5 73.5h-328v-536h328zM205 0v1454h930v-164h-736v-438h340q239 0 359.5 -116t120.5 -308q0 -195 -120 -311.5t-360 -116.5h-534z" />
    <glyph glyph-name="uni0412" unicode="&#x412;" horiz-adv-x="1347" 
d="M205 0v1454h506q110 0 196.5 -24t139.5 -62.5t87 -90.5t47 -103.5t13 -106.5q0 -108 -62.5 -194.5t-181.5 -120.5q132 -24 208.5 -116.5t76.5 -236.5q0 -59 -14 -113t-49.5 -107.5t-88.5 -92t-137.5 -62.5t-191.5 -24h-549zM399 164h344q82 0 142 21t93 57.5t48.5 80
t15.5 95.5q0 109 -68 175t-210 66h-365v-495zM399 823h312q290 0 290 230q0 47 -13 86t-43 75t-89.5 56t-144.5 20h-312v-467z" />
    <glyph glyph-name="uni0413" unicode="&#x413;" horiz-adv-x="1071" 
d="M1040 1454v-164h-641v-1290h-194v1454h835z" />
    <glyph glyph-name="uni0414" unicode="&#x414;" horiz-adv-x="1511" 
d="M1286 1454v-1286h184v-475h-184v307h-1081v-307h-185v475h158q120 237 166 543q36 247 39 743h903zM371 168h721v1122h-535q-7 -352 -39 -583q-43 -308 -147 -539z" />
    <glyph glyph-name="uni0415" unicode="&#x415;" horiz-adv-x="1253" 
d="M399 164h721v-164h-915v1454h901v-164h-707v-463h672v-163h-672v-500z" />
    <glyph glyph-name="uni0416" unicode="&#x416;" horiz-adv-x="2107" 
d="M956 0v676h-249l-449 -676h-227l510 766l-484 688h217l422 -614h260v614h195v-614h260l422 614h217l-483 -688l510 -766h-228l-448 676h-250v-676h-195z" />
    <glyph glyph-name="uni0417" unicode="&#x417;" horiz-adv-x="1312" 
d="M637 -35q-126 0 -228.5 35t-170.5 96.5t-107.5 141.5t-48.5 174l197 28q15 -71 40.5 -125.5t67.5 -99t108 -68.5t152 -24q178 0 273.5 77t95.5 210q0 146 -95.5 210t-285.5 64h-148v152h140q160 0 249 66.5t89 189.5q0 115 -84.5 179t-233.5 64q-158 0 -243.5 -75.5
t-112.5 -225.5l-195 41q27 208 171.5 311t379.5 103q237 0 370.5 -100t133.5 -277q0 -125 -58 -214t-165 -124q127 -32 199.5 -127.5t72.5 -232.5q0 -208 -148 -328.5t-415 -120.5z" />
    <glyph glyph-name="uni0418" unicode="&#x418;" horiz-adv-x="1574" 
d="M1370 0h-178v1090v188h-8q-21 -68 -88 -182l-637 -1096h-254v1454h178v-1096v-182h8q8 31 23 64t26 53t39 67l635 1094h256v-1454z" />
    <glyph glyph-name="uni0419" unicode="&#x419;" horiz-adv-x="1574" 
d="M1370 0h-178v1090v188h-8q-21 -68 -88 -182l-637 -1096h-254v1454h178v-1096v-182h8q8 31 23 64t26 53t39 67l635 1094h256v-1454z" />
    <glyph glyph-name="uni041A" unicode="&#x41a;" horiz-adv-x="1366" 
d="M205 0v1454h194v-614h260l422 614h217l-483 -688l510 -766h-227l-449 676h-250v-676h-194z" />
    <glyph glyph-name="uni041B" unicode="&#x41b;" horiz-adv-x="1478" 
d="M31 -12v180q40 -6 65 -6q98 0 144 66t65 233q53 476 62 993h907v-1454h-195v1290h-536q-31 -559 -62 -860q-25 -241 -108 -348t-244 -107q-48 0 -98 13z" />
    <glyph glyph-name="uni041C" unicode="&#x41c;" horiz-adv-x="1810" 
d="M205 0v1454h276l385 -1118q29 -83 37 -137h4q8 54 37 137l385 1118h277v-1454h-179v1122q0 86 9 156h-9q-11 -78 -43 -166l-385 -1112h-188l-385 1112q-32 88 -43 166h-8q8 -63 8 -156v-1122h-178z" />
    <glyph glyph-name="uni041D" unicode="&#x41d;" horiz-adv-x="1531" 
d="M1327 1454v-1454h-194v662h-734v-662h-194v1454h194v-629h734v629h194z" />
    <glyph glyph-name="uni041E" unicode="&#x41e;" horiz-adv-x="1513" 
d="M758 -35q-303 0 -484.5 207t-181.5 555q0 354 181 558t485 204q303 0 483 -204t180 -558q0 -351 -180.5 -556.5t-482.5 -205.5zM297 727q0 -276 122 -437t339 -161t338 159t121 439q0 281 -121 439.5t-338 158.5q-218 0 -339.5 -158.5t-121.5 -439.5z" />
    <glyph glyph-name="uni041F" unicode="&#x41f;" horiz-adv-x="1527" 
d="M1323 1454v-1454h-195v1290h-729v-1290h-194v1454h1118z" />
    <glyph glyph-name="uni0420" unicode="&#x420;" horiz-adv-x="1275" 
d="M399 0h-194v1454h516q226 0 359.5 -116.5t133.5 -313.5t-133.5 -313.5t-359.5 -116.5h-322v-594zM399 758h301q141 0 225.5 72.5t84.5 193.5t-84.5 193.5t-225.5 72.5h-301v-532z" />
    <glyph glyph-name="uni0421" unicode="&#x421;" horiz-adv-x="1411" 
d="M748 -35q-164 0 -292 60t-206 165.5t-118 242.5t-40 298q0 225 74.5 394.5t225.5 266.5t362 97q256 0 401 -137t174 -373l-199 -21q-22 169 -122 267t-265 98q-210 0 -328 -160.5t-118 -429.5q0 -173 50 -306t153.5 -212.5t247.5 -79.5q154 0 258 95t135 259l188 -32
q-21 -106 -65.5 -193t-114 -155t-172 -106t-229.5 -38z" />
    <glyph glyph-name="uni0422" unicode="&#x422;" 
d="M31 1290v164h1108v-164h-457v-1290h-195v1290h-456z" />
    <glyph glyph-name="uni0423" unicode="&#x423;" horiz-adv-x="1282" 
d="M565 297l-534 1157h200l375 -829q44 -99 53 -148h5q9 50 51 148l346 829h190l-506 -1159q-77 -175 -164 -247.5t-223 -72.5q-77 0 -133 13v172q49 -8 101 -8q85 0 134.5 23.5t86.5 88.5z" />
    <glyph glyph-name="uni0424" unicode="&#x424;" horiz-adv-x="1697" 
d="M942 1522v-136q317 -12 490.5 -180.5t173.5 -468.5q0 -311 -172.5 -477.5t-491.5 -177.5v-137h-186v137q-319 12 -491.5 178.5t-172.5 476.5q0 301 173.5 469t490.5 180v136h186zM287 737q0 -242 113.5 -366t359.5 -133v991q-248 -12 -360.5 -135.5t-112.5 -356.5z
M938 238q248 9 360.5 131.5t112.5 367.5q0 231 -113.5 355.5t-359.5 136.5v-991z" />
    <glyph glyph-name="uni0425" unicode="&#x425;" horiz-adv-x="1310" 
d="M31 0l508 768l-461 686h227l305 -477q31 -47 47 -86h5q10 27 47 84l303 479h215l-457 -702l510 -752h-229l-332 516q-8 13 -20.5 32t-17 25.5t-11 17.5t-10.5 19.5t-9 20.5h-4q-18 -42 -67 -115l-330 -516h-219z" />
    <glyph glyph-name="uni0426" unicode="&#x426;" horiz-adv-x="1548" 
d="M1323 0h-1118v1454h194v-1290h729v1290h195v-1290h184v-471h-184v307z" />
    <glyph glyph-name="uni0427" unicode="&#x427;" horiz-adv-x="1370" 
d="M1165 1454v-1454h-194v639q-188 -68 -365 -68q-243 0 -363 111t-120 356v416h194v-391q0 -169 72.5 -246.5t228.5 -77.5q173 0 353 60v655h194z" />
    <glyph glyph-name="uni0428" unicode="&#x428;" horiz-adv-x="2078" 
d="M1679 1454h195v-1454h-1669v1454h194v-1286h543v1286h195v-1286h542v1286z" />
    <glyph glyph-name="uni0429" unicode="&#x429;" horiz-adv-x="2099" 
d="M1679 1454h195v-1288h184v-498h-184v332h-1669v1454h194v-1286h543v1286h195v-1286h542v1286z" />
    <glyph glyph-name="uni042A" unicode="&#x42a;" horiz-adv-x="1583" 
d="M31 1454h645v-602h336q120 0 214 -34.5t150.5 -94.5t85.5 -135t29 -162t-29 -162t-85.5 -135t-150.5 -94.5t-214 -34.5h-531v1290h-450v164zM676 162h323q150 0 219.5 73.5t69.5 190.5t-69.5 190.5t-219.5 73.5h-323v-528z" />
    <glyph glyph-name="uni042B" unicode="&#x42b;" horiz-adv-x="1847" 
d="M723 162q150 0 219.5 73.5t69.5 190.5t-69.5 190.5t-219.5 73.5h-324v-528h324zM205 0v1454h194v-602h336q120 0 214 -34.5t150.5 -94.5t85.5 -135t29 -162t-29 -162t-85.5 -135t-150.5 -94.5t-214 -34.5h-530zM1448 0v1454h194v-1454h-194z" />
    <glyph glyph-name="uni042C" unicode="&#x42c;" horiz-adv-x="1306" 
d="M723 162q150 0 219.5 73.5t69.5 190.5t-69.5 190.5t-219.5 73.5h-324v-528h324zM205 0v1454h194v-602h336q120 0 214 -34.5t150.5 -94.5t85.5 -135t29 -162t-29 -162t-85.5 -135t-150.5 -94.5t-214 -34.5h-530z" />
    <glyph glyph-name="uni042D" unicode="&#x42d;" horiz-adv-x="1419" 
d="M694 -35q-113 0 -208.5 26t-164.5 72t-119.5 110t-79.5 138t-40 158l201 20q26 -176 132.5 -270t276.5 -94q134 0 230.5 70.5t146 187t59.5 272.5h-663v164h663q-18 242 -125 379t-301 137q-182 0 -285 -102t-126 -275l-201 21q29 234 183 372t421 138q162 0 284.5 -55.5
t198 -158t113 -239t37.5 -305.5q0 -129 -23 -242t-73 -210t-123 -166t-179 -108.5t-235 -39.5z" />
    <glyph glyph-name="uni042E" unicode="&#x42e;" horiz-adv-x="2105" 
d="M1335 -35q-292 0 -471 182.5t-202 497.5h-263v-645h-194v1454h194v-645h263q22 319 200.5 499.5t472.5 180.5q313 0 495.5 -203.5t182.5 -558.5q0 -353 -182.5 -557.5t-495.5 -204.5zM860 727q0 -277 124.5 -437.5t350.5 -160.5q227 0 350 158.5t123 439.5
q0 282 -123 440t-350 158t-351 -158t-124 -440z" />
    <glyph glyph-name="uni042F" unicode="&#x42f;" horiz-adv-x="1361" 
d="M1157 0h-194v604h-295l-357 -604h-219l367 621q-322 63 -322 403q0 70 13 130t47 116.5t87 96t138 63.5t196 24h539v-1454zM342 1024q0 -54 15.5 -98.5t49 -80.5t93.5 -56.5t141 -20.5h322v522h-322q-81 0 -140.5 -22t-93 -60t-49.5 -84t-16 -100z" />
    <glyph glyph-name="uni0430" unicode="&#x430;" horiz-adv-x="1103" 
d="M438 -25q-157 0 -251.5 82.5t-94.5 218.5q0 77 37.5 140.5t106.5 101.5q113 56 344 84l190 23v16q0 140 -53 202t-172 62q-105 0 -166.5 -53.5t-67.5 -149.5h-186q11 157 124.5 252t293.5 95q211 0 307 -101t96 -325v-277q0 -234 35 -346h-182q-14 94 -17 186
q-35 -98 -126.5 -154.5t-217.5 -56.5zM276 281q0 -75 53.5 -118.5t147.5 -43.5q134 0 214.5 89t80.5 238v52l-278 -41q-114 -17 -166 -59t-52 -117z" />
    <glyph glyph-name="uni0431" unicode="&#x431;" horiz-adv-x="1144" 
d="M633 1024q195 0 307.5 -135.5t112.5 -374.5q0 -251 -128 -395t-341 -144q-255 0 -373.5 170t-118.5 549q0 118 10.5 208t38 173.5t73.5 140.5t120.5 98.5t175.5 59.5l174 31q77 14 106.5 36t30.5 70h152q0 -110 -43.5 -169t-161.5 -78l-166 -27q-190 -31 -271 -125
t-81 -293v-106q78 311 383 311zM285 498q0 -180 75.5 -279.5t210.5 -99.5q138 0 217.5 101t79.5 282q0 178 -75.5 278.5t-221.5 100.5q-75 0 -131.5 -30.5t-89.5 -84.5t-49 -121t-16 -147z" />
    <glyph glyph-name="uni0432" unicode="&#x432;" horiz-adv-x="1112" 
d="M184 0v1024h467q158 0 248 -73t90 -199q0 -84 -50.5 -145t-141.5 -81q101 -9 167 -76t66 -169q0 -133 -89.5 -207t-266.5 -74h-490zM358 139h312q87 0 135.5 41t48.5 115q0 77 -50 118.5t-142 41.5h-304v-316zM358 590h273q180 0 180 151q0 68 -45 105t-129 37h-279v-293
z" />
    <glyph glyph-name="uni0433" unicode="&#x433;" horiz-adv-x="884" 
d="M844 860h-486v-860h-174v1024h660v-164z" />
    <glyph glyph-name="uni0434" unicode="&#x434;" horiz-adv-x="1200" 
d="M188 -287h-168v451h146q74 134 100 289q29 164 29 571h694v-860h170v-451h-168v287h-803v-287zM336 164h479v698h-369q-6 -245 -26 -407q-20 -155 -84 -291z" />
    <glyph glyph-name="uni0435" unicode="&#x435;" horiz-adv-x="1095" 
d="M559 -25q-221 0 -344 136.5t-123 388.5q0 257 123 403t342 146q209 0 322.5 -118.5t113.5 -346.5v-123h-727q1 -151 84.5 -241.5t220.5 -90.5q98 0 168.5 50.5t104.5 144.5l143 -64q-54 -139 -163.5 -212t-264.5 -73zM266 602h551v23q0 140 -68.5 213t-195.5 73
q-134 0 -209 -81.5t-78 -227.5z" />
    <glyph glyph-name="uni0436" unicode="&#x436;" horiz-adv-x="1615" 
d="M729 0v444h-194l-289 -444h-215l362 539l-338 485h197l283 -438h194v438h158v-438h194l283 438h197l-338 -485l362 -539h-215l-289 444h-194v-444h-158z" />
    <glyph glyph-name="uni0437" unicode="&#x437;" horiz-adv-x="1015" 
d="M526 -25q-175 0 -292.5 79t-141.5 229l174 22q19 -92 88 -141t178 -49q102 0 166 43.5t64 134.5q0 85 -56.5 124.5t-173.5 39.5h-155v141h149q211 0 211 147q0 81 -61.5 120.5t-157.5 39.5q-209 0 -250 -203l-176 23q30 164 145.5 244t290.5 80q108 0 191 -28.5
t135.5 -93t52.5 -159.5q0 -86 -46.5 -147.5t-137.5 -90.5q211 -52 211 -247q0 -140 -114 -224t-294 -84z" />
    <glyph glyph-name="uni0438" unicode="&#x438;" horiz-adv-x="1230" 
d="M184 0v1024h168v-690v-197h8q21 82 64 164l373 723h250v-1024h-168v715v172h-9q-22 -86 -63 -164l-373 -723h-250z" />
    <glyph glyph-name="uni0439" unicode="&#x439;" horiz-adv-x="1230" 
d="M184 0v1024h168v-690v-197h8q21 82 64 164l373 723h250v-1024h-168v715v172h-9q-22 -86 -63 -164l-373 -723h-250z" />
    <glyph glyph-name="uni043A" unicode="&#x43a;" horiz-adv-x="1079" 
d="M184 0v1024h174v-438h187l282 438h197l-338 -485l363 -539h-215l-291 444h-185v-444h-174z" />
    <glyph glyph-name="uni043B" unicode="&#x43b;" horiz-adv-x="1189" 
d="M41 -10v153q20 -4 43 -4q81 0 119 72t49 229q21 285 29 584h725v-1026h-175v862h-395q-15 -276 -24 -428q-17 -243 -89 -345.5t-214 -102.5q-38 0 -68 6z" />
    <glyph glyph-name="uni043C" unicode="&#x43c;" horiz-adv-x="1531" 
d="M1124 725l-264 -725h-188l-264 725q-30 78 -52 162h-8v-187v-700h-164v1024h285l256 -739q23 -69 39 -138h6q16 59 43 138l258 739h277v-1024h-164v700v187h-8q-22 -84 -52 -162z" />
    <glyph glyph-name="uni043D" unicode="&#x43d;" horiz-adv-x="1204" 
d="M358 1024v-428h488v428h174v-1024h-174v455h-488v-455h-174v1024h174z" />
    <glyph glyph-name="uni043E" unicode="&#x43e;" horiz-adv-x="1138" 
d="M569 -25q-218 0 -347.5 144t-129.5 393t129.5 393t347.5 144t348 -144t130 -393t-130 -393t-348 -144zM276 512q0 -188 76.5 -286.5t216.5 -98.5t216.5 98.5t76.5 286.5t-76.5 286.5t-216.5 98.5t-216.5 -98.5t-76.5 -286.5z" />
    <glyph glyph-name="uni043F" unicode="&#x43f;" horiz-adv-x="1193" 
d="M184 0v1024h826v-1024h-174v860h-478v-860h-174z" />
    <glyph glyph-name="uni0440" unicode="&#x440;" horiz-adv-x="1187" 
d="M184 -399v1423h164v-190q49 105 135 160t199 55q186 0 300 -147t114 -390q0 -244 -118 -390.5t-306 -146.5q-113 0 -195.5 53.5t-118.5 133.5v-561h-174zM354 489q0 -166 74.5 -263t202.5 -97q131 0 205.5 101.5t74.5 281.5q0 181 -72.5 282t-201.5 101
q-130 0 -206.5 -95.5t-76.5 -260.5v-50z" />
    <glyph glyph-name="uni0441" unicode="&#x441;" horiz-adv-x="1077" 
d="M563 -25q-215 0 -343 145.5t-128 391.5q0 250 126 393.5t345 143.5q180 0 291 -98t131 -275l-178 -21q-13 116 -78 179t-170 63q-132 0 -207.5 -101.5t-75.5 -281.5q0 -184 76 -285.5t213 -101.5q104 0 168 62t84 182l166 -27q-28 -175 -138 -272t-282 -97z" />
    <glyph glyph-name="uni0442" unicode="&#x442;" horiz-adv-x="991" 
d="M41 860v164h909v-164h-366v-860h-174v860h-369z" />
    <glyph glyph-name="uni0443" unicode="&#x443;" horiz-adv-x="997" 
d="M188 -410q-44 0 -94 9v153q27 -4 74 -4q91 0 144 44t89 145l27 75l-408 1012h195l262 -713q24 -68 35 -121h4q6 28 35 121l237 713h189l-399 -1090q-68 -187 -162 -265.5t-228 -78.5z" />
    <glyph glyph-name="uni0444" unicode="&#x444;" horiz-adv-x="1650" 
d="M741 1485h168v-602q84 166 279 166q98 0 170.5 -39.5t116 -113t64 -169t20.5 -215.5q0 -123 -21.5 -220t-65.5 -169t-116.5 -110t-169.5 -38q-181 0 -277 146v-522h-168v522q-96 -146 -276 -146q-97 0 -169.5 38t-116.5 110t-65.5 169t-21.5 220q0 120 20.5 215.5t64 169
t116 113t170.5 39.5q194 0 278 -166v602zM276 512q0 -217 58 -310t172 -93q119 0 177 80t58 217v204q0 131 -62 218t-169 87q-122 0 -178 -91.5t-56 -311.5zM909 406q0 -137 58 -217t178 -80q114 0 171.5 93t57.5 310q0 221 -55.5 312t-177.5 91q-107 0 -169.5 -87
t-62.5 -218v-204z" />
    <glyph glyph-name="uni0445" unicode="&#x445;" horiz-adv-x="1013" 
d="M31 0l370 528l-344 496h205l187 -289q50 -78 59 -106h2q14 36 57 106l176 289h213l-338 -508l365 -516h-207l-211 315q-49 73 -57 105h-2q-8 -27 -60 -105l-208 -315h-207z" />
    <glyph glyph-name="uni0446" unicode="&#x446;" horiz-adv-x="1214" 
d="M184 0v1024h174v-860h473v860h175v-860h168v-451h-168v287h-822z" />
    <glyph glyph-name="uni0447" unicode="&#x447;" horiz-adv-x="1118" 
d="M276 752q0 -130 55 -183t199 -53q121 0 230 45v463h174v-1024h-174v426q-120 -53 -285 -53q-195 0 -284 87t-89 283v281h174v-272z" />
    <glyph glyph-name="uni0448" unicode="&#x448;" horiz-adv-x="1693" 
d="M1335 1024h174v-1024h-1325v1024h174v-860h402v860h174v-860h401v860z" />
    <glyph glyph-name="uni0449" unicode="&#x449;" horiz-adv-x="1716" 
d="M1335 1024h174v-860h166v-451h-168v287h-1323v1024h174v-860h402v860h174v-860h401v860z" />
    <glyph glyph-name="uni044A" unicode="&#x44a;" horiz-adv-x="1222" 
d="M41 860v164h481v-348h250q175 0 272 -88t97 -250q0 -163 -97 -250.5t-272 -87.5h-424v860h-307zM522 141h221q116 0 170 49.5t54 147.5t-53.5 148.5t-170.5 50.5h-221v-396z" />
    <glyph glyph-name="uni044B" unicode="&#x44b;" horiz-adv-x="1058" 
d="M977 338q0 -163 -97 -250.5t-272 -87.5h-424v1024h174v-348h250q175 0 272 -88t97 -250zM358 141h222q116 0 169.5 49.5t53.5 147.5t-53 148.5t-170 50.5h-222v-396z" />
    <glyph glyph-name="uni044C" unicode="&#x44c;" horiz-adv-x="1058" 
d="M977 338q0 -163 -97 -250.5t-272 -87.5h-424v1024h174v-348h250q175 0 272 -88t97 -250zM358 141h222q116 0 169.5 49.5t53.5 147.5t-53 148.5t-170 50.5h-222v-396z" />
    <glyph glyph-name="uni044D" unicode="&#x44d;" horiz-adv-x="1048" 
d="M500 -25q-167 0 -279 89t-129 231l162 20q22 -97 86.5 -147.5t165.5 -50.5q138 0 202.5 78t71.5 258h-415v141h415q-12 162 -77.5 239.5t-196.5 77.5q-197 0 -250 -204l-164 20q28 157 141.5 239.5t272.5 82.5q116 0 203.5 -40.5t141 -113.5t79.5 -169t26 -214
q0 -250 -117.5 -393.5t-338.5 -143.5z" />
    <glyph glyph-name="uni044E" unicode="&#x44e;" horiz-adv-x="1572" 
d="M1004 -25q-203 0 -330 128.5t-142 351.5h-174v-455h-174v1024h174v-428h177q22 212 147 332.5t322 120.5q218 0 347.5 -144t129.5 -393t-129.5 -393t-347.5 -144zM172 1214v220h199v-220h-199zM711 512q0 -188 76.5 -286.5t216.5 -98.5t216 98.5t76 286.5t-76 286.5
t-216 98.5t-216.5 -98.5t-76.5 -286.5z" />
    <glyph glyph-name="uni044F" unicode="&#x44f;" horiz-adv-x="1132" 
d="M117 707q0 154 101.5 235.5t273.5 81.5h456v-1024h-174v387h-217l-254 -387h-201l271 399q-120 25 -188 103.5t-68 204.5zM301 707q0 -181 213 -181h260v357h-260q-213 0 -213 -176z" />
    <glyph glyph-name="uni0451" unicode="&#x451;" horiz-adv-x="1095" 
d="M559 -25q-221 0 -344 136.5t-123 388.5q0 257 123 403t342 146q209 0 322.5 -118.5t113.5 -346.5v-123h-727q1 -151 84.5 -241.5t220.5 -90.5q98 0 168.5 50.5t104.5 144.5l143 -64q-54 -139 -163.5 -212t-264.5 -73zM266 602h551v23q0 140 -68.5 213t-195.5 73
q-134 0 -209 -81.5t-78 -227.5z" />
    <glyph glyph-name="uni0454" unicode="&#x454;" horiz-adv-x="1050" 
d="M680 594v-141h-412q11 -156 80 -246t205 -90q95 0 154.5 45t83.5 153l159 -20q-11 -137 -123 -228.5t-274 -91.5q-225 0 -343 143t-118 394q0 118 26.5 214t81 169.5t144.5 113.5t211 40q159 0 268 -91.5t135 -228.5l-170 -22q-29 105 -88 152.5t-163 47.5
q-125 0 -190.5 -83.5t-76.5 -229.5h410z" />
    <glyph glyph-name="uni0455" unicode="&#x455;" horiz-adv-x="1028" 
d="M532 -25q-183 0 -298.5 82.5t-141.5 233.5l176 31q19 -97 89 -150t182 -53q100 0 156.5 43.5t56.5 111.5q0 65 -37.5 98t-110.5 46l-201 37q-132 25 -202 97.5t-70 188.5q0 135 105.5 221.5t283.5 86.5q172 0 281.5 -74t124.5 -203l-172 -39q-18 80 -79.5 127t-162.5 47
q-99 0 -155 -41t-56 -116q0 -118 158 -146l198 -37q137 -26 202 -95t65 -183q0 -141 -104 -227.5t-288 -86.5z" />
    <glyph glyph-name="uni0458" unicode="&#x458;" horiz-adv-x="538" 
d="M94 -414q-75 0 -125 13v149q59 -4 101 -4q60 0 85 36t25 136v1108h174v-1126q0 -312 -260 -312zM168 1214v220h199v-220h-199z" />
    <glyph glyph-name="Wgrave" unicode="&#x1e80;" horiz-adv-x="1867" 
d="M397 0l-346 1454h199l252 -1171q9 -43 12 -80h6q2 17 17 80l299 1171h196l299 -1171q15 -63 17 -80h6q3 37 12 80l252 1171h199l-347 -1454h-237l-283 1135q-10 42 -12 67h-8q-2 -25 -12 -67l-283 -1135h-238z" />
    <glyph glyph-name="wgrave" unicode="&#x1e81;" horiz-adv-x="1499" 
d="M340 0l-289 1024h180l185 -731q13 -61 22 -121h4q4 24 15 70t12 51l186 731h189l186 -731q1 -5 12 -51t15 -70h4q9 60 22 121l185 731h180l-289 -1024h-190l-195 737q-15 63 -22 115h-4q-6 -43 -23 -115l-195 -737h-190z" />
    <glyph glyph-name="Wacute" unicode="&#x1e82;" horiz-adv-x="1867" 
d="M397 0l-346 1454h199l252 -1171q9 -43 12 -80h6q2 17 17 80l299 1171h196l299 -1171q15 -63 17 -80h6q3 37 12 80l252 1171h199l-347 -1454h-237l-283 1135q-10 42 -12 67h-8q-2 -25 -12 -67l-283 -1135h-238z" />
    <glyph glyph-name="wacute" unicode="&#x1e83;" horiz-adv-x="1499" 
d="M340 0l-289 1024h180l185 -731q13 -61 22 -121h4q4 24 15 70t12 51l186 731h189l186 -731q1 -5 12 -51t15 -70h4q9 60 22 121l185 731h180l-289 -1024h-190l-195 737q-15 63 -22 115h-4q-6 -43 -23 -115l-195 -737h-190z" />
    <glyph glyph-name="Wdieresis" unicode="&#x1e84;" horiz-adv-x="1867" 
d="M397 0l-346 1454h199l252 -1171q9 -43 12 -80h6q2 17 17 80l299 1171h196l299 -1171q15 -63 17 -80h6q3 37 12 80l252 1171h199l-347 -1454h-237l-283 1135q-10 42 -12 67h-8q-2 -25 -12 -67l-283 -1135h-238z" />
    <glyph glyph-name="wdieresis" unicode="&#x1e85;" horiz-adv-x="1499" 
d="M340 0l-289 1024h180l185 -731q13 -61 22 -121h4q4 24 15 70t12 51l186 731h189l186 -731q1 -5 12 -51t15 -70h4q9 60 22 121l185 731h180l-289 -1024h-190l-195 737q-15 63 -22 115h-4q-6 -43 -23 -115l-195 -737h-190z" />
    <glyph glyph-name="Ygrave" unicode="&#x1ef2;" horiz-adv-x="1224" 
d="M514 0v580l-494 874h218l333 -616q31 -61 39 -84h4q8 23 39 84l334 616h217l-493 -874v-580h-197z" />
    <glyph glyph-name="ygrave" unicode="&#x1ef3;" horiz-adv-x="997" 
d="M188 -410q-44 0 -94 9v153q27 -4 74 -4q91 0 144 44t89 145l27 75l-408 1012h195l262 -713q24 -68 35 -121h4q6 28 35 121l237 713h189l-399 -1090q-68 -187 -162 -265.5t-228 -78.5z" />
    </font>
</defs>
</svg>
