<?xml version="1.0" standalone="no"?>
<!DOCTYPE svg PUBLIC "-//W3C//DTD SVG 1.1//EN" "http://www.w3.org/Graphics/SVG/1.1/DTD/svg11.dtd" >
<svg xmlns="http://www.w3.org/2000/svg" xmlns:xlink="http://www.w3.org/1999/xlink" version="1.1">
<metadata>
Created by FontForge 20201107 at Thu Jul  4 08:42:50 2024
 By 
Copyright 2019 CoType Foundry. All Rights Reserved
</metadata>
<defs>
<font id="Ambit-Bold" horiz-adv-x="1196" >
  <font-face 
    font-family="Ambit Bold"
    font-weight="700"
    font-stretch="normal"
    units-per-em="2048"
    panose-1="0 0 8 0 0 0 0 0 0 0"
    ascent="1536"
    descent="-512"
    x-height="1008"
    cap-height="1423"
    bbox="-774 -477 2873 1833"
    underline-thickness="194"
    underline-position="-513"
    unicode-range="U+000D-FB03"
  />
<missing-glyph horiz-adv-x="1269" 
d="M123 -223v1698h1024v-1698h-1024zM444 1294q-84 0 -129 -48.5t-45 -135.5t45 -135.5t129 -48.5q65 0 106 37.5t46 99.5h-94q-15 -59 -62 -59q-71 0 -71 106q0 107 71 107q47 0 62 -62h94q-5 63 -45.5 101t-106.5 38zM807 1294q-81 0 -129.5 -51.5t-48.5 -132.5
q0 -82 48.5 -133t129.5 -51q79 0 128.5 51t49.5 133q0 80 -49.5 132t-128.5 52zM887 1110q0 -106 -80 -106t-80 106q0 107 80 107t80 -107zM590 819h-299v-82h100v-282h96v282h103v82zM854 455v135l131 229h-106l-72 -133l-68 133h-112l131 -229v-135h96zM416 94h57
q62 0 99.5 34t37.5 91t-38 92t-99 35h-151v-364h94v112zM692 -18h256v81h-160v64h123v76h-123v61h154v82h-250v-364zM416 268h49q49 0 49 -49q0 -47 -49 -47h-49v96z" />
    <glyph glyph-name="f_f" unicode="ff" horiz-adv-x="1349" 
d="M1024 1133q0 -61 47 -123h266v-242h-241v-768h-297v768h-328v-768h-297v768h-158v242h146q-33 76 -33 159q0 128 100 203q101 76 246 76q174 0 244 -76l-111 -188q-43 49 -108 49q-44 0 -72.5 -27t-28.5 -73q0 -61 47 -123h340q-32 74 -32 159q0 127 102 203
q101 76 246 76q245 0 321 -166l-182 -129q-35 80 -121 80q-42 0 -69 -27t-27 -73z" />
    <glyph glyph-name="fi" unicode="fi" horiz-adv-x="1216" 
d="M946 1126q-69 0 -117.5 46.5t-48.5 115.5t48.5 115.5t117.5 46.5q72 0 120 -46.5t48 -115.5t-48 -115.5t-120 -46.5zM471 0h-297v768h-158v242h146q-33 76 -33 159q0 128 100 203q101 76 246 76q174 0 244 -76l-111 -188q-43 49 -108 49q-44 0 -72.5 -27t-28.5 -73
q0 -61 47 -123h238v-242h-213v-768zM1094 0h-295v1010h295v-1010z" />
    <glyph glyph-name="fl" unicode="fl" horiz-adv-x="1216" 
d="M471 0h-297v768h-158v242h146q-33 76 -33 159q0 128 100 203q101 76 246 76q174 0 244 -76l-111 -188q-43 49 -108 49q-44 0 -72.5 -27t-28.5 -73q0 -61 47 -123h238v-242h-213v-768zM1094 0h-295v1423h295v-1423z" />
    <glyph glyph-name="f_f_i" unicode="ffi" horiz-adv-x="1839" 
d="M1571 1126q-72 0 -120 46.5t-48 115.5t48 115.5t120 46.5q69 0 117.5 -46.5t48.5 -115.5t-48.5 -115.5t-117.5 -46.5zM1124 1233q-44 0 -72 -27t-28 -73q0 -61 47 -123h238v-242h-213v-768h-297v768h-328v-768h-297v768h-158v242h146q-33 76 -33 159q0 128 100 203
q101 76 246 76q174 0 244 -76l-111 -188q-43 49 -108 49q-44 0 -72.5 -27t-28.5 -73q0 -61 47 -123h340q-32 74 -32 159q0 128 100 203q101 76 246 76q173 0 243 -76l-110 -188q-43 49 -109 49zM1716 0h-295v1010h295v-1010z" />
    <glyph glyph-name="f_f_l" unicode="ffl" horiz-adv-x="1839" 
d="M1124 1233q-44 0 -72 -27t-28 -73q0 -61 47 -123h238v-242h-213v-768h-297v768h-328v-768h-297v768h-158v242h146q-33 76 -33 159q0 128 100 203q101 76 246 76q174 0 244 -76l-111 -188q-43 49 -108 49q-44 0 -72.5 -27t-28.5 -73q0 -61 47 -123h340q-32 74 -32 159
q0 128 100 203q101 76 246 76q173 0 243 -76l-110 -188q-43 49 -109 49zM1421 0v1423h297v-1423h-297z" />
    <glyph glyph-name=".notdef" horiz-adv-x="1269" 
d="M123 -223v1698h1024v-1698h-1024zM444 1294q-84 0 -129 -48.5t-45 -135.5t45 -135.5t129 -48.5q65 0 106 37.5t46 99.5h-94q-15 -59 -62 -59q-71 0 -71 106q0 107 71 107q47 0 62 -62h94q-5 63 -45.5 101t-106.5 38zM807 1294q-81 0 -129.5 -51.5t-48.5 -132.5
q0 -82 48.5 -133t129.5 -51q79 0 128.5 51t49.5 133q0 80 -49.5 132t-128.5 52zM887 1110q0 -106 -80 -106t-80 106q0 107 80 107t80 -107zM590 819h-299v-82h100v-282h96v282h103v82zM854 455v135l131 229h-106l-72 -133l-68 133h-112l131 -229v-135h96zM416 94h57
q62 0 99.5 34t37.5 91t-38 92t-99 35h-151v-364h94v112zM692 -18h256v81h-160v64h123v76h-123v61h154v82h-250v-364zM416 268h49q49 0 49 -49q0 -47 -49 -47h-49v96z" />
    <glyph glyph-name="uni0000" horiz-adv-x="1228" 
 />
    <glyph glyph-name="uni0000" horiz-adv-x="1228" 
 />
    <glyph glyph-name="nonmarkingreturn" horiz-adv-x="681" 
 />
    <glyph glyph-name="CR" unicode="&#xd;" horiz-adv-x="1228" 
 />
    <glyph glyph-name="space" unicode=" " horiz-adv-x="471" 
 />
    <glyph glyph-name="exclam" unicode="!" horiz-adv-x="589" 
d="M438 455h-276l-23 968h320zM295 -25q-76 0 -131 54t-55 131t55 130.5t131 53.5q80 0 134 -52.5t54 -131.5q0 -78 -54.5 -131.5t-133.5 -53.5z" />
    <glyph glyph-name="quotedbl" unicode="&#x22;" horiz-adv-x="921" 
d="M387 901h-252l-26 522h305zM786 901h-251l-27 522h305z" />
    <glyph glyph-name="numbersign" unicode="#" horiz-adv-x="1454" 
d="M1403 1100l-29 -221h-254l-45 -334h256l-31 -221h-258l-45 -324h-241l45 324h-260l-45 -324h-240l45 324h-252l31 221h254l45 334h-256l29 221h260l45 323h239l-45 -323h260l45 323h242l-45 -323h250zM573 545h261l45 334h-261z" />
    <glyph glyph-name="dollar" unicode="$" horiz-adv-x="1347" 
d="M1270 430q0 -192 -136 -315t-368 -142v-196h-178v198q-242 23 -377 139.5t-135 295.5q0 82 28 174l285 -68q-16 -53 -16 -94q0 -78 57.5 -132t157.5 -73v381h-4q-245 42 -359 147t-114 279q0 172 131 291q129 120 346 135v197h178v-201q228 -25 354 -147t140 -330
l-291 -37q-27 215 -203 268v-356l61 -10q230 -41 336.5 -140.5t106.5 -263.5zM406 1040q0 -119 182 -163v333q-86 -10 -134 -55.5t-48 -114.5zM766 567v-354q100 13 155.5 63t55.5 125q0 128 -193 162z" />
    <glyph glyph-name="percent" unicode="%" horiz-adv-x="2037" 
d="M745 758q-111 -111 -290 -111q-181 0 -289 111q-109 109 -109 289q0 183 109 292t289 109q181 0 290 -109t109 -292q0 -180 -109 -289zM696 0h-247l903 1423h247zM455 842q74 0 120 56.5t46 148.5q0 93 -46 150.5t-120 57.5q-72 0 -118 -57.5t-46 -150.5q0 -92 46 -148.5
t118 -56.5zM1872 86q-111 -111 -291 -111q-181 0 -289 111q-108 108 -108 289q0 183 108.5 292t288.5 109q181 0 291 -110q108 -111 108 -291q0 -181 -108 -289zM1581 168q74 0 120 57t46 150t-46 150t-120 57q-72 0 -118 -57.5t-46 -149.5t46 -149.5t118 -57.5z" />
    <glyph glyph-name="ampersand" unicode="&#x26;" horiz-adv-x="1531" 
d="M1460 281l53 -244q-61 -43 -149 -43q-86 0 -155.5 29t-168.5 104q-202 -156 -446 -156q-242 0 -393 109q-150 108 -150 287q0 239 289 389q-145 157 -145 309q0 172 127 281q124 106 329 106q197 0 310.5 -95t113.5 -261q0 -222 -291 -377l260 -232q78 120 119 320
l262 -45q-44 -256 -188 -438q88 -64 149 -64q47 0 74 21zM645 1221q-75 0 -118.5 -41t-43.5 -109q0 -46 27.5 -87t107.5 -114q93 50 135 99.5t42 111.5q0 63 -42 101.5t-108 38.5zM365 406q0 -90 65.5 -142.5t175.5 -52.5q131 0 246 80l-274 246q-11 10 -80 69
q-133 -83 -133 -200z" />
    <glyph glyph-name="quotesingle" unicode="'" horiz-adv-x="520" 
d="M387 901h-252l-26 522h305z" />
    <glyph glyph-name="parenleft" unicode="(" horiz-adv-x="757" 
d="M717 -104l-103 -191q-495 255 -495 893q0 636 495 897l103 -190q-350 -212 -350 -705q0 -498 350 -704z" />
    <glyph glyph-name="parenright" unicode=")" horiz-adv-x="757" 
d="M143 -295l-102 191q352 210 352 704q0 501 -352 705l102 190q498 -255 498 -893q0 -636 -498 -897z" />
    <glyph glyph-name="asterisk" unicode="*" horiz-adv-x="956" 
d="M477 846l-135 -193l-199 146l138 180l-207 63l73 234l211 -72l-2 219h246l-2 -217l209 70l76 -234l-207 -63l137 -180l-201 -146z" />
    <glyph glyph-name="plus" unicode="+" horiz-adv-x="1032" 
d="M641 735h317v-239h-317v-334h-258v334h-309v239h309v334h258v-334z" />
    <glyph glyph-name="comma" unicode="," horiz-adv-x="522" 
d="M254 336q88 0 143.5 -61.5t55.5 -163.5q0 -215 -193 -396l-137 97q96 87 108 188q-68 6 -112.5 51.5t-44.5 112.5q0 74 52 123t128 49z" />
    <glyph glyph-name="hyphen" unicode="-" horiz-adv-x="745" 
d="M653 461h-559v252h559v-252z" />
    <glyph glyph-name="period" unicode="." horiz-adv-x="520" 
d="M260 -25q-76 0 -131 54t-55 131t55 130.5t131 53.5q80 0 134.5 -52.5t54.5 -131.5q0 -78 -54.5 -131.5t-134.5 -53.5z" />
    <glyph glyph-name="slash" unicode="/" horiz-adv-x="925" 
d="M256 -205h-240l633 1700h238z" />
    <glyph glyph-name="zero" unicode="0" horiz-adv-x="1429" 
d="M1174 172q-171 -201 -459 -201t-459 201q-168 198 -168 539q0 342 168 540q171 201 459 201t459 -201q165 -198 165 -540q0 -341 -165 -539zM715 242q145 0 227 128t82 341t-82 342t-227 129q-147 0 -228 -128t-81 -343t81 -342t228 -127z" />
    <glyph glyph-name="one" unicode="1" horiz-adv-x="778" 
d="M618 0h-303v1016q-98 -76 -299 -76v281q318 -9 318 202h284v-1423z" />
    <glyph glyph-name="two" unicode="2" horiz-adv-x="1251" 
d="M1171 0h-1097v98q0 324 393 541l192 106q104 60 147.5 117t43.5 135q0 90 -60.5 142.5t-160.5 52.5q-108 0 -171 -61t-63 -154q0 -66 25 -127l-285 -76q-41 90 -41 205q0 191 144 332t407 141q232 0 373 -117q139 -121 139 -309q0 -160 -78.5 -269t-261.5 -206l-194 -105
q-162 -84 -189 -172h742z" />
    <glyph glyph-name="three" unicode="3" horiz-adv-x="1265" 
d="M643 -29q-270 0 -417.5 130.5t-147.5 347.5q0 90 28 182l287 -74q-16 -56 -16 -104q0 -106 68.5 -167t195.5 -61q108 0 172 52.5t64 140.5q0 85 -64.5 132.5t-179.5 47.5h-74v246h64q106 0 164.5 46.5t58.5 133.5q0 82 -56.5 128t-154.5 46q-113 0 -178.5 -74t-77.5 -206
l-295 43q32 227 176 359t389 132q237 0 371.5 -106t134.5 -291q0 -121 -79 -208.5t-199 -111.5q145 -25 227 -111.5t82 -224.5q0 -197 -146 -312.5t-397 -115.5z" />
    <glyph glyph-name="four" unicode="4" horiz-adv-x="1210" 
d="M993 0h-291v301h-657v303q196 175 320.5 385t156.5 434h312q-40 -252 -175 -483q-136 -229 -317 -367h360v256h291v-256h168v-272h-168v-301z" />
    <glyph glyph-name="five" unicode="5" horiz-adv-x="1226" 
d="M604 -29q-236 0 -383 113t-164 305l287 60q11 -99 79.5 -163.5t172.5 -64.5q106 0 174 67t68 175q0 106 -66.5 171.5t-175.5 65.5q-141 0 -246 -120l-231 69q54 331 69 774h879v-270h-627q-10 -194 -34 -346q103 121 296 121q202 0 324 -131q123 -132 123 -334
q0 -216 -150 -354t-395 -138z" />
    <glyph glyph-name="six" unicode="6" horiz-adv-x="1308" 
d="M680 -29q-275 0 -432 189q-160 189 -160 512q0 358 166 569t440 211q485 0 535 -422l-289 -47q-35 215 -244 215q-141 0 -224.5 -132t-82.5 -361q99 215 363 215q212 0 350 -123q138 -126 135 -338q0 -218 -156 -353t-401 -135zM680 211q109 0 179.5 66t70.5 169
t-70.5 169.5t-179.5 66.5q-110 0 -182 -67.5t-72 -170.5q0 -102 71.5 -167.5t182.5 -65.5z" />
    <glyph glyph-name="seven" unicode="7" horiz-adv-x="1075" 
d="M575 0h-305q18 657 459 1157h-723v266h1016v-274q-224 -292 -332.5 -567t-114.5 -582z" />
    <glyph glyph-name="eight" unicode="8" horiz-adv-x="1333" 
d="M666 -29q-263 0 -420 121q-158 122 -158 328q0 112 63.5 201.5t182.5 138.5q-90 44 -141.5 121.5t-51.5 175.5q0 181 150 289q144 106 375 106t378 -106q148 -109 148 -289q0 -98 -51.5 -176.5t-139.5 -120.5q117 -47 180.5 -137.5t63.5 -202.5q0 -206 -158 -328
q-157 -121 -421 -121zM666 866q97 0 158 49.5t61 128.5q0 78 -61 127.5t-158 49.5q-94 0 -155.5 -49.5t-61.5 -127.5q0 -79 61 -128.5t156 -49.5zM666 203q119 0 193.5 59t74.5 156q0 96 -75 156.5t-193 60.5q-117 0 -192 -60.5t-75 -156.5q0 -97 74.5 -156t192.5 -59z" />
    <glyph glyph-name="nine" unicode="9" horiz-adv-x="1314" 
d="M614 -29q-242 0 -378 112.5t-160 324.5l289 47q40 -230 247 -230q145 0 231.5 133t82.5 361q-102 -211 -351 -211q-217 0 -354 125q-141 123 -141 334q0 217 156 352q154 133 399 133q276 0 434 -186q158 -190 158 -512q0 -359 -166 -570q-171 -213 -447 -213zM457 811
q72 -66 180 -66q111 0 182 68q70 64 70 168q0 100 -71 165.5t-181 65.5q-109 0 -180.5 -66.5t-71.5 -166.5q0 -102 72 -168z" />
    <glyph glyph-name="colon" unicode=":" horiz-adv-x="561" 
d="M281 662q-76 0 -131.5 53.5t-55.5 130.5t55.5 130.5t131.5 53.5q80 0 134 -52.5t54 -131.5q0 -78 -54 -131t-134 -53zM281 -25q-76 0 -131.5 54t-55.5 131t55.5 130.5t131.5 53.5q80 0 134 -52.5t54 -131.5q0 -78 -54.5 -131.5t-133.5 -53.5z" />
    <glyph glyph-name="semicolon" unicode=";" horiz-adv-x="563" 
d="M281 662q-76 0 -131.5 53.5t-55.5 130.5t55.5 130.5t131.5 53.5q80 0 134 -52.5t54 -131.5q0 -78 -54 -131t-134 -53zM274 336q88 0 143.5 -61.5t55.5 -163.5q0 -216 -192 -396l-138 97q97 88 109 188q-68 6 -113 51.5t-45 112.5q0 74 52 123t128 49z" />
    <glyph glyph-name="less" unicode="&#x3c;" horiz-adv-x="1032" 
d="M911 436v-260l-796 313v265l796 313v-260l-520 -186z" />
    <glyph glyph-name="equal" unicode="=" horiz-adv-x="1032" 
d="M922 707h-813v239h813v-239zM922 283h-813v239h813v-239z" />
    <glyph glyph-name="greater" unicode="&#x3e;" horiz-adv-x="1032" 
d="M913 489l-794 -313v260l518 185l-518 186v260l794 -313v-265z" />
    <glyph glyph-name="question" unicode="?" horiz-adv-x="1169" 
d="M721 442h-299q0 102 40.5 177t135.5 137q112 77 151 129.5t39 122.5q0 83 -54.5 133.5t-145.5 50.5q-103 0 -164.5 -59.5t-61.5 -149.5q0 -57 23 -121l-287 -76q-41 90 -41 199q0 191 142 330q140 137 407 137q233 0 365.5 -114.5t132.5 -315.5q0 -126 -67.5 -223.5
t-211.5 -186.5q-59 -38 -80.5 -73.5t-23.5 -96.5zM561 -25q-78 0 -132 53.5t-54 131.5q0 79 53.5 131.5t132.5 52.5q80 0 133.5 -52.5t53.5 -131.5q0 -78 -54 -131.5t-133 -53.5z" />
    <glyph glyph-name="at" unicode="@" horiz-adv-x="1953" 
d="M948 -406q-374 0 -622 230t-248 592q0 367 264 604q259 235 657 235q388 0 639 -219q248 -217 248 -559q0 -259 -119 -381q-119 -125 -297 -125q-109 0 -178 43t-88 115q-94 -156 -289 -156q-175 0 -288 131q-115 130 -115 318q0 186 115 319q114 129 288 129
q186 0 271 -131v107h215v-551q0 -115 88 -115q74 0 116 79t42 220q0 249 -183 414q-186 160 -467 160q-296 0 -487 -176q-191 -179 -191 -461q0 -271 179 -447q175 -172 452 -172q210 0 391 111l62 -197q-187 -117 -455 -117zM975 182q92 0 151.5 70t59.5 170t-59.5 170
t-151.5 70q-97 0 -155 -67t-58 -173t58 -173t155 -67z" />
    <glyph glyph-name="A" unicode="A" horiz-adv-x="1411" 
d="M1413 0h-319l-119 342h-543l-115 -342h-319l508 1423h399zM698 1137l-186 -555h379z" />
    <glyph glyph-name="B" unicode="B" horiz-adv-x="1382" 
d="M795 0h-645v1423h595q238 0 362 -93.5t124 -272.5q0 -115 -68 -198.5t-176 -110.5q149 -36 228 -122t79 -220q0 -196 -129.5 -301t-369.5 -105zM455 1198v-354h254q219 0 219 182q0 172 -219 172h-254zM455 610v-385h276q119 0 182.5 49.5t63.5 141.5q0 93 -65 143.5
t-187 50.5h-270z" />
    <glyph glyph-name="C" unicode="C" horiz-adv-x="1517" 
d="M780 -29q-308 0 -506 207q-196 205 -196 533q0 320 203 532q200 209 512 209q258 0 426.5 -146t228.5 -417l-301 -78q-85 363 -367 363q-165 0 -274 -130t-109 -333q0 -205 109 -332q108 -129 280 -129q277 0 357 293l315 -51q-136 -521 -678 -521z" />
    <glyph glyph-name="D" unicode="D" horiz-adv-x="1525" 
d="M711 0h-561v1423h561q200 0 362.5 -80.5t265.5 -242.5q107 -165 107 -389q0 -217 -103.5 -383.5t-273.5 -247.5q-165 -80 -358 -80zM455 1145v-866h223q194 0 321 106q129 105 129 328q0 219 -129 327q-129 105 -321 105h-223z" />
    <glyph glyph-name="E" unicode="E" horiz-adv-x="1257" 
d="M1184 0h-1034v1423h1024v-264h-719v-309h587v-264h-587v-322h729v-264z" />
    <glyph glyph-name="F" unicode="F" 
d="M455 0h-305v1423h995v-278h-690v-330h563v-278h-563v-537z" />
    <glyph glyph-name="G" unicode="G" horiz-adv-x="1648" 
d="M766 -29q-299 0 -494 207q-194 206 -194 533q0 319 207 532q206 209 522 209q258 0 427 -122t220 -345l-309 -80q-32 134 -122.5 204.5t-225.5 70.5q-174 0 -287 -131t-113 -338q0 -217 121 -344t303 -127q159 0 268 83.5t128 223.5h-406v241h700v-788h-276v223
q-132 -252 -469 -252z" />
    <glyph glyph-name="H" unicode="H" horiz-adv-x="1542" 
d="M455 0h-305v1423h305v-561h632v561h306v-1423h-306v584h-632v-584z" />
    <glyph glyph-name="I" unicode="I" horiz-adv-x="602" 
d="M455 0h-305v1423h305v-1423z" />
    <glyph glyph-name="J" unicode="J" horiz-adv-x="1222" 
d="M567 -29q-241 0 -376.5 133t-135.5 359q0 76 23 188l297 -53q-13 -67 -13 -119q0 -112 53 -173.5t154 -61.5q222 0 222 305v874h305v-944q0 -241 -139 -374.5t-390 -133.5z" />
    <glyph glyph-name="K" unicode="K" horiz-adv-x="1404" 
d="M1315 281q31 0 49 6v-283q-38 -12 -74 -12q-181 0 -303 94t-297 354l-104 156l-131 -154v-442h-305v1423h305v-663l540 663h361l-533 -635l144 -206q122 -177 194 -240q70 -61 154 -61z" />
    <glyph glyph-name="L" unicode="L" horiz-adv-x="1124" 
d="M1104 0h-954v1423h305v-1144h649v-279z" />
    <glyph glyph-name="M" unicode="M" horiz-adv-x="1859" 
d="M455 0h-305v1423h425l359 -792l348 792h428v-1423h-305v1055l-340 -756h-270l-340 756v-1055z" />
    <glyph glyph-name="N" unicode="N" horiz-adv-x="1540" 
d="M444 0h-294v1423h305l641 -956v956h295v-1423h-308l-639 954v-954z" />
    <glyph glyph-name="O" unicode="O" horiz-adv-x="1619" 
d="M1333 180q-206 -209 -524 -209t-524 209q-207 210 -207 531q0 319 207 532q206 209 524 209t524 -209q207 -213 207 -532q0 -321 -207 -531zM809 250q182 0 297 127t115 334q0 206 -115 336q-115 127 -297 127q-180 0 -295 -127q-115 -130 -115 -336q0 -207 115 -334
t295 -127z" />
    <glyph glyph-name="P" unicode="P" horiz-adv-x="1329" 
d="M455 0h-305v1423h602q235 0 381 -125q145 -127 145 -340t-145 -340q-145 -124 -381 -124h-297v-494zM455 1159v-403h264q116 0 177.5 52.5t61.5 149.5t-62.5 149t-180.5 52h-260z" />
    <glyph glyph-name="Q" unicode="Q" horiz-adv-x="1619" 
d="M1376 61l213 -86q-70 -292 -329 -292q-254 0 -379 290q-7 0 -35.5 -1t-36.5 -1q-318 0 -524 209q-207 210 -207 531q0 319 207 532q206 209 524 209t524 -209q207 -213 207 -532q0 -239 -117 -420q-120 -182 -319 -264q58 -99 151 -99q94 0 121 133zM514 1047
q-115 -130 -115 -336q0 -207 115 -334t295 -127q182 0 297 127t115 334q0 206 -115 336q-115 127 -297 127q-180 0 -295 -127z" />
    <glyph glyph-name="R" unicode="R" horiz-adv-x="1406" 
d="M1300 281q31 0 52 6v-283q-38 -12 -88 -12q-195 0 -326 94q-135 93 -248 350l-43 88h-192v-524h-305v1423h638q232 0 373 -120q142 -121 142 -332q0 -161 -88 -266.5t-248 -137.5q84 -161 161 -223.5t172 -62.5zM752 1159h-297v-373h301q227 0 227 187q0 186 -231 186z
" />
    <glyph glyph-name="S" unicode="S" horiz-adv-x="1347" 
d="M686 -29q-284 0 -448 123q-162 119 -162 316q0 82 28 174l293 -68q-16 -43 -16 -94q0 -92 85 -146.5t226 -54.5q128 0 201.5 48t73.5 132q0 129 -193 166l-188 33q-245 42 -360 146.5t-115 277.5q0 185 149 307q148 121 393 121q278 0 426.5 -122.5t165.5 -358.5
l-301 -37q-35 268 -301 268q-101 0 -164 -44.5t-63 -117.5q0 -132 223 -172l188 -32q230 -41 336.5 -140.5t106.5 -265.5q0 -205 -160 -332q-165 -127 -424 -127z" />
    <glyph glyph-name="T" unicode="T" horiz-adv-x="1261" 
d="M784 0h-305v1145h-438v278h1180v-278h-437v-1145z" />
    <glyph glyph-name="U" unicode="U" horiz-adv-x="1486" 
d="M1200 127q-159 -156 -457 -156t-454 156q-160 157 -160 442v854h305v-819q0 -172 78.5 -263t230.5 -91q150 0 230 91.5t80 262.5v819h305v-854q0 -287 -158 -442z" />
    <glyph glyph-name="V" unicode="V" horiz-adv-x="1347" 
d="M872 0h-397l-485 1423h319l371 -1114l358 1114h320z" />
    <glyph glyph-name="W" unicode="W" horiz-adv-x="1976" 
d="M705 0h-340l-355 1423h314l237 -1034l264 1034h326l279 -1034l223 1034h313l-354 -1423h-342l-281 999z" />
    <glyph glyph-name="X" unicode="X" horiz-adv-x="1368" 
d="M356 0h-346l482 729l-455 694h358l305 -481l297 481h349l-461 -700l475 -723h-361l-325 512z" />
    <glyph glyph-name="Y" unicode="Y" horiz-adv-x="1327" 
d="M813 0h-305v553l-518 870h350l326 -569l323 569h348l-524 -870v-553z" />
    <glyph glyph-name="Z" unicode="Z" horiz-adv-x="1251" 
d="M1200 0h-1151v250l737 895h-710v278h1098v-249l-738 -895h764v-279z" />
    <glyph glyph-name="bracketleft" unicode="[" horiz-adv-x="745" 
d="M694 1495v-211h-256v-1368h256v-211h-497v1790h497z" />
    <glyph glyph-name="backslash" unicode="\" horiz-adv-x="929" 
d="M913 -205h-243l-633 1700h244z" />
    <glyph glyph-name="bracketright" unicode="]" horiz-adv-x="745" 
d="M51 1495h498v-1790h-498v209h256v1372h-256v209z" />
    <glyph glyph-name="asciicircum" unicode="^" horiz-adv-x="1040" 
d="M356 844h-266l303 577h258l301 -577h-268l-166 319z" />
    <glyph glyph-name="underscore" unicode="_" horiz-adv-x="960" 
d="M940 -283h-920v238h920v-238z" />
    <glyph glyph-name="grave" unicode="`" horiz-adv-x="819" 
d="M530 1118h-223l-254 297h303z" />
    <glyph glyph-name="a" unicode="a" horiz-adv-x="1146" 
d="M453 -25q-174 0 -280.5 85.5t-106.5 230.5q0 135 112 225q112 92 283 92q166 0 276 -98v108q0 187 -180 187q-161 0 -207 -168l-274 45q45 164 176.5 258t325.5 94q220 0 338 -107t118 -321v-606h-278v123q-50 -68 -133 -108t-170 -40zM528 172q121 0 209 125v20
q-88 101 -209 101q-73 0 -118 -34.5t-45 -88.5q0 -55 44.5 -89t118.5 -34z" />
    <glyph glyph-name="b" unicode="b" horiz-adv-x="1257" 
d="M729 -25q-113 0 -198 49.5t-130 137.5v-162h-278v1423h295v-567q102 178 317 178q201 0 332 -149q133 -151 133 -381q0 -228 -133 -379q-135 -150 -338 -150zM657 205q110 0 174 80t64 219q0 141 -63.5 221t-174.5 80q-99 0 -170 -86q-69 -84 -69 -215q0 -129 69 -213
q71 -86 170 -86z" />
    <glyph glyph-name="c" unicode="c" horiz-adv-x="1114" 
d="M586 -25q-239 0 -383 138q-146 140 -146 391q0 227 146 379q145 151 360 151q204 0 338 -110t170 -326l-280 -57q-18 128 -75.5 196t-140.5 68q-100 0 -156.5 -80.5t-56.5 -220.5q0 -137 61.5 -218t166.5 -81q156 0 223 205l256 -109q-77 -163 -193 -244.5t-290 -81.5z
" />
    <glyph glyph-name="d" unicode="d" horiz-adv-x="1257" 
d="M528 -25q-203 0 -335 150q-136 151 -136 379q0 230 133 381q131 149 332 149q228 0 316 -166v555h297v-1423h-279v172q-102 -197 -328 -197zM598 205q101 0 172 86q68 86 68 213q0 129 -68.5 215t-171.5 86q-109 0 -172.5 -80.5t-63.5 -220.5q0 -139 63.5 -219t172.5 -80
z" />
    <glyph glyph-name="e" unicode="e" horiz-adv-x="1161" 
d="M860 369l234 -117q-138 -277 -484 -277q-244 0 -397 144q-156 144 -156 385q0 232 154 383q150 147 383 147q230 0 362 -141q131 -140 131 -375q0 -68 -2 -80h-720q11 -109 77 -171t172 -62q160 0 246 164zM584 815q-88 0 -146 -55t-71 -152h417q-15 207 -200 207z" />
    <glyph glyph-name="f" unicode="f" horiz-adv-x="724" 
d="M471 0h-297v768h-158v242h146q-33 76 -33 159q0 127 102 203q101 76 246 76q246 0 322 -166l-183 -129q-35 80 -120 80q-42 0 -69.5 -27t-27.5 -73q0 -61 47 -123h267v-242h-242v-768z" />
    <glyph glyph-name="g" unicode="g" horiz-adv-x="1183" 
d="M961 995q-43 0 -70 -65q106 -93 106 -238q0 -164 -123 -252q-128 -90 -315 -90q-84 0 -174 23q-57 -20 -57 -72q0 -30 21 -47.5t59 -17.5h374q392 0 392 -304q0 -177 -162 -284q-163 -105 -412 -105q-274 0 -416.5 74.5t-142.5 212.5q0 131 166 201q-115 68 -115 196
q0 141 146 219q-115 92 -115 246q0 164 123 252q125 90 313 90q109 0 186 -26q86 176 250 176q92 0 150.5 -60.5t58.5 -179.5v-35l-178 -24q-6 110 -65 110zM442 586q44 -38 117 -38t117 38q45 36 45 106q8 88 -77 125t-170 0t-77 -125q0 -70 45 -106zM735 -25h-282
q-63 0 -101.5 -28t-38.5 -72q0 -127 283 -127q127 0 207 41.5t80 104.5q0 44 -34.5 62.5t-113.5 18.5z" />
    <glyph glyph-name="h" unicode="h" horiz-adv-x="1208" 
d="M418 0h-295v1423h295v-557q107 168 307 168q178 0 274.5 -105t96.5 -296v-633h-297v586q0 207 -174 207q-92 0 -149.5 -61t-57.5 -165v-567z" />
    <glyph glyph-name="i" unicode="i" horiz-adv-x="540" 
d="M270 1126q-69 0 -117.5 46.5t-48.5 115.5t48.5 115.5t117.5 46.5q72 0 120 -46.5t48 -115.5t-48 -115.5t-120 -46.5zM418 0h-295v1010h295v-1010z" />
    <glyph glyph-name="j" unicode="j" horiz-adv-x="540" 
d="M270 1126q-69 0 -117.5 46.5t-48.5 115.5t48.5 115.5t117.5 46.5q72 0 120 -46.5t48 -115.5t-48 -115.5t-120 -46.5zM104 -457q-148 0 -258 72l82 231q56 -59 117 -59q78 0 78 98v1125h295v-1143q0 -163 -85.5 -243.5t-228.5 -80.5z" />
    <glyph glyph-name="k" unicode="k" horiz-adv-x="1148" 
d="M727 571l74 -114q73 -112 131 -160q51 -45 131 -45q36 0 63 10l-4 -262q-46 -12 -108 -12q-147 0 -245.5 64t-195.5 222l-77 127l-78 -77v-324h-295v1423h295v-831l368 418h349z" />
    <glyph glyph-name="l" unicode="l" horiz-adv-x="540" 
d="M418 0h-295v1423h295v-1423z" />
    <glyph glyph-name="m" unicode="m" horiz-adv-x="1855" 
d="M1364 1034q183 0 280 -104.5t97 -296.5v-633h-295v590q0 203 -166 203q-89 0 -145 -60t-56 -164v-569h-295v590q0 203 -166 203q-89 0 -144.5 -60t-55.5 -164v-569h-295v1010h278v-144q107 168 304 168q219 0 321 -170q114 170 338 170z" />
    <glyph glyph-name="n" unicode="n" horiz-adv-x="1208" 
d="M418 0h-295v1010h278v-144q107 168 308 168q185 0 286 -105t101 -296v-633h-297v586q0 207 -174 207q-92 0 -149.5 -61t-57.5 -165v-567z" />
    <glyph glyph-name="o" unicode="o" 
d="M598 -25q-239 0 -389 150q-152 149 -152 379q0 231 152 383q150 147 389 147q241 0 391 -147q152 -152 152 -383q0 -230 -152 -379q-150 -150 -391 -150zM426 285q65 -80 172 -80t172 80q64 79 64 219q0 139 -64 221q-65 80 -172 80t-172 -80q-64 -79 -64 -221
q0 -140 64 -219z" />
    <glyph glyph-name="p" unicode="p" horiz-adv-x="1257" 
d="M418 -430h-295v1440h278v-162q45 87 131 136.5t197 49.5q204 0 338 -149q133 -151 133 -381q0 -228 -133 -379q-132 -150 -332 -150q-226 0 -317 166v-571zM657 205q110 0 174 80t64 219t-64 220t-174 81q-99 0 -170 -86q-69 -84 -69 -215q0 -129 69 -213q71 -86 170 -86
z" />
    <glyph glyph-name="q" unicode="q" horiz-adv-x="1257" 
d="M1135 -430h-297v584q-95 -179 -316 -179q-200 0 -332 150q-133 151 -133 379q0 230 136 381q131 149 335 149q111 0 197 -49.5t131 -136.5v162h279v-1440zM598 207q101 0 172 86q68 86 68 211q0 127 -68 213q-71 86 -172 86q-109 0 -172.5 -80t-63.5 -219
q0 -137 63.5 -217t172.5 -80z" />
    <glyph glyph-name="r" unicode="r" horiz-adv-x="999" 
d="M418 0h-295v1010h278v-183q82 199 291 199q126 0 205.5 -83t79.5 -222q0 -77 -29 -172l-268 29q10 45 10 81q0 132 -104 132q-73 0 -120.5 -77.5t-47.5 -205.5v-508z" />
    <glyph glyph-name="s" unicode="s" horiz-adv-x="1067" 
d="M543 -25q-224 0 -360.5 95.5t-137.5 259.5l279 32q18 -180 227 -180q158 0 158 105q0 41 -25.5 61t-89.5 31l-115 20q-102 17 -176.5 45t-132.5 80q-80 77 -80 207q0 140 122 221.5t335 81.5q192 0 310 -80.5t142 -214.5l-262 -63q-38 151 -194 151q-73 0 -115.5 -26
t-42.5 -70q0 -43 30.5 -65.5t104.5 -34.5l115 -19q159 -24 256 -84q115 -73 115 -233q0 -150 -127.5 -235t-335.5 -85z" />
    <glyph glyph-name="t" unicode="t" horiz-adv-x="901" 
d="M502 -25q-340 0 -340 342v451h-142v242h156l74 290h207v-290h393v-242h-393v-428q0 -109 82 -109q40 0 72.5 36t68.5 118l221 -121q-147 -289 -399 -289z" />
    <glyph glyph-name="u" unicode="u" 
d="M492 -25q-182 0 -280.5 105.5t-98.5 298.5v631h297v-590q0 -203 165 -203q90 0 145.5 58.5t55.5 160.5v574h297v-1010h-280v143q-107 -168 -301 -168z" />
    <glyph glyph-name="v" unicode="v" horiz-adv-x="1064" 
d="M700 0h-333l-377 1010h313l232 -697l227 697h313z" />
    <glyph glyph-name="w" unicode="w" horiz-adv-x="1607" 
d="M629 0h-305l-310 1010h305l166 -672l170 672h297l174 -672l162 672h305l-309 -1010h-305l-176 655z" />
    <glyph glyph-name="x" unicode="x" horiz-adv-x="1103" 
d="M328 0h-326l375 518l-346 492h340l186 -287l191 287h325l-346 -492l375 -518h-340l-215 313z" />
    <glyph glyph-name="y" unicode="y" horiz-adv-x="1064" 
d="M293 -457q-190 0 -293 158l182 172q47 -86 115 -86q44 0 75.5 36t57.5 116l23 61h-99l-364 1010h313l232 -709l227 709h313l-432 -1170q-60 -162 -142 -229.5t-208 -67.5z" />
    <glyph glyph-name="z" unicode="z" horiz-adv-x="976" 
d="M938 0h-897v201l500 565h-478v242h855v-201l-504 -565h524v-242z" />
    <glyph glyph-name="braceleft" unicode="{" horiz-adv-x="804" 
d="M745 -84v-211q-249 7 -364 80.5t-115 222.5q0 67 33 170t33 170q0 154 -244 154h-14v196h14q244 0 244 154q0 69 -33 172t-33 168q0 149 115 222.5t364 80.5v-211q-139 -8 -190 -37.5t-51 -107.5q0 -47 35 -150q32 -95 32 -178q0 -88 -54.5 -142.5t-154.5 -68.5
q209 -30 209 -211q0 -81 -32 -176q-35 -103 -35 -150q0 -80 50.5 -109.5t190.5 -37.5z" />
    <glyph glyph-name="bar" unicode="|" horiz-adv-x="610" 
d="M422 -205h-232v1700h232v-1700z" />
    <glyph glyph-name="braceright" unicode="}" horiz-adv-x="804" 
d="M59 -295v211q139 8 190.5 37.5t51.5 107.5q0 52 -33 150q-35 103 -35 178q0 88 54.5 142.5t154.5 68.5q-209 30 -209 211q0 75 35 178q33 98 33 148q0 80 -51 109.5t-191 37.5v211q251 -7 366.5 -80.5t115.5 -222.5q0 -65 -33 -168t-33 -172q0 -154 242 -154h14v-196h-14
q-242 0 -242 -154q0 -67 33 -170t33 -170q0 -149 -115.5 -222.5t-366.5 -80.5z" />
    <glyph glyph-name="asciitilde" unicode="~" horiz-adv-x="1032" 
d="M682 438q-46 0 -94 17.5t-80.5 39t-65.5 39t-53 17.5q-74 0 -92 -113l-221 43q30 310 272 310q60 0 119 -28.5t104.5 -56.5t71.5 -28q75 0 90 113l223 -43q-30 -310 -274 -310z" />
    <glyph glyph-name="uni00A0" unicode="&#xa0;" horiz-adv-x="471" 
 />
    <glyph glyph-name="exclamdown" unicode="&#xa1;" horiz-adv-x="589" 
d="M164 983q38 42 95 50.5t107.5 -11.5t85.5 -66.5t31 -105.5q0 -78 -55 -131t-133 -53t-132 53t-54 131q0 81 55 133zM154 555h274l23 -967h-320z" />
    <glyph glyph-name="cent" unicode="&#xa2;" horiz-adv-x="1167" 
d="M690 797v-586q120 40 178 199l232 -109q-136 -286 -410 -321v-189h-168v191q-206 25 -325 161t-119 361q0 210 125 356t319 170v189h168v-191q168 -25 276 -130t138 -284l-256 -55q-27 191 -158 238zM358 504q0 -106 43 -183t121 -106v584q-78 -29 -121 -106t-43 -189z
" />
    <glyph glyph-name="sterling" unicode="&#xa3;" horiz-adv-x="1423" 
d="M1067 479l297 -8q0 -236 -106.5 -368t-301.5 -132q-151 0 -297 131q-107 -131 -313 -131q-139 0 -223 74t-84 197q0 120 86 195t227 75q61 0 117 -20q-13 45 -66 143h-251v184h157q-53 121 -53 211q0 192 145 307t387 115q238 0 381 -137t146 -367l-301 -24
q-6 123 -69.5 195.5t-166.5 72.5q-101 0 -156 -54.5t-55 -148.5q0 -64 41 -170h334v-184h-250q58 -131 58 -242q0 -39 -7 -86q101 -82 168 -82q147 0 156 254zM354 158q91 0 121 123q-60 45 -121 45q-44 0 -72 -23.5t-28 -60.5q0 -38 27.5 -61t72.5 -23z" />
    <glyph glyph-name="currency" unicode="&#xa4;" horiz-adv-x="980" 
d="M326 346l-101 -98l-168 170l95 94q-39 79 -39 166q0 89 41 166l-97 96l168 168l101 -98q68 39 168 39q91 0 161 -37l99 96l170 -168l-97 -94q41 -84 41 -168q0 -89 -39 -168l95 -92l-168 -170l-99 96q-73 -37 -163 -37q-100 0 -168 39zM494 477q85 0 141.5 57t56.5 144
q0 86 -56.5 143.5t-141.5 57.5q-88 0 -145.5 -57.5t-57.5 -143.5q0 -88 57.5 -144.5t145.5 -56.5z" />
    <glyph glyph-name="yen" unicode="&#xa5;" horiz-adv-x="1347" 
d="M999 1423h349l-447 -706h246v-185h-324v-153h324v-184h-324v-195h-305v195h-323v184h323v153h-323v185h245l-440 706h350l326 -569z" />
    <glyph glyph-name="brokenbar" unicode="&#xa6;" horiz-adv-x="610" 
d="M422 793h-232v702h232v-702zM422 -205h-232v690h232v-690z" />
    <glyph glyph-name="section" unicode="&#xa7;" horiz-adv-x="1202" 
d="M1120 668q0 -188 -237 -267q135 -83 135 -251q0 -148 -120 -233t-329 -85q-200 0 -321 79.5t-148 221.5l269 64q41 -160 200 -160q75 0 117.5 28t42.5 78q0 49 -29.5 76.5t-99.5 46.5l-129 35q-138 34 -219 70q-62 27 -92 57q-78 74 -78 188q0 188 237 267
q-135 83 -135 252q0 148 120 232.5t329 84.5q199 0 319 -79.5t150 -221.5l-268 -64q-41 158 -201 158q-76 0 -119 -27.5t-43 -78.5q0 -47 30.5 -74.5t100.5 -46.5l129 -35q109 -29 119 -31q34 -10 100 -39q56 -25 92 -57q78 -74 78 -188zM512 530l131 -36q33 -6 57 -17
q125 46 125 141q0 54 -31 85t-104 51l-131 37q-42 9 -55 16q-127 -44 -127 -141q0 -54 31 -85t104 -51z" />
    <glyph glyph-name="dieresis" unicode="&#xa8;" horiz-adv-x="819" 
d="M197 1122q-65 0 -108.5 43t-43.5 105q0 63 43 104t109 41t108.5 -41t42.5 -104q0 -62 -44 -105t-107 -43zM623 1122q-65 0 -108.5 43t-43.5 105q0 63 43 104t109 41t108.5 -41t42.5 -104q0 -62 -44 -105t-107 -43z" />
    <glyph glyph-name="copyright" unicode="&#xa9;" horiz-adv-x="1638" 
d="M821 -29q-319 0 -530 211q-213 213 -213 531q0 319 211 530q212 209 530 209q319 0 531 -209q209 -212 209 -530q0 -319 -209 -531q-211 -211 -529 -211zM819 111q252 0 422 170q166 169 166 432t-166 432q-170 170 -422 170q-255 0 -422 -170q-166 -169 -166 -432
t166 -432q167 -170 422 -170zM825 287q-187 0 -299 113.5t-112 308.5q0 184 114 307q115 121 293 121q146 0 248 -83.5t131 -238.5l-184 -49q-50 201 -201 201q-92 0 -145.5 -68.5t-53.5 -187.5q0 -118 55.5 -186t153.5 -68q71 0 116.5 37t88.5 122l174 -65
q-120 -264 -379 -264z" />
    <glyph glyph-name="ordfeminine" unicode="&#xaa;" horiz-adv-x="899" 
d="M352 696q-131 0 -208.5 61.5t-77.5 166.5q0 97 82 161t212 64q115 0 197 -70v74q0 127 -129 127q-114 0 -143 -106l-211 32q33 117 128.5 181.5t241.5 64.5q163 0 252.5 -80t89.5 -233v-424h-217v86q-83 -105 -217 -105zM408 840q82 0 149 88v16q-72 66 -149 66
q-49 0 -81 -23.5t-32 -60.5q0 -38 31 -62t82 -24z" />
    <glyph glyph-name="guillemotleft" unicode="&#xab;" horiz-adv-x="1163" 
d="M551 463v-273l-467 263v258l467 262v-268l-242 -123zM1059 463v-273l-465 263v258l465 262v-268l-242 -123z" />
    <glyph glyph-name="logicalnot" unicode="&#xac;" horiz-adv-x="1032" 
d="M887 334h-258v258h-545v239h803v-497z" />
    <glyph glyph-name="uni00AD" unicode="&#xad;" horiz-adv-x="745" 
d="M653 461h-559v252h559v-252z" />
    <glyph glyph-name="registered" unicode="&#xae;" horiz-adv-x="940" 
d="M473 682q-169 0 -283 111q-112 109 -112 276q0 165 112 274q115 109 283 109t279 -111q110 -110 110 -274t-110 -274q-111 -111 -279 -111zM473 772q127 0 210 83.5t83 211.5t-83 211.5t-210 83.5q-129 0 -213 -83.5t-84 -211.5t84 -211.5t213 -83.5zM408 879h-93v399
h174q72 0 114 -32t42 -89q0 -98 -94 -119l14 -18q41 -53 92 -53v-88q-61 0 -97.5 20.5t-80.5 81.5l-26 37h-45v-139zM408 1202v-106h73q70 0 70 53t-70 53h-73z" />
    <glyph glyph-name="overscore" unicode="&#xaf;" horiz-adv-x="819" 
d="M723 1165h-627v203h627v-203z" />
    <glyph glyph-name="degree" unicode="&#xb0;" horiz-adv-x="790" 
d="M627 942q-95 -86 -232 -86t-229 86t-92 213t92 213q93 84 229 84q139 0 232 -84q92 -86 92 -213t-92 -213zM395 1028q55 0 92 36.5t37 90.5q0 55 -37 92t-92 37q-54 0 -90.5 -37t-36.5 -92q0 -54 36.5 -90.5t90.5 -36.5z" />
    <glyph glyph-name="plusminus" unicode="&#xb1;" horiz-adv-x="1032" 
d="M641 1137v-283h317v-240h-317v-280h-258v280h-309v240h309v283h258zM958 0h-884v240h884v-240z" />
    <glyph glyph-name="uni00B2" unicode="&#xb2;" horiz-adv-x="843" 
d="M782 559h-733v62q0 103 63.5 181.5t217.5 164.5l102 57q117 64 117 147q0 47 -36 76t-93 29q-62 0 -98.5 -34.5t-36.5 -86.5q0 -39 14 -74l-211 -47q-22 58 -22 121q0 125 98 209t264 84q154 0 249.5 -69t96.5 -189q1 -98 -52 -164t-181 -129l-103 -53q-96 -47 -116 -101
h460v-184z" />
    <glyph glyph-name="uni00B3" unicode="&#xb3;" horiz-adv-x="854" 
d="M436 543q-178 0 -278.5 80t-100.5 206q0 58 19 117l215 -47q-10 -38 -10 -65q0 -119 153 -119q63 0 101 28.5t38 77.5q0 47 -37.5 74t-103.5 27h-43v153h31q66 0 101.5 28t35.5 79q0 43 -33 69.5t-88 26.5q-136 0 -157 -158l-216 31q20 130 121.5 213.5t261.5 83.5
q150 0 245 -67t95 -177q0 -79 -48.5 -132t-127.5 -64q195 -38 195 -203q0 -118 -102 -190t-267 -72z" />
    <glyph glyph-name="acute" unicode="&#xb4;" horiz-adv-x="819" 
d="M516 1118h-223l174 297h303z" />
    <glyph glyph-name="uni00B5" unicode="&#xb5;" horiz-adv-x="1204" 
d="M418 -410h-295v1420h297v-613q6 -180 166 -180q90 0 145 58.5t55 160.5v574h295v-1010h-278v143q-85 -159 -250 -159q-119 0 -176 69z" />
    <glyph glyph-name="paragraph" unicode="&#xb6;" horiz-adv-x="1701" 
d="M1051 0h-228q-307 0 -524 190q-221 191 -221 525q0 225 108 391q110 166 275 242q168 77 362 77h228v-1425zM1550 0h-311v1423h311v-1423z" />
    <glyph glyph-name="middot" unicode="&#xb7;" horiz-adv-x="561" 
d="M281 406q-76 0 -131.5 54.5t-55.5 131.5t55.5 130.5t131.5 53.5q80 0 134 -53t54 -131t-54.5 -132t-133.5 -54z" />
    <glyph glyph-name="cedilla" unicode="&#xb8;" horiz-adv-x="819" 
d="M440 -332h-231l88 348h238z" />
    <glyph glyph-name="uni00B9" unicode="&#xb9;" horiz-adv-x="577" 
d="M436 553h-223v594q-61 -49 -201 -49v202q98 -5 161 28.5t63 94.5h200v-870z" />
    <glyph glyph-name="ordmasculine" unicode="&#xba;" horiz-adv-x="905" 
d="M739 803q-110 -107 -286 -107q-178 0 -285 107q-111 105 -111 270q0 167 111 275q107 104 285 104q176 0 286 -104q111 -108 111 -275q0 -165 -111 -270zM334 926q44 -56 119 -56q73 0 120 56q43 52 43 147t-43 150q-46 55 -120 55q-76 0 -119 -55q-45 -54 -45 -150
t45 -147z" />
    <glyph glyph-name="guillemotright" unicode="&#xbb;" horiz-adv-x="1163" 
d="M571 453l-467 -263v269l242 123l-242 120v271l467 -262v-258zM1079 453l-465 -263v269l242 123l-242 120v271l465 -262v-258z" />
    <glyph glyph-name="onequarter" unicode="&#xbc;" horiz-adv-x="1853" 
d="M436 553h-223v594q-61 -49 -201 -49v202q98 -5 161 28.5t63 94.5h200v-870zM496 0h-222l977 1423h222zM1718 -8h-217v180h-422v211q234 215 269 479h233q-23 -150 -103 -287t-188 -221h211v146h217v-146h103v-182h-103v-180z" />
    <glyph glyph-name="onehalf" unicode="&#xbd;" horiz-adv-x="1970" 
d="M436 553h-223v594q-61 -49 -201 -49v202q98 -5 161 28.5t63 94.5h200v-870zM496 0h-222l977 1423h222zM1909 -2h-733v63q0 103 63.5 182t216.5 165l103 55q114 67 114 147q0 48 -34.5 76.5t-94.5 28.5t-96.5 -34.5t-36.5 -86.5q0 -46 14 -74l-211 -47q-22 55 -22 121
q0 127 97.5 210t264.5 83q154 0 248.5 -69t95.5 -187q1 -98 -51 -165t-180 -130l-102 -51q-97 -51 -117 -101h461v-186z" />
    <glyph glyph-name="threequarters" unicode="&#xbe;" horiz-adv-x="2136" 
d="M436 543q-178 0 -278.5 80t-100.5 206q0 58 19 117l215 -47q-10 -38 -10 -65q0 -119 153 -119q63 0 101 28.5t38 77.5q0 47 -37.5 74t-103.5 27h-43v153h31q66 0 101.5 28t35.5 79q0 43 -33 69.5t-88 26.5q-136 0 -157 -158l-216 31q20 130 121.5 213.5t261.5 83.5
q150 0 245 -67t95 -177q0 -79 -48.5 -132t-127.5 -64q195 -38 195 -203q0 -118 -102 -190t-267 -72zM772 0h-219l977 1423h219zM2001 -2h-217v180h-422v211q239 219 266 479h236q-24 -151 -104 -287t-187 -221h211v146h217v-146h100v-182h-100v-180z" />
    <glyph glyph-name="questiondown" unicode="&#xbf;" horiz-adv-x="1169" 
d="M610 1036q76 0 131.5 -54.5t55.5 -131.5t-55.5 -130.5t-131.5 -53.5q-80 0 -134 53t-54 131q0 79 54 132.5t134 53.5zM449 567h299q0 -193 -175 -313q-112 -78 -153 -131q-39 -51 -39 -119q0 -82 55.5 -133t147.5 -51q102 0 163.5 59.5t61.5 149.5q0 60 -25 118l289 78
q39 -85 39 -198q0 -191 -139 -330q-140 -137 -408 -137q-233 0 -365 114.5t-132 315.5q0 126 67 223t211 186q58 36 79.5 72.5t23.5 95.5z" />
    <glyph glyph-name="Agrave" unicode="&#xc0;" horiz-adv-x="1411" 
d="M653 1831l174 -297h-223l-254 297h303zM1413 0h-319l-119 342h-543l-115 -342h-319l508 1423h399zM698 1137l-186 -555h379z" />
    <glyph glyph-name="Aacute" unicode="&#xc1;" horiz-adv-x="1411" 
d="M764 1831h303l-254 -297h-223zM1413 0h-319l-119 342h-543l-115 -342h-319l508 1423h399zM698 1137l-186 -555h379z" />
    <glyph glyph-name="Acircumflex" unicode="&#xc2;" horiz-adv-x="1411" 
d="M815 1534l-115 135l-112 -135h-221l219 297h241l217 -297h-229zM1413 0h-319l-119 342h-543l-115 -342h-319l508 1423h399zM698 1137l-186 -555h379z" />
    <glyph glyph-name="Atilde" unicode="&#xc3;" horiz-adv-x="1411" 
d="M606 1632q-56 0 -59 -88h-182q0 133 56.5 207t153.5 74q68 0 132 -43q61 -43 84 -43q56 0 59 86h182q-1 -133 -57.5 -206t-153.5 -73q-67 0 -131 43t-84 43zM1413 0h-319l-119 342h-543l-115 -342h-319l508 1423h399zM698 1137l-186 -555h379z" />
    <glyph glyph-name="Adieresis" unicode="&#xc4;" horiz-adv-x="1411" 
d="M494 1538q-65 0 -108.5 43t-43.5 105q0 63 43 104t109 41t108.5 -41t42.5 -104q0 -62 -44 -105t-107 -43zM920 1538q-65 0 -108.5 43t-43.5 105q0 63 43 104t109 41t108.5 -41t42.5 -104q0 -62 -44 -105t-107 -43zM1413 0h-319l-119 342h-543l-115 -342h-319l508 1423
h399zM698 1137l-186 -555h379z" />
    <glyph glyph-name="Aring" unicode="&#xc5;" horiz-adv-x="1411" 
d="M1413 0h-319l-119 342h-543l-115 -342h-319l498 1395q-41 53 -41 127q0 98 70 160.5t180 62.5q109 0 179 -62.5t70 -160.5q0 -72 -39 -125zM764 1579q-23 22 -59.5 22t-59.5 -22t-23 -56.5t23 -56.5t59.5 -22t59.5 22t23 56.5t-23 56.5zM698 1137l-186 -555h379z" />
    <glyph glyph-name="AE" unicode="&#xc6;" horiz-adv-x="2025" 
d="M1223 586v-322h729v-264h-1034v354h-476l-145 -354h-315l598 1423h1362v-264h-719v-309h587v-264h-587zM772 1153l-229 -559h375v559h-146z" />
    <glyph glyph-name="Ccedilla" unicode="&#xc7;" horiz-adv-x="1517" 
d="M1143 543l315 -51q-121 -463 -565 -515l-80 -296h-231l75 301q-261 40 -419 239q-160 198 -160 490q0 320 203 532q200 209 512 209q258 0 426.5 -146t228.5 -417l-301 -78q-85 363 -367 363q-165 0 -274 -130t-109 -333q0 -205 109 -332q108 -129 280 -129
q277 0 357 293z" />
    <glyph glyph-name="Egrave" unicode="&#xc8;" horiz-adv-x="1257" 
d="M780 1534h-223l-254 297h303zM1184 0h-1034v1423h1024v-264h-719v-309h587v-264h-587v-322h729v-264z" />
    <glyph glyph-name="Eacute" unicode="&#xc9;" horiz-adv-x="1257" 
d="M766 1534h-223l174 297h303zM1184 0h-1034v1423h1024v-264h-719v-309h587v-264h-587v-322h729v-264z" />
    <glyph glyph-name="Ecircumflex" unicode="&#xca;" horiz-adv-x="1257" 
d="M541 1534h-222l220 297h241l217 -297h-229l-115 135zM1184 0h-1034v1423h1024v-264h-719v-309h587v-264h-587v-322h729v-264z" />
    <glyph glyph-name="Edieresis" unicode="&#xcb;" horiz-adv-x="1257" 
d="M446 1538q-65 0 -108 43t-43 105q0 63 42.5 104t108.5 41t109 -41t43 -104q0 -61 -44.5 -104.5t-107.5 -43.5zM872 1538q-65 0 -108 43t-43 105q0 63 42.5 104t108.5 41t109 -41t43 -104q0 -61 -44.5 -104.5t-107.5 -43.5zM1184 0h-1034v1423h1024v-264h-719v-309h587
v-264h-587v-322h729v-264z" />
    <glyph glyph-name="Igrave" unicode="&#xcc;" horiz-adv-x="602" 
d="M424 1534h-223l-254 297h303zM455 0h-305v1423h305v-1423z" />
    <glyph glyph-name="Iacute" unicode="&#xcd;" horiz-adv-x="602" 
d="M410 1534h-224l174 297h304zM455 0h-305v1423h305v-1423z" />
    <glyph glyph-name="Icircumflex" unicode="&#xce;" horiz-adv-x="602" 
d="M184 1534h-221l219 297h242l217 -297h-229l-115 135zM455 0h-305v1423h305v-1423z" />
    <glyph glyph-name="Idieresis" unicode="&#xcf;" horiz-adv-x="602" 
d="M90 1538q-65 0 -108 43t-43 105q0 63 42.5 104t108.5 41t109 -41t43 -104q0 -61 -44.5 -104.5t-107.5 -43.5zM516 1538q-65 0 -108 43t-43 105q0 63 42.5 104t108.5 41t109 -41t43 -104q0 -61 -44.5 -104.5t-107.5 -43.5zM455 0h-305v1423h305v-1423z" />
    <glyph glyph-name="Eth" unicode="&#xd0;" horiz-adv-x="1525" 
d="M150 1423h561q200 0 362.5 -80.5t265.5 -242.5q107 -165 107 -389q0 -217 -103.5 -383.5t-273.5 -247.5q-165 -80 -358 -80h-561v618h-121v213h121v592zM455 279h223q194 0 321 106q129 105 129 328q0 219 -129 327q-129 105 -321 105h-223v-314h305v-213h-305v-339z" />
    <glyph glyph-name="Ntilde" unicode="&#xd1;" horiz-adv-x="1540" 
d="M616 1544h-182q0 132 56.5 206.5t154.5 74.5q67 0 131 -43q61 -43 84 -43q57 0 60 86h182q-1 -133 -57.5 -206t-153.5 -73q-67 0 -131 43t-84 43q-57 0 -60 -88zM444 0h-294v1423h305l641 -956v956h295v-1423h-308l-639 954v-954z" />
    <glyph glyph-name="Ograve" unicode="&#xd2;" horiz-adv-x="1619" 
d="M930 1534h-223l-254 297h303zM1333 180q-206 -209 -524 -209t-524 209q-207 210 -207 531q0 319 207 532q206 209 524 209t524 -209q207 -213 207 -532q0 -321 -207 -531zM809 250q182 0 297 127t115 334q0 206 -115 336q-115 127 -297 127q-180 0 -295 -127
q-115 -130 -115 -336q0 -207 115 -334t295 -127z" />
    <glyph glyph-name="Oacute" unicode="&#xd3;" horiz-adv-x="1619" 
d="M915 1534h-223l174 297h303zM1333 180q-206 -209 -524 -209t-524 209q-207 210 -207 531q0 319 207 532q206 209 524 209t524 -209q207 -213 207 -532q0 -321 -207 -531zM809 250q182 0 297 127t115 334q0 206 -115 336q-115 127 -297 127q-180 0 -295 -127
q-115 -130 -115 -336q0 -207 115 -334t295 -127z" />
    <glyph glyph-name="Ocircumflex" unicode="&#xd4;" horiz-adv-x="1619" 
d="M690 1534h-221l219 297h242l217 -297h-229l-115 135zM1333 180q-206 -209 -524 -209t-524 209q-207 210 -207 531q0 319 207 532q206 209 524 209t524 -209q207 -213 207 -532q0 -321 -207 -531zM809 250q182 0 297 127t115 334q0 206 -115 336q-115 127 -297 127
q-180 0 -295 -127q-115 -130 -115 -336q0 -207 115 -334t295 -127z" />
    <glyph glyph-name="Otilde" unicode="&#xd5;" horiz-adv-x="1619" 
d="M649 1544h-182q0 132 56.5 206.5t154.5 74.5q67 0 131 -43q61 -43 84 -43q56 0 59 86h183q-1 -133 -57.5 -206t-153.5 -73q-67 0 -131 43t-84 43q-57 0 -60 -88zM1333 180q-206 -209 -524 -209t-524 209q-207 210 -207 531q0 319 207 532q206 209 524 209t524 -209
q207 -213 207 -532q0 -321 -207 -531zM809 250q182 0 297 127t115 334q0 206 -115 336q-115 127 -297 127q-180 0 -295 -127q-115 -130 -115 -336q0 -207 115 -334t295 -127z" />
    <glyph glyph-name="Odieresis" unicode="&#xd6;" horiz-adv-x="1619" 
d="M596 1538q-65 0 -108.5 43t-43.5 105q0 63 43 104t109 41t109 -41t43 -104q0 -61 -44.5 -104.5t-107.5 -43.5zM1022 1538q-65 0 -108.5 43t-43.5 105q0 63 43 104t109 41t109 -41t43 -104q0 -61 -44.5 -104.5t-107.5 -43.5zM1333 180q-206 -209 -524 -209t-524 209
q-207 210 -207 531q0 319 207 532q206 209 524 209t524 -209q207 -213 207 -532q0 -321 -207 -531zM809 250q182 0 297 127t115 334q0 206 -115 336q-115 127 -297 127q-180 0 -295 -127q-115 -130 -115 -336q0 -207 115 -334t295 -127z" />
    <glyph glyph-name="multiply" unicode="&#xd7;" horiz-adv-x="1032" 
d="M780 1044l168 -170l-262 -260l262 -262l-168 -170l-264 262l-264 -262l-170 170l264 262l-264 260l170 170l264 -262z" />
    <glyph glyph-name="Oslash" unicode="&#xd8;" horiz-adv-x="1619" 
d="M1534 1423l-174 -209q180 -204 180 -503q0 -321 -207 -531q-206 -209 -524 -209q-223 0 -399 111l-68 -82h-258l174 209q-180 204 -180 502q0 319 207 532q206 209 524 209q225 0 401 -111l68 82h256zM391 711q0 -150 66 -267l569 680q-95 62 -217 62q-181 0 -299 -133
q-119 -131 -119 -342zM809 238q183 0 301 133q117 132 117 340q0 151 -66 268l-569 -680q94 -61 217 -61z" />
    <glyph glyph-name="Ugrave" unicode="&#xd9;" horiz-adv-x="1486" 
d="M864 1534h-223l-254 297h303zM1200 127q-159 -156 -457 -156t-454 156q-160 157 -160 442v854h305v-819q0 -172 78.5 -263t230.5 -91q150 0 230 91.5t80 262.5v819h305v-854q0 -287 -158 -442z" />
    <glyph glyph-name="Uacute" unicode="&#xda;" horiz-adv-x="1486" 
d="M850 1534h-223l174 297h303zM1200 127q-159 -156 -457 -156t-454 156q-160 157 -160 442v854h305v-819q0 -172 78.5 -263t230.5 -91q150 0 230 91.5t80 262.5v819h305v-854q0 -287 -158 -442z" />
    <glyph glyph-name="Ucircumflex" unicode="&#xdb;" horiz-adv-x="1486" 
d="M625 1534h-222l220 297h241l217 -297h-229l-115 135zM1200 127q-159 -156 -457 -156t-454 156q-160 157 -160 442v854h305v-819q0 -172 78.5 -263t230.5 -91q150 0 230 91.5t80 262.5v819h305v-854q0 -287 -158 -442z" />
    <glyph glyph-name="Udieresis" unicode="&#xdc;" horiz-adv-x="1486" 
d="M530 1538q-65 0 -108 43t-43 105q0 63 42.5 104t108.5 41t109 -41t43 -104q0 -61 -44.5 -104.5t-107.5 -43.5zM956 1538q-65 0 -108 43t-43 105q0 63 42.5 104t108.5 41t109 -41t43 -104q0 -61 -44.5 -104.5t-107.5 -43.5zM1200 127q-159 -156 -457 -156t-454 156
q-160 157 -160 442v854h305v-819q0 -172 78.5 -263t230.5 -91q150 0 230 91.5t80 262.5v819h305v-854q0 -287 -158 -442z" />
    <glyph glyph-name="Yacute" unicode="&#xdd;" horiz-adv-x="1327" 
d="M768 1534h-223l174 297h303zM813 0h-305v553l-518 870h350l326 -569l323 569h348l-524 -870v-553z" />
    <glyph glyph-name="Thorn" unicode="&#xde;" horiz-adv-x="1345" 
d="M455 0h-305v1423h305v-235h297q235 0 381 -125q145 -127 145 -340t-145 -340q-148 -127 -381 -127h-297v-256zM455 924v-404h264q117 0 178 52t61 151q0 97 -62.5 149t-180.5 52h-260z" />
    <glyph glyph-name="germandbls" unicode="&#xdf;" horiz-adv-x="1386" 
d="M926 -25q-306 0 -420 170l178 185q65 -133 225 -133q64 0 104 29t40 79q0 73 -103 111l-73 24q-165 62 -203 90q-82 64 -82 181q0 52 33.5 104t81.5 92q47 40 79.5 90t32.5 97q0 133 -184 133q-104 0 -159.5 -60.5t-55.5 -173.5v-993h-297v1018q0 199 149 315
q151 115 379 115t357 -77.5t129 -231.5q0 -63 -40.5 -125t-95.5 -101q-137 -99 -137 -155q0 -20 5.5 -33.5t20.5 -23t28.5 -15t42.5 -15.5t49 -18l71 -24q137 -45 204 -118t67 -200q0 -158 -116.5 -247t-309.5 -89z" />
    <glyph glyph-name="agrave" unicode="&#xe0;" horiz-adv-x="1146" 
d="M705 1118h-224l-254 297h303zM453 -25q-174 0 -280.5 85.5t-106.5 230.5q0 135 112 225q112 92 283 92q166 0 276 -98v108q0 187 -180 187q-161 0 -207 -168l-274 45q45 164 176.5 258t325.5 94q220 0 338 -107t118 -321v-606h-278v123q-50 -68 -133 -108t-170 -40z
M528 172q121 0 209 125v20q-88 101 -209 101q-73 0 -118 -34.5t-45 -88.5q0 -55 44.5 -89t118.5 -34z" />
    <glyph glyph-name="aacute" unicode="&#xe1;" horiz-adv-x="1146" 
d="M690 1118h-223l174 297h303zM453 -25q-174 0 -280.5 85.5t-106.5 230.5q0 135 112 225q112 92 283 92q166 0 276 -98v108q0 187 -180 187q-161 0 -207 -168l-274 45q45 164 176.5 258t325.5 94q220 0 338 -107t118 -321v-606h-278v123q-50 -68 -133 -108t-170 -40z
M528 172q121 0 209 125v20q-88 101 -209 101q-73 0 -118 -34.5t-45 -88.5q0 -55 44.5 -89t118.5 -34z" />
    <glyph glyph-name="acircumflex" unicode="&#xe2;" horiz-adv-x="1146" 
d="M465 1118h-221l219 297h242l217 -297h-230l-114 135zM453 -25q-174 0 -280.5 85.5t-106.5 230.5q0 135 112 225q112 92 283 92q166 0 276 -98v108q0 187 -180 187q-161 0 -207 -168l-274 45q45 164 176.5 258t325.5 94q220 0 338 -107t118 -321v-606h-278v123
q-50 -68 -133 -108t-170 -40zM528 172q121 0 209 125v20q-88 101 -209 101q-73 0 -118 -34.5t-45 -88.5q0 -55 44.5 -89t118.5 -34z" />
    <glyph glyph-name="atilde" unicode="&#xe3;" horiz-adv-x="1146" 
d="M424 1128h-182q0 132 56.5 206.5t154.5 74.5q67 0 131 -43q61 -43 84 -43q56 0 59 86h182q-1 -133 -57.5 -206t-153.5 -73q-66 0 -131 44q-64 43 -84 43q-56 0 -59 -89zM453 -25q-174 0 -280.5 85.5t-106.5 230.5q0 135 112 225q112 92 283 92q166 0 276 -98v108
q0 187 -180 187q-161 0 -207 -168l-274 45q45 164 176.5 258t325.5 94q220 0 338 -107t118 -321v-606h-278v123q-50 -68 -133 -108t-170 -40zM528 172q121 0 209 125v20q-88 101 -209 101q-73 0 -118 -34.5t-45 -88.5q0 -55 44.5 -89t118.5 -34z" />
    <glyph glyph-name="adieresis" unicode="&#xe4;" horiz-adv-x="1146" 
d="M371 1122q-65 0 -108.5 43t-43.5 105q0 63 43 104t109 41t108.5 -41t42.5 -104q0 -62 -44 -105t-107 -43zM797 1122q-65 0 -108.5 43t-43.5 105q0 63 43 104t109 41t108.5 -41t42.5 -104q0 -62 -44 -105t-107 -43zM453 -25q-174 0 -280.5 85.5t-106.5 230.5
q0 135 112 225q112 92 283 92q166 0 276 -98v108q0 187 -180 187q-161 0 -207 -168l-274 45q45 164 176.5 258t325.5 94q220 0 338 -107t118 -321v-606h-278v123q-50 -68 -133 -108t-170 -40zM528 172q121 0 209 125v20q-88 101 -209 101q-73 0 -118 -34.5t-45 -88.5
q0 -55 44.5 -89t118.5 -34z" />
    <glyph glyph-name="aring" unicode="&#xe5;" horiz-adv-x="1146" 
d="M766 1010q268 -77 268 -404v-606h-278v123q-50 -68 -133 -108t-170 -40q-174 0 -280.5 85.5t-106.5 230.5q0 135 112 225q112 92 283 92q166 0 276 -98v108q0 187 -180 187q-161 0 -207 -168l-274 45q71 256 327 330q-69 57 -69 157q0 97 71 160.5t181 63.5
q109 0 179.5 -63.5t70.5 -160.5q0 -95 -70 -159zM586 1247q-39 0 -61.5 -24t-22.5 -53.5t22.5 -53.5t61.5 -24q50 -3 70.5 37.5t0 80.5t-70.5 37zM737 297v20q-88 101 -209 101q-73 0 -118 -34.5t-45 -88.5q0 -55 44.5 -89t118.5 -34q121 0 209 125z" />
    <glyph glyph-name="ae" unicode="&#xe6;" horiz-adv-x="1835" 
d="M1532 371l235 -119q-139 -277 -485 -277q-272 0 -420 189q-165 -189 -399 -189q-179 0 -288 85.5t-109 230.5q0 135 112 225q112 92 283 92q166 0 276 -98v108q0 187 -180 187q-161 0 -207 -168l-274 45q48 167 172.5 259.5t316.5 92.5q262 0 363 -155q125 155 348 155
q226 0 355.5 -140t129.5 -376q0 -64 -2 -80h-721q10 -109 77 -171t173 -62q162 0 244 166zM1257 815q-87 0 -143.5 -54.5t-73.5 -152.5h418q-18 207 -201 207zM524 172q124 0 219 141q-94 105 -215 105q-73 0 -118 -34.5t-45 -88.5q0 -56 43.5 -89.5t115.5 -33.5z" />
    <glyph glyph-name="ccedilla" unicode="&#xe7;" horiz-adv-x="1114" 
d="M590 205q156 0 223 205l256 -109q-132 -274 -379 -317l-82 -303h-231l78 307q-186 36 -292 169.5t-106 346.5q0 227 146 379q145 151 360 151q204 0 338 -110t170 -326l-280 -57q-18 128 -75.5 196t-140.5 68q-100 0 -156.5 -80.5t-56.5 -220.5q0 -137 61.5 -218
t166.5 -81z" />
    <glyph glyph-name="egrave" unicode="&#xe8;" horiz-adv-x="1161" 
d="M541 1415l174 -297h-223l-254 297h303zM860 369l234 -117q-138 -277 -484 -277q-244 0 -397 144q-156 144 -156 385q0 232 154 383q150 147 383 147q230 0 362 -141q131 -140 131 -375q0 -68 -2 -80h-720q11 -109 77 -171t172 -62q160 0 246 164zM584 815q-88 0 -146 -55
t-71 -152h417q-15 207 -200 207z" />
    <glyph glyph-name="eacute" unicode="&#xe9;" horiz-adv-x="1161" 
d="M651 1415h303l-254 -297h-223zM860 369l234 -117q-138 -277 -484 -277q-244 0 -397 144q-156 144 -156 385q0 232 154 383q150 147 383 147q230 0 362 -141q131 -140 131 -375q0 -68 -2 -80h-720q11 -109 77 -171t172 -62q160 0 246 164zM584 815q-88 0 -146 -55
t-71 -152h417q-15 207 -200 207z" />
    <glyph glyph-name="ecircumflex" unicode="&#xea;" horiz-adv-x="1161" 
d="M702 1118l-114 135l-113 -135h-221l219 297h242l217 -297h-230zM860 369l234 -117q-138 -277 -484 -277q-244 0 -397 144q-156 144 -156 385q0 232 154 383q150 147 383 147q230 0 362 -141q131 -140 131 -375q0 -68 -2 -80h-720q11 -109 77 -171t172 -62q160 0 246 164z
M584 815q-88 0 -146 -55t-71 -152h417q-15 207 -200 207z" />
    <glyph glyph-name="edieresis" unicode="&#xeb;" horiz-adv-x="1161" 
d="M381 1122q-65 0 -108.5 43t-43.5 105q0 63 43 104t109 41t108.5 -41t42.5 -104q0 -62 -44 -105t-107 -43zM807 1122q-65 0 -108.5 43t-43.5 105q0 63 43 104t109 41t108.5 -41t42.5 -104q0 -62 -44 -105t-107 -43zM860 369l234 -117q-138 -277 -484 -277q-244 0 -397 144
q-156 144 -156 385q0 232 154 383q150 147 383 147q230 0 362 -141q131 -140 131 -375q0 -68 -2 -80h-720q11 -109 77 -171t172 -62q160 0 246 164zM584 815q-88 0 -146 -55t-71 -152h417q-15 207 -200 207z" />
    <glyph glyph-name="igrave" unicode="&#xec;" horiz-adv-x="540" 
d="M391 1118h-223l-254 297h303zM418 0h-295v1010h295v-1010z" />
    <glyph glyph-name="iacute" unicode="&#xed;" horiz-adv-x="540" 
d="M377 1118h-223l174 297h303zM418 0h-295v1010h295v-1010z" />
    <glyph glyph-name="icircumflex" unicode="&#xee;" horiz-adv-x="540" 
d="M152 1118h-222l220 297h241l217 -297h-229l-115 135zM418 0h-295v1010h295v-1010z" />
    <glyph glyph-name="idieresis" unicode="&#xef;" horiz-adv-x="540" 
d="M57 1122q-65 0 -108 43t-43 105q0 63 42.5 104t108.5 41t109 -41t43 -104q0 -61 -44.5 -104.5t-107.5 -43.5zM483 1122q-65 0 -108 43t-43 105q0 63 42.5 104t108.5 41t109 -41t43 -104q0 -61 -44.5 -104.5t-107.5 -43.5zM418 0h-295v1010h295v-1010z" />
    <glyph glyph-name="eth" unicode="&#xf0;" horiz-adv-x="1212" 
d="M991 1440l-170 -152q324 -226 324 -655q0 -294 -148 -477q-150 -181 -399 -181q-242 0 -391 140q-150 138 -150 358q0 210 129 348q125 137 322 137q252 0 356 -192q-27 230 -221 362l-100 -90h-230l185 164q-126 49 -267 66l131 184q181 -21 320 -86l82 74h227zM426 279
q65 -74 172 -74q109 0 170 76t61 202q0 117 -62.5 185.5t-170.5 68.5t-171 -71t-63 -193q0 -124 64 -194z" />
    <glyph glyph-name="ntilde" unicode="&#xf1;" horiz-adv-x="1208" 
d="M473 1128h-182q0 132 56.5 206.5t154.5 74.5q67 0 131 -43q61 -43 84 -43q56 0 59 86h182q-1 -133 -57 -206t-153 -73q-67 0 -132 44q-64 43 -84 43q-56 0 -59 -89zM418 0h-295v1010h278v-144q107 168 308 168q185 0 286 -105t101 -296v-633h-297v586q0 207 -174 207
q-92 0 -149.5 -61t-57.5 -165v-567z" />
    <glyph glyph-name="ograve" unicode="&#xf2;" 
d="M719 1118h-223l-254 297h303zM598 -25q-239 0 -389 150q-152 149 -152 379q0 231 152 383q150 147 389 147q241 0 391 -147q152 -152 152 -383q0 -230 -152 -379q-150 -150 -391 -150zM426 285q65 -80 172 -80t172 80q64 79 64 219q0 139 -64 221q-65 80 -172 80
t-172 -80q-64 -79 -64 -221q0 -140 64 -219z" />
    <glyph glyph-name="oacute" unicode="&#xf3;" 
d="M705 1118h-224l174 297h303zM598 -25q-239 0 -389 150q-152 149 -152 379q0 231 152 383q150 147 389 147q241 0 391 -147q152 -152 152 -383q0 -230 -152 -379q-150 -150 -391 -150zM426 285q65 -80 172 -80t172 80q64 79 64 219q0 139 -64 221q-65 80 -172 80t-172 -80
q-64 -79 -64 -221q0 -140 64 -219z" />
    <glyph glyph-name="ocircumflex" unicode="&#xf4;" 
d="M479 1118h-221l219 297h242l217 -297h-229l-115 135zM598 -25q-239 0 -389 150q-152 149 -152 379q0 231 152 383q150 147 389 147q241 0 391 -147q152 -152 152 -383q0 -230 -152 -379q-150 -150 -391 -150zM426 285q65 -80 172 -80t172 80q64 79 64 219q0 139 -64 221
q-65 80 -172 80t-172 -80q-64 -79 -64 -221q0 -140 64 -219z" />
    <glyph glyph-name="otilde" unicode="&#xf5;" 
d="M438 1128h-182q0 132 56.5 206.5t154.5 74.5q67 0 131 -43q61 -43 84 -43q56 0 59 86h183q-1 -133 -57.5 -206t-153.5 -73q-66 0 -131 44q-64 43 -84 43q-57 0 -60 -89zM598 -25q-239 0 -389 150q-152 149 -152 379q0 231 152 383q150 147 389 147q241 0 391 -147
q152 -152 152 -383q0 -230 -152 -379q-150 -150 -391 -150zM426 285q65 -80 172 -80t172 80q64 79 64 219q0 139 -64 221q-65 80 -172 80t-172 -80q-64 -79 -64 -221q0 -140 64 -219z" />
    <glyph glyph-name="odieresis" unicode="&#xf6;" 
d="M385 1122q-65 0 -108.5 43t-43.5 105q0 63 43 104t109 41t109 -41t43 -104q0 -61 -44.5 -104.5t-107.5 -43.5zM811 1122q-65 0 -108.5 43t-43.5 105q0 63 43 104t109 41t109 -41t43 -104q0 -61 -44.5 -104.5t-107.5 -43.5zM598 -25q-239 0 -389 150q-152 149 -152 379
q0 231 152 383q150 147 389 147q241 0 391 -147q152 -152 152 -383q0 -230 -152 -379q-150 -150 -391 -150zM426 285q65 -80 172 -80t172 80q64 79 64 219q0 139 -64 221q-65 80 -172 80t-172 -80q-64 -79 -64 -221q0 -140 64 -219z" />
    <glyph glyph-name="divide" unicode="&#xf7;" horiz-adv-x="1032" 
d="M616 874q-41 -43 -100 -43t-100 43q-43 41 -43 100.5t43 100.5q41 41 100 41t100 -41t41 -100.5t-41 -100.5zM958 496h-884v239h884v-239zM616 154q-41 -41 -100 -41t-100 41q-43 41 -43 100t43 102q41 41 100 41t100 -41q41 -43 41 -102t-41 -100z" />
    <glyph glyph-name="oslash" unicode="&#xf8;" horiz-adv-x="1202" 
d="M938 1010h213l-135 -152q125 -143 125 -354q0 -234 -150 -381q-151 -148 -393 -148q-170 0 -295 76l-45 -51h-213l135 154q-123 141 -123 350q0 231 152 383q150 147 389 147q167 0 295 -73zM354 504q0 -71 19 -133l358 405q-59 41 -133 41q-113 0 -178.5 -83.5
t-65.5 -229.5zM842 504q0 73 -19 135l-360 -406q58 -40 135 -40q113 0 178.5 82.5t65.5 228.5z" />
    <glyph glyph-name="ugrave" unicode="&#xf9;" 
d="M717 1118h-223l-254 297h303zM492 -25q-182 0 -280.5 105.5t-98.5 298.5v631h297v-590q0 -203 165 -203q90 0 145.5 58.5t55.5 160.5v574h297v-1010h-280v143q-107 -168 -301 -168z" />
    <glyph glyph-name="uacute" unicode="&#xfa;" 
d="M702 1118h-223l174 297h303zM492 -25q-182 0 -280.5 105.5t-98.5 298.5v631h297v-590q0 -203 165 -203q90 0 145.5 58.5t55.5 160.5v574h297v-1010h-280v143q-107 -168 -301 -168z" />
    <glyph glyph-name="ucircumflex" unicode="&#xfb;" 
d="M477 1118h-221l219 297h242l217 -297h-229l-115 135zM492 -25q-182 0 -280.5 105.5t-98.5 298.5v631h297v-590q0 -203 165 -203q90 0 145.5 58.5t55.5 160.5v574h297v-1010h-280v143q-107 -168 -301 -168z" />
    <glyph glyph-name="udieresis" unicode="&#xfc;" 
d="M383 1122q-65 0 -108.5 43t-43.5 105q0 63 43 104t109 41t109 -41t43 -104q0 -61 -44.5 -104.5t-107.5 -43.5zM809 1122q-65 0 -108.5 43t-43.5 105q0 63 43 104t109 41t109 -41t43 -104q0 -61 -44.5 -104.5t-107.5 -43.5zM492 -25q-182 0 -280.5 105.5t-98.5 298.5v631
h297v-590q0 -203 165 -203q90 0 145.5 58.5t55.5 160.5v574h297v-1010h-280v143q-107 -168 -301 -168z" />
    <glyph glyph-name="yacute" unicode="&#xfd;" horiz-adv-x="1064" 
d="M641 1118h-223l174 297h303zM293 -457q-190 0 -293 158l182 172q47 -86 115 -86q44 0 75.5 36t57.5 116l23 61h-99l-364 1010h313l232 -709l227 709h313l-432 -1170q-60 -162 -142 -229.5t-208 -67.5z" />
    <glyph glyph-name="thorn" unicode="&#xfe;" horiz-adv-x="1257" 
d="M418 -430h-295v1853h295v-569q101 180 317 180q201 0 332 -149q133 -151 133 -381q0 -228 -133 -379q-132 -150 -332 -150q-218 0 -317 179v-584zM657 205q110 0 174 80t64 219q0 141 -63.5 221t-174.5 80q-99 0 -170 -86q-69 -84 -69 -215q0 -129 69 -213
q71 -86 170 -86z" />
    <glyph glyph-name="ydieresis" unicode="&#xff;" horiz-adv-x="1064" 
d="M322 1122q-65 0 -108.5 43t-43.5 105q0 63 43 104t109 41t108.5 -41t42.5 -104q0 -62 -44 -105t-107 -43zM748 1122q-65 0 -108.5 43t-43.5 105q0 63 43 104t109 41t108.5 -41t42.5 -104q0 -62 -44 -105t-107 -43zM293 -457q-190 0 -293 158l182 172q47 -86 115 -86
q44 0 75.5 36t57.5 116l23 61h-99l-364 1010h313l232 -709l227 709h313l-432 -1170q-60 -162 -142 -229.5t-208 -67.5z" />
    <glyph glyph-name="Amacron" unicode="&#x100;" horiz-adv-x="1411" 
d="M393 1784h627v-203h-627v203zM1413 0h-319l-119 342h-543l-115 -342h-319l508 1423h399zM698 1137l-186 -555h379z" />
    <glyph glyph-name="amacron" unicode="&#x101;" horiz-adv-x="1146" 
d="M897 1165h-627v203h627v-203zM453 -25q-174 0 -280.5 85.5t-106.5 230.5q0 135 112 225q112 92 283 92q166 0 276 -98v108q0 187 -180 187q-161 0 -207 -168l-274 45q45 164 176.5 258t325.5 94q220 0 338 -107t118 -321v-606h-278v123q-50 -68 -133 -108t-170 -40z
M528 172q121 0 209 125v20q-88 101 -209 101q-73 0 -118 -34.5t-45 -88.5q0 -55 44.5 -89t118.5 -34z" />
    <glyph glyph-name="Abreve" unicode="&#x102;" horiz-adv-x="1411" 
d="M932 1606q-84 -78 -225 -78q-142 0 -226 78q-82 76 -82 219h191q0 -54 31.5 -84.5t85.5 -30.5t85 30.5t31 84.5h191q0 -143 -82 -219zM1413 0h-319l-119 342h-543l-115 -342h-319l508 1423h399zM698 1137l-186 -555h379z" />
    <glyph glyph-name="abreve" unicode="&#x103;" horiz-adv-x="1146" 
d="M809 1190q-84 -78 -225 -78q-142 0 -226 78q-82 76 -82 219h191q0 -54 31.5 -84.5t85.5 -30.5t85 30.5t31 84.5h191q0 -143 -82 -219zM453 -25q-174 0 -280.5 85.5t-106.5 230.5q0 135 112 225q112 92 283 92q166 0 276 -98v108q0 187 -180 187q-161 0 -207 -168l-274 45
q45 164 176.5 258t325.5 94q220 0 338 -107t118 -321v-606h-278v123q-50 -68 -133 -108t-170 -40zM528 172q121 0 209 125v20q-88 101 -209 101q-73 0 -118 -34.5t-45 -88.5q0 -55 44.5 -89t118.5 -34z" />
    <glyph glyph-name="Aogonek" unicode="&#x104;" horiz-adv-x="1411" 
d="M1382 -217l66 -162q-70 -49 -186 -49q-111 0 -178.5 46t-67.5 136q0 138 176 246h-98l-119 342h-543l-115 -342h-319l508 1423h399l508 -1423q-87 -62 -122.5 -102t-35.5 -80q0 -60 62 -60q34 0 65 25zM698 1137l-186 -555h379z" />
    <glyph glyph-name="aogonek" unicode="&#x105;" horiz-adv-x="1146" 
d="M1004 -217l65 -162q-70 -49 -186 -49q-111 0 -178.5 46t-67.5 136q0 138 176 246h-57v123q-50 -68 -133 -108t-170 -40q-174 0 -280.5 85.5t-106.5 230.5q0 135 112 225q112 92 283 92q166 0 276 -98v108q0 187 -180 187q-161 0 -207 -168l-274 45q45 164 176.5 258
t325.5 94q220 0 338 -107t118 -321v-606q-87 -61 -122 -101.5t-35 -80.5q0 -60 61 -60q35 0 66 25zM737 297v20q-88 101 -209 101q-73 0 -118 -34.5t-45 -88.5q0 -55 44.5 -89t118.5 -34q121 0 209 125z" />
    <glyph glyph-name="Cacute" unicode="&#x106;" horiz-adv-x="1517" 
d="M895 1534h-223l174 297h303zM780 -29q-308 0 -506 207q-196 205 -196 533q0 320 203 532q200 209 512 209q258 0 426.5 -146t228.5 -417l-301 -78q-85 363 -367 363q-165 0 -274 -130t-109 -333q0 -205 109 -332q108 -129 280 -129q277 0 357 293l315 -51
q-136 -521 -678 -521z" />
    <glyph glyph-name="cacute" unicode="&#x107;" horiz-adv-x="1114" 
d="M668 1118h-224l174 297h304zM586 -25q-239 0 -383 138q-146 140 -146 391q0 227 146 379q145 151 360 151q204 0 338 -110t170 -326l-280 -57q-18 128 -75.5 196t-140.5 68q-100 0 -156.5 -80.5t-56.5 -220.5q0 -137 61.5 -218t166.5 -81q156 0 223 205l256 -109
q-77 -163 -193 -244.5t-290 -81.5z" />
    <glyph glyph-name="Ccircumflex" unicode="&#x108;" horiz-adv-x="1517" 
d="M670 1534h-221l219 297h241l217 -297h-229l-115 135zM780 -29q-308 0 -506 207q-196 205 -196 533q0 320 203 532q200 209 512 209q258 0 426.5 -146t228.5 -417l-301 -78q-85 363 -367 363q-165 0 -274 -130t-109 -333q0 -205 109 -332q108 -129 280 -129q277 0 357 293
l315 -51q-136 -521 -678 -521z" />
    <glyph glyph-name="ccircumflex" unicode="&#x109;" horiz-adv-x="1114" 
d="M442 1118h-221l219 297h242l217 -297h-229l-115 135zM586 -25q-239 0 -383 138q-146 140 -146 391q0 227 146 379q145 151 360 151q204 0 338 -110t170 -326l-280 -57q-18 128 -75.5 196t-140.5 68q-100 0 -156.5 -80.5t-56.5 -220.5q0 -137 61.5 -218t166.5 -81
q156 0 223 205l256 -109q-77 -163 -193 -244.5t-290 -81.5z" />
    <glyph glyph-name="Cdotaccent" unicode="&#x10a;" horiz-adv-x="1517" 
d="M899 1579q-44 -43 -110 -43t-109 43q-44 41 -44 104.5t44 106.5q43 43 109 43t110 -43q43 -43 43 -106.5t-43 -104.5zM780 -29q-308 0 -506 207q-196 205 -196 533q0 320 203 532q200 209 512 209q258 0 426.5 -146t228.5 -417l-301 -78q-85 363 -367 363
q-165 0 -274 -130t-109 -333q0 -205 109 -332q108 -129 280 -129q277 0 357 293l315 -51q-136 -521 -678 -521z" />
    <glyph glyph-name="cdotaccent" unicode="&#x10b;" horiz-adv-x="1114" 
d="M672 1163q-44 -43 -110 -43t-109 43q-44 41 -44 104.5t44 106.5q43 43 109 43t110 -43q43 -43 43 -106.5t-43 -104.5zM586 -25q-239 0 -383 138q-146 140 -146 391q0 227 146 379q145 151 360 151q204 0 338 -110t170 -326l-280 -57q-18 128 -75.5 196t-140.5 68
q-100 0 -156.5 -80.5t-56.5 -220.5q0 -137 61.5 -218t166.5 -81q156 0 223 205l256 -109q-77 -163 -193 -244.5t-290 -81.5z" />
    <glyph glyph-name="Ccaron" unicode="&#x10c;" horiz-adv-x="1517" 
d="M907 1831h221l-219 -297h-241l-217 297h229l115 -135zM780 -29q-308 0 -506 207q-196 205 -196 533q0 320 203 532q200 209 512 209q258 0 426.5 -146t228.5 -417l-301 -78q-85 363 -367 363q-165 0 -274 -130t-109 -333q0 -205 109 -332q108 -129 280 -129
q277 0 357 293l315 -51q-136 -521 -678 -521z" />
    <glyph glyph-name="ccaron" unicode="&#x10d;" horiz-adv-x="1114" 
d="M680 1415h221l-219 -297h-242l-217 297h230l114 -135zM586 -25q-239 0 -383 138q-146 140 -146 391q0 227 146 379q145 151 360 151q204 0 338 -110t170 -326l-280 -57q-18 128 -75.5 196t-140.5 68q-100 0 -156.5 -80.5t-56.5 -220.5q0 -137 61.5 -218t166.5 -81
q156 0 223 205l256 -109q-77 -163 -193 -244.5t-290 -81.5z" />
    <glyph glyph-name="Dcaron" unicode="&#x10e;" horiz-adv-x="1525" 
d="M752 1831h221l-219 -297h-242l-217 297h229l115 -135zM711 0h-561v1423h561q200 0 362.5 -80.5t265.5 -242.5q107 -165 107 -389q0 -217 -103.5 -383.5t-273.5 -247.5q-165 -80 -358 -80zM455 1145v-866h223q194 0 321 106q129 105 129 328q0 219 -129 327
q-129 105 -321 105h-223z" />
    <glyph glyph-name="dcaron" unicode="&#x10f;" horiz-adv-x="1460" 
d="M528 -25q-203 0 -335 150q-136 151 -136 379q0 230 133 381q131 149 332 149q228 0 316 -166v555h297v-1423h-279v172q-102 -197 -328 -197zM1413 1061h-190l39 362h243zM598 205q101 0 172 86q68 86 68 213q0 129 -68.5 215t-171.5 86q-109 0 -172.5 -80.5t-63.5 -220.5
q0 -139 63.5 -219t172.5 -80z" />
    <glyph glyph-name="Dcroat" unicode="&#x110;" horiz-adv-x="1525" 
d="M150 1423h561q200 0 362.5 -80.5t265.5 -242.5q107 -165 107 -389q0 -217 -103.5 -383.5t-273.5 -247.5q-165 -80 -358 -80h-561v618h-121v213h121v592zM455 279h223q194 0 321 106q129 105 129 328q0 219 -129 327q-129 105 -321 105h-223v-314h305v-213h-305v-339z" />
    <glyph glyph-name="dslash" unicode="&#x111;" horiz-adv-x="1257" 
d="M1135 1300h122v-174h-122v-1126h-279v172q-102 -197 -328 -197q-203 0 -335 150q-136 151 -136 379q0 230 133 381q131 149 332 149q228 0 316 -166v258h-252v174h252v123h297v-123zM598 205q101 0 172 86q68 86 68 213q0 129 -68.5 215t-171.5 86q-109 0 -172.5 -80.5
t-63.5 -220.5q0 -139 63.5 -219t172.5 -80z" />
    <glyph glyph-name="Emacron" unicode="&#x112;" horiz-adv-x="1257" 
d="M973 1581h-627v203h627v-203zM1184 0h-1034v1423h1024v-264h-719v-309h587v-264h-587v-322h729v-264z" />
    <glyph glyph-name="emacron" unicode="&#x113;" horiz-adv-x="1161" 
d="M281 1368h626v-203h-626v203zM860 369l234 -117q-138 -277 -484 -277q-244 0 -397 144q-156 144 -156 385q0 232 154 383q150 147 383 147q230 0 362 -141q131 -140 131 -375q0 -68 -2 -80h-720q11 -109 77 -171t172 -62q160 0 246 164zM584 815q-88 0 -146 -55t-71 -152
h417q-15 207 -200 207z" />
    <glyph glyph-name="Ebreve" unicode="&#x114;" horiz-adv-x="1257" 
d="M885 1606q-84 -78 -226 -78q-141 0 -225 78q-82 76 -82 219h191q0 -54 31 -84.5t85 -30.5t85.5 30.5t31.5 84.5h191q0 -143 -82 -219zM1184 0h-1034v1423h1024v-264h-719v-309h587v-264h-587v-322h729v-264z" />
    <glyph glyph-name="ebreve" unicode="&#x115;" horiz-adv-x="1161" 
d="M819 1190q-84 -78 -225 -78t-225 78q-82 76 -82 219h190q0 -54 31.5 -84.5t85.5 -30.5t85.5 30.5t31.5 84.5h190q0 -143 -82 -219zM860 369l234 -117q-138 -277 -484 -277q-244 0 -397 144q-156 144 -156 385q0 232 154 383q150 147 383 147q230 0 362 -141
q131 -140 131 -375q0 -68 -2 -80h-720q11 -109 77 -171t172 -62q160 0 246 164zM584 815q-88 0 -146 -55t-71 -152h417q-15 207 -200 207z" />
    <glyph glyph-name="Edotaccent" unicode="&#x116;" horiz-adv-x="1257" 
d="M770 1579q-44 -43 -110 -43t-109 43q-44 41 -44 104.5t44 106.5q43 43 109 43t110 -43q43 -43 43 -106.5t-43 -104.5zM1184 0h-1034v1423h1024v-264h-719v-309h587v-264h-587v-322h729v-264z" />
    <glyph glyph-name="edotaccent" unicode="&#x117;" horiz-adv-x="1161" 
d="M705 1163q-44 -43 -110.5 -43t-109.5 43q-44 41 -44 104.5t44 106.5q43 43 109.5 43t110.5 -43q43 -43 43 -106.5t-43 -104.5zM860 369l234 -117q-138 -277 -484 -277q-244 0 -397 144q-156 144 -156 385q0 232 154 383q150 147 383 147q230 0 362 -141
q131 -140 131 -375q0 -68 -2 -80h-720q11 -109 77 -171t172 -62q160 0 246 164zM584 815q-88 0 -146 -55t-71 -152h417q-15 207 -200 207z" />
    <glyph glyph-name="Eogonek" unicode="&#x118;" horiz-adv-x="1257" 
d="M1153 -217l66 -162q-70 -49 -187 -49q-111 0 -178.5 46t-67.5 136q0 137 177 246h-813v1423h1024v-264h-719v-309h587v-264h-587v-322h729v-264q-87 -62 -122.5 -102t-35.5 -80q0 -60 61 -60q35 0 66 25z" />
    <glyph glyph-name="eogonek" unicode="&#x119;" horiz-adv-x="1161" 
d="M860 369l234 -117q-63 -129 -179 -199q-112 -69 -160 -121.5t-48 -111.5q0 -62 63 -62q33 0 64 25l65 -162q-70 -49 -190 -49q-109 0 -175.5 46t-66.5 136q0 121 145 221h-2q-244 0 -397 144q-156 144 -156 385q0 232 154 383q150 147 383 147q230 0 362 -141
q131 -140 131 -375q0 -68 -2 -80h-720q11 -109 77 -171t172 -62q160 0 246 164zM584 815q-88 0 -146 -55t-71 -152h417q-15 207 -200 207z" />
    <glyph glyph-name="Ecaron" unicode="&#x11a;" horiz-adv-x="1257" 
d="M778 1831h221l-219 -297h-241l-217 297h229l115 -135zM1184 0h-1034v1423h1024v-264h-719v-309h587v-264h-587v-322h729v-264z" />
    <glyph glyph-name="ecaron" unicode="&#x11b;" horiz-adv-x="1161" 
d="M934 1415l-219 -297h-242l-217 297h229l115 -135l113 135h221zM860 369l234 -117q-138 -277 -484 -277q-244 0 -397 144q-156 144 -156 385q0 232 154 383q150 147 383 147q230 0 362 -141q131 -140 131 -375q0 -68 -2 -80h-720q11 -109 77 -171t172 -62q160 0 246 164z
M584 815q-88 0 -146 -55t-71 -152h417q-15 207 -200 207z" />
    <glyph glyph-name="Gcircumflex" unicode="&#x11c;" horiz-adv-x="1648" 
d="M682 1534h-221l219 297h242l217 -297h-230l-114 135zM766 -29q-299 0 -494 207q-194 206 -194 533q0 319 207 532q206 209 522 209q258 0 427 -122t220 -345l-309 -80q-32 134 -122.5 204.5t-225.5 70.5q-174 0 -287 -131t-113 -338q0 -217 121 -344t303 -127
q159 0 268 83.5t128 223.5h-406v241h700v-788h-276v223q-132 -252 -469 -252z" />
    <glyph glyph-name="gcircumflex" unicode="&#x11d;" horiz-adv-x="1183" 
d="M961 995q-43 0 -70 -65q106 -93 106 -238q0 -164 -123 -252q-128 -90 -315 -90q-84 0 -174 23q-57 -20 -57 -72q0 -30 21 -47.5t59 -17.5h374q392 0 392 -304q0 -177 -162 -284q-163 -105 -412 -105q-274 0 -416.5 74.5t-142.5 212.5q0 131 166 201q-115 68 -115 196
q0 141 146 219q-115 92 -115 246q0 164 123 252q125 90 313 90q109 0 186 -26q34 67 80 110h-163l-115 135l-113 -135h-221l219 297h242l194 -264q50 33 127 33q92 0 150.5 -60.5t58.5 -179.5v-35l-178 -24q-6 110 -65 110zM442 586q44 -38 117 -38t117 38q45 36 45 106
q8 88 -77 125t-170 0t-77 -125q0 -70 45 -106zM735 -25h-282q-63 0 -101.5 -28t-38.5 -72q0 -127 283 -127q127 0 207 41.5t80 104.5q0 44 -34.5 62.5t-113.5 18.5z" />
    <glyph glyph-name="Gbreve" unicode="&#x11e;" horiz-adv-x="1648" 
d="M1026 1606q-84 -78 -225 -78q-142 0 -226 78q-81 75 -81 219h190q0 -54 31.5 -84.5t85.5 -30.5t85.5 30.5t31.5 84.5h190q0 -143 -82 -219zM766 -29q-299 0 -494 207q-194 206 -194 533q0 319 207 532q206 209 522 209q258 0 427 -122t220 -345l-309 -80
q-32 134 -122.5 204.5t-225.5 70.5q-174 0 -287 -131t-113 -338q0 -217 121 -344t303 -127q159 0 268 83.5t128 223.5h-406v241h700v-788h-276v223q-132 -252 -469 -252z" />
    <glyph glyph-name="gbreve" unicode="&#x11f;" horiz-adv-x="1183" 
d="M778 1190q-84 -78 -225 -78t-225 78q-82 76 -82 219h190q0 -54 31.5 -84.5t85.5 -30.5t85.5 30.5t31.5 84.5h190q0 -143 -82 -219zM961 995q-43 0 -70 -65q106 -93 106 -238q0 -164 -123 -252q-128 -90 -315 -90q-84 0 -174 23q-57 -20 -57 -72q0 -30 21 -47.5t59 -17.5
h374q392 0 392 -304q0 -177 -162 -284q-163 -105 -412 -105q-274 0 -416.5 74.5t-142.5 212.5q0 131 166 201q-115 68 -115 196q0 141 146 219q-115 92 -115 246q0 164 123 252q125 90 313 90q109 0 186 -26q86 176 250 176q92 0 150.5 -60.5t58.5 -179.5v-35l-178 -24
q-6 110 -65 110zM442 586q44 -38 117 -38t117 38q45 36 45 106q8 88 -77 125t-170 0t-77 -125q0 -70 45 -106zM735 -25h-282q-63 0 -101.5 -28t-38.5 -72q0 -127 283 -127q127 0 207 41.5t80 104.5q0 44 -34.5 62.5t-113.5 18.5z" />
    <glyph glyph-name="Gdotaccent" unicode="&#x120;" horiz-adv-x="1648" 
d="M911 1579q-44 -43 -110 -43t-109 43q-44 41 -44 104.5t44 106.5q43 43 109 43t110 -43q43 -43 43 -106.5t-43 -104.5zM766 -29q-299 0 -494 207q-194 206 -194 533q0 319 207 532q206 209 522 209q258 0 427 -122t220 -345l-309 -80q-32 134 -122.5 204.5t-225.5 70.5
q-174 0 -287 -131t-113 -338q0 -217 121 -344t303 -127q159 0 268 83.5t128 223.5h-406v241h700v-788h-276v223q-132 -252 -469 -252z" />
    <glyph glyph-name="gdotaccent" unicode="&#x121;" horiz-adv-x="1183" 
d="M664 1163q-44 -43 -110.5 -43t-109.5 43q-44 41 -44 104.5t44 106.5q43 43 109.5 43t110.5 -43q43 -43 43 -106.5t-43 -104.5zM961 995q-43 0 -70 -65q106 -93 106 -238q0 -164 -123 -252q-128 -90 -315 -90q-84 0 -174 23q-57 -20 -57 -72q0 -30 21 -47.5t59 -17.5h374
q392 0 392 -304q0 -177 -162 -284q-163 -105 -412 -105q-274 0 -416.5 74.5t-142.5 212.5q0 131 166 201q-115 68 -115 196q0 141 146 219q-115 92 -115 246q0 164 123 252q125 90 313 90q109 0 186 -26q86 176 250 176q92 0 150.5 -60.5t58.5 -179.5v-35l-178 -24
q-6 110 -65 110zM442 586q44 -38 117 -38t117 38q45 36 45 106q8 88 -77 125t-170 0t-77 -125q0 -70 45 -106zM735 -25h-282q-63 0 -101.5 -28t-38.5 -72q0 -127 283 -127q127 0 207 41.5t80 104.5q0 44 -34.5 62.5t-113.5 18.5z" />
    <glyph glyph-name="uni0122" unicode="&#x122;" horiz-adv-x="1648" 
d="M766 -29q-299 0 -494 207q-194 206 -194 533q0 319 207 532q206 209 522 209q258 0 427 -122t220 -345l-309 -80q-32 134 -122.5 204.5t-225.5 70.5q-174 0 -287 -131t-113 -338q0 -217 121 -344t303 -127q159 0 268 83.5t128 223.5h-406v241h700v-788h-276v223
q-132 -252 -469 -252zM809 -477h-219l92 354h254z" />
    <glyph glyph-name="uni0123" unicode="&#x123;" horiz-adv-x="1183" 
d="M551 1473h217l-92 -355h-254zM961 995q-43 0 -70 -65q106 -93 106 -238q0 -164 -123 -252q-128 -90 -315 -90q-84 0 -174 23q-57 -20 -57 -72q0 -30 21 -47.5t59 -17.5h374q392 0 392 -304q0 -177 -162 -284q-163 -105 -412 -105q-274 0 -416.5 74.5t-142.5 212.5
q0 131 166 201q-115 68 -115 196q0 141 146 219q-115 92 -115 246q0 164 123 252q125 90 313 90q109 0 186 -26q86 176 250 176q92 0 150.5 -60.5t58.5 -179.5v-35l-178 -24q-6 110 -65 110zM442 586q44 -38 117 -38t117 38q45 36 45 106q8 88 -77 125t-170 0t-77 -125
q0 -70 45 -106zM735 -25h-282q-63 0 -101.5 -28t-38.5 -72q0 -127 283 -127q127 0 207 41.5t80 104.5q0 44 -34.5 62.5t-113.5 18.5z" />
    <glyph glyph-name="Hcircumflex" unicode="&#x124;" horiz-adv-x="1542" 
d="M653 1534h-221l219 297h242l217 -297h-229l-115 135zM455 0h-305v1423h305v-561h632v561h306v-1423h-306v584h-632v-584z" />
    <glyph glyph-name="hcircumflex" unicode="&#x125;" horiz-adv-x="1208" 
d="M152 1499h-222l220 297h241l217 -297h-229l-115 135zM418 0h-295v1423h295v-557q107 168 307 168q178 0 274.5 -105t96.5 -296v-633h-297v586q0 207 -174 207q-92 0 -149.5 -61t-57.5 -165v-567z" />
    <glyph glyph-name="Hbar" unicode="&#x126;" horiz-adv-x="1542" 
d="M1393 1206h123v-215h-123v-991h-306v539h-632v-539h-305v991h-123v215h123v217h305v-217h632v217h306v-217zM455 807h632v184h-632v-184z" />
    <glyph glyph-name="hbar" unicode="&#x127;" horiz-adv-x="1208" 
d="M725 1034q178 0 274.5 -105t96.5 -296v-633h-297v586q0 207 -174 207q-92 0 -149.5 -61t-57.5 -165v-567h-295v1126h-123v174h123v123h295v-123h254v-174h-254v-260q107 168 307 168z" />
    <glyph glyph-name="Itilde" unicode="&#x128;" horiz-adv-x="602" 
d="M143 1544h-182q0 132 56.5 206.5t154.5 74.5q67 0 131 -43q61 -43 84 -43q56 0 59 86h183q-1 -133 -57.5 -206t-153.5 -73q-67 0 -131 43t-84 43q-57 0 -60 -88zM455 0h-305v1423h305v-1423z" />
    <glyph glyph-name="itilde" unicode="&#x129;" horiz-adv-x="540" 
d="M111 1128h-183q0 132 56.5 206.5t154.5 74.5q67 0 131 -43q61 -43 84 -43q57 0 60 86h182q-1 -133 -57.5 -206t-153.5 -73q-66 0 -131 44q-64 43 -84 43q-56 0 -59 -89zM418 0h-295v1010h295v-1010z" />
    <glyph glyph-name="Imacron" unicode="&#x12a;" horiz-adv-x="602" 
d="M616 1581h-626v203h626v-203zM455 0h-305v1423h305v-1423z" />
    <glyph glyph-name="imacron" unicode="&#x12b;" horiz-adv-x="540" 
d="M584 1165h-627v203h627v-203zM418 0h-295v1010h295v-1010z" />
    <glyph glyph-name="Ibreve" unicode="&#x12c;" horiz-adv-x="602" 
d="M528 1606q-84 -78 -225 -78t-225 78q-82 76 -82 219h190q0 -54 31.5 -84.5t85.5 -30.5t85.5 30.5t31.5 84.5h190q0 -143 -82 -219zM455 0h-305v1423h305v-1423z" />
    <glyph glyph-name="ibreve" unicode="&#x12d;" horiz-adv-x="540" 
d="M496 1190q-84 -78 -226 -78q-141 0 -225 78q-82 76 -82 219h191q0 -54 31 -84.5t85 -30.5t85.5 30.5t31.5 84.5h191q0 -143 -82 -219zM418 0h-295v1010h295v-1010z" />
    <glyph glyph-name="Iogonek" unicode="&#x12e;" horiz-adv-x="602" 
d="M449 -217l65 -162q-70 -49 -186 -49q-111 0 -178.5 46t-67.5 136q0 137 158 246h-90v1423h305v-1423q-133 -118 -133 -182q0 -60 61 -60q35 0 66 25z" />
    <glyph glyph-name="iogonek" unicode="&#x12f;" horiz-adv-x="540" 
d="M270 1126q-69 0 -117.5 46.5t-48.5 115.5t48.5 115.5t117.5 46.5q72 0 120 -46.5t48 -115.5t-48 -115.5t-120 -46.5zM412 -217l65 -162q-70 -49 -186 -49q-111 0 -178.5 46t-67.5 136q0 137 158 246h-80v1010h295v-1010q-133 -118 -133 -182q0 -60 61 -60q35 0 66 25z
" />
    <glyph glyph-name="Idot" unicode="&#x130;" horiz-adv-x="602" 
d="M414 1579q-44 -43 -110 -43t-109 43q-44 41 -44 104.5t44 106.5q43 43 109 43t110 -43q43 -43 43 -106.5t-43 -104.5zM455 0h-305v1423h305v-1423z" />
    <glyph glyph-name="dotlessi" unicode="&#x131;" horiz-adv-x="540" 
d="M418 0h-295v1010h295v-1010z" />
    <glyph glyph-name="IJ" unicode="&#x132;" horiz-adv-x="1441" 
d="M434 680h-305v743h305v-743zM721 -29q-282 0 -435 130.5t-153 351.5q0 39 6 73h295v-39q0 -112 75 -177.5t214 -65.5q287 0 287 323v856h305v-882q0 -271 -155.5 -420.5t-438.5 -149.5z" />
    <glyph glyph-name="ij" unicode="&#x133;" horiz-adv-x="1081" 
d="M270 1126q-69 0 -117.5 46.5t-48.5 115.5t48.5 115.5t117.5 46.5q72 0 120 -46.5t48 -115.5t-48 -115.5t-120 -46.5zM811 1126q-69 0 -117.5 46.5t-48.5 115.5t48.5 115.5t117.5 46.5q72 0 120 -46.5t48 -115.5t-48 -115.5t-120 -46.5zM418 0h-295v1010h295v-1010z
M645 -457q-148 0 -258 72l82 231q56 -59 117 -59q78 0 78 98v1125h294v-1143q0 -163 -85 -243.5t-228 -80.5z" />
    <glyph glyph-name="Jcircumflex" unicode="&#x134;" horiz-adv-x="1222" 
d="M827 1534h-221l219 297h242l217 -297h-229l-115 135zM567 -29q-241 0 -376.5 133t-135.5 359q0 76 23 188l297 -53q-13 -67 -13 -119q0 -112 53 -173.5t154 -61.5q222 0 222 305v874h305v-944q0 -241 -139 -374.5t-390 -133.5z" />
    <glyph glyph-name="jcircumflex" unicode="&#x135;" horiz-adv-x="540" 
d="M152 1118h-222l220 297h241l217 -297h-229l-115 135zM104 -457q-148 0 -258 72l82 231q56 -59 117 -59q78 0 78 98v1125h295v-1143q0 -163 -85.5 -243.5t-228.5 -80.5z" />
    <glyph glyph-name="uni0136" unicode="&#x136;" horiz-adv-x="1404" 
d="M1315 281q31 0 49 6v-283q-38 -12 -74 -12q-181 0 -303 94t-297 354l-104 156l-131 -154v-442h-305v1423h305v-663l540 663h361l-533 -635l144 -206q122 -177 194 -240q70 -61 154 -61zM758 -477h-219l92 354h254z" />
    <glyph glyph-name="uni0137" unicode="&#x137;" horiz-adv-x="1148" 
d="M727 571l74 -114q73 -112 131 -160q51 -45 131 -45q36 0 63 10l-4 -262q-46 -12 -108 -12q-147 0 -245.5 64t-195.5 222l-77 127l-78 -77v-324h-295v1423h295v-831l368 418h349zM592 -477h-219l92 354h254z" />
    <glyph glyph-name="kgreenlandic" unicode="&#x138;" horiz-adv-x="1148" 
d="M725 573l76 -116q76 -119 130.5 -162t131.5 -43q36 0 63 10l-4 -262q-46 -12 -108 -12q-145 0 -244.5 65t-196.5 221l-79 132l-76 -76v-330h-295v1010h295v-416l366 416h349z" />
    <glyph glyph-name="Lacute" unicode="&#x139;" horiz-adv-x="1124" 
d="M408 1534h-224l174 297h304zM1104 0h-954v1423h305v-1144h649v-279z" />
    <glyph glyph-name="lacute" unicode="&#x13a;" horiz-adv-x="540" 
d="M377 1499h-223l174 297h303zM418 0h-295v1423h295v-1423z" />
    <glyph glyph-name="uni013B" unicode="&#x13b;" horiz-adv-x="1124" 
d="M1104 0h-954v1423h305v-1144h649v-279zM629 -477h-219l92 354h254z" />
    <glyph glyph-name="uni013C" unicode="&#x13c;" horiz-adv-x="540" 
d="M418 0h-295v1423h295v-1423zM270 -477h-219l92 354h254z" />
    <glyph glyph-name="Lcaron" unicode="&#x13d;" horiz-adv-x="1124" 
d="M1104 0h-954v1423h305v-1144h649v-279zM754 1061h-191l39 362h244z" />
    <glyph glyph-name="lcaron" unicode="&#x13e;" horiz-adv-x="743" 
d="M418 0h-295v1423h295v-1423zM696 1061h-190l39 362h243z" />
    <glyph glyph-name="Ldot" unicode="&#x13f;" horiz-adv-x="1124" 
d="M1104 0h-954v1423h305v-1144h649v-279zM864 582q-76 0 -131 53.5t-55 130.5t55 131.5t131 54.5q80 0 134.5 -53.5t54.5 -132.5q0 -78 -54.5 -131t-134.5 -53z" />
    <glyph glyph-name="ldot" unicode="&#x140;" horiz-adv-x="815" 
d="M418 0h-295v1423h295v-1423zM676 510q-76 0 -131.5 53.5t-55.5 130.5t55.5 132t131.5 55q80 0 134 -54t54 -133q0 -78 -54 -131t-134 -53z" />
    <glyph glyph-name="Lslash" unicode="&#x141;" horiz-adv-x="1124" 
d="M455 731v-452h649v-279h-954v623l-115 -41v223l115 41v577h305v-469l323 115v-221z" />
    <glyph glyph-name="lslash" unicode="&#x142;" horiz-adv-x="540" 
d="M418 879l137 57v-186l-137 -60v-690h-295v565l-137 -59v188l137 58v671h295v-544z" />
    <glyph glyph-name="Nacute" unicode="&#x143;" horiz-adv-x="1540" 
d="M883 1534h-224l175 297h303zM444 0h-294v1423h305l641 -956v956h295v-1423h-308l-639 954v-954z" />
    <glyph glyph-name="nacute" unicode="&#x144;" horiz-adv-x="1208" 
d="M739 1118h-223l174 297h303zM418 0h-295v1010h278v-144q107 168 308 168q185 0 286 -105t101 -296v-633h-297v586q0 207 -174 207q-92 0 -149.5 -61t-57.5 -165v-567z" />
    <glyph glyph-name="uni0145" unicode="&#x145;" horiz-adv-x="1540" 
d="M444 0h-294v1423h305l641 -956v956h295v-1423h-308l-639 954v-954zM768 -477h-219l92 354h254z" />
    <glyph glyph-name="uni0146" unicode="&#x146;" horiz-adv-x="1208" 
d="M418 0h-295v1010h278v-144q107 168 308 168q185 0 286 -105t101 -296v-633h-297v586q0 207 -174 207q-92 0 -149.5 -61t-57.5 -165v-567zM606 -477h-219l92 354h254z" />
    <glyph glyph-name="Ncaron" unicode="&#x147;" horiz-adv-x="1540" 
d="M895 1831h221l-219 -297h-242l-217 297h230l114 -135zM444 0h-294v1423h305l641 -956v956h295v-1423h-308l-639 954v-954z" />
    <glyph glyph-name="ncaron" unicode="&#x148;" horiz-adv-x="1208" 
d="M752 1415h221l-219 -297h-242l-217 297h229l115 -135zM418 0h-295v1010h278v-144q107 168 308 168q185 0 286 -105t101 -296v-633h-297v586q0 207 -174 207q-92 0 -149.5 -61t-57.5 -165v-567z" />
    <glyph glyph-name="napostrophe" unicode="&#x149;" horiz-adv-x="1730" 
d="M254 1448q89 0 144 -62t55 -165q0 -209 -193 -396l-137 99q96 87 108 188q-68 6 -112.5 51.5t-44.5 112.5q0 74 52 123t128 49zM1231 1034q185 0 286 -105t101 -296v-633h-297v586q0 207 -174 207q-92 0 -149.5 -61t-57.5 -165v-567h-295v1010h279v-144q107 168 307 168z
" />
    <glyph glyph-name="Eng" unicode="&#x14a;" horiz-adv-x="1546" 
d="M1059 -457q-160 0 -279 76l88 242q58 -64 138 -64q102 0 102 113v98l-662 946v-954h-296v1423h309l641 -929v929h297v-1540q0 -173 -91 -256.5t-247 -83.5z" />
    <glyph glyph-name="eng" unicode="&#x14b;" horiz-adv-x="1208" 
d="M778 -459q-150 0 -260 72l82 231q56 -59 119 -59q80 0 80 98v703q0 207 -174 207q-92 0 -149.5 -61t-57.5 -165v-567h-295v1010h278v-144q107 168 308 168q185 0 286 -105t101 -296v-768q0 -163 -87 -243.5t-231 -80.5z" />
    <glyph glyph-name="Omacron" unicode="&#x14c;" horiz-adv-x="1619" 
d="M1122 1581h-626v203h626v-203zM1333 180q-206 -209 -524 -209t-524 209q-207 210 -207 531q0 319 207 532q206 209 524 209t524 -209q207 -213 207 -532q0 -321 -207 -531zM809 250q182 0 297 127t115 334q0 206 -115 336q-115 127 -297 127q-180 0 -295 -127
q-115 -130 -115 -336q0 -207 115 -334t295 -127z" />
    <glyph glyph-name="omacron" unicode="&#x14d;" 
d="M911 1165h-626v203h626v-203zM598 -25q-239 0 -389 150q-152 149 -152 379q0 231 152 383q150 147 389 147q241 0 391 -147q152 -152 152 -383q0 -230 -152 -379q-150 -150 -391 -150zM426 285q65 -80 172 -80t172 80q64 79 64 219q0 139 -64 221q-65 80 -172 80
t-172 -80q-64 -79 -64 -221q0 -140 64 -219z" />
    <glyph glyph-name="Obreve" unicode="&#x14e;" horiz-adv-x="1619" 
d="M1034 1606q-84 -78 -225 -78t-225 78q-82 76 -82 219h190q0 -54 31.5 -84.5t85.5 -30.5t85.5 30.5t31.5 84.5h190q0 -143 -82 -219zM1333 180q-206 -209 -524 -209t-524 209q-207 210 -207 531q0 319 207 532q206 209 524 209t524 -209q207 -213 207 -532
q0 -321 -207 -531zM809 250q182 0 297 127t115 334q0 206 -115 336q-115 127 -297 127q-180 0 -295 -127q-115 -130 -115 -336q0 -207 115 -334t295 -127z" />
    <glyph glyph-name="obreve" unicode="&#x14f;" 
d="M823 1190q-84 -78 -225 -78t-225 78q-82 76 -82 219h190q0 -54 31.5 -84.5t85.5 -30.5t85.5 30.5t31.5 84.5h190q0 -143 -82 -219zM598 -25q-239 0 -389 150q-152 149 -152 379q0 231 152 383q150 147 389 147q241 0 391 -147q152 -152 152 -383q0 -230 -152 -379
q-150 -150 -391 -150zM426 285q65 -80 172 -80t172 80q64 79 64 219q0 139 -64 221q-65 80 -172 80t-172 -80q-64 -79 -64 -221q0 -140 64 -219z" />
    <glyph glyph-name="Ohungarumlaut" unicode="&#x150;" horiz-adv-x="1619" 
d="M723 1534h-201l140 297h280zM1087 1534h-200l141 297h281zM1333 180q-206 -209 -524 -209t-524 209q-207 210 -207 531q0 319 207 532q206 209 524 209t524 -209q207 -213 207 -532q0 -321 -207 -531zM809 250q182 0 297 127t115 334q0 206 -115 336q-115 127 -297 127
q-180 0 -295 -127q-115 -130 -115 -336q0 -207 115 -334t295 -127z" />
    <glyph glyph-name="ohungarumlaut" unicode="&#x151;" 
d="M512 1118h-201l140 297h280zM877 1118h-201l141 297h281zM598 -25q-239 0 -389 150q-152 149 -152 379q0 231 152 383q150 147 389 147q241 0 391 -147q152 -152 152 -383q0 -230 -152 -379q-150 -150 -391 -150zM426 285q65 -80 172 -80t172 80q64 79 64 219
q0 139 -64 221q-65 80 -172 80t-172 -80q-64 -79 -64 -221q0 -140 64 -219z" />
    <glyph glyph-name="OE" unicode="&#x152;" horiz-adv-x="2211" 
d="M1409 586v-322h729v-264h-1034v76q-144 -105 -346 -105q-302 0 -496 209t-194 531q0 323 194 532t496 209q200 0 346 -104v75h1024v-264h-719v-309h588v-264h-588zM795 250q201 0 309 156v612q-108 156 -309 156q-178 0 -293 -130q-115 -133 -115 -333q0 -202 115 -332
q114 -129 293 -129z" />
    <glyph glyph-name="oe" unicode="&#x153;" horiz-adv-x="1914" 
d="M1612 371l235 -119q-139 -277 -485 -277q-246 0 -389 152q-140 -152 -375 -152q-238 0 -389 148q-152 149 -152 381q0 231 152 383q150 147 389 147q240 0 379 -151q139 151 369 151q229 0 362 -139q131 -140 131 -377q0 -68 -2 -80h-721q10 -109 77 -171t173 -62
q161 0 246 166zM1335 815q-87 0 -145.5 -55.5t-71.5 -151.5h420q-18 207 -203 207zM426 285q62 -80 172 -80q109 0 174 80q62 80 62 219q0 138 -62 221q-65 80 -174 80q-110 0 -172 -80q-64 -82 -64 -221q0 -140 64 -219z" />
    <glyph glyph-name="Racute" unicode="&#x154;" horiz-adv-x="1406" 
d="M690 1831h303l-254 -297h-223zM1300 281q31 0 52 6v-283q-38 -12 -88 -12q-195 0 -326 94q-135 93 -248 350l-43 88h-192v-524h-305v1423h638q232 0 373 -120q142 -121 142 -332q0 -161 -88 -266.5t-248 -137.5q84 -161 161 -223.5t172 -62.5zM752 1159h-297v-373h301
q227 0 227 187q0 186 -231 186z" />
    <glyph glyph-name="racute" unicode="&#x155;" horiz-adv-x="999" 
d="M651 1118h-223l174 297h303zM418 0h-295v1010h278v-183q82 199 291 199q126 0 205.5 -83t79.5 -222q0 -77 -29 -172l-268 29q10 45 10 81q0 132 -104 132q-73 0 -120.5 -77.5t-47.5 -205.5v-508z" />
    <glyph glyph-name="uni0156" unicode="&#x156;" horiz-adv-x="1406" 
d="M1300 281q31 0 52 6v-283q-38 -12 -88 -12q-195 0 -326 94q-135 93 -248 350l-43 88h-192v-524h-305v1423h638q232 0 373 -120q142 -121 142 -332q0 -161 -88 -266.5t-248 -137.5q84 -161 161 -223.5t172 -62.5zM752 1159h-297v-373h301q227 0 227 187q0 186 -231 186z
M770 -477h-219l92 354h254z" />
    <glyph glyph-name="uni0157" unicode="&#x157;" horiz-adv-x="999" 
d="M418 0h-295v1010h278v-183q82 199 291 199q126 0 205.5 -83t79.5 -222q0 -77 -29 -172l-268 29q10 45 10 81q0 132 -104 132q-73 0 -120.5 -77.5t-47.5 -205.5v-508zM270 -477h-219l92 354h254z" />
    <glyph glyph-name="Rcaron" unicode="&#x158;" horiz-adv-x="1406" 
d="M973 1831l-219 -297h-242l-217 297h229l115 -135l113 135h221zM1300 281q31 0 52 6v-283q-38 -12 -88 -12q-195 0 -326 94q-135 93 -248 350l-43 88h-192v-524h-305v1423h638q232 0 373 -120q142 -121 142 -332q0 -161 -88 -266.5t-248 -137.5q84 -161 161 -223.5
t172 -62.5zM752 1159h-297v-373h301q227 0 227 187q0 186 -231 186z" />
    <glyph glyph-name="rcaron" unicode="&#x159;" horiz-adv-x="999" 
d="M664 1415h221l-219 -297h-242l-217 297h229l115 -135zM418 0h-295v1010h278v-183q82 199 291 199q126 0 205.5 -83t79.5 -222q0 -77 -29 -172l-268 29q10 45 10 81q0 132 -104 132q-73 0 -120.5 -77.5t-47.5 -205.5v-508z" />
    <glyph glyph-name="Sacute" unicode="&#x15a;" horiz-adv-x="1347" 
d="M778 1534h-223l174 297h303zM686 -29q-284 0 -448 123q-162 119 -162 316q0 82 28 174l293 -68q-16 -43 -16 -94q0 -92 85 -146.5t226 -54.5q128 0 201.5 48t73.5 132q0 129 -193 166l-188 33q-245 42 -360 146.5t-115 277.5q0 185 149 307q148 121 393 121
q278 0 426.5 -122.5t165.5 -358.5l-301 -37q-35 268 -301 268q-101 0 -164 -44.5t-63 -117.5q0 -132 223 -172l188 -32q230 -41 336.5 -140.5t106.5 -265.5q0 -205 -160 -332q-165 -127 -424 -127z" />
    <glyph glyph-name="sacute" unicode="&#x15b;" horiz-adv-x="1067" 
d="M653 1118h-223l174 297h303zM543 -25q-224 0 -360.5 95.5t-137.5 259.5l279 32q18 -180 227 -180q158 0 158 105q0 41 -25.5 61t-89.5 31l-115 20q-102 17 -176.5 45t-132.5 80q-80 77 -80 207q0 140 122 221.5t335 81.5q192 0 310 -80.5t142 -214.5l-262 -63
q-38 151 -194 151q-73 0 -115.5 -26t-42.5 -70q0 -43 30.5 -65.5t104.5 -34.5l115 -19q159 -24 256 -84q115 -73 115 -233q0 -150 -127.5 -235t-335.5 -85z" />
    <glyph glyph-name="Scircumflex" unicode="&#x15c;" horiz-adv-x="1347" 
d="M553 1534h-221l219 297h242l217 -297h-230l-114 135zM686 -29q-284 0 -448 123q-162 119 -162 316q0 82 28 174l293 -68q-16 -43 -16 -94q0 -92 85 -146.5t226 -54.5q128 0 201.5 48t73.5 132q0 129 -193 166l-188 33q-245 42 -360 146.5t-115 277.5q0 185 149 307
q148 121 393 121q278 0 426.5 -122.5t165.5 -358.5l-301 -37q-35 268 -301 268q-101 0 -164 -44.5t-63 -117.5q0 -132 223 -172l188 -32q230 -41 336.5 -140.5t106.5 -265.5q0 -205 -160 -332q-165 -127 -424 -127z" />
    <glyph glyph-name="scircumflex" unicode="&#x15d;" horiz-adv-x="1067" 
d="M428 1118h-221l219 297h242l217 -297h-230l-114 135zM543 -25q-224 0 -360.5 95.5t-137.5 259.5l279 32q18 -180 227 -180q158 0 158 105q0 41 -25.5 61t-89.5 31l-115 20q-102 17 -176.5 45t-132.5 80q-80 77 -80 207q0 140 122 221.5t335 81.5q192 0 310 -80.5
t142 -214.5l-262 -63q-38 151 -194 151q-73 0 -115.5 -26t-42.5 -70q0 -43 30.5 -65.5t104.5 -34.5l115 -19q159 -24 256 -84q115 -73 115 -233q0 -150 -127.5 -235t-335.5 -85z" />
    <glyph glyph-name="Scedilla" unicode="&#x15e;" horiz-adv-x="1347" 
d="M1270 430q0 -182 -125.5 -303t-343.5 -150l-80 -296h-232l76 296q-230 26 -359.5 142.5t-129.5 290.5q0 82 28 174l293 -68q-16 -43 -16 -94q0 -92 85 -146.5t226 -54.5q128 0 201.5 48t73.5 132q0 129 -193 166l-188 33q-245 42 -360 146.5t-115 277.5q0 185 149 307
q148 121 393 121q278 0 426.5 -122.5t165.5 -358.5l-301 -37q-35 268 -301 268q-101 0 -164 -44.5t-63 -117.5q0 -132 223 -172l188 -32q230 -41 336.5 -140.5t106.5 -265.5z" />
    <glyph glyph-name="scedilla" unicode="&#x15f;" horiz-adv-x="1067" 
d="M1006 295q0 -127 -94.5 -208.5t-256.5 -102.5l-82 -303h-231l76 303q-172 25 -272 116t-101 230l279 32q18 -180 227 -180q158 0 158 105q0 41 -25.5 61t-89.5 31l-115 20q-102 17 -176.5 45t-132.5 80q-80 77 -80 207q0 140 122 221.5t335 81.5q192 0 310 -80.5
t142 -214.5l-262 -63q-38 151 -194 151q-73 0 -115.5 -26t-42.5 -70q0 -43 30.5 -65.5t104.5 -34.5l115 -19q159 -24 256 -84q115 -73 115 -233z" />
    <glyph glyph-name="Scaron" unicode="&#x160;" horiz-adv-x="1347" 
d="M791 1831h221l-219 -297h-242l-217 297h229l115 -135zM686 -29q-284 0 -448 123q-162 119 -162 316q0 82 28 174l293 -68q-16 -43 -16 -94q0 -92 85 -146.5t226 -54.5q128 0 201.5 48t73.5 132q0 129 -193 166l-188 33q-245 42 -360 146.5t-115 277.5q0 185 149 307
q148 121 393 121q278 0 426.5 -122.5t165.5 -358.5l-301 -37q-35 268 -301 268q-101 0 -164 -44.5t-63 -117.5q0 -132 223 -172l188 -32q230 -41 336.5 -140.5t106.5 -265.5q0 -205 -160 -332q-165 -127 -424 -127z" />
    <glyph glyph-name="scaron" unicode="&#x161;" horiz-adv-x="1067" 
d="M666 1415h221l-219 -297h-242l-217 297h229l115 -135zM543 -25q-224 0 -360.5 95.5t-137.5 259.5l279 32q18 -180 227 -180q158 0 158 105q0 41 -25.5 61t-89.5 31l-115 20q-102 17 -176.5 45t-132.5 80q-80 77 -80 207q0 140 122 221.5t335 81.5q192 0 310 -80.5
t142 -214.5l-262 -63q-38 151 -194 151q-73 0 -115.5 -26t-42.5 -70q0 -43 30.5 -65.5t104.5 -34.5l115 -19q159 -24 256 -84q115 -73 115 -233q0 -150 -127.5 -235t-335.5 -85z" />
    <glyph glyph-name="uni0162" unicode="&#x162;" horiz-adv-x="1261" 
d="M784 0h-305v1145h-438v278h1180v-278h-437v-1145zM633 -477h-219l92 354h254z" />
    <glyph glyph-name="uni0163" unicode="&#x163;" horiz-adv-x="901" 
d="M502 -25q-340 0 -340 342v451h-142v242h156l74 290h207v-290h393v-242h-393v-428q0 -109 82 -109q40 0 72.5 36t68.5 118l221 -121q-147 -289 -399 -289zM473 -477h-219l92 354h254z" />
    <glyph glyph-name="Tcaron" unicode="&#x164;" horiz-adv-x="1261" 
d="M750 1831h221l-219 -297h-242l-217 297h229l115 -135zM784 0h-305v1145h-438v278h1180v-278h-437v-1145z" />
    <glyph glyph-name="tcaron" unicode="&#x165;" horiz-adv-x="901" 
d="M764 1108h-191l39 362h244zM502 -25q-340 0 -340 342v451h-142v242h156l74 290h207v-290h393v-242h-393v-428q0 -109 82 -109q40 0 72.5 36t68.5 118l221 -121q-147 -289 -399 -289z" />
    <glyph glyph-name="Tbar" unicode="&#x166;" horiz-adv-x="1261" 
d="M1221 1423v-278h-437v-350h211v-213h-211v-582h-305v582h-215v213h215v350h-438v278h1180z" />
    <glyph glyph-name="tbar" unicode="&#x167;" horiz-adv-x="901" 
d="M676 356l221 -118q-133 -263 -395 -263q-340 0 -340 340v164h-144v174h144v142h-142v215h156l74 290h207v-290h393v-215h-393v-142h331v-174h-331v-145q0 -109 82 -109t137 131z" />
    <glyph glyph-name="Utilde" unicode="&#x168;" horiz-adv-x="1486" 
d="M584 1544h-183q0 132 56.5 206.5t154.5 74.5q67 0 131 -43q61 -43 84 -43q57 0 60 86h182q-1 -133 -57.5 -206t-153.5 -73q-67 0 -131 43t-84 43q-56 0 -59 -88zM1200 127q-159 -156 -457 -156t-454 156q-160 157 -160 442v854h305v-819q0 -172 78.5 -263t230.5 -91
q150 0 230 91.5t80 262.5v819h305v-854q0 -287 -158 -442z" />
    <glyph glyph-name="utilde" unicode="&#x169;" 
d="M436 1128h-182q0 132 56.5 206.5t154.5 74.5q67 0 131 -43q61 -43 84 -43q56 0 59 86h183q-1 -133 -57.5 -206t-153.5 -73q-66 0 -131 44q-64 43 -84 43q-57 0 -60 -89zM492 -25q-182 0 -280.5 105.5t-98.5 298.5v631h297v-590q0 -203 165 -203q90 0 145.5 58.5
t55.5 160.5v574h297v-1010h-280v143q-107 -168 -301 -168z" />
    <glyph glyph-name="Umacron" unicode="&#x16a;" horiz-adv-x="1486" 
d="M1057 1581h-627v203h627v-203zM1200 127q-159 -156 -457 -156t-454 156q-160 157 -160 442v854h305v-819q0 -172 78.5 -263t230.5 -91q150 0 230 91.5t80 262.5v819h305v-854q0 -287 -158 -442z" />
    <glyph glyph-name="umacron" unicode="&#x16b;" 
d="M909 1165h-626v203h626v-203zM492 -25q-182 0 -280.5 105.5t-98.5 298.5v631h297v-590q0 -203 165 -203q90 0 145.5 58.5t55.5 160.5v574h297v-1010h-280v143q-107 -168 -301 -168z" />
    <glyph glyph-name="Ubreve" unicode="&#x16c;" horiz-adv-x="1486" 
d="M969 1606q-84 -78 -226 -78q-141 0 -225 78q-82 76 -82 219h191q0 -54 31 -84.5t85 -30.5t85.5 30.5t31.5 84.5h191q0 -143 -82 -219zM1200 127q-159 -156 -457 -156t-454 156q-160 157 -160 442v854h305v-819q0 -172 78.5 -263t230.5 -91q150 0 230 91.5t80 262.5v819
h305v-854q0 -287 -158 -442z" />
    <glyph glyph-name="ubreve" unicode="&#x16d;" 
d="M821 1190q-84 -78 -225 -78t-225 78q-82 76 -82 219h190q0 -54 31.5 -84.5t85.5 -30.5t85.5 30.5t31.5 84.5h190q0 -143 -82 -219zM492 -25q-182 0 -280.5 105.5t-98.5 298.5v631h297v-590q0 -203 165 -203q90 0 145.5 58.5t55.5 160.5v574h297v-1010h-280v143
q-107 -168 -301 -168z" />
    <glyph glyph-name="Uring" unicode="&#x16e;" horiz-adv-x="1486" 
d="M926 1448q-70 -64 -181 -64q-108 0 -178 64q-71 65 -71 160q0 94 71 159q70 64 178 64q111 0 181 -64q71 -65 71 -159q0 -95 -71 -160zM686 1550q23 -23 59.5 -23t59.5 23t23 58t-23 57t-59.5 22t-59.5 -22t-23 -57t23 -58zM1200 127q-159 -156 -457 -156t-454 156
q-160 157 -160 442v854h305v-819q0 -172 78.5 -263t230.5 -91q150 0 230 91.5t80 262.5v819h305v-854q0 -287 -158 -442z" />
    <glyph glyph-name="uring" unicode="&#x16f;" 
d="M598 1028q-110 0 -180 63t-70 160q0 98 70 161t180 63q109 0 179.5 -63t70.5 -161q0 -97 -70.5 -160t-179.5 -63zM539 1196q23 -22 59 -22t59 22t23 56.5t-23 56.5t-59 22t-59 -22q-25 -22 -25 -56.5t25 -56.5zM492 -25q-182 0 -280.5 105.5t-98.5 298.5v631h297v-590
q0 -203 165 -203q90 0 145.5 58.5t55.5 160.5v574h297v-1010h-280v143q-107 -168 -301 -168z" />
    <glyph glyph-name="Uhungarumlaut" unicode="&#x170;" horiz-adv-x="1486" 
d="M657 1534h-200l139 297h281zM1022 1534h-201l142 297h280zM1200 127q-159 -156 -457 -156t-454 156q-160 157 -160 442v854h305v-819q0 -172 78.5 -263t230.5 -91q150 0 230 91.5t80 262.5v819h305v-854q0 -287 -158 -442z" />
    <glyph glyph-name="uhungarumlaut" unicode="&#x171;" 
d="M510 1118h-201l140 297h280zM874 1118h-200l141 297h281zM492 -25q-182 0 -280.5 105.5t-98.5 298.5v631h297v-590q0 -203 165 -203q90 0 145.5 58.5t55.5 160.5v574h297v-1010h-280v143q-107 -168 -301 -168z" />
    <glyph glyph-name="Uogonek" unicode="&#x172;" horiz-adv-x="1486" 
d="M1053 604v819h305v-854q0 -368 -256 -516q-112 -70 -160.5 -122.5t-48.5 -110.5q0 -62 63 -62q33 0 64 25l65 -162q-70 -49 -190 -49q-109 0 -175.5 46t-66.5 136q0 113 142 219q-10 -2 -52 -2q-296 0 -455 155t-159 443v854h305v-819q0 -172 78.5 -263t230.5 -91
q150 0 230 91.5t80 262.5z" />
    <glyph glyph-name="uogonek" unicode="&#x173;" 
d="M1042 -217l66 -162q-70 -49 -186 -49q-111 0 -178.5 46t-67.5 136q0 138 176 246h-59v143q-107 -168 -301 -168q-182 0 -280.5 105.5t-98.5 298.5v631h297v-590q0 -203 165 -203q90 0 145.5 58.5t55.5 160.5v574h297v-1010q-87 -62 -122.5 -102t-35.5 -80q0 -60 62 -60
q34 0 65 25z" />
    <glyph glyph-name="Wcircumflex" unicode="&#x174;" horiz-adv-x="1976" 
d="M858 1534h-221l219 297h242l217 -297h-230l-114 135zM705 0h-340l-355 1423h314l237 -1034l264 1034h326l279 -1034l223 1034h313l-354 -1423h-342l-281 999z" />
    <glyph glyph-name="wcircumflex" unicode="&#x175;" horiz-adv-x="1607" 
d="M692 1118h-221l219 297h242l217 -297h-229l-115 135zM629 0h-305l-310 1010h305l166 -672l170 672h297l174 -672l162 672h305l-309 -1010h-305l-176 655z" />
    <glyph glyph-name="Ycircumflex" unicode="&#x176;" horiz-adv-x="1327" 
d="M543 1534h-221l219 297h241l217 -297h-229l-115 135zM813 0h-305v553l-518 870h350l326 -569l323 569h348l-524 -870v-553z" />
    <glyph glyph-name="ycircumflex" unicode="&#x177;" horiz-adv-x="1064" 
d="M416 1118h-221l219 297h241l217 -297h-229l-115 135zM293 -457q-190 0 -293 158l182 172q47 -86 115 -86q44 0 75.5 36t57.5 116l23 61h-99l-364 1010h313l232 -709l227 709h313l-432 -1170q-60 -162 -142 -229.5t-208 -67.5z" />
    <glyph glyph-name="Ydieresis" unicode="&#x178;" horiz-adv-x="1327" 
d="M449 1538q-65 0 -108.5 43t-43.5 105q0 63 43 104t109 41t108.5 -41t42.5 -104q0 -62 -44 -105t-107 -43zM874 1538q-65 0 -108 43t-43 105q0 63 42.5 104t108.5 41t109 -41t43 -104q0 -61 -44.5 -104.5t-107.5 -43.5zM813 0h-305v553l-518 870h350l326 -569l323 569h348
l-524 -870v-553z" />
    <glyph glyph-name="Zacute" unicode="&#x179;" horiz-adv-x="1251" 
d="M733 1534h-223l174 297h303zM1200 0h-1151v250l737 895h-710v278h1098v-249l-738 -895h764v-279z" />
    <glyph glyph-name="zacute" unicode="&#x17a;" horiz-adv-x="976" 
d="M596 1118h-223l174 297h303zM938 0h-897v201l500 565h-478v242h855v-201l-504 -565h524v-242z" />
    <glyph glyph-name="Zdotaccent" unicode="&#x17b;" horiz-adv-x="1251" 
d="M737 1579q-44 -43 -110 -43t-109 43q-44 41 -44 104.5t44 106.5q43 43 109 43t110 -43q43 -43 43 -106.5t-43 -104.5zM1200 0h-1151v250l737 895h-710v278h1098v-249l-738 -895h764v-279z" />
    <glyph glyph-name="zdotaccent" unicode="&#x17c;" horiz-adv-x="976" 
d="M600 1163q-44 -43 -110 -43t-109 43q-44 41 -44 104.5t44 106.5q43 43 109 43t110 -43q43 -43 43 -106.5t-43 -104.5zM938 0h-897v201l500 565h-478v242h855v-201l-504 -565h524v-242z" />
    <glyph glyph-name="Zcaron" unicode="&#x17d;" horiz-adv-x="1251" 
d="M745 1831h222l-219 -297h-242l-217 297h229l115 -135zM1200 0h-1151v250l737 895h-710v278h1098v-249l-738 -895h764v-279z" />
    <glyph glyph-name="zcaron" unicode="&#x17e;" horiz-adv-x="976" 
d="M608 1415h221l-219 -297h-241l-217 297h229l115 -135zM938 0h-897v201l500 565h-478v242h855v-201l-504 -565h524v-242z" />
    <glyph glyph-name="florin" unicode="&#x192;" horiz-adv-x="966" 
d="M797 1219q-94 0 -115 -136l-33 -227h223l-32 -205h-219l-43 -297q-52 -377 -402 -377q-114 0 -182 41l57 238q50 -47 117 -47q94 0 115 135l43 307h-203l33 205h200l31 217q52 377 401 377q115 0 183 -41l-58 -238q-48 48 -116 48z" />
    <glyph glyph-name="uni0218" unicode="&#x218;" horiz-adv-x="1347" 
d="M686 -29q-284 0 -448 123q-162 119 -162 316q0 82 28 174l293 -68q-16 -43 -16 -94q0 -92 85 -146.5t226 -54.5q128 0 201.5 48t73.5 132q0 129 -193 166l-188 33q-245 42 -360 146.5t-115 277.5q0 185 149 307q148 121 393 121q278 0 426.5 -122.5t165.5 -358.5
l-301 -37q-35 268 -301 268q-101 0 -164 -44.5t-63 -117.5q0 -132 223 -172l188 -32q230 -41 336.5 -140.5t106.5 -265.5q0 -205 -160 -332q-165 -127 -424 -127zM692 -477h-219l92 354h254z" />
    <glyph glyph-name="uni0219" unicode="&#x219;" horiz-adv-x="1067" 
d="M543 -25q-224 0 -360.5 95.5t-137.5 259.5l279 32q18 -180 227 -180q158 0 158 105q0 41 -25.5 61t-89.5 31l-115 20q-102 17 -176.5 45t-132.5 80q-80 77 -80 207q0 140 122 221.5t335 81.5q192 0 310 -80.5t142 -214.5l-262 -63q-38 151 -194 151q-73 0 -115.5 -26
t-42.5 -70q0 -43 30.5 -65.5t104.5 -34.5l115 -19q159 -24 256 -84q115 -73 115 -233q0 -150 -127.5 -235t-335.5 -85zM545 -477h-219l92 354h254z" />
    <glyph glyph-name="uni021A" unicode="&#x21a;" horiz-adv-x="1261" 
d="M784 0h-305v1145h-438v278h1180v-278h-437v-1145zM633 -477h-219l92 354h254z" />
    <glyph glyph-name="uni021B" unicode="&#x21b;" horiz-adv-x="901" 
d="M502 -25q-340 0 -340 342v451h-142v242h156l74 290h207v-290h393v-242h-393v-428q0 -109 82 -109q40 0 72.5 36t68.5 118l221 -121q-147 -289 -399 -289zM473 -477h-219l92 354h254z" />
    <glyph glyph-name="uni0237" unicode="&#x237;" horiz-adv-x="540" 
d="M104 -457q-148 0 -258 72l82 231q56 -59 117 -59q78 0 78 98v1125h295v-1143q0 -163 -85.5 -243.5t-228.5 -80.5z" />
    <glyph glyph-name="circumflex" unicode="&#x2c6;" horiz-adv-x="819" 
d="M291 1118h-221l219 297h241l218 -297h-230l-115 135z" />
    <glyph glyph-name="caron" unicode="&#x2c7;" horiz-adv-x="819" 
d="M528 1415h222l-220 -297h-241l-217 297h229l115 -135z" />
    <glyph glyph-name="breve" unicode="&#x2d8;" horiz-adv-x="819" 
d="M635 1190q-84 -78 -225 -78q-142 0 -226 78q-82 76 -82 219h191q0 -54 31.5 -84.5t85.5 -30.5t85 30.5t31 84.5h191q0 -143 -82 -219z" />
    <glyph glyph-name="dotaccent" unicode="&#x2d9;" horiz-adv-x="819" 
d="M520 1163q-44 -43 -110 -43t-109 43q-44 41 -44 104.5t44 106.5q43 43 109 43t110 -43q43 -43 43 -106.5t-43 -104.5z" />
    <glyph glyph-name="ring" unicode="&#x2da;" horiz-adv-x="819" 
d="M412 1028q-110 0 -180 63t-70 160q0 98 70 161t180 63q109 0 179.5 -63t70.5 -161q0 -97 -70.5 -160t-179.5 -63zM352 1196q23 -22 59.5 -22t59.5 22t23 56.5t-23 56.5t-59.5 22t-59.5 -22q-25 -22 -25 -56.5t25 -56.5z" />
    <glyph glyph-name="ogonek" unicode="&#x2db;" horiz-adv-x="819" 
d="M416 -428q-111 0 -178.5 46t-67.5 136q0 166 244 283l153 -37q-87 -61 -122 -101.5t-35 -80.5q0 -60 61 -60q35 0 66 25l65 -162q-70 -49 -186 -49z" />
    <glyph glyph-name="tilde" unicode="&#x2dc;" horiz-adv-x="819" 
d="M250 1122h-182q0 132 56.5 206.5t154.5 74.5q67 0 131 -43q61 -43 84 -43q56 0 59 86h182q-1 -133 -57.5 -206t-153.5 -73q-67 0 -131 43t-84 43q-56 0 -59 -88z" />
    <glyph glyph-name="hungarumlaut" unicode="&#x2dd;" horiz-adv-x="819" 
d="M324 1118h-201l139 297h281zM688 1118h-201l142 297h280z" />
    <glyph glyph-name="gravecomb" unicode="&#x300;" horiz-adv-x="0" 
d="M-289 1118h-223l-254 297h303z" />
    <glyph glyph-name="acutecomb" unicode="&#x301;" horiz-adv-x="0" 
d="M-303 1118h-223l174 297h303z" />
    <glyph glyph-name="uni0302" unicode="&#x302;" horiz-adv-x="0" 
d="M-528 1118h-222l220 297h241l217 -297h-229l-115 135z" />
    <glyph glyph-name="tildecomb" unicode="&#x303;" horiz-adv-x="0" 
d="M-569 1122h-183q0 132 56.5 206.5t154.5 74.5q68 0 129 -43q64 -43 86 -43q57 0 60 86h182q-1 -133 -57.5 -206t-153.5 -73q-67 0 -131 43t-84 43q-56 0 -59 -88z" />
    <glyph glyph-name="uni0304" unicode="&#x304;" horiz-adv-x="0" 
d="M-96 1165h-627v203h627v-203z" />
    <glyph glyph-name="uni0306" unicode="&#x306;" horiz-adv-x="0" 
d="M-184 1190q-84 -78 -226 -78q-141 0 -225 78q-82 76 -82 219h191q0 -54 31 -84.5t85 -30.5t85.5 30.5t31.5 84.5h191q0 -143 -82 -219z" />
    <glyph glyph-name="uni0307" unicode="&#x307;" horiz-adv-x="0" 
d="M-301 1163q-43 -43 -109 -43t-110 43q-43 41 -43 104.5t43 106.5q44 43 110 43t109 -43q44 -43 44 -106.5t-44 -104.5z" />
    <glyph glyph-name="uni0308" unicode="&#x308;" horiz-adv-x="0" 
d="M-623 1122q-65 0 -108 43t-43 105q0 63 42.5 104t108.5 41t109 -41t43 -104q0 -61 -44.5 -104.5t-107.5 -43.5zM-197 1122q-65 0 -108 43t-43 105q0 63 42.5 104t108.5 41t109 -41t43 -104q0 -61 -44.5 -104.5t-107.5 -43.5z" />
    <glyph glyph-name="uni030A" unicode="&#x30a;" horiz-adv-x="0" 
d="M-408 1028q-110 0 -179.5 63t-69.5 160q0 98 69.5 161t179.5 63q109 0 179.5 -63t70.5 -161q0 -97 -70.5 -160t-179.5 -63zM-469 1196q25 -22 61.5 -22t59.5 22t23 56.5t-23 56.5t-59.5 22t-61.5 -22q-23 -22 -23 -56.5t23 -56.5z" />
    <glyph glyph-name="uni030B" unicode="&#x30b;" horiz-adv-x="0" 
d="M-496 1118h-200l139 297h281zM-131 1118h-201l142 297h280z" />
    <glyph glyph-name="uni030C" unicode="&#x30c;" horiz-adv-x="0" 
d="M-291 1415h221l-219 -297h-241l-218 297h230l115 -135z" />
    <glyph glyph-name="uni0312" unicode="&#x312;" horiz-adv-x="0" 
d="M-412 1473h217l-92 -355h-254z" />
    <glyph glyph-name="uni0326" unicode="&#x326;" horiz-adv-x="0" 
d="M-408 -477h-219l92 354h254z" />
    <glyph glyph-name="uni0327" unicode="&#x327;" horiz-adv-x="0" 
d="M-379 -332h-231l88 348h237z" />
    <glyph glyph-name="uni0328" unicode="&#x328;" horiz-adv-x="0" 
d="M-403 -428q-111 0 -178.5 46t-67.5 136q0 166 243 283l154 -37q-87 -62 -122.5 -102t-35.5 -80q0 -60 62 -60q34 0 65 25l66 -162q-70 -49 -186 -49z" />
    <glyph glyph-name="uni0394" unicode="&#x394;" horiz-adv-x="1515" 
d="M1450 0h-1387v238l529 1185h330l528 -1185v-238zM752 1104l-344 -823h694z" />
    <glyph glyph-name="uni03A9" unicode="&#x3a9;" horiz-adv-x="1638" 
d="M702 0h-591v268h335v84q-340 169 -340 504q0 257 201 428q198 168 512 168t512 -168q201 -171 201 -428q0 -173 -92.5 -298.5t-247.5 -203.5v-86h336v-268h-592v401q276 167 276 414q0 166 -108 268q-112 103 -285 103t-282 -103q-111 -102 -111 -268q0 -245 276 -414
v-401z" />
    <glyph glyph-name="uni03BC" unicode="&#x3bc;" horiz-adv-x="1204" 
d="M418 -410h-295v1420h297v-613q6 -180 166 -180q90 0 145 58.5t55 160.5v574h295v-1010h-278v143q-85 -159 -250 -159q-119 0 -176 69z" />
    <glyph glyph-name="pi" unicode="&#x3c0;" horiz-adv-x="1339" 
d="M1303 1010v-242h-216v-449q0 -73 60 -73q35 0 65 30l60 -231q-75 -57 -189 -57q-292 0 -292 309v471h-299v-768h-295v768h-168v242h1274z" />
    <glyph glyph-name="Wgrave" unicode="&#x1e80;" horiz-adv-x="1976" 
d="M1098 1534h-224l-253 297h303zM705 0h-340l-355 1423h314l237 -1034l264 1034h326l279 -1034l223 1034h313l-354 -1423h-342l-281 999z" />
    <glyph glyph-name="wgrave" unicode="&#x1e81;" horiz-adv-x="1607" 
d="M932 1118h-223l-254 297h303zM629 0h-305l-310 1010h305l166 -672l170 672h297l174 -672l162 672h305l-309 -1010h-305l-176 655z" />
    <glyph glyph-name="Wacute" unicode="&#x1e82;" horiz-adv-x="1976" 
d="M1083 1534h-223l174 297h303zM705 0h-340l-355 1423h314l237 -1034l264 1034h326l279 -1034l223 1034h313l-354 -1423h-342l-281 999z" />
    <glyph glyph-name="wacute" unicode="&#x1e83;" horiz-adv-x="1607" 
d="M918 1118h-224l174 297h303zM629 0h-305l-310 1010h305l166 -672l170 672h297l174 -672l162 672h305l-309 -1010h-305l-176 655z" />
    <glyph glyph-name="Wdieresis" unicode="&#x1e84;" horiz-adv-x="1976" 
d="M764 1538q-65 0 -108.5 43t-43.5 105q0 63 43 104t109 41t108.5 -41t42.5 -104q0 -62 -44 -105t-107 -43zM1190 1538q-65 0 -108.5 43t-43.5 105q0 63 43 104t109 41t108.5 -41t42.5 -104q0 -62 -44 -105t-107 -43zM705 0h-340l-355 1423h314l237 -1034l264 1034h326
l279 -1034l223 1034h313l-354 -1423h-342l-281 999z" />
    <glyph glyph-name="wdieresis" unicode="&#x1e85;" horiz-adv-x="1607" 
d="M598 1122q-65 0 -108.5 43t-43.5 105q0 63 43 104t109 41t109 -41t43 -104q0 -61 -44.5 -104.5t-107.5 -43.5zM1024 1122q-65 0 -108.5 43t-43.5 105q0 63 43 104t109 41t109 -41t43 -104q0 -61 -44.5 -104.5t-107.5 -43.5zM629 0h-305l-310 1010h305l166 -672l170 672
h297l174 -672l162 672h305l-309 -1010h-305l-176 655z" />
    <glyph glyph-name="uni1E9E" unicode="&#x1e9e;" horiz-adv-x="1611" 
d="M999 -29q-293 0 -446 164l176 215q89 -127 285 -127q104 0 163.5 47t59.5 127q0 194 -463 215l-61 183l411 372h-669v-1167h-305v1423h1273v-299l-370 -311q236 -32 364.5 -140t128.5 -270q0 -203 -146 -317.5t-401 -114.5z" />
    <glyph glyph-name="Ygrave" unicode="&#x1ef2;" horiz-adv-x="1327" 
d="M782 1534h-223l-254 297h303zM813 0h-305v553l-518 870h350l326 -569l323 569h348l-524 -870v-553z" />
    <glyph glyph-name="ygrave" unicode="&#x1ef3;" horiz-adv-x="1064" 
d="M655 1118h-223l-254 297h303zM293 -457q-190 0 -293 158l182 172q47 -86 115 -86q44 0 75.5 36t57.5 116l23 61h-99l-364 1010h313l232 -709l227 709h313l-432 -1170q-60 -162 -142 -229.5t-208 -67.5z" />
    <glyph glyph-name="endash" unicode="&#x2013;" horiz-adv-x="1173" 
d="M1063 504h-954v239h954v-239z" />
    <glyph glyph-name="emdash" unicode="&#x2014;" horiz-adv-x="2048" 
d="M1976 504h-1904v239h1904v-239z" />
    <glyph glyph-name="quoteleft" unicode="&#x2018;" horiz-adv-x="522" 
d="M291 1163q67 -6 112.5 -52.5t45.5 -111.5q0 -74 -52.5 -124t-128.5 -50q-88 0 -143 63t-55 165q0 215 192 395l137 -98q-96 -87 -108 -187z" />
    <glyph glyph-name="quoteright" unicode="&#x2019;" horiz-adv-x="522" 
d="M254 1448q89 0 144 -62t55 -165q0 -209 -193 -396l-137 99q96 87 108 188q-68 6 -112.5 51.5t-44.5 112.5q0 74 52 123t128 49z" />
    <glyph glyph-name="quotesinglbase" unicode="&#x201a;" horiz-adv-x="522" 
d="M254 336q88 0 143.5 -61.5t55.5 -163.5q0 -215 -193 -396l-137 97q96 87 108 188q-68 6 -112.5 51.5t-44.5 112.5q0 74 52 123t128 49z" />
    <glyph glyph-name="quotedblleft" unicode="&#x201c;" horiz-adv-x="946" 
d="M291 1163q67 -6 112.5 -52.5t45.5 -111.5q0 -74 -52.5 -124t-128.5 -50q-88 0 -143 63t-55 165q0 215 192 395l137 -98q-96 -87 -108 -187zM715 1163q67 -6 112 -52.5t45 -111.5q0 -77 -51.5 -125.5t-130.5 -48.5q-87 0 -141.5 63t-54.5 165q0 218 192 395l137 -98
q-96 -84 -108 -187z" />
    <glyph glyph-name="quotedblright" unicode="&#x201d;" horiz-adv-x="946" 
d="M254 1448q89 0 144 -62t55 -165q0 -209 -193 -396l-137 99q96 87 108 188q-68 6 -112.5 51.5t-44.5 112.5q0 74 52 123t128 49zM678 1446q87 0 141.5 -62.5t54.5 -164.5q0 -212 -190 -396l-137 99q94 82 106 186q-67 6 -112 52.5t-45 111.5q0 77 51.5 125.5t130.5 48.5z
" />
    <glyph glyph-name="quotedblbase" unicode="&#x201e;" horiz-adv-x="948" 
d="M254 336q88 0 143.5 -61.5t55.5 -163.5q0 -215 -193 -396l-137 97q96 87 108 188q-68 6 -112.5 51.5t-44.5 112.5q0 74 52 123t128 49zM682 336q87 0 142 -61.5t55 -163.5q0 -218 -193 -396l-137 97q96 84 108 188q-67 6 -112 52t-45 112q0 75 52 123.5t130 48.5z" />
    <glyph glyph-name="dagger" unicode="&#x2020;" horiz-adv-x="960" 
d="M608 1110h299v-238h-299v-432h-256v432h-299v238h299v313h256v-313z" />
    <glyph glyph-name="daggerdbl" unicode="&#x2021;" horiz-adv-x="960" 
d="M907 1169v-239h-299v-187h299v-237h-299v-256h-256v256h-299v237h299v187h-299v239h299v254h256v-254h299z" />
    <glyph glyph-name="bullet" unicode="&#x2022;" horiz-adv-x="876" 
d="M438 358q-132 0 -227 95q-96 93 -96 227q0 136 96 229q95 92 227 92q139 0 234 -92q92 -92 92 -229t-92 -229q-96 -93 -234 -93z" />
    <glyph glyph-name="ellipsis" unicode="&#x2026;" horiz-adv-x="1503" 
d="M260 -25q-76 0 -131 54t-55 131t55 130.5t131 53.5q80 0 134.5 -52.5t54.5 -131.5q0 -78 -54.5 -131.5t-134.5 -53.5zM752 -27q-79 0 -134 54t-55 133q0 78 55.5 131t133.5 53q79 0 132.5 -53t53.5 -131q0 -80 -53.5 -133.5t-132.5 -53.5zM1243 -25q-76 0 -131 54
t-55 131t55 130.5t131 53.5q80 0 134.5 -52.5t54.5 -131.5q0 -78 -54.5 -131.5t-134.5 -53.5z" />
    <glyph glyph-name="perthousand" unicode="&#x2030;" horiz-adv-x="2930" 
d="M745 758q-111 -111 -290 -111q-181 0 -289 111q-109 109 -109 289q0 183 109 292t289 109q181 0 290 -109t109 -292q0 -180 -109 -289zM696 0h-247l903 1423h247zM455 842q74 0 120 56.5t46 148.5q0 93 -46 150.5t-120 57.5q-72 0 -118 -57.5t-46 -150.5q0 -92 46 -148.5
t118 -56.5zM1872 86q-111 -111 -291 -111q-181 0 -289 111q-108 108 -108 289q0 183 108.5 292t288.5 109q181 0 291 -110q108 -111 108 -291q0 -181 -108 -289zM2765 86q-111 -111 -291 -111q-181 0 -289 111q-108 108 -108 289q0 183 108.5 292t288.5 109q181 0 291 -110
q108 -111 108 -291q0 -181 -108 -289zM1581 168q74 0 120 57t46 150t-46 150t-120 57q-72 0 -118 -57.5t-46 -149.5t46 -149.5t118 -57.5zM2474 168q74 0 120 57t46 150t-46 150t-120 57q-72 0 -118 -57.5t-46 -149.5t46 -149.5t118 -57.5z" />
    <glyph glyph-name="guilsinglleft" unicode="&#x2039;" horiz-adv-x="655" 
d="M551 463v-273l-467 263v258l467 262v-268l-242 -123z" />
    <glyph glyph-name="guilsinglright" unicode="&#x203a;" horiz-adv-x="655" 
d="M571 453l-467 -263v269l242 123l-242 120v271l467 -262v-258z" />
    <glyph glyph-name="fraction" unicode="&#x2044;" horiz-adv-x="593" 
d="M-82 0h-219l977 1423h219z" />
    <glyph glyph-name="uni2074" unicode="&#x2074;" horiz-adv-x="815" 
d="M680 553h-217v180h-422v209q233 217 268 481h234q-22 -150 -102 -284.5t-189 -223.5h211v146h217v-146h102v-182h-102v-180z" />
    <glyph glyph-name="Euro" unicode="&#x20ac;" horiz-adv-x="1538" 
d="M1145 500l313 -51q-127 -478 -631 -478q-231 0 -396.5 131.5t-225.5 360.5h-187v172h158q-2 16 -2 76q0 43 2 55h-158v174h185q59 235 231 373q174 139 406 139q239 0 395 -122.5t207 -348.5l-301 -76q-73 291 -314 291q-111 0 -193 -66t-120 -190h342v-174h-371
q-2 -12 -2 -55q0 -60 2 -76h371v-172h-336q38 -114 117 -175t186 -61q126 0 205 66t117 207z" />
    <glyph glyph-name="trademark" unicode="&#x2122;" horiz-adv-x="1335" 
d="M342 903h-139v393h-162v127h463v-127h-162v-393zM711 903h-140v520h189l145 -282l139 282h183v-520h-137v338l-138 -248h-104l-137 248v-338z" />
    <glyph glyph-name="uni2126" unicode="&#x2126;" horiz-adv-x="1638" 
d="M702 0h-591v268h335v84q-340 169 -340 504q0 257 201 428q198 168 512 168t512 -168q201 -171 201 -428q0 -173 -92.5 -298.5t-247.5 -203.5v-86h336v-268h-592v401q276 167 276 414q0 166 -108 268q-112 103 -285 103t-282 -103q-111 -102 -111 -268q0 -245 276 -414
v-401z" />
    <glyph glyph-name="arrowleft" unicode="&#x2190;" horiz-adv-x="1474" 
d="M1171 655q114 -49 154 -143q41 -96 41 -319l-293 -29q0 187 -36 265.5t-138 78.5h-334q69 -52 97.5 -131t29.5 -234l-295 -8q-18 166 -86 256q-76 92 -231 176v178q155 84 231 179q68 86 86 254l295 -9q-1 -155 -29.5 -233.5t-97.5 -130.5h334q112 0 148 94q16 46 21 100
t5 150l293 -31q0 -213 -41 -313q-40 -100 -154 -150z" />
    <glyph glyph-name="arrowup" unicode="&#x2191;" horiz-adv-x="1474" 
d="M1260 1071l-11 -295q-153 1 -232.5 29.5t-131.5 97.5v-371q0 -112 77 -150t267 -38l-29 -293q-217 0 -315 43q-100 40 -150 154q-48 -111 -143 -152q-96 -41 -318 -41l-30 289q190 0 267 38t77 150v371q-52 -69 -131 -97.5t-234 -29.5l-8 295q170 18 258 88
q86 68 174 230h178q64 -114 116 -172.5t126 -94.5q73 -39 193 -51z" />
    <glyph glyph-name="arrowright" unicode="&#x2192;" horiz-adv-x="1474" 
d="M782 1169l295 9q18 -166 88 -254q71 -93 230 -179v-178q-160 -87 -230 -178q-70 -88 -88 -254l-295 8q3 153 33 238q27 75 96 127h-333q-105 0 -141 -77.5t-36 -266.5l-292 31q0 212 41 315q40 98 153 147q-111 48 -153 146q-41 96 -41 317l292 29q0 -188 36.5 -266
t140.5 -78h333q-68 51 -96 129q-30 86 -33 235z" />
    <glyph glyph-name="arrowdown" unicode="&#x2193;" horiz-adv-x="1474" 
d="M1249 651l11 -295q-166 -18 -256 -86q-95 -76 -179 -231h-178q-86 160 -176 231q-90 68 -256 86l8 295q162 -3 238 -30q72 -26 127 -99v373q0 112 -77 149t-267 37l30 293q213 0 316 -41q100 -43 149 -153q44 108 144 151q91 39 317 39l29 -289q-188 0 -266 -37.5
t-78 -148.5v-373q52 68 130 96.5t234 32.5z" />
    <glyph glyph-name="arrowboth" unicode="&#x2194;" horiz-adv-x="1765" 
d="M1073 1165l295 9q18 -167 88 -252q71 -93 230 -179v-176q-159 -86 -230 -176q-70 -88 -88 -254l-295 10q1 152 30 230.5t99 130.5h-637q69 -52 97.5 -131t29.5 -230l-295 -10q-18 165 -86 254q-76 92 -231 176v176q155 84 231 179q68 86 86 252l295 -9
q-1 -151 -29.5 -229t-97.5 -133h637q-70 52 -98 131q-28 80 -31 231z" />
    <glyph glyph-name="arrowupdn" unicode="&#x2195;" horiz-adv-x="1466" 
d="M881 1032v-674q52 68 129 96.5t231 32.5l8 -294q-162 -18 -250 -87q-91 -73 -178 -233h-178q-86 160 -176 231q-89 71 -252 89l8 294q154 -4 232 -32.5t129 -96.5v674q-52 -69 -130 -97.5t-231 -29.5l-8 295q166 18 254 88q86 68 174 230h178q64 -115 115 -173.5
t125 -93.5q74 -39 188 -51l-8 -295q-152 1 -230 29.5t-130 97.5z" />
    <glyph glyph-name="uni2196" unicode="&#x2196;" horiz-adv-x="1476" 
d="M1290 842l185 -228q-151 -154 -252 -194q-103 -41 -213 4q47 -114 6 -209q-43 -101 -199 -254l-223 184q91 91 127 144.5t37 113.5q3 61 -53 117l-265 264q12 -86 -23 -161t-143 -189l-215 203q106 129 121 250q14 114 -39 280l125 127q166 -53 281 -39q121 15 250 121
l202 -215q-115 -109 -188 -143t-160 -25l262 -262q54 -54 119.5 -54.5t118.5 40.5q61 47 139 125z" />
    <glyph glyph-name="uni2197" unicode="&#x2197;" horiz-adv-x="1474" 
d="M1208 1292l125 -125q-53 -166 -39 -280q15 -121 121 -250l-215 -203q-104 109 -141 189q-34 73 -25 159l-282 -282q-66 -85 -21 -168q46 -85 150 -189l-228 -186q-151 151 -192 254q-41 100 2 213q-113 -46 -207 -6q-101 44 -254 196l184 226q90 -90 143 -125.5
t113 -38.5q63 -3 119 53l262 262q-84 -9 -157 25q-76 34 -191 143l203 215q129 -106 250 -121q114 -14 280 39z" />
    <glyph glyph-name="uni2198" unicode="&#x2198;" horiz-adv-x="1476" 
d="M1202 901l215 -203q-106 -130 -121 -249q-14 -115 39 -281l-125 -125q-166 53 -280 39q-121 -15 -250 -121l-203 215q114 108 189 143q69 32 159 23l-282 283q-84 66 -168 20q-87 -47 -189 -149l-186 227q156 156 254 195q96 39 213 -5q-47 114 -6 209q42 98 196 252
l226 -184q-63 -63 -97 -106t-57 -89q-44 -93 39 -176l266 -266q-9 84 25 160q34 73 143 188z" />
    <glyph glyph-name="uni2199" unicode="&#x2199;" horiz-adv-x="1474" 
d="M1012 909q114 47 209 6q98 -42 252 -196l-185 -225q-91 91 -143.5 126.5t-110.5 38.5q-63 3 -121 -55l-262 -262q84 9 160 -25q73 -34 188 -143l-202 -215q-129 106 -250 121q-115 14 -281 -39l-125 125q53 166 39 280q-15 121 -121 250l215 203q111 -117 144 -188
q32 -68 22 -160l283 283q66 85 20 170q-44 81 -149 186l227 186q156 -156 195 -252q40 -100 -4 -215z" />
    <glyph glyph-name="partialdiff" unicode="&#x2202;" horiz-adv-x="1204" 
d="M596 -25q-244 0 -393 140q-148 139 -148 358q0 208 131 342q129 135 322 135q252 0 354 -184q-23 203 -185 315.5t-464 151.5l96 219q375 -49 606 -264q228 -218 228 -555q0 -294 -148 -477q-150 -181 -399 -181zM596 205q108 0 169.5 75t61.5 203q0 117 -62.5 185.5
t-170.5 68.5t-171 -71t-63 -193q0 -124 63 -196t173 -72z" />
    <glyph glyph-name="uni2206" unicode="&#x2206;" horiz-adv-x="1515" 
d="M1450 0h-1387v238l529 1185h330l528 -1185v-238zM752 1104l-344 -823h694z" />
    <glyph glyph-name="product" unicode="&#x220f;" horiz-adv-x="1679" 
d="M51 1423h1577v-278h-215v-1329h-305v1329h-537v-1329h-305v1329h-215v278z" />
    <glyph glyph-name="summation" unicode="&#x2211;" horiz-adv-x="1284" 
d="M1233 -184h-1165v247l454 578l-461 535v247h1139v-278h-737l350 -402v-188l-360 -461h780v-278z" />
    <glyph glyph-name="minus" unicode="&#x2212;" horiz-adv-x="1032" 
d="M958 496h-884v239h884v-239z" />
    <glyph glyph-name="radical" unicode="&#x221a;" horiz-adv-x="1396" 
d="M829 -178h-272l-340 799h-127v231h313l295 -707l437 1278h245z" />
    <glyph glyph-name="infinity" unicode="&#x221e;" horiz-adv-x="1507" 
d="M1106 965q150 0 244 -99q94 -101 94 -248t-96 -251q-100 -103 -246 -103q-92 0 -173 45t-177 144q-83 -98 -166 -143.5t-187 -45.5q-150 0 -241 98q-95 100 -95 248q0 150 99 252q95 103 244 103q92 0 173 -45t177 -144q84 99 165 144t185 45zM1083 479q56 0 91.5 36.5
t35.5 96.5q0 62 -37 102t-94 40q-75 0 -186 -138q119 -137 190 -137zM428 475q77 0 184 137q-122 140 -188 140q-56 0 -92.5 -38t-36.5 -98q0 -61 38 -101t95 -40z" />
    <glyph glyph-name="integral" unicode="&#x222b;" horiz-adv-x="841" 
d="M178 -205q-118 0 -205 41l68 232q48 -31 102 -31q121 0 121 143v920q0 165 103 256.5t278 91.5q118 0 205 -41l-68 -231q-46 30 -102 30q-119 0 -119 -143v-920q0 -165 -104 -256.5t-279 -91.5z" />
    <glyph glyph-name="approxequal" unicode="&#x2248;" horiz-adv-x="1032" 
d="M676 655q-76 0 -164 52q-86 51 -125 51q-73 0 -88 -94l-221 38q30 291 272 291q78 0 164 -51t125 -51q41 0 61.5 22t26.5 72l221 -39q-30 -291 -272 -291zM676 238q-78 0 -164 51t-125 51q-73 0 -88 -92l-221 37q30 293 272 293q76 0 164 -52q86 -51 125 -51q73 0 88 92
l221 -37q-30 -292 -272 -292z" />
    <glyph glyph-name="notequal" unicode="&#x2260;" horiz-adv-x="1032" 
d="M922 946v-239h-271l-82 -185h353v-239h-459l-76 -170h-190l75 170h-163v239h272l84 185h-356v239h462l78 172h187l-76 -172h162z" />
    <glyph glyph-name="lessequal" unicode="&#x2264;" horiz-adv-x="1032" 
d="M123 768l797 285v-262l-504 -154l504 -154v-262h-2v-221h-797v240h747l-745 266v262z" />
    <glyph glyph-name="greaterequal" unicode="&#x2265;" horiz-adv-x="1032" 
d="M121 1053l797 -285v-262l-746 -266h746v-240h-797v483l506 154l-506 154v262z" />
    <glyph glyph-name="filledbox" unicode="&#x25a0;" horiz-adv-x="1738" 
d="M150 0v1425h1441v-1425h-1441z" />
    <glyph glyph-name="uni25A1" unicode="&#x25a1;" horiz-adv-x="1724" 
d="M150 0v1423h1427v-1423h-1427zM1286 1153h-848v-883h848v883z" />
    <glyph glyph-name="uni25AF" unicode="&#x25af;" horiz-adv-x="1316" 
d="M150 0v1423h1017v-1423h-1017zM879 1153h-441v-883h441v883z" />
    <glyph glyph-name="triagup" unicode="&#x25b2;" horiz-adv-x="1685" 
d="M10 0l836 1454l831 -1454h-1667z" />
    <glyph glyph-name="uni25B3" unicode="&#x25b3;" horiz-adv-x="1685" 
d="M1677 0h-1667l836 1454zM844 924l-359 -654h717z" />
    <glyph glyph-name="uni25B6" unicode="&#x25b6;" horiz-adv-x="1034" 
d="M123 -12v1048l913 -524z" />
    <glyph glyph-name="uni25B7" unicode="&#x25b7;" horiz-adv-x="1056" 
d="M123 -12v1077l938 -539zM346 698v-342l301 170z" />
    <glyph glyph-name="uni25C0" unicode="&#x25c0;" horiz-adv-x="1034" 
d="M-2 512l913 524v-1048z" />
    <glyph glyph-name="uni25C1" unicode="&#x25c1;" horiz-adv-x="1056" 
d="M-2 526l938 539v-1077zM412 526l301 -170v342z" />
    <glyph glyph-name="lozenge" unicode="&#x25ca;" horiz-adv-x="1206" 
d="M698 0h-184l-436 614l430 627h184l436 -616zM356 621l250 -363l244 363l-246 360z" />
    <glyph glyph-name="circle" unicode="&#x25cb;" horiz-adv-x="1658" 
d="M831 -29q-328 0 -540 209q-213 210 -213 531q0 322 213 532q212 209 540 209q327 0 539 -209q211 -208 211 -532q0 -326 -211 -531q-212 -209 -539 -209zM504 373q125 -131 327 -131q203 0 328 131q127 133 127 338q0 207 -127 340q-125 131 -328 131q-202 0 -327 -131
q-129 -132 -129 -340q0 -206 129 -338z" />
    <glyph glyph-name="uni25CF" unicode="&#x25cf;" horiz-adv-x="1658" 
d="M1368 1243q211 -208 211 -532q0 -326 -211 -531q-212 -209 -539 -209q-326 0 -538 209q-213 207 -213 531q0 322 213 532q212 209 538 209q327 0 539 -209z" />
    <glyph glyph-name="uni25FD" unicode="&#x25fd;" horiz-adv-x="1320" 
d="M123 0v1065h1077v-1065h-1077zM909 795h-497v-525h497v525z" />
    <glyph glyph-name="uni25FE" unicode="&#x25fe;" horiz-adv-x="1320" 
d="M123 0v1065h1077v-1065h-1077z" />
    <glyph glyph-name="Q.ss03" horiz-adv-x="1619" 
d="M809 -29q-318 0 -524 209q-207 210 -207 531q0 319 207 532q206 209 524 209t524 -209q207 -210 207 -528q0 -228 -110 -402q75 -78 215 -69v-254q-237 -15 -371 143q-192 -162 -465 -162zM809 238q164 0 266 108q-49 59 -104 82t-144 23v251q219 0 363 -159
q31 85 31 168q0 211 -115 344q-113 131 -297 131q-182 0 -295 -131q-115 -133 -115 -344q0 -209 115 -342q113 -131 295 -131z" />
    <glyph glyph-name="i.loclTRK" horiz-adv-x="540" 
d="M270 1126q-69 0 -117.5 46.5t-48.5 115.5t48.5 115.5t117.5 46.5q72 0 120 -46.5t48 -115.5t-48 -115.5t-120 -46.5zM418 0h-295v1010h295v-1010z" />
    <glyph glyph-name="f.short" horiz-adv-x="663" 
d="M471 0h-297v768h-158v242h146q-33 76 -33 159q0 128 100 203q101 76 246 76q174 0 244 -76l-111 -188q-43 49 -108 49q-44 0 -72.5 -27t-28.5 -73q0 -61 47 -123h238v-242h-213v-768z" />
    <glyph glyph-name="a.ss01" horiz-adv-x="1255" 
d="M528 -25q-203 0 -338 150t-135 379q0 231 135 381q131 149 332 149q231 0 332 -186v162h281v-1010h-281v172q-102 -197 -326 -197zM598 205q101 0 172 86q68 86 68 213q0 129 -68.5 215t-171.5 86q-111 0 -174.5 -80t-63.5 -221q0 -139 64 -219t174 -80z" />
    <glyph glyph-name="aacute.ss01" horiz-adv-x="1255" 
d="M723 1118h-223l174 297h303zM528 -25q-203 0 -338 150t-135 379q0 231 135 381q131 149 332 149q231 0 332 -186v162h281v-1010h-281v172q-102 -197 -326 -197zM598 205q101 0 172 86q68 86 68 213q0 129 -68.5 215t-171.5 86q-111 0 -174.5 -80t-63.5 -221
q0 -139 64 -219t174 -80z" />
    <glyph glyph-name="abreve.ss01" horiz-adv-x="1255" 
d="M842 1190q-84 -78 -226 -78q-141 0 -225 78q-82 76 -82 219h191q0 -54 31 -84.5t85 -30.5t85.5 30.5t31.5 84.5h191q0 -143 -82 -219zM528 -25q-203 0 -338 150t-135 379q0 231 135 381q131 149 332 149q231 0 332 -186v162h281v-1010h-281v172q-102 -197 -326 -197z
M598 205q101 0 172 86q68 86 68 213q0 129 -68.5 215t-171.5 86q-111 0 -174.5 -80t-63.5 -221q0 -139 64 -219t174 -80z" />
    <glyph glyph-name="acircumflex.ss01" horiz-adv-x="1255" 
d="M498 1118h-222l220 297h241l217 -297h-229l-115 135zM528 -25q-203 0 -338 150t-135 379q0 231 135 381q131 149 332 149q231 0 332 -186v162h281v-1010h-281v172q-102 -197 -326 -197zM598 205q101 0 172 86q68 86 68 213q0 129 -68.5 215t-171.5 86q-111 0 -174.5 -80
t-63.5 -221q0 -139 64 -219t174 -80z" />
    <glyph glyph-name="adieresis.ss01" horiz-adv-x="1255" 
d="M403 1122q-65 0 -108 43t-43 105q0 63 42.5 104t108.5 41t109 -41t43 -104q0 -61 -44.5 -104.5t-107.5 -43.5zM829 1122q-65 0 -108 43t-43 105q0 63 42.5 104t108.5 41t109 -41t43 -104q0 -61 -44.5 -104.5t-107.5 -43.5zM528 -25q-203 0 -338 150t-135 379
q0 231 135 381q131 149 332 149q231 0 332 -186v162h281v-1010h-281v172q-102 -197 -326 -197zM598 205q101 0 172 86q68 86 68 213q0 129 -68.5 215t-171.5 86q-111 0 -174.5 -80t-63.5 -221q0 -139 64 -219t174 -80z" />
    <glyph glyph-name="agrave.ss01" horiz-adv-x="1255" 
d="M737 1118h-223l-254 297h303zM528 -25q-203 0 -338 150t-135 379q0 231 135 381q131 149 332 149q231 0 332 -186v162h281v-1010h-281v172q-102 -197 -326 -197zM598 205q101 0 172 86q68 86 68 213q0 129 -68.5 215t-171.5 86q-111 0 -174.5 -80t-63.5 -221
q0 -139 64 -219t174 -80z" />
    <glyph glyph-name="amacron.ss01" horiz-adv-x="1255" 
d="M930 1165h-627v203h627v-203zM528 -25q-203 0 -338 150t-135 379q0 231 135 381q131 149 332 149q231 0 332 -186v162h281v-1010h-281v172q-102 -197 -326 -197zM598 205q101 0 172 86q68 86 68 213q0 129 -68.5 215t-171.5 86q-111 0 -174.5 -80t-63.5 -221
q0 -139 64 -219t174 -80z" />
    <glyph glyph-name="aogonek.ss01" horiz-adv-x="1255" 
d="M1102 -217l65 -162q-70 -49 -186 -49q-111 0 -178.5 46t-67.5 136q0 138 176 246h-57v172q-102 -197 -326 -197q-203 0 -338 150t-135 379q0 231 135 381q131 149 332 149q231 0 332 -186v162h281v-1010h-2q-87 -62 -122.5 -102t-35.5 -80q0 -60 61 -60q35 0 66 25z
M598 205q101 0 172 86q68 86 68 213q0 129 -68.5 215t-171.5 86q-111 0 -174.5 -80t-63.5 -221q0 -139 64 -219t174 -80z" />
    <glyph glyph-name="aring.ss01" horiz-adv-x="1255" 
d="M854 848v162h281v-1010h-281v172q-102 -197 -326 -197q-203 0 -338 150t-135 379q0 187 91.5 324.5t242.5 185.5q-63 57 -63 153q0 98 70 161t179 63q110 0 181 -63t71 -161q0 -123 -104 -184q81 -46 131 -135zM635 1225q-23 22 -59.5 22t-59.5 -22t-23 -56.5t23 -56.5
t59.5 -22t59.5 22t23 56.5t-23 56.5zM598 205q101 0 172 86q68 86 68 213q0 129 -68.5 215t-171.5 86q-111 0 -174.5 -80t-63.5 -221q0 -139 64 -219t174 -80z" />
    <glyph glyph-name="atilde.ss01" horiz-adv-x="1255" 
d="M457 1128h-183q0 132 56.5 206.5t154.5 74.5q67 0 131 -43q61 -43 84 -43q57 0 60 86h182q-1 -133 -57.5 -206t-153.5 -73q-66 0 -131 44q-64 43 -84 43q-56 0 -59 -89zM528 -25q-203 0 -338 150t-135 379q0 231 135 381q131 149 332 149q231 0 332 -186v162h281v-1010
h-281v172q-102 -197 -326 -197zM598 205q101 0 172 86q68 86 68 213q0 129 -68.5 215t-171.5 86q-111 0 -174.5 -80t-63.5 -221q0 -139 64 -219t174 -80z" />
    <glyph glyph-name="g.ss01" horiz-adv-x="1255" 
d="M565 -457q-192 0 -324 75t-186 214l238 125q29 -87 99.5 -134.5t172.5 -47.5q147 0 218 70t71 218v127q-101 -198 -326 -198q-203 0 -338 147t-135 373q0 228 135 375q132 147 334 147q231 0 330 -184v160h281v-959q0 -242 -149.5 -375t-420.5 -133zM598 221
q103 0 171.5 83t68.5 208t-68.5 209t-171.5 84q-110 0 -174 -78.5t-64 -214.5t63.5 -213.5t174.5 -77.5z" />
    <glyph glyph-name="gbreve.ss01" horiz-adv-x="1255" 
d="M842 1190q-84 -78 -226 -78q-141 0 -225 78q-82 76 -82 219h191q0 -54 31 -84.5t85 -30.5t85.5 30.5t31.5 84.5h191q0 -143 -82 -219zM565 -457q-192 0 -324 75t-186 214l238 125q29 -87 99.5 -134.5t172.5 -47.5q147 0 218 70t71 218v127q-101 -198 -326 -198
q-203 0 -338 147t-135 373q0 228 135 375q132 147 334 147q231 0 330 -184v160h281v-959q0 -242 -149.5 -375t-420.5 -133zM598 221q103 0 171.5 83t68.5 208t-68.5 209t-171.5 84q-110 0 -174 -78.5t-64 -214.5t63.5 -213.5t174.5 -77.5z" />
    <glyph glyph-name="gcircumflex.ss01" horiz-adv-x="1255" 
d="M498 1118h-222l220 297h241l217 -297h-229l-115 135zM565 -457q-192 0 -324 75t-186 214l238 125q29 -87 99.5 -134.5t172.5 -47.5q147 0 218 70t71 218v127q-101 -198 -326 -198q-203 0 -338 147t-135 373q0 228 135 375q132 147 334 147q231 0 330 -184v160h281v-959
q0 -242 -149.5 -375t-420.5 -133zM598 221q103 0 171.5 83t68.5 208t-68.5 209t-171.5 84q-110 0 -174 -78.5t-64 -214.5t63.5 -213.5t174.5 -77.5z" />
    <glyph glyph-name="uni0123.ss01" horiz-adv-x="1255" 
d="M614 1473h217l-92 -355h-254zM565 -457q-192 0 -324 75t-186 214l238 125q29 -87 99.5 -134.5t172.5 -47.5q147 0 218 70t71 218v127q-101 -198 -326 -198q-203 0 -338 147t-135 373q0 228 135 375q132 147 334 147q231 0 330 -184v160h281v-959q0 -242 -149.5 -375
t-420.5 -133zM598 221q103 0 171.5 83t68.5 208t-68.5 209t-171.5 84q-110 0 -174 -78.5t-64 -214.5t63.5 -213.5t174.5 -77.5z" />
    <glyph glyph-name="gdotaccent.ss01" horiz-adv-x="1255" 
d="M727 1163q-44 -43 -110 -43t-109 43q-44 41 -44 104.5t44 106.5q43 43 109 43t110 -43q43 -43 43 -106.5t-43 -104.5zM565 -457q-192 0 -324 75t-186 214l238 125q29 -87 99.5 -134.5t172.5 -47.5q147 0 218 70t71 218v127q-101 -198 -326 -198q-203 0 -338 147t-135 373
q0 228 135 375q132 147 334 147q231 0 330 -184v160h281v-959q0 -242 -149.5 -375t-420.5 -133zM598 221q103 0 171.5 83t68.5 208t-68.5 209t-171.5 84q-110 0 -174 -78.5t-64 -214.5t63.5 -213.5t174.5 -77.5z" />
    <glyph glyph-name="y.ss01" 
d="M553 -457q-366 0 -492 260l226 142q67 -172 256 -172q127 0 188.5 72t61.5 231v76q-99 -170 -301 -170q-182 0 -280.5 105t-98.5 296v627h297v-586q0 -201 165 -201q89 0 145 59t56 160v568h297v-965q0 -250 -134.5 -376t-385.5 -126z" />
    <glyph glyph-name="yacute.ss01" 
d="M702 1118h-223l174 297h303zM553 -457q-366 0 -492 260l226 142q67 -172 256 -172q127 0 188.5 72t61.5 231v76q-99 -170 -301 -170q-182 0 -280.5 105t-98.5 296v627h297v-586q0 -201 165 -201q89 0 145 59t56 160v568h297v-965q0 -250 -134.5 -376t-385.5 -126z" />
    <glyph glyph-name="ycircumflex.ss01" 
d="M477 1118h-221l219 297h242l217 -297h-229l-115 135zM553 -457q-366 0 -492 260l226 142q67 -172 256 -172q127 0 188.5 72t61.5 231v76q-99 -170 -301 -170q-182 0 -280.5 105t-98.5 296v627h297v-586q0 -201 165 -201q89 0 145 59t56 160v568h297v-965
q0 -250 -134.5 -376t-385.5 -126z" />
    <glyph glyph-name="ydieresis.ss01" 
d="M383 1122q-65 0 -108.5 43t-43.5 105q0 63 43 104t109 41t109 -41t43 -104q0 -61 -44.5 -104.5t-107.5 -43.5zM809 1122q-65 0 -108.5 43t-43.5 105q0 63 43 104t109 41t109 -41t43 -104q0 -61 -44.5 -104.5t-107.5 -43.5zM553 -457q-366 0 -492 260l226 142
q67 -172 256 -172q127 0 188.5 72t61.5 231v76q-99 -170 -301 -170q-182 0 -280.5 105t-98.5 296v627h297v-586q0 -201 165 -201q89 0 145 59t56 160v568h297v-965q0 -250 -134.5 -376t-385.5 -126z" />
    <glyph glyph-name="ygrave.ss01" 
d="M717 1118h-223l-254 297h303zM553 -457q-366 0 -492 260l226 142q67 -172 256 -172q127 0 188.5 72t61.5 231v76q-99 -170 -301 -170q-182 0 -280.5 105t-98.5 296v627h297v-586q0 -201 165 -201q89 0 145 59t56 160v568h297v-965q0 -250 -134.5 -376t-385.5 -126z" />
    <glyph glyph-name="f.ss02" horiz-adv-x="712" 
d="M471 0h-297v768h-158v242h146v125q0 143 92 228t250 85q184 0 278 -82l-118 -209q-56 62 -125 62q-42 0 -67.5 -27t-25.5 -72v-110h250v-242h-225v-768z" />
    <glyph glyph-name="r.ss02" horiz-adv-x="819" 
d="M418 0h-295v1010h278v-191q86 207 287 207q61 0 111 -16v-285q-67 25 -144 25q-112 0 -174.5 -61t-62.5 -181v-508z" />
    <glyph glyph-name="racute.ss02" horiz-adv-x="819" 
d="M600 1118h-223l174 297h303zM418 0h-295v1010h278v-191q86 207 287 207q61 0 111 -16v-285q-67 25 -144 25q-112 0 -174.5 -61t-62.5 -181v-508z" />
    <glyph glyph-name="rcaron.ss02" horiz-adv-x="819" 
d="M612 1415h222l-220 -297h-241l-217 297h229l115 -135zM418 0h-295v1010h278v-191q86 207 287 207q61 0 111 -16v-285q-67 25 -144 25q-112 0 -174.5 -61t-62.5 -181v-508z" />
    <glyph glyph-name="uni0157.ss02" horiz-adv-x="819" 
d="M418 0h-295v1010h278v-191q86 207 287 207q61 0 111 -16v-285q-67 25 -144 25q-112 0 -174.5 -61t-62.5 -181v-508zM270 -477h-219l92 354h254z" />
    <glyph glyph-name="f.short.ss02" horiz-adv-x="675" 
d="M471 0h-297v768h-158v242h146v125q0 143 94.5 228t253.5 85q128 0 203 -37l-54 -221q-54 31 -104 31t-79.5 -31.5t-29.5 -79.5v-100h234v-242h-209v-768z" />
    <glyph glyph-name="f_f.ss02" horiz-adv-x="1337" 
d="M1071 1120v-110h250v-242h-225v-768h-297v768h-328v-768h-297v768h-158v242h146v125q0 143 94.5 228t253.5 85q128 0 203 -37l-54 -221q-54 31 -104 31t-79.5 -31.5t-29.5 -79.5v-100h340v125q0 143 92 228t250 85q185 0 279 -82l-119 -209q-56 62 -125 62q-42 0 -67 -27
t-25 -72z" />
    <glyph glyph-name="f_f_i.ss02" horiz-adv-x="1841" 
d="M1571 1126q-69 0 -117.5 46.5t-48.5 115.5t48.5 115.5t117.5 46.5q72 0 120 -46.5t48 -115.5t-48 -115.5t-120 -46.5zM1180 1221q-50 0 -79.5 -31.5t-29.5 -79.5v-100h234v-242h-209v-768h-297v768h-328v-768h-297v768h-158v242h146v125q0 143 94.5 228t253.5 85
q128 0 203 -37l-54 -221q-54 31 -104 31t-79.5 -31.5t-29.5 -79.5v-100h340v125q0 143 94.5 228t254.5 85q127 0 202 -37l-53 -221q-54 31 -104 31zM1718 0h-295v1010h295v-1010z" />
    <glyph glyph-name="f_f_l.ss02" horiz-adv-x="1841" 
d="M1180 1221q-50 0 -79.5 -31.5t-29.5 -79.5v-100h234v-242h-209v-768h-297v768h-328v-768h-297v768h-158v242h146v125q0 143 94.5 228t253.5 85q128 0 203 -37l-54 -221q-54 31 -104 31t-79.5 -31.5t-29.5 -79.5v-100h340v125q0 143 94.5 228t254.5 85q127 0 202 -37
l-53 -221q-54 31 -104 31zM1423 0v1423h295v-1423h-295z" />
    <glyph glyph-name="fi.ss02" horiz-adv-x="1216" 
d="M946 1126q-69 0 -117.5 46.5t-48.5 115.5t48.5 115.5t117.5 46.5q72 0 120 -46.5t48 -115.5t-48 -115.5t-120 -46.5zM471 0h-297v768h-158v242h146v125q0 143 94.5 228t253.5 85q128 0 203 -37l-54 -221q-54 31 -104 31t-79.5 -31.5t-29.5 -79.5v-100h234v-242h-209v-768
zM1094 0h-295v1010h295v-1010z" />
    <glyph glyph-name="fl.ss02" horiz-adv-x="1216" 
d="M471 0h-297v768h-158v242h146v125q0 143 94.5 228t253.5 85q128 0 203 -37l-54 -221q-54 31 -104 31t-79.5 -31.5t-29.5 -79.5v-100h234v-242h-209v-768zM1094 0h-295v1423h295v-1423z" />
    <glyph glyph-name="zero.osf" horiz-adv-x="1263" 
d="M1038 133q-158 -158 -407 -158q-248 0 -406 158q-157 157 -157 414q0 259 157 416t406 157q250 0 407 -157q158 -158 158 -416q0 -256 -158 -414zM631 205q119 0 189.5 91.5t70.5 250.5q0 161 -70 252q-71 92 -190 92q-118 0 -189 -92q-69 -90 -69 -252q0 -157 70 -249.5
t188 -92.5z" />
    <glyph glyph-name="one.osf" horiz-adv-x="731" 
d="M588 0h-297v731q-90 -69 -258 -69v258q135 -11 218 36t83 140h254v-1096z" />
    <glyph glyph-name="two.osf" horiz-adv-x="1128" 
d="M1067 0h-1024v63q0 141 93 252.5t306 200.5l119 49q108 44 150.5 85.5t42.5 107.5q0 68 -47 107.5t-134 39.5q-104 0 -164.5 -69.5t-66.5 -184.5l-289 21q9 190 144 319t387 129q217 0 345 -92t128 -242q0 -157 -88 -233q-88 -79 -301 -156l-82 -28q-149 -55 -183 -125
h664v-244z" />
    <glyph glyph-name="three.osf" horiz-adv-x="1175" 
d="M578 -352q-262 0 -400 129q-141 129 -141 329q0 86 26 154l279 -51q-14 -49 -14 -96q0 -107 67.5 -171.5t182.5 -64.5q106 0 170.5 56.5t64.5 152.5q0 89 -61.5 141t-169.5 52h-72v227h57q99 0 157 54t58 145q0 83 -55.5 134.5t-148.5 51.5q-227 0 -248 -281l-285 33
q27 222 167.5 349.5t379.5 127.5q232 0 363.5 -104.5t131.5 -288.5q0 -125 -76.5 -211t-197.5 -110q145 -25 226 -110t81 -222q0 -196 -149 -312q-150 -114 -393 -114z" />
    <glyph glyph-name="four.osf" horiz-adv-x="1140" 
d="M965 -328h-283v328h-647v266q364 382 432 830h303q-73 -450 -453 -863h365v269h283v-269h155v-233h-155v-328z" />
    <glyph glyph-name="five.osf" horiz-adv-x="1173" 
d="M586 -352q-228 0 -369 107t-170 300l283 47q8 -98 73 -160.5t166 -62.5q110 0 176 66.5t66 183.5q0 109 -64.5 179.5t-166.5 70.5q-136 0 -242 -121l-238 70q65 381 68 766h864v-242h-629q-9 -188 -32 -354q100 112 288 112q202 0 330 -131q127 -133 127 -340
q0 -216 -147 -354q-149 -137 -383 -137z" />
    <glyph glyph-name="six.osf" horiz-adv-x="1234" 
d="M666 1448q224 0 358 -111.5t154 -310.5l-289 -41q-41 234 -238 234q-135 0 -212.5 -136.5t-73.5 -369.5q102 196 350 196q199 0 332 -121q131 -119 131 -325q0 -220 -150 -352q-151 -136 -391 -136q-267 0 -418 189t-151 512q0 354 159 563t439 209zM637 684
q-105 0 -172.5 -68t-67.5 -176q0 -105 67 -170t173 -65q103 0 169 66t66 171q0 107 -67 174.5t-168 67.5z" />
    <glyph glyph-name="seven.osf" horiz-adv-x="1093" 
d="M575 -328h-294q15 672 491 1180h-747v244h1005v-246q-443 -557 -455 -1178z" />
    <glyph glyph-name="eight.osf" horiz-adv-x="1224" 
d="M612 -27q-254 0 -403 119q-152 122 -152 328q0 110 66 199.5t188 138.5q-205 94 -205 297q0 178 144 286q145 109 362 109q218 0 363 -109q143 -107 143 -286q0 -199 -198 -297q117 -47 182 -137.5t65 -200.5q0 -208 -150 -327.5t-405 -119.5zM465 911q57 -51 147 -51
q91 0 148 51t57 131q0 78 -58.5 130.5t-146.5 52.5t-146 -52.5t-58 -130.5q0 -80 57 -131zM436 260q66 -57 176 -57t179 57q67 58 67 156q0 96 -70 156.5t-176 60.5q-107 0 -176 -60.5t-69 -156.5q0 -99 69 -156z" />
    <glyph glyph-name="nine.osf" horiz-adv-x="1234" 
d="M571 -352q-224 0 -358 111.5t-154 310.5l287 41q41 -234 238 -234q135 0 212.5 136.5t73.5 369.5q-102 -197 -348 -197q-201 0 -334 121q-131 119 -131 326q0 217 152 354q151 133 389 133q269 0 418 -186q151 -189 151 -514q0 -354 -159 -563t-437 -209zM600 412
q105 0 171.5 66.5t66.5 174.5q0 105 -66.5 171.5t-171.5 66.5q-104 0 -169.5 -66t-65.5 -172q0 -107 67 -174t168 -67z" />
    <glyph glyph-name="zero.tf" horiz-adv-x="1310" 
d="M655 -29q-278 0 -434 203q-158 202 -158 537q0 333 158 538q156 203 434 203q276 0 435 -203q157 -204 157 -538q0 -336 -157 -537q-159 -203 -435 -203zM442 358q74 -129 213 -129t215 129q74 130 74 353q0 221 -74 354q-76 129 -215 129t-213 -129q-75 -126 -75 -354
q0 -227 75 -353z" />
    <glyph glyph-name="one.tf" horiz-adv-x="1310" 
d="M862 1423v-1147h328v-276h-967v276h336v738q-104 -96 -338 -96v282q170 -6 263.5 50t93.5 173h284z" />
    <glyph glyph-name="two.tf" horiz-adv-x="1310" 
d="M1208 0h-1097v98q0 324 393 541l190 106q106 60 149.5 117t43.5 135q0 90 -60.5 142.5t-160.5 52.5q-108 0 -171 -61t-63 -154q0 -66 25 -127l-285 -76q-41 90 -41 205q0 192 143 332q144 141 408 141q232 0 373 -117q139 -121 139 -309q0 -160 -78.5 -269t-261.5 -206
l-197 -105q-159 -87 -186 -172h739z" />
    <glyph glyph-name="three.tf" horiz-adv-x="1310" 
d="M659 -29q-272 0 -419.5 130.5t-147.5 347.5q0 84 31 182l287 -74q-17 -59 -17 -104q0 -106 68.5 -167t195.5 -61q106 0 170 52.5t64 140.5q0 85 -63.5 132.5t-178.5 47.5h-76v246h66q106 0 164.5 46.5t58.5 133.5q0 82 -56.5 128t-156.5 46q-111 0 -176.5 -74.5
t-79.5 -205.5l-293 43q27 215 172 354q140 137 394 137q237 0 370 -106t133 -291q0 -122 -78 -209t-198 -111q145 -25 227 -111.5t82 -224.5q0 -197 -146 -312.5t-397 -115.5z" />
    <glyph glyph-name="four.tf" horiz-adv-x="1310" 
d="M1051 0h-291v301h-658v303q195 175 320.5 386t157.5 433h311q-40 -255 -174 -483q-135 -228 -318 -367h361v256h291v-256h168v-272h-168v-301z" />
    <glyph glyph-name="five.tf" horiz-adv-x="1310" 
d="M643 -29q-236 0 -383 113t-164 305l287 60q11 -99 79.5 -163.5t172.5 -64.5q106 0 174 67t68 175q0 106 -66.5 171.5t-175.5 65.5q-141 0 -246 -120l-233 69q56 317 71 774h879v-270h-627q-9 -185 -35 -346q100 121 297 121q202 0 324 -131q123 -132 123 -334
q0 -216 -150 -354t-395 -138z" />
    <glyph glyph-name="six.tf" horiz-adv-x="1310" 
d="M684 -29q-275 0 -432 189q-158 190 -158 512q0 358 166 569q163 211 440 211q241 0 374.5 -108.5t158.5 -313.5l-289 -47q-35 215 -244 215q-141 0 -224.5 -132t-82.5 -361q99 215 363 215q212 0 350 -123q138 -126 135 -338q0 -218 -156 -353t-401 -135zM684 211
q109 0 179.5 66t70.5 169t-70.5 169.5t-179.5 66.5q-110 0 -182 -67.5t-72 -170.5q0 -102 71.5 -167.5t182.5 -65.5z" />
    <glyph glyph-name="seven.tf" horiz-adv-x="1310" 
d="M688 0h-305q15 658 459 1157h-723v266h1016v-274q-223 -289 -332 -564.5t-115 -584.5z" />
    <glyph glyph-name="eight.tf" horiz-adv-x="1310" 
d="M1081 92q-157 -121 -422 -121q-262 0 -419 121q-158 122 -158 328q0 112 63.5 201.5t182.5 138.5q-90 44 -141.5 121.5t-51.5 175.5q0 181 150 289q144 106 374 106q232 0 379 -106q148 -109 148 -289q0 -98 -51.5 -176.5t-139.5 -120.5q117 -47 180.5 -137.5
t63.5 -202.5q0 -206 -158 -328zM659 866q97 0 158.5 49.5t61.5 128.5q0 78 -61.5 127.5t-158.5 49.5q-94 0 -156.5 -50t-62.5 -127q0 -79 62 -128.5t157 -49.5zM659 203q120 0 194.5 59t74.5 156q0 96 -75.5 156.5t-193.5 60.5q-117 0 -191.5 -60.5t-74.5 -156.5
q0 -97 74 -156t192 -59z" />
    <glyph glyph-name="nine.tf" horiz-adv-x="1310" 
d="M614 -29q-242 0 -378 112.5t-160 324.5l289 47q40 -230 247 -230q144 0 230.5 132.5t85.5 361.5q-102 -211 -353 -211q-217 0 -354 125q-141 123 -141 334q0 217 156 352q154 133 399 133q279 0 434 -186q158 -190 158 -512q0 -359 -166 -570q-171 -213 -447 -213z
M457 811q72 -66 180 -66q111 0 182 68q70 64 70 168q0 100 -71 165.5t-181 65.5q-109 0 -179.5 -65.5t-70.5 -167.5q0 -104 70 -168z" />
    <glyph glyph-name="zero.tosf" horiz-adv-x="1228" 
d="M1012 133q-155 -158 -398 -158q-242 0 -397 158q-154 157 -154 416t154 416t397 157q244 0 398 -157q153 -156 153 -416t-153 -416zM438 297q65 -92 176 -92t179 92q65 92 65 252t-65 252q-68 92 -179 92t-176 -92q-67 -91 -67 -252t67 -252z" />
    <glyph glyph-name="one.tosf" horiz-adv-x="1228" 
d="M811 1096v-865h270v-231h-876v231h309v500q-104 -82 -299 -82v258q144 -11 230.5 38.5t86.5 150.5h279z" />
    <glyph glyph-name="two.tosf" horiz-adv-x="1228" 
d="M1102 0h-1024v63q0 141 93 252.5t306 200.5l119 49q108 43 150 85t42 108q0 69 -46.5 108t-133.5 39q-104 0 -164.5 -69.5t-66.5 -184.5l-289 21q9 191 143 319q135 129 387 129q217 0 345.5 -92.5t128.5 -241.5q0 -157 -88 -233q-87 -78 -302 -156l-81 -28
q-152 -56 -181 -125h662v-244z" />
    <glyph glyph-name="three.tosf" horiz-adv-x="1228" 
d="M610 -354q-261 0 -399 129q-141 129 -141 329q0 86 26 154l279 -49q-15 -58 -15 -98q0 -105 68 -170.5t182 -65.5q106 0 171 57.5t65 153.5q0 87 -62 138.5t-170 51.5h-73v230h59q102 0 158.5 52.5t56.5 143.5q0 85 -56 137t-149 52q-227 0 -248 -283l-284 33
q27 223 167 350t380 127q232 0 362.5 -104t130.5 -289q0 -125 -75.5 -211.5t-196.5 -110.5q144 -24 224.5 -108t80.5 -221q0 -197 -147 -314q-150 -114 -394 -114z" />
    <glyph glyph-name="four.tosf" horiz-adv-x="1228" 
d="M1016 -328h-285v328h-647v266q364 382 432 830h305q-77 -456 -454 -863h364v269h285v-269h155v-233h-155v-328z" />
    <glyph glyph-name="five.tosf" horiz-adv-x="1228" 
d="M621 -352q-228 0 -368 107t-169 300l281 47q11 -98 77 -160.5t164 -62.5q108 0 174 66.5t66 183.5q0 111 -64 180.5t-166 69.5q-134 0 -243 -121l-238 70q67 406 70 766h862v-242h-627q-10 -205 -34 -354q100 112 290 112q203 0 328 -131q127 -133 127 -340
q0 -216 -147 -354q-149 -137 -383 -137z" />
    <glyph glyph-name="six.tosf" horiz-adv-x="1228" 
d="M657 1448q224 0 358 -111.5t154 -310.5l-286 -41q-41 234 -238 234q-135 0 -213 -136.5t-74 -369.5q102 196 349 196q200 0 333 -121q131 -119 131 -325q0 -221 -149 -352q-151 -136 -391 -136q-267 0 -418 189q-152 190 -152 512q0 353 160 563q159 209 436 209z
M629 684q-105 0 -171.5 -67.5t-66.5 -176.5q0 -105 66.5 -170t171.5 -65q104 0 169.5 65.5t65.5 171.5q0 107 -67 174.5t-168 67.5z" />
    <glyph glyph-name="seven.tosf" horiz-adv-x="1228" 
d="M629 -328h-297q15 672 491 1180h-745v244h1003v-246q-440 -557 -452 -1178z" />
    <glyph glyph-name="eight.tosf" horiz-adv-x="1228" 
d="M610 -27q-254 0 -403 119q-152 122 -152 328q0 110 66 199.5t188 138.5q-205 94 -205 297q0 178 144 286q145 109 362 109q220 0 365 -109q143 -107 143 -286q0 -198 -200 -297q117 -47 182 -137.5t65 -200.5q0 -208 -150 -327.5t-405 -119.5zM463 911q57 -51 147 -51
q91 0 148 51t57 131t-57.5 131.5t-147.5 51.5q-88 0 -146 -52.5t-58 -130.5q0 -80 57 -131zM434 260q66 -57 176 -57q109 0 178 57q68 59 68 156q0 96 -69.5 156.5t-176.5 60.5q-105 0 -174 -60.5t-69 -156.5q0 -98 67 -156z" />
    <glyph glyph-name="nine.tosf" horiz-adv-x="1228" 
d="M569 -352q-224 0 -358 111.5t-154 310.5l289 41q38 -234 236 -234q136 0 213.5 136.5t72.5 369.5q-95 -197 -348 -197q-199 0 -332 121q-131 119 -131 326q0 217 152 354q151 133 389 133q269 0 418 -186q151 -189 151 -514q0 -354 -159 -563t-439 -209zM598 412
q105 0 171.5 66.5t66.5 174.5q0 105 -66.5 171.5t-171.5 66.5q-103 0 -169.5 -66.5t-66.5 -171.5q0 -107 67.5 -174t168.5 -67z" />
    <glyph glyph-name="exclamdown.case" horiz-adv-x="589" 
d="M164 1395q37 42 94.5 50.5t108 -11.5t85.5 -66.5t31 -103.5q0 -78 -55 -131.5t-133 -53.5q-80 0 -133 53t-53 132t55 131zM154 969h274l23 -969h-320z" />
    <glyph glyph-name="questiondown.case" horiz-adv-x="1169" 
d="M469 1395q37 42 94.5 50.5t108 -11.5t85.5 -66.5t31 -103.5q0 -78 -55 -131.5t-133 -53.5q-80 0 -133 53t-53 132t55 131zM440 981h299q0 -102 -40.5 -176.5t-135.5 -136.5q-112 -77 -151 -129.5t-39 -122.5q0 -82 55 -133.5t147 -51.5q102 0 164 59.5t62 149.5
q0 54 -25 121l287 76q41 -90 41 -199q0 -189 -141 -327q-143 -140 -408 -140q-233 0 -365.5 114.5t-132.5 315.5q0 239 281 410q58 37 79 74t23 96z" />
    <glyph glyph-name="periodcentered.case" horiz-adv-x="561" 
d="M281 535q-76 0 -131.5 54.5t-55.5 131.5t55.5 130.5t131.5 53.5q80 0 134 -53t54 -131q0 -79 -54 -132.5t-134 -53.5z" />
    <glyph glyph-name="slash.case" horiz-adv-x="905" 
d="M256 -137h-240l633 1700h238z" />
    <glyph glyph-name="backslash.case" horiz-adv-x="909" 
d="M893 -137h-244l-633 1700h244z" />
    <glyph glyph-name="parenleft.case" horiz-adv-x="757" 
d="M717 6l-103 -190q-495 255 -495 893q0 636 495 897l103 -191q-350 -212 -350 -704q0 -499 350 -705z" />
    <glyph glyph-name="parenright.case" horiz-adv-x="757" 
d="M143 -184l-102 190q352 210 352 705q0 500 -352 704l102 191q498 -255 498 -893q0 -636 -498 -897z" />
    <glyph glyph-name="braceleft.case" horiz-adv-x="804" 
d="M745 27v-211q-249 7 -364 80.5t-115 222.5q0 67 33 170t33 170q0 153 -244 153h-14v197h14q244 0 244 154q0 69 -33 172t-33 168q0 149 115 222.5t364 80.5v-211q-139 -8 -190 -38t-51 -108q0 -46 35 -149q32 -95 32 -178q0 -88 -54.5 -142.5t-154.5 -68.5
q209 -30 209 -211q0 -81 -32 -176q-35 -103 -35 -150q0 -80 50.5 -109.5t190.5 -37.5z" />
    <glyph glyph-name="braceright.case" horiz-adv-x="804" 
d="M59 -184v211q139 8 190.5 37.5t51.5 107.5q0 52 -33 150q-35 103 -35 178q0 88 54.5 142.5t154.5 68.5q-209 30 -209 211q0 75 35 178q33 98 33 147q0 80 -51.5 110t-190.5 38v211q251 -7 366.5 -80.5t115.5 -222.5q0 -65 -33 -168t-33 -172q0 -154 242 -154h14v-197h-14
q-242 0 -242 -153q0 -67 33 -170t33 -170q0 -149 -115.5 -222.5t-366.5 -80.5z" />
    <glyph glyph-name="bracketleft.case" horiz-adv-x="745" 
d="M694 1606v-211h-256v-1368h256v-211h-497v1790h497z" />
    <glyph glyph-name="bracketright.case" horiz-adv-x="745" 
d="M51 1606h498v-1790h-498v209h256v1372h-256v209z" />
    <glyph glyph-name="hyphen.case" horiz-adv-x="745" 
d="M653 598h-559v250h559v-250z" />
    <glyph glyph-name="endash.case" horiz-adv-x="1173" 
d="M1063 602h-954v240h954v-240z" />
    <glyph glyph-name="emdash.case" horiz-adv-x="2048" 
d="M1976 602h-1904v238h1904v-238z" />
    <glyph glyph-name="guillemotleft.case" horiz-adv-x="1163" 
d="M551 600v-272l-467 262v258l467 262v-268l-242 -123zM1059 600v-272l-465 262v258l465 262v-268l-242 -123z" />
    <glyph glyph-name="guillemotright.case" horiz-adv-x="1163" 
d="M571 590l-467 -262v268l242 123l-242 121v270l467 -262v-258zM1079 590l-465 -262v268l242 123l-242 121v270l465 -262v-258z" />
    <glyph glyph-name="guilsinglleft.case" horiz-adv-x="647" 
d="M551 600v-272l-467 262v258l467 262v-268l-242 -123z" />
    <glyph glyph-name="guilsinglright.case" horiz-adv-x="655" 
d="M571 592l-467 -262v268l242 123l-242 119v272l467 -262v-258z" />
    <glyph glyph-name="at.case" horiz-adv-x="1953" 
d="M948 -139q-376 0 -622 231q-248 230 -248 590q0 367 264 604q260 236 657 236q388 0 639 -219q248 -217 248 -560q0 -259 -119 -381q-118 -124 -297 -124q-109 0 -178 42.5t-88 114.5q-94 -155 -289 -155q-175 0 -288 131q-115 130 -115 317t115 320q114 129 288 129
q186 0 271 -131v106h215v-551q0 -115 88 -115q74 0 116 79t42 220q0 249 -183 414q-186 160 -467 160q-296 0 -487 -176q-191 -179 -191 -461q0 -271 179 -444q175 -175 452 -175q210 0 391 111l62 -197q-186 -116 -455 -116zM975 449q92 0 151.5 69.5t59.5 169.5t-59.5 170
t-151.5 70q-97 0 -155 -67t-58 -173t58 -172.5t155 -66.5z" />
    <glyph glyph-name="bar.case" horiz-adv-x="610" 
d="M422 -137h-232v1700h232v-1700z" />
    <glyph glyph-name="brokenbar.case" horiz-adv-x="610" 
d="M422 860h-232v703h232v-703zM422 -137h-232v690h232v-690z" />
    <glyph glyph-name="uni030C.alt" horiz-adv-x="0" 
d="M-252 1061h-190l39 362h243z" />
    </font>
</defs>
</svg>
