<svg width="49" height="27" viewBox="0 0 49 27" fill="none" xmlns="http://www.w3.org/2000/svg">
<rect x="0.560606" y="0.560606" width="47.4" height="25.128" rx="5.43939" fill="white" stroke="#EEEEEE" stroke-width="1.12121"/>
<g clip-path="url(#clip0_1457_307)">
<path d="M17.5716 20.6016V19.5487C17.5716 19.145 17.3041 18.8818 16.8457 18.8818C16.6166 18.8818 16.3683 18.952 16.1964 19.1801C16.0627 18.9871 15.8718 18.8818 15.5853 18.8818C15.3942 18.8818 15.2033 18.9344 15.0505 19.1275V18.9169H14.6494V20.6016H15.0505V19.6715C15.0505 19.3732 15.2224 19.2327 15.4898 19.2327C15.7571 19.2327 15.8909 19.3907 15.8909 19.6715V20.6016H16.292V19.6715C16.292 19.3732 16.4829 19.2327 16.7312 19.2327C16.9986 19.2327 17.1322 19.3907 17.1322 19.6715V20.6016H17.5716ZM23.5112 18.9169H22.8619V18.408H22.4608V18.9169H22.0979V19.2502H22.4607V20.0225C22.4607 20.4086 22.6326 20.6367 23.091 20.6367C23.2629 20.6367 23.4538 20.5841 23.5876 20.5139L23.473 20.198C23.3584 20.2682 23.2248 20.2857 23.1292 20.2857C22.9383 20.2857 22.8619 20.1805 22.8619 20.0049V19.2502H23.5112V18.9169ZM26.9108 18.8817C26.6816 18.8817 26.5288 18.9871 26.4333 19.1275V18.9169H26.0323V20.6016H26.4333V19.654C26.4333 19.3732 26.567 19.2152 26.8153 19.2152C26.8916 19.2152 26.9872 19.2328 27.0636 19.2503L27.1781 18.8994C27.1017 18.8818 26.9872 18.8818 26.9108 18.8818V18.8817ZM21.7732 19.0573C21.5822 18.9344 21.3148 18.8818 21.0284 18.8818C20.57 18.8818 20.2645 19.0924 20.2645 19.4258C20.2645 19.7066 20.4936 19.8645 20.8947 19.9172L21.0857 19.9348C21.2958 19.9698 21.4104 20.0225 21.4104 20.1103C21.4104 20.2331 21.2576 20.3208 20.9902 20.3208C20.7228 20.3208 20.5127 20.2331 20.379 20.1454L20.188 20.4261C20.3981 20.5665 20.6846 20.6367 20.971 20.6367C21.5058 20.6367 21.8114 20.4086 21.8114 20.0927C21.8114 19.7943 21.5631 19.6364 21.1811 19.5838L20.9902 19.5662C20.8182 19.5486 20.6846 19.5136 20.6846 19.4083C20.6846 19.2854 20.8182 19.2152 21.0284 19.2152C21.2576 19.2152 21.4868 19.3029 21.6013 19.3556L21.7732 19.0573ZM32.4303 18.8818C32.2011 18.8818 32.0483 18.9871 31.9528 19.1275V18.9169H31.5517V20.6016H31.9528V19.654C31.9528 19.3732 32.0865 19.2152 32.3347 19.2152C32.4112 19.2152 32.5067 19.2328 32.5831 19.2503L32.6977 18.8994C32.6213 18.8818 32.5067 18.8818 32.4303 18.8818ZM27.3118 19.7592C27.3118 20.2682 27.6938 20.6367 28.2859 20.6367C28.5533 20.6367 28.7442 20.5841 28.9352 20.4437L28.7442 20.1454C28.5914 20.2506 28.4387 20.3032 28.2668 20.3032C27.9421 20.3032 27.7129 20.0927 27.7129 19.7592C27.7129 19.4434 27.9421 19.2327 28.2668 19.2152C28.4387 19.2152 28.5914 19.2678 28.7442 19.3732L28.9352 19.0748C28.7442 18.9344 28.5533 18.8818 28.2859 18.8818C27.6938 18.8818 27.3118 19.2503 27.3118 19.7592ZM31.017 19.7592V18.9169H30.6159V19.1275C30.4822 18.9696 30.2913 18.8818 30.043 18.8818C29.5273 18.8818 29.1262 19.2503 29.1262 19.7592C29.1262 20.2682 29.5273 20.6367 30.043 20.6367C30.3103 20.6367 30.5014 20.549 30.6159 20.391V20.6016H31.017V19.7592ZM29.5464 19.7592C29.5464 19.4609 29.7565 19.2152 30.1002 19.2152C30.4249 19.2152 30.6541 19.4434 30.6541 19.7592C30.6541 20.0576 30.4249 20.3032 30.1002 20.3032C29.7565 20.2857 29.5464 20.0576 29.5464 19.7592ZM24.7527 18.8818C24.2179 18.8818 23.8358 19.2327 23.8358 19.7592C23.8358 20.2857 24.2178 20.6367 24.7717 20.6367C25.0391 20.6367 25.3065 20.5665 25.5166 20.4086L25.3255 20.1454C25.1728 20.2506 24.9818 20.3208 24.7908 20.3208C24.5425 20.3208 24.2942 20.2156 24.2369 19.9171H25.593V19.7768C25.6121 19.2327 25.2684 18.8818 24.7527 18.8818ZM24.7527 19.1976C25.0009 19.1976 25.1729 19.3381 25.211 19.6014H24.2561C24.2942 19.3732 24.4662 19.1976 24.7527 19.1976ZM34.703 19.7592V18.25H34.302V19.1275C34.1682 18.9696 33.9773 18.8818 33.729 18.8818C33.2133 18.8818 32.8123 19.2503 32.8123 19.7592C32.8123 20.2682 33.2133 20.6367 33.729 20.6367C33.9964 20.6367 34.1874 20.549 34.302 20.391V20.6016H34.703V19.7592ZM33.2325 19.7592C33.2325 19.4609 33.4425 19.2152 33.7863 19.2152C34.111 19.2152 34.3402 19.4434 34.3402 19.7592C34.3402 20.0576 34.111 20.3032 33.7863 20.3032C33.4425 20.2857 33.2325 20.0576 33.2325 19.7592ZM19.8251 19.7592V18.9169H19.4241V19.1275C19.2903 18.9696 19.0994 18.8818 18.8511 18.8818C18.3354 18.8818 17.9344 19.2503 17.9344 19.7592C17.9344 20.2682 18.3354 20.6367 18.8511 20.6367C19.1185 20.6367 19.3095 20.549 19.4241 20.391V20.6016H19.8251V19.7592ZM18.3354 19.7592C18.3354 19.4609 18.5455 19.2152 18.8893 19.2152C19.214 19.2152 19.4432 19.4434 19.4432 19.7592C19.4432 20.0576 19.214 20.3032 18.8893 20.3032C18.5455 20.2857 18.3354 20.0576 18.3354 19.7592Z" fill="black"/>
<path d="M21.6387 6.12305H27.6547V16.056H21.6387V6.12305Z" fill="#FF5F00"/>
<path d="M22.0214 11.0893C22.0214 9.07112 23.0527 7.28105 24.6379 6.12276C23.4729 5.2804 22.0024 4.77148 20.3981 4.77148C16.5973 4.77148 13.5225 7.5969 13.5225 11.0893C13.5225 14.5816 16.5973 17.4071 20.398 17.4071C22.0023 17.4071 23.4728 16.8982 24.6379 16.0557C23.0527 14.915 22.0214 13.1074 22.0214 11.0893Z" fill="#EB001B"/>
<path d="M35.7716 11.0893C35.7716 14.5816 32.6968 17.4071 28.8961 17.4071C27.2918 17.4071 25.8213 16.8982 24.6562 16.0557C26.2605 14.8975 27.2728 13.1074 27.2728 11.0893C27.2728 9.07112 26.2414 7.28105 24.6562 6.12276C25.8212 5.2804 27.2918 4.77148 28.8961 4.77148C32.6968 4.77148 35.7716 7.61449 35.7716 11.0893Z" fill="#F79E1B"/>
</g>
<defs>
<clipPath id="clip0_1457_307">
<rect width="22.272" height="15.9086" fill="white" transform="translate(13.5225 4.77148)"/>
</clipPath>
</defs>
</svg>
