<svg width="49" height="27" viewBox="0 0 49 27" fill="none" xmlns="http://www.w3.org/2000/svg">
<rect x="0.649473" y="0.560606" width="47.4" height="25.128" rx="5.43939" fill="white" stroke="#EEEEEE" stroke-width="1.12121"/>
<g clip-path="url(#clip0_1457_308)">
<path d="M25.2671 11.5361C25.2499 12.7501 26.4789 13.4275 27.4047 13.8303C28.3558 14.2436 28.6754 14.5086 28.6716 14.8782C28.6645 15.4438 27.9128 15.6934 27.2095 15.7031C25.9824 15.7201 25.2689 15.4073 24.7016 15.1707L24.2596 17.0176C24.8287 17.2517 25.8825 17.4559 26.9752 17.4648C29.5403 17.4648 31.2185 16.3343 31.2276 14.5815C31.2376 12.357 27.7813 12.2339 27.8049 11.2396C27.8131 10.9381 28.1353 10.6163 28.8414 10.5345C29.1909 10.4932 30.1556 10.4616 31.2494 10.9113L31.6787 9.12445C31.0905 8.93323 30.3345 8.75011 29.3932 8.75011C26.9789 8.75011 25.2808 9.89601 25.2671 11.5361ZM35.8039 8.90402C35.3355 8.90402 34.9408 9.14796 34.7647 9.5223L31.1005 17.3336H33.6638L34.1738 16.075H37.306L37.6019 17.3336H39.8611L37.8897 8.90402H35.8039ZM36.1625 11.1812L36.9022 14.3466H34.8764L36.1625 11.1812ZM22.1593 8.90413L20.1389 17.3335H22.5814L24.6009 8.90392H22.1593M18.546 8.90392L16.0037 14.6415L14.9753 9.76308C14.8546 9.21849 14.3781 8.90402 13.8489 8.90402H9.69297L9.63477 9.14881C10.488 9.3141 11.4573 9.58071 12.0446 9.86597C12.404 10.0402 12.5065 10.1926 12.6246 10.6066L14.5724 17.3336H17.1536L21.1109 8.90402L18.546 8.90392Z" fill="url(#paint0_linear_1457_308)"/>
</g>
<defs>
<linearGradient id="paint0_linear_1457_308" x1="1399.26" y1="34.9466" x2="1421.79" y2="-860.213" gradientUnits="userSpaceOnUse">
<stop stop-color="#222357"/>
<stop offset="1" stop-color="#254AA5"/>
</linearGradient>
<clipPath id="clip0_1457_308">
<rect width="30.2263" height="8.74973" fill="white" transform="translate(9.63477 8.75)"/>
</clipPath>
</defs>
</svg>
