<svg width="50" height="27" viewBox="0 0 50 27" fill="none" xmlns="http://www.w3.org/2000/svg">
<rect x="1.50104" y="0.560606" width="47.4" height="25.128" rx="5.43939" fill="white" stroke="#EEEEEE" stroke-width="1.12121"/>
<path d="M34.3126 10.8984H32.425C32.3139 10.8984 32.2029 11.0072 32.1474 11.1161L31.3701 15.9036C31.3701 16.0124 31.4256 16.0668 31.5367 16.0668H32.536C32.647 16.0668 32.7026 16.0124 32.7026 15.9036L32.9246 14.5435C32.9246 14.4347 33.0357 14.3259 33.2022 14.3259H33.8129C35.0898 14.3259 35.8116 13.7275 35.9781 12.5306C36.0892 12.0409 35.9781 11.6057 35.7561 11.3337C35.4229 11.0617 34.9233 10.8984 34.3126 10.8984ZM34.5347 12.6938C34.4236 13.3466 33.924 13.3466 33.4243 13.3466H33.0912L33.3133 12.0953C33.3133 12.0409 33.3688 11.9865 33.4798 11.9865H33.5908C33.924 11.9865 34.2571 11.9865 34.4236 12.2041C34.5347 12.2585 34.5347 12.4218 34.5347 12.6938Z" fill="#139AD6"/>
<path d="M20.4977 10.8984H18.5208C18.4045 10.8984 18.2882 11.0061 18.23 11.1138L17.416 15.8515C17.416 15.9592 17.4742 16.013 17.5905 16.013H18.5208C18.6371 16.013 18.7533 15.9053 18.8115 15.7977L19.0441 14.5056C19.0441 14.3979 19.1604 14.2902 19.3348 14.2902H19.9744C21.3117 14.2902 22.0676 13.698 22.242 12.5136C22.3583 12.029 22.242 11.5983 22.0094 11.3291C21.6606 11.06 21.1954 10.8984 20.4977 10.8984ZM20.7303 12.6751C20.614 13.3211 20.0907 13.3211 19.5674 13.3211H19.2766L19.5092 12.0829C19.5092 12.029 19.5674 11.9752 19.6837 11.9752H19.7999C20.1488 11.9752 20.4977 11.9752 20.6721 12.1905C20.7303 12.2444 20.7884 12.4059 20.7303 12.6751ZM26.4866 12.6212H25.5563C25.4981 12.6212 25.3818 12.6751 25.3818 12.7289L25.3237 12.9981L25.2655 12.8904C25.033 12.6212 24.626 12.5136 24.1608 12.5136C23.1142 12.5136 22.1839 13.2673 22.0094 14.2902C21.8932 14.8286 22.0676 15.3131 22.3583 15.6361C22.649 15.9592 23.056 16.0668 23.5793 16.0668C24.4515 16.0668 24.9167 15.5823 24.9167 15.5823L24.8585 15.8515C24.8585 15.9592 24.9167 16.013 25.033 16.013H25.9051C26.0214 16.013 26.1377 15.9053 26.1959 15.7977L26.7192 12.7828C26.661 12.7289 26.5447 12.6212 26.4866 12.6212ZM25.1493 14.344C25.033 14.8286 24.626 15.2054 24.0445 15.2054C23.7538 15.2054 23.5212 15.0978 23.4049 14.9901C23.2886 14.8286 23.2305 14.6132 23.2305 14.344C23.2886 13.8595 23.7538 13.4826 24.2771 13.4826C24.5678 13.4826 24.7422 13.5903 24.9167 13.698C25.0911 13.8595 25.1493 14.1287 25.1493 14.344Z" fill="#263B80"/>
<path d="M40.4441 12.5589H39.5324C39.4754 12.5589 39.3614 12.6137 39.3614 12.6685L39.3044 12.9426L39.2474 12.8329C39.0195 12.5589 38.6206 12.4492 38.1647 12.4492C37.1389 12.4492 36.2272 13.2167 36.0562 14.2582C35.9422 14.8063 36.1132 15.2997 36.3981 15.6286C36.6831 15.9575 37.082 16.0671 37.5948 16.0671C38.4496 16.0671 38.9055 15.5738 38.9055 15.5738L38.8485 15.8478C38.8485 15.9575 38.9055 16.0123 39.0195 16.0123H39.8743C39.9882 16.0123 40.1022 15.9027 40.1592 15.793L40.6721 12.7233C40.6151 12.6685 40.5581 12.5589 40.4441 12.5589ZM39.1335 14.313C39.0195 14.8063 38.6206 15.19 38.0507 15.19C37.7658 15.19 37.5378 15.0804 37.4239 14.9708C37.3099 14.8063 37.2529 14.5871 37.2529 14.313C37.3099 13.8196 37.7658 13.4359 38.2787 13.4359C38.5636 13.4359 38.7346 13.5455 38.9055 13.6552C39.1335 13.8196 39.1904 14.0937 39.1335 14.313Z" fill="#139AD6"/>
<path d="M31.2224 12.4492H30.2281C30.1111 12.4492 30.0526 12.5086 29.9941 12.568L28.7074 14.5879L28.1225 12.6868C28.064 12.568 28.0055 12.5086 27.83 12.5086H26.8942C26.7772 12.5086 26.7188 12.6274 26.7188 12.7463L27.7715 15.8948L26.7772 17.3206C26.7187 17.4394 26.7772 17.6176 26.8942 17.6176H27.83C27.947 17.6176 28.0055 17.5582 28.064 17.4988L31.2808 12.8057C31.4563 12.6274 31.3393 12.4492 31.2224 12.4492Z" fill="#263B80"/>
<path d="M41.4758 11.0281L40.6719 15.9043C40.6719 16.0127 40.7293 16.0668 40.8442 16.0668H41.6481C41.763 16.0668 41.8778 15.9585 41.9353 15.8501L42.7392 11.0822C42.7392 10.9739 42.6818 10.9197 42.567 10.9197H41.6481C41.5907 10.8655 41.5333 10.9197 41.4758 11.0281Z" fill="#139AD6"/>
<path d="M15.7935 8.11111C15.2944 7.55787 14.3676 7.28125 13.0843 7.28125H9.51965C9.30577 7.28125 9.09189 7.48871 9.02059 7.69618L7.59473 16.7555C7.59473 16.9629 7.73731 17.1012 7.8799 17.1012H10.09L10.6603 13.7126V13.851C10.7316 13.6435 10.9455 13.436 11.1594 13.436H12.2288C14.2963 13.436 15.8648 12.6062 16.3638 10.3241V10.1166C16.2925 10.1166 16.2925 10.1166 16.3638 10.1166C16.4351 9.21758 16.2925 8.66435 15.7935 8.11111Z" fill="#263B80"/>
<path d="M16.0506 10.3828V10.5913C15.5537 12.954 13.9921 13.7184 11.9336 13.7184H10.8688C10.6559 13.7184 10.4429 13.9269 10.3719 14.1353L9.66211 18.3743C9.66211 18.5133 9.73309 18.6523 9.94604 18.6523H11.7916C12.0046 18.6523 12.2175 18.5133 12.2175 18.3048V18.2353L12.5724 16.0811V15.9421C12.5724 15.7336 12.7854 15.5947 12.9983 15.5947H13.2823C15.0569 15.5947 16.4765 14.8997 16.8314 12.815C16.9734 11.9811 16.9024 11.2167 16.4765 10.7303C16.4055 10.5913 16.2636 10.4523 16.0506 10.3828Z" fill="#139AD6"/>
<path d="M15.7498 10.0739C15.6797 10.0739 15.6095 10.005 15.5393 10.005C15.4691 10.005 15.3989 10.005 15.3287 9.9361C15.048 9.86719 14.7672 9.86719 14.4163 9.86719H11.6789C11.6087 9.86719 11.5385 9.86719 11.4684 9.9361C11.328 10.005 11.2578 10.1428 11.2578 10.2807L10.6963 13.8641V14.0019C10.7665 13.7952 10.977 13.5884 11.1876 13.5884H12.2404C14.2759 13.5884 15.82 12.7615 16.3114 10.4874C16.3114 10.4185 16.3114 10.3496 16.3815 10.2807C16.2412 10.2117 16.171 10.1428 16.0306 10.1428C15.82 10.0739 15.82 10.0739 15.7498 10.0739Z" fill="#232C65"/>
</svg>
